%TF.GenerationSoftware,KiCad,Pcbnew,(5.1.10)-1*%
%TF.CreationDate,2021-07-01T22:03:52-07:00*%
%TF.ProjectId,BivalveBit_RevA,42697661-6c76-4654-9269-745f52657641,A*%
%TF.SameCoordinates,Original*%
%TF.FileFunction,Copper,L2,Bot*%
%TF.FilePolarity,Positive*%
%FSLAX46Y46*%
G04 Gerber Fmt 4.6, Leading zero omitted, Abs format (unit mm)*
G04 Created by KiCad (PCBNEW (5.1.10)-1) date 2021-07-01 22:03:52*
%MOMM*%
%LPD*%
G01*
G04 APERTURE LIST*
%TA.AperFunction,SMDPad,CuDef*%
%ADD10C,5.000000*%
%TD*%
%TA.AperFunction,SMDPad,CuDef*%
%ADD11R,3.500000X3.300000*%
%TD*%
%TA.AperFunction,ComponentPad*%
%ADD12O,1.700000X1.700000*%
%TD*%
%TA.AperFunction,ComponentPad*%
%ADD13R,1.700000X1.700000*%
%TD*%
%TA.AperFunction,ComponentPad*%
%ADD14O,1.750000X1.200000*%
%TD*%
%TA.AperFunction,ComponentPad*%
%ADD15C,2.000000*%
%TD*%
%TA.AperFunction,ComponentPad*%
%ADD16O,1.200000X1.750000*%
%TD*%
%TA.AperFunction,ViaPad*%
%ADD17C,0.685800*%
%TD*%
%TA.AperFunction,Conductor*%
%ADD18C,0.152400*%
%TD*%
%TA.AperFunction,Conductor*%
%ADD19C,0.254000*%
%TD*%
%TA.AperFunction,Conductor*%
%ADD20C,0.100000*%
%TD*%
G04 APERTURE END LIST*
D10*
%TO.P,RTC_BATT1,2*%
%TO.N,GND*%
X132080000Y-130810000D03*
D11*
%TO.P,RTC_BATT1,1*%
%TO.N,+BATT*%
X139980000Y-130810000D03*
X124180000Y-130810000D03*
%TD*%
D12*
%TO.P,J1,2*%
%TO.N,/3V3_FTDI*%
X106680000Y-126492000D03*
D13*
%TO.P,J1,1*%
%TO.N,VBUS*%
X109220000Y-126492000D03*
%TD*%
D14*
%TO.P,PRIMARY_BATTERY1,2*%
%TO.N,GND*%
X107950000Y-132810000D03*
%TO.P,PRIMARY_BATTERY1,1*%
%TO.N,VBUS*%
%TA.AperFunction,ComponentPad*%
G36*
G01*
X107324999Y-130210000D02*
X108575001Y-130210000D01*
G75*
G02*
X108825000Y-130459999I0J-249999D01*
G01*
X108825000Y-131160001D01*
G75*
G02*
X108575001Y-131410000I-249999J0D01*
G01*
X107324999Y-131410000D01*
G75*
G02*
X107075000Y-131160001I0J249999D01*
G01*
X107075000Y-130459999D01*
G75*
G02*
X107324999Y-130210000I249999J0D01*
G01*
G37*
%TD.AperFunction*%
%TD*%
D12*
%TO.P,OLED1,4*%
%TO.N,/SDA*%
X173482000Y-132588000D03*
%TO.P,OLED1,3*%
%TO.N,/SCL*%
X173482000Y-130048000D03*
%TO.P,OLED1,2*%
%TO.N,VBUS*%
X173482000Y-127508000D03*
D13*
%TO.P,OLED1,1*%
%TO.N,GND*%
X173482000Y-124968000D03*
%TD*%
D15*
%TO.P,J7,1*%
%TO.N,/AREF*%
X177292000Y-136652000D03*
%TD*%
D12*
%TO.P,J6,3*%
%TO.N,Net-(J6-Pad3)*%
X166116000Y-136652000D03*
%TO.P,J6,2*%
%TO.N,/PD2*%
X163576000Y-136652000D03*
D13*
%TO.P,J6,1*%
%TO.N,GND*%
X161036000Y-136652000D03*
%TD*%
D15*
%TO.P,J5,1*%
%TO.N,/PD5*%
X174752000Y-136652000D03*
%TD*%
%TO.P,J4,1*%
%TO.N,/PD4*%
X172212000Y-136652000D03*
%TD*%
%TO.P,J3,1*%
%TO.N,/PF3*%
X182372000Y-136652000D03*
%TD*%
%TO.P,J2,1*%
%TO.N,/PF2*%
X179832000Y-136652000D03*
%TD*%
D16*
%TO.P,HEART_SENSOR1,4*%
%TO.N,/SCL1*%
X200310000Y-125984000D03*
%TO.P,HEART_SENSOR1,3*%
%TO.N,/SDA1*%
X198310000Y-125984000D03*
%TO.P,HEART_SENSOR1,2*%
%TO.N,VDD*%
X196310000Y-125984000D03*
%TO.P,HEART_SENSOR1,1*%
%TO.N,GND*%
%TA.AperFunction,ComponentPad*%
G36*
G01*
X193710000Y-126609001D02*
X193710000Y-125358999D01*
G75*
G02*
X193959999Y-125109000I249999J0D01*
G01*
X194660001Y-125109000D01*
G75*
G02*
X194910000Y-125358999I0J-249999D01*
G01*
X194910000Y-126609001D01*
G75*
G02*
X194660001Y-126859000I-249999J0D01*
G01*
X193959999Y-126859000D01*
G75*
G02*
X193710000Y-126609001I0J249999D01*
G01*
G37*
%TD.AperFunction*%
%TD*%
%TO.P,HALL_SENSOR1,4*%
%TO.N,/HALL_SLEEP*%
X200310000Y-133096000D03*
%TO.P,HALL_SENSOR1,3*%
%TO.N,/HALL_OUT*%
X198310000Y-133096000D03*
%TO.P,HALL_SENSOR1,2*%
%TO.N,VDD*%
X196310000Y-133096000D03*
%TO.P,HALL_SENSOR1,1*%
%TO.N,GND*%
%TA.AperFunction,ComponentPad*%
G36*
G01*
X193710000Y-133721001D02*
X193710000Y-132470999D01*
G75*
G02*
X193959999Y-132221000I249999J0D01*
G01*
X194660001Y-132221000D01*
G75*
G02*
X194910000Y-132470999I0J-249999D01*
G01*
X194910000Y-133721001D01*
G75*
G02*
X194660001Y-133971000I-249999J0D01*
G01*
X193959999Y-133971000D01*
G75*
G02*
X193710000Y-133721001I0J249999D01*
G01*
G37*
%TD.AperFunction*%
%TD*%
D12*
%TO.P,FTDI,6*%
%TO.N,/DTR*%
X102870000Y-135890000D03*
%TO.P,FTDI,5*%
%TO.N,/TO_FTDI_RX*%
X102870000Y-133350000D03*
%TO.P,FTDI,4*%
%TO.N,/TO_FTDI_TX*%
X102870000Y-130810000D03*
%TO.P,FTDI,3*%
%TO.N,/3V3_FTDI*%
X102870000Y-128270000D03*
%TO.P,FTDI,2*%
%TO.N,GND*%
X102870000Y-125730000D03*
D13*
%TO.P,FTDI,1*%
X102870000Y-123190000D03*
%TD*%
D15*
%TO.P,J8,1*%
%TO.N,GND*%
X184912000Y-136652000D03*
%TD*%
D17*
%TO.N,GND*%
X119380000Y-124206000D03*
X114554000Y-136906000D03*
X119634000Y-137414000D03*
X124968000Y-137160000D03*
X136906000Y-137160000D03*
X139954000Y-136652000D03*
X125222000Y-122936000D03*
X133350000Y-122936000D03*
X119380000Y-129032000D03*
X144527583Y-124202834D03*
X148844000Y-122174000D03*
X154432000Y-125666500D03*
X157480000Y-129540000D03*
X167640000Y-128778000D03*
X127000000Y-128016000D03*
X185674000Y-122936000D03*
X185928000Y-127000000D03*
X161138000Y-129692000D03*
X161290000Y-124968000D03*
X112776000Y-123698000D03*
%TO.N,VBUS*%
X107442000Y-124460000D03*
X142460812Y-129274938D03*
X144018000Y-132016500D03*
X177038000Y-132080000D03*
X144526000Y-127254000D03*
X147828000Y-125730000D03*
X150876000Y-123952000D03*
X136144000Y-125984000D03*
X133350000Y-124206000D03*
X143357589Y-123190000D03*
X143510008Y-125222000D03*
X175768000Y-127508000D03*
X155448000Y-122936000D03*
X158750000Y-123190000D03*
%TO.N,VDD*%
X196342000Y-128524000D03*
X182118000Y-128964698D03*
X179832000Y-129032000D03*
X170180000Y-127000000D03*
X168910000Y-128524000D03*
%TO.N,/TO_FTDI_RX*%
X145948397Y-122428000D03*
X110998000Y-125984000D03*
X110998000Y-128016000D03*
X107950000Y-134112000D03*
X105918000Y-134112000D03*
X143497479Y-121959922D03*
%TO.N,/TO_FTDI_TX*%
X136652000Y-124968000D03*
X134874000Y-124968000D03*
X121666000Y-126746000D03*
X119126000Y-127177500D03*
X114046000Y-127177500D03*
X106172000Y-129032000D03*
%TO.N,/HALL_SLEEP*%
X171704000Y-133794500D03*
X185166000Y-133858000D03*
X183388000Y-133096000D03*
X175260000Y-133858000D03*
%TO.N,/HALL_OUT*%
X185928000Y-133350000D03*
X156718000Y-134874000D03*
X153485312Y-134689312D03*
X152146000Y-134112000D03*
X183388000Y-132257787D03*
X158813652Y-134112009D03*
X168910000Y-134366000D03*
X170688000Y-134937500D03*
%TO.N,/PF2*%
X179832000Y-134620000D03*
X176276000Y-134366000D03*
X175006000Y-131826000D03*
X162052000Y-127508000D03*
X164845998Y-127508000D03*
%TO.N,/PF3*%
X162814000Y-126746000D03*
X176022000Y-131826000D03*
X177038000Y-133857994D03*
X182371984Y-133858000D03*
X164857660Y-126669869D03*
%TO.N,/PD4*%
X155423077Y-134112392D03*
X158496000Y-135128000D03*
X167882269Y-134942397D03*
%TO.N,/PD5*%
X156261175Y-134099207D03*
X159385888Y-135648187D03*
%TO.N,/PD2*%
X158496000Y-136906000D03*
X154432000Y-134302500D03*
%TO.N,/AREF*%
X174752000Y-134620000D03*
X160782000Y-133159500D03*
%TO.N,/MOSI*%
X142748000Y-131318000D03*
X143256000Y-129540000D03*
%TO.N,/RSV2*%
X137414000Y-133350000D03*
X137668000Y-128016000D03*
%TO.N,/SDA*%
X164084000Y-124206000D03*
X168148000Y-125984000D03*
X170941994Y-131064000D03*
X170942000Y-126237994D03*
X175768000Y-128524000D03*
%TO.N,/SCL*%
X165862000Y-126238000D03*
X156972000Y-126809510D03*
%TO.N,/UPDI*%
X148336000Y-126746000D03*
X155956000Y-127114321D03*
X152503013Y-127114321D03*
X155956000Y-125666500D03*
%TO.N,+BATT*%
X162814000Y-132588000D03*
X141708888Y-134342888D03*
X125222000Y-131826000D03*
%TO.N,/BATT_MON_EN*%
X147574000Y-133858000D03*
X143002000Y-133858000D03*
%TO.N,/VREG_EN*%
X164084000Y-125412500D03*
X175260000Y-126238000D03*
X183388000Y-125730000D03*
X183388000Y-128016000D03*
X170010545Y-125666490D03*
%TO.N,/TO_RESET*%
X111506000Y-123698000D03*
X114046000Y-125984000D03*
%TD*%
D18*
%TO.N,GND*%
X107950000Y-132810000D02*
X108236000Y-132810000D01*
X173482000Y-124968000D02*
X175006000Y-124968000D01*
X132080000Y-130556000D02*
X132080000Y-130810000D01*
X161036000Y-136652000D02*
X160274000Y-136652000D01*
X159448499Y-137477501D02*
X154241501Y-137477501D01*
X160274000Y-136652000D02*
X159448499Y-137477501D01*
X132080000Y-130810000D02*
X132588000Y-130810000D01*
%TO.N,VBUS*%
X109220000Y-126238000D02*
X107442000Y-124460000D01*
X109220000Y-126746000D02*
X109220000Y-126238000D01*
X142117913Y-131533735D02*
X142600678Y-132016500D01*
X142117913Y-129617837D02*
X142117913Y-131533735D01*
X142600678Y-132016500D02*
X144018000Y-132016500D01*
X142460812Y-129274938D02*
X142117913Y-129617837D01*
X144526000Y-127254000D02*
X144526000Y-128016000D01*
X144526000Y-128016000D02*
X145034000Y-128524000D01*
X145034000Y-128524000D02*
X146812000Y-128524000D01*
X146812000Y-128524000D02*
X147574000Y-127762000D01*
X147574000Y-125984000D02*
X147828000Y-125730000D01*
X147574000Y-127762000D02*
X147574000Y-125984000D01*
X133350000Y-124289822D02*
X133350000Y-124206000D01*
X135044178Y-125984000D02*
X133350000Y-124289822D01*
X136144000Y-125984000D02*
X135044178Y-125984000D01*
X143357589Y-123190000D02*
X143357589Y-125069581D01*
X143357589Y-125069581D02*
X143510008Y-125222000D01*
X177038000Y-132080000D02*
X177038000Y-128293067D01*
X177038000Y-128293067D02*
X176252933Y-127508000D01*
X176252933Y-127508000D02*
X175768000Y-127508000D01*
X150876000Y-123952000D02*
X154432000Y-123952000D01*
X154432000Y-123952000D02*
X155448000Y-122936000D01*
X155448000Y-122936000D02*
X158496000Y-122936000D01*
X158496000Y-122936000D02*
X158750000Y-123190000D01*
%TO.N,VDD*%
X196310000Y-128492000D02*
X196342000Y-128524000D01*
X196310000Y-125984000D02*
X196310000Y-128492000D01*
X179899302Y-128964698D02*
X179832000Y-129032000D01*
X182118000Y-128964698D02*
X179899302Y-128964698D01*
X168910000Y-128270000D02*
X168910000Y-128524000D01*
X170180000Y-127000000D02*
X168910000Y-128270000D01*
%TO.N,/TO_FTDI_RX*%
X110998000Y-125984000D02*
X110998000Y-128016000D01*
X107950000Y-134112000D02*
X105918000Y-134112000D01*
X145137420Y-121617023D02*
X143840378Y-121617023D01*
X143840378Y-121617023D02*
X143497479Y-121959922D01*
X145948397Y-122428000D02*
X145137420Y-121617023D01*
%TO.N,/TO_FTDI_TX*%
X136652000Y-124968000D02*
X134874000Y-124968000D01*
X121234500Y-127177500D02*
X119126000Y-127177500D01*
X121666000Y-126746000D02*
X121234500Y-127177500D01*
X112191500Y-129032000D02*
X106172000Y-129032000D01*
X114046000Y-127177500D02*
X112191500Y-129032000D01*
%TO.N,/HALL_SLEEP*%
X184150000Y-133858000D02*
X183388000Y-133096000D01*
X185166000Y-133858000D02*
X184150000Y-133858000D01*
X175196500Y-133794500D02*
X175260000Y-133858000D01*
X171704000Y-133794500D02*
X175196500Y-133794500D01*
%TO.N,/HALL_OUT*%
X152908000Y-134112000D02*
X152146000Y-134112000D01*
X153485312Y-134689312D02*
X152908000Y-134112000D01*
X185928000Y-133350000D02*
X184835787Y-132257787D01*
X184835787Y-132257787D02*
X183388000Y-132257787D01*
X157479991Y-134112009D02*
X158813652Y-134112009D01*
X156718000Y-134874000D02*
X157479991Y-134112009D01*
X168910000Y-134366000D02*
X169481500Y-134937500D01*
X169481500Y-134937500D02*
X170688000Y-134937500D01*
%TO.N,/PF2*%
X179832000Y-136652000D02*
X179832000Y-134620000D01*
X175006000Y-132257060D02*
X175006000Y-131826000D01*
X176276000Y-133527060D02*
X175006000Y-132257060D01*
X176276000Y-134366000D02*
X176276000Y-133527060D01*
X162052000Y-127508000D02*
X164845998Y-127508000D01*
%TO.N,/PF3*%
X176022000Y-132841994D02*
X177038000Y-133857994D01*
X176022000Y-131826000D02*
X176022000Y-132841994D01*
X182372000Y-136652000D02*
X182372000Y-133858016D01*
X182372000Y-133858016D02*
X182371984Y-133858000D01*
X164781529Y-126746000D02*
X164857660Y-126669869D01*
X162814000Y-126746000D02*
X164781529Y-126746000D01*
%TO.N,/PD4*%
X158178499Y-135445501D02*
X158496000Y-135128000D01*
X156271253Y-135445501D02*
X158178499Y-135445501D01*
X155423077Y-134597325D02*
X156271253Y-135445501D01*
X155423077Y-134112392D02*
X155423077Y-134597325D01*
X169591872Y-136652000D02*
X167882269Y-134942397D01*
X172212000Y-136652000D02*
X169591872Y-136652000D01*
%TO.N,/PD5*%
X156819883Y-133540499D02*
X159278305Y-133540499D01*
X156261175Y-134099207D02*
X156819883Y-133540499D01*
X159278305Y-133540499D02*
X159385888Y-133648082D01*
X159385888Y-133648082D02*
X159385888Y-135648187D01*
%TO.N,/PD2*%
X158496000Y-136906000D02*
X157035500Y-136906000D01*
X157035500Y-136906000D02*
X154432000Y-134302500D01*
%TO.N,/AREF*%
X174752000Y-134620000D02*
X171533822Y-134620000D01*
X170073322Y-133159500D02*
X161266933Y-133159500D01*
X161266933Y-133159500D02*
X160782000Y-133159500D01*
X171533822Y-134620000D02*
X170073322Y-133159500D01*
%TO.N,/MOSI*%
X143256000Y-130810000D02*
X143256000Y-129540000D01*
X142748000Y-131318000D02*
X143256000Y-130810000D01*
%TO.N,/RSV2*%
X137414000Y-133350000D02*
X137668000Y-133096000D01*
X137668000Y-133096000D02*
X137668000Y-128016000D01*
%TO.N,/SDA*%
X164084000Y-124206000D02*
X166370000Y-124206000D01*
X166370000Y-124206000D02*
X168148000Y-125984000D01*
X170941994Y-126238000D02*
X170942000Y-126237994D01*
X170941994Y-131064000D02*
X170941994Y-126238000D01*
X174331999Y-130794331D02*
X175768000Y-129358330D01*
X174331999Y-131738001D02*
X174331999Y-130794331D01*
X173482000Y-132588000D02*
X174331999Y-131738001D01*
X175768000Y-129358330D02*
X175768000Y-128524000D01*
%TO.N,/SCL*%
X157734000Y-126047510D02*
X156972000Y-126809510D01*
X165377067Y-126238000D02*
X165186577Y-126047510D01*
X165186577Y-126047510D02*
X157734000Y-126047510D01*
X165862000Y-126238000D02*
X165377067Y-126238000D01*
%TO.N,/UPDI*%
X148336000Y-126746000D02*
X152134692Y-126746000D01*
X152134692Y-126746000D02*
X152503013Y-127114321D01*
X155956000Y-125666500D02*
X155956000Y-127114321D01*
%TO.N,+BATT*%
X124206000Y-130810000D02*
X125222000Y-131826000D01*
X124180000Y-130810000D02*
X124206000Y-130810000D01*
X141708888Y-132637112D02*
X141758000Y-132588000D01*
X141758000Y-132588000D02*
X162814000Y-132588000D01*
X141708888Y-134342888D02*
X141708888Y-132637112D01*
X141758000Y-132588000D02*
X139980000Y-130810000D01*
%TO.N,/BATT_MON_EN*%
X143002000Y-133858000D02*
X147574000Y-133858000D01*
%TO.N,/VREG_EN*%
X183388000Y-125730000D02*
X183388000Y-128016000D01*
X164084000Y-125412500D02*
X166730678Y-125412500D01*
X167873679Y-126555501D02*
X169121534Y-126555501D01*
X169121534Y-126555501D02*
X170010545Y-125666490D01*
X175260000Y-126238000D02*
X171958000Y-126238000D01*
X166730678Y-125412500D02*
X167873679Y-126555501D01*
X171958000Y-126238000D02*
X171386490Y-125666490D01*
X171386490Y-125666490D02*
X170010545Y-125666490D01*
%TO.N,/TO_RESET*%
X113792000Y-125984000D02*
X114046000Y-125984000D01*
X111506000Y-123698000D02*
X113792000Y-125984000D01*
%TD*%
D19*
%TO.N,GND*%
X142737894Y-121336547D02*
X142630875Y-121496712D01*
X142557159Y-121674679D01*
X142519579Y-121863607D01*
X142519579Y-122056237D01*
X142557159Y-122245165D01*
X142630875Y-122423132D01*
X142675184Y-122489445D01*
X142598004Y-122566625D01*
X142490985Y-122726790D01*
X142417269Y-122904757D01*
X142379689Y-123093685D01*
X142379689Y-123286315D01*
X142417269Y-123475243D01*
X142490985Y-123653210D01*
X142598004Y-123813375D01*
X142646389Y-123861760D01*
X142646390Y-124754321D01*
X142643404Y-124758790D01*
X142569688Y-124936757D01*
X142532108Y-125125685D01*
X142532108Y-125318315D01*
X142569688Y-125507243D01*
X142643404Y-125685210D01*
X142750423Y-125845375D01*
X142886633Y-125981585D01*
X143046798Y-126088604D01*
X143224765Y-126162320D01*
X143413693Y-126199900D01*
X143606323Y-126199900D01*
X143795251Y-126162320D01*
X143973218Y-126088604D01*
X144133383Y-125981585D01*
X144269593Y-125845375D01*
X144376612Y-125685210D01*
X144450328Y-125507243D01*
X144487908Y-125318315D01*
X144487908Y-125125685D01*
X144450328Y-124936757D01*
X144376612Y-124758790D01*
X144269593Y-124598625D01*
X144133383Y-124462415D01*
X144068789Y-124419255D01*
X144068789Y-123861760D01*
X144074864Y-123855685D01*
X149898100Y-123855685D01*
X149898100Y-124048315D01*
X149935680Y-124237243D01*
X150009396Y-124415210D01*
X150116415Y-124575375D01*
X150252625Y-124711585D01*
X150412790Y-124818604D01*
X150590757Y-124892320D01*
X150779685Y-124929900D01*
X150972315Y-124929900D01*
X151161243Y-124892320D01*
X151339210Y-124818604D01*
X151499375Y-124711585D01*
X151547760Y-124663200D01*
X154397074Y-124663200D01*
X154432000Y-124666640D01*
X154466926Y-124663200D01*
X154466936Y-124663200D01*
X154571420Y-124652909D01*
X154705481Y-124612242D01*
X154829033Y-124546202D01*
X154937327Y-124457327D01*
X154959602Y-124430185D01*
X155475888Y-123913900D01*
X155544315Y-123913900D01*
X155733243Y-123876320D01*
X155911210Y-123802604D01*
X156071375Y-123695585D01*
X156119760Y-123647200D01*
X157880907Y-123647200D01*
X157883396Y-123653210D01*
X157990415Y-123813375D01*
X158126625Y-123949585D01*
X158286790Y-124056604D01*
X158464757Y-124130320D01*
X158653685Y-124167900D01*
X158846315Y-124167900D01*
X159035243Y-124130320D01*
X159213210Y-124056604D01*
X159373375Y-123949585D01*
X159509585Y-123813375D01*
X159616604Y-123653210D01*
X159690320Y-123475243D01*
X159727900Y-123286315D01*
X159727900Y-123093685D01*
X159690320Y-122904757D01*
X159616604Y-122726790D01*
X159509585Y-122566625D01*
X159373375Y-122430415D01*
X159213210Y-122323396D01*
X159035243Y-122249680D01*
X158846315Y-122212100D01*
X158653685Y-122212100D01*
X158570331Y-122228680D01*
X158530936Y-122224800D01*
X158530926Y-122224800D01*
X158496000Y-122221360D01*
X158461074Y-122224800D01*
X156119760Y-122224800D01*
X156071375Y-122176415D01*
X155911210Y-122069396D01*
X155733243Y-121995680D01*
X155544315Y-121958100D01*
X155351685Y-121958100D01*
X155162757Y-121995680D01*
X154984790Y-122069396D01*
X154824625Y-122176415D01*
X154688415Y-122312625D01*
X154581396Y-122472790D01*
X154507680Y-122650757D01*
X154470100Y-122839685D01*
X154470100Y-122908112D01*
X154137413Y-123240800D01*
X151547760Y-123240800D01*
X151499375Y-123192415D01*
X151339210Y-123085396D01*
X151161243Y-123011680D01*
X150972315Y-122974100D01*
X150779685Y-122974100D01*
X150590757Y-123011680D01*
X150412790Y-123085396D01*
X150252625Y-123192415D01*
X150116415Y-123328625D01*
X150009396Y-123488790D01*
X149935680Y-123666757D01*
X149898100Y-123855685D01*
X144074864Y-123855685D01*
X144117174Y-123813375D01*
X144224193Y-123653210D01*
X144297909Y-123475243D01*
X144314558Y-123391543D01*
X144371602Y-123429659D01*
X144577304Y-123514863D01*
X144795675Y-123558300D01*
X145018325Y-123558300D01*
X145236696Y-123514863D01*
X145442398Y-123429659D01*
X145583547Y-123335346D01*
X145663154Y-123368320D01*
X145852082Y-123405900D01*
X146044712Y-123405900D01*
X146233640Y-123368320D01*
X146281891Y-123348334D01*
X146403602Y-123429659D01*
X146609304Y-123514863D01*
X146827675Y-123558300D01*
X147050325Y-123558300D01*
X147268696Y-123514863D01*
X147474398Y-123429659D01*
X147659524Y-123305961D01*
X147816961Y-123148524D01*
X147940659Y-122963398D01*
X148025863Y-122757696D01*
X148069300Y-122539325D01*
X148069300Y-122316675D01*
X148025863Y-122098304D01*
X147940659Y-121892602D01*
X147816961Y-121707476D01*
X147659524Y-121550039D01*
X147474398Y-121426341D01*
X147268696Y-121341137D01*
X147112161Y-121310000D01*
X202413001Y-121310000D01*
X202413000Y-137770000D01*
X186116558Y-137770000D01*
X186163083Y-137723475D01*
X186047415Y-137607807D01*
X186311814Y-137512044D01*
X186452704Y-137222429D01*
X186534384Y-136910892D01*
X186553718Y-136589405D01*
X186509961Y-136270325D01*
X186404795Y-135965912D01*
X186311814Y-135791956D01*
X186047413Y-135696192D01*
X185091605Y-136652000D01*
X185105748Y-136666143D01*
X184926143Y-136845748D01*
X184912000Y-136831605D01*
X184897858Y-136845748D01*
X184718253Y-136666143D01*
X184732395Y-136652000D01*
X183776587Y-135696192D01*
X183714720Y-135718600D01*
X183641987Y-135609748D01*
X183548826Y-135516587D01*
X183956192Y-135516587D01*
X184912000Y-136472395D01*
X185867808Y-135516587D01*
X185772044Y-135252186D01*
X185482429Y-135111296D01*
X185170892Y-135029616D01*
X184849405Y-135010282D01*
X184530325Y-135054039D01*
X184225912Y-135159205D01*
X184051956Y-135252186D01*
X183956192Y-135516587D01*
X183548826Y-135516587D01*
X183414252Y-135382013D01*
X183146463Y-135203082D01*
X183083200Y-135176878D01*
X183083200Y-134529744D01*
X183131569Y-134481375D01*
X183238588Y-134321210D01*
X183312304Y-134143243D01*
X183326097Y-134073900D01*
X183360112Y-134073900D01*
X183622407Y-134336196D01*
X183644673Y-134363327D01*
X183671802Y-134385591D01*
X183671809Y-134385598D01*
X183752967Y-134452202D01*
X183876518Y-134518242D01*
X183965931Y-134545365D01*
X184010580Y-134558909D01*
X184115064Y-134569200D01*
X184115071Y-134569200D01*
X184150000Y-134572640D01*
X184184928Y-134569200D01*
X184494240Y-134569200D01*
X184542625Y-134617585D01*
X184702790Y-134724604D01*
X184880757Y-134798320D01*
X185069685Y-134835900D01*
X185262315Y-134835900D01*
X185451243Y-134798320D01*
X185629210Y-134724604D01*
X185789375Y-134617585D01*
X185925585Y-134481375D01*
X186028719Y-134327024D01*
X186213243Y-134290320D01*
X186391210Y-134216604D01*
X186551375Y-134109585D01*
X186687585Y-133973375D01*
X186689171Y-133971000D01*
X193071928Y-133971000D01*
X193084188Y-134095482D01*
X193120498Y-134215180D01*
X193179463Y-134325494D01*
X193258815Y-134422185D01*
X193355506Y-134501537D01*
X193465820Y-134560502D01*
X193585518Y-134596812D01*
X193710000Y-134609072D01*
X194024250Y-134606000D01*
X194183000Y-134447250D01*
X194183000Y-133223000D01*
X193233750Y-133223000D01*
X193075000Y-133381750D01*
X193071928Y-133971000D01*
X186689171Y-133971000D01*
X186794604Y-133813210D01*
X186868320Y-133635243D01*
X186905900Y-133446315D01*
X186905900Y-133253685D01*
X186868320Y-133064757D01*
X186794604Y-132886790D01*
X186687585Y-132726625D01*
X186551375Y-132590415D01*
X186391210Y-132483396D01*
X186213243Y-132409680D01*
X186024315Y-132372100D01*
X185955888Y-132372100D01*
X185804788Y-132221000D01*
X193071928Y-132221000D01*
X193075000Y-132810250D01*
X193233750Y-132969000D01*
X194183000Y-132969000D01*
X194183000Y-131744750D01*
X194437000Y-131744750D01*
X194437000Y-132969000D01*
X194457000Y-132969000D01*
X194457000Y-133223000D01*
X194437000Y-133223000D01*
X194437000Y-134447250D01*
X194595750Y-134606000D01*
X194910000Y-134609072D01*
X195034482Y-134596812D01*
X195154180Y-134560502D01*
X195264494Y-134501537D01*
X195361185Y-134422185D01*
X195440537Y-134325494D01*
X195466692Y-134276563D01*
X195620552Y-134402833D01*
X195835100Y-134517511D01*
X196067899Y-134588130D01*
X196310000Y-134611975D01*
X196552102Y-134588130D01*
X196784901Y-134517511D01*
X196999449Y-134402833D01*
X197187502Y-134248502D01*
X197310001Y-134099237D01*
X197432499Y-134248502D01*
X197620552Y-134402833D01*
X197835100Y-134517511D01*
X198067899Y-134588130D01*
X198310000Y-134611975D01*
X198552102Y-134588130D01*
X198784901Y-134517511D01*
X198999449Y-134402833D01*
X199187502Y-134248502D01*
X199310001Y-134099237D01*
X199432499Y-134248502D01*
X199620552Y-134402833D01*
X199835100Y-134517511D01*
X200067899Y-134588130D01*
X200310000Y-134611975D01*
X200552102Y-134588130D01*
X200784901Y-134517511D01*
X200999449Y-134402833D01*
X201187502Y-134248502D01*
X201341833Y-134060449D01*
X201456511Y-133845900D01*
X201527130Y-133613101D01*
X201545000Y-133431664D01*
X201545000Y-132760335D01*
X201527130Y-132578898D01*
X201456511Y-132346099D01*
X201341833Y-132131551D01*
X201187502Y-131943498D01*
X200999448Y-131789167D01*
X200784900Y-131674489D01*
X200552101Y-131603870D01*
X200310000Y-131580025D01*
X200067898Y-131603870D01*
X199835099Y-131674489D01*
X199620551Y-131789167D01*
X199432498Y-131943498D01*
X199310000Y-132092763D01*
X199187502Y-131943498D01*
X198999448Y-131789167D01*
X198784900Y-131674489D01*
X198552101Y-131603870D01*
X198310000Y-131580025D01*
X198067898Y-131603870D01*
X197835099Y-131674489D01*
X197620551Y-131789167D01*
X197432498Y-131943498D01*
X197310000Y-132092763D01*
X197187502Y-131943498D01*
X196999448Y-131789167D01*
X196784900Y-131674489D01*
X196552101Y-131603870D01*
X196310000Y-131580025D01*
X196067898Y-131603870D01*
X195835099Y-131674489D01*
X195620551Y-131789167D01*
X195466691Y-131915436D01*
X195440537Y-131866506D01*
X195361185Y-131769815D01*
X195264494Y-131690463D01*
X195154180Y-131631498D01*
X195034482Y-131595188D01*
X194910000Y-131582928D01*
X194595750Y-131586000D01*
X194437000Y-131744750D01*
X194183000Y-131744750D01*
X194024250Y-131586000D01*
X193710000Y-131582928D01*
X193585518Y-131595188D01*
X193465820Y-131631498D01*
X193355506Y-131690463D01*
X193258815Y-131769815D01*
X193179463Y-131866506D01*
X193120498Y-131976820D01*
X193084188Y-132096518D01*
X193071928Y-132221000D01*
X185804788Y-132221000D01*
X185363388Y-131779601D01*
X185341114Y-131752460D01*
X185232820Y-131663585D01*
X185109268Y-131597545D01*
X184975207Y-131556878D01*
X184870723Y-131546587D01*
X184870713Y-131546587D01*
X184835787Y-131543147D01*
X184800861Y-131546587D01*
X184059760Y-131546587D01*
X184011375Y-131498202D01*
X183851210Y-131391183D01*
X183673243Y-131317467D01*
X183484315Y-131279887D01*
X183291685Y-131279887D01*
X183102757Y-131317467D01*
X182924790Y-131391183D01*
X182764625Y-131498202D01*
X182628415Y-131634412D01*
X182521396Y-131794577D01*
X182447680Y-131972544D01*
X182410100Y-132161472D01*
X182410100Y-132354102D01*
X182447680Y-132543030D01*
X182503128Y-132676894D01*
X182447680Y-132810757D01*
X182433887Y-132880100D01*
X182275669Y-132880100D01*
X182086741Y-132917680D01*
X181908774Y-132991396D01*
X181748609Y-133098415D01*
X181612399Y-133234625D01*
X181505380Y-133394790D01*
X181431664Y-133572757D01*
X181394084Y-133761685D01*
X181394084Y-133954315D01*
X181431664Y-134143243D01*
X181505380Y-134321210D01*
X181612399Y-134481375D01*
X181660801Y-134529777D01*
X181660801Y-135176877D01*
X181597537Y-135203082D01*
X181329748Y-135382013D01*
X181102013Y-135609748D01*
X181102000Y-135609767D01*
X181101987Y-135609748D01*
X180874252Y-135382013D01*
X180614790Y-135208646D01*
X180698604Y-135083210D01*
X180772320Y-134905243D01*
X180809900Y-134716315D01*
X180809900Y-134523685D01*
X180772320Y-134334757D01*
X180698604Y-134156790D01*
X180591585Y-133996625D01*
X180455375Y-133860415D01*
X180295210Y-133753396D01*
X180117243Y-133679680D01*
X179928315Y-133642100D01*
X179735685Y-133642100D01*
X179546757Y-133679680D01*
X179368790Y-133753396D01*
X179208625Y-133860415D01*
X179072415Y-133996625D01*
X178965396Y-134156790D01*
X178891680Y-134334757D01*
X178854100Y-134523685D01*
X178854100Y-134716315D01*
X178891680Y-134905243D01*
X178965396Y-135083210D01*
X179049210Y-135208646D01*
X178789748Y-135382013D01*
X178562013Y-135609748D01*
X178562000Y-135609767D01*
X178561987Y-135609748D01*
X178334252Y-135382013D01*
X178066463Y-135203082D01*
X177768912Y-135079832D01*
X177453033Y-135017000D01*
X177130967Y-135017000D01*
X176977417Y-135047543D01*
X177035585Y-134989375D01*
X177138724Y-134835017D01*
X177323243Y-134798314D01*
X177501210Y-134724598D01*
X177661375Y-134617579D01*
X177797585Y-134481369D01*
X177904604Y-134321204D01*
X177978320Y-134143237D01*
X178015900Y-133954309D01*
X178015900Y-133761679D01*
X177978320Y-133572751D01*
X177904604Y-133394784D01*
X177797585Y-133234619D01*
X177661375Y-133098409D01*
X177501210Y-132991390D01*
X177447148Y-132968997D01*
X177501210Y-132946604D01*
X177661375Y-132839585D01*
X177797585Y-132703375D01*
X177904604Y-132543210D01*
X177978320Y-132365243D01*
X178015900Y-132176315D01*
X178015900Y-131983685D01*
X177978320Y-131794757D01*
X177904604Y-131616790D01*
X177797585Y-131456625D01*
X177749200Y-131408240D01*
X177749200Y-128935685D01*
X178854100Y-128935685D01*
X178854100Y-129128315D01*
X178891680Y-129317243D01*
X178965396Y-129495210D01*
X179072415Y-129655375D01*
X179208625Y-129791585D01*
X179368790Y-129898604D01*
X179546757Y-129972320D01*
X179735685Y-130009900D01*
X179928315Y-130009900D01*
X180117243Y-129972320D01*
X180295210Y-129898604D01*
X180455375Y-129791585D01*
X180571062Y-129675898D01*
X181446240Y-129675898D01*
X181494625Y-129724283D01*
X181654790Y-129831302D01*
X181832757Y-129905018D01*
X182021685Y-129942598D01*
X182214315Y-129942598D01*
X182403243Y-129905018D01*
X182581210Y-129831302D01*
X182741375Y-129724283D01*
X182877585Y-129588073D01*
X182984604Y-129427908D01*
X183058320Y-129249941D01*
X183095900Y-129061013D01*
X183095900Y-128953480D01*
X183102757Y-128956320D01*
X183291685Y-128993900D01*
X183484315Y-128993900D01*
X183673243Y-128956320D01*
X183851210Y-128882604D01*
X184011375Y-128775585D01*
X184147585Y-128639375D01*
X184254604Y-128479210D01*
X184328320Y-128301243D01*
X184365900Y-128112315D01*
X184365900Y-127919685D01*
X184328320Y-127730757D01*
X184254604Y-127552790D01*
X184147585Y-127392625D01*
X184099200Y-127344240D01*
X184099200Y-126859000D01*
X193071928Y-126859000D01*
X193084188Y-126983482D01*
X193120498Y-127103180D01*
X193179463Y-127213494D01*
X193258815Y-127310185D01*
X193355506Y-127389537D01*
X193465820Y-127448502D01*
X193585518Y-127484812D01*
X193710000Y-127497072D01*
X194024250Y-127494000D01*
X194183000Y-127335250D01*
X194183000Y-126111000D01*
X193233750Y-126111000D01*
X193075000Y-126269750D01*
X193071928Y-126859000D01*
X184099200Y-126859000D01*
X184099200Y-126401760D01*
X184147585Y-126353375D01*
X184254604Y-126193210D01*
X184328320Y-126015243D01*
X184365900Y-125826315D01*
X184365900Y-125633685D01*
X184328320Y-125444757D01*
X184254604Y-125266790D01*
X184149172Y-125109000D01*
X193071928Y-125109000D01*
X193075000Y-125698250D01*
X193233750Y-125857000D01*
X194183000Y-125857000D01*
X194183000Y-124632750D01*
X194437000Y-124632750D01*
X194437000Y-125857000D01*
X194457000Y-125857000D01*
X194457000Y-126111000D01*
X194437000Y-126111000D01*
X194437000Y-127335250D01*
X194595750Y-127494000D01*
X194910000Y-127497072D01*
X195034482Y-127484812D01*
X195154180Y-127448502D01*
X195264494Y-127389537D01*
X195361185Y-127310185D01*
X195440537Y-127213494D01*
X195466692Y-127164563D01*
X195598801Y-127272982D01*
X195598801Y-127884239D01*
X195582415Y-127900625D01*
X195475396Y-128060790D01*
X195401680Y-128238757D01*
X195364100Y-128427685D01*
X195364100Y-128620315D01*
X195401680Y-128809243D01*
X195475396Y-128987210D01*
X195582415Y-129147375D01*
X195718625Y-129283585D01*
X195878790Y-129390604D01*
X196056757Y-129464320D01*
X196245685Y-129501900D01*
X196438315Y-129501900D01*
X196627243Y-129464320D01*
X196805210Y-129390604D01*
X196965375Y-129283585D01*
X197101585Y-129147375D01*
X197208604Y-128987210D01*
X197282320Y-128809243D01*
X197319900Y-128620315D01*
X197319900Y-128427685D01*
X197282320Y-128238757D01*
X197208604Y-128060790D01*
X197101585Y-127900625D01*
X197021200Y-127820240D01*
X197021200Y-127272982D01*
X197187502Y-127136502D01*
X197310001Y-126987237D01*
X197432499Y-127136502D01*
X197620552Y-127290833D01*
X197835100Y-127405511D01*
X198067899Y-127476130D01*
X198310000Y-127499975D01*
X198552102Y-127476130D01*
X198784901Y-127405511D01*
X198999449Y-127290833D01*
X199187502Y-127136502D01*
X199310001Y-126987237D01*
X199432499Y-127136502D01*
X199620552Y-127290833D01*
X199835100Y-127405511D01*
X200067899Y-127476130D01*
X200310000Y-127499975D01*
X200552102Y-127476130D01*
X200784901Y-127405511D01*
X200999449Y-127290833D01*
X201187502Y-127136502D01*
X201341833Y-126948449D01*
X201456511Y-126733900D01*
X201527130Y-126501101D01*
X201545000Y-126319664D01*
X201545000Y-125648335D01*
X201527130Y-125466898D01*
X201456511Y-125234099D01*
X201341833Y-125019551D01*
X201187502Y-124831498D01*
X200999448Y-124677167D01*
X200784900Y-124562489D01*
X200552101Y-124491870D01*
X200310000Y-124468025D01*
X200067898Y-124491870D01*
X199835099Y-124562489D01*
X199620551Y-124677167D01*
X199432498Y-124831498D01*
X199310000Y-124980763D01*
X199187502Y-124831498D01*
X198999448Y-124677167D01*
X198784900Y-124562489D01*
X198552101Y-124491870D01*
X198310000Y-124468025D01*
X198067898Y-124491870D01*
X197835099Y-124562489D01*
X197620551Y-124677167D01*
X197432498Y-124831498D01*
X197310000Y-124980763D01*
X197187502Y-124831498D01*
X196999448Y-124677167D01*
X196784900Y-124562489D01*
X196552101Y-124491870D01*
X196310000Y-124468025D01*
X196067898Y-124491870D01*
X195835099Y-124562489D01*
X195620551Y-124677167D01*
X195466691Y-124803436D01*
X195440537Y-124754506D01*
X195361185Y-124657815D01*
X195264494Y-124578463D01*
X195154180Y-124519498D01*
X195034482Y-124483188D01*
X194910000Y-124470928D01*
X194595750Y-124474000D01*
X194437000Y-124632750D01*
X194183000Y-124632750D01*
X194024250Y-124474000D01*
X193710000Y-124470928D01*
X193585518Y-124483188D01*
X193465820Y-124519498D01*
X193355506Y-124578463D01*
X193258815Y-124657815D01*
X193179463Y-124754506D01*
X193120498Y-124864820D01*
X193084188Y-124984518D01*
X193071928Y-125109000D01*
X184149172Y-125109000D01*
X184147585Y-125106625D01*
X184011375Y-124970415D01*
X183851210Y-124863396D01*
X183673243Y-124789680D01*
X183484315Y-124752100D01*
X183291685Y-124752100D01*
X183102757Y-124789680D01*
X182924790Y-124863396D01*
X182764625Y-124970415D01*
X182628415Y-125106625D01*
X182521396Y-125266790D01*
X182447680Y-125444757D01*
X182410100Y-125633685D01*
X182410100Y-125826315D01*
X182447680Y-126015243D01*
X182521396Y-126193210D01*
X182628415Y-126353375D01*
X182676800Y-126401760D01*
X182676801Y-127344239D01*
X182628415Y-127392625D01*
X182521396Y-127552790D01*
X182447680Y-127730757D01*
X182410100Y-127919685D01*
X182410100Y-128027218D01*
X182403243Y-128024378D01*
X182214315Y-127986798D01*
X182021685Y-127986798D01*
X181832757Y-128024378D01*
X181654790Y-128098094D01*
X181494625Y-128205113D01*
X181446240Y-128253498D01*
X180427064Y-128253498D01*
X180295210Y-128165396D01*
X180117243Y-128091680D01*
X179928315Y-128054100D01*
X179735685Y-128054100D01*
X179546757Y-128091680D01*
X179368790Y-128165396D01*
X179208625Y-128272415D01*
X179072415Y-128408625D01*
X178965396Y-128568790D01*
X178891680Y-128746757D01*
X178854100Y-128935685D01*
X177749200Y-128935685D01*
X177749200Y-128327992D01*
X177752640Y-128293066D01*
X177749200Y-128258140D01*
X177749200Y-128258131D01*
X177738909Y-128153647D01*
X177698242Y-128019586D01*
X177632202Y-127896034D01*
X177626183Y-127888700D01*
X177565597Y-127814875D01*
X177565593Y-127814871D01*
X177543327Y-127787740D01*
X177516196Y-127765474D01*
X176780534Y-127029814D01*
X176758260Y-127002673D01*
X176649966Y-126913798D01*
X176526414Y-126847758D01*
X176475175Y-126832215D01*
X176391375Y-126748415D01*
X176231210Y-126641396D01*
X176163070Y-126613172D01*
X176200320Y-126523243D01*
X176237900Y-126334315D01*
X176237900Y-126141685D01*
X176200320Y-125952757D01*
X176126604Y-125774790D01*
X176019585Y-125614625D01*
X175883375Y-125478415D01*
X175723210Y-125371396D01*
X175545243Y-125297680D01*
X175356315Y-125260100D01*
X175163685Y-125260100D01*
X174974757Y-125297680D01*
X174967256Y-125300787D01*
X174967000Y-125253750D01*
X174808250Y-125095000D01*
X173609000Y-125095000D01*
X173609000Y-125115000D01*
X173355000Y-125115000D01*
X173355000Y-125095000D01*
X172155750Y-125095000D01*
X171997000Y-125253750D01*
X171996905Y-125271118D01*
X171914091Y-125188304D01*
X171891817Y-125161163D01*
X171783523Y-125072288D01*
X171659971Y-125006248D01*
X171525910Y-124965581D01*
X171421426Y-124955290D01*
X171421416Y-124955290D01*
X171386490Y-124951850D01*
X171351564Y-124955290D01*
X170682305Y-124955290D01*
X170633920Y-124906905D01*
X170473755Y-124799886D01*
X170295788Y-124726170D01*
X170106860Y-124688590D01*
X169914230Y-124688590D01*
X169725302Y-124726170D01*
X169547335Y-124799886D01*
X169387170Y-124906905D01*
X169250960Y-125043115D01*
X169143941Y-125203280D01*
X169070225Y-125381247D01*
X169033428Y-125566236D01*
X169014604Y-125520790D01*
X168907585Y-125360625D01*
X168771375Y-125224415D01*
X168611210Y-125117396D01*
X168433243Y-125043680D01*
X168244315Y-125006100D01*
X168175888Y-125006100D01*
X167287788Y-124118000D01*
X171993928Y-124118000D01*
X171997000Y-124682250D01*
X172155750Y-124841000D01*
X173355000Y-124841000D01*
X173355000Y-123641750D01*
X173609000Y-123641750D01*
X173609000Y-124841000D01*
X174808250Y-124841000D01*
X174967000Y-124682250D01*
X174970072Y-124118000D01*
X174957812Y-123993518D01*
X174921502Y-123873820D01*
X174862537Y-123763506D01*
X174783185Y-123666815D01*
X174686494Y-123587463D01*
X174576180Y-123528498D01*
X174456482Y-123492188D01*
X174332000Y-123479928D01*
X173767750Y-123483000D01*
X173609000Y-123641750D01*
X173355000Y-123641750D01*
X173196250Y-123483000D01*
X172632000Y-123479928D01*
X172507518Y-123492188D01*
X172387820Y-123528498D01*
X172277506Y-123587463D01*
X172180815Y-123666815D01*
X172101463Y-123763506D01*
X172042498Y-123873820D01*
X172006188Y-123993518D01*
X171993928Y-124118000D01*
X167287788Y-124118000D01*
X166897602Y-123727815D01*
X166875327Y-123700673D01*
X166767033Y-123611798D01*
X166643481Y-123545758D01*
X166509420Y-123505091D01*
X166404936Y-123494800D01*
X166404926Y-123494800D01*
X166370000Y-123491360D01*
X166335074Y-123494800D01*
X164755760Y-123494800D01*
X164707375Y-123446415D01*
X164547210Y-123339396D01*
X164369243Y-123265680D01*
X164180315Y-123228100D01*
X163987685Y-123228100D01*
X163798757Y-123265680D01*
X163620790Y-123339396D01*
X163460625Y-123446415D01*
X163324415Y-123582625D01*
X163217396Y-123742790D01*
X163143680Y-123920757D01*
X163106100Y-124109685D01*
X163106100Y-124302315D01*
X163143680Y-124491243D01*
X163217396Y-124669210D01*
X163310968Y-124809250D01*
X163217396Y-124949290D01*
X163143680Y-125127257D01*
X163106100Y-125316185D01*
X163106100Y-125336310D01*
X157768928Y-125336310D01*
X157734000Y-125332870D01*
X157699071Y-125336310D01*
X157699064Y-125336310D01*
X157594580Y-125346601D01*
X157460518Y-125387268D01*
X157336967Y-125453308D01*
X157255809Y-125519912D01*
X157255804Y-125519917D01*
X157228673Y-125542183D01*
X157206407Y-125569314D01*
X156944112Y-125831610D01*
X156920216Y-125831610D01*
X156933900Y-125762815D01*
X156933900Y-125570185D01*
X156896320Y-125381257D01*
X156822604Y-125203290D01*
X156715585Y-125043125D01*
X156579375Y-124906915D01*
X156419210Y-124799896D01*
X156241243Y-124726180D01*
X156052315Y-124688600D01*
X155859685Y-124688600D01*
X155670757Y-124726180D01*
X155492790Y-124799896D01*
X155332625Y-124906915D01*
X155196415Y-125043125D01*
X155089396Y-125203290D01*
X155015680Y-125381257D01*
X154978100Y-125570185D01*
X154978100Y-125762815D01*
X155015680Y-125951743D01*
X155089396Y-126129710D01*
X155196415Y-126289875D01*
X155244800Y-126338260D01*
X155244801Y-126442560D01*
X155196415Y-126490946D01*
X155089396Y-126651111D01*
X155015680Y-126829078D01*
X154978100Y-127018006D01*
X154978100Y-127210636D01*
X155015680Y-127399564D01*
X155089396Y-127577531D01*
X155196415Y-127737696D01*
X155332625Y-127873906D01*
X155492790Y-127980925D01*
X155670757Y-128054641D01*
X155859685Y-128092221D01*
X156052315Y-128092221D01*
X156241243Y-128054641D01*
X156419210Y-127980925D01*
X156579375Y-127873906D01*
X156700681Y-127752600D01*
X156875685Y-127787410D01*
X157068315Y-127787410D01*
X157257243Y-127749830D01*
X157435210Y-127676114D01*
X157595375Y-127569095D01*
X157731585Y-127432885D01*
X157838604Y-127272720D01*
X157912320Y-127094753D01*
X157949900Y-126905825D01*
X157949900Y-126837398D01*
X158028588Y-126758710D01*
X161418330Y-126758710D01*
X161292415Y-126884625D01*
X161185396Y-127044790D01*
X161111680Y-127222757D01*
X161074100Y-127411685D01*
X161074100Y-127604315D01*
X161111680Y-127793243D01*
X161185396Y-127971210D01*
X161292415Y-128131375D01*
X161428625Y-128267585D01*
X161588790Y-128374604D01*
X161766757Y-128448320D01*
X161955685Y-128485900D01*
X162148315Y-128485900D01*
X162337243Y-128448320D01*
X162515210Y-128374604D01*
X162675375Y-128267585D01*
X162723760Y-128219200D01*
X164174238Y-128219200D01*
X164222623Y-128267585D01*
X164382788Y-128374604D01*
X164560755Y-128448320D01*
X164749683Y-128485900D01*
X164942313Y-128485900D01*
X165131241Y-128448320D01*
X165309208Y-128374604D01*
X165469373Y-128267585D01*
X165605583Y-128131375D01*
X165712602Y-127971210D01*
X165786318Y-127793243D01*
X165823898Y-127604315D01*
X165823898Y-127411685D01*
X165786318Y-127222757D01*
X165783478Y-127215900D01*
X165958315Y-127215900D01*
X166147243Y-127178320D01*
X166325210Y-127104604D01*
X166485375Y-126997585D01*
X166621585Y-126861375D01*
X166728604Y-126701210D01*
X166802320Y-126523243D01*
X166807847Y-126495457D01*
X167346086Y-127033697D01*
X167368352Y-127060828D01*
X167395483Y-127083094D01*
X167395488Y-127083099D01*
X167464116Y-127139420D01*
X167476646Y-127149703D01*
X167600198Y-127215743D01*
X167734259Y-127256410D01*
X167838743Y-127266701D01*
X167838750Y-127266701D01*
X167873679Y-127270141D01*
X167908607Y-127266701D01*
X168907511Y-127266701D01*
X168566333Y-127607880D01*
X168446790Y-127657396D01*
X168286625Y-127764415D01*
X168150415Y-127900625D01*
X168043396Y-128060790D01*
X167969680Y-128238757D01*
X167932100Y-128427685D01*
X167932100Y-128620315D01*
X167969680Y-128809243D01*
X168043396Y-128987210D01*
X168150415Y-129147375D01*
X168286625Y-129283585D01*
X168446790Y-129390604D01*
X168624757Y-129464320D01*
X168813685Y-129501900D01*
X169006315Y-129501900D01*
X169195243Y-129464320D01*
X169373210Y-129390604D01*
X169533375Y-129283585D01*
X169669585Y-129147375D01*
X169776604Y-128987210D01*
X169850320Y-128809243D01*
X169887900Y-128620315D01*
X169887900Y-128427685D01*
X169866365Y-128319422D01*
X170207888Y-127977900D01*
X170230795Y-127977900D01*
X170230794Y-130392240D01*
X170182409Y-130440625D01*
X170075390Y-130600790D01*
X170001674Y-130778757D01*
X169964094Y-130967685D01*
X169964094Y-131160315D01*
X170001674Y-131349243D01*
X170075390Y-131527210D01*
X170182409Y-131687375D01*
X170318619Y-131823585D01*
X170478784Y-131930604D01*
X170656751Y-132004320D01*
X170845679Y-132041900D01*
X171038309Y-132041900D01*
X171227237Y-132004320D01*
X171405204Y-131930604D01*
X171565369Y-131823585D01*
X171701579Y-131687375D01*
X171808598Y-131527210D01*
X171882314Y-131349243D01*
X171919894Y-131160315D01*
X171919894Y-130967685D01*
X171882314Y-130778757D01*
X171808598Y-130600790D01*
X171701579Y-130440625D01*
X171653194Y-130392240D01*
X171653194Y-126909760D01*
X171671611Y-126891343D01*
X171684519Y-126898242D01*
X171818580Y-126938909D01*
X171923064Y-126949200D01*
X171923073Y-126949200D01*
X171957999Y-126952640D01*
X171992925Y-126949200D01*
X172106110Y-126949200D01*
X172054068Y-127074842D01*
X171997000Y-127361740D01*
X171997000Y-127654260D01*
X172054068Y-127941158D01*
X172166010Y-128211411D01*
X172328525Y-128454632D01*
X172535368Y-128661475D01*
X172709760Y-128778000D01*
X172535368Y-128894525D01*
X172328525Y-129101368D01*
X172166010Y-129344589D01*
X172054068Y-129614842D01*
X171997000Y-129901740D01*
X171997000Y-130194260D01*
X172054068Y-130481158D01*
X172166010Y-130751411D01*
X172328525Y-130994632D01*
X172535368Y-131201475D01*
X172709760Y-131318000D01*
X172535368Y-131434525D01*
X172328525Y-131641368D01*
X172166010Y-131884589D01*
X172054068Y-132154842D01*
X171997000Y-132441740D01*
X171997000Y-132734260D01*
X172023692Y-132868449D01*
X171989243Y-132854180D01*
X171800315Y-132816600D01*
X171607685Y-132816600D01*
X171418757Y-132854180D01*
X171240790Y-132927896D01*
X171080625Y-133034915D01*
X171017575Y-133097965D01*
X170600924Y-132681315D01*
X170578649Y-132654173D01*
X170470355Y-132565298D01*
X170346803Y-132499258D01*
X170212742Y-132458591D01*
X170108258Y-132448300D01*
X170108248Y-132448300D01*
X170073322Y-132444860D01*
X170038396Y-132448300D01*
X163783270Y-132448300D01*
X163754320Y-132302757D01*
X163680604Y-132124790D01*
X163573585Y-131964625D01*
X163437375Y-131828415D01*
X163277210Y-131721396D01*
X163099243Y-131647680D01*
X162910315Y-131610100D01*
X162717685Y-131610100D01*
X162528757Y-131647680D01*
X162350790Y-131721396D01*
X162190625Y-131828415D01*
X162142240Y-131876800D01*
X144987270Y-131876800D01*
X144958320Y-131731257D01*
X144884604Y-131553290D01*
X144777585Y-131393125D01*
X144641375Y-131256915D01*
X144481210Y-131149896D01*
X144303243Y-131076180D01*
X144114315Y-131038600D01*
X143929857Y-131038600D01*
X143956909Y-130949420D01*
X143967200Y-130844936D01*
X143967200Y-130844919D01*
X143970639Y-130810001D01*
X143967200Y-130775083D01*
X143967200Y-130211760D01*
X144015585Y-130163375D01*
X144122604Y-130003210D01*
X144196320Y-129825243D01*
X144233900Y-129636315D01*
X144233900Y-129443685D01*
X144196320Y-129254757D01*
X144122604Y-129076790D01*
X144015585Y-128916625D01*
X143879375Y-128780415D01*
X143719210Y-128673396D01*
X143541243Y-128599680D01*
X143352315Y-128562100D01*
X143159685Y-128562100D01*
X143135704Y-128566870D01*
X143084187Y-128515353D01*
X142924022Y-128408334D01*
X142746055Y-128334618D01*
X142557127Y-128297038D01*
X142364497Y-128297038D01*
X142175569Y-128334618D01*
X141997602Y-128408334D01*
X141837437Y-128515353D01*
X141821819Y-128530971D01*
X141730000Y-128521928D01*
X138506061Y-128521928D01*
X138534604Y-128479210D01*
X138608320Y-128301243D01*
X138645900Y-128112315D01*
X138645900Y-127919685D01*
X138608320Y-127730757D01*
X138534604Y-127552790D01*
X138427585Y-127392625D01*
X138291375Y-127256415D01*
X138143616Y-127157685D01*
X143548100Y-127157685D01*
X143548100Y-127350315D01*
X143585680Y-127539243D01*
X143659396Y-127717210D01*
X143766415Y-127877375D01*
X143814800Y-127925760D01*
X143814800Y-127981074D01*
X143811360Y-128016000D01*
X143814800Y-128050926D01*
X143814800Y-128050936D01*
X143825091Y-128155420D01*
X143860582Y-128272415D01*
X143865759Y-128289481D01*
X143931798Y-128413032D01*
X143969828Y-128459371D01*
X144020674Y-128521327D01*
X144047809Y-128543596D01*
X144506407Y-129002195D01*
X144528673Y-129029327D01*
X144555804Y-129051593D01*
X144555808Y-129051597D01*
X144596326Y-129084849D01*
X144636967Y-129118202D01*
X144760519Y-129184242D01*
X144894580Y-129224909D01*
X144999064Y-129235200D01*
X144999081Y-129235200D01*
X145033999Y-129238639D01*
X145068917Y-129235200D01*
X146777074Y-129235200D01*
X146812000Y-129238640D01*
X146846926Y-129235200D01*
X146846936Y-129235200D01*
X146951420Y-129224909D01*
X147085481Y-129184242D01*
X147209033Y-129118202D01*
X147317327Y-129029327D01*
X147339601Y-129002186D01*
X148052200Y-128289589D01*
X148079326Y-128267327D01*
X148101588Y-128240201D01*
X148101598Y-128240191D01*
X148168202Y-128159033D01*
X148234242Y-128035482D01*
X148274909Y-127901420D01*
X148277175Y-127878409D01*
X148285200Y-127796936D01*
X148285200Y-127796929D01*
X148288640Y-127762000D01*
X148285200Y-127727072D01*
X148285200Y-127723900D01*
X148432315Y-127723900D01*
X148621243Y-127686320D01*
X148799210Y-127612604D01*
X148959375Y-127505585D01*
X149007760Y-127457200D01*
X151586567Y-127457200D01*
X151636409Y-127577531D01*
X151743428Y-127737696D01*
X151879638Y-127873906D01*
X152039803Y-127980925D01*
X152217770Y-128054641D01*
X152406698Y-128092221D01*
X152599328Y-128092221D01*
X152788256Y-128054641D01*
X152966223Y-127980925D01*
X153126388Y-127873906D01*
X153262598Y-127737696D01*
X153369617Y-127577531D01*
X153443333Y-127399564D01*
X153480913Y-127210636D01*
X153480913Y-127018006D01*
X153443333Y-126829078D01*
X153369617Y-126651111D01*
X153262598Y-126490946D01*
X153126388Y-126354736D01*
X152966223Y-126247717D01*
X152788256Y-126174001D01*
X152599328Y-126136421D01*
X152502957Y-126136421D01*
X152408173Y-126085758D01*
X152274112Y-126045091D01*
X152169628Y-126034800D01*
X152169618Y-126034800D01*
X152134692Y-126031360D01*
X152099766Y-126034800D01*
X149007760Y-126034800D01*
X148959375Y-125986415D01*
X148799210Y-125879396D01*
X148795636Y-125877916D01*
X148805900Y-125826315D01*
X148805900Y-125633685D01*
X148768320Y-125444757D01*
X148694604Y-125266790D01*
X148587585Y-125106625D01*
X148451375Y-124970415D01*
X148291210Y-124863396D01*
X148113243Y-124789680D01*
X147924315Y-124752100D01*
X147731685Y-124752100D01*
X147542757Y-124789680D01*
X147364790Y-124863396D01*
X147204625Y-124970415D01*
X147068415Y-125106625D01*
X146961396Y-125266790D01*
X146887680Y-125444757D01*
X146850100Y-125633685D01*
X146850100Y-125826315D01*
X146866681Y-125909673D01*
X146859360Y-125984000D01*
X146862801Y-126018936D01*
X146862800Y-126880025D01*
X146800961Y-126787476D01*
X146643524Y-126630039D01*
X146458398Y-126506341D01*
X146252696Y-126421137D01*
X146034325Y-126377700D01*
X145811675Y-126377700D01*
X145593304Y-126421137D01*
X145387602Y-126506341D01*
X145251945Y-126596985D01*
X145149375Y-126494415D01*
X144989210Y-126387396D01*
X144811243Y-126313680D01*
X144622315Y-126276100D01*
X144429685Y-126276100D01*
X144240757Y-126313680D01*
X144062790Y-126387396D01*
X143902625Y-126494415D01*
X143766415Y-126630625D01*
X143659396Y-126790790D01*
X143585680Y-126968757D01*
X143548100Y-127157685D01*
X138143616Y-127157685D01*
X138131210Y-127149396D01*
X137953243Y-127075680D01*
X137764315Y-127038100D01*
X137571685Y-127038100D01*
X137382757Y-127075680D01*
X137204790Y-127149396D01*
X137044625Y-127256415D01*
X136908415Y-127392625D01*
X136801396Y-127552790D01*
X136727680Y-127730757D01*
X136690100Y-127919685D01*
X136690100Y-128112315D01*
X136727680Y-128301243D01*
X136801396Y-128479210D01*
X136908415Y-128639375D01*
X136956801Y-128687761D01*
X136956800Y-132480907D01*
X136950790Y-132483396D01*
X136790625Y-132590415D01*
X136654415Y-132726625D01*
X136547396Y-132886790D01*
X136473680Y-133064757D01*
X136436100Y-133253685D01*
X136436100Y-133446315D01*
X136473680Y-133635243D01*
X136547396Y-133813210D01*
X136654415Y-133973375D01*
X136790625Y-134109585D01*
X136950790Y-134216604D01*
X137128757Y-134290320D01*
X137317685Y-134327900D01*
X137510315Y-134327900D01*
X137699243Y-134290320D01*
X137877210Y-134216604D01*
X138037375Y-134109585D01*
X138173585Y-133973375D01*
X138280604Y-133813210D01*
X138354320Y-133635243D01*
X138391900Y-133446315D01*
X138391900Y-133253685D01*
X138375320Y-133170331D01*
X138379200Y-133130936D01*
X138379200Y-133130927D01*
X138382436Y-133098072D01*
X140997689Y-133098072D01*
X140997688Y-133671128D01*
X140949303Y-133719513D01*
X140842284Y-133879678D01*
X140768568Y-134057645D01*
X140730988Y-134246573D01*
X140730988Y-134439203D01*
X140768568Y-134628131D01*
X140842284Y-134806098D01*
X140949303Y-134966263D01*
X141085513Y-135102473D01*
X141245678Y-135209492D01*
X141423645Y-135283208D01*
X141612573Y-135320788D01*
X141805203Y-135320788D01*
X141994131Y-135283208D01*
X142172098Y-135209492D01*
X142332263Y-135102473D01*
X142468473Y-134966263D01*
X142575492Y-134806098D01*
X142598930Y-134749514D01*
X142716757Y-134798320D01*
X142905685Y-134835900D01*
X143098315Y-134835900D01*
X143287243Y-134798320D01*
X143465210Y-134724604D01*
X143625375Y-134617585D01*
X143673760Y-134569200D01*
X146902240Y-134569200D01*
X146950625Y-134617585D01*
X147110790Y-134724604D01*
X147288757Y-134798320D01*
X147477685Y-134835900D01*
X147670315Y-134835900D01*
X147859243Y-134798320D01*
X148037210Y-134724604D01*
X148197375Y-134617585D01*
X148333585Y-134481375D01*
X148440604Y-134321210D01*
X148514320Y-134143243D01*
X148551900Y-133954315D01*
X148551900Y-133761685D01*
X148514320Y-133572757D01*
X148440604Y-133394790D01*
X148376733Y-133299200D01*
X151602267Y-133299200D01*
X151522625Y-133352415D01*
X151386415Y-133488625D01*
X151279396Y-133648790D01*
X151205680Y-133826757D01*
X151168100Y-134015685D01*
X151168100Y-134208315D01*
X151205680Y-134397243D01*
X151279396Y-134575210D01*
X151386415Y-134735375D01*
X151522625Y-134871585D01*
X151682790Y-134978604D01*
X151860757Y-135052320D01*
X152049685Y-135089900D01*
X152242315Y-135089900D01*
X152431243Y-135052320D01*
X152555828Y-135000715D01*
X152618708Y-135152522D01*
X152725727Y-135312687D01*
X152861937Y-135448897D01*
X153022102Y-135555916D01*
X153200069Y-135629632D01*
X153388997Y-135667212D01*
X153581627Y-135667212D01*
X153770555Y-135629632D01*
X153948522Y-135555916D01*
X154108687Y-135448897D01*
X154244897Y-135312687D01*
X154274591Y-135268248D01*
X154335685Y-135280400D01*
X154404113Y-135280400D01*
X156507903Y-137384191D01*
X156530173Y-137411327D01*
X156638467Y-137500202D01*
X156762019Y-137566242D01*
X156896080Y-137606909D01*
X157000564Y-137617200D01*
X157000573Y-137617200D01*
X157035499Y-137620640D01*
X157070425Y-137617200D01*
X157824240Y-137617200D01*
X157872625Y-137665585D01*
X158028893Y-137770000D01*
X100990000Y-137770000D01*
X100990000Y-128123740D01*
X101385000Y-128123740D01*
X101385000Y-128416260D01*
X101442068Y-128703158D01*
X101554010Y-128973411D01*
X101716525Y-129216632D01*
X101923368Y-129423475D01*
X102097760Y-129540000D01*
X101923368Y-129656525D01*
X101716525Y-129863368D01*
X101554010Y-130106589D01*
X101442068Y-130376842D01*
X101385000Y-130663740D01*
X101385000Y-130956260D01*
X101442068Y-131243158D01*
X101554010Y-131513411D01*
X101716525Y-131756632D01*
X101923368Y-131963475D01*
X102097760Y-132080000D01*
X101923368Y-132196525D01*
X101716525Y-132403368D01*
X101554010Y-132646589D01*
X101442068Y-132916842D01*
X101385000Y-133203740D01*
X101385000Y-133496260D01*
X101442068Y-133783158D01*
X101554010Y-134053411D01*
X101716525Y-134296632D01*
X101923368Y-134503475D01*
X102097760Y-134620000D01*
X101923368Y-134736525D01*
X101716525Y-134943368D01*
X101554010Y-135186589D01*
X101442068Y-135456842D01*
X101385000Y-135743740D01*
X101385000Y-136036260D01*
X101442068Y-136323158D01*
X101554010Y-136593411D01*
X101716525Y-136836632D01*
X101923368Y-137043475D01*
X102166589Y-137205990D01*
X102436842Y-137317932D01*
X102723740Y-137375000D01*
X103016260Y-137375000D01*
X103303158Y-137317932D01*
X103573411Y-137205990D01*
X103816632Y-137043475D01*
X104023475Y-136836632D01*
X104185990Y-136593411D01*
X104297932Y-136323158D01*
X104355000Y-136036260D01*
X104355000Y-135743740D01*
X104297932Y-135456842D01*
X104185990Y-135186589D01*
X104023475Y-134943368D01*
X103816632Y-134736525D01*
X103642240Y-134620000D01*
X103816632Y-134503475D01*
X104023475Y-134296632D01*
X104185990Y-134053411D01*
X104201616Y-134015685D01*
X104940100Y-134015685D01*
X104940100Y-134208315D01*
X104977680Y-134397243D01*
X105051396Y-134575210D01*
X105158415Y-134735375D01*
X105294625Y-134871585D01*
X105454790Y-134978604D01*
X105632757Y-135052320D01*
X105821685Y-135089900D01*
X106014315Y-135089900D01*
X106203243Y-135052320D01*
X106381210Y-134978604D01*
X106541375Y-134871585D01*
X106589760Y-134823200D01*
X107278240Y-134823200D01*
X107326625Y-134871585D01*
X107486790Y-134978604D01*
X107664757Y-135052320D01*
X107853685Y-135089900D01*
X108046315Y-135089900D01*
X108235243Y-135052320D01*
X108413210Y-134978604D01*
X108573375Y-134871585D01*
X108709585Y-134735375D01*
X108816604Y-134575210D01*
X108890320Y-134397243D01*
X108927900Y-134208315D01*
X108927900Y-134015685D01*
X108894669Y-133848623D01*
X109016725Y-133766307D01*
X109188078Y-133593474D01*
X109322421Y-133390533D01*
X109414591Y-133165282D01*
X109418462Y-133127609D01*
X109293731Y-132937000D01*
X108077000Y-132937000D01*
X108077000Y-132957000D01*
X107823000Y-132957000D01*
X107823000Y-132937000D01*
X106606269Y-132937000D01*
X106481538Y-133127609D01*
X106485409Y-133165282D01*
X106576253Y-133387293D01*
X106541375Y-133352415D01*
X106381210Y-133245396D01*
X106203243Y-133171680D01*
X106014315Y-133134100D01*
X105821685Y-133134100D01*
X105632757Y-133171680D01*
X105454790Y-133245396D01*
X105294625Y-133352415D01*
X105158415Y-133488625D01*
X105051396Y-133648790D01*
X104977680Y-133826757D01*
X104940100Y-134015685D01*
X104201616Y-134015685D01*
X104297932Y-133783158D01*
X104355000Y-133496260D01*
X104355000Y-133203740D01*
X104297932Y-132916842D01*
X104185990Y-132646589D01*
X104023475Y-132403368D01*
X103816632Y-132196525D01*
X103642240Y-132080000D01*
X103816632Y-131963475D01*
X104023475Y-131756632D01*
X104185990Y-131513411D01*
X104297932Y-131243158D01*
X104355000Y-130956260D01*
X104355000Y-130663740D01*
X104297932Y-130376842D01*
X104185990Y-130106589D01*
X104023475Y-129863368D01*
X103816632Y-129656525D01*
X103642240Y-129540000D01*
X103816632Y-129423475D01*
X104023475Y-129216632D01*
X104185990Y-128973411D01*
X104201616Y-128935685D01*
X105194100Y-128935685D01*
X105194100Y-129128315D01*
X105231680Y-129317243D01*
X105305396Y-129495210D01*
X105412415Y-129655375D01*
X105548625Y-129791585D01*
X105708790Y-129898604D01*
X105886757Y-129972320D01*
X106075685Y-130009900D01*
X106268315Y-130009900D01*
X106457243Y-129972320D01*
X106635210Y-129898604D01*
X106651149Y-129887954D01*
X106586595Y-129966613D01*
X106504528Y-130120149D01*
X106453992Y-130286745D01*
X106436928Y-130459999D01*
X106436928Y-131160001D01*
X106453992Y-131333255D01*
X106504528Y-131499851D01*
X106586595Y-131653387D01*
X106697038Y-131787962D01*
X106831613Y-131898405D01*
X106836406Y-131900967D01*
X106711922Y-132026526D01*
X106577579Y-132229467D01*
X106485409Y-132454718D01*
X106481538Y-132492391D01*
X106606269Y-132683000D01*
X107823000Y-132683000D01*
X107823000Y-132663000D01*
X108077000Y-132663000D01*
X108077000Y-132683000D01*
X109293731Y-132683000D01*
X109418462Y-132492391D01*
X109414591Y-132454718D01*
X109322421Y-132229467D01*
X109188078Y-132026526D01*
X109063594Y-131900967D01*
X109068387Y-131898405D01*
X109202962Y-131787962D01*
X109313405Y-131653387D01*
X109395472Y-131499851D01*
X109446008Y-131333255D01*
X109463072Y-131160001D01*
X109463072Y-130459999D01*
X109446008Y-130286745D01*
X109395472Y-130120149D01*
X109313405Y-129966613D01*
X109202962Y-129832038D01*
X109094713Y-129743200D01*
X112156574Y-129743200D01*
X112191500Y-129746640D01*
X112226426Y-129743200D01*
X112226436Y-129743200D01*
X112330920Y-129732909D01*
X112464981Y-129692242D01*
X112588533Y-129626202D01*
X112696827Y-129537327D01*
X112719102Y-129510185D01*
X113069287Y-129160000D01*
X121791928Y-129160000D01*
X121791928Y-132460000D01*
X121804188Y-132584482D01*
X121840498Y-132704180D01*
X121899463Y-132814494D01*
X121978815Y-132911185D01*
X122075506Y-132990537D01*
X122185820Y-133049502D01*
X122305518Y-133085812D01*
X122430000Y-133098072D01*
X125930000Y-133098072D01*
X126054482Y-133085812D01*
X126174180Y-133049502D01*
X126242192Y-133013148D01*
X130056457Y-133013148D01*
X130332627Y-133431118D01*
X130877557Y-133721649D01*
X131468696Y-133900287D01*
X132083328Y-133960168D01*
X132697831Y-133898990D01*
X133288592Y-133719103D01*
X133827373Y-133431118D01*
X134103543Y-133013148D01*
X132080000Y-130989605D01*
X130056457Y-133013148D01*
X126242192Y-133013148D01*
X126284494Y-132990537D01*
X126381185Y-132911185D01*
X126460537Y-132814494D01*
X126519502Y-132704180D01*
X126555812Y-132584482D01*
X126568072Y-132460000D01*
X126568072Y-130813328D01*
X128929832Y-130813328D01*
X128991010Y-131427831D01*
X129170897Y-132018592D01*
X129458882Y-132557373D01*
X129876852Y-132833543D01*
X131900395Y-130810000D01*
X132259605Y-130810000D01*
X134283148Y-132833543D01*
X134701118Y-132557373D01*
X134991649Y-132012443D01*
X135170287Y-131421304D01*
X135230168Y-130806672D01*
X135168990Y-130192169D01*
X134989103Y-129601408D01*
X134701118Y-129062627D01*
X134283148Y-128786457D01*
X132259605Y-130810000D01*
X131900395Y-130810000D01*
X129876852Y-128786457D01*
X129458882Y-129062627D01*
X129168351Y-129607557D01*
X128989713Y-130198696D01*
X128929832Y-130813328D01*
X126568072Y-130813328D01*
X126568072Y-129160000D01*
X126555812Y-129035518D01*
X126519502Y-128915820D01*
X126460537Y-128805506D01*
X126381185Y-128708815D01*
X126284494Y-128629463D01*
X126242193Y-128606852D01*
X130056457Y-128606852D01*
X132080000Y-130630395D01*
X134103543Y-128606852D01*
X133827373Y-128188882D01*
X133282443Y-127898351D01*
X132691304Y-127719713D01*
X132076672Y-127659832D01*
X131462169Y-127721010D01*
X130871408Y-127900897D01*
X130332627Y-128188882D01*
X130056457Y-128606852D01*
X126242193Y-128606852D01*
X126174180Y-128570498D01*
X126054482Y-128534188D01*
X125930000Y-128521928D01*
X122430000Y-128521928D01*
X122305518Y-128534188D01*
X122185820Y-128570498D01*
X122075506Y-128629463D01*
X121978815Y-128708815D01*
X121899463Y-128805506D01*
X121840498Y-128915820D01*
X121804188Y-129035518D01*
X121791928Y-129160000D01*
X113069287Y-129160000D01*
X114073888Y-128155400D01*
X114142315Y-128155400D01*
X114331243Y-128117820D01*
X114509210Y-128044104D01*
X114669375Y-127937085D01*
X114805585Y-127800875D01*
X114912604Y-127640710D01*
X114986320Y-127462743D01*
X115023900Y-127273815D01*
X115023900Y-127081185D01*
X118148100Y-127081185D01*
X118148100Y-127273815D01*
X118185680Y-127462743D01*
X118259396Y-127640710D01*
X118366415Y-127800875D01*
X118502625Y-127937085D01*
X118662790Y-128044104D01*
X118840757Y-128117820D01*
X119029685Y-128155400D01*
X119222315Y-128155400D01*
X119411243Y-128117820D01*
X119589210Y-128044104D01*
X119749375Y-127937085D01*
X119797760Y-127888700D01*
X121199574Y-127888700D01*
X121234500Y-127892140D01*
X121269426Y-127888700D01*
X121269436Y-127888700D01*
X121373920Y-127878409D01*
X121507981Y-127837742D01*
X121631533Y-127771702D01*
X121689780Y-127723900D01*
X121762315Y-127723900D01*
X121951243Y-127686320D01*
X122129210Y-127612604D01*
X122289375Y-127505585D01*
X122425585Y-127369375D01*
X122532604Y-127209210D01*
X122606320Y-127031243D01*
X122643900Y-126842315D01*
X122643900Y-126649685D01*
X122606320Y-126460757D01*
X122532604Y-126282790D01*
X122425585Y-126122625D01*
X122289375Y-125986415D01*
X122129210Y-125879396D01*
X121951243Y-125805680D01*
X121762315Y-125768100D01*
X121569685Y-125768100D01*
X121380757Y-125805680D01*
X121202790Y-125879396D01*
X121042625Y-125986415D01*
X120906415Y-126122625D01*
X120799396Y-126282790D01*
X120725680Y-126460757D01*
X120724577Y-126466300D01*
X119797760Y-126466300D01*
X119749375Y-126417915D01*
X119589210Y-126310896D01*
X119411243Y-126237180D01*
X119222315Y-126199600D01*
X119029685Y-126199600D01*
X118840757Y-126237180D01*
X118662790Y-126310896D01*
X118502625Y-126417915D01*
X118366415Y-126554125D01*
X118259396Y-126714290D01*
X118185680Y-126892257D01*
X118148100Y-127081185D01*
X115023900Y-127081185D01*
X114986320Y-126892257D01*
X114912604Y-126714290D01*
X114823375Y-126580750D01*
X114912604Y-126447210D01*
X114986320Y-126269243D01*
X115023900Y-126080315D01*
X115023900Y-125887685D01*
X114986320Y-125698757D01*
X114912604Y-125520790D01*
X114805585Y-125360625D01*
X114669375Y-125224415D01*
X114509210Y-125117396D01*
X114331243Y-125043680D01*
X114142315Y-125006100D01*
X113949685Y-125006100D01*
X113841423Y-125027635D01*
X112923473Y-124109685D01*
X132372100Y-124109685D01*
X132372100Y-124302315D01*
X132409680Y-124491243D01*
X132483396Y-124669210D01*
X132590415Y-124829375D01*
X132726625Y-124965585D01*
X132886790Y-125072604D01*
X133064757Y-125146320D01*
X133234468Y-125180078D01*
X134516585Y-126462196D01*
X134538851Y-126489327D01*
X134565982Y-126511593D01*
X134565987Y-126511598D01*
X134626633Y-126561368D01*
X134647145Y-126578202D01*
X134770697Y-126644242D01*
X134904758Y-126684909D01*
X135009242Y-126695200D01*
X135009249Y-126695200D01*
X135044178Y-126698640D01*
X135079106Y-126695200D01*
X135472240Y-126695200D01*
X135520625Y-126743585D01*
X135680790Y-126850604D01*
X135858757Y-126924320D01*
X136047685Y-126961900D01*
X136240315Y-126961900D01*
X136429243Y-126924320D01*
X136607210Y-126850604D01*
X136767375Y-126743585D01*
X136903585Y-126607375D01*
X137010604Y-126447210D01*
X137084320Y-126269243D01*
X137121900Y-126080315D01*
X137121900Y-125887685D01*
X137111636Y-125836084D01*
X137115210Y-125834604D01*
X137275375Y-125727585D01*
X137411585Y-125591375D01*
X137518604Y-125431210D01*
X137592320Y-125253243D01*
X137629900Y-125064315D01*
X137629900Y-124871685D01*
X137592320Y-124682757D01*
X137518604Y-124504790D01*
X137411585Y-124344625D01*
X137275375Y-124208415D01*
X137115210Y-124101396D01*
X136937243Y-124027680D01*
X136748315Y-123990100D01*
X136555685Y-123990100D01*
X136366757Y-124027680D01*
X136188790Y-124101396D01*
X136028625Y-124208415D01*
X135980240Y-124256800D01*
X135545760Y-124256800D01*
X135497375Y-124208415D01*
X135337210Y-124101396D01*
X135159243Y-124027680D01*
X134970315Y-123990100D01*
X134777685Y-123990100D01*
X134588757Y-124027680D01*
X134410790Y-124101396D01*
X134327900Y-124156781D01*
X134327900Y-124109685D01*
X134290320Y-123920757D01*
X134216604Y-123742790D01*
X134109585Y-123582625D01*
X133973375Y-123446415D01*
X133813210Y-123339396D01*
X133635243Y-123265680D01*
X133446315Y-123228100D01*
X133253685Y-123228100D01*
X133064757Y-123265680D01*
X132886790Y-123339396D01*
X132726625Y-123446415D01*
X132590415Y-123582625D01*
X132483396Y-123742790D01*
X132409680Y-123920757D01*
X132372100Y-124109685D01*
X112923473Y-124109685D01*
X112483900Y-123670113D01*
X112483900Y-123601685D01*
X112446320Y-123412757D01*
X112372604Y-123234790D01*
X112265585Y-123074625D01*
X112129375Y-122938415D01*
X111969210Y-122831396D01*
X111791243Y-122757680D01*
X111602315Y-122720100D01*
X111409685Y-122720100D01*
X111220757Y-122757680D01*
X111042790Y-122831396D01*
X110882625Y-122938415D01*
X110746415Y-123074625D01*
X110639396Y-123234790D01*
X110565680Y-123412757D01*
X110528100Y-123601685D01*
X110528100Y-123794315D01*
X110565680Y-123983243D01*
X110639396Y-124161210D01*
X110746415Y-124321375D01*
X110882625Y-124457585D01*
X111042790Y-124564604D01*
X111220757Y-124638320D01*
X111409685Y-124675900D01*
X111478113Y-124675900D01*
X113129881Y-126327670D01*
X113179396Y-126447210D01*
X113268625Y-126580750D01*
X113179396Y-126714290D01*
X113105680Y-126892257D01*
X113068100Y-127081185D01*
X113068100Y-127149612D01*
X111943745Y-128273967D01*
X111975900Y-128112315D01*
X111975900Y-127919685D01*
X111938320Y-127730757D01*
X111864604Y-127552790D01*
X111757585Y-127392625D01*
X111709200Y-127344240D01*
X111709200Y-126655760D01*
X111757585Y-126607375D01*
X111864604Y-126447210D01*
X111938320Y-126269243D01*
X111975900Y-126080315D01*
X111975900Y-125887685D01*
X111938320Y-125698757D01*
X111864604Y-125520790D01*
X111757585Y-125360625D01*
X111621375Y-125224415D01*
X111461210Y-125117396D01*
X111283243Y-125043680D01*
X111094315Y-125006100D01*
X110901685Y-125006100D01*
X110712757Y-125043680D01*
X110534790Y-125117396D01*
X110477978Y-125155356D01*
X110424494Y-125111463D01*
X110314180Y-125052498D01*
X110194482Y-125016188D01*
X110070000Y-125003928D01*
X108991716Y-125003928D01*
X108419900Y-124432112D01*
X108419900Y-124363685D01*
X108382320Y-124174757D01*
X108308604Y-123996790D01*
X108201585Y-123836625D01*
X108065375Y-123700415D01*
X107905210Y-123593396D01*
X107727243Y-123519680D01*
X107538315Y-123482100D01*
X107345685Y-123482100D01*
X107156757Y-123519680D01*
X106978790Y-123593396D01*
X106818625Y-123700415D01*
X106682415Y-123836625D01*
X106575396Y-123996790D01*
X106501680Y-124174757D01*
X106464100Y-124363685D01*
X106464100Y-124556315D01*
X106501680Y-124745243D01*
X106575396Y-124923210D01*
X106631383Y-125007000D01*
X106533740Y-125007000D01*
X106246842Y-125064068D01*
X105976589Y-125176010D01*
X105733368Y-125338525D01*
X105526525Y-125545368D01*
X105364010Y-125788589D01*
X105252068Y-126058842D01*
X105195000Y-126345740D01*
X105195000Y-126638260D01*
X105252068Y-126925158D01*
X105364010Y-127195411D01*
X105526525Y-127438632D01*
X105733368Y-127645475D01*
X105976589Y-127807990D01*
X106246842Y-127919932D01*
X106533740Y-127977000D01*
X106826260Y-127977000D01*
X107113158Y-127919932D01*
X107383411Y-127807990D01*
X107626632Y-127645475D01*
X107758487Y-127513620D01*
X107780498Y-127586180D01*
X107839463Y-127696494D01*
X107918815Y-127793185D01*
X108015506Y-127872537D01*
X108125820Y-127931502D01*
X108245518Y-127967812D01*
X108370000Y-127980072D01*
X110020100Y-127980072D01*
X110020100Y-128112315D01*
X110057680Y-128301243D01*
X110065781Y-128320800D01*
X106843760Y-128320800D01*
X106795375Y-128272415D01*
X106635210Y-128165396D01*
X106457243Y-128091680D01*
X106268315Y-128054100D01*
X106075685Y-128054100D01*
X105886757Y-128091680D01*
X105708790Y-128165396D01*
X105548625Y-128272415D01*
X105412415Y-128408625D01*
X105305396Y-128568790D01*
X105231680Y-128746757D01*
X105194100Y-128935685D01*
X104201616Y-128935685D01*
X104297932Y-128703158D01*
X104355000Y-128416260D01*
X104355000Y-128123740D01*
X104297932Y-127836842D01*
X104185990Y-127566589D01*
X104023475Y-127323368D01*
X103816632Y-127116525D01*
X103634466Y-126994805D01*
X103751355Y-126925178D01*
X103967588Y-126730269D01*
X104141641Y-126496920D01*
X104266825Y-126234099D01*
X104311476Y-126086890D01*
X104190155Y-125857000D01*
X102997000Y-125857000D01*
X102997000Y-125877000D01*
X102743000Y-125877000D01*
X102743000Y-125857000D01*
X101549845Y-125857000D01*
X101428524Y-126086890D01*
X101473175Y-126234099D01*
X101598359Y-126496920D01*
X101772412Y-126730269D01*
X101988645Y-126925178D01*
X102105534Y-126994805D01*
X101923368Y-127116525D01*
X101716525Y-127323368D01*
X101554010Y-127566589D01*
X101442068Y-127836842D01*
X101385000Y-128123740D01*
X100990000Y-128123740D01*
X100990000Y-124040000D01*
X101381928Y-124040000D01*
X101394188Y-124164482D01*
X101430498Y-124284180D01*
X101489463Y-124394494D01*
X101568815Y-124491185D01*
X101665506Y-124570537D01*
X101775820Y-124629502D01*
X101856466Y-124653966D01*
X101772412Y-124729731D01*
X101598359Y-124963080D01*
X101473175Y-125225901D01*
X101428524Y-125373110D01*
X101549845Y-125603000D01*
X102743000Y-125603000D01*
X102743000Y-123317000D01*
X102997000Y-123317000D01*
X102997000Y-125603000D01*
X104190155Y-125603000D01*
X104311476Y-125373110D01*
X104266825Y-125225901D01*
X104141641Y-124963080D01*
X103967588Y-124729731D01*
X103883534Y-124653966D01*
X103964180Y-124629502D01*
X104074494Y-124570537D01*
X104171185Y-124491185D01*
X104250537Y-124394494D01*
X104309502Y-124284180D01*
X104345812Y-124164482D01*
X104358072Y-124040000D01*
X104355000Y-123475750D01*
X104196250Y-123317000D01*
X102997000Y-123317000D01*
X102743000Y-123317000D01*
X101543750Y-123317000D01*
X101385000Y-123475750D01*
X101381928Y-124040000D01*
X100990000Y-124040000D01*
X100990000Y-122340000D01*
X101381928Y-122340000D01*
X101385000Y-122904250D01*
X101543750Y-123063000D01*
X102743000Y-123063000D01*
X102743000Y-121863750D01*
X102997000Y-121863750D01*
X102997000Y-123063000D01*
X104196250Y-123063000D01*
X104355000Y-122904250D01*
X104358072Y-122340000D01*
X104345812Y-122215518D01*
X104309502Y-122095820D01*
X104250537Y-121985506D01*
X104171185Y-121888815D01*
X104074494Y-121809463D01*
X103964180Y-121750498D01*
X103844482Y-121714188D01*
X103720000Y-121701928D01*
X103155750Y-121705000D01*
X102997000Y-121863750D01*
X102743000Y-121863750D01*
X102584250Y-121705000D01*
X102020000Y-121701928D01*
X101895518Y-121714188D01*
X101775820Y-121750498D01*
X101665506Y-121809463D01*
X101568815Y-121888815D01*
X101489463Y-121985506D01*
X101430498Y-122095820D01*
X101394188Y-122215518D01*
X101381928Y-122340000D01*
X100990000Y-122340000D01*
X100990000Y-121310000D01*
X142764441Y-121310000D01*
X142737894Y-121336547D01*
%TA.AperFunction,Conductor*%
D20*
G36*
X142737894Y-121336547D02*
G01*
X142630875Y-121496712D01*
X142557159Y-121674679D01*
X142519579Y-121863607D01*
X142519579Y-122056237D01*
X142557159Y-122245165D01*
X142630875Y-122423132D01*
X142675184Y-122489445D01*
X142598004Y-122566625D01*
X142490985Y-122726790D01*
X142417269Y-122904757D01*
X142379689Y-123093685D01*
X142379689Y-123286315D01*
X142417269Y-123475243D01*
X142490985Y-123653210D01*
X142598004Y-123813375D01*
X142646389Y-123861760D01*
X142646390Y-124754321D01*
X142643404Y-124758790D01*
X142569688Y-124936757D01*
X142532108Y-125125685D01*
X142532108Y-125318315D01*
X142569688Y-125507243D01*
X142643404Y-125685210D01*
X142750423Y-125845375D01*
X142886633Y-125981585D01*
X143046798Y-126088604D01*
X143224765Y-126162320D01*
X143413693Y-126199900D01*
X143606323Y-126199900D01*
X143795251Y-126162320D01*
X143973218Y-126088604D01*
X144133383Y-125981585D01*
X144269593Y-125845375D01*
X144376612Y-125685210D01*
X144450328Y-125507243D01*
X144487908Y-125318315D01*
X144487908Y-125125685D01*
X144450328Y-124936757D01*
X144376612Y-124758790D01*
X144269593Y-124598625D01*
X144133383Y-124462415D01*
X144068789Y-124419255D01*
X144068789Y-123861760D01*
X144074864Y-123855685D01*
X149898100Y-123855685D01*
X149898100Y-124048315D01*
X149935680Y-124237243D01*
X150009396Y-124415210D01*
X150116415Y-124575375D01*
X150252625Y-124711585D01*
X150412790Y-124818604D01*
X150590757Y-124892320D01*
X150779685Y-124929900D01*
X150972315Y-124929900D01*
X151161243Y-124892320D01*
X151339210Y-124818604D01*
X151499375Y-124711585D01*
X151547760Y-124663200D01*
X154397074Y-124663200D01*
X154432000Y-124666640D01*
X154466926Y-124663200D01*
X154466936Y-124663200D01*
X154571420Y-124652909D01*
X154705481Y-124612242D01*
X154829033Y-124546202D01*
X154937327Y-124457327D01*
X154959602Y-124430185D01*
X155475888Y-123913900D01*
X155544315Y-123913900D01*
X155733243Y-123876320D01*
X155911210Y-123802604D01*
X156071375Y-123695585D01*
X156119760Y-123647200D01*
X157880907Y-123647200D01*
X157883396Y-123653210D01*
X157990415Y-123813375D01*
X158126625Y-123949585D01*
X158286790Y-124056604D01*
X158464757Y-124130320D01*
X158653685Y-124167900D01*
X158846315Y-124167900D01*
X159035243Y-124130320D01*
X159213210Y-124056604D01*
X159373375Y-123949585D01*
X159509585Y-123813375D01*
X159616604Y-123653210D01*
X159690320Y-123475243D01*
X159727900Y-123286315D01*
X159727900Y-123093685D01*
X159690320Y-122904757D01*
X159616604Y-122726790D01*
X159509585Y-122566625D01*
X159373375Y-122430415D01*
X159213210Y-122323396D01*
X159035243Y-122249680D01*
X158846315Y-122212100D01*
X158653685Y-122212100D01*
X158570331Y-122228680D01*
X158530936Y-122224800D01*
X158530926Y-122224800D01*
X158496000Y-122221360D01*
X158461074Y-122224800D01*
X156119760Y-122224800D01*
X156071375Y-122176415D01*
X155911210Y-122069396D01*
X155733243Y-121995680D01*
X155544315Y-121958100D01*
X155351685Y-121958100D01*
X155162757Y-121995680D01*
X154984790Y-122069396D01*
X154824625Y-122176415D01*
X154688415Y-122312625D01*
X154581396Y-122472790D01*
X154507680Y-122650757D01*
X154470100Y-122839685D01*
X154470100Y-122908112D01*
X154137413Y-123240800D01*
X151547760Y-123240800D01*
X151499375Y-123192415D01*
X151339210Y-123085396D01*
X151161243Y-123011680D01*
X150972315Y-122974100D01*
X150779685Y-122974100D01*
X150590757Y-123011680D01*
X150412790Y-123085396D01*
X150252625Y-123192415D01*
X150116415Y-123328625D01*
X150009396Y-123488790D01*
X149935680Y-123666757D01*
X149898100Y-123855685D01*
X144074864Y-123855685D01*
X144117174Y-123813375D01*
X144224193Y-123653210D01*
X144297909Y-123475243D01*
X144314558Y-123391543D01*
X144371602Y-123429659D01*
X144577304Y-123514863D01*
X144795675Y-123558300D01*
X145018325Y-123558300D01*
X145236696Y-123514863D01*
X145442398Y-123429659D01*
X145583547Y-123335346D01*
X145663154Y-123368320D01*
X145852082Y-123405900D01*
X146044712Y-123405900D01*
X146233640Y-123368320D01*
X146281891Y-123348334D01*
X146403602Y-123429659D01*
X146609304Y-123514863D01*
X146827675Y-123558300D01*
X147050325Y-123558300D01*
X147268696Y-123514863D01*
X147474398Y-123429659D01*
X147659524Y-123305961D01*
X147816961Y-123148524D01*
X147940659Y-122963398D01*
X148025863Y-122757696D01*
X148069300Y-122539325D01*
X148069300Y-122316675D01*
X148025863Y-122098304D01*
X147940659Y-121892602D01*
X147816961Y-121707476D01*
X147659524Y-121550039D01*
X147474398Y-121426341D01*
X147268696Y-121341137D01*
X147112161Y-121310000D01*
X202413001Y-121310000D01*
X202413000Y-137770000D01*
X186116558Y-137770000D01*
X186163083Y-137723475D01*
X186047415Y-137607807D01*
X186311814Y-137512044D01*
X186452704Y-137222429D01*
X186534384Y-136910892D01*
X186553718Y-136589405D01*
X186509961Y-136270325D01*
X186404795Y-135965912D01*
X186311814Y-135791956D01*
X186047413Y-135696192D01*
X185091605Y-136652000D01*
X185105748Y-136666143D01*
X184926143Y-136845748D01*
X184912000Y-136831605D01*
X184897858Y-136845748D01*
X184718253Y-136666143D01*
X184732395Y-136652000D01*
X183776587Y-135696192D01*
X183714720Y-135718600D01*
X183641987Y-135609748D01*
X183548826Y-135516587D01*
X183956192Y-135516587D01*
X184912000Y-136472395D01*
X185867808Y-135516587D01*
X185772044Y-135252186D01*
X185482429Y-135111296D01*
X185170892Y-135029616D01*
X184849405Y-135010282D01*
X184530325Y-135054039D01*
X184225912Y-135159205D01*
X184051956Y-135252186D01*
X183956192Y-135516587D01*
X183548826Y-135516587D01*
X183414252Y-135382013D01*
X183146463Y-135203082D01*
X183083200Y-135176878D01*
X183083200Y-134529744D01*
X183131569Y-134481375D01*
X183238588Y-134321210D01*
X183312304Y-134143243D01*
X183326097Y-134073900D01*
X183360112Y-134073900D01*
X183622407Y-134336196D01*
X183644673Y-134363327D01*
X183671802Y-134385591D01*
X183671809Y-134385598D01*
X183752967Y-134452202D01*
X183876518Y-134518242D01*
X183965931Y-134545365D01*
X184010580Y-134558909D01*
X184115064Y-134569200D01*
X184115071Y-134569200D01*
X184150000Y-134572640D01*
X184184928Y-134569200D01*
X184494240Y-134569200D01*
X184542625Y-134617585D01*
X184702790Y-134724604D01*
X184880757Y-134798320D01*
X185069685Y-134835900D01*
X185262315Y-134835900D01*
X185451243Y-134798320D01*
X185629210Y-134724604D01*
X185789375Y-134617585D01*
X185925585Y-134481375D01*
X186028719Y-134327024D01*
X186213243Y-134290320D01*
X186391210Y-134216604D01*
X186551375Y-134109585D01*
X186687585Y-133973375D01*
X186689171Y-133971000D01*
X193071928Y-133971000D01*
X193084188Y-134095482D01*
X193120498Y-134215180D01*
X193179463Y-134325494D01*
X193258815Y-134422185D01*
X193355506Y-134501537D01*
X193465820Y-134560502D01*
X193585518Y-134596812D01*
X193710000Y-134609072D01*
X194024250Y-134606000D01*
X194183000Y-134447250D01*
X194183000Y-133223000D01*
X193233750Y-133223000D01*
X193075000Y-133381750D01*
X193071928Y-133971000D01*
X186689171Y-133971000D01*
X186794604Y-133813210D01*
X186868320Y-133635243D01*
X186905900Y-133446315D01*
X186905900Y-133253685D01*
X186868320Y-133064757D01*
X186794604Y-132886790D01*
X186687585Y-132726625D01*
X186551375Y-132590415D01*
X186391210Y-132483396D01*
X186213243Y-132409680D01*
X186024315Y-132372100D01*
X185955888Y-132372100D01*
X185804788Y-132221000D01*
X193071928Y-132221000D01*
X193075000Y-132810250D01*
X193233750Y-132969000D01*
X194183000Y-132969000D01*
X194183000Y-131744750D01*
X194437000Y-131744750D01*
X194437000Y-132969000D01*
X194457000Y-132969000D01*
X194457000Y-133223000D01*
X194437000Y-133223000D01*
X194437000Y-134447250D01*
X194595750Y-134606000D01*
X194910000Y-134609072D01*
X195034482Y-134596812D01*
X195154180Y-134560502D01*
X195264494Y-134501537D01*
X195361185Y-134422185D01*
X195440537Y-134325494D01*
X195466692Y-134276563D01*
X195620552Y-134402833D01*
X195835100Y-134517511D01*
X196067899Y-134588130D01*
X196310000Y-134611975D01*
X196552102Y-134588130D01*
X196784901Y-134517511D01*
X196999449Y-134402833D01*
X197187502Y-134248502D01*
X197310001Y-134099237D01*
X197432499Y-134248502D01*
X197620552Y-134402833D01*
X197835100Y-134517511D01*
X198067899Y-134588130D01*
X198310000Y-134611975D01*
X198552102Y-134588130D01*
X198784901Y-134517511D01*
X198999449Y-134402833D01*
X199187502Y-134248502D01*
X199310001Y-134099237D01*
X199432499Y-134248502D01*
X199620552Y-134402833D01*
X199835100Y-134517511D01*
X200067899Y-134588130D01*
X200310000Y-134611975D01*
X200552102Y-134588130D01*
X200784901Y-134517511D01*
X200999449Y-134402833D01*
X201187502Y-134248502D01*
X201341833Y-134060449D01*
X201456511Y-133845900D01*
X201527130Y-133613101D01*
X201545000Y-133431664D01*
X201545000Y-132760335D01*
X201527130Y-132578898D01*
X201456511Y-132346099D01*
X201341833Y-132131551D01*
X201187502Y-131943498D01*
X200999448Y-131789167D01*
X200784900Y-131674489D01*
X200552101Y-131603870D01*
X200310000Y-131580025D01*
X200067898Y-131603870D01*
X199835099Y-131674489D01*
X199620551Y-131789167D01*
X199432498Y-131943498D01*
X199310000Y-132092763D01*
X199187502Y-131943498D01*
X198999448Y-131789167D01*
X198784900Y-131674489D01*
X198552101Y-131603870D01*
X198310000Y-131580025D01*
X198067898Y-131603870D01*
X197835099Y-131674489D01*
X197620551Y-131789167D01*
X197432498Y-131943498D01*
X197310000Y-132092763D01*
X197187502Y-131943498D01*
X196999448Y-131789167D01*
X196784900Y-131674489D01*
X196552101Y-131603870D01*
X196310000Y-131580025D01*
X196067898Y-131603870D01*
X195835099Y-131674489D01*
X195620551Y-131789167D01*
X195466691Y-131915436D01*
X195440537Y-131866506D01*
X195361185Y-131769815D01*
X195264494Y-131690463D01*
X195154180Y-131631498D01*
X195034482Y-131595188D01*
X194910000Y-131582928D01*
X194595750Y-131586000D01*
X194437000Y-131744750D01*
X194183000Y-131744750D01*
X194024250Y-131586000D01*
X193710000Y-131582928D01*
X193585518Y-131595188D01*
X193465820Y-131631498D01*
X193355506Y-131690463D01*
X193258815Y-131769815D01*
X193179463Y-131866506D01*
X193120498Y-131976820D01*
X193084188Y-132096518D01*
X193071928Y-132221000D01*
X185804788Y-132221000D01*
X185363388Y-131779601D01*
X185341114Y-131752460D01*
X185232820Y-131663585D01*
X185109268Y-131597545D01*
X184975207Y-131556878D01*
X184870723Y-131546587D01*
X184870713Y-131546587D01*
X184835787Y-131543147D01*
X184800861Y-131546587D01*
X184059760Y-131546587D01*
X184011375Y-131498202D01*
X183851210Y-131391183D01*
X183673243Y-131317467D01*
X183484315Y-131279887D01*
X183291685Y-131279887D01*
X183102757Y-131317467D01*
X182924790Y-131391183D01*
X182764625Y-131498202D01*
X182628415Y-131634412D01*
X182521396Y-131794577D01*
X182447680Y-131972544D01*
X182410100Y-132161472D01*
X182410100Y-132354102D01*
X182447680Y-132543030D01*
X182503128Y-132676894D01*
X182447680Y-132810757D01*
X182433887Y-132880100D01*
X182275669Y-132880100D01*
X182086741Y-132917680D01*
X181908774Y-132991396D01*
X181748609Y-133098415D01*
X181612399Y-133234625D01*
X181505380Y-133394790D01*
X181431664Y-133572757D01*
X181394084Y-133761685D01*
X181394084Y-133954315D01*
X181431664Y-134143243D01*
X181505380Y-134321210D01*
X181612399Y-134481375D01*
X181660801Y-134529777D01*
X181660801Y-135176877D01*
X181597537Y-135203082D01*
X181329748Y-135382013D01*
X181102013Y-135609748D01*
X181102000Y-135609767D01*
X181101987Y-135609748D01*
X180874252Y-135382013D01*
X180614790Y-135208646D01*
X180698604Y-135083210D01*
X180772320Y-134905243D01*
X180809900Y-134716315D01*
X180809900Y-134523685D01*
X180772320Y-134334757D01*
X180698604Y-134156790D01*
X180591585Y-133996625D01*
X180455375Y-133860415D01*
X180295210Y-133753396D01*
X180117243Y-133679680D01*
X179928315Y-133642100D01*
X179735685Y-133642100D01*
X179546757Y-133679680D01*
X179368790Y-133753396D01*
X179208625Y-133860415D01*
X179072415Y-133996625D01*
X178965396Y-134156790D01*
X178891680Y-134334757D01*
X178854100Y-134523685D01*
X178854100Y-134716315D01*
X178891680Y-134905243D01*
X178965396Y-135083210D01*
X179049210Y-135208646D01*
X178789748Y-135382013D01*
X178562013Y-135609748D01*
X178562000Y-135609767D01*
X178561987Y-135609748D01*
X178334252Y-135382013D01*
X178066463Y-135203082D01*
X177768912Y-135079832D01*
X177453033Y-135017000D01*
X177130967Y-135017000D01*
X176977417Y-135047543D01*
X177035585Y-134989375D01*
X177138724Y-134835017D01*
X177323243Y-134798314D01*
X177501210Y-134724598D01*
X177661375Y-134617579D01*
X177797585Y-134481369D01*
X177904604Y-134321204D01*
X177978320Y-134143237D01*
X178015900Y-133954309D01*
X178015900Y-133761679D01*
X177978320Y-133572751D01*
X177904604Y-133394784D01*
X177797585Y-133234619D01*
X177661375Y-133098409D01*
X177501210Y-132991390D01*
X177447148Y-132968997D01*
X177501210Y-132946604D01*
X177661375Y-132839585D01*
X177797585Y-132703375D01*
X177904604Y-132543210D01*
X177978320Y-132365243D01*
X178015900Y-132176315D01*
X178015900Y-131983685D01*
X177978320Y-131794757D01*
X177904604Y-131616790D01*
X177797585Y-131456625D01*
X177749200Y-131408240D01*
X177749200Y-128935685D01*
X178854100Y-128935685D01*
X178854100Y-129128315D01*
X178891680Y-129317243D01*
X178965396Y-129495210D01*
X179072415Y-129655375D01*
X179208625Y-129791585D01*
X179368790Y-129898604D01*
X179546757Y-129972320D01*
X179735685Y-130009900D01*
X179928315Y-130009900D01*
X180117243Y-129972320D01*
X180295210Y-129898604D01*
X180455375Y-129791585D01*
X180571062Y-129675898D01*
X181446240Y-129675898D01*
X181494625Y-129724283D01*
X181654790Y-129831302D01*
X181832757Y-129905018D01*
X182021685Y-129942598D01*
X182214315Y-129942598D01*
X182403243Y-129905018D01*
X182581210Y-129831302D01*
X182741375Y-129724283D01*
X182877585Y-129588073D01*
X182984604Y-129427908D01*
X183058320Y-129249941D01*
X183095900Y-129061013D01*
X183095900Y-128953480D01*
X183102757Y-128956320D01*
X183291685Y-128993900D01*
X183484315Y-128993900D01*
X183673243Y-128956320D01*
X183851210Y-128882604D01*
X184011375Y-128775585D01*
X184147585Y-128639375D01*
X184254604Y-128479210D01*
X184328320Y-128301243D01*
X184365900Y-128112315D01*
X184365900Y-127919685D01*
X184328320Y-127730757D01*
X184254604Y-127552790D01*
X184147585Y-127392625D01*
X184099200Y-127344240D01*
X184099200Y-126859000D01*
X193071928Y-126859000D01*
X193084188Y-126983482D01*
X193120498Y-127103180D01*
X193179463Y-127213494D01*
X193258815Y-127310185D01*
X193355506Y-127389537D01*
X193465820Y-127448502D01*
X193585518Y-127484812D01*
X193710000Y-127497072D01*
X194024250Y-127494000D01*
X194183000Y-127335250D01*
X194183000Y-126111000D01*
X193233750Y-126111000D01*
X193075000Y-126269750D01*
X193071928Y-126859000D01*
X184099200Y-126859000D01*
X184099200Y-126401760D01*
X184147585Y-126353375D01*
X184254604Y-126193210D01*
X184328320Y-126015243D01*
X184365900Y-125826315D01*
X184365900Y-125633685D01*
X184328320Y-125444757D01*
X184254604Y-125266790D01*
X184149172Y-125109000D01*
X193071928Y-125109000D01*
X193075000Y-125698250D01*
X193233750Y-125857000D01*
X194183000Y-125857000D01*
X194183000Y-124632750D01*
X194437000Y-124632750D01*
X194437000Y-125857000D01*
X194457000Y-125857000D01*
X194457000Y-126111000D01*
X194437000Y-126111000D01*
X194437000Y-127335250D01*
X194595750Y-127494000D01*
X194910000Y-127497072D01*
X195034482Y-127484812D01*
X195154180Y-127448502D01*
X195264494Y-127389537D01*
X195361185Y-127310185D01*
X195440537Y-127213494D01*
X195466692Y-127164563D01*
X195598801Y-127272982D01*
X195598801Y-127884239D01*
X195582415Y-127900625D01*
X195475396Y-128060790D01*
X195401680Y-128238757D01*
X195364100Y-128427685D01*
X195364100Y-128620315D01*
X195401680Y-128809243D01*
X195475396Y-128987210D01*
X195582415Y-129147375D01*
X195718625Y-129283585D01*
X195878790Y-129390604D01*
X196056757Y-129464320D01*
X196245685Y-129501900D01*
X196438315Y-129501900D01*
X196627243Y-129464320D01*
X196805210Y-129390604D01*
X196965375Y-129283585D01*
X197101585Y-129147375D01*
X197208604Y-128987210D01*
X197282320Y-128809243D01*
X197319900Y-128620315D01*
X197319900Y-128427685D01*
X197282320Y-128238757D01*
X197208604Y-128060790D01*
X197101585Y-127900625D01*
X197021200Y-127820240D01*
X197021200Y-127272982D01*
X197187502Y-127136502D01*
X197310001Y-126987237D01*
X197432499Y-127136502D01*
X197620552Y-127290833D01*
X197835100Y-127405511D01*
X198067899Y-127476130D01*
X198310000Y-127499975D01*
X198552102Y-127476130D01*
X198784901Y-127405511D01*
X198999449Y-127290833D01*
X199187502Y-127136502D01*
X199310001Y-126987237D01*
X199432499Y-127136502D01*
X199620552Y-127290833D01*
X199835100Y-127405511D01*
X200067899Y-127476130D01*
X200310000Y-127499975D01*
X200552102Y-127476130D01*
X200784901Y-127405511D01*
X200999449Y-127290833D01*
X201187502Y-127136502D01*
X201341833Y-126948449D01*
X201456511Y-126733900D01*
X201527130Y-126501101D01*
X201545000Y-126319664D01*
X201545000Y-125648335D01*
X201527130Y-125466898D01*
X201456511Y-125234099D01*
X201341833Y-125019551D01*
X201187502Y-124831498D01*
X200999448Y-124677167D01*
X200784900Y-124562489D01*
X200552101Y-124491870D01*
X200310000Y-124468025D01*
X200067898Y-124491870D01*
X199835099Y-124562489D01*
X199620551Y-124677167D01*
X199432498Y-124831498D01*
X199310000Y-124980763D01*
X199187502Y-124831498D01*
X198999448Y-124677167D01*
X198784900Y-124562489D01*
X198552101Y-124491870D01*
X198310000Y-124468025D01*
X198067898Y-124491870D01*
X197835099Y-124562489D01*
X197620551Y-124677167D01*
X197432498Y-124831498D01*
X197310000Y-124980763D01*
X197187502Y-124831498D01*
X196999448Y-124677167D01*
X196784900Y-124562489D01*
X196552101Y-124491870D01*
X196310000Y-124468025D01*
X196067898Y-124491870D01*
X195835099Y-124562489D01*
X195620551Y-124677167D01*
X195466691Y-124803436D01*
X195440537Y-124754506D01*
X195361185Y-124657815D01*
X195264494Y-124578463D01*
X195154180Y-124519498D01*
X195034482Y-124483188D01*
X194910000Y-124470928D01*
X194595750Y-124474000D01*
X194437000Y-124632750D01*
X194183000Y-124632750D01*
X194024250Y-124474000D01*
X193710000Y-124470928D01*
X193585518Y-124483188D01*
X193465820Y-124519498D01*
X193355506Y-124578463D01*
X193258815Y-124657815D01*
X193179463Y-124754506D01*
X193120498Y-124864820D01*
X193084188Y-124984518D01*
X193071928Y-125109000D01*
X184149172Y-125109000D01*
X184147585Y-125106625D01*
X184011375Y-124970415D01*
X183851210Y-124863396D01*
X183673243Y-124789680D01*
X183484315Y-124752100D01*
X183291685Y-124752100D01*
X183102757Y-124789680D01*
X182924790Y-124863396D01*
X182764625Y-124970415D01*
X182628415Y-125106625D01*
X182521396Y-125266790D01*
X182447680Y-125444757D01*
X182410100Y-125633685D01*
X182410100Y-125826315D01*
X182447680Y-126015243D01*
X182521396Y-126193210D01*
X182628415Y-126353375D01*
X182676800Y-126401760D01*
X182676801Y-127344239D01*
X182628415Y-127392625D01*
X182521396Y-127552790D01*
X182447680Y-127730757D01*
X182410100Y-127919685D01*
X182410100Y-128027218D01*
X182403243Y-128024378D01*
X182214315Y-127986798D01*
X182021685Y-127986798D01*
X181832757Y-128024378D01*
X181654790Y-128098094D01*
X181494625Y-128205113D01*
X181446240Y-128253498D01*
X180427064Y-128253498D01*
X180295210Y-128165396D01*
X180117243Y-128091680D01*
X179928315Y-128054100D01*
X179735685Y-128054100D01*
X179546757Y-128091680D01*
X179368790Y-128165396D01*
X179208625Y-128272415D01*
X179072415Y-128408625D01*
X178965396Y-128568790D01*
X178891680Y-128746757D01*
X178854100Y-128935685D01*
X177749200Y-128935685D01*
X177749200Y-128327992D01*
X177752640Y-128293066D01*
X177749200Y-128258140D01*
X177749200Y-128258131D01*
X177738909Y-128153647D01*
X177698242Y-128019586D01*
X177632202Y-127896034D01*
X177626183Y-127888700D01*
X177565597Y-127814875D01*
X177565593Y-127814871D01*
X177543327Y-127787740D01*
X177516196Y-127765474D01*
X176780534Y-127029814D01*
X176758260Y-127002673D01*
X176649966Y-126913798D01*
X176526414Y-126847758D01*
X176475175Y-126832215D01*
X176391375Y-126748415D01*
X176231210Y-126641396D01*
X176163070Y-126613172D01*
X176200320Y-126523243D01*
X176237900Y-126334315D01*
X176237900Y-126141685D01*
X176200320Y-125952757D01*
X176126604Y-125774790D01*
X176019585Y-125614625D01*
X175883375Y-125478415D01*
X175723210Y-125371396D01*
X175545243Y-125297680D01*
X175356315Y-125260100D01*
X175163685Y-125260100D01*
X174974757Y-125297680D01*
X174967256Y-125300787D01*
X174967000Y-125253750D01*
X174808250Y-125095000D01*
X173609000Y-125095000D01*
X173609000Y-125115000D01*
X173355000Y-125115000D01*
X173355000Y-125095000D01*
X172155750Y-125095000D01*
X171997000Y-125253750D01*
X171996905Y-125271118D01*
X171914091Y-125188304D01*
X171891817Y-125161163D01*
X171783523Y-125072288D01*
X171659971Y-125006248D01*
X171525910Y-124965581D01*
X171421426Y-124955290D01*
X171421416Y-124955290D01*
X171386490Y-124951850D01*
X171351564Y-124955290D01*
X170682305Y-124955290D01*
X170633920Y-124906905D01*
X170473755Y-124799886D01*
X170295788Y-124726170D01*
X170106860Y-124688590D01*
X169914230Y-124688590D01*
X169725302Y-124726170D01*
X169547335Y-124799886D01*
X169387170Y-124906905D01*
X169250960Y-125043115D01*
X169143941Y-125203280D01*
X169070225Y-125381247D01*
X169033428Y-125566236D01*
X169014604Y-125520790D01*
X168907585Y-125360625D01*
X168771375Y-125224415D01*
X168611210Y-125117396D01*
X168433243Y-125043680D01*
X168244315Y-125006100D01*
X168175888Y-125006100D01*
X167287788Y-124118000D01*
X171993928Y-124118000D01*
X171997000Y-124682250D01*
X172155750Y-124841000D01*
X173355000Y-124841000D01*
X173355000Y-123641750D01*
X173609000Y-123641750D01*
X173609000Y-124841000D01*
X174808250Y-124841000D01*
X174967000Y-124682250D01*
X174970072Y-124118000D01*
X174957812Y-123993518D01*
X174921502Y-123873820D01*
X174862537Y-123763506D01*
X174783185Y-123666815D01*
X174686494Y-123587463D01*
X174576180Y-123528498D01*
X174456482Y-123492188D01*
X174332000Y-123479928D01*
X173767750Y-123483000D01*
X173609000Y-123641750D01*
X173355000Y-123641750D01*
X173196250Y-123483000D01*
X172632000Y-123479928D01*
X172507518Y-123492188D01*
X172387820Y-123528498D01*
X172277506Y-123587463D01*
X172180815Y-123666815D01*
X172101463Y-123763506D01*
X172042498Y-123873820D01*
X172006188Y-123993518D01*
X171993928Y-124118000D01*
X167287788Y-124118000D01*
X166897602Y-123727815D01*
X166875327Y-123700673D01*
X166767033Y-123611798D01*
X166643481Y-123545758D01*
X166509420Y-123505091D01*
X166404936Y-123494800D01*
X166404926Y-123494800D01*
X166370000Y-123491360D01*
X166335074Y-123494800D01*
X164755760Y-123494800D01*
X164707375Y-123446415D01*
X164547210Y-123339396D01*
X164369243Y-123265680D01*
X164180315Y-123228100D01*
X163987685Y-123228100D01*
X163798757Y-123265680D01*
X163620790Y-123339396D01*
X163460625Y-123446415D01*
X163324415Y-123582625D01*
X163217396Y-123742790D01*
X163143680Y-123920757D01*
X163106100Y-124109685D01*
X163106100Y-124302315D01*
X163143680Y-124491243D01*
X163217396Y-124669210D01*
X163310968Y-124809250D01*
X163217396Y-124949290D01*
X163143680Y-125127257D01*
X163106100Y-125316185D01*
X163106100Y-125336310D01*
X157768928Y-125336310D01*
X157734000Y-125332870D01*
X157699071Y-125336310D01*
X157699064Y-125336310D01*
X157594580Y-125346601D01*
X157460518Y-125387268D01*
X157336967Y-125453308D01*
X157255809Y-125519912D01*
X157255804Y-125519917D01*
X157228673Y-125542183D01*
X157206407Y-125569314D01*
X156944112Y-125831610D01*
X156920216Y-125831610D01*
X156933900Y-125762815D01*
X156933900Y-125570185D01*
X156896320Y-125381257D01*
X156822604Y-125203290D01*
X156715585Y-125043125D01*
X156579375Y-124906915D01*
X156419210Y-124799896D01*
X156241243Y-124726180D01*
X156052315Y-124688600D01*
X155859685Y-124688600D01*
X155670757Y-124726180D01*
X155492790Y-124799896D01*
X155332625Y-124906915D01*
X155196415Y-125043125D01*
X155089396Y-125203290D01*
X155015680Y-125381257D01*
X154978100Y-125570185D01*
X154978100Y-125762815D01*
X155015680Y-125951743D01*
X155089396Y-126129710D01*
X155196415Y-126289875D01*
X155244800Y-126338260D01*
X155244801Y-126442560D01*
X155196415Y-126490946D01*
X155089396Y-126651111D01*
X155015680Y-126829078D01*
X154978100Y-127018006D01*
X154978100Y-127210636D01*
X155015680Y-127399564D01*
X155089396Y-127577531D01*
X155196415Y-127737696D01*
X155332625Y-127873906D01*
X155492790Y-127980925D01*
X155670757Y-128054641D01*
X155859685Y-128092221D01*
X156052315Y-128092221D01*
X156241243Y-128054641D01*
X156419210Y-127980925D01*
X156579375Y-127873906D01*
X156700681Y-127752600D01*
X156875685Y-127787410D01*
X157068315Y-127787410D01*
X157257243Y-127749830D01*
X157435210Y-127676114D01*
X157595375Y-127569095D01*
X157731585Y-127432885D01*
X157838604Y-127272720D01*
X157912320Y-127094753D01*
X157949900Y-126905825D01*
X157949900Y-126837398D01*
X158028588Y-126758710D01*
X161418330Y-126758710D01*
X161292415Y-126884625D01*
X161185396Y-127044790D01*
X161111680Y-127222757D01*
X161074100Y-127411685D01*
X161074100Y-127604315D01*
X161111680Y-127793243D01*
X161185396Y-127971210D01*
X161292415Y-128131375D01*
X161428625Y-128267585D01*
X161588790Y-128374604D01*
X161766757Y-128448320D01*
X161955685Y-128485900D01*
X162148315Y-128485900D01*
X162337243Y-128448320D01*
X162515210Y-128374604D01*
X162675375Y-128267585D01*
X162723760Y-128219200D01*
X164174238Y-128219200D01*
X164222623Y-128267585D01*
X164382788Y-128374604D01*
X164560755Y-128448320D01*
X164749683Y-128485900D01*
X164942313Y-128485900D01*
X165131241Y-128448320D01*
X165309208Y-128374604D01*
X165469373Y-128267585D01*
X165605583Y-128131375D01*
X165712602Y-127971210D01*
X165786318Y-127793243D01*
X165823898Y-127604315D01*
X165823898Y-127411685D01*
X165786318Y-127222757D01*
X165783478Y-127215900D01*
X165958315Y-127215900D01*
X166147243Y-127178320D01*
X166325210Y-127104604D01*
X166485375Y-126997585D01*
X166621585Y-126861375D01*
X166728604Y-126701210D01*
X166802320Y-126523243D01*
X166807847Y-126495457D01*
X167346086Y-127033697D01*
X167368352Y-127060828D01*
X167395483Y-127083094D01*
X167395488Y-127083099D01*
X167464116Y-127139420D01*
X167476646Y-127149703D01*
X167600198Y-127215743D01*
X167734259Y-127256410D01*
X167838743Y-127266701D01*
X167838750Y-127266701D01*
X167873679Y-127270141D01*
X167908607Y-127266701D01*
X168907511Y-127266701D01*
X168566333Y-127607880D01*
X168446790Y-127657396D01*
X168286625Y-127764415D01*
X168150415Y-127900625D01*
X168043396Y-128060790D01*
X167969680Y-128238757D01*
X167932100Y-128427685D01*
X167932100Y-128620315D01*
X167969680Y-128809243D01*
X168043396Y-128987210D01*
X168150415Y-129147375D01*
X168286625Y-129283585D01*
X168446790Y-129390604D01*
X168624757Y-129464320D01*
X168813685Y-129501900D01*
X169006315Y-129501900D01*
X169195243Y-129464320D01*
X169373210Y-129390604D01*
X169533375Y-129283585D01*
X169669585Y-129147375D01*
X169776604Y-128987210D01*
X169850320Y-128809243D01*
X169887900Y-128620315D01*
X169887900Y-128427685D01*
X169866365Y-128319422D01*
X170207888Y-127977900D01*
X170230795Y-127977900D01*
X170230794Y-130392240D01*
X170182409Y-130440625D01*
X170075390Y-130600790D01*
X170001674Y-130778757D01*
X169964094Y-130967685D01*
X169964094Y-131160315D01*
X170001674Y-131349243D01*
X170075390Y-131527210D01*
X170182409Y-131687375D01*
X170318619Y-131823585D01*
X170478784Y-131930604D01*
X170656751Y-132004320D01*
X170845679Y-132041900D01*
X171038309Y-132041900D01*
X171227237Y-132004320D01*
X171405204Y-131930604D01*
X171565369Y-131823585D01*
X171701579Y-131687375D01*
X171808598Y-131527210D01*
X171882314Y-131349243D01*
X171919894Y-131160315D01*
X171919894Y-130967685D01*
X171882314Y-130778757D01*
X171808598Y-130600790D01*
X171701579Y-130440625D01*
X171653194Y-130392240D01*
X171653194Y-126909760D01*
X171671611Y-126891343D01*
X171684519Y-126898242D01*
X171818580Y-126938909D01*
X171923064Y-126949200D01*
X171923073Y-126949200D01*
X171957999Y-126952640D01*
X171992925Y-126949200D01*
X172106110Y-126949200D01*
X172054068Y-127074842D01*
X171997000Y-127361740D01*
X171997000Y-127654260D01*
X172054068Y-127941158D01*
X172166010Y-128211411D01*
X172328525Y-128454632D01*
X172535368Y-128661475D01*
X172709760Y-128778000D01*
X172535368Y-128894525D01*
X172328525Y-129101368D01*
X172166010Y-129344589D01*
X172054068Y-129614842D01*
X171997000Y-129901740D01*
X171997000Y-130194260D01*
X172054068Y-130481158D01*
X172166010Y-130751411D01*
X172328525Y-130994632D01*
X172535368Y-131201475D01*
X172709760Y-131318000D01*
X172535368Y-131434525D01*
X172328525Y-131641368D01*
X172166010Y-131884589D01*
X172054068Y-132154842D01*
X171997000Y-132441740D01*
X171997000Y-132734260D01*
X172023692Y-132868449D01*
X171989243Y-132854180D01*
X171800315Y-132816600D01*
X171607685Y-132816600D01*
X171418757Y-132854180D01*
X171240790Y-132927896D01*
X171080625Y-133034915D01*
X171017575Y-133097965D01*
X170600924Y-132681315D01*
X170578649Y-132654173D01*
X170470355Y-132565298D01*
X170346803Y-132499258D01*
X170212742Y-132458591D01*
X170108258Y-132448300D01*
X170108248Y-132448300D01*
X170073322Y-132444860D01*
X170038396Y-132448300D01*
X163783270Y-132448300D01*
X163754320Y-132302757D01*
X163680604Y-132124790D01*
X163573585Y-131964625D01*
X163437375Y-131828415D01*
X163277210Y-131721396D01*
X163099243Y-131647680D01*
X162910315Y-131610100D01*
X162717685Y-131610100D01*
X162528757Y-131647680D01*
X162350790Y-131721396D01*
X162190625Y-131828415D01*
X162142240Y-131876800D01*
X144987270Y-131876800D01*
X144958320Y-131731257D01*
X144884604Y-131553290D01*
X144777585Y-131393125D01*
X144641375Y-131256915D01*
X144481210Y-131149896D01*
X144303243Y-131076180D01*
X144114315Y-131038600D01*
X143929857Y-131038600D01*
X143956909Y-130949420D01*
X143967200Y-130844936D01*
X143967200Y-130844919D01*
X143970639Y-130810001D01*
X143967200Y-130775083D01*
X143967200Y-130211760D01*
X144015585Y-130163375D01*
X144122604Y-130003210D01*
X144196320Y-129825243D01*
X144233900Y-129636315D01*
X144233900Y-129443685D01*
X144196320Y-129254757D01*
X144122604Y-129076790D01*
X144015585Y-128916625D01*
X143879375Y-128780415D01*
X143719210Y-128673396D01*
X143541243Y-128599680D01*
X143352315Y-128562100D01*
X143159685Y-128562100D01*
X143135704Y-128566870D01*
X143084187Y-128515353D01*
X142924022Y-128408334D01*
X142746055Y-128334618D01*
X142557127Y-128297038D01*
X142364497Y-128297038D01*
X142175569Y-128334618D01*
X141997602Y-128408334D01*
X141837437Y-128515353D01*
X141821819Y-128530971D01*
X141730000Y-128521928D01*
X138506061Y-128521928D01*
X138534604Y-128479210D01*
X138608320Y-128301243D01*
X138645900Y-128112315D01*
X138645900Y-127919685D01*
X138608320Y-127730757D01*
X138534604Y-127552790D01*
X138427585Y-127392625D01*
X138291375Y-127256415D01*
X138143616Y-127157685D01*
X143548100Y-127157685D01*
X143548100Y-127350315D01*
X143585680Y-127539243D01*
X143659396Y-127717210D01*
X143766415Y-127877375D01*
X143814800Y-127925760D01*
X143814800Y-127981074D01*
X143811360Y-128016000D01*
X143814800Y-128050926D01*
X143814800Y-128050936D01*
X143825091Y-128155420D01*
X143860582Y-128272415D01*
X143865759Y-128289481D01*
X143931798Y-128413032D01*
X143969828Y-128459371D01*
X144020674Y-128521327D01*
X144047809Y-128543596D01*
X144506407Y-129002195D01*
X144528673Y-129029327D01*
X144555804Y-129051593D01*
X144555808Y-129051597D01*
X144596326Y-129084849D01*
X144636967Y-129118202D01*
X144760519Y-129184242D01*
X144894580Y-129224909D01*
X144999064Y-129235200D01*
X144999081Y-129235200D01*
X145033999Y-129238639D01*
X145068917Y-129235200D01*
X146777074Y-129235200D01*
X146812000Y-129238640D01*
X146846926Y-129235200D01*
X146846936Y-129235200D01*
X146951420Y-129224909D01*
X147085481Y-129184242D01*
X147209033Y-129118202D01*
X147317327Y-129029327D01*
X147339601Y-129002186D01*
X148052200Y-128289589D01*
X148079326Y-128267327D01*
X148101588Y-128240201D01*
X148101598Y-128240191D01*
X148168202Y-128159033D01*
X148234242Y-128035482D01*
X148274909Y-127901420D01*
X148277175Y-127878409D01*
X148285200Y-127796936D01*
X148285200Y-127796929D01*
X148288640Y-127762000D01*
X148285200Y-127727072D01*
X148285200Y-127723900D01*
X148432315Y-127723900D01*
X148621243Y-127686320D01*
X148799210Y-127612604D01*
X148959375Y-127505585D01*
X149007760Y-127457200D01*
X151586567Y-127457200D01*
X151636409Y-127577531D01*
X151743428Y-127737696D01*
X151879638Y-127873906D01*
X152039803Y-127980925D01*
X152217770Y-128054641D01*
X152406698Y-128092221D01*
X152599328Y-128092221D01*
X152788256Y-128054641D01*
X152966223Y-127980925D01*
X153126388Y-127873906D01*
X153262598Y-127737696D01*
X153369617Y-127577531D01*
X153443333Y-127399564D01*
X153480913Y-127210636D01*
X153480913Y-127018006D01*
X153443333Y-126829078D01*
X153369617Y-126651111D01*
X153262598Y-126490946D01*
X153126388Y-126354736D01*
X152966223Y-126247717D01*
X152788256Y-126174001D01*
X152599328Y-126136421D01*
X152502957Y-126136421D01*
X152408173Y-126085758D01*
X152274112Y-126045091D01*
X152169628Y-126034800D01*
X152169618Y-126034800D01*
X152134692Y-126031360D01*
X152099766Y-126034800D01*
X149007760Y-126034800D01*
X148959375Y-125986415D01*
X148799210Y-125879396D01*
X148795636Y-125877916D01*
X148805900Y-125826315D01*
X148805900Y-125633685D01*
X148768320Y-125444757D01*
X148694604Y-125266790D01*
X148587585Y-125106625D01*
X148451375Y-124970415D01*
X148291210Y-124863396D01*
X148113243Y-124789680D01*
X147924315Y-124752100D01*
X147731685Y-124752100D01*
X147542757Y-124789680D01*
X147364790Y-124863396D01*
X147204625Y-124970415D01*
X147068415Y-125106625D01*
X146961396Y-125266790D01*
X146887680Y-125444757D01*
X146850100Y-125633685D01*
X146850100Y-125826315D01*
X146866681Y-125909673D01*
X146859360Y-125984000D01*
X146862801Y-126018936D01*
X146862800Y-126880025D01*
X146800961Y-126787476D01*
X146643524Y-126630039D01*
X146458398Y-126506341D01*
X146252696Y-126421137D01*
X146034325Y-126377700D01*
X145811675Y-126377700D01*
X145593304Y-126421137D01*
X145387602Y-126506341D01*
X145251945Y-126596985D01*
X145149375Y-126494415D01*
X144989210Y-126387396D01*
X144811243Y-126313680D01*
X144622315Y-126276100D01*
X144429685Y-126276100D01*
X144240757Y-126313680D01*
X144062790Y-126387396D01*
X143902625Y-126494415D01*
X143766415Y-126630625D01*
X143659396Y-126790790D01*
X143585680Y-126968757D01*
X143548100Y-127157685D01*
X138143616Y-127157685D01*
X138131210Y-127149396D01*
X137953243Y-127075680D01*
X137764315Y-127038100D01*
X137571685Y-127038100D01*
X137382757Y-127075680D01*
X137204790Y-127149396D01*
X137044625Y-127256415D01*
X136908415Y-127392625D01*
X136801396Y-127552790D01*
X136727680Y-127730757D01*
X136690100Y-127919685D01*
X136690100Y-128112315D01*
X136727680Y-128301243D01*
X136801396Y-128479210D01*
X136908415Y-128639375D01*
X136956801Y-128687761D01*
X136956800Y-132480907D01*
X136950790Y-132483396D01*
X136790625Y-132590415D01*
X136654415Y-132726625D01*
X136547396Y-132886790D01*
X136473680Y-133064757D01*
X136436100Y-133253685D01*
X136436100Y-133446315D01*
X136473680Y-133635243D01*
X136547396Y-133813210D01*
X136654415Y-133973375D01*
X136790625Y-134109585D01*
X136950790Y-134216604D01*
X137128757Y-134290320D01*
X137317685Y-134327900D01*
X137510315Y-134327900D01*
X137699243Y-134290320D01*
X137877210Y-134216604D01*
X138037375Y-134109585D01*
X138173585Y-133973375D01*
X138280604Y-133813210D01*
X138354320Y-133635243D01*
X138391900Y-133446315D01*
X138391900Y-133253685D01*
X138375320Y-133170331D01*
X138379200Y-133130936D01*
X138379200Y-133130927D01*
X138382436Y-133098072D01*
X140997689Y-133098072D01*
X140997688Y-133671128D01*
X140949303Y-133719513D01*
X140842284Y-133879678D01*
X140768568Y-134057645D01*
X140730988Y-134246573D01*
X140730988Y-134439203D01*
X140768568Y-134628131D01*
X140842284Y-134806098D01*
X140949303Y-134966263D01*
X141085513Y-135102473D01*
X141245678Y-135209492D01*
X141423645Y-135283208D01*
X141612573Y-135320788D01*
X141805203Y-135320788D01*
X141994131Y-135283208D01*
X142172098Y-135209492D01*
X142332263Y-135102473D01*
X142468473Y-134966263D01*
X142575492Y-134806098D01*
X142598930Y-134749514D01*
X142716757Y-134798320D01*
X142905685Y-134835900D01*
X143098315Y-134835900D01*
X143287243Y-134798320D01*
X143465210Y-134724604D01*
X143625375Y-134617585D01*
X143673760Y-134569200D01*
X146902240Y-134569200D01*
X146950625Y-134617585D01*
X147110790Y-134724604D01*
X147288757Y-134798320D01*
X147477685Y-134835900D01*
X147670315Y-134835900D01*
X147859243Y-134798320D01*
X148037210Y-134724604D01*
X148197375Y-134617585D01*
X148333585Y-134481375D01*
X148440604Y-134321210D01*
X148514320Y-134143243D01*
X148551900Y-133954315D01*
X148551900Y-133761685D01*
X148514320Y-133572757D01*
X148440604Y-133394790D01*
X148376733Y-133299200D01*
X151602267Y-133299200D01*
X151522625Y-133352415D01*
X151386415Y-133488625D01*
X151279396Y-133648790D01*
X151205680Y-133826757D01*
X151168100Y-134015685D01*
X151168100Y-134208315D01*
X151205680Y-134397243D01*
X151279396Y-134575210D01*
X151386415Y-134735375D01*
X151522625Y-134871585D01*
X151682790Y-134978604D01*
X151860757Y-135052320D01*
X152049685Y-135089900D01*
X152242315Y-135089900D01*
X152431243Y-135052320D01*
X152555828Y-135000715D01*
X152618708Y-135152522D01*
X152725727Y-135312687D01*
X152861937Y-135448897D01*
X153022102Y-135555916D01*
X153200069Y-135629632D01*
X153388997Y-135667212D01*
X153581627Y-135667212D01*
X153770555Y-135629632D01*
X153948522Y-135555916D01*
X154108687Y-135448897D01*
X154244897Y-135312687D01*
X154274591Y-135268248D01*
X154335685Y-135280400D01*
X154404113Y-135280400D01*
X156507903Y-137384191D01*
X156530173Y-137411327D01*
X156638467Y-137500202D01*
X156762019Y-137566242D01*
X156896080Y-137606909D01*
X157000564Y-137617200D01*
X157000573Y-137617200D01*
X157035499Y-137620640D01*
X157070425Y-137617200D01*
X157824240Y-137617200D01*
X157872625Y-137665585D01*
X158028893Y-137770000D01*
X100990000Y-137770000D01*
X100990000Y-128123740D01*
X101385000Y-128123740D01*
X101385000Y-128416260D01*
X101442068Y-128703158D01*
X101554010Y-128973411D01*
X101716525Y-129216632D01*
X101923368Y-129423475D01*
X102097760Y-129540000D01*
X101923368Y-129656525D01*
X101716525Y-129863368D01*
X101554010Y-130106589D01*
X101442068Y-130376842D01*
X101385000Y-130663740D01*
X101385000Y-130956260D01*
X101442068Y-131243158D01*
X101554010Y-131513411D01*
X101716525Y-131756632D01*
X101923368Y-131963475D01*
X102097760Y-132080000D01*
X101923368Y-132196525D01*
X101716525Y-132403368D01*
X101554010Y-132646589D01*
X101442068Y-132916842D01*
X101385000Y-133203740D01*
X101385000Y-133496260D01*
X101442068Y-133783158D01*
X101554010Y-134053411D01*
X101716525Y-134296632D01*
X101923368Y-134503475D01*
X102097760Y-134620000D01*
X101923368Y-134736525D01*
X101716525Y-134943368D01*
X101554010Y-135186589D01*
X101442068Y-135456842D01*
X101385000Y-135743740D01*
X101385000Y-136036260D01*
X101442068Y-136323158D01*
X101554010Y-136593411D01*
X101716525Y-136836632D01*
X101923368Y-137043475D01*
X102166589Y-137205990D01*
X102436842Y-137317932D01*
X102723740Y-137375000D01*
X103016260Y-137375000D01*
X103303158Y-137317932D01*
X103573411Y-137205990D01*
X103816632Y-137043475D01*
X104023475Y-136836632D01*
X104185990Y-136593411D01*
X104297932Y-136323158D01*
X104355000Y-136036260D01*
X104355000Y-135743740D01*
X104297932Y-135456842D01*
X104185990Y-135186589D01*
X104023475Y-134943368D01*
X103816632Y-134736525D01*
X103642240Y-134620000D01*
X103816632Y-134503475D01*
X104023475Y-134296632D01*
X104185990Y-134053411D01*
X104201616Y-134015685D01*
X104940100Y-134015685D01*
X104940100Y-134208315D01*
X104977680Y-134397243D01*
X105051396Y-134575210D01*
X105158415Y-134735375D01*
X105294625Y-134871585D01*
X105454790Y-134978604D01*
X105632757Y-135052320D01*
X105821685Y-135089900D01*
X106014315Y-135089900D01*
X106203243Y-135052320D01*
X106381210Y-134978604D01*
X106541375Y-134871585D01*
X106589760Y-134823200D01*
X107278240Y-134823200D01*
X107326625Y-134871585D01*
X107486790Y-134978604D01*
X107664757Y-135052320D01*
X107853685Y-135089900D01*
X108046315Y-135089900D01*
X108235243Y-135052320D01*
X108413210Y-134978604D01*
X108573375Y-134871585D01*
X108709585Y-134735375D01*
X108816604Y-134575210D01*
X108890320Y-134397243D01*
X108927900Y-134208315D01*
X108927900Y-134015685D01*
X108894669Y-133848623D01*
X109016725Y-133766307D01*
X109188078Y-133593474D01*
X109322421Y-133390533D01*
X109414591Y-133165282D01*
X109418462Y-133127609D01*
X109293731Y-132937000D01*
X108077000Y-132937000D01*
X108077000Y-132957000D01*
X107823000Y-132957000D01*
X107823000Y-132937000D01*
X106606269Y-132937000D01*
X106481538Y-133127609D01*
X106485409Y-133165282D01*
X106576253Y-133387293D01*
X106541375Y-133352415D01*
X106381210Y-133245396D01*
X106203243Y-133171680D01*
X106014315Y-133134100D01*
X105821685Y-133134100D01*
X105632757Y-133171680D01*
X105454790Y-133245396D01*
X105294625Y-133352415D01*
X105158415Y-133488625D01*
X105051396Y-133648790D01*
X104977680Y-133826757D01*
X104940100Y-134015685D01*
X104201616Y-134015685D01*
X104297932Y-133783158D01*
X104355000Y-133496260D01*
X104355000Y-133203740D01*
X104297932Y-132916842D01*
X104185990Y-132646589D01*
X104023475Y-132403368D01*
X103816632Y-132196525D01*
X103642240Y-132080000D01*
X103816632Y-131963475D01*
X104023475Y-131756632D01*
X104185990Y-131513411D01*
X104297932Y-131243158D01*
X104355000Y-130956260D01*
X104355000Y-130663740D01*
X104297932Y-130376842D01*
X104185990Y-130106589D01*
X104023475Y-129863368D01*
X103816632Y-129656525D01*
X103642240Y-129540000D01*
X103816632Y-129423475D01*
X104023475Y-129216632D01*
X104185990Y-128973411D01*
X104201616Y-128935685D01*
X105194100Y-128935685D01*
X105194100Y-129128315D01*
X105231680Y-129317243D01*
X105305396Y-129495210D01*
X105412415Y-129655375D01*
X105548625Y-129791585D01*
X105708790Y-129898604D01*
X105886757Y-129972320D01*
X106075685Y-130009900D01*
X106268315Y-130009900D01*
X106457243Y-129972320D01*
X106635210Y-129898604D01*
X106651149Y-129887954D01*
X106586595Y-129966613D01*
X106504528Y-130120149D01*
X106453992Y-130286745D01*
X106436928Y-130459999D01*
X106436928Y-131160001D01*
X106453992Y-131333255D01*
X106504528Y-131499851D01*
X106586595Y-131653387D01*
X106697038Y-131787962D01*
X106831613Y-131898405D01*
X106836406Y-131900967D01*
X106711922Y-132026526D01*
X106577579Y-132229467D01*
X106485409Y-132454718D01*
X106481538Y-132492391D01*
X106606269Y-132683000D01*
X107823000Y-132683000D01*
X107823000Y-132663000D01*
X108077000Y-132663000D01*
X108077000Y-132683000D01*
X109293731Y-132683000D01*
X109418462Y-132492391D01*
X109414591Y-132454718D01*
X109322421Y-132229467D01*
X109188078Y-132026526D01*
X109063594Y-131900967D01*
X109068387Y-131898405D01*
X109202962Y-131787962D01*
X109313405Y-131653387D01*
X109395472Y-131499851D01*
X109446008Y-131333255D01*
X109463072Y-131160001D01*
X109463072Y-130459999D01*
X109446008Y-130286745D01*
X109395472Y-130120149D01*
X109313405Y-129966613D01*
X109202962Y-129832038D01*
X109094713Y-129743200D01*
X112156574Y-129743200D01*
X112191500Y-129746640D01*
X112226426Y-129743200D01*
X112226436Y-129743200D01*
X112330920Y-129732909D01*
X112464981Y-129692242D01*
X112588533Y-129626202D01*
X112696827Y-129537327D01*
X112719102Y-129510185D01*
X113069287Y-129160000D01*
X121791928Y-129160000D01*
X121791928Y-132460000D01*
X121804188Y-132584482D01*
X121840498Y-132704180D01*
X121899463Y-132814494D01*
X121978815Y-132911185D01*
X122075506Y-132990537D01*
X122185820Y-133049502D01*
X122305518Y-133085812D01*
X122430000Y-133098072D01*
X125930000Y-133098072D01*
X126054482Y-133085812D01*
X126174180Y-133049502D01*
X126242192Y-133013148D01*
X130056457Y-133013148D01*
X130332627Y-133431118D01*
X130877557Y-133721649D01*
X131468696Y-133900287D01*
X132083328Y-133960168D01*
X132697831Y-133898990D01*
X133288592Y-133719103D01*
X133827373Y-133431118D01*
X134103543Y-133013148D01*
X132080000Y-130989605D01*
X130056457Y-133013148D01*
X126242192Y-133013148D01*
X126284494Y-132990537D01*
X126381185Y-132911185D01*
X126460537Y-132814494D01*
X126519502Y-132704180D01*
X126555812Y-132584482D01*
X126568072Y-132460000D01*
X126568072Y-130813328D01*
X128929832Y-130813328D01*
X128991010Y-131427831D01*
X129170897Y-132018592D01*
X129458882Y-132557373D01*
X129876852Y-132833543D01*
X131900395Y-130810000D01*
X132259605Y-130810000D01*
X134283148Y-132833543D01*
X134701118Y-132557373D01*
X134991649Y-132012443D01*
X135170287Y-131421304D01*
X135230168Y-130806672D01*
X135168990Y-130192169D01*
X134989103Y-129601408D01*
X134701118Y-129062627D01*
X134283148Y-128786457D01*
X132259605Y-130810000D01*
X131900395Y-130810000D01*
X129876852Y-128786457D01*
X129458882Y-129062627D01*
X129168351Y-129607557D01*
X128989713Y-130198696D01*
X128929832Y-130813328D01*
X126568072Y-130813328D01*
X126568072Y-129160000D01*
X126555812Y-129035518D01*
X126519502Y-128915820D01*
X126460537Y-128805506D01*
X126381185Y-128708815D01*
X126284494Y-128629463D01*
X126242193Y-128606852D01*
X130056457Y-128606852D01*
X132080000Y-130630395D01*
X134103543Y-128606852D01*
X133827373Y-128188882D01*
X133282443Y-127898351D01*
X132691304Y-127719713D01*
X132076672Y-127659832D01*
X131462169Y-127721010D01*
X130871408Y-127900897D01*
X130332627Y-128188882D01*
X130056457Y-128606852D01*
X126242193Y-128606852D01*
X126174180Y-128570498D01*
X126054482Y-128534188D01*
X125930000Y-128521928D01*
X122430000Y-128521928D01*
X122305518Y-128534188D01*
X122185820Y-128570498D01*
X122075506Y-128629463D01*
X121978815Y-128708815D01*
X121899463Y-128805506D01*
X121840498Y-128915820D01*
X121804188Y-129035518D01*
X121791928Y-129160000D01*
X113069287Y-129160000D01*
X114073888Y-128155400D01*
X114142315Y-128155400D01*
X114331243Y-128117820D01*
X114509210Y-128044104D01*
X114669375Y-127937085D01*
X114805585Y-127800875D01*
X114912604Y-127640710D01*
X114986320Y-127462743D01*
X115023900Y-127273815D01*
X115023900Y-127081185D01*
X118148100Y-127081185D01*
X118148100Y-127273815D01*
X118185680Y-127462743D01*
X118259396Y-127640710D01*
X118366415Y-127800875D01*
X118502625Y-127937085D01*
X118662790Y-128044104D01*
X118840757Y-128117820D01*
X119029685Y-128155400D01*
X119222315Y-128155400D01*
X119411243Y-128117820D01*
X119589210Y-128044104D01*
X119749375Y-127937085D01*
X119797760Y-127888700D01*
X121199574Y-127888700D01*
X121234500Y-127892140D01*
X121269426Y-127888700D01*
X121269436Y-127888700D01*
X121373920Y-127878409D01*
X121507981Y-127837742D01*
X121631533Y-127771702D01*
X121689780Y-127723900D01*
X121762315Y-127723900D01*
X121951243Y-127686320D01*
X122129210Y-127612604D01*
X122289375Y-127505585D01*
X122425585Y-127369375D01*
X122532604Y-127209210D01*
X122606320Y-127031243D01*
X122643900Y-126842315D01*
X122643900Y-126649685D01*
X122606320Y-126460757D01*
X122532604Y-126282790D01*
X122425585Y-126122625D01*
X122289375Y-125986415D01*
X122129210Y-125879396D01*
X121951243Y-125805680D01*
X121762315Y-125768100D01*
X121569685Y-125768100D01*
X121380757Y-125805680D01*
X121202790Y-125879396D01*
X121042625Y-125986415D01*
X120906415Y-126122625D01*
X120799396Y-126282790D01*
X120725680Y-126460757D01*
X120724577Y-126466300D01*
X119797760Y-126466300D01*
X119749375Y-126417915D01*
X119589210Y-126310896D01*
X119411243Y-126237180D01*
X119222315Y-126199600D01*
X119029685Y-126199600D01*
X118840757Y-126237180D01*
X118662790Y-126310896D01*
X118502625Y-126417915D01*
X118366415Y-126554125D01*
X118259396Y-126714290D01*
X118185680Y-126892257D01*
X118148100Y-127081185D01*
X115023900Y-127081185D01*
X114986320Y-126892257D01*
X114912604Y-126714290D01*
X114823375Y-126580750D01*
X114912604Y-126447210D01*
X114986320Y-126269243D01*
X115023900Y-126080315D01*
X115023900Y-125887685D01*
X114986320Y-125698757D01*
X114912604Y-125520790D01*
X114805585Y-125360625D01*
X114669375Y-125224415D01*
X114509210Y-125117396D01*
X114331243Y-125043680D01*
X114142315Y-125006100D01*
X113949685Y-125006100D01*
X113841423Y-125027635D01*
X112923473Y-124109685D01*
X132372100Y-124109685D01*
X132372100Y-124302315D01*
X132409680Y-124491243D01*
X132483396Y-124669210D01*
X132590415Y-124829375D01*
X132726625Y-124965585D01*
X132886790Y-125072604D01*
X133064757Y-125146320D01*
X133234468Y-125180078D01*
X134516585Y-126462196D01*
X134538851Y-126489327D01*
X134565982Y-126511593D01*
X134565987Y-126511598D01*
X134626633Y-126561368D01*
X134647145Y-126578202D01*
X134770697Y-126644242D01*
X134904758Y-126684909D01*
X135009242Y-126695200D01*
X135009249Y-126695200D01*
X135044178Y-126698640D01*
X135079106Y-126695200D01*
X135472240Y-126695200D01*
X135520625Y-126743585D01*
X135680790Y-126850604D01*
X135858757Y-126924320D01*
X136047685Y-126961900D01*
X136240315Y-126961900D01*
X136429243Y-126924320D01*
X136607210Y-126850604D01*
X136767375Y-126743585D01*
X136903585Y-126607375D01*
X137010604Y-126447210D01*
X137084320Y-126269243D01*
X137121900Y-126080315D01*
X137121900Y-125887685D01*
X137111636Y-125836084D01*
X137115210Y-125834604D01*
X137275375Y-125727585D01*
X137411585Y-125591375D01*
X137518604Y-125431210D01*
X137592320Y-125253243D01*
X137629900Y-125064315D01*
X137629900Y-124871685D01*
X137592320Y-124682757D01*
X137518604Y-124504790D01*
X137411585Y-124344625D01*
X137275375Y-124208415D01*
X137115210Y-124101396D01*
X136937243Y-124027680D01*
X136748315Y-123990100D01*
X136555685Y-123990100D01*
X136366757Y-124027680D01*
X136188790Y-124101396D01*
X136028625Y-124208415D01*
X135980240Y-124256800D01*
X135545760Y-124256800D01*
X135497375Y-124208415D01*
X135337210Y-124101396D01*
X135159243Y-124027680D01*
X134970315Y-123990100D01*
X134777685Y-123990100D01*
X134588757Y-124027680D01*
X134410790Y-124101396D01*
X134327900Y-124156781D01*
X134327900Y-124109685D01*
X134290320Y-123920757D01*
X134216604Y-123742790D01*
X134109585Y-123582625D01*
X133973375Y-123446415D01*
X133813210Y-123339396D01*
X133635243Y-123265680D01*
X133446315Y-123228100D01*
X133253685Y-123228100D01*
X133064757Y-123265680D01*
X132886790Y-123339396D01*
X132726625Y-123446415D01*
X132590415Y-123582625D01*
X132483396Y-123742790D01*
X132409680Y-123920757D01*
X132372100Y-124109685D01*
X112923473Y-124109685D01*
X112483900Y-123670113D01*
X112483900Y-123601685D01*
X112446320Y-123412757D01*
X112372604Y-123234790D01*
X112265585Y-123074625D01*
X112129375Y-122938415D01*
X111969210Y-122831396D01*
X111791243Y-122757680D01*
X111602315Y-122720100D01*
X111409685Y-122720100D01*
X111220757Y-122757680D01*
X111042790Y-122831396D01*
X110882625Y-122938415D01*
X110746415Y-123074625D01*
X110639396Y-123234790D01*
X110565680Y-123412757D01*
X110528100Y-123601685D01*
X110528100Y-123794315D01*
X110565680Y-123983243D01*
X110639396Y-124161210D01*
X110746415Y-124321375D01*
X110882625Y-124457585D01*
X111042790Y-124564604D01*
X111220757Y-124638320D01*
X111409685Y-124675900D01*
X111478113Y-124675900D01*
X113129881Y-126327670D01*
X113179396Y-126447210D01*
X113268625Y-126580750D01*
X113179396Y-126714290D01*
X113105680Y-126892257D01*
X113068100Y-127081185D01*
X113068100Y-127149612D01*
X111943745Y-128273967D01*
X111975900Y-128112315D01*
X111975900Y-127919685D01*
X111938320Y-127730757D01*
X111864604Y-127552790D01*
X111757585Y-127392625D01*
X111709200Y-127344240D01*
X111709200Y-126655760D01*
X111757585Y-126607375D01*
X111864604Y-126447210D01*
X111938320Y-126269243D01*
X111975900Y-126080315D01*
X111975900Y-125887685D01*
X111938320Y-125698757D01*
X111864604Y-125520790D01*
X111757585Y-125360625D01*
X111621375Y-125224415D01*
X111461210Y-125117396D01*
X111283243Y-125043680D01*
X111094315Y-125006100D01*
X110901685Y-125006100D01*
X110712757Y-125043680D01*
X110534790Y-125117396D01*
X110477978Y-125155356D01*
X110424494Y-125111463D01*
X110314180Y-125052498D01*
X110194482Y-125016188D01*
X110070000Y-125003928D01*
X108991716Y-125003928D01*
X108419900Y-124432112D01*
X108419900Y-124363685D01*
X108382320Y-124174757D01*
X108308604Y-123996790D01*
X108201585Y-123836625D01*
X108065375Y-123700415D01*
X107905210Y-123593396D01*
X107727243Y-123519680D01*
X107538315Y-123482100D01*
X107345685Y-123482100D01*
X107156757Y-123519680D01*
X106978790Y-123593396D01*
X106818625Y-123700415D01*
X106682415Y-123836625D01*
X106575396Y-123996790D01*
X106501680Y-124174757D01*
X106464100Y-124363685D01*
X106464100Y-124556315D01*
X106501680Y-124745243D01*
X106575396Y-124923210D01*
X106631383Y-125007000D01*
X106533740Y-125007000D01*
X106246842Y-125064068D01*
X105976589Y-125176010D01*
X105733368Y-125338525D01*
X105526525Y-125545368D01*
X105364010Y-125788589D01*
X105252068Y-126058842D01*
X105195000Y-126345740D01*
X105195000Y-126638260D01*
X105252068Y-126925158D01*
X105364010Y-127195411D01*
X105526525Y-127438632D01*
X105733368Y-127645475D01*
X105976589Y-127807990D01*
X106246842Y-127919932D01*
X106533740Y-127977000D01*
X106826260Y-127977000D01*
X107113158Y-127919932D01*
X107383411Y-127807990D01*
X107626632Y-127645475D01*
X107758487Y-127513620D01*
X107780498Y-127586180D01*
X107839463Y-127696494D01*
X107918815Y-127793185D01*
X108015506Y-127872537D01*
X108125820Y-127931502D01*
X108245518Y-127967812D01*
X108370000Y-127980072D01*
X110020100Y-127980072D01*
X110020100Y-128112315D01*
X110057680Y-128301243D01*
X110065781Y-128320800D01*
X106843760Y-128320800D01*
X106795375Y-128272415D01*
X106635210Y-128165396D01*
X106457243Y-128091680D01*
X106268315Y-128054100D01*
X106075685Y-128054100D01*
X105886757Y-128091680D01*
X105708790Y-128165396D01*
X105548625Y-128272415D01*
X105412415Y-128408625D01*
X105305396Y-128568790D01*
X105231680Y-128746757D01*
X105194100Y-128935685D01*
X104201616Y-128935685D01*
X104297932Y-128703158D01*
X104355000Y-128416260D01*
X104355000Y-128123740D01*
X104297932Y-127836842D01*
X104185990Y-127566589D01*
X104023475Y-127323368D01*
X103816632Y-127116525D01*
X103634466Y-126994805D01*
X103751355Y-126925178D01*
X103967588Y-126730269D01*
X104141641Y-126496920D01*
X104266825Y-126234099D01*
X104311476Y-126086890D01*
X104190155Y-125857000D01*
X102997000Y-125857000D01*
X102997000Y-125877000D01*
X102743000Y-125877000D01*
X102743000Y-125857000D01*
X101549845Y-125857000D01*
X101428524Y-126086890D01*
X101473175Y-126234099D01*
X101598359Y-126496920D01*
X101772412Y-126730269D01*
X101988645Y-126925178D01*
X102105534Y-126994805D01*
X101923368Y-127116525D01*
X101716525Y-127323368D01*
X101554010Y-127566589D01*
X101442068Y-127836842D01*
X101385000Y-128123740D01*
X100990000Y-128123740D01*
X100990000Y-124040000D01*
X101381928Y-124040000D01*
X101394188Y-124164482D01*
X101430498Y-124284180D01*
X101489463Y-124394494D01*
X101568815Y-124491185D01*
X101665506Y-124570537D01*
X101775820Y-124629502D01*
X101856466Y-124653966D01*
X101772412Y-124729731D01*
X101598359Y-124963080D01*
X101473175Y-125225901D01*
X101428524Y-125373110D01*
X101549845Y-125603000D01*
X102743000Y-125603000D01*
X102743000Y-123317000D01*
X102997000Y-123317000D01*
X102997000Y-125603000D01*
X104190155Y-125603000D01*
X104311476Y-125373110D01*
X104266825Y-125225901D01*
X104141641Y-124963080D01*
X103967588Y-124729731D01*
X103883534Y-124653966D01*
X103964180Y-124629502D01*
X104074494Y-124570537D01*
X104171185Y-124491185D01*
X104250537Y-124394494D01*
X104309502Y-124284180D01*
X104345812Y-124164482D01*
X104358072Y-124040000D01*
X104355000Y-123475750D01*
X104196250Y-123317000D01*
X102997000Y-123317000D01*
X102743000Y-123317000D01*
X101543750Y-123317000D01*
X101385000Y-123475750D01*
X101381928Y-124040000D01*
X100990000Y-124040000D01*
X100990000Y-122340000D01*
X101381928Y-122340000D01*
X101385000Y-122904250D01*
X101543750Y-123063000D01*
X102743000Y-123063000D01*
X102743000Y-121863750D01*
X102997000Y-121863750D01*
X102997000Y-123063000D01*
X104196250Y-123063000D01*
X104355000Y-122904250D01*
X104358072Y-122340000D01*
X104345812Y-122215518D01*
X104309502Y-122095820D01*
X104250537Y-121985506D01*
X104171185Y-121888815D01*
X104074494Y-121809463D01*
X103964180Y-121750498D01*
X103844482Y-121714188D01*
X103720000Y-121701928D01*
X103155750Y-121705000D01*
X102997000Y-121863750D01*
X102743000Y-121863750D01*
X102584250Y-121705000D01*
X102020000Y-121701928D01*
X101895518Y-121714188D01*
X101775820Y-121750498D01*
X101665506Y-121809463D01*
X101568815Y-121888815D01*
X101489463Y-121985506D01*
X101430498Y-122095820D01*
X101394188Y-122215518D01*
X101381928Y-122340000D01*
X100990000Y-122340000D01*
X100990000Y-121310000D01*
X142764441Y-121310000D01*
X142737894Y-121336547D01*
G37*
%TD.AperFunction*%
D19*
X160158625Y-133919085D02*
X160318790Y-134026104D01*
X160496757Y-134099820D01*
X160685685Y-134137400D01*
X160878315Y-134137400D01*
X161067243Y-134099820D01*
X161245210Y-134026104D01*
X161405375Y-133919085D01*
X161453760Y-133870700D01*
X168064838Y-133870700D01*
X168043396Y-133902790D01*
X168014848Y-133971710D01*
X167978584Y-133964497D01*
X167785954Y-133964497D01*
X167597026Y-134002077D01*
X167419059Y-134075793D01*
X167258894Y-134182812D01*
X167122684Y-134319022D01*
X167015665Y-134479187D01*
X166941949Y-134657154D01*
X166904369Y-134846082D01*
X166904369Y-135038712D01*
X166941949Y-135227640D01*
X167015665Y-135405607D01*
X167108196Y-135544089D01*
X167062632Y-135498525D01*
X166819411Y-135336010D01*
X166549158Y-135224068D01*
X166262260Y-135167000D01*
X165969740Y-135167000D01*
X165682842Y-135224068D01*
X165412589Y-135336010D01*
X165169368Y-135498525D01*
X164962525Y-135705368D01*
X164846000Y-135879760D01*
X164729475Y-135705368D01*
X164522632Y-135498525D01*
X164279411Y-135336010D01*
X164009158Y-135224068D01*
X163722260Y-135167000D01*
X163429740Y-135167000D01*
X163142842Y-135224068D01*
X162872589Y-135336010D01*
X162629368Y-135498525D01*
X162497513Y-135630380D01*
X162475502Y-135557820D01*
X162416537Y-135447506D01*
X162337185Y-135350815D01*
X162240494Y-135271463D01*
X162130180Y-135212498D01*
X162010482Y-135176188D01*
X161886000Y-135163928D01*
X161321750Y-135167000D01*
X161163000Y-135325750D01*
X161163000Y-136525000D01*
X161183000Y-136525000D01*
X161183000Y-136779000D01*
X161163000Y-136779000D01*
X161163000Y-136799000D01*
X160909000Y-136799000D01*
X160909000Y-136779000D01*
X159709750Y-136779000D01*
X159551000Y-136937750D01*
X159547928Y-137502000D01*
X159560188Y-137626482D01*
X159596498Y-137746180D01*
X159609230Y-137770000D01*
X158963107Y-137770000D01*
X159119375Y-137665585D01*
X159255585Y-137529375D01*
X159362604Y-137369210D01*
X159436320Y-137191243D01*
X159473900Y-137002315D01*
X159473900Y-136809685D01*
X159437380Y-136626087D01*
X159482203Y-136626087D01*
X159671131Y-136588507D01*
X159824451Y-136525000D01*
X160909000Y-136525000D01*
X160909000Y-135325750D01*
X160750250Y-135167000D01*
X160238619Y-135164214D01*
X160145473Y-135024812D01*
X160097088Y-134976427D01*
X160097088Y-133857548D01*
X160158625Y-133919085D01*
%TA.AperFunction,Conductor*%
D20*
G36*
X160158625Y-133919085D02*
G01*
X160318790Y-134026104D01*
X160496757Y-134099820D01*
X160685685Y-134137400D01*
X160878315Y-134137400D01*
X161067243Y-134099820D01*
X161245210Y-134026104D01*
X161405375Y-133919085D01*
X161453760Y-133870700D01*
X168064838Y-133870700D01*
X168043396Y-133902790D01*
X168014848Y-133971710D01*
X167978584Y-133964497D01*
X167785954Y-133964497D01*
X167597026Y-134002077D01*
X167419059Y-134075793D01*
X167258894Y-134182812D01*
X167122684Y-134319022D01*
X167015665Y-134479187D01*
X166941949Y-134657154D01*
X166904369Y-134846082D01*
X166904369Y-135038712D01*
X166941949Y-135227640D01*
X167015665Y-135405607D01*
X167108196Y-135544089D01*
X167062632Y-135498525D01*
X166819411Y-135336010D01*
X166549158Y-135224068D01*
X166262260Y-135167000D01*
X165969740Y-135167000D01*
X165682842Y-135224068D01*
X165412589Y-135336010D01*
X165169368Y-135498525D01*
X164962525Y-135705368D01*
X164846000Y-135879760D01*
X164729475Y-135705368D01*
X164522632Y-135498525D01*
X164279411Y-135336010D01*
X164009158Y-135224068D01*
X163722260Y-135167000D01*
X163429740Y-135167000D01*
X163142842Y-135224068D01*
X162872589Y-135336010D01*
X162629368Y-135498525D01*
X162497513Y-135630380D01*
X162475502Y-135557820D01*
X162416537Y-135447506D01*
X162337185Y-135350815D01*
X162240494Y-135271463D01*
X162130180Y-135212498D01*
X162010482Y-135176188D01*
X161886000Y-135163928D01*
X161321750Y-135167000D01*
X161163000Y-135325750D01*
X161163000Y-136525000D01*
X161183000Y-136525000D01*
X161183000Y-136779000D01*
X161163000Y-136779000D01*
X161163000Y-136799000D01*
X160909000Y-136799000D01*
X160909000Y-136779000D01*
X159709750Y-136779000D01*
X159551000Y-136937750D01*
X159547928Y-137502000D01*
X159560188Y-137626482D01*
X159596498Y-137746180D01*
X159609230Y-137770000D01*
X158963107Y-137770000D01*
X159119375Y-137665585D01*
X159255585Y-137529375D01*
X159362604Y-137369210D01*
X159436320Y-137191243D01*
X159473900Y-137002315D01*
X159473900Y-136809685D01*
X159437380Y-136626087D01*
X159482203Y-136626087D01*
X159671131Y-136588507D01*
X159824451Y-136525000D01*
X160909000Y-136525000D01*
X160909000Y-135325750D01*
X160750250Y-135167000D01*
X160238619Y-135164214D01*
X160145473Y-135024812D01*
X160097088Y-134976427D01*
X160097088Y-133857548D01*
X160158625Y-133919085D01*
G37*
%TD.AperFunction*%
%TD*%
M02*
