M48
; DRILL file {KiCad (5.1.10)-1} date 07/01/21 22:04:37
; FORMAT={-:-/ absolute / inch / decimal}
; #@! TF.CreationDate,2021-07-01T22:04:37-07:00
; #@! TF.GenerationSoftware,Kicad,Pcbnew,(5.1.10)-1
; #@! TF.FileFunction,Plated,1,2,PTH
FMAT,2
INCH
T1C0.0130
T2C0.0295
T3C0.0394
%
G90
G05
T1
X4.17Y-5.28
X4.18Y-5.08
X4.23Y-4.9
X4.25Y-5.28
X4.37Y-4.96
X4.37Y-5.04
X4.39Y-4.87
X4.44Y-4.87
X4.49Y-4.96
X4.49Y-5.007
X4.51Y-5.39
X4.69Y-5.007
X4.7Y-4.89
X4.7Y-5.08
X4.71Y-5.41
X4.79Y-4.99
X4.92Y-5.4
X4.93Y-4.84
X4.93Y-5.19
X5.0Y-5.04
X5.25Y-4.84
X5.25Y-4.89
X5.31Y-4.92
X5.36Y-4.96
X5.38Y-4.92
X5.39Y-5.4
X5.41Y-5.25
X5.42Y-5.04
X5.51Y-5.38
X5.5791Y-5.2891
X5.6087Y-5.0896
X5.62Y-5.17
X5.63Y-5.27
X5.64Y-5.1
X5.644Y-4.85
X5.6495Y-4.8016
X5.65Y-4.93
X5.67Y-5.1975
X5.69Y-5.01
X5.6901Y-4.8899
X5.746Y-4.82
X5.81Y-5.27
X5.82Y-4.95
X5.84Y-4.99
X5.86Y-4.81
X5.94Y-4.88
X5.99Y-5.28
X6.0041Y-5.0045
X6.0427Y-5.3027
X6.08Y-4.9475
X6.08Y-5.2875
X6.119Y-5.28
X6.12Y-4.84
X6.14Y-4.9475
X6.14Y-5.0045
X6.152Y-5.2795
X6.17Y-5.31
X6.18Y-4.9925
X6.2Y-5.1
X6.24Y-5.32
X6.24Y-5.39
X6.25Y-4.85
X6.2525Y-5.28
X6.275Y-5.3405
X6.33Y-5.2425
X6.344Y-5.106
X6.35Y-4.92
X6.38Y-5.02
X6.41Y-4.99
X6.41Y-5.22
X6.46Y-4.89
X6.46Y-4.9375
X6.49Y-5.02
X6.4905Y-4.987
X6.53Y-4.97
X6.6Y-5.07
X6.6095Y-5.3127
X6.62Y-4.96
X6.65Y-5.06
X6.65Y-5.29
X6.6933Y-4.9475
X6.7Y-5.0
X6.72Y-5.3125
X6.73Y-5.16
X6.73Y-4.97
X6.76Y-5.2675
X6.88Y-5.3
X6.89Y-5.19
X6.9Y-4.97
X6.9Y-5.27
X6.92Y-5.02
X6.92Y-5.06
X6.93Y-5.19
X6.94Y-5.29
X6.97Y-5.2
X6.97Y-5.27
X7.08Y-5.08
X7.08Y-5.3
X7.17Y-5.0774
X7.18Y-5.27
X7.22Y-4.95
X7.22Y-5.04
X7.22Y-5.207
X7.22Y-5.24
X7.29Y-5.27
X7.31Y-4.84
X7.32Y-5.0
X7.32Y-5.25
X7.73Y-5.06
T2
X4.25Y-5.15
X4.25Y-5.2287
X7.65Y-4.96
X7.65Y-5.24
X7.7287Y-4.96
X7.7287Y-5.24
X7.8075Y-4.96
X7.8075Y-5.24
X7.8862Y-4.96
X7.8862Y-5.24
T3
X4.05Y-4.85
X4.05Y-4.95
X4.05Y-5.05
X4.05Y-5.15
X4.05Y-5.25
X4.05Y-5.35
X4.2Y-4.98
X4.3Y-4.98
X6.34Y-5.38
X6.44Y-5.38
X6.54Y-5.38
X6.78Y-5.38
X6.83Y-4.92
X6.83Y-5.02
X6.83Y-5.12
X6.83Y-5.22
X6.88Y-5.38
X6.98Y-5.38
X7.08Y-5.38
X7.18Y-5.38
X7.28Y-5.38
T0
M30
