%TF.GenerationSoftware,KiCad,Pcbnew,(5.1.10)-1*%
%TF.CreationDate,2021-07-01T22:03:52-07:00*%
%TF.ProjectId,BivalveBit_RevA,42697661-6c76-4654-9269-745f52657641,A*%
%TF.SameCoordinates,Original*%
%TF.FileFunction,Soldermask,Top*%
%TF.FilePolarity,Negative*%
%FSLAX46Y46*%
G04 Gerber Fmt 4.6, Leading zero omitted, Abs format (unit mm)*
G04 Created by KiCad (PCBNEW (5.1.10)-1) date 2021-07-01 22:03:52*
%MOMM*%
%LPD*%
G01*
G04 APERTURE LIST*
%ADD10O,1.801600X1.801600*%
%ADD11C,0.889000*%
%ADD12C,1.092200*%
%ADD13O,1.851600X1.301600*%
%ADD14C,2.101600*%
%ADD15O,1.301600X1.851600*%
G04 APERTURE END LIST*
D10*
%TO.C,J1*%
X106680000Y-126492000D03*
G36*
G01*
X108370000Y-125591200D02*
X110070000Y-125591200D01*
G75*
G02*
X110120800Y-125642000I0J-50800D01*
G01*
X110120800Y-127342000D01*
G75*
G02*
X110070000Y-127392800I-50800J0D01*
G01*
X108370000Y-127392800D01*
G75*
G02*
X108319200Y-127342000I0J50800D01*
G01*
X108319200Y-125642000D01*
G75*
G02*
X108370000Y-125591200I50800J0D01*
G01*
G37*
%TD*%
%TO.C,R17*%
G36*
G01*
X189691600Y-127120200D02*
X190292400Y-127120200D01*
G75*
G02*
X190517800Y-127345600I0J-225400D01*
G01*
X190517800Y-127796400D01*
G75*
G02*
X190292400Y-128021800I-225400J0D01*
G01*
X189691600Y-128021800D01*
G75*
G02*
X189466200Y-127796400I0J225400D01*
G01*
X189466200Y-127345600D01*
G75*
G02*
X189691600Y-127120200I225400J0D01*
G01*
G37*
G36*
G01*
X189691600Y-125470200D02*
X190292400Y-125470200D01*
G75*
G02*
X190517800Y-125695600I0J-225400D01*
G01*
X190517800Y-126146400D01*
G75*
G02*
X190292400Y-126371800I-225400J0D01*
G01*
X189691600Y-126371800D01*
G75*
G02*
X189466200Y-126146400I0J225400D01*
G01*
X189466200Y-125695600D01*
G75*
G02*
X189691600Y-125470200I225400J0D01*
G01*
G37*
%TD*%
%TO.C,R16*%
G36*
G01*
X190292400Y-122878800D02*
X189691600Y-122878800D01*
G75*
G02*
X189466200Y-122653400I0J225400D01*
G01*
X189466200Y-122202600D01*
G75*
G02*
X189691600Y-121977200I225400J0D01*
G01*
X190292400Y-121977200D01*
G75*
G02*
X190517800Y-122202600I0J-225400D01*
G01*
X190517800Y-122653400D01*
G75*
G02*
X190292400Y-122878800I-225400J0D01*
G01*
G37*
G36*
G01*
X190292400Y-124528800D02*
X189691600Y-124528800D01*
G75*
G02*
X189466200Y-124303400I0J225400D01*
G01*
X189466200Y-123852600D01*
G75*
G02*
X189691600Y-123627200I225400J0D01*
G01*
X190292400Y-123627200D01*
G75*
G02*
X190517800Y-123852600I0J-225400D01*
G01*
X190517800Y-124303400D01*
G75*
G02*
X190292400Y-124528800I-225400J0D01*
G01*
G37*
%TD*%
%TO.C,U4*%
G36*
G01*
X117339200Y-136290000D02*
X117339200Y-135490000D01*
G75*
G02*
X117390000Y-135439200I50800J0D01*
G01*
X118290000Y-135439200D01*
G75*
G02*
X118340800Y-135490000I0J-50800D01*
G01*
X118340800Y-136290000D01*
G75*
G02*
X118290000Y-136340800I-50800J0D01*
G01*
X117390000Y-136340800D01*
G75*
G02*
X117339200Y-136290000I0J50800D01*
G01*
G37*
G36*
G01*
X115339200Y-137240000D02*
X115339200Y-136440000D01*
G75*
G02*
X115390000Y-136389200I50800J0D01*
G01*
X116290000Y-136389200D01*
G75*
G02*
X116340800Y-136440000I0J-50800D01*
G01*
X116340800Y-137240000D01*
G75*
G02*
X116290000Y-137290800I-50800J0D01*
G01*
X115390000Y-137290800D01*
G75*
G02*
X115339200Y-137240000I0J50800D01*
G01*
G37*
G36*
G01*
X115339200Y-135340000D02*
X115339200Y-134540000D01*
G75*
G02*
X115390000Y-134489200I50800J0D01*
G01*
X116290000Y-134489200D01*
G75*
G02*
X116340800Y-134540000I0J-50800D01*
G01*
X116340800Y-135340000D01*
G75*
G02*
X116290000Y-135390800I-50800J0D01*
G01*
X115390000Y-135390800D01*
G75*
G02*
X115339200Y-135340000I0J50800D01*
G01*
G37*
%TD*%
%TO.C,U3*%
G36*
G01*
X186363200Y-126441000D02*
X186363200Y-125791000D01*
G75*
G02*
X186414000Y-125740200I50800J0D01*
G01*
X187474000Y-125740200D01*
G75*
G02*
X187524800Y-125791000I0J-50800D01*
G01*
X187524800Y-126441000D01*
G75*
G02*
X187474000Y-126491800I-50800J0D01*
G01*
X186414000Y-126491800D01*
G75*
G02*
X186363200Y-126441000I0J50800D01*
G01*
G37*
G36*
G01*
X186363200Y-128341000D02*
X186363200Y-127691000D01*
G75*
G02*
X186414000Y-127640200I50800J0D01*
G01*
X187474000Y-127640200D01*
G75*
G02*
X187524800Y-127691000I0J-50800D01*
G01*
X187524800Y-128341000D01*
G75*
G02*
X187474000Y-128391800I-50800J0D01*
G01*
X186414000Y-128391800D01*
G75*
G02*
X186363200Y-128341000I0J50800D01*
G01*
G37*
G36*
G01*
X184163200Y-128341000D02*
X184163200Y-127691000D01*
G75*
G02*
X184214000Y-127640200I50800J0D01*
G01*
X185274000Y-127640200D01*
G75*
G02*
X185324800Y-127691000I0J-50800D01*
G01*
X185324800Y-128341000D01*
G75*
G02*
X185274000Y-128391800I-50800J0D01*
G01*
X184214000Y-128391800D01*
G75*
G02*
X184163200Y-128341000I0J50800D01*
G01*
G37*
G36*
G01*
X184163200Y-127391000D02*
X184163200Y-126741000D01*
G75*
G02*
X184214000Y-126690200I50800J0D01*
G01*
X185274000Y-126690200D01*
G75*
G02*
X185324800Y-126741000I0J-50800D01*
G01*
X185324800Y-127391000D01*
G75*
G02*
X185274000Y-127441800I-50800J0D01*
G01*
X184214000Y-127441800D01*
G75*
G02*
X184163200Y-127391000I0J50800D01*
G01*
G37*
G36*
G01*
X184163200Y-126441000D02*
X184163200Y-125791000D01*
G75*
G02*
X184214000Y-125740200I50800J0D01*
G01*
X185274000Y-125740200D01*
G75*
G02*
X185324800Y-125791000I0J-50800D01*
G01*
X185324800Y-126441000D01*
G75*
G02*
X185274000Y-126491800I-50800J0D01*
G01*
X184214000Y-126491800D01*
G75*
G02*
X184163200Y-126441000I0J50800D01*
G01*
G37*
%TD*%
%TO.C,U2*%
G36*
G01*
X152347000Y-125092800D02*
X151797000Y-125092800D01*
G75*
G02*
X151746200Y-125042000I0J50800D01*
G01*
X151746200Y-123442000D01*
G75*
G02*
X151797000Y-123391200I50800J0D01*
G01*
X152347000Y-123391200D01*
G75*
G02*
X152397800Y-123442000I0J-50800D01*
G01*
X152397800Y-125042000D01*
G75*
G02*
X152347000Y-125092800I-50800J0D01*
G01*
G37*
G36*
G01*
X153147000Y-125092800D02*
X152597000Y-125092800D01*
G75*
G02*
X152546200Y-125042000I0J50800D01*
G01*
X152546200Y-123442000D01*
G75*
G02*
X152597000Y-123391200I50800J0D01*
G01*
X153147000Y-123391200D01*
G75*
G02*
X153197800Y-123442000I0J-50800D01*
G01*
X153197800Y-125042000D01*
G75*
G02*
X153147000Y-125092800I-50800J0D01*
G01*
G37*
G36*
G01*
X153947000Y-125092800D02*
X153397000Y-125092800D01*
G75*
G02*
X153346200Y-125042000I0J50800D01*
G01*
X153346200Y-123442000D01*
G75*
G02*
X153397000Y-123391200I50800J0D01*
G01*
X153947000Y-123391200D01*
G75*
G02*
X153997800Y-123442000I0J-50800D01*
G01*
X153997800Y-125042000D01*
G75*
G02*
X153947000Y-125092800I-50800J0D01*
G01*
G37*
G36*
G01*
X154747000Y-125092800D02*
X154197000Y-125092800D01*
G75*
G02*
X154146200Y-125042000I0J50800D01*
G01*
X154146200Y-123442000D01*
G75*
G02*
X154197000Y-123391200I50800J0D01*
G01*
X154747000Y-123391200D01*
G75*
G02*
X154797800Y-123442000I0J-50800D01*
G01*
X154797800Y-125042000D01*
G75*
G02*
X154747000Y-125092800I-50800J0D01*
G01*
G37*
G36*
G01*
X155547000Y-125092800D02*
X154997000Y-125092800D01*
G75*
G02*
X154946200Y-125042000I0J50800D01*
G01*
X154946200Y-123442000D01*
G75*
G02*
X154997000Y-123391200I50800J0D01*
G01*
X155547000Y-123391200D01*
G75*
G02*
X155597800Y-123442000I0J-50800D01*
G01*
X155597800Y-125042000D01*
G75*
G02*
X155547000Y-125092800I-50800J0D01*
G01*
G37*
G36*
G01*
X156347000Y-125092800D02*
X155797000Y-125092800D01*
G75*
G02*
X155746200Y-125042000I0J50800D01*
G01*
X155746200Y-123442000D01*
G75*
G02*
X155797000Y-123391200I50800J0D01*
G01*
X156347000Y-123391200D01*
G75*
G02*
X156397800Y-123442000I0J-50800D01*
G01*
X156397800Y-125042000D01*
G75*
G02*
X156347000Y-125092800I-50800J0D01*
G01*
G37*
G36*
G01*
X157147000Y-125092800D02*
X156597000Y-125092800D01*
G75*
G02*
X156546200Y-125042000I0J50800D01*
G01*
X156546200Y-123442000D01*
G75*
G02*
X156597000Y-123391200I50800J0D01*
G01*
X157147000Y-123391200D01*
G75*
G02*
X157197800Y-123442000I0J-50800D01*
G01*
X157197800Y-125042000D01*
G75*
G02*
X157147000Y-125092800I-50800J0D01*
G01*
G37*
G36*
G01*
X157947000Y-125092800D02*
X157397000Y-125092800D01*
G75*
G02*
X157346200Y-125042000I0J50800D01*
G01*
X157346200Y-123442000D01*
G75*
G02*
X157397000Y-123391200I50800J0D01*
G01*
X157947000Y-123391200D01*
G75*
G02*
X157997800Y-123442000I0J-50800D01*
G01*
X157997800Y-125042000D01*
G75*
G02*
X157947000Y-125092800I-50800J0D01*
G01*
G37*
G36*
G01*
X158271200Y-125967000D02*
X158271200Y-125417000D01*
G75*
G02*
X158322000Y-125366200I50800J0D01*
G01*
X159922000Y-125366200D01*
G75*
G02*
X159972800Y-125417000I0J-50800D01*
G01*
X159972800Y-125967000D01*
G75*
G02*
X159922000Y-126017800I-50800J0D01*
G01*
X158322000Y-126017800D01*
G75*
G02*
X158271200Y-125967000I0J50800D01*
G01*
G37*
G36*
G01*
X158271200Y-126767000D02*
X158271200Y-126217000D01*
G75*
G02*
X158322000Y-126166200I50800J0D01*
G01*
X159922000Y-126166200D01*
G75*
G02*
X159972800Y-126217000I0J-50800D01*
G01*
X159972800Y-126767000D01*
G75*
G02*
X159922000Y-126817800I-50800J0D01*
G01*
X158322000Y-126817800D01*
G75*
G02*
X158271200Y-126767000I0J50800D01*
G01*
G37*
G36*
G01*
X158271200Y-127567000D02*
X158271200Y-127017000D01*
G75*
G02*
X158322000Y-126966200I50800J0D01*
G01*
X159922000Y-126966200D01*
G75*
G02*
X159972800Y-127017000I0J-50800D01*
G01*
X159972800Y-127567000D01*
G75*
G02*
X159922000Y-127617800I-50800J0D01*
G01*
X158322000Y-127617800D01*
G75*
G02*
X158271200Y-127567000I0J50800D01*
G01*
G37*
G36*
G01*
X158271200Y-128367000D02*
X158271200Y-127817000D01*
G75*
G02*
X158322000Y-127766200I50800J0D01*
G01*
X159922000Y-127766200D01*
G75*
G02*
X159972800Y-127817000I0J-50800D01*
G01*
X159972800Y-128367000D01*
G75*
G02*
X159922000Y-128417800I-50800J0D01*
G01*
X158322000Y-128417800D01*
G75*
G02*
X158271200Y-128367000I0J50800D01*
G01*
G37*
G36*
G01*
X158271200Y-129167000D02*
X158271200Y-128617000D01*
G75*
G02*
X158322000Y-128566200I50800J0D01*
G01*
X159922000Y-128566200D01*
G75*
G02*
X159972800Y-128617000I0J-50800D01*
G01*
X159972800Y-129167000D01*
G75*
G02*
X159922000Y-129217800I-50800J0D01*
G01*
X158322000Y-129217800D01*
G75*
G02*
X158271200Y-129167000I0J50800D01*
G01*
G37*
G36*
G01*
X158271200Y-129967000D02*
X158271200Y-129417000D01*
G75*
G02*
X158322000Y-129366200I50800J0D01*
G01*
X159922000Y-129366200D01*
G75*
G02*
X159972800Y-129417000I0J-50800D01*
G01*
X159972800Y-129967000D01*
G75*
G02*
X159922000Y-130017800I-50800J0D01*
G01*
X158322000Y-130017800D01*
G75*
G02*
X158271200Y-129967000I0J50800D01*
G01*
G37*
G36*
G01*
X158271200Y-130767000D02*
X158271200Y-130217000D01*
G75*
G02*
X158322000Y-130166200I50800J0D01*
G01*
X159922000Y-130166200D01*
G75*
G02*
X159972800Y-130217000I0J-50800D01*
G01*
X159972800Y-130767000D01*
G75*
G02*
X159922000Y-130817800I-50800J0D01*
G01*
X158322000Y-130817800D01*
G75*
G02*
X158271200Y-130767000I0J50800D01*
G01*
G37*
G36*
G01*
X158271200Y-131567000D02*
X158271200Y-131017000D01*
G75*
G02*
X158322000Y-130966200I50800J0D01*
G01*
X159922000Y-130966200D01*
G75*
G02*
X159972800Y-131017000I0J-50800D01*
G01*
X159972800Y-131567000D01*
G75*
G02*
X159922000Y-131617800I-50800J0D01*
G01*
X158322000Y-131617800D01*
G75*
G02*
X158271200Y-131567000I0J50800D01*
G01*
G37*
G36*
G01*
X157947000Y-133592800D02*
X157397000Y-133592800D01*
G75*
G02*
X157346200Y-133542000I0J50800D01*
G01*
X157346200Y-131942000D01*
G75*
G02*
X157397000Y-131891200I50800J0D01*
G01*
X157947000Y-131891200D01*
G75*
G02*
X157997800Y-131942000I0J-50800D01*
G01*
X157997800Y-133542000D01*
G75*
G02*
X157947000Y-133592800I-50800J0D01*
G01*
G37*
G36*
G01*
X157147000Y-133592800D02*
X156597000Y-133592800D01*
G75*
G02*
X156546200Y-133542000I0J50800D01*
G01*
X156546200Y-131942000D01*
G75*
G02*
X156597000Y-131891200I50800J0D01*
G01*
X157147000Y-131891200D01*
G75*
G02*
X157197800Y-131942000I0J-50800D01*
G01*
X157197800Y-133542000D01*
G75*
G02*
X157147000Y-133592800I-50800J0D01*
G01*
G37*
G36*
G01*
X156347000Y-133592800D02*
X155797000Y-133592800D01*
G75*
G02*
X155746200Y-133542000I0J50800D01*
G01*
X155746200Y-131942000D01*
G75*
G02*
X155797000Y-131891200I50800J0D01*
G01*
X156347000Y-131891200D01*
G75*
G02*
X156397800Y-131942000I0J-50800D01*
G01*
X156397800Y-133542000D01*
G75*
G02*
X156347000Y-133592800I-50800J0D01*
G01*
G37*
G36*
G01*
X155547000Y-133592800D02*
X154997000Y-133592800D01*
G75*
G02*
X154946200Y-133542000I0J50800D01*
G01*
X154946200Y-131942000D01*
G75*
G02*
X154997000Y-131891200I50800J0D01*
G01*
X155547000Y-131891200D01*
G75*
G02*
X155597800Y-131942000I0J-50800D01*
G01*
X155597800Y-133542000D01*
G75*
G02*
X155547000Y-133592800I-50800J0D01*
G01*
G37*
G36*
G01*
X154747000Y-133592800D02*
X154197000Y-133592800D01*
G75*
G02*
X154146200Y-133542000I0J50800D01*
G01*
X154146200Y-131942000D01*
G75*
G02*
X154197000Y-131891200I50800J0D01*
G01*
X154747000Y-131891200D01*
G75*
G02*
X154797800Y-131942000I0J-50800D01*
G01*
X154797800Y-133542000D01*
G75*
G02*
X154747000Y-133592800I-50800J0D01*
G01*
G37*
G36*
G01*
X153947000Y-133592800D02*
X153397000Y-133592800D01*
G75*
G02*
X153346200Y-133542000I0J50800D01*
G01*
X153346200Y-131942000D01*
G75*
G02*
X153397000Y-131891200I50800J0D01*
G01*
X153947000Y-131891200D01*
G75*
G02*
X153997800Y-131942000I0J-50800D01*
G01*
X153997800Y-133542000D01*
G75*
G02*
X153947000Y-133592800I-50800J0D01*
G01*
G37*
G36*
G01*
X153147000Y-133592800D02*
X152597000Y-133592800D01*
G75*
G02*
X152546200Y-133542000I0J50800D01*
G01*
X152546200Y-131942000D01*
G75*
G02*
X152597000Y-131891200I50800J0D01*
G01*
X153147000Y-131891200D01*
G75*
G02*
X153197800Y-131942000I0J-50800D01*
G01*
X153197800Y-133542000D01*
G75*
G02*
X153147000Y-133592800I-50800J0D01*
G01*
G37*
G36*
G01*
X152347000Y-133592800D02*
X151797000Y-133592800D01*
G75*
G02*
X151746200Y-133542000I0J50800D01*
G01*
X151746200Y-131942000D01*
G75*
G02*
X151797000Y-131891200I50800J0D01*
G01*
X152347000Y-131891200D01*
G75*
G02*
X152397800Y-131942000I0J-50800D01*
G01*
X152397800Y-133542000D01*
G75*
G02*
X152347000Y-133592800I-50800J0D01*
G01*
G37*
G36*
G01*
X149771200Y-131567000D02*
X149771200Y-131017000D01*
G75*
G02*
X149822000Y-130966200I50800J0D01*
G01*
X151422000Y-130966200D01*
G75*
G02*
X151472800Y-131017000I0J-50800D01*
G01*
X151472800Y-131567000D01*
G75*
G02*
X151422000Y-131617800I-50800J0D01*
G01*
X149822000Y-131617800D01*
G75*
G02*
X149771200Y-131567000I0J50800D01*
G01*
G37*
G36*
G01*
X149771200Y-130767000D02*
X149771200Y-130217000D01*
G75*
G02*
X149822000Y-130166200I50800J0D01*
G01*
X151422000Y-130166200D01*
G75*
G02*
X151472800Y-130217000I0J-50800D01*
G01*
X151472800Y-130767000D01*
G75*
G02*
X151422000Y-130817800I-50800J0D01*
G01*
X149822000Y-130817800D01*
G75*
G02*
X149771200Y-130767000I0J50800D01*
G01*
G37*
G36*
G01*
X149771200Y-129967000D02*
X149771200Y-129417000D01*
G75*
G02*
X149822000Y-129366200I50800J0D01*
G01*
X151422000Y-129366200D01*
G75*
G02*
X151472800Y-129417000I0J-50800D01*
G01*
X151472800Y-129967000D01*
G75*
G02*
X151422000Y-130017800I-50800J0D01*
G01*
X149822000Y-130017800D01*
G75*
G02*
X149771200Y-129967000I0J50800D01*
G01*
G37*
G36*
G01*
X149771200Y-129167000D02*
X149771200Y-128617000D01*
G75*
G02*
X149822000Y-128566200I50800J0D01*
G01*
X151422000Y-128566200D01*
G75*
G02*
X151472800Y-128617000I0J-50800D01*
G01*
X151472800Y-129167000D01*
G75*
G02*
X151422000Y-129217800I-50800J0D01*
G01*
X149822000Y-129217800D01*
G75*
G02*
X149771200Y-129167000I0J50800D01*
G01*
G37*
G36*
G01*
X149771200Y-128367000D02*
X149771200Y-127817000D01*
G75*
G02*
X149822000Y-127766200I50800J0D01*
G01*
X151422000Y-127766200D01*
G75*
G02*
X151472800Y-127817000I0J-50800D01*
G01*
X151472800Y-128367000D01*
G75*
G02*
X151422000Y-128417800I-50800J0D01*
G01*
X149822000Y-128417800D01*
G75*
G02*
X149771200Y-128367000I0J50800D01*
G01*
G37*
G36*
G01*
X149771200Y-127567000D02*
X149771200Y-127017000D01*
G75*
G02*
X149822000Y-126966200I50800J0D01*
G01*
X151422000Y-126966200D01*
G75*
G02*
X151472800Y-127017000I0J-50800D01*
G01*
X151472800Y-127567000D01*
G75*
G02*
X151422000Y-127617800I-50800J0D01*
G01*
X149822000Y-127617800D01*
G75*
G02*
X149771200Y-127567000I0J50800D01*
G01*
G37*
G36*
G01*
X149771200Y-126767000D02*
X149771200Y-126217000D01*
G75*
G02*
X149822000Y-126166200I50800J0D01*
G01*
X151422000Y-126166200D01*
G75*
G02*
X151472800Y-126217000I0J-50800D01*
G01*
X151472800Y-126767000D01*
G75*
G02*
X151422000Y-126817800I-50800J0D01*
G01*
X149822000Y-126817800D01*
G75*
G02*
X149771200Y-126767000I0J50800D01*
G01*
G37*
G36*
G01*
X149771200Y-125967000D02*
X149771200Y-125417000D01*
G75*
G02*
X149822000Y-125366200I50800J0D01*
G01*
X151422000Y-125366200D01*
G75*
G02*
X151472800Y-125417000I0J-50800D01*
G01*
X151472800Y-125967000D01*
G75*
G02*
X151422000Y-126017800I-50800J0D01*
G01*
X149822000Y-126017800D01*
G75*
G02*
X149771200Y-125967000I0J50800D01*
G01*
G37*
%TD*%
%TO.C,U1*%
G36*
G01*
X165561400Y-125248300D02*
X165310600Y-125248300D01*
G75*
G02*
X165185200Y-125122900I0J125400D01*
G01*
X165185200Y-123797100D01*
G75*
G02*
X165310600Y-123671700I125400J0D01*
G01*
X165561400Y-123671700D01*
G75*
G02*
X165686800Y-123797100I0J-125400D01*
G01*
X165686800Y-125122900D01*
G75*
G02*
X165561400Y-125248300I-125400J0D01*
G01*
G37*
G36*
G01*
X166211400Y-125248300D02*
X165960600Y-125248300D01*
G75*
G02*
X165835200Y-125122900I0J125400D01*
G01*
X165835200Y-123797100D01*
G75*
G02*
X165960600Y-123671700I125400J0D01*
G01*
X166211400Y-123671700D01*
G75*
G02*
X166336800Y-123797100I0J-125400D01*
G01*
X166336800Y-125122900D01*
G75*
G02*
X166211400Y-125248300I-125400J0D01*
G01*
G37*
G36*
G01*
X166861400Y-125248300D02*
X166610600Y-125248300D01*
G75*
G02*
X166485200Y-125122900I0J125400D01*
G01*
X166485200Y-123797100D01*
G75*
G02*
X166610600Y-123671700I125400J0D01*
G01*
X166861400Y-123671700D01*
G75*
G02*
X166986800Y-123797100I0J-125400D01*
G01*
X166986800Y-125122900D01*
G75*
G02*
X166861400Y-125248300I-125400J0D01*
G01*
G37*
G36*
G01*
X167511400Y-125248300D02*
X167260600Y-125248300D01*
G75*
G02*
X167135200Y-125122900I0J125400D01*
G01*
X167135200Y-123797100D01*
G75*
G02*
X167260600Y-123671700I125400J0D01*
G01*
X167511400Y-123671700D01*
G75*
G02*
X167636800Y-123797100I0J-125400D01*
G01*
X167636800Y-125122900D01*
G75*
G02*
X167511400Y-125248300I-125400J0D01*
G01*
G37*
G36*
G01*
X168161400Y-125248300D02*
X167910600Y-125248300D01*
G75*
G02*
X167785200Y-125122900I0J125400D01*
G01*
X167785200Y-123797100D01*
G75*
G02*
X167910600Y-123671700I125400J0D01*
G01*
X168161400Y-123671700D01*
G75*
G02*
X168286800Y-123797100I0J-125400D01*
G01*
X168286800Y-125122900D01*
G75*
G02*
X168161400Y-125248300I-125400J0D01*
G01*
G37*
G36*
G01*
X168811400Y-125248300D02*
X168560600Y-125248300D01*
G75*
G02*
X168435200Y-125122900I0J125400D01*
G01*
X168435200Y-123797100D01*
G75*
G02*
X168560600Y-123671700I125400J0D01*
G01*
X168811400Y-123671700D01*
G75*
G02*
X168936800Y-123797100I0J-125400D01*
G01*
X168936800Y-125122900D01*
G75*
G02*
X168811400Y-125248300I-125400J0D01*
G01*
G37*
G36*
G01*
X169461400Y-125248300D02*
X169210600Y-125248300D01*
G75*
G02*
X169085200Y-125122900I0J125400D01*
G01*
X169085200Y-123797100D01*
G75*
G02*
X169210600Y-123671700I125400J0D01*
G01*
X169461400Y-123671700D01*
G75*
G02*
X169586800Y-123797100I0J-125400D01*
G01*
X169586800Y-125122900D01*
G75*
G02*
X169461400Y-125248300I-125400J0D01*
G01*
G37*
G36*
G01*
X169461400Y-130973300D02*
X169210600Y-130973300D01*
G75*
G02*
X169085200Y-130847900I0J125400D01*
G01*
X169085200Y-129522100D01*
G75*
G02*
X169210600Y-129396700I125400J0D01*
G01*
X169461400Y-129396700D01*
G75*
G02*
X169586800Y-129522100I0J-125400D01*
G01*
X169586800Y-130847900D01*
G75*
G02*
X169461400Y-130973300I-125400J0D01*
G01*
G37*
G36*
G01*
X168811400Y-130973300D02*
X168560600Y-130973300D01*
G75*
G02*
X168435200Y-130847900I0J125400D01*
G01*
X168435200Y-129522100D01*
G75*
G02*
X168560600Y-129396700I125400J0D01*
G01*
X168811400Y-129396700D01*
G75*
G02*
X168936800Y-129522100I0J-125400D01*
G01*
X168936800Y-130847900D01*
G75*
G02*
X168811400Y-130973300I-125400J0D01*
G01*
G37*
G36*
G01*
X168161400Y-130973300D02*
X167910600Y-130973300D01*
G75*
G02*
X167785200Y-130847900I0J125400D01*
G01*
X167785200Y-129522100D01*
G75*
G02*
X167910600Y-129396700I125400J0D01*
G01*
X168161400Y-129396700D01*
G75*
G02*
X168286800Y-129522100I0J-125400D01*
G01*
X168286800Y-130847900D01*
G75*
G02*
X168161400Y-130973300I-125400J0D01*
G01*
G37*
G36*
G01*
X167511400Y-130973300D02*
X167260600Y-130973300D01*
G75*
G02*
X167135200Y-130847900I0J125400D01*
G01*
X167135200Y-129522100D01*
G75*
G02*
X167260600Y-129396700I125400J0D01*
G01*
X167511400Y-129396700D01*
G75*
G02*
X167636800Y-129522100I0J-125400D01*
G01*
X167636800Y-130847900D01*
G75*
G02*
X167511400Y-130973300I-125400J0D01*
G01*
G37*
G36*
G01*
X166861400Y-130973300D02*
X166610600Y-130973300D01*
G75*
G02*
X166485200Y-130847900I0J125400D01*
G01*
X166485200Y-129522100D01*
G75*
G02*
X166610600Y-129396700I125400J0D01*
G01*
X166861400Y-129396700D01*
G75*
G02*
X166986800Y-129522100I0J-125400D01*
G01*
X166986800Y-130847900D01*
G75*
G02*
X166861400Y-130973300I-125400J0D01*
G01*
G37*
G36*
G01*
X166211400Y-130973300D02*
X165960600Y-130973300D01*
G75*
G02*
X165835200Y-130847900I0J125400D01*
G01*
X165835200Y-129522100D01*
G75*
G02*
X165960600Y-129396700I125400J0D01*
G01*
X166211400Y-129396700D01*
G75*
G02*
X166336800Y-129522100I0J-125400D01*
G01*
X166336800Y-130847900D01*
G75*
G02*
X166211400Y-130973300I-125400J0D01*
G01*
G37*
G36*
G01*
X165561400Y-130973300D02*
X165310600Y-130973300D01*
G75*
G02*
X165185200Y-130847900I0J125400D01*
G01*
X165185200Y-129522100D01*
G75*
G02*
X165310600Y-129396700I125400J0D01*
G01*
X165561400Y-129396700D01*
G75*
G02*
X165686800Y-129522100I0J-125400D01*
G01*
X165686800Y-130847900D01*
G75*
G02*
X165561400Y-130973300I-125400J0D01*
G01*
G37*
%TD*%
%TO.C,SW2*%
G36*
G01*
X155607200Y-137652000D02*
X155607200Y-135652000D01*
G75*
G02*
X155658000Y-135601200I50800J0D01*
G01*
X157658000Y-135601200D01*
G75*
G02*
X157708800Y-135652000I0J-50800D01*
G01*
X157708800Y-137652000D01*
G75*
G02*
X157658000Y-137702800I-50800J0D01*
G01*
X155658000Y-137702800D01*
G75*
G02*
X155607200Y-137652000I0J50800D01*
G01*
G37*
G36*
G01*
X140487200Y-137652000D02*
X140487200Y-135652000D01*
G75*
G02*
X140538000Y-135601200I50800J0D01*
G01*
X142538000Y-135601200D01*
G75*
G02*
X142588800Y-135652000I0J-50800D01*
G01*
X142588800Y-137652000D01*
G75*
G02*
X142538000Y-137702800I-50800J0D01*
G01*
X140538000Y-137702800D01*
G75*
G02*
X140487200Y-137652000I0J50800D01*
G01*
G37*
%TD*%
%TO.C,RESET*%
G36*
G01*
X118275200Y-126606000D02*
X118275200Y-125606000D01*
G75*
G02*
X118326000Y-125555200I50800J0D01*
G01*
X119926000Y-125555200D01*
G75*
G02*
X119976800Y-125606000I0J-50800D01*
G01*
X119976800Y-126606000D01*
G75*
G02*
X119926000Y-126656800I-50800J0D01*
G01*
X118326000Y-126656800D01*
G75*
G02*
X118275200Y-126606000I0J50800D01*
G01*
G37*
G36*
G01*
X111875200Y-126606000D02*
X111875200Y-125606000D01*
G75*
G02*
X111926000Y-125555200I50800J0D01*
G01*
X113526000Y-125555200D01*
G75*
G02*
X113576800Y-125606000I0J-50800D01*
G01*
X113576800Y-126606000D01*
G75*
G02*
X113526000Y-126656800I-50800J0D01*
G01*
X111926000Y-126656800D01*
G75*
G02*
X111875200Y-126606000I0J50800D01*
G01*
G37*
G36*
G01*
X118275200Y-122806000D02*
X118275200Y-121806000D01*
G75*
G02*
X118326000Y-121755200I50800J0D01*
G01*
X119926000Y-121755200D01*
G75*
G02*
X119976800Y-121806000I0J-50800D01*
G01*
X119976800Y-122806000D01*
G75*
G02*
X119926000Y-122856800I-50800J0D01*
G01*
X118326000Y-122856800D01*
G75*
G02*
X118275200Y-122806000I0J50800D01*
G01*
G37*
G36*
G01*
X111875200Y-122806000D02*
X111875200Y-121806000D01*
G75*
G02*
X111926000Y-121755200I50800J0D01*
G01*
X113526000Y-121755200D01*
G75*
G02*
X113576800Y-121806000I0J-50800D01*
G01*
X113576800Y-122806000D01*
G75*
G02*
X113526000Y-122856800I-50800J0D01*
G01*
X111926000Y-122856800D01*
G75*
G02*
X111875200Y-122806000I0J50800D01*
G01*
G37*
%TD*%
%TO.C,R15*%
G36*
G01*
X168863600Y-136772200D02*
X169464400Y-136772200D01*
G75*
G02*
X169689800Y-136997600I0J-225400D01*
G01*
X169689800Y-137448400D01*
G75*
G02*
X169464400Y-137673800I-225400J0D01*
G01*
X168863600Y-137673800D01*
G75*
G02*
X168638200Y-137448400I0J225400D01*
G01*
X168638200Y-136997600D01*
G75*
G02*
X168863600Y-136772200I225400J0D01*
G01*
G37*
G36*
G01*
X168863600Y-135122200D02*
X169464400Y-135122200D01*
G75*
G02*
X169689800Y-135347600I0J-225400D01*
G01*
X169689800Y-135798400D01*
G75*
G02*
X169464400Y-136023800I-225400J0D01*
G01*
X168863600Y-136023800D01*
G75*
G02*
X168638200Y-135798400I0J225400D01*
G01*
X168638200Y-135347600D01*
G75*
G02*
X168863600Y-135122200I225400J0D01*
G01*
G37*
%TD*%
%TO.C,R14*%
G36*
G01*
X186643600Y-130739200D02*
X187244400Y-130739200D01*
G75*
G02*
X187469800Y-130964600I0J-225400D01*
G01*
X187469800Y-131415400D01*
G75*
G02*
X187244400Y-131640800I-225400J0D01*
G01*
X186643600Y-131640800D01*
G75*
G02*
X186418200Y-131415400I0J225400D01*
G01*
X186418200Y-130964600D01*
G75*
G02*
X186643600Y-130739200I225400J0D01*
G01*
G37*
G36*
G01*
X186643600Y-129089200D02*
X187244400Y-129089200D01*
G75*
G02*
X187469800Y-129314600I0J-225400D01*
G01*
X187469800Y-129765400D01*
G75*
G02*
X187244400Y-129990800I-225400J0D01*
G01*
X186643600Y-129990800D01*
G75*
G02*
X186418200Y-129765400I0J225400D01*
G01*
X186418200Y-129314600D01*
G75*
G02*
X186643600Y-129089200I225400J0D01*
G01*
G37*
%TD*%
%TO.C,R13*%
G36*
G01*
X113330400Y-128340800D02*
X112729600Y-128340800D01*
G75*
G02*
X112504200Y-128115400I0J225400D01*
G01*
X112504200Y-127664600D01*
G75*
G02*
X112729600Y-127439200I225400J0D01*
G01*
X113330400Y-127439200D01*
G75*
G02*
X113555800Y-127664600I0J-225400D01*
G01*
X113555800Y-128115400D01*
G75*
G02*
X113330400Y-128340800I-225400J0D01*
G01*
G37*
G36*
G01*
X113330400Y-129990800D02*
X112729600Y-129990800D01*
G75*
G02*
X112504200Y-129765400I0J225400D01*
G01*
X112504200Y-129314600D01*
G75*
G02*
X112729600Y-129089200I225400J0D01*
G01*
X113330400Y-129089200D01*
G75*
G02*
X113555800Y-129314600I0J-225400D01*
G01*
X113555800Y-129765400D01*
G75*
G02*
X113330400Y-129990800I-225400J0D01*
G01*
G37*
%TD*%
%TO.C,R12*%
G36*
G01*
X120950400Y-131705800D02*
X120349600Y-131705800D01*
G75*
G02*
X120124200Y-131480400I0J225400D01*
G01*
X120124200Y-131029600D01*
G75*
G02*
X120349600Y-130804200I225400J0D01*
G01*
X120950400Y-130804200D01*
G75*
G02*
X121175800Y-131029600I0J-225400D01*
G01*
X121175800Y-131480400D01*
G75*
G02*
X120950400Y-131705800I-225400J0D01*
G01*
G37*
G36*
G01*
X120950400Y-133355800D02*
X120349600Y-133355800D01*
G75*
G02*
X120124200Y-133130400I0J225400D01*
G01*
X120124200Y-132679600D01*
G75*
G02*
X120349600Y-132454200I225400J0D01*
G01*
X120950400Y-132454200D01*
G75*
G02*
X121175800Y-132679600I0J-225400D01*
G01*
X121175800Y-133130400D01*
G75*
G02*
X120950400Y-133355800I-225400J0D01*
G01*
G37*
%TD*%
%TO.C,R11*%
G36*
G01*
X113330400Y-131705800D02*
X112729600Y-131705800D01*
G75*
G02*
X112504200Y-131480400I0J225400D01*
G01*
X112504200Y-131029600D01*
G75*
G02*
X112729600Y-130804200I225400J0D01*
G01*
X113330400Y-130804200D01*
G75*
G02*
X113555800Y-131029600I0J-225400D01*
G01*
X113555800Y-131480400D01*
G75*
G02*
X113330400Y-131705800I-225400J0D01*
G01*
G37*
G36*
G01*
X113330400Y-133355800D02*
X112729600Y-133355800D01*
G75*
G02*
X112504200Y-133130400I0J225400D01*
G01*
X112504200Y-132679600D01*
G75*
G02*
X112729600Y-132454200I225400J0D01*
G01*
X113330400Y-132454200D01*
G75*
G02*
X113555800Y-132679600I0J-225400D01*
G01*
X113555800Y-133130400D01*
G75*
G02*
X113330400Y-133355800I-225400J0D01*
G01*
G37*
%TD*%
%TO.C,R10*%
G36*
G01*
X120950400Y-135515800D02*
X120349600Y-135515800D01*
G75*
G02*
X120124200Y-135290400I0J225400D01*
G01*
X120124200Y-134839600D01*
G75*
G02*
X120349600Y-134614200I225400J0D01*
G01*
X120950400Y-134614200D01*
G75*
G02*
X121175800Y-134839600I0J-225400D01*
G01*
X121175800Y-135290400D01*
G75*
G02*
X120950400Y-135515800I-225400J0D01*
G01*
G37*
G36*
G01*
X120950400Y-137165800D02*
X120349600Y-137165800D01*
G75*
G02*
X120124200Y-136940400I0J225400D01*
G01*
X120124200Y-136489600D01*
G75*
G02*
X120349600Y-136264200I225400J0D01*
G01*
X120950400Y-136264200D01*
G75*
G02*
X121175800Y-136489600I0J-225400D01*
G01*
X121175800Y-136940400D01*
G75*
G02*
X120950400Y-137165800I-225400J0D01*
G01*
G37*
%TD*%
%TO.C,R9*%
G36*
G01*
X113330400Y-135515800D02*
X112729600Y-135515800D01*
G75*
G02*
X112504200Y-135290400I0J225400D01*
G01*
X112504200Y-134839600D01*
G75*
G02*
X112729600Y-134614200I225400J0D01*
G01*
X113330400Y-134614200D01*
G75*
G02*
X113555800Y-134839600I0J-225400D01*
G01*
X113555800Y-135290400D01*
G75*
G02*
X113330400Y-135515800I-225400J0D01*
G01*
G37*
G36*
G01*
X113330400Y-137165800D02*
X112729600Y-137165800D01*
G75*
G02*
X112504200Y-136940400I0J225400D01*
G01*
X112504200Y-136489600D01*
G75*
G02*
X112729600Y-136264200I225400J0D01*
G01*
X113330400Y-136264200D01*
G75*
G02*
X113555800Y-136489600I0J-225400D01*
G01*
X113555800Y-136940400D01*
G75*
G02*
X113330400Y-137165800I-225400J0D01*
G01*
G37*
%TD*%
%TO.C,R8*%
G36*
G01*
X141294800Y-122635600D02*
X141294800Y-123236400D01*
G75*
G02*
X141069400Y-123461800I-225400J0D01*
G01*
X140618600Y-123461800D01*
G75*
G02*
X140393200Y-123236400I0J225400D01*
G01*
X140393200Y-122635600D01*
G75*
G02*
X140618600Y-122410200I225400J0D01*
G01*
X141069400Y-122410200D01*
G75*
G02*
X141294800Y-122635600I0J-225400D01*
G01*
G37*
G36*
G01*
X142944800Y-122635600D02*
X142944800Y-123236400D01*
G75*
G02*
X142719400Y-123461800I-225400J0D01*
G01*
X142268600Y-123461800D01*
G75*
G02*
X142043200Y-123236400I0J225400D01*
G01*
X142043200Y-122635600D01*
G75*
G02*
X142268600Y-122410200I225400J0D01*
G01*
X142719400Y-122410200D01*
G75*
G02*
X142944800Y-122635600I0J-225400D01*
G01*
G37*
%TD*%
%TO.C,R7*%
G36*
G01*
X145612800Y-131525600D02*
X145612800Y-132126400D01*
G75*
G02*
X145387400Y-132351800I-225400J0D01*
G01*
X144936600Y-132351800D01*
G75*
G02*
X144711200Y-132126400I0J225400D01*
G01*
X144711200Y-131525600D01*
G75*
G02*
X144936600Y-131300200I225400J0D01*
G01*
X145387400Y-131300200D01*
G75*
G02*
X145612800Y-131525600I0J-225400D01*
G01*
G37*
G36*
G01*
X147262800Y-131525600D02*
X147262800Y-132126400D01*
G75*
G02*
X147037400Y-132351800I-225400J0D01*
G01*
X146586600Y-132351800D01*
G75*
G02*
X146361200Y-132126400I0J225400D01*
G01*
X146361200Y-131525600D01*
G75*
G02*
X146586600Y-131300200I225400J0D01*
G01*
X147037400Y-131300200D01*
G75*
G02*
X147262800Y-131525600I0J-225400D01*
G01*
G37*
%TD*%
%TO.C,R6*%
G36*
G01*
X141294800Y-124921600D02*
X141294800Y-125522400D01*
G75*
G02*
X141069400Y-125747800I-225400J0D01*
G01*
X140618600Y-125747800D01*
G75*
G02*
X140393200Y-125522400I0J225400D01*
G01*
X140393200Y-124921600D01*
G75*
G02*
X140618600Y-124696200I225400J0D01*
G01*
X141069400Y-124696200D01*
G75*
G02*
X141294800Y-124921600I0J-225400D01*
G01*
G37*
G36*
G01*
X142944800Y-124921600D02*
X142944800Y-125522400D01*
G75*
G02*
X142719400Y-125747800I-225400J0D01*
G01*
X142268600Y-125747800D01*
G75*
G02*
X142043200Y-125522400I0J225400D01*
G01*
X142043200Y-124921600D01*
G75*
G02*
X142268600Y-124696200I225400J0D01*
G01*
X142719400Y-124696200D01*
G75*
G02*
X142944800Y-124921600I0J-225400D01*
G01*
G37*
%TD*%
%TO.C,R5*%
G36*
G01*
X178111200Y-131110400D02*
X178111200Y-130509600D01*
G75*
G02*
X178336600Y-130284200I225400J0D01*
G01*
X178787400Y-130284200D01*
G75*
G02*
X179012800Y-130509600I0J-225400D01*
G01*
X179012800Y-131110400D01*
G75*
G02*
X178787400Y-131335800I-225400J0D01*
G01*
X178336600Y-131335800D01*
G75*
G02*
X178111200Y-131110400I0J225400D01*
G01*
G37*
G36*
G01*
X176461200Y-131110400D02*
X176461200Y-130509600D01*
G75*
G02*
X176686600Y-130284200I225400J0D01*
G01*
X177137400Y-130284200D01*
G75*
G02*
X177362800Y-130509600I0J-225400D01*
G01*
X177362800Y-131110400D01*
G75*
G02*
X177137400Y-131335800I-225400J0D01*
G01*
X176686600Y-131335800D01*
G75*
G02*
X176461200Y-131110400I0J225400D01*
G01*
G37*
%TD*%
%TO.C,R4*%
G36*
G01*
X178111200Y-127300400D02*
X178111200Y-126699600D01*
G75*
G02*
X178336600Y-126474200I225400J0D01*
G01*
X178787400Y-126474200D01*
G75*
G02*
X179012800Y-126699600I0J-225400D01*
G01*
X179012800Y-127300400D01*
G75*
G02*
X178787400Y-127525800I-225400J0D01*
G01*
X178336600Y-127525800D01*
G75*
G02*
X178111200Y-127300400I0J225400D01*
G01*
G37*
G36*
G01*
X176461200Y-127300400D02*
X176461200Y-126699600D01*
G75*
G02*
X176686600Y-126474200I225400J0D01*
G01*
X177137400Y-126474200D01*
G75*
G02*
X177362800Y-126699600I0J-225400D01*
G01*
X177362800Y-127300400D01*
G75*
G02*
X177137400Y-127525800I-225400J0D01*
G01*
X176686600Y-127525800D01*
G75*
G02*
X176461200Y-127300400I0J225400D01*
G01*
G37*
%TD*%
%TO.C,R3*%
G36*
G01*
X141988972Y-128313120D02*
X141988972Y-127712320D01*
G75*
G02*
X142214372Y-127486920I225400J0D01*
G01*
X142665172Y-127486920D01*
G75*
G02*
X142890572Y-127712320I0J-225400D01*
G01*
X142890572Y-128313120D01*
G75*
G02*
X142665172Y-128538520I-225400J0D01*
G01*
X142214372Y-128538520D01*
G75*
G02*
X141988972Y-128313120I0J225400D01*
G01*
G37*
G36*
G01*
X140338972Y-128313120D02*
X140338972Y-127712320D01*
G75*
G02*
X140564372Y-127486920I225400J0D01*
G01*
X141015172Y-127486920D01*
G75*
G02*
X141240572Y-127712320I0J-225400D01*
G01*
X141240572Y-128313120D01*
G75*
G02*
X141015172Y-128538520I-225400J0D01*
G01*
X140564372Y-128538520D01*
G75*
G02*
X140338972Y-128313120I0J225400D01*
G01*
G37*
%TD*%
%TO.C,R2*%
G36*
G01*
X109594200Y-123490400D02*
X109594200Y-122889600D01*
G75*
G02*
X109819600Y-122664200I225400J0D01*
G01*
X110270400Y-122664200D01*
G75*
G02*
X110495800Y-122889600I0J-225400D01*
G01*
X110495800Y-123490400D01*
G75*
G02*
X110270400Y-123715800I-225400J0D01*
G01*
X109819600Y-123715800D01*
G75*
G02*
X109594200Y-123490400I0J225400D01*
G01*
G37*
G36*
G01*
X107944200Y-123490400D02*
X107944200Y-122889600D01*
G75*
G02*
X108169600Y-122664200I225400J0D01*
G01*
X108620400Y-122664200D01*
G75*
G02*
X108845800Y-122889600I0J-225400D01*
G01*
X108845800Y-123490400D01*
G75*
G02*
X108620400Y-123715800I-225400J0D01*
G01*
X108169600Y-123715800D01*
G75*
G02*
X107944200Y-123490400I0J225400D01*
G01*
G37*
%TD*%
%TO.C,R1*%
G36*
G01*
X166935200Y-122474400D02*
X166935200Y-121873600D01*
G75*
G02*
X167160600Y-121648200I225400J0D01*
G01*
X167611400Y-121648200D01*
G75*
G02*
X167836800Y-121873600I0J-225400D01*
G01*
X167836800Y-122474400D01*
G75*
G02*
X167611400Y-122699800I-225400J0D01*
G01*
X167160600Y-122699800D01*
G75*
G02*
X166935200Y-122474400I0J225400D01*
G01*
G37*
G36*
G01*
X165285200Y-122474400D02*
X165285200Y-121873600D01*
G75*
G02*
X165510600Y-121648200I225400J0D01*
G01*
X165961400Y-121648200D01*
G75*
G02*
X166186800Y-121873600I0J-225400D01*
G01*
X166186800Y-122474400D01*
G75*
G02*
X165961400Y-122699800I-225400J0D01*
G01*
X165510600Y-122699800D01*
G75*
G02*
X165285200Y-122474400I0J225400D01*
G01*
G37*
%TD*%
%TO.C,Q3*%
G36*
G01*
X117339200Y-131210000D02*
X117339200Y-130410000D01*
G75*
G02*
X117390000Y-130359200I50800J0D01*
G01*
X118290000Y-130359200D01*
G75*
G02*
X118340800Y-130410000I0J-50800D01*
G01*
X118340800Y-131210000D01*
G75*
G02*
X118290000Y-131260800I-50800J0D01*
G01*
X117390000Y-131260800D01*
G75*
G02*
X117339200Y-131210000I0J50800D01*
G01*
G37*
G36*
G01*
X115339200Y-132160000D02*
X115339200Y-131360000D01*
G75*
G02*
X115390000Y-131309200I50800J0D01*
G01*
X116290000Y-131309200D01*
G75*
G02*
X116340800Y-131360000I0J-50800D01*
G01*
X116340800Y-132160000D01*
G75*
G02*
X116290000Y-132210800I-50800J0D01*
G01*
X115390000Y-132210800D01*
G75*
G02*
X115339200Y-132160000I0J50800D01*
G01*
G37*
G36*
G01*
X115339200Y-130260000D02*
X115339200Y-129460000D01*
G75*
G02*
X115390000Y-129409200I50800J0D01*
G01*
X116290000Y-129409200D01*
G75*
G02*
X116340800Y-129460000I0J-50800D01*
G01*
X116340800Y-130260000D01*
G75*
G02*
X116290000Y-130310800I-50800J0D01*
G01*
X115390000Y-130310800D01*
G75*
G02*
X115339200Y-130260000I0J50800D01*
G01*
G37*
%TD*%
%TO.C,Q2*%
G36*
G01*
X180618800Y-130410000D02*
X180618800Y-131210000D01*
G75*
G02*
X180568000Y-131260800I-50800J0D01*
G01*
X179668000Y-131260800D01*
G75*
G02*
X179617200Y-131210000I0J50800D01*
G01*
X179617200Y-130410000D01*
G75*
G02*
X179668000Y-130359200I50800J0D01*
G01*
X180568000Y-130359200D01*
G75*
G02*
X180618800Y-130410000I0J-50800D01*
G01*
G37*
G36*
G01*
X182618800Y-129460000D02*
X182618800Y-130260000D01*
G75*
G02*
X182568000Y-130310800I-50800J0D01*
G01*
X181668000Y-130310800D01*
G75*
G02*
X181617200Y-130260000I0J50800D01*
G01*
X181617200Y-129460000D01*
G75*
G02*
X181668000Y-129409200I50800J0D01*
G01*
X182568000Y-129409200D01*
G75*
G02*
X182618800Y-129460000I0J-50800D01*
G01*
G37*
G36*
G01*
X182618800Y-131360000D02*
X182618800Y-132160000D01*
G75*
G02*
X182568000Y-132210800I-50800J0D01*
G01*
X181668000Y-132210800D01*
G75*
G02*
X181617200Y-132160000I0J50800D01*
G01*
X181617200Y-131360000D01*
G75*
G02*
X181668000Y-131309200I50800J0D01*
G01*
X182568000Y-131309200D01*
G75*
G02*
X182618800Y-131360000I0J-50800D01*
G01*
G37*
%TD*%
%TO.C,Q1*%
G36*
G01*
X180618800Y-126600000D02*
X180618800Y-127400000D01*
G75*
G02*
X180568000Y-127450800I-50800J0D01*
G01*
X179668000Y-127450800D01*
G75*
G02*
X179617200Y-127400000I0J50800D01*
G01*
X179617200Y-126600000D01*
G75*
G02*
X179668000Y-126549200I50800J0D01*
G01*
X180568000Y-126549200D01*
G75*
G02*
X180618800Y-126600000I0J-50800D01*
G01*
G37*
G36*
G01*
X182618800Y-125650000D02*
X182618800Y-126450000D01*
G75*
G02*
X182568000Y-126500800I-50800J0D01*
G01*
X181668000Y-126500800D01*
G75*
G02*
X181617200Y-126450000I0J50800D01*
G01*
X181617200Y-125650000D01*
G75*
G02*
X181668000Y-125599200I50800J0D01*
G01*
X182568000Y-125599200D01*
G75*
G02*
X182618800Y-125650000I0J-50800D01*
G01*
G37*
G36*
G01*
X182618800Y-127550000D02*
X182618800Y-128350000D01*
G75*
G02*
X182568000Y-128400800I-50800J0D01*
G01*
X181668000Y-128400800D01*
G75*
G02*
X181617200Y-128350000I0J50800D01*
G01*
X181617200Y-127550000D01*
G75*
G02*
X181668000Y-127499200I50800J0D01*
G01*
X182568000Y-127499200D01*
G75*
G02*
X182618800Y-127550000I0J-50800D01*
G01*
G37*
%TD*%
D11*
%TO.C,PROGRAM_HEADER1*%
X145288000Y-123698000D03*
X146558000Y-123698000D03*
X145288000Y-124968000D03*
X146558000Y-124968000D03*
X145288000Y-126238000D03*
X146558000Y-126238000D03*
D12*
X145923000Y-127508000D03*
X146939000Y-122428000D03*
X144907000Y-122428000D03*
%TD*%
D13*
%TO.C,PRIMARY_BATTERY1*%
X107950000Y-132810000D03*
G36*
G01*
X107295365Y-130159200D02*
X108604635Y-130159200D01*
G75*
G02*
X108875800Y-130430365I0J-271165D01*
G01*
X108875800Y-131189635D01*
G75*
G02*
X108604635Y-131460800I-271165J0D01*
G01*
X107295365Y-131460800D01*
G75*
G02*
X107024200Y-131189635I0J271165D01*
G01*
X107024200Y-130430365D01*
G75*
G02*
X107295365Y-130159200I271165J0D01*
G01*
G37*
%TD*%
D10*
%TO.C,OLED1*%
X173482000Y-132588000D03*
X173482000Y-130048000D03*
X173482000Y-127508000D03*
G36*
G01*
X172581200Y-125818000D02*
X172581200Y-124118000D01*
G75*
G02*
X172632000Y-124067200I50800J0D01*
G01*
X174332000Y-124067200D01*
G75*
G02*
X174382800Y-124118000I0J-50800D01*
G01*
X174382800Y-125818000D01*
G75*
G02*
X174332000Y-125868800I-50800J0D01*
G01*
X172632000Y-125868800D01*
G75*
G02*
X172581200Y-125818000I0J50800D01*
G01*
G37*
%TD*%
%TO.C,microSD*%
G36*
G01*
X125847000Y-122626200D02*
X127897000Y-122626200D01*
G75*
G02*
X127947800Y-122677000I0J-50800D01*
G01*
X127947800Y-124177000D01*
G75*
G02*
X127897000Y-124227800I-50800J0D01*
G01*
X125847000Y-124227800D01*
G75*
G02*
X125796200Y-124177000I0J50800D01*
G01*
X125796200Y-122677000D01*
G75*
G02*
X125847000Y-122626200I50800J0D01*
G01*
G37*
G36*
G01*
X134147000Y-122626200D02*
X136197000Y-122626200D01*
G75*
G02*
X136247800Y-122677000I0J-50800D01*
G01*
X136247800Y-124177000D01*
G75*
G02*
X136197000Y-124227800I-50800J0D01*
G01*
X134147000Y-124227800D01*
G75*
G02*
X134096200Y-124177000I0J50800D01*
G01*
X134096200Y-122677000D01*
G75*
G02*
X134147000Y-122626200I50800J0D01*
G01*
G37*
G36*
G01*
X134147000Y-136376200D02*
X136197000Y-136376200D01*
G75*
G02*
X136247800Y-136427000I0J-50800D01*
G01*
X136247800Y-137927000D01*
G75*
G02*
X136197000Y-137977800I-50800J0D01*
G01*
X134147000Y-137977800D01*
G75*
G02*
X134096200Y-137927000I0J50800D01*
G01*
X134096200Y-136427000D01*
G75*
G02*
X134147000Y-136376200I50800J0D01*
G01*
G37*
G36*
G01*
X125847000Y-136376200D02*
X127897000Y-136376200D01*
G75*
G02*
X127947800Y-136427000I0J-50800D01*
G01*
X127947800Y-137927000D01*
G75*
G02*
X127897000Y-137977800I-50800J0D01*
G01*
X125847000Y-137977800D01*
G75*
G02*
X125796200Y-137927000I0J50800D01*
G01*
X125796200Y-136427000D01*
G75*
G02*
X125847000Y-136376200I50800J0D01*
G01*
G37*
G36*
G01*
X128722000Y-125351200D02*
X130222000Y-125351200D01*
G75*
G02*
X130272800Y-125402000I0J-50800D01*
G01*
X130272800Y-126202000D01*
G75*
G02*
X130222000Y-126252800I-50800J0D01*
G01*
X128722000Y-126252800D01*
G75*
G02*
X128671200Y-126202000I0J50800D01*
G01*
X128671200Y-125402000D01*
G75*
G02*
X128722000Y-125351200I50800J0D01*
G01*
G37*
G36*
G01*
X128722000Y-126451200D02*
X130222000Y-126451200D01*
G75*
G02*
X130272800Y-126502000I0J-50800D01*
G01*
X130272800Y-127302000D01*
G75*
G02*
X130222000Y-127352800I-50800J0D01*
G01*
X128722000Y-127352800D01*
G75*
G02*
X128671200Y-127302000I0J50800D01*
G01*
X128671200Y-126502000D01*
G75*
G02*
X128722000Y-126451200I50800J0D01*
G01*
G37*
G36*
G01*
X128722000Y-127551200D02*
X130222000Y-127551200D01*
G75*
G02*
X130272800Y-127602000I0J-50800D01*
G01*
X130272800Y-128402000D01*
G75*
G02*
X130222000Y-128452800I-50800J0D01*
G01*
X128722000Y-128452800D01*
G75*
G02*
X128671200Y-128402000I0J50800D01*
G01*
X128671200Y-127602000D01*
G75*
G02*
X128722000Y-127551200I50800J0D01*
G01*
G37*
G36*
G01*
X128722000Y-128651200D02*
X130222000Y-128651200D01*
G75*
G02*
X130272800Y-128702000I0J-50800D01*
G01*
X130272800Y-129502000D01*
G75*
G02*
X130222000Y-129552800I-50800J0D01*
G01*
X128722000Y-129552800D01*
G75*
G02*
X128671200Y-129502000I0J50800D01*
G01*
X128671200Y-128702000D01*
G75*
G02*
X128722000Y-128651200I50800J0D01*
G01*
G37*
G36*
G01*
X128722000Y-129751200D02*
X130222000Y-129751200D01*
G75*
G02*
X130272800Y-129802000I0J-50800D01*
G01*
X130272800Y-130602000D01*
G75*
G02*
X130222000Y-130652800I-50800J0D01*
G01*
X128722000Y-130652800D01*
G75*
G02*
X128671200Y-130602000I0J50800D01*
G01*
X128671200Y-129802000D01*
G75*
G02*
X128722000Y-129751200I50800J0D01*
G01*
G37*
G36*
G01*
X128722000Y-130851200D02*
X130222000Y-130851200D01*
G75*
G02*
X130272800Y-130902000I0J-50800D01*
G01*
X130272800Y-131702000D01*
G75*
G02*
X130222000Y-131752800I-50800J0D01*
G01*
X128722000Y-131752800D01*
G75*
G02*
X128671200Y-131702000I0J50800D01*
G01*
X128671200Y-130902000D01*
G75*
G02*
X128722000Y-130851200I50800J0D01*
G01*
G37*
G36*
G01*
X128722000Y-131951200D02*
X130222000Y-131951200D01*
G75*
G02*
X130272800Y-132002000I0J-50800D01*
G01*
X130272800Y-132802000D01*
G75*
G02*
X130222000Y-132852800I-50800J0D01*
G01*
X128722000Y-132852800D01*
G75*
G02*
X128671200Y-132802000I0J50800D01*
G01*
X128671200Y-132002000D01*
G75*
G02*
X128722000Y-131951200I50800J0D01*
G01*
G37*
G36*
G01*
X128722000Y-133051200D02*
X130222000Y-133051200D01*
G75*
G02*
X130272800Y-133102000I0J-50800D01*
G01*
X130272800Y-133902000D01*
G75*
G02*
X130222000Y-133952800I-50800J0D01*
G01*
X128722000Y-133952800D01*
G75*
G02*
X128671200Y-133902000I0J50800D01*
G01*
X128671200Y-133102000D01*
G75*
G02*
X128722000Y-133051200I50800J0D01*
G01*
G37*
%TD*%
D14*
%TO.C,J7*%
X177292000Y-136652000D03*
%TD*%
D10*
%TO.C,J6*%
X166116000Y-136652000D03*
X163576000Y-136652000D03*
G36*
G01*
X161886000Y-137552800D02*
X160186000Y-137552800D01*
G75*
G02*
X160135200Y-137502000I0J50800D01*
G01*
X160135200Y-135802000D01*
G75*
G02*
X160186000Y-135751200I50800J0D01*
G01*
X161886000Y-135751200D01*
G75*
G02*
X161936800Y-135802000I0J-50800D01*
G01*
X161936800Y-137502000D01*
G75*
G02*
X161886000Y-137552800I-50800J0D01*
G01*
G37*
%TD*%
D14*
%TO.C,J5*%
X174752000Y-136652000D03*
%TD*%
%TO.C,J4*%
X172212000Y-136652000D03*
%TD*%
%TO.C,J3*%
X182372000Y-136652000D03*
%TD*%
%TO.C,J2*%
X179832000Y-136652000D03*
%TD*%
D15*
%TO.C,HEART_SENSOR1*%
X200310000Y-125984000D03*
X198310000Y-125984000D03*
X196310000Y-125984000D03*
G36*
G01*
X193659200Y-126638635D02*
X193659200Y-125329365D01*
G75*
G02*
X193930365Y-125058200I271165J0D01*
G01*
X194689635Y-125058200D01*
G75*
G02*
X194960800Y-125329365I0J-271165D01*
G01*
X194960800Y-126638635D01*
G75*
G02*
X194689635Y-126909800I-271165J0D01*
G01*
X193930365Y-126909800D01*
G75*
G02*
X193659200Y-126638635I0J271165D01*
G01*
G37*
%TD*%
%TO.C,HALL_SENSOR1*%
X200310000Y-133096000D03*
X198310000Y-133096000D03*
X196310000Y-133096000D03*
G36*
G01*
X193659200Y-133750635D02*
X193659200Y-132441365D01*
G75*
G02*
X193930365Y-132170200I271165J0D01*
G01*
X194689635Y-132170200D01*
G75*
G02*
X194960800Y-132441365I0J-271165D01*
G01*
X194960800Y-133750635D01*
G75*
G02*
X194689635Y-134021800I-271165J0D01*
G01*
X193930365Y-134021800D01*
G75*
G02*
X193659200Y-133750635I0J271165D01*
G01*
G37*
%TD*%
D10*
%TO.C,FTDI*%
X102870000Y-135890000D03*
X102870000Y-133350000D03*
X102870000Y-130810000D03*
X102870000Y-128270000D03*
X102870000Y-125730000D03*
G36*
G01*
X101969200Y-124040000D02*
X101969200Y-122340000D01*
G75*
G02*
X102020000Y-122289200I50800J0D01*
G01*
X103720000Y-122289200D01*
G75*
G02*
X103770800Y-122340000I0J-50800D01*
G01*
X103770800Y-124040000D01*
G75*
G02*
X103720000Y-124090800I-50800J0D01*
G01*
X102020000Y-124090800D01*
G75*
G02*
X101969200Y-124040000I0J50800D01*
G01*
G37*
%TD*%
%TO.C,D1*%
G36*
G01*
X145608700Y-134339650D02*
X145608700Y-133376350D01*
G75*
G02*
X145877850Y-133107200I269150J0D01*
G01*
X146416150Y-133107200D01*
G75*
G02*
X146685300Y-133376350I0J-269150D01*
G01*
X146685300Y-134339650D01*
G75*
G02*
X146416150Y-134608800I-269150J0D01*
G01*
X145877850Y-134608800D01*
G75*
G02*
X145608700Y-134339650I0J269150D01*
G01*
G37*
G36*
G01*
X143733700Y-134339650D02*
X143733700Y-133376350D01*
G75*
G02*
X144002850Y-133107200I269150J0D01*
G01*
X144541150Y-133107200D01*
G75*
G02*
X144810300Y-133376350I0J-269150D01*
G01*
X144810300Y-134339650D01*
G75*
G02*
X144541150Y-134608800I-269150J0D01*
G01*
X144002850Y-134608800D01*
G75*
G02*
X143733700Y-134339650I0J269150D01*
G01*
G37*
%TD*%
%TO.C,32.768kHz*%
G36*
G01*
X164988000Y-132430800D02*
X163788000Y-132430800D01*
G75*
G02*
X163737200Y-132380000I0J50800D01*
G01*
X163737200Y-131780000D01*
G75*
G02*
X163788000Y-131729200I50800J0D01*
G01*
X164988000Y-131729200D01*
G75*
G02*
X165038800Y-131780000I0J-50800D01*
G01*
X165038800Y-132380000D01*
G75*
G02*
X164988000Y-132430800I-50800J0D01*
G01*
G37*
G36*
G01*
X171288000Y-132430800D02*
X170088000Y-132430800D01*
G75*
G02*
X170037200Y-132380000I0J50800D01*
G01*
X170037200Y-131780000D01*
G75*
G02*
X170088000Y-131729200I50800J0D01*
G01*
X171288000Y-131729200D01*
G75*
G02*
X171338800Y-131780000I0J-50800D01*
G01*
X171338800Y-132380000D01*
G75*
G02*
X171288000Y-132430800I-50800J0D01*
G01*
G37*
G36*
G01*
X171288000Y-133330800D02*
X170088000Y-133330800D01*
G75*
G02*
X170037200Y-133280000I0J50800D01*
G01*
X170037200Y-132680000D01*
G75*
G02*
X170088000Y-132629200I50800J0D01*
G01*
X171288000Y-132629200D01*
G75*
G02*
X171338800Y-132680000I0J-50800D01*
G01*
X171338800Y-133280000D01*
G75*
G02*
X171288000Y-133330800I-50800J0D01*
G01*
G37*
G36*
G01*
X164988000Y-133330800D02*
X163788000Y-133330800D01*
G75*
G02*
X163737200Y-133280000I0J50800D01*
G01*
X163737200Y-132680000D01*
G75*
G02*
X163788000Y-132629200I50800J0D01*
G01*
X164988000Y-132629200D01*
G75*
G02*
X165038800Y-132680000I0J-50800D01*
G01*
X165038800Y-133280000D01*
G75*
G02*
X164988000Y-133330800I-50800J0D01*
G01*
G37*
%TD*%
%TO.C,C8*%
G36*
G01*
X150588800Y-121898600D02*
X150588800Y-122449400D01*
G75*
G02*
X150338400Y-122699800I-250400J0D01*
G01*
X149837600Y-122699800D01*
G75*
G02*
X149587200Y-122449400I0J250400D01*
G01*
X149587200Y-121898600D01*
G75*
G02*
X149837600Y-121648200I250400J0D01*
G01*
X150338400Y-121648200D01*
G75*
G02*
X150588800Y-121898600I0J-250400D01*
G01*
G37*
G36*
G01*
X152138800Y-121898600D02*
X152138800Y-122449400D01*
G75*
G02*
X151888400Y-122699800I-250400J0D01*
G01*
X151387600Y-122699800D01*
G75*
G02*
X151137200Y-122449400I0J250400D01*
G01*
X151137200Y-121898600D01*
G75*
G02*
X151387600Y-121648200I250400J0D01*
G01*
X151888400Y-121648200D01*
G75*
G02*
X152138800Y-121898600I0J-250400D01*
G01*
G37*
%TD*%
%TO.C,C7*%
G36*
G01*
X121433400Y-124693800D02*
X120882600Y-124693800D01*
G75*
G02*
X120632200Y-124443400I0J250400D01*
G01*
X120632200Y-123942600D01*
G75*
G02*
X120882600Y-123692200I250400J0D01*
G01*
X121433400Y-123692200D01*
G75*
G02*
X121683800Y-123942600I0J-250400D01*
G01*
X121683800Y-124443400D01*
G75*
G02*
X121433400Y-124693800I-250400J0D01*
G01*
G37*
G36*
G01*
X121433400Y-126243800D02*
X120882600Y-126243800D01*
G75*
G02*
X120632200Y-125993400I0J250400D01*
G01*
X120632200Y-125492600D01*
G75*
G02*
X120882600Y-125242200I250400J0D01*
G01*
X121433400Y-125242200D01*
G75*
G02*
X121683800Y-125492600I0J-250400D01*
G01*
X121683800Y-125993400D01*
G75*
G02*
X121433400Y-126243800I-250400J0D01*
G01*
G37*
%TD*%
%TO.C,C6*%
G36*
G01*
X120374600Y-128798200D02*
X120925400Y-128798200D01*
G75*
G02*
X121175800Y-129048600I0J-250400D01*
G01*
X121175800Y-129549400D01*
G75*
G02*
X120925400Y-129799800I-250400J0D01*
G01*
X120374600Y-129799800D01*
G75*
G02*
X120124200Y-129549400I0J250400D01*
G01*
X120124200Y-129048600D01*
G75*
G02*
X120374600Y-128798200I250400J0D01*
G01*
G37*
G36*
G01*
X120374600Y-127248200D02*
X120925400Y-127248200D01*
G75*
G02*
X121175800Y-127498600I0J-250400D01*
G01*
X121175800Y-127999400D01*
G75*
G02*
X120925400Y-128249800I-250400J0D01*
G01*
X120374600Y-128249800D01*
G75*
G02*
X120124200Y-127999400I0J250400D01*
G01*
X120124200Y-127498600D01*
G75*
G02*
X120374600Y-127248200I250400J0D01*
G01*
G37*
%TD*%
%TO.C,C5*%
G36*
G01*
X187219400Y-123410800D02*
X186668600Y-123410800D01*
G75*
G02*
X186418200Y-123160400I0J250400D01*
G01*
X186418200Y-122659600D01*
G75*
G02*
X186668600Y-122409200I250400J0D01*
G01*
X187219400Y-122409200D01*
G75*
G02*
X187469800Y-122659600I0J-250400D01*
G01*
X187469800Y-123160400D01*
G75*
G02*
X187219400Y-123410800I-250400J0D01*
G01*
G37*
G36*
G01*
X187219400Y-124960800D02*
X186668600Y-124960800D01*
G75*
G02*
X186418200Y-124710400I0J250400D01*
G01*
X186418200Y-124209600D01*
G75*
G02*
X186668600Y-123959200I250400J0D01*
G01*
X187219400Y-123959200D01*
G75*
G02*
X187469800Y-124209600I0J-250400D01*
G01*
X187469800Y-124710400D01*
G75*
G02*
X187219400Y-124960800I-250400J0D01*
G01*
G37*
%TD*%
%TO.C,C4*%
G36*
G01*
X162835400Y-129760800D02*
X162284600Y-129760800D01*
G75*
G02*
X162034200Y-129510400I0J250400D01*
G01*
X162034200Y-129009600D01*
G75*
G02*
X162284600Y-128759200I250400J0D01*
G01*
X162835400Y-128759200D01*
G75*
G02*
X163085800Y-129009600I0J-250400D01*
G01*
X163085800Y-129510400D01*
G75*
G02*
X162835400Y-129760800I-250400J0D01*
G01*
G37*
G36*
G01*
X162835400Y-131310800D02*
X162284600Y-131310800D01*
G75*
G02*
X162034200Y-131060400I0J250400D01*
G01*
X162034200Y-130559600D01*
G75*
G02*
X162284600Y-130309200I250400J0D01*
G01*
X162835400Y-130309200D01*
G75*
G02*
X163085800Y-130559600I0J-250400D01*
G01*
X163085800Y-131060400D01*
G75*
G02*
X162835400Y-131310800I-250400J0D01*
G01*
G37*
%TD*%
%TO.C,C3*%
G36*
G01*
X184933400Y-123410800D02*
X184382600Y-123410800D01*
G75*
G02*
X184132200Y-123160400I0J250400D01*
G01*
X184132200Y-122659600D01*
G75*
G02*
X184382600Y-122409200I250400J0D01*
G01*
X184933400Y-122409200D01*
G75*
G02*
X185183800Y-122659600I0J-250400D01*
G01*
X185183800Y-123160400D01*
G75*
G02*
X184933400Y-123410800I-250400J0D01*
G01*
G37*
G36*
G01*
X184933400Y-124960800D02*
X184382600Y-124960800D01*
G75*
G02*
X184132200Y-124710400I0J250400D01*
G01*
X184132200Y-124209600D01*
G75*
G02*
X184382600Y-123959200I250400J0D01*
G01*
X184933400Y-123959200D01*
G75*
G02*
X185183800Y-124209600I0J-250400D01*
G01*
X185183800Y-124710400D01*
G75*
G02*
X184933400Y-124960800I-250400J0D01*
G01*
G37*
%TD*%
%TO.C,C2*%
G36*
G01*
X106954200Y-137435400D02*
X106954200Y-136884600D01*
G75*
G02*
X107204600Y-136634200I250400J0D01*
G01*
X107705400Y-136634200D01*
G75*
G02*
X107955800Y-136884600I0J-250400D01*
G01*
X107955800Y-137435400D01*
G75*
G02*
X107705400Y-137685800I-250400J0D01*
G01*
X107204600Y-137685800D01*
G75*
G02*
X106954200Y-137435400I0J250400D01*
G01*
G37*
G36*
G01*
X105404200Y-137435400D02*
X105404200Y-136884600D01*
G75*
G02*
X105654600Y-136634200I250400J0D01*
G01*
X106155400Y-136634200D01*
G75*
G02*
X106405800Y-136884600I0J-250400D01*
G01*
X106405800Y-137435400D01*
G75*
G02*
X106155400Y-137685800I-250400J0D01*
G01*
X105654600Y-137685800D01*
G75*
G02*
X105404200Y-137435400I0J250400D01*
G01*
G37*
%TD*%
%TO.C,C1*%
G36*
G01*
X162284600Y-124467200D02*
X162835400Y-124467200D01*
G75*
G02*
X163085800Y-124717600I0J-250400D01*
G01*
X163085800Y-125218400D01*
G75*
G02*
X162835400Y-125468800I-250400J0D01*
G01*
X162284600Y-125468800D01*
G75*
G02*
X162034200Y-125218400I0J250400D01*
G01*
X162034200Y-124717600D01*
G75*
G02*
X162284600Y-124467200I250400J0D01*
G01*
G37*
G36*
G01*
X162284600Y-122917200D02*
X162835400Y-122917200D01*
G75*
G02*
X163085800Y-123167600I0J-250400D01*
G01*
X163085800Y-123668400D01*
G75*
G02*
X162835400Y-123918800I-250400J0D01*
G01*
X162284600Y-123918800D01*
G75*
G02*
X162034200Y-123668400I0J250400D01*
G01*
X162034200Y-123167600D01*
G75*
G02*
X162284600Y-122917200I250400J0D01*
G01*
G37*
%TD*%
D14*
%TO.C,J8*%
X184912000Y-136652000D03*
%TD*%
M02*
