%TF.GenerationSoftware,KiCad,Pcbnew,(5.1.10)-1*%
%TF.CreationDate,2021-07-02T15:13:39-07:00*%
%TF.ProjectId,BivalveBit,42697661-6c76-4654-9269-742e6b696361,A*%
%TF.SameCoordinates,Original*%
%TF.FileFunction,Legend,Bot*%
%TF.FilePolarity,Positive*%
%FSLAX46Y46*%
G04 Gerber Fmt 4.6, Leading zero omitted, Abs format (unit mm)*
G04 Created by KiCad (PCBNEW (5.1.10)-1) date 2021-07-02 15:13:39*
%MOMM*%
%LPD*%
G01*
G04 APERTURE LIST*
%ADD10C,0.127000*%
%ADD11C,0.203200*%
%ADD12C,0.120000*%
%ADD13C,0.150000*%
G04 APERTURE END LIST*
D10*
X174972133Y-133451600D02*
X174938266Y-133350000D01*
X174938266Y-133180666D01*
X174972133Y-133112933D01*
X175006000Y-133079066D01*
X175073733Y-133045200D01*
X175141466Y-133045200D01*
X175209200Y-133079066D01*
X175243066Y-133112933D01*
X175276933Y-133180666D01*
X175310800Y-133316133D01*
X175344666Y-133383866D01*
X175378533Y-133417733D01*
X175446266Y-133451600D01*
X175514000Y-133451600D01*
X175581733Y-133417733D01*
X175615600Y-133383866D01*
X175649466Y-133316133D01*
X175649466Y-133146800D01*
X175615600Y-133045200D01*
X174938266Y-132740400D02*
X175649466Y-132740400D01*
X175649466Y-132571066D01*
X175615600Y-132469466D01*
X175547866Y-132401733D01*
X175480133Y-132367866D01*
X175344666Y-132334000D01*
X175243066Y-132334000D01*
X175107600Y-132367866D01*
X175039866Y-132401733D01*
X174972133Y-132469466D01*
X174938266Y-132571066D01*
X174938266Y-132740400D01*
X175141466Y-132063066D02*
X175141466Y-131724400D01*
X174938266Y-132130800D02*
X175649466Y-131893733D01*
X174938266Y-131656666D01*
X174972133Y-130894666D02*
X174938266Y-130793066D01*
X174938266Y-130623733D01*
X174972133Y-130556000D01*
X175006000Y-130522133D01*
X175073733Y-130488266D01*
X175141466Y-130488266D01*
X175209200Y-130522133D01*
X175243066Y-130556000D01*
X175276933Y-130623733D01*
X175310800Y-130759200D01*
X175344666Y-130826933D01*
X175378533Y-130860800D01*
X175446266Y-130894666D01*
X175514000Y-130894666D01*
X175581733Y-130860800D01*
X175615600Y-130826933D01*
X175649466Y-130759200D01*
X175649466Y-130589866D01*
X175615600Y-130488266D01*
X175006000Y-129777066D02*
X174972133Y-129810933D01*
X174938266Y-129912533D01*
X174938266Y-129980266D01*
X174972133Y-130081866D01*
X175039866Y-130149600D01*
X175107600Y-130183466D01*
X175243066Y-130217333D01*
X175344666Y-130217333D01*
X175480133Y-130183466D01*
X175547866Y-130149600D01*
X175615600Y-130081866D01*
X175649466Y-129980266D01*
X175649466Y-129912533D01*
X175615600Y-129810933D01*
X175581733Y-129777066D01*
X174938266Y-129133600D02*
X174938266Y-129472266D01*
X175649466Y-129472266D01*
X175649466Y-128811866D02*
X174938266Y-128574800D01*
X175649466Y-128337733D01*
X175310800Y-127863600D02*
X175276933Y-127762000D01*
X175243066Y-127728133D01*
X175175333Y-127694266D01*
X175073733Y-127694266D01*
X175006000Y-127728133D01*
X174972133Y-127762000D01*
X174938266Y-127829733D01*
X174938266Y-128100666D01*
X175649466Y-128100666D01*
X175649466Y-127863600D01*
X175615600Y-127795866D01*
X175581733Y-127762000D01*
X175514000Y-127728133D01*
X175446266Y-127728133D01*
X175378533Y-127762000D01*
X175344666Y-127795866D01*
X175310800Y-127863600D01*
X175310800Y-128100666D01*
X175649466Y-127389466D02*
X175073733Y-127389466D01*
X175006000Y-127355600D01*
X174972133Y-127321733D01*
X174938266Y-127254000D01*
X174938266Y-127118533D01*
X174972133Y-127050800D01*
X175006000Y-127016933D01*
X175073733Y-126983066D01*
X175649466Y-126983066D01*
X174972133Y-126678266D02*
X174938266Y-126576666D01*
X174938266Y-126407333D01*
X174972133Y-126339600D01*
X175006000Y-126305733D01*
X175073733Y-126271866D01*
X175141466Y-126271866D01*
X175209200Y-126305733D01*
X175243066Y-126339600D01*
X175276933Y-126407333D01*
X175310800Y-126542800D01*
X175344666Y-126610533D01*
X175378533Y-126644400D01*
X175446266Y-126678266D01*
X175514000Y-126678266D01*
X175581733Y-126644400D01*
X175615600Y-126610533D01*
X175649466Y-126542800D01*
X175649466Y-126373466D01*
X175615600Y-126271866D01*
X175641000Y-125294571D02*
X175677285Y-125367142D01*
X175677285Y-125476000D01*
X175641000Y-125584857D01*
X175568428Y-125657428D01*
X175495857Y-125693714D01*
X175350714Y-125730000D01*
X175241857Y-125730000D01*
X175096714Y-125693714D01*
X175024142Y-125657428D01*
X174951571Y-125584857D01*
X174915285Y-125476000D01*
X174915285Y-125403428D01*
X174951571Y-125294571D01*
X174987857Y-125258285D01*
X175241857Y-125258285D01*
X175241857Y-125403428D01*
X174915285Y-124931714D02*
X175677285Y-124931714D01*
X174915285Y-124496285D01*
X175677285Y-124496285D01*
X174915285Y-124133428D02*
X175677285Y-124133428D01*
X175677285Y-123952000D01*
X175641000Y-123843142D01*
X175568428Y-123770571D01*
X175495857Y-123734285D01*
X175350714Y-123698000D01*
X175241857Y-123698000D01*
X175096714Y-123734285D01*
X175024142Y-123770571D01*
X174951571Y-123843142D01*
X174915285Y-123952000D01*
X174915285Y-124133428D01*
X109867700Y-133307666D02*
X109901566Y-133375400D01*
X109901566Y-133477000D01*
X109867700Y-133578600D01*
X109799966Y-133646333D01*
X109732233Y-133680200D01*
X109596766Y-133714066D01*
X109495166Y-133714066D01*
X109359700Y-133680200D01*
X109291966Y-133646333D01*
X109224233Y-133578600D01*
X109190366Y-133477000D01*
X109190366Y-133409266D01*
X109224233Y-133307666D01*
X109258100Y-133273800D01*
X109495166Y-133273800D01*
X109495166Y-133409266D01*
X109190366Y-132969000D02*
X109901566Y-132969000D01*
X109190366Y-132562600D01*
X109901566Y-132562600D01*
X109190366Y-132223933D02*
X109901566Y-132223933D01*
X109901566Y-132054600D01*
X109867700Y-131953000D01*
X109799966Y-131885266D01*
X109732233Y-131851400D01*
X109596766Y-131817533D01*
X109495166Y-131817533D01*
X109359700Y-131851400D01*
X109291966Y-131885266D01*
X109224233Y-131953000D01*
X109190366Y-132054600D01*
X109190366Y-132223933D01*
X109164966Y-130835400D02*
X109706833Y-130835400D01*
X109435900Y-130564466D02*
X109435900Y-131106333D01*
X104072266Y-133468533D02*
X104410933Y-133705600D01*
X104072266Y-133874933D02*
X104783466Y-133874933D01*
X104783466Y-133604000D01*
X104749600Y-133536266D01*
X104715733Y-133502400D01*
X104648000Y-133468533D01*
X104546400Y-133468533D01*
X104478666Y-133502400D01*
X104444800Y-133536266D01*
X104410933Y-133604000D01*
X104410933Y-133874933D01*
X104783466Y-133231466D02*
X104072266Y-132757333D01*
X104783466Y-132757333D02*
X104072266Y-133231466D01*
X104783466Y-131351866D02*
X104783466Y-130945466D01*
X104072266Y-131148666D02*
X104783466Y-131148666D01*
X104783466Y-130776133D02*
X104072266Y-130302000D01*
X104783466Y-130302000D02*
X104072266Y-130776133D01*
X104749600Y-126271866D02*
X104783466Y-126339600D01*
X104783466Y-126441200D01*
X104749600Y-126542800D01*
X104681866Y-126610533D01*
X104614133Y-126644400D01*
X104478666Y-126678266D01*
X104377066Y-126678266D01*
X104241600Y-126644400D01*
X104173866Y-126610533D01*
X104106133Y-126542800D01*
X104072266Y-126441200D01*
X104072266Y-126373466D01*
X104106133Y-126271866D01*
X104140000Y-126238000D01*
X104377066Y-126238000D01*
X104377066Y-126373466D01*
X104072266Y-125933200D02*
X104783466Y-125933200D01*
X104072266Y-125526800D01*
X104783466Y-125526800D01*
X104072266Y-125188133D02*
X104783466Y-125188133D01*
X104783466Y-125018800D01*
X104749600Y-124917200D01*
X104681866Y-124849466D01*
X104614133Y-124815600D01*
X104478666Y-124781733D01*
X104377066Y-124781733D01*
X104241600Y-124815600D01*
X104173866Y-124849466D01*
X104106133Y-124917200D01*
X104072266Y-125018800D01*
X104072266Y-125188133D01*
X104783466Y-129150533D02*
X104783466Y-128710266D01*
X104512533Y-128947333D01*
X104512533Y-128845733D01*
X104478666Y-128778000D01*
X104444800Y-128744133D01*
X104377066Y-128710266D01*
X104207733Y-128710266D01*
X104140000Y-128744133D01*
X104106133Y-128778000D01*
X104072266Y-128845733D01*
X104072266Y-129048933D01*
X104106133Y-129116666D01*
X104140000Y-129150533D01*
X104783466Y-128507066D02*
X104072266Y-128270000D01*
X104783466Y-128032933D01*
X104783466Y-127863600D02*
X104783466Y-127423333D01*
X104512533Y-127660400D01*
X104512533Y-127558800D01*
X104478666Y-127491066D01*
X104444800Y-127457200D01*
X104377066Y-127423333D01*
X104207733Y-127423333D01*
X104140000Y-127457200D01*
X104106133Y-127491066D01*
X104072266Y-127558800D01*
X104072266Y-127762000D01*
X104106133Y-127829733D01*
X104140000Y-127863600D01*
X104072266Y-136702800D02*
X104783466Y-136702800D01*
X104783466Y-136533466D01*
X104749600Y-136431866D01*
X104681866Y-136364133D01*
X104614133Y-136330266D01*
X104478666Y-136296400D01*
X104377066Y-136296400D01*
X104241600Y-136330266D01*
X104173866Y-136364133D01*
X104106133Y-136431866D01*
X104072266Y-136533466D01*
X104072266Y-136702800D01*
X104783466Y-136093200D02*
X104783466Y-135686800D01*
X104072266Y-135890000D02*
X104783466Y-135890000D01*
X104072266Y-135043333D02*
X104410933Y-135280400D01*
X104072266Y-135449733D02*
X104783466Y-135449733D01*
X104783466Y-135178800D01*
X104749600Y-135111066D01*
X104715733Y-135077200D01*
X104648000Y-135043333D01*
X104546400Y-135043333D01*
X104478666Y-135077200D01*
X104444800Y-135111066D01*
X104410933Y-135178800D01*
X104410933Y-135449733D01*
X112572800Y-121653300D02*
X112606666Y-121687166D01*
X112708266Y-121721033D01*
X112776000Y-121721033D01*
X112877600Y-121687166D01*
X112945333Y-121619433D01*
X112979200Y-121551700D01*
X113013066Y-121416233D01*
X113013066Y-121314633D01*
X112979200Y-121179166D01*
X112945333Y-121111433D01*
X112877600Y-121043700D01*
X112776000Y-121009833D01*
X112708266Y-121009833D01*
X112606666Y-121043700D01*
X112572800Y-121077566D01*
X112166400Y-121721033D02*
X112234133Y-121687166D01*
X112268000Y-121619433D01*
X112268000Y-121009833D01*
X111793866Y-121721033D02*
X111861600Y-121687166D01*
X111895466Y-121653300D01*
X111929333Y-121585566D01*
X111929333Y-121382366D01*
X111895466Y-121314633D01*
X111861600Y-121280766D01*
X111793866Y-121246900D01*
X111692266Y-121246900D01*
X111624533Y-121280766D01*
X111590666Y-121314633D01*
X111556800Y-121382366D01*
X111556800Y-121585566D01*
X111590666Y-121653300D01*
X111624533Y-121687166D01*
X111692266Y-121721033D01*
X111793866Y-121721033D01*
X111285866Y-121687166D02*
X111218133Y-121721033D01*
X111082666Y-121721033D01*
X111014933Y-121687166D01*
X110981066Y-121619433D01*
X110981066Y-121585566D01*
X111014933Y-121517833D01*
X111082666Y-121483966D01*
X111184266Y-121483966D01*
X111252000Y-121450100D01*
X111285866Y-121382366D01*
X111285866Y-121348500D01*
X111252000Y-121280766D01*
X111184266Y-121246900D01*
X111082666Y-121246900D01*
X111014933Y-121280766D01*
X110405333Y-121687166D02*
X110473066Y-121721033D01*
X110608533Y-121721033D01*
X110676266Y-121687166D01*
X110710133Y-121619433D01*
X110710133Y-121348500D01*
X110676266Y-121280766D01*
X110608533Y-121246900D01*
X110473066Y-121246900D01*
X110405333Y-121280766D01*
X110371466Y-121348500D01*
X110371466Y-121416233D01*
X110710133Y-121483966D01*
X109524800Y-121246900D02*
X109524800Y-121856500D01*
X109558666Y-121924233D01*
X109626400Y-121958100D01*
X109660266Y-121958100D01*
X109524800Y-121009833D02*
X109558666Y-121043700D01*
X109524800Y-121077566D01*
X109490933Y-121043700D01*
X109524800Y-121009833D01*
X109524800Y-121077566D01*
X108881333Y-121246900D02*
X108881333Y-121721033D01*
X109186133Y-121246900D02*
X109186133Y-121619433D01*
X109152266Y-121687166D01*
X109084533Y-121721033D01*
X108982933Y-121721033D01*
X108915200Y-121687166D01*
X108881333Y-121653300D01*
X108542666Y-121721033D02*
X108542666Y-121246900D01*
X108542666Y-121314633D02*
X108508800Y-121280766D01*
X108441066Y-121246900D01*
X108339466Y-121246900D01*
X108271733Y-121280766D01*
X108237866Y-121348500D01*
X108237866Y-121721033D01*
X108237866Y-121348500D02*
X108204000Y-121280766D01*
X108136266Y-121246900D01*
X108034666Y-121246900D01*
X107966933Y-121280766D01*
X107933066Y-121348500D01*
X107933066Y-121721033D01*
X107594400Y-121246900D02*
X107594400Y-121958100D01*
X107594400Y-121280766D02*
X107526666Y-121246900D01*
X107391200Y-121246900D01*
X107323466Y-121280766D01*
X107289600Y-121314633D01*
X107255733Y-121382366D01*
X107255733Y-121585566D01*
X107289600Y-121653300D01*
X107323466Y-121687166D01*
X107391200Y-121721033D01*
X107526666Y-121721033D01*
X107594400Y-121687166D01*
X106680000Y-121687166D02*
X106747733Y-121721033D01*
X106883200Y-121721033D01*
X106950933Y-121687166D01*
X106984800Y-121619433D01*
X106984800Y-121348500D01*
X106950933Y-121280766D01*
X106883200Y-121246900D01*
X106747733Y-121246900D01*
X106680000Y-121280766D01*
X106646133Y-121348500D01*
X106646133Y-121416233D01*
X106984800Y-121483966D01*
X106341333Y-121721033D02*
X106341333Y-121246900D01*
X106341333Y-121382366D02*
X106307466Y-121314633D01*
X106273600Y-121280766D01*
X106205866Y-121246900D01*
X106138133Y-121246900D01*
X105156000Y-121009833D02*
X105156000Y-121517833D01*
X105189866Y-121619433D01*
X105257600Y-121687166D01*
X105359200Y-121721033D01*
X105426933Y-121721033D01*
X104444800Y-121721033D02*
X104851200Y-121721033D01*
X104648000Y-121721033D02*
X104648000Y-121009833D01*
X104715733Y-121111433D01*
X104783466Y-121179166D01*
X104851200Y-121213033D01*
X113402533Y-122440700D02*
X113131600Y-122440700D01*
X113300933Y-122203633D02*
X113300933Y-122813233D01*
X113267066Y-122880966D01*
X113199333Y-122914833D01*
X113131600Y-122914833D01*
X112792933Y-122914833D02*
X112860666Y-122880966D01*
X112894533Y-122847100D01*
X112928400Y-122779366D01*
X112928400Y-122576166D01*
X112894533Y-122508433D01*
X112860666Y-122474566D01*
X112792933Y-122440700D01*
X112691333Y-122440700D01*
X112623600Y-122474566D01*
X112589733Y-122508433D01*
X112555866Y-122576166D01*
X112555866Y-122779366D01*
X112589733Y-122847100D01*
X112623600Y-122880966D01*
X112691333Y-122914833D01*
X112792933Y-122914833D01*
X111709200Y-122440700D02*
X111709200Y-123151900D01*
X111709200Y-122474566D02*
X111641466Y-122440700D01*
X111506000Y-122440700D01*
X111438266Y-122474566D01*
X111404400Y-122508433D01*
X111370533Y-122576166D01*
X111370533Y-122779366D01*
X111404400Y-122847100D01*
X111438266Y-122880966D01*
X111506000Y-122914833D01*
X111641466Y-122914833D01*
X111709200Y-122880966D01*
X110964133Y-122914833D02*
X111031866Y-122880966D01*
X111065733Y-122847100D01*
X111099600Y-122779366D01*
X111099600Y-122576166D01*
X111065733Y-122508433D01*
X111031866Y-122474566D01*
X110964133Y-122440700D01*
X110862533Y-122440700D01*
X110794800Y-122474566D01*
X110760933Y-122508433D01*
X110727066Y-122576166D01*
X110727066Y-122779366D01*
X110760933Y-122847100D01*
X110794800Y-122880966D01*
X110862533Y-122914833D01*
X110964133Y-122914833D01*
X110490000Y-122440700D02*
X110354533Y-122914833D01*
X110219066Y-122576166D01*
X110083600Y-122914833D01*
X109948133Y-122440700D01*
X109406266Y-122880966D02*
X109474000Y-122914833D01*
X109609466Y-122914833D01*
X109677200Y-122880966D01*
X109711066Y-122813233D01*
X109711066Y-122542300D01*
X109677200Y-122474566D01*
X109609466Y-122440700D01*
X109474000Y-122440700D01*
X109406266Y-122474566D01*
X109372400Y-122542300D01*
X109372400Y-122610033D01*
X109711066Y-122677766D01*
X109067600Y-122914833D02*
X109067600Y-122440700D01*
X109067600Y-122576166D02*
X109033733Y-122508433D01*
X108999866Y-122474566D01*
X108932133Y-122440700D01*
X108864400Y-122440700D01*
X108153200Y-122440700D02*
X107983866Y-122914833D01*
X107814533Y-122440700D01*
X107543600Y-122914833D02*
X107543600Y-122440700D01*
X107543600Y-122203633D02*
X107577466Y-122237500D01*
X107543600Y-122271366D01*
X107509733Y-122237500D01*
X107543600Y-122203633D01*
X107543600Y-122271366D01*
X106900133Y-122914833D02*
X106900133Y-122542300D01*
X106934000Y-122474566D01*
X107001733Y-122440700D01*
X107137200Y-122440700D01*
X107204933Y-122474566D01*
X106900133Y-122880966D02*
X106967866Y-122914833D01*
X107137200Y-122914833D01*
X107204933Y-122880966D01*
X107238800Y-122813233D01*
X107238800Y-122745500D01*
X107204933Y-122677766D01*
X107137200Y-122643900D01*
X106967866Y-122643900D01*
X106900133Y-122610033D01*
X105782533Y-122542300D02*
X106019600Y-122542300D01*
X106019600Y-122914833D02*
X106019600Y-122203633D01*
X105680933Y-122203633D01*
X105511600Y-122203633D02*
X105105200Y-122203633D01*
X105308400Y-122914833D02*
X105308400Y-122203633D01*
X104868133Y-122914833D02*
X104868133Y-122203633D01*
X104698800Y-122203633D01*
X104597200Y-122237500D01*
X104529466Y-122305233D01*
X104495600Y-122372966D01*
X104461733Y-122508433D01*
X104461733Y-122610033D01*
X104495600Y-122745500D01*
X104529466Y-122813233D01*
X104597200Y-122880966D01*
X104698800Y-122914833D01*
X104868133Y-122914833D01*
X104156933Y-122914833D02*
X104156933Y-122203633D01*
X112064800Y-123634500D02*
X111929333Y-124108633D01*
X111793866Y-123769966D01*
X111658400Y-124108633D01*
X111522933Y-123634500D01*
X111252000Y-124108633D02*
X111252000Y-123397433D01*
X110947200Y-124108633D02*
X110947200Y-123736100D01*
X110981066Y-123668366D01*
X111048800Y-123634500D01*
X111150400Y-123634500D01*
X111218133Y-123668366D01*
X111252000Y-123702233D01*
X110337600Y-124074766D02*
X110405333Y-124108633D01*
X110540800Y-124108633D01*
X110608533Y-124074766D01*
X110642400Y-124007033D01*
X110642400Y-123736100D01*
X110608533Y-123668366D01*
X110540800Y-123634500D01*
X110405333Y-123634500D01*
X110337600Y-123668366D01*
X110303733Y-123736100D01*
X110303733Y-123803833D01*
X110642400Y-123871566D01*
X109998933Y-123634500D02*
X109998933Y-124108633D01*
X109998933Y-123702233D02*
X109965066Y-123668366D01*
X109897333Y-123634500D01*
X109795733Y-123634500D01*
X109728000Y-123668366D01*
X109694133Y-123736100D01*
X109694133Y-124108633D01*
X108813600Y-124108633D02*
X108813600Y-123397433D01*
X108813600Y-123668366D02*
X108745866Y-123634500D01*
X108610400Y-123634500D01*
X108542666Y-123668366D01*
X108508800Y-123702233D01*
X108474933Y-123769966D01*
X108474933Y-123973166D01*
X108508800Y-124040900D01*
X108542666Y-124074766D01*
X108610400Y-124108633D01*
X108745866Y-124108633D01*
X108813600Y-124074766D01*
X107865333Y-124108633D02*
X107865333Y-123736100D01*
X107899200Y-123668366D01*
X107966933Y-123634500D01*
X108102400Y-123634500D01*
X108170133Y-123668366D01*
X107865333Y-124074766D02*
X107933066Y-124108633D01*
X108102400Y-124108633D01*
X108170133Y-124074766D01*
X108204000Y-124007033D01*
X108204000Y-123939300D01*
X108170133Y-123871566D01*
X108102400Y-123837700D01*
X107933066Y-123837700D01*
X107865333Y-123803833D01*
X107628266Y-123634500D02*
X107357333Y-123634500D01*
X107526666Y-123397433D02*
X107526666Y-124007033D01*
X107492800Y-124074766D01*
X107425066Y-124108633D01*
X107357333Y-124108633D01*
X107221866Y-123634500D02*
X106950933Y-123634500D01*
X107120266Y-123397433D02*
X107120266Y-124007033D01*
X107086400Y-124074766D01*
X107018666Y-124108633D01*
X106950933Y-124108633D01*
X106442933Y-124074766D02*
X106510666Y-124108633D01*
X106646133Y-124108633D01*
X106713866Y-124074766D01*
X106747733Y-124007033D01*
X106747733Y-123736100D01*
X106713866Y-123668366D01*
X106646133Y-123634500D01*
X106510666Y-123634500D01*
X106442933Y-123668366D01*
X106409066Y-123736100D01*
X106409066Y-123803833D01*
X106747733Y-123871566D01*
X106104266Y-124108633D02*
X106104266Y-123634500D01*
X106104266Y-123769966D02*
X106070400Y-123702233D01*
X106036533Y-123668366D01*
X105968800Y-123634500D01*
X105901066Y-123634500D01*
X105731733Y-123634500D02*
X105562400Y-124108633D01*
X105393066Y-123634500D02*
X105562400Y-124108633D01*
X105630133Y-124277966D01*
X105664000Y-124311833D01*
X105731733Y-124345700D01*
X111472133Y-125302433D02*
X111472133Y-124591233D01*
X111472133Y-125268566D02*
X111539866Y-125302433D01*
X111675333Y-125302433D01*
X111743066Y-125268566D01*
X111776933Y-125234700D01*
X111810800Y-125166966D01*
X111810800Y-124963766D01*
X111776933Y-124896033D01*
X111743066Y-124862166D01*
X111675333Y-124828300D01*
X111539866Y-124828300D01*
X111472133Y-124862166D01*
X111133466Y-125302433D02*
X111133466Y-124828300D01*
X111133466Y-124591233D02*
X111167333Y-124625100D01*
X111133466Y-124658966D01*
X111099600Y-124625100D01*
X111133466Y-124591233D01*
X111133466Y-124658966D01*
X110828666Y-125268566D02*
X110760933Y-125302433D01*
X110625466Y-125302433D01*
X110557733Y-125268566D01*
X110523866Y-125200833D01*
X110523866Y-125166966D01*
X110557733Y-125099233D01*
X110625466Y-125065366D01*
X110727066Y-125065366D01*
X110794800Y-125031500D01*
X110828666Y-124963766D01*
X110828666Y-124929900D01*
X110794800Y-124862166D01*
X110727066Y-124828300D01*
X110625466Y-124828300D01*
X110557733Y-124862166D01*
X109914266Y-125268566D02*
X109982000Y-125302433D01*
X110117466Y-125302433D01*
X110185200Y-125268566D01*
X110219066Y-125234700D01*
X110252933Y-125166966D01*
X110252933Y-124963766D01*
X110219066Y-124896033D01*
X110185200Y-124862166D01*
X110117466Y-124828300D01*
X109982000Y-124828300D01*
X109914266Y-124862166D01*
X109507866Y-125302433D02*
X109575600Y-125268566D01*
X109609466Y-125234700D01*
X109643333Y-125166966D01*
X109643333Y-124963766D01*
X109609466Y-124896033D01*
X109575600Y-124862166D01*
X109507866Y-124828300D01*
X109406266Y-124828300D01*
X109338533Y-124862166D01*
X109304666Y-124896033D01*
X109270800Y-124963766D01*
X109270800Y-125166966D01*
X109304666Y-125234700D01*
X109338533Y-125268566D01*
X109406266Y-125302433D01*
X109507866Y-125302433D01*
X108966000Y-124828300D02*
X108966000Y-125302433D01*
X108966000Y-124896033D02*
X108932133Y-124862166D01*
X108864400Y-124828300D01*
X108762800Y-124828300D01*
X108695066Y-124862166D01*
X108661200Y-124929900D01*
X108661200Y-125302433D01*
X108322533Y-124828300D02*
X108322533Y-125302433D01*
X108322533Y-124896033D02*
X108288666Y-124862166D01*
X108220933Y-124828300D01*
X108119333Y-124828300D01*
X108051600Y-124862166D01*
X108017733Y-124929900D01*
X108017733Y-125302433D01*
X107408133Y-125268566D02*
X107475866Y-125302433D01*
X107611333Y-125302433D01*
X107679066Y-125268566D01*
X107712933Y-125200833D01*
X107712933Y-124929900D01*
X107679066Y-124862166D01*
X107611333Y-124828300D01*
X107475866Y-124828300D01*
X107408133Y-124862166D01*
X107374266Y-124929900D01*
X107374266Y-124997633D01*
X107712933Y-125065366D01*
X106764666Y-125268566D02*
X106832400Y-125302433D01*
X106967866Y-125302433D01*
X107035600Y-125268566D01*
X107069466Y-125234700D01*
X107103333Y-125166966D01*
X107103333Y-124963766D01*
X107069466Y-124896033D01*
X107035600Y-124862166D01*
X106967866Y-124828300D01*
X106832400Y-124828300D01*
X106764666Y-124862166D01*
X106561466Y-124828300D02*
X106290533Y-124828300D01*
X106459866Y-124591233D02*
X106459866Y-125200833D01*
X106426000Y-125268566D01*
X106358266Y-125302433D01*
X106290533Y-125302433D01*
X105782533Y-125268566D02*
X105850266Y-125302433D01*
X105985733Y-125302433D01*
X106053466Y-125268566D01*
X106087333Y-125200833D01*
X106087333Y-124929900D01*
X106053466Y-124862166D01*
X105985733Y-124828300D01*
X105850266Y-124828300D01*
X105782533Y-124862166D01*
X105748666Y-124929900D01*
X105748666Y-124997633D01*
X106087333Y-125065366D01*
X105139066Y-125302433D02*
X105139066Y-124591233D01*
X105139066Y-125268566D02*
X105206800Y-125302433D01*
X105342266Y-125302433D01*
X105410000Y-125268566D01*
X105443866Y-125234700D01*
X105477733Y-125166966D01*
X105477733Y-124963766D01*
X105443866Y-124896033D01*
X105410000Y-124862166D01*
X105342266Y-124828300D01*
X105206800Y-124828300D01*
X105139066Y-124862166D01*
X191850433Y-131055533D02*
X191850433Y-130344333D01*
X191850433Y-130683000D02*
X191444033Y-130683000D01*
X191444033Y-131055533D02*
X191444033Y-130344333D01*
X191139233Y-130852333D02*
X190800566Y-130852333D01*
X191206966Y-131055533D02*
X190969900Y-130344333D01*
X190732833Y-131055533D01*
X190157100Y-131055533D02*
X190495766Y-131055533D01*
X190495766Y-130344333D01*
X189581366Y-131055533D02*
X189920033Y-131055533D01*
X189920033Y-130344333D01*
X191968966Y-127499533D02*
X191968966Y-126788333D01*
X191968966Y-127127000D02*
X191562566Y-127127000D01*
X191562566Y-127499533D02*
X191562566Y-126788333D01*
X191223900Y-127127000D02*
X190986833Y-127127000D01*
X190885233Y-127499533D02*
X191223900Y-127499533D01*
X191223900Y-126788333D01*
X190885233Y-126788333D01*
X190614300Y-127296333D02*
X190275633Y-127296333D01*
X190682033Y-127499533D02*
X190444966Y-126788333D01*
X190207900Y-127499533D01*
X189564433Y-127499533D02*
X189801500Y-127160866D01*
X189970833Y-127499533D02*
X189970833Y-126788333D01*
X189699900Y-126788333D01*
X189632166Y-126822200D01*
X189598300Y-126856066D01*
X189564433Y-126923800D01*
X189564433Y-127025400D01*
X189598300Y-127093133D01*
X189632166Y-127127000D01*
X189699900Y-127160866D01*
X189970833Y-127160866D01*
X189361233Y-126788333D02*
X188954833Y-126788333D01*
X189158033Y-127499533D02*
X189158033Y-126788333D01*
X194102566Y-121505133D02*
X194136433Y-121606733D01*
X194136433Y-121776066D01*
X194102566Y-121843800D01*
X194068700Y-121877666D01*
X194000966Y-121911533D01*
X193933233Y-121911533D01*
X193865500Y-121877666D01*
X193831633Y-121843800D01*
X193797766Y-121776066D01*
X193763900Y-121640600D01*
X193730033Y-121572866D01*
X193696166Y-121539000D01*
X193628433Y-121505133D01*
X193560700Y-121505133D01*
X193492966Y-121539000D01*
X193459100Y-121572866D01*
X193425233Y-121640600D01*
X193425233Y-121809933D01*
X193459100Y-121911533D01*
X194068700Y-122622733D02*
X194102566Y-122588866D01*
X194136433Y-122487266D01*
X194136433Y-122419533D01*
X194102566Y-122317933D01*
X194034833Y-122250200D01*
X193967100Y-122216333D01*
X193831633Y-122182466D01*
X193730033Y-122182466D01*
X193594566Y-122216333D01*
X193526833Y-122250200D01*
X193459100Y-122317933D01*
X193425233Y-122419533D01*
X193425233Y-122487266D01*
X193459100Y-122588866D01*
X193492966Y-122622733D01*
X194136433Y-123266200D02*
X194136433Y-122927533D01*
X193425233Y-122927533D01*
X192324566Y-121488200D02*
X192358433Y-121589800D01*
X192358433Y-121759133D01*
X192324566Y-121826866D01*
X192290700Y-121860733D01*
X192222966Y-121894600D01*
X192155233Y-121894600D01*
X192087500Y-121860733D01*
X192053633Y-121826866D01*
X192019766Y-121759133D01*
X191985900Y-121623666D01*
X191952033Y-121555933D01*
X191918166Y-121522066D01*
X191850433Y-121488200D01*
X191782700Y-121488200D01*
X191714966Y-121522066D01*
X191681100Y-121555933D01*
X191647233Y-121623666D01*
X191647233Y-121793000D01*
X191681100Y-121894600D01*
X192358433Y-122199400D02*
X191647233Y-122199400D01*
X191647233Y-122368733D01*
X191681100Y-122470333D01*
X191748833Y-122538066D01*
X191816566Y-122571933D01*
X191952033Y-122605800D01*
X192053633Y-122605800D01*
X192189100Y-122571933D01*
X192256833Y-122538066D01*
X192324566Y-122470333D01*
X192358433Y-122368733D01*
X192358433Y-122199400D01*
X192155233Y-122876733D02*
X192155233Y-123215400D01*
X192358433Y-122809000D02*
X191647233Y-123046066D01*
X192358433Y-123283133D01*
X189615233Y-121403533D02*
X190326433Y-121640600D01*
X189615233Y-121877666D01*
X190326433Y-122114733D02*
X189615233Y-122114733D01*
X189615233Y-122284066D01*
X189649100Y-122385666D01*
X189716833Y-122453400D01*
X189784566Y-122487266D01*
X189920033Y-122521133D01*
X190021633Y-122521133D01*
X190157100Y-122487266D01*
X190224833Y-122453400D01*
X190292566Y-122385666D01*
X190326433Y-122284066D01*
X190326433Y-122114733D01*
X190326433Y-122825933D02*
X189615233Y-122825933D01*
X189615233Y-122995266D01*
X189649100Y-123096866D01*
X189716833Y-123164600D01*
X189784566Y-123198466D01*
X189920033Y-123232333D01*
X190021633Y-123232333D01*
X190157100Y-123198466D01*
X190224833Y-123164600D01*
X190292566Y-123096866D01*
X190326433Y-122995266D01*
X190326433Y-122825933D01*
X187617100Y-121809933D02*
X187583233Y-121742200D01*
X187583233Y-121640600D01*
X187617100Y-121539000D01*
X187684833Y-121471266D01*
X187752566Y-121437400D01*
X187888033Y-121403533D01*
X187989633Y-121403533D01*
X188125100Y-121437400D01*
X188192833Y-121471266D01*
X188260566Y-121539000D01*
X188294433Y-121640600D01*
X188294433Y-121708333D01*
X188260566Y-121809933D01*
X188226700Y-121843800D01*
X187989633Y-121843800D01*
X187989633Y-121708333D01*
X188294433Y-122148600D02*
X187583233Y-122148600D01*
X188294433Y-122555000D01*
X187583233Y-122555000D01*
X188294433Y-122893666D02*
X187583233Y-122893666D01*
X187583233Y-123063000D01*
X187617100Y-123164600D01*
X187684833Y-123232333D01*
X187752566Y-123266200D01*
X187888033Y-123300066D01*
X187989633Y-123300066D01*
X188125100Y-123266200D01*
X188192833Y-123232333D01*
X188260566Y-123164600D01*
X188294433Y-123063000D01*
X188294433Y-122893666D01*
X187617100Y-134509933D02*
X187583233Y-134442200D01*
X187583233Y-134340600D01*
X187617100Y-134239000D01*
X187684833Y-134171266D01*
X187752566Y-134137400D01*
X187888033Y-134103533D01*
X187989633Y-134103533D01*
X188125100Y-134137400D01*
X188192833Y-134171266D01*
X188260566Y-134239000D01*
X188294433Y-134340600D01*
X188294433Y-134408333D01*
X188260566Y-134509933D01*
X188226700Y-134543800D01*
X187989633Y-134543800D01*
X187989633Y-134408333D01*
X188294433Y-134848600D02*
X187583233Y-134848600D01*
X188294433Y-135255000D01*
X187583233Y-135255000D01*
X188294433Y-135593666D02*
X187583233Y-135593666D01*
X187583233Y-135763000D01*
X187617100Y-135864600D01*
X187684833Y-135932333D01*
X187752566Y-135966200D01*
X187888033Y-136000066D01*
X187989633Y-136000066D01*
X188125100Y-135966200D01*
X188192833Y-135932333D01*
X188260566Y-135864600D01*
X188294433Y-135763000D01*
X188294433Y-135593666D01*
X189615233Y-134103533D02*
X190326433Y-134340600D01*
X189615233Y-134577666D01*
X190326433Y-134814733D02*
X189615233Y-134814733D01*
X189615233Y-134984066D01*
X189649100Y-135085666D01*
X189716833Y-135153400D01*
X189784566Y-135187266D01*
X189920033Y-135221133D01*
X190021633Y-135221133D01*
X190157100Y-135187266D01*
X190224833Y-135153400D01*
X190292566Y-135085666D01*
X190326433Y-134984066D01*
X190326433Y-134814733D01*
X190326433Y-135525933D02*
X189615233Y-135525933D01*
X189615233Y-135695266D01*
X189649100Y-135796866D01*
X189716833Y-135864600D01*
X189784566Y-135898466D01*
X189920033Y-135932333D01*
X190021633Y-135932333D01*
X190157100Y-135898466D01*
X190224833Y-135864600D01*
X190292566Y-135796866D01*
X190326433Y-135695266D01*
X190326433Y-135525933D01*
X194356566Y-133815666D02*
X194390433Y-133917266D01*
X194390433Y-134086600D01*
X194356566Y-134154333D01*
X194322700Y-134188200D01*
X194254966Y-134222066D01*
X194187233Y-134222066D01*
X194119500Y-134188200D01*
X194085633Y-134154333D01*
X194051766Y-134086600D01*
X194017900Y-133951133D01*
X193984033Y-133883400D01*
X193950166Y-133849533D01*
X193882433Y-133815666D01*
X193814700Y-133815666D01*
X193746966Y-133849533D01*
X193713100Y-133883400D01*
X193679233Y-133951133D01*
X193679233Y-134120466D01*
X193713100Y-134222066D01*
X194390433Y-134865533D02*
X194390433Y-134526866D01*
X193679233Y-134526866D01*
X194017900Y-135102600D02*
X194017900Y-135339666D01*
X194390433Y-135441266D02*
X194390433Y-135102600D01*
X193679233Y-135102600D01*
X193679233Y-135441266D01*
X194017900Y-135746066D02*
X194017900Y-135983133D01*
X194390433Y-136084733D02*
X194390433Y-135746066D01*
X193679233Y-135746066D01*
X193679233Y-136084733D01*
X194390433Y-136389533D02*
X193679233Y-136389533D01*
X193679233Y-136660466D01*
X193713100Y-136728200D01*
X193746966Y-136762066D01*
X193814700Y-136795933D01*
X193916300Y-136795933D01*
X193984033Y-136762066D01*
X194017900Y-136728200D01*
X194051766Y-136660466D01*
X194051766Y-136389533D01*
X191647233Y-134086600D02*
X191647233Y-134222066D01*
X191681100Y-134289800D01*
X191748833Y-134357533D01*
X191884300Y-134391400D01*
X192121366Y-134391400D01*
X192256833Y-134357533D01*
X192324566Y-134289800D01*
X192358433Y-134222066D01*
X192358433Y-134086600D01*
X192324566Y-134018866D01*
X192256833Y-133951133D01*
X192121366Y-133917266D01*
X191884300Y-133917266D01*
X191748833Y-133951133D01*
X191681100Y-134018866D01*
X191647233Y-134086600D01*
X191647233Y-134696200D02*
X192222966Y-134696200D01*
X192290700Y-134730066D01*
X192324566Y-134763933D01*
X192358433Y-134831666D01*
X192358433Y-134967133D01*
X192324566Y-135034866D01*
X192290700Y-135068733D01*
X192222966Y-135102600D01*
X191647233Y-135102600D01*
X191647233Y-135339666D02*
X191647233Y-135746066D01*
X192358433Y-135542866D02*
X191647233Y-135542866D01*
X173092533Y-135195733D02*
X173092533Y-134484533D01*
X172821600Y-134484533D01*
X172753866Y-134518400D01*
X172720000Y-134552266D01*
X172686133Y-134620000D01*
X172686133Y-134721600D01*
X172720000Y-134789333D01*
X172753866Y-134823200D01*
X172821600Y-134857066D01*
X173092533Y-134857066D01*
X172381333Y-135195733D02*
X172381333Y-134484533D01*
X172212000Y-134484533D01*
X172110400Y-134518400D01*
X172042666Y-134586133D01*
X172008800Y-134653866D01*
X171974933Y-134789333D01*
X171974933Y-134890933D01*
X172008800Y-135026400D01*
X172042666Y-135094133D01*
X172110400Y-135161866D01*
X172212000Y-135195733D01*
X172381333Y-135195733D01*
X171365333Y-134721600D02*
X171365333Y-135195733D01*
X171534666Y-134450666D02*
X171704000Y-134958666D01*
X171263733Y-134958666D01*
X175632533Y-135195733D02*
X175632533Y-134484533D01*
X175361600Y-134484533D01*
X175293866Y-134518400D01*
X175260000Y-134552266D01*
X175226133Y-134620000D01*
X175226133Y-134721600D01*
X175260000Y-134789333D01*
X175293866Y-134823200D01*
X175361600Y-134857066D01*
X175632533Y-134857066D01*
X174921333Y-135195733D02*
X174921333Y-134484533D01*
X174752000Y-134484533D01*
X174650400Y-134518400D01*
X174582666Y-134586133D01*
X174548800Y-134653866D01*
X174514933Y-134789333D01*
X174514933Y-134890933D01*
X174548800Y-135026400D01*
X174582666Y-135094133D01*
X174650400Y-135161866D01*
X174752000Y-135195733D01*
X174921333Y-135195733D01*
X173871466Y-134484533D02*
X174210133Y-134484533D01*
X174244000Y-134823200D01*
X174210133Y-134789333D01*
X174142400Y-134755466D01*
X173973066Y-134755466D01*
X173905333Y-134789333D01*
X173871466Y-134823200D01*
X173837600Y-134890933D01*
X173837600Y-135060266D01*
X173871466Y-135128000D01*
X173905333Y-135161866D01*
X173973066Y-135195733D01*
X174142400Y-135195733D01*
X174210133Y-135161866D01*
X174244000Y-135128000D01*
X178443466Y-134992533D02*
X178104800Y-134992533D01*
X178511200Y-135195733D02*
X178274133Y-134484533D01*
X178037066Y-135195733D01*
X177393600Y-135195733D02*
X177630666Y-134857066D01*
X177800000Y-135195733D02*
X177800000Y-134484533D01*
X177529066Y-134484533D01*
X177461333Y-134518400D01*
X177427466Y-134552266D01*
X177393600Y-134620000D01*
X177393600Y-134721600D01*
X177427466Y-134789333D01*
X177461333Y-134823200D01*
X177529066Y-134857066D01*
X177800000Y-134857066D01*
X177088800Y-134823200D02*
X176851733Y-134823200D01*
X176750133Y-135195733D02*
X177088800Y-135195733D01*
X177088800Y-134484533D01*
X176750133Y-134484533D01*
X176208266Y-134823200D02*
X176445333Y-134823200D01*
X176445333Y-135195733D02*
X176445333Y-134484533D01*
X176106666Y-134484533D01*
X180475466Y-134505700D02*
X180543200Y-134471833D01*
X180644800Y-134471833D01*
X180746400Y-134505700D01*
X180814133Y-134573433D01*
X180848000Y-134641166D01*
X180881866Y-134776633D01*
X180881866Y-134878233D01*
X180848000Y-135013700D01*
X180814133Y-135081433D01*
X180746400Y-135149166D01*
X180644800Y-135183033D01*
X180577066Y-135183033D01*
X180475466Y-135149166D01*
X180441600Y-135115300D01*
X180441600Y-134878233D01*
X180577066Y-134878233D01*
X180136800Y-135183033D02*
X180136800Y-134471833D01*
X179730400Y-135183033D01*
X179730400Y-134471833D01*
X179391733Y-135183033D02*
X179391733Y-134471833D01*
X179222400Y-134471833D01*
X179120800Y-134505700D01*
X179053066Y-134573433D01*
X179019200Y-134641166D01*
X178985333Y-134776633D01*
X178985333Y-134878233D01*
X179019200Y-135013700D01*
X179053066Y-135081433D01*
X179120800Y-135149166D01*
X179222400Y-135183033D01*
X179391733Y-135183033D01*
X161577866Y-134518400D02*
X161645600Y-134484533D01*
X161747200Y-134484533D01*
X161848800Y-134518400D01*
X161916533Y-134586133D01*
X161950400Y-134653866D01*
X161984266Y-134789333D01*
X161984266Y-134890933D01*
X161950400Y-135026400D01*
X161916533Y-135094133D01*
X161848800Y-135161866D01*
X161747200Y-135195733D01*
X161679466Y-135195733D01*
X161577866Y-135161866D01*
X161544000Y-135128000D01*
X161544000Y-134890933D01*
X161679466Y-134890933D01*
X161239200Y-135195733D02*
X161239200Y-134484533D01*
X160832800Y-135195733D01*
X160832800Y-134484533D01*
X160494133Y-135195733D02*
X160494133Y-134484533D01*
X160324800Y-134484533D01*
X160223200Y-134518400D01*
X160155466Y-134586133D01*
X160121600Y-134653866D01*
X160087733Y-134789333D01*
X160087733Y-134890933D01*
X160121600Y-135026400D01*
X160155466Y-135094133D01*
X160223200Y-135161866D01*
X160324800Y-135195733D01*
X160494133Y-135195733D01*
X167233600Y-134540171D02*
X167030400Y-135149771D01*
X166827200Y-134540171D01*
X166420800Y-134830457D02*
X166333714Y-134859485D01*
X166304685Y-134888514D01*
X166275657Y-134946571D01*
X166275657Y-135033657D01*
X166304685Y-135091714D01*
X166333714Y-135120742D01*
X166391771Y-135149771D01*
X166624000Y-135149771D01*
X166624000Y-134540171D01*
X166420800Y-134540171D01*
X166362742Y-134569200D01*
X166333714Y-134598228D01*
X166304685Y-134656285D01*
X166304685Y-134714342D01*
X166333714Y-134772400D01*
X166362742Y-134801428D01*
X166420800Y-134830457D01*
X166624000Y-134830457D01*
X166014400Y-134540171D02*
X166014400Y-135033657D01*
X165985371Y-135091714D01*
X165956342Y-135120742D01*
X165898285Y-135149771D01*
X165782171Y-135149771D01*
X165724114Y-135120742D01*
X165695085Y-135091714D01*
X165666057Y-135033657D01*
X165666057Y-134540171D01*
X165404800Y-135120742D02*
X165317714Y-135149771D01*
X165172571Y-135149771D01*
X165114514Y-135120742D01*
X165085485Y-135091714D01*
X165056457Y-135033657D01*
X165056457Y-134975600D01*
X165085485Y-134917542D01*
X165114514Y-134888514D01*
X165172571Y-134859485D01*
X165288685Y-134830457D01*
X165346742Y-134801428D01*
X165375771Y-134772400D01*
X165404800Y-134714342D01*
X165404800Y-134656285D01*
X165375771Y-134598228D01*
X165346742Y-134569200D01*
X165288685Y-134540171D01*
X165143542Y-134540171D01*
X165056457Y-134569200D01*
X164456533Y-135195733D02*
X164456533Y-134484533D01*
X164185600Y-134484533D01*
X164117866Y-134518400D01*
X164084000Y-134552266D01*
X164050133Y-134620000D01*
X164050133Y-134721600D01*
X164084000Y-134789333D01*
X164117866Y-134823200D01*
X164185600Y-134857066D01*
X164456533Y-134857066D01*
X163745333Y-135195733D02*
X163745333Y-134484533D01*
X163576000Y-134484533D01*
X163474400Y-134518400D01*
X163406666Y-134586133D01*
X163372800Y-134653866D01*
X163338933Y-134789333D01*
X163338933Y-134890933D01*
X163372800Y-135026400D01*
X163406666Y-135094133D01*
X163474400Y-135161866D01*
X163576000Y-135195733D01*
X163745333Y-135195733D01*
X163068000Y-134552266D02*
X163034133Y-134518400D01*
X162966400Y-134484533D01*
X162797066Y-134484533D01*
X162729333Y-134518400D01*
X162695466Y-134552266D01*
X162661600Y-134620000D01*
X162661600Y-134687733D01*
X162695466Y-134789333D01*
X163101866Y-135195733D01*
X162661600Y-135195733D01*
X133316133Y-123952000D02*
X133350000Y-123985866D01*
X133451600Y-124019733D01*
X133519333Y-124019733D01*
X133620933Y-123985866D01*
X133688666Y-123918133D01*
X133722533Y-123850400D01*
X133756400Y-123714933D01*
X133756400Y-123613333D01*
X133722533Y-123477866D01*
X133688666Y-123410133D01*
X133620933Y-123342400D01*
X133519333Y-123308533D01*
X133451600Y-123308533D01*
X133350000Y-123342400D01*
X133316133Y-123376266D01*
X132604933Y-124019733D02*
X132842000Y-123681066D01*
X133011333Y-124019733D02*
X133011333Y-123308533D01*
X132740400Y-123308533D01*
X132672666Y-123342400D01*
X132638800Y-123376266D01*
X132604933Y-123444000D01*
X132604933Y-123545600D01*
X132638800Y-123613333D01*
X132672666Y-123647200D01*
X132740400Y-123681066D01*
X133011333Y-123681066D01*
X131927600Y-124019733D02*
X132334000Y-124019733D01*
X132130800Y-124019733D02*
X132130800Y-123308533D01*
X132198533Y-123410133D01*
X132266266Y-123477866D01*
X132334000Y-123511733D01*
X131656666Y-123376266D02*
X131622800Y-123342400D01*
X131555066Y-123308533D01*
X131385733Y-123308533D01*
X131318000Y-123342400D01*
X131284133Y-123376266D01*
X131250266Y-123444000D01*
X131250266Y-123511733D01*
X131284133Y-123613333D01*
X131690533Y-124019733D01*
X131250266Y-124019733D01*
X130979333Y-123376266D02*
X130945466Y-123342400D01*
X130877733Y-123308533D01*
X130708400Y-123308533D01*
X130640666Y-123342400D01*
X130606800Y-123376266D01*
X130572933Y-123444000D01*
X130572933Y-123511733D01*
X130606800Y-123613333D01*
X131013200Y-124019733D01*
X130572933Y-124019733D01*
X130132666Y-123308533D02*
X130064933Y-123308533D01*
X129997200Y-123342400D01*
X129963333Y-123376266D01*
X129929466Y-123444000D01*
X129895600Y-123579466D01*
X129895600Y-123748800D01*
X129929466Y-123884266D01*
X129963333Y-123952000D01*
X129997200Y-123985866D01*
X130064933Y-124019733D01*
X130132666Y-124019733D01*
X130200400Y-123985866D01*
X130234266Y-123952000D01*
X130268133Y-123884266D01*
X130302000Y-123748800D01*
X130302000Y-123579466D01*
X130268133Y-123444000D01*
X130234266Y-123376266D01*
X130200400Y-123342400D01*
X130132666Y-123308533D01*
D11*
X117522171Y-137232571D02*
X117473790Y-137087428D01*
X117425409Y-137039047D01*
X117328647Y-136990666D01*
X117183504Y-136990666D01*
X117086742Y-137039047D01*
X117038361Y-137087428D01*
X116989980Y-137184190D01*
X116989980Y-137571238D01*
X118005980Y-137571238D01*
X118005980Y-137232571D01*
X117957600Y-137135809D01*
X117909219Y-137087428D01*
X117812457Y-137039047D01*
X117715695Y-137039047D01*
X117618933Y-137087428D01*
X117570552Y-137135809D01*
X117522171Y-137232571D01*
X117522171Y-137571238D01*
X116989980Y-136555238D02*
X117667314Y-136555238D01*
X118005980Y-136555238D02*
X117957600Y-136603619D01*
X117909219Y-136555238D01*
X117957600Y-136506857D01*
X118005980Y-136555238D01*
X117909219Y-136555238D01*
X117667314Y-136168190D02*
X116989980Y-135926285D01*
X117667314Y-135684380D01*
X116989980Y-134861904D02*
X117522171Y-134861904D01*
X117618933Y-134910285D01*
X117667314Y-135007047D01*
X117667314Y-135200571D01*
X117618933Y-135297333D01*
X117038361Y-134861904D02*
X116989980Y-134958666D01*
X116989980Y-135200571D01*
X117038361Y-135297333D01*
X117135123Y-135345714D01*
X117231885Y-135345714D01*
X117328647Y-135297333D01*
X117377028Y-135200571D01*
X117377028Y-134958666D01*
X117425409Y-134861904D01*
X116989980Y-134232952D02*
X117038361Y-134329714D01*
X117135123Y-134378095D01*
X118005980Y-134378095D01*
X117667314Y-133942666D02*
X116989980Y-133700761D01*
X117667314Y-133458857D01*
X117038361Y-132684761D02*
X116989980Y-132781523D01*
X116989980Y-132975047D01*
X117038361Y-133071809D01*
X117135123Y-133120190D01*
X117522171Y-133120190D01*
X117618933Y-133071809D01*
X117667314Y-132975047D01*
X117667314Y-132781523D01*
X117618933Y-132684761D01*
X117522171Y-132636380D01*
X117425409Y-132636380D01*
X117328647Y-133120190D01*
X117522171Y-131862285D02*
X117473790Y-131717142D01*
X117425409Y-131668761D01*
X117328647Y-131620380D01*
X117183504Y-131620380D01*
X117086742Y-131668761D01*
X117038361Y-131717142D01*
X116989980Y-131813904D01*
X116989980Y-132200952D01*
X118005980Y-132200952D01*
X118005980Y-131862285D01*
X117957600Y-131765523D01*
X117909219Y-131717142D01*
X117812457Y-131668761D01*
X117715695Y-131668761D01*
X117618933Y-131717142D01*
X117570552Y-131765523D01*
X117522171Y-131862285D01*
X117522171Y-132200952D01*
X116989980Y-131184952D02*
X117667314Y-131184952D01*
X118005980Y-131184952D02*
X117957600Y-131233333D01*
X117909219Y-131184952D01*
X117957600Y-131136571D01*
X118005980Y-131184952D01*
X117909219Y-131184952D01*
X117667314Y-130846285D02*
X117667314Y-130459238D01*
X118005980Y-130701142D02*
X117135123Y-130701142D01*
X117038361Y-130652761D01*
X116989980Y-130555999D01*
X116989980Y-130459238D01*
X116989980Y-128765904D02*
X117473790Y-129104571D01*
X116989980Y-129346476D02*
X118005980Y-129346476D01*
X118005980Y-128959428D01*
X117957600Y-128862666D01*
X117909219Y-128814285D01*
X117812457Y-128765904D01*
X117667314Y-128765904D01*
X117570552Y-128814285D01*
X117522171Y-128862666D01*
X117473790Y-128959428D01*
X117473790Y-129346476D01*
X117038361Y-127943428D02*
X116989980Y-128040190D01*
X116989980Y-128233714D01*
X117038361Y-128330476D01*
X117135123Y-128378857D01*
X117522171Y-128378857D01*
X117618933Y-128330476D01*
X117667314Y-128233714D01*
X117667314Y-128040190D01*
X117618933Y-127943428D01*
X117522171Y-127895047D01*
X117425409Y-127895047D01*
X117328647Y-128378857D01*
X117667314Y-127556380D02*
X116989980Y-127314476D01*
X117667314Y-127072571D01*
X117522171Y-126346857D02*
X117473790Y-126201714D01*
X117425409Y-126153333D01*
X117328647Y-126104952D01*
X117183504Y-126104952D01*
X117086742Y-126153333D01*
X117038361Y-126201714D01*
X116989980Y-126298476D01*
X116989980Y-126685523D01*
X118005980Y-126685523D01*
X118005980Y-126346857D01*
X117957600Y-126250095D01*
X117909219Y-126201714D01*
X117812457Y-126153333D01*
X117715695Y-126153333D01*
X117618933Y-126201714D01*
X117570552Y-126250095D01*
X117522171Y-126346857D01*
X117522171Y-126685523D01*
X117909219Y-124943809D02*
X117957600Y-124895428D01*
X118005980Y-124798666D01*
X118005980Y-124556761D01*
X117957600Y-124459999D01*
X117909219Y-124411619D01*
X117812457Y-124363238D01*
X117715695Y-124363238D01*
X117570552Y-124411619D01*
X116989980Y-124992190D01*
X116989980Y-124363238D01*
X118005980Y-123734285D02*
X118005980Y-123637523D01*
X117957600Y-123540761D01*
X117909219Y-123492380D01*
X117812457Y-123443999D01*
X117618933Y-123395619D01*
X117377028Y-123395619D01*
X117183504Y-123443999D01*
X117086742Y-123492380D01*
X117038361Y-123540761D01*
X116989980Y-123637523D01*
X116989980Y-123734285D01*
X117038361Y-123831047D01*
X117086742Y-123879428D01*
X117183504Y-123927809D01*
X117377028Y-123976190D01*
X117618933Y-123976190D01*
X117812457Y-123927809D01*
X117909219Y-123879428D01*
X117957600Y-123831047D01*
X118005980Y-123734285D01*
X117909219Y-123008571D02*
X117957600Y-122960190D01*
X118005980Y-122863428D01*
X118005980Y-122621523D01*
X117957600Y-122524761D01*
X117909219Y-122476380D01*
X117812457Y-122427999D01*
X117715695Y-122427999D01*
X117570552Y-122476380D01*
X116989980Y-123056952D01*
X116989980Y-122427999D01*
X116989980Y-121460380D02*
X116989980Y-122040952D01*
X116989980Y-121750666D02*
X118005980Y-121750666D01*
X117860838Y-121847428D01*
X117764076Y-121944190D01*
X117715695Y-122040952D01*
X115262780Y-137160000D02*
X115311161Y-137256761D01*
X115407923Y-137305142D01*
X116278780Y-137305142D01*
X115940114Y-136337523D02*
X115262780Y-136337523D01*
X115940114Y-136772952D02*
X115407923Y-136772952D01*
X115311161Y-136724571D01*
X115262780Y-136627809D01*
X115262780Y-136482666D01*
X115311161Y-136385904D01*
X115359542Y-136337523D01*
X115262780Y-135853714D02*
X116278780Y-135853714D01*
X115649828Y-135756952D02*
X115262780Y-135466666D01*
X115940114Y-135466666D02*
X115553066Y-135853714D01*
X115311161Y-134644190D02*
X115262780Y-134740952D01*
X115262780Y-134934476D01*
X115311161Y-135031238D01*
X115407923Y-135079619D01*
X115794971Y-135079619D01*
X115891733Y-135031238D01*
X115940114Y-134934476D01*
X115940114Y-134740952D01*
X115891733Y-134644190D01*
X115794971Y-134595809D01*
X115698209Y-134595809D01*
X115601447Y-135079619D01*
X115359542Y-134160380D02*
X115311161Y-134112000D01*
X115262780Y-134160380D01*
X115311161Y-134208761D01*
X115359542Y-134160380D01*
X115262780Y-134160380D01*
X115262780Y-133676571D02*
X115940114Y-133676571D01*
X115843352Y-133676571D02*
X115891733Y-133628190D01*
X115940114Y-133531428D01*
X115940114Y-133386285D01*
X115891733Y-133289523D01*
X115794971Y-133241142D01*
X115262780Y-133241142D01*
X115794971Y-133241142D02*
X115891733Y-133192761D01*
X115940114Y-133096000D01*
X115940114Y-132950857D01*
X115891733Y-132854095D01*
X115794971Y-132805714D01*
X115262780Y-132805714D01*
X115262780Y-132321904D02*
X115940114Y-132321904D01*
X116278780Y-132321904D02*
X116230400Y-132370285D01*
X116182019Y-132321904D01*
X116230400Y-132273523D01*
X116278780Y-132321904D01*
X116182019Y-132321904D01*
X115262780Y-131692952D02*
X115311161Y-131789714D01*
X115407923Y-131838095D01*
X116278780Y-131838095D01*
X115262780Y-131160761D02*
X115311161Y-131257523D01*
X115407923Y-131305904D01*
X116278780Y-131305904D01*
X115311161Y-130386666D02*
X115262780Y-130483428D01*
X115262780Y-130676952D01*
X115311161Y-130773714D01*
X115407923Y-130822095D01*
X115794971Y-130822095D01*
X115891733Y-130773714D01*
X115940114Y-130676952D01*
X115940114Y-130483428D01*
X115891733Y-130386666D01*
X115794971Y-130338285D01*
X115698209Y-130338285D01*
X115601447Y-130822095D01*
X115262780Y-129902857D02*
X115940114Y-129902857D01*
X115746590Y-129902857D02*
X115843352Y-129854476D01*
X115891733Y-129806095D01*
X115940114Y-129709333D01*
X115940114Y-129612571D01*
X115746590Y-128644952D02*
X115794971Y-128693333D01*
X115843352Y-128790095D01*
X115843352Y-128886857D01*
X115794971Y-128983619D01*
X115746590Y-129032000D01*
X115649828Y-129080380D01*
X115553066Y-129080380D01*
X115456304Y-129032000D01*
X115407923Y-128983619D01*
X115359542Y-128886857D01*
X115359542Y-128790095D01*
X115407923Y-128693333D01*
X115456304Y-128644952D01*
X115843352Y-128644952D02*
X115456304Y-128644952D01*
X115407923Y-128596571D01*
X115407923Y-128548190D01*
X115456304Y-128451428D01*
X115553066Y-128403047D01*
X115794971Y-128403047D01*
X115940114Y-128499809D01*
X116036876Y-128644952D01*
X116085257Y-128838476D01*
X116036876Y-129032000D01*
X115940114Y-129177142D01*
X115794971Y-129273904D01*
X115601447Y-129322285D01*
X115407923Y-129273904D01*
X115262780Y-129177142D01*
X115166019Y-129032000D01*
X115117638Y-128838476D01*
X115166019Y-128644952D01*
X115262780Y-128499809D01*
X115311161Y-128016000D02*
X115262780Y-127919238D01*
X115262780Y-127725714D01*
X115311161Y-127628952D01*
X115407923Y-127580571D01*
X115456304Y-127580571D01*
X115553066Y-127628952D01*
X115601447Y-127725714D01*
X115601447Y-127870857D01*
X115649828Y-127967619D01*
X115746590Y-128016000D01*
X115794971Y-128016000D01*
X115891733Y-127967619D01*
X115940114Y-127870857D01*
X115940114Y-127725714D01*
X115891733Y-127628952D01*
X115262780Y-126709714D02*
X116278780Y-126709714D01*
X115311161Y-126709714D02*
X115262780Y-126806476D01*
X115262780Y-127000000D01*
X115311161Y-127096761D01*
X115359542Y-127145142D01*
X115456304Y-127193523D01*
X115746590Y-127193523D01*
X115843352Y-127145142D01*
X115891733Y-127096761D01*
X115940114Y-127000000D01*
X115940114Y-126806476D01*
X115891733Y-126709714D01*
X115311161Y-126274285D02*
X115262780Y-126177523D01*
X115262780Y-125984000D01*
X115311161Y-125887238D01*
X115407923Y-125838857D01*
X115456304Y-125838857D01*
X115553066Y-125887238D01*
X115601447Y-125984000D01*
X115601447Y-126129142D01*
X115649828Y-126225904D01*
X115746590Y-126274285D01*
X115794971Y-126274285D01*
X115891733Y-126225904D01*
X115940114Y-126129142D01*
X115940114Y-125984000D01*
X115891733Y-125887238D01*
X115940114Y-124968000D02*
X115262780Y-124968000D01*
X115940114Y-125403428D02*
X115407923Y-125403428D01*
X115311161Y-125355047D01*
X115262780Y-125258285D01*
X115262780Y-125113142D01*
X115311161Y-125016380D01*
X115359542Y-124968000D01*
X115359542Y-124484190D02*
X115311161Y-124435809D01*
X115262780Y-124484190D01*
X115311161Y-124532571D01*
X115359542Y-124484190D01*
X115262780Y-124484190D01*
X115311161Y-123613333D02*
X115262780Y-123710095D01*
X115262780Y-123903619D01*
X115311161Y-124000380D01*
X115407923Y-124048761D01*
X115794971Y-124048761D01*
X115891733Y-124000380D01*
X115940114Y-123903619D01*
X115940114Y-123710095D01*
X115891733Y-123613333D01*
X115794971Y-123564952D01*
X115698209Y-123564952D01*
X115601447Y-124048761D01*
X115262780Y-122694095D02*
X116278780Y-122694095D01*
X115311161Y-122694095D02*
X115262780Y-122790857D01*
X115262780Y-122984380D01*
X115311161Y-123081142D01*
X115359542Y-123129523D01*
X115456304Y-123177904D01*
X115746590Y-123177904D01*
X115843352Y-123129523D01*
X115891733Y-123081142D01*
X115940114Y-122984380D01*
X115940114Y-122790857D01*
X115891733Y-122694095D01*
X115940114Y-121774857D02*
X115262780Y-121774857D01*
X115940114Y-122210285D02*
X115407923Y-122210285D01*
X115311161Y-122161904D01*
X115262780Y-122065142D01*
X115262780Y-121920000D01*
X115311161Y-121823238D01*
X115359542Y-121774857D01*
D12*
%TO.C,RTC_BATT1*%
X138830000Y-128810000D02*
X138830000Y-126710000D01*
X125330000Y-128810000D02*
X125330000Y-126710000D01*
X125330000Y-132810000D02*
X125330000Y-134260000D01*
X125330000Y-134260000D02*
X127930000Y-136860000D01*
X127930000Y-136860000D02*
X127930000Y-137660000D01*
X127930000Y-137660000D02*
X136230000Y-137660000D01*
X136230000Y-137660000D02*
X136230000Y-136860000D01*
X136230000Y-136860000D02*
X138830000Y-134260000D01*
X138830000Y-134260000D02*
X138830000Y-132810000D01*
X125330000Y-126760000D02*
G75*
G02*
X126780000Y-125210000I1500000J50000D01*
G01*
X138830000Y-126760000D02*
G75*
G03*
X137380000Y-125210000I-1500000J50000D01*
G01*
X126665385Y-125225840D02*
G75*
G02*
X127580000Y-125610000I124615J-984160D01*
G01*
X137494615Y-125225840D02*
G75*
G03*
X136580000Y-125610000I-124615J-984160D01*
G01*
D13*
X134691047Y-122372380D02*
X135024380Y-121896190D01*
X135262476Y-122372380D02*
X135262476Y-121372380D01*
X134881523Y-121372380D01*
X134786285Y-121420000D01*
X134738666Y-121467619D01*
X134691047Y-121562857D01*
X134691047Y-121705714D01*
X134738666Y-121800952D01*
X134786285Y-121848571D01*
X134881523Y-121896190D01*
X135262476Y-121896190D01*
X134405333Y-121372380D02*
X133833904Y-121372380D01*
X134119619Y-122372380D02*
X134119619Y-121372380D01*
X132929142Y-122277142D02*
X132976761Y-122324761D01*
X133119619Y-122372380D01*
X133214857Y-122372380D01*
X133357714Y-122324761D01*
X133452952Y-122229523D01*
X133500571Y-122134285D01*
X133548190Y-121943809D01*
X133548190Y-121800952D01*
X133500571Y-121610476D01*
X133452952Y-121515238D01*
X133357714Y-121420000D01*
X133214857Y-121372380D01*
X133119619Y-121372380D01*
X132976761Y-121420000D01*
X132929142Y-121467619D01*
X132738666Y-122467619D02*
X131976761Y-122467619D01*
X131405333Y-121848571D02*
X131262476Y-121896190D01*
X131214857Y-121943809D01*
X131167238Y-122039047D01*
X131167238Y-122181904D01*
X131214857Y-122277142D01*
X131262476Y-122324761D01*
X131357714Y-122372380D01*
X131738666Y-122372380D01*
X131738666Y-121372380D01*
X131405333Y-121372380D01*
X131310095Y-121420000D01*
X131262476Y-121467619D01*
X131214857Y-121562857D01*
X131214857Y-121658095D01*
X131262476Y-121753333D01*
X131310095Y-121800952D01*
X131405333Y-121848571D01*
X131738666Y-121848571D01*
X130786285Y-122086666D02*
X130310095Y-122086666D01*
X130881523Y-122372380D02*
X130548190Y-121372380D01*
X130214857Y-122372380D01*
X130024380Y-121372380D02*
X129452952Y-121372380D01*
X129738666Y-122372380D02*
X129738666Y-121372380D01*
X129262476Y-121372380D02*
X128691047Y-121372380D01*
X128976761Y-122372380D02*
X128976761Y-121372380D01*
X127833904Y-122372380D02*
X128405333Y-122372380D01*
X128119619Y-122372380D02*
X128119619Y-121372380D01*
X128214857Y-121515238D01*
X128310095Y-121610476D01*
X128405333Y-121658095D01*
%TD*%
M02*
