%TF.GenerationSoftware,KiCad,Pcbnew,(5.1.10)-1*%
%TF.CreationDate,2021-07-02T15:13:39-07:00*%
%TF.ProjectId,BivalveBit,42697661-6c76-4654-9269-742e6b696361,A*%
%TF.SameCoordinates,Original*%
%TF.FileFunction,Paste,Top*%
%TF.FilePolarity,Positive*%
%FSLAX46Y46*%
G04 Gerber Fmt 4.6, Leading zero omitted, Abs format (unit mm)*
G04 Created by KiCad (PCBNEW (5.1.10)-1) date 2021-07-02 15:13:39*
%MOMM*%
%LPD*%
G01*
G04 APERTURE LIST*
%ADD10R,0.900000X0.800000*%
%ADD11R,1.060000X0.650000*%
%ADD12R,0.550000X1.600000*%
%ADD13R,1.600000X0.550000*%
%ADD14R,2.000000X2.000000*%
%ADD15R,1.600000X1.000000*%
%ADD16R,2.050000X1.500000*%
%ADD17R,1.500000X0.800000*%
%ADD18R,1.200000X0.600000*%
G04 APERTURE END LIST*
%TO.C,R17*%
G36*
G01*
X184234500Y-122218900D02*
X183684500Y-122218900D01*
G75*
G02*
X183484500Y-122018900I0J200000D01*
G01*
X183484500Y-121618900D01*
G75*
G02*
X183684500Y-121418900I200000J0D01*
G01*
X184234500Y-121418900D01*
G75*
G02*
X184434500Y-121618900I0J-200000D01*
G01*
X184434500Y-122018900D01*
G75*
G02*
X184234500Y-122218900I-200000J0D01*
G01*
G37*
G36*
G01*
X184234500Y-123868900D02*
X183684500Y-123868900D01*
G75*
G02*
X183484500Y-123668900I0J200000D01*
G01*
X183484500Y-123268900D01*
G75*
G02*
X183684500Y-123068900I200000J0D01*
G01*
X184234500Y-123068900D01*
G75*
G02*
X184434500Y-123268900I0J-200000D01*
G01*
X184434500Y-123668900D01*
G75*
G02*
X184234500Y-123868900I-200000J0D01*
G01*
G37*
%TD*%
%TO.C,R16*%
G36*
G01*
X181377000Y-122218900D02*
X180827000Y-122218900D01*
G75*
G02*
X180627000Y-122018900I0J200000D01*
G01*
X180627000Y-121618900D01*
G75*
G02*
X180827000Y-121418900I200000J0D01*
G01*
X181377000Y-121418900D01*
G75*
G02*
X181577000Y-121618900I0J-200000D01*
G01*
X181577000Y-122018900D01*
G75*
G02*
X181377000Y-122218900I-200000J0D01*
G01*
G37*
G36*
G01*
X181377000Y-123868900D02*
X180827000Y-123868900D01*
G75*
G02*
X180627000Y-123668900I0J200000D01*
G01*
X180627000Y-123268900D01*
G75*
G02*
X180827000Y-123068900I200000J0D01*
G01*
X181377000Y-123068900D01*
G75*
G02*
X181577000Y-123268900I0J-200000D01*
G01*
X181577000Y-123668900D01*
G75*
G02*
X181377000Y-123868900I-200000J0D01*
G01*
G37*
%TD*%
D10*
%TO.C,U4*%
X117840000Y-135890000D03*
X115840000Y-136840000D03*
X115840000Y-134940000D03*
%TD*%
D11*
%TO.C,U3*%
X182519500Y-129529800D03*
X182519500Y-131429800D03*
X180319500Y-131429800D03*
X180319500Y-130479800D03*
X180319500Y-129529800D03*
%TD*%
D12*
%TO.C,U2*%
X152072000Y-124242000D03*
X152872000Y-124242000D03*
X153672000Y-124242000D03*
X154472000Y-124242000D03*
X155272000Y-124242000D03*
X156072000Y-124242000D03*
X156872000Y-124242000D03*
X157672000Y-124242000D03*
D13*
X159122000Y-125692000D03*
X159122000Y-126492000D03*
X159122000Y-127292000D03*
X159122000Y-128092000D03*
X159122000Y-128892000D03*
X159122000Y-129692000D03*
X159122000Y-130492000D03*
X159122000Y-131292000D03*
D12*
X157672000Y-132742000D03*
X156872000Y-132742000D03*
X156072000Y-132742000D03*
X155272000Y-132742000D03*
X154472000Y-132742000D03*
X153672000Y-132742000D03*
X152872000Y-132742000D03*
X152072000Y-132742000D03*
D13*
X150622000Y-131292000D03*
X150622000Y-130492000D03*
X150622000Y-129692000D03*
X150622000Y-128892000D03*
X150622000Y-128092000D03*
X150622000Y-127292000D03*
X150622000Y-126492000D03*
X150622000Y-125692000D03*
%TD*%
D14*
%TO.C,SW2*%
X156658000Y-136652000D03*
X141538000Y-136652000D03*
%TD*%
D15*
%TO.C,RESET1*%
X119126000Y-126106000D03*
X112726000Y-126106000D03*
X119126000Y-122306000D03*
X112726000Y-122306000D03*
%TD*%
%TO.C,R15*%
G36*
G01*
X168889000Y-136823000D02*
X169439000Y-136823000D01*
G75*
G02*
X169639000Y-137023000I0J-200000D01*
G01*
X169639000Y-137423000D01*
G75*
G02*
X169439000Y-137623000I-200000J0D01*
G01*
X168889000Y-137623000D01*
G75*
G02*
X168689000Y-137423000I0J200000D01*
G01*
X168689000Y-137023000D01*
G75*
G02*
X168889000Y-136823000I200000J0D01*
G01*
G37*
G36*
G01*
X168889000Y-135173000D02*
X169439000Y-135173000D01*
G75*
G02*
X169639000Y-135373000I0J-200000D01*
G01*
X169639000Y-135773000D01*
G75*
G02*
X169439000Y-135973000I-200000J0D01*
G01*
X168889000Y-135973000D01*
G75*
G02*
X168689000Y-135773000I0J200000D01*
G01*
X168689000Y-135373000D01*
G75*
G02*
X168889000Y-135173000I200000J0D01*
G01*
G37*
%TD*%
%TO.C,R14*%
G36*
G01*
X183963900Y-130841300D02*
X184513900Y-130841300D01*
G75*
G02*
X184713900Y-131041300I0J-200000D01*
G01*
X184713900Y-131441300D01*
G75*
G02*
X184513900Y-131641300I-200000J0D01*
G01*
X183963900Y-131641300D01*
G75*
G02*
X183763900Y-131441300I0J200000D01*
G01*
X183763900Y-131041300D01*
G75*
G02*
X183963900Y-130841300I200000J0D01*
G01*
G37*
G36*
G01*
X183963900Y-129191300D02*
X184513900Y-129191300D01*
G75*
G02*
X184713900Y-129391300I0J-200000D01*
G01*
X184713900Y-129791300D01*
G75*
G02*
X184513900Y-129991300I-200000J0D01*
G01*
X183963900Y-129991300D01*
G75*
G02*
X183763900Y-129791300I0J200000D01*
G01*
X183763900Y-129391300D01*
G75*
G02*
X183963900Y-129191300I200000J0D01*
G01*
G37*
%TD*%
%TO.C,R13*%
G36*
G01*
X113305000Y-128290000D02*
X112755000Y-128290000D01*
G75*
G02*
X112555000Y-128090000I0J200000D01*
G01*
X112555000Y-127690000D01*
G75*
G02*
X112755000Y-127490000I200000J0D01*
G01*
X113305000Y-127490000D01*
G75*
G02*
X113505000Y-127690000I0J-200000D01*
G01*
X113505000Y-128090000D01*
G75*
G02*
X113305000Y-128290000I-200000J0D01*
G01*
G37*
G36*
G01*
X113305000Y-129940000D02*
X112755000Y-129940000D01*
G75*
G02*
X112555000Y-129740000I0J200000D01*
G01*
X112555000Y-129340000D01*
G75*
G02*
X112755000Y-129140000I200000J0D01*
G01*
X113305000Y-129140000D01*
G75*
G02*
X113505000Y-129340000I0J-200000D01*
G01*
X113505000Y-129740000D01*
G75*
G02*
X113305000Y-129940000I-200000J0D01*
G01*
G37*
%TD*%
%TO.C,R12*%
G36*
G01*
X120925000Y-131655000D02*
X120375000Y-131655000D01*
G75*
G02*
X120175000Y-131455000I0J200000D01*
G01*
X120175000Y-131055000D01*
G75*
G02*
X120375000Y-130855000I200000J0D01*
G01*
X120925000Y-130855000D01*
G75*
G02*
X121125000Y-131055000I0J-200000D01*
G01*
X121125000Y-131455000D01*
G75*
G02*
X120925000Y-131655000I-200000J0D01*
G01*
G37*
G36*
G01*
X120925000Y-133305000D02*
X120375000Y-133305000D01*
G75*
G02*
X120175000Y-133105000I0J200000D01*
G01*
X120175000Y-132705000D01*
G75*
G02*
X120375000Y-132505000I200000J0D01*
G01*
X120925000Y-132505000D01*
G75*
G02*
X121125000Y-132705000I0J-200000D01*
G01*
X121125000Y-133105000D01*
G75*
G02*
X120925000Y-133305000I-200000J0D01*
G01*
G37*
%TD*%
%TO.C,R11*%
G36*
G01*
X113305000Y-131655000D02*
X112755000Y-131655000D01*
G75*
G02*
X112555000Y-131455000I0J200000D01*
G01*
X112555000Y-131055000D01*
G75*
G02*
X112755000Y-130855000I200000J0D01*
G01*
X113305000Y-130855000D01*
G75*
G02*
X113505000Y-131055000I0J-200000D01*
G01*
X113505000Y-131455000D01*
G75*
G02*
X113305000Y-131655000I-200000J0D01*
G01*
G37*
G36*
G01*
X113305000Y-133305000D02*
X112755000Y-133305000D01*
G75*
G02*
X112555000Y-133105000I0J200000D01*
G01*
X112555000Y-132705000D01*
G75*
G02*
X112755000Y-132505000I200000J0D01*
G01*
X113305000Y-132505000D01*
G75*
G02*
X113505000Y-132705000I0J-200000D01*
G01*
X113505000Y-133105000D01*
G75*
G02*
X113305000Y-133305000I-200000J0D01*
G01*
G37*
%TD*%
%TO.C,R10*%
G36*
G01*
X120925000Y-135465000D02*
X120375000Y-135465000D01*
G75*
G02*
X120175000Y-135265000I0J200000D01*
G01*
X120175000Y-134865000D01*
G75*
G02*
X120375000Y-134665000I200000J0D01*
G01*
X120925000Y-134665000D01*
G75*
G02*
X121125000Y-134865000I0J-200000D01*
G01*
X121125000Y-135265000D01*
G75*
G02*
X120925000Y-135465000I-200000J0D01*
G01*
G37*
G36*
G01*
X120925000Y-137115000D02*
X120375000Y-137115000D01*
G75*
G02*
X120175000Y-136915000I0J200000D01*
G01*
X120175000Y-136515000D01*
G75*
G02*
X120375000Y-136315000I200000J0D01*
G01*
X120925000Y-136315000D01*
G75*
G02*
X121125000Y-136515000I0J-200000D01*
G01*
X121125000Y-136915000D01*
G75*
G02*
X120925000Y-137115000I-200000J0D01*
G01*
G37*
%TD*%
%TO.C,R9*%
G36*
G01*
X113305000Y-135465000D02*
X112755000Y-135465000D01*
G75*
G02*
X112555000Y-135265000I0J200000D01*
G01*
X112555000Y-134865000D01*
G75*
G02*
X112755000Y-134665000I200000J0D01*
G01*
X113305000Y-134665000D01*
G75*
G02*
X113505000Y-134865000I0J-200000D01*
G01*
X113505000Y-135265000D01*
G75*
G02*
X113305000Y-135465000I-200000J0D01*
G01*
G37*
G36*
G01*
X113305000Y-137115000D02*
X112755000Y-137115000D01*
G75*
G02*
X112555000Y-136915000I0J200000D01*
G01*
X112555000Y-136515000D01*
G75*
G02*
X112755000Y-136315000I200000J0D01*
G01*
X113305000Y-136315000D01*
G75*
G02*
X113505000Y-136515000I0J-200000D01*
G01*
X113505000Y-136915000D01*
G75*
G02*
X113305000Y-137115000I-200000J0D01*
G01*
G37*
%TD*%
%TO.C,R8*%
G36*
G01*
X141244000Y-122661000D02*
X141244000Y-123211000D01*
G75*
G02*
X141044000Y-123411000I-200000J0D01*
G01*
X140644000Y-123411000D01*
G75*
G02*
X140444000Y-123211000I0J200000D01*
G01*
X140444000Y-122661000D01*
G75*
G02*
X140644000Y-122461000I200000J0D01*
G01*
X141044000Y-122461000D01*
G75*
G02*
X141244000Y-122661000I0J-200000D01*
G01*
G37*
G36*
G01*
X142894000Y-122661000D02*
X142894000Y-123211000D01*
G75*
G02*
X142694000Y-123411000I-200000J0D01*
G01*
X142294000Y-123411000D01*
G75*
G02*
X142094000Y-123211000I0J200000D01*
G01*
X142094000Y-122661000D01*
G75*
G02*
X142294000Y-122461000I200000J0D01*
G01*
X142694000Y-122461000D01*
G75*
G02*
X142894000Y-122661000I0J-200000D01*
G01*
G37*
%TD*%
%TO.C,R7*%
G36*
G01*
X144304200Y-131805000D02*
X144304200Y-132355000D01*
G75*
G02*
X144104200Y-132555000I-200000J0D01*
G01*
X143704200Y-132555000D01*
G75*
G02*
X143504200Y-132355000I0J200000D01*
G01*
X143504200Y-131805000D01*
G75*
G02*
X143704200Y-131605000I200000J0D01*
G01*
X144104200Y-131605000D01*
G75*
G02*
X144304200Y-131805000I0J-200000D01*
G01*
G37*
G36*
G01*
X145954200Y-131805000D02*
X145954200Y-132355000D01*
G75*
G02*
X145754200Y-132555000I-200000J0D01*
G01*
X145354200Y-132555000D01*
G75*
G02*
X145154200Y-132355000I0J200000D01*
G01*
X145154200Y-131805000D01*
G75*
G02*
X145354200Y-131605000I200000J0D01*
G01*
X145754200Y-131605000D01*
G75*
G02*
X145954200Y-131805000I0J-200000D01*
G01*
G37*
%TD*%
%TO.C,R6*%
G36*
G01*
X141244000Y-124947000D02*
X141244000Y-125497000D01*
G75*
G02*
X141044000Y-125697000I-200000J0D01*
G01*
X140644000Y-125697000D01*
G75*
G02*
X140444000Y-125497000I0J200000D01*
G01*
X140444000Y-124947000D01*
G75*
G02*
X140644000Y-124747000I200000J0D01*
G01*
X141044000Y-124747000D01*
G75*
G02*
X141244000Y-124947000I0J-200000D01*
G01*
G37*
G36*
G01*
X142894000Y-124947000D02*
X142894000Y-125497000D01*
G75*
G02*
X142694000Y-125697000I-200000J0D01*
G01*
X142294000Y-125697000D01*
G75*
G02*
X142094000Y-125497000I0J200000D01*
G01*
X142094000Y-124947000D01*
G75*
G02*
X142294000Y-124747000I200000J0D01*
G01*
X142694000Y-124747000D01*
G75*
G02*
X142894000Y-124947000I0J-200000D01*
G01*
G37*
%TD*%
%TO.C,R5*%
G36*
G01*
X176752700Y-128896700D02*
X176752700Y-129446700D01*
G75*
G02*
X176552700Y-129646700I-200000J0D01*
G01*
X176152700Y-129646700D01*
G75*
G02*
X175952700Y-129446700I0J200000D01*
G01*
X175952700Y-128896700D01*
G75*
G02*
X176152700Y-128696700I200000J0D01*
G01*
X176552700Y-128696700D01*
G75*
G02*
X176752700Y-128896700I0J-200000D01*
G01*
G37*
G36*
G01*
X178402700Y-128896700D02*
X178402700Y-129446700D01*
G75*
G02*
X178202700Y-129646700I-200000J0D01*
G01*
X177802700Y-129646700D01*
G75*
G02*
X177602700Y-129446700I0J200000D01*
G01*
X177602700Y-128896700D01*
G75*
G02*
X177802700Y-128696700I200000J0D01*
G01*
X178202700Y-128696700D01*
G75*
G02*
X178402700Y-128896700I0J-200000D01*
G01*
G37*
%TD*%
%TO.C,R4*%
G36*
G01*
X176740000Y-127029800D02*
X176740000Y-127579800D01*
G75*
G02*
X176540000Y-127779800I-200000J0D01*
G01*
X176140000Y-127779800D01*
G75*
G02*
X175940000Y-127579800I0J200000D01*
G01*
X175940000Y-127029800D01*
G75*
G02*
X176140000Y-126829800I200000J0D01*
G01*
X176540000Y-126829800D01*
G75*
G02*
X176740000Y-127029800I0J-200000D01*
G01*
G37*
G36*
G01*
X178390000Y-127029800D02*
X178390000Y-127579800D01*
G75*
G02*
X178190000Y-127779800I-200000J0D01*
G01*
X177790000Y-127779800D01*
G75*
G02*
X177590000Y-127579800I0J200000D01*
G01*
X177590000Y-127029800D01*
G75*
G02*
X177790000Y-126829800I200000J0D01*
G01*
X178190000Y-126829800D01*
G75*
G02*
X178390000Y-127029800I0J-200000D01*
G01*
G37*
%TD*%
%TO.C,R3*%
G36*
G01*
X142131600Y-128278300D02*
X142131600Y-127728300D01*
G75*
G02*
X142331600Y-127528300I200000J0D01*
G01*
X142731600Y-127528300D01*
G75*
G02*
X142931600Y-127728300I0J-200000D01*
G01*
X142931600Y-128278300D01*
G75*
G02*
X142731600Y-128478300I-200000J0D01*
G01*
X142331600Y-128478300D01*
G75*
G02*
X142131600Y-128278300I0J200000D01*
G01*
G37*
G36*
G01*
X140481600Y-128278300D02*
X140481600Y-127728300D01*
G75*
G02*
X140681600Y-127528300I200000J0D01*
G01*
X141081600Y-127528300D01*
G75*
G02*
X141281600Y-127728300I0J-200000D01*
G01*
X141281600Y-128278300D01*
G75*
G02*
X141081600Y-128478300I-200000J0D01*
G01*
X140681600Y-128478300D01*
G75*
G02*
X140481600Y-128278300I0J200000D01*
G01*
G37*
%TD*%
%TO.C,R2*%
G36*
G01*
X109645000Y-123465000D02*
X109645000Y-122915000D01*
G75*
G02*
X109845000Y-122715000I200000J0D01*
G01*
X110245000Y-122715000D01*
G75*
G02*
X110445000Y-122915000I0J-200000D01*
G01*
X110445000Y-123465000D01*
G75*
G02*
X110245000Y-123665000I-200000J0D01*
G01*
X109845000Y-123665000D01*
G75*
G02*
X109645000Y-123465000I0J200000D01*
G01*
G37*
G36*
G01*
X107995000Y-123465000D02*
X107995000Y-122915000D01*
G75*
G02*
X108195000Y-122715000I200000J0D01*
G01*
X108595000Y-122715000D01*
G75*
G02*
X108795000Y-122915000I0J-200000D01*
G01*
X108795000Y-123465000D01*
G75*
G02*
X108595000Y-123665000I-200000J0D01*
G01*
X108195000Y-123665000D01*
G75*
G02*
X107995000Y-123465000I0J200000D01*
G01*
G37*
%TD*%
%TO.C,R1*%
G36*
G01*
X166986000Y-122449000D02*
X166986000Y-121899000D01*
G75*
G02*
X167186000Y-121699000I200000J0D01*
G01*
X167586000Y-121699000D01*
G75*
G02*
X167786000Y-121899000I0J-200000D01*
G01*
X167786000Y-122449000D01*
G75*
G02*
X167586000Y-122649000I-200000J0D01*
G01*
X167186000Y-122649000D01*
G75*
G02*
X166986000Y-122449000I0J200000D01*
G01*
G37*
G36*
G01*
X165336000Y-122449000D02*
X165336000Y-121899000D01*
G75*
G02*
X165536000Y-121699000I200000J0D01*
G01*
X165936000Y-121699000D01*
G75*
G02*
X166136000Y-121899000I0J-200000D01*
G01*
X166136000Y-122449000D01*
G75*
G02*
X165936000Y-122649000I-200000J0D01*
G01*
X165536000Y-122649000D01*
G75*
G02*
X165336000Y-122449000I0J200000D01*
G01*
G37*
%TD*%
D10*
%TO.C,Q3*%
X117840000Y-130810000D03*
X115840000Y-131760000D03*
X115840000Y-129860000D03*
%TD*%
%TO.C,Q2*%
X176469800Y-131673600D03*
X178469800Y-130723600D03*
X178469800Y-132623600D03*
%TD*%
%TO.C,Q1*%
X176533300Y-124790200D03*
X178533300Y-123840200D03*
X178533300Y-125740200D03*
%TD*%
D16*
%TO.C,microSD1*%
X126872000Y-123427000D03*
X135172000Y-123427000D03*
X135172000Y-137177000D03*
X126872000Y-137177000D03*
D17*
X129472000Y-125802000D03*
X129472000Y-126902000D03*
X129472000Y-128002000D03*
X129472000Y-129102000D03*
X129472000Y-130202000D03*
X129472000Y-131302000D03*
X129472000Y-132402000D03*
X129472000Y-133502000D03*
%TD*%
%TO.C,D1*%
G36*
G01*
X144480700Y-134263450D02*
X144480700Y-133350950D01*
G75*
G02*
X144724450Y-133107200I243750J0D01*
G01*
X145211950Y-133107200D01*
G75*
G02*
X145455700Y-133350950I0J-243750D01*
G01*
X145455700Y-134263450D01*
G75*
G02*
X145211950Y-134507200I-243750J0D01*
G01*
X144724450Y-134507200D01*
G75*
G02*
X144480700Y-134263450I0J243750D01*
G01*
G37*
G36*
G01*
X142605700Y-134263450D02*
X142605700Y-133350950D01*
G75*
G02*
X142849450Y-133107200I243750J0D01*
G01*
X143336950Y-133107200D01*
G75*
G02*
X143580700Y-133350950I0J-243750D01*
G01*
X143580700Y-134263450D01*
G75*
G02*
X143336950Y-134507200I-243750J0D01*
G01*
X142849450Y-134507200D01*
G75*
G02*
X142605700Y-134263450I0J243750D01*
G01*
G37*
%TD*%
D18*
%TO.C,Crystal_32.768kHz1*%
X164274100Y-130474300D03*
X170574100Y-130474300D03*
X170574100Y-131374300D03*
X164274100Y-131374300D03*
%TD*%
%TO.C,C8*%
G36*
G01*
X153129100Y-121924000D02*
X153129100Y-122424000D01*
G75*
G02*
X152904100Y-122649000I-225000J0D01*
G01*
X152454100Y-122649000D01*
G75*
G02*
X152229100Y-122424000I0J225000D01*
G01*
X152229100Y-121924000D01*
G75*
G02*
X152454100Y-121699000I225000J0D01*
G01*
X152904100Y-121699000D01*
G75*
G02*
X153129100Y-121924000I0J-225000D01*
G01*
G37*
G36*
G01*
X154679100Y-121924000D02*
X154679100Y-122424000D01*
G75*
G02*
X154454100Y-122649000I-225000J0D01*
G01*
X154004100Y-122649000D01*
G75*
G02*
X153779100Y-122424000I0J225000D01*
G01*
X153779100Y-121924000D01*
G75*
G02*
X154004100Y-121699000I225000J0D01*
G01*
X154454100Y-121699000D01*
G75*
G02*
X154679100Y-121924000I0J-225000D01*
G01*
G37*
%TD*%
%TO.C,C7*%
G36*
G01*
X121408000Y-124643000D02*
X120908000Y-124643000D01*
G75*
G02*
X120683000Y-124418000I0J225000D01*
G01*
X120683000Y-123968000D01*
G75*
G02*
X120908000Y-123743000I225000J0D01*
G01*
X121408000Y-123743000D01*
G75*
G02*
X121633000Y-123968000I0J-225000D01*
G01*
X121633000Y-124418000D01*
G75*
G02*
X121408000Y-124643000I-225000J0D01*
G01*
G37*
G36*
G01*
X121408000Y-126193000D02*
X120908000Y-126193000D01*
G75*
G02*
X120683000Y-125968000I0J225000D01*
G01*
X120683000Y-125518000D01*
G75*
G02*
X120908000Y-125293000I225000J0D01*
G01*
X121408000Y-125293000D01*
G75*
G02*
X121633000Y-125518000I0J-225000D01*
G01*
X121633000Y-125968000D01*
G75*
G02*
X121408000Y-126193000I-225000J0D01*
G01*
G37*
%TD*%
%TO.C,C6*%
G36*
G01*
X120400000Y-128849000D02*
X120900000Y-128849000D01*
G75*
G02*
X121125000Y-129074000I0J-225000D01*
G01*
X121125000Y-129524000D01*
G75*
G02*
X120900000Y-129749000I-225000J0D01*
G01*
X120400000Y-129749000D01*
G75*
G02*
X120175000Y-129524000I0J225000D01*
G01*
X120175000Y-129074000D01*
G75*
G02*
X120400000Y-128849000I225000J0D01*
G01*
G37*
G36*
G01*
X120400000Y-127299000D02*
X120900000Y-127299000D01*
G75*
G02*
X121125000Y-127524000I0J-225000D01*
G01*
X121125000Y-127974000D01*
G75*
G02*
X120900000Y-128199000I-225000J0D01*
G01*
X120400000Y-128199000D01*
G75*
G02*
X120175000Y-127974000I0J225000D01*
G01*
X120175000Y-127524000D01*
G75*
G02*
X120400000Y-127299000I225000J0D01*
G01*
G37*
%TD*%
%TO.C,C5*%
G36*
G01*
X183345900Y-126865500D02*
X182845900Y-126865500D01*
G75*
G02*
X182620900Y-126640500I0J225000D01*
G01*
X182620900Y-126190500D01*
G75*
G02*
X182845900Y-125965500I225000J0D01*
G01*
X183345900Y-125965500D01*
G75*
G02*
X183570900Y-126190500I0J-225000D01*
G01*
X183570900Y-126640500D01*
G75*
G02*
X183345900Y-126865500I-225000J0D01*
G01*
G37*
G36*
G01*
X183345900Y-128415500D02*
X182845900Y-128415500D01*
G75*
G02*
X182620900Y-128190500I0J225000D01*
G01*
X182620900Y-127740500D01*
G75*
G02*
X182845900Y-127515500I225000J0D01*
G01*
X183345900Y-127515500D01*
G75*
G02*
X183570900Y-127740500I0J-225000D01*
G01*
X183570900Y-128190500D01*
G75*
G02*
X183345900Y-128415500I-225000J0D01*
G01*
G37*
%TD*%
%TO.C,C4*%
G36*
G01*
X161870200Y-130192900D02*
X161370200Y-130192900D01*
G75*
G02*
X161145200Y-129967900I0J225000D01*
G01*
X161145200Y-129517900D01*
G75*
G02*
X161370200Y-129292900I225000J0D01*
G01*
X161870200Y-129292900D01*
G75*
G02*
X162095200Y-129517900I0J-225000D01*
G01*
X162095200Y-129967900D01*
G75*
G02*
X161870200Y-130192900I-225000J0D01*
G01*
G37*
G36*
G01*
X161870200Y-131742900D02*
X161370200Y-131742900D01*
G75*
G02*
X161145200Y-131517900I0J225000D01*
G01*
X161145200Y-131067900D01*
G75*
G02*
X161370200Y-130842900I225000J0D01*
G01*
X161870200Y-130842900D01*
G75*
G02*
X162095200Y-131067900I0J-225000D01*
G01*
X162095200Y-131517900D01*
G75*
G02*
X161870200Y-131742900I-225000J0D01*
G01*
G37*
%TD*%
%TO.C,C3*%
G36*
G01*
X181123400Y-126852800D02*
X180623400Y-126852800D01*
G75*
G02*
X180398400Y-126627800I0J225000D01*
G01*
X180398400Y-126177800D01*
G75*
G02*
X180623400Y-125952800I225000J0D01*
G01*
X181123400Y-125952800D01*
G75*
G02*
X181348400Y-126177800I0J-225000D01*
G01*
X181348400Y-126627800D01*
G75*
G02*
X181123400Y-126852800I-225000J0D01*
G01*
G37*
G36*
G01*
X181123400Y-128402800D02*
X180623400Y-128402800D01*
G75*
G02*
X180398400Y-128177800I0J225000D01*
G01*
X180398400Y-127727800D01*
G75*
G02*
X180623400Y-127502800I225000J0D01*
G01*
X181123400Y-127502800D01*
G75*
G02*
X181348400Y-127727800I0J-225000D01*
G01*
X181348400Y-128177800D01*
G75*
G02*
X181123400Y-128402800I-225000J0D01*
G01*
G37*
%TD*%
%TO.C,C2*%
G36*
G01*
X107005000Y-137410000D02*
X107005000Y-136910000D01*
G75*
G02*
X107230000Y-136685000I225000J0D01*
G01*
X107680000Y-136685000D01*
G75*
G02*
X107905000Y-136910000I0J-225000D01*
G01*
X107905000Y-137410000D01*
G75*
G02*
X107680000Y-137635000I-225000J0D01*
G01*
X107230000Y-137635000D01*
G75*
G02*
X107005000Y-137410000I0J225000D01*
G01*
G37*
G36*
G01*
X105455000Y-137410000D02*
X105455000Y-136910000D01*
G75*
G02*
X105680000Y-136685000I225000J0D01*
G01*
X106130000Y-136685000D01*
G75*
G02*
X106355000Y-136910000I0J-225000D01*
G01*
X106355000Y-137410000D01*
G75*
G02*
X106130000Y-137635000I-225000J0D01*
G01*
X105680000Y-137635000D01*
G75*
G02*
X105455000Y-137410000I0J225000D01*
G01*
G37*
%TD*%
%TO.C,C1*%
G36*
G01*
X164900800Y-124746900D02*
X165400800Y-124746900D01*
G75*
G02*
X165625800Y-124971900I0J-225000D01*
G01*
X165625800Y-125421900D01*
G75*
G02*
X165400800Y-125646900I-225000J0D01*
G01*
X164900800Y-125646900D01*
G75*
G02*
X164675800Y-125421900I0J225000D01*
G01*
X164675800Y-124971900D01*
G75*
G02*
X164900800Y-124746900I225000J0D01*
G01*
G37*
G36*
G01*
X164900800Y-123196900D02*
X165400800Y-123196900D01*
G75*
G02*
X165625800Y-123421900I0J-225000D01*
G01*
X165625800Y-123871900D01*
G75*
G02*
X165400800Y-124096900I-225000J0D01*
G01*
X164900800Y-124096900D01*
G75*
G02*
X164675800Y-123871900I0J225000D01*
G01*
X164675800Y-123421900D01*
G75*
G02*
X164900800Y-123196900I225000J0D01*
G01*
G37*
%TD*%
%TO.C,C9*%
G36*
G01*
X166134500Y-128896300D02*
X166134500Y-129396300D01*
G75*
G02*
X165909500Y-129621300I-225000J0D01*
G01*
X165459500Y-129621300D01*
G75*
G02*
X165234500Y-129396300I0J225000D01*
G01*
X165234500Y-128896300D01*
G75*
G02*
X165459500Y-128671300I225000J0D01*
G01*
X165909500Y-128671300D01*
G75*
G02*
X166134500Y-128896300I0J-225000D01*
G01*
G37*
G36*
G01*
X164584500Y-128896300D02*
X164584500Y-129396300D01*
G75*
G02*
X164359500Y-129621300I-225000J0D01*
G01*
X163909500Y-129621300D01*
G75*
G02*
X163684500Y-129396300I0J225000D01*
G01*
X163684500Y-128896300D01*
G75*
G02*
X163909500Y-128671300I225000J0D01*
G01*
X164359500Y-128671300D01*
G75*
G02*
X164584500Y-128896300I0J-225000D01*
G01*
G37*
%TD*%
%TO.C,C10*%
G36*
G01*
X165221800Y-132939600D02*
X165221800Y-132439600D01*
G75*
G02*
X165446800Y-132214600I225000J0D01*
G01*
X165896800Y-132214600D01*
G75*
G02*
X166121800Y-132439600I0J-225000D01*
G01*
X166121800Y-132939600D01*
G75*
G02*
X165896800Y-133164600I-225000J0D01*
G01*
X165446800Y-133164600D01*
G75*
G02*
X165221800Y-132939600I0J225000D01*
G01*
G37*
G36*
G01*
X163671800Y-132939600D02*
X163671800Y-132439600D01*
G75*
G02*
X163896800Y-132214600I225000J0D01*
G01*
X164346800Y-132214600D01*
G75*
G02*
X164571800Y-132439600I0J-225000D01*
G01*
X164571800Y-132939600D01*
G75*
G02*
X164346800Y-133164600I-225000J0D01*
G01*
X163896800Y-133164600D01*
G75*
G02*
X163671800Y-132939600I0J225000D01*
G01*
G37*
%TD*%
%TO.C,RTC1*%
G36*
G01*
X167336500Y-129594800D02*
X167136500Y-129594800D01*
G75*
G02*
X167036500Y-129494800I0J100000D01*
G01*
X167036500Y-128069800D01*
G75*
G02*
X167136500Y-127969800I100000J0D01*
G01*
X167336500Y-127969800D01*
G75*
G02*
X167436500Y-128069800I0J-100000D01*
G01*
X167436500Y-129494800D01*
G75*
G02*
X167336500Y-129594800I-100000J0D01*
G01*
G37*
G36*
G01*
X167986500Y-129594800D02*
X167786500Y-129594800D01*
G75*
G02*
X167686500Y-129494800I0J100000D01*
G01*
X167686500Y-128069800D01*
G75*
G02*
X167786500Y-127969800I100000J0D01*
G01*
X167986500Y-127969800D01*
G75*
G02*
X168086500Y-128069800I0J-100000D01*
G01*
X168086500Y-129494800D01*
G75*
G02*
X167986500Y-129594800I-100000J0D01*
G01*
G37*
G36*
G01*
X168636500Y-129594800D02*
X168436500Y-129594800D01*
G75*
G02*
X168336500Y-129494800I0J100000D01*
G01*
X168336500Y-128069800D01*
G75*
G02*
X168436500Y-127969800I100000J0D01*
G01*
X168636500Y-127969800D01*
G75*
G02*
X168736500Y-128069800I0J-100000D01*
G01*
X168736500Y-129494800D01*
G75*
G02*
X168636500Y-129594800I-100000J0D01*
G01*
G37*
G36*
G01*
X169286500Y-129594800D02*
X169086500Y-129594800D01*
G75*
G02*
X168986500Y-129494800I0J100000D01*
G01*
X168986500Y-128069800D01*
G75*
G02*
X169086500Y-127969800I100000J0D01*
G01*
X169286500Y-127969800D01*
G75*
G02*
X169386500Y-128069800I0J-100000D01*
G01*
X169386500Y-129494800D01*
G75*
G02*
X169286500Y-129594800I-100000J0D01*
G01*
G37*
G36*
G01*
X169286500Y-125369800D02*
X169086500Y-125369800D01*
G75*
G02*
X168986500Y-125269800I0J100000D01*
G01*
X168986500Y-123844800D01*
G75*
G02*
X169086500Y-123744800I100000J0D01*
G01*
X169286500Y-123744800D01*
G75*
G02*
X169386500Y-123844800I0J-100000D01*
G01*
X169386500Y-125269800D01*
G75*
G02*
X169286500Y-125369800I-100000J0D01*
G01*
G37*
G36*
G01*
X168636500Y-125369800D02*
X168436500Y-125369800D01*
G75*
G02*
X168336500Y-125269800I0J100000D01*
G01*
X168336500Y-123844800D01*
G75*
G02*
X168436500Y-123744800I100000J0D01*
G01*
X168636500Y-123744800D01*
G75*
G02*
X168736500Y-123844800I0J-100000D01*
G01*
X168736500Y-125269800D01*
G75*
G02*
X168636500Y-125369800I-100000J0D01*
G01*
G37*
G36*
G01*
X167986500Y-125369800D02*
X167786500Y-125369800D01*
G75*
G02*
X167686500Y-125269800I0J100000D01*
G01*
X167686500Y-123844800D01*
G75*
G02*
X167786500Y-123744800I100000J0D01*
G01*
X167986500Y-123744800D01*
G75*
G02*
X168086500Y-123844800I0J-100000D01*
G01*
X168086500Y-125269800D01*
G75*
G02*
X167986500Y-125369800I-100000J0D01*
G01*
G37*
G36*
G01*
X167336500Y-125369800D02*
X167136500Y-125369800D01*
G75*
G02*
X167036500Y-125269800I0J100000D01*
G01*
X167036500Y-123844800D01*
G75*
G02*
X167136500Y-123744800I100000J0D01*
G01*
X167336500Y-123744800D01*
G75*
G02*
X167436500Y-123844800I0J-100000D01*
G01*
X167436500Y-125269800D01*
G75*
G02*
X167336500Y-125369800I-100000J0D01*
G01*
G37*
%TD*%
%TO.C,D2*%
G36*
G01*
X146288700Y-134288850D02*
X146288700Y-133376350D01*
G75*
G02*
X146532450Y-133132600I243750J0D01*
G01*
X147019950Y-133132600D01*
G75*
G02*
X147263700Y-133376350I0J-243750D01*
G01*
X147263700Y-134288850D01*
G75*
G02*
X147019950Y-134532600I-243750J0D01*
G01*
X146532450Y-134532600D01*
G75*
G02*
X146288700Y-134288850I0J243750D01*
G01*
G37*
G36*
G01*
X148163700Y-134288850D02*
X148163700Y-133376350D01*
G75*
G02*
X148407450Y-133132600I243750J0D01*
G01*
X148894950Y-133132600D01*
G75*
G02*
X149138700Y-133376350I0J-243750D01*
G01*
X149138700Y-134288850D01*
G75*
G02*
X148894950Y-134532600I-243750J0D01*
G01*
X148407450Y-134532600D01*
G75*
G02*
X148163700Y-134288850I0J243750D01*
G01*
G37*
%TD*%
%TO.C,R18*%
G36*
G01*
X149053000Y-131843100D02*
X149053000Y-132393100D01*
G75*
G02*
X148853000Y-132593100I-200000J0D01*
G01*
X148453000Y-132593100D01*
G75*
G02*
X148253000Y-132393100I0J200000D01*
G01*
X148253000Y-131843100D01*
G75*
G02*
X148453000Y-131643100I200000J0D01*
G01*
X148853000Y-131643100D01*
G75*
G02*
X149053000Y-131843100I0J-200000D01*
G01*
G37*
G36*
G01*
X147403000Y-131843100D02*
X147403000Y-132393100D01*
G75*
G02*
X147203000Y-132593100I-200000J0D01*
G01*
X146803000Y-132593100D01*
G75*
G02*
X146603000Y-132393100I0J200000D01*
G01*
X146603000Y-131843100D01*
G75*
G02*
X146803000Y-131643100I200000J0D01*
G01*
X147203000Y-131643100D01*
G75*
G02*
X147403000Y-131843100I0J-200000D01*
G01*
G37*
%TD*%
M02*
