%TF.GenerationSoftware,KiCad,Pcbnew,(5.1.10)-1*%
%TF.CreationDate,2021-07-02T15:13:39-07:00*%
%TF.ProjectId,BivalveBit,42697661-6c76-4654-9269-742e6b696361,A*%
%TF.SameCoordinates,Original*%
%TF.FileFunction,Copper,L2,Bot*%
%TF.FilePolarity,Positive*%
%FSLAX46Y46*%
G04 Gerber Fmt 4.6, Leading zero omitted, Abs format (unit mm)*
G04 Created by KiCad (PCBNEW (5.1.10)-1) date 2021-07-02 15:13:39*
%MOMM*%
%LPD*%
G01*
G04 APERTURE LIST*
%TA.AperFunction,ComponentPad*%
%ADD10O,1.200000X1.750000*%
%TD*%
%TA.AperFunction,SMDPad,CuDef*%
%ADD11C,5.000000*%
%TD*%
%TA.AperFunction,SMDPad,CuDef*%
%ADD12R,3.500000X3.300000*%
%TD*%
%TA.AperFunction,ComponentPad*%
%ADD13O,1.700000X1.700000*%
%TD*%
%TA.AperFunction,ComponentPad*%
%ADD14R,1.700000X1.700000*%
%TD*%
%TA.AperFunction,ComponentPad*%
%ADD15O,1.750000X1.200000*%
%TD*%
%TA.AperFunction,ComponentPad*%
%ADD16C,2.000000*%
%TD*%
%TA.AperFunction,ViaPad*%
%ADD17C,0.685800*%
%TD*%
%TA.AperFunction,Conductor*%
%ADD18C,0.152400*%
%TD*%
%TA.AperFunction,Conductor*%
%ADD19C,0.254000*%
%TD*%
%TA.AperFunction,Conductor*%
%ADD20C,0.100000*%
%TD*%
G04 APERTURE END LIST*
D10*
%TO.P,HEART_SENSOR1,4*%
%TO.N,/SCL1*%
X193972700Y-125399800D03*
%TO.P,HEART_SENSOR1,3*%
%TO.N,/SDA1*%
X191972700Y-125399800D03*
%TO.P,HEART_SENSOR1,2*%
%TO.N,VDD*%
X189972700Y-125399800D03*
%TO.P,HEART_SENSOR1,1*%
%TO.N,GND*%
%TA.AperFunction,ComponentPad*%
G36*
G01*
X187372700Y-126024801D02*
X187372700Y-124774799D01*
G75*
G02*
X187622699Y-124524800I249999J0D01*
G01*
X188322701Y-124524800D01*
G75*
G02*
X188572700Y-124774799I0J-249999D01*
G01*
X188572700Y-126024801D01*
G75*
G02*
X188322701Y-126274800I-249999J0D01*
G01*
X187622699Y-126274800D01*
G75*
G02*
X187372700Y-126024801I0J249999D01*
G01*
G37*
%TD.AperFunction*%
%TD*%
D11*
%TO.P,RTC_BATT1,2*%
%TO.N,GND*%
X132080000Y-130810000D03*
D12*
%TO.P,RTC_BATT1,1*%
%TO.N,+BATT*%
X139980000Y-130810000D03*
X124180000Y-130810000D03*
%TD*%
D13*
%TO.P,J1,2*%
%TO.N,/3V3_FTDI*%
X106680000Y-126492000D03*
D14*
%TO.P,J1,1*%
%TO.N,VBUS*%
X109220000Y-126492000D03*
%TD*%
D15*
%TO.P,PRIMARY_BATTERY1,2*%
%TO.N,GND*%
X107950000Y-132810000D03*
%TO.P,PRIMARY_BATTERY1,1*%
%TO.N,VBUS*%
%TA.AperFunction,ComponentPad*%
G36*
G01*
X107324999Y-130210000D02*
X108575001Y-130210000D01*
G75*
G02*
X108825000Y-130459999I0J-249999D01*
G01*
X108825000Y-131160001D01*
G75*
G02*
X108575001Y-131410000I-249999J0D01*
G01*
X107324999Y-131410000D01*
G75*
G02*
X107075000Y-131160001I0J249999D01*
G01*
X107075000Y-130459999D01*
G75*
G02*
X107324999Y-130210000I249999J0D01*
G01*
G37*
%TD.AperFunction*%
%TD*%
D13*
%TO.P,OLED1,4*%
%TO.N,/SDA*%
X173482000Y-132588000D03*
%TO.P,OLED1,3*%
%TO.N,/SCL*%
X173482000Y-130048000D03*
%TO.P,OLED1,2*%
%TO.N,VBUS*%
X173482000Y-127508000D03*
D14*
%TO.P,OLED1,1*%
%TO.N,GND*%
X173482000Y-124968000D03*
%TD*%
D16*
%TO.P,J7,1*%
%TO.N,/AREF*%
X177292000Y-136652000D03*
%TD*%
D13*
%TO.P,J6,3*%
%TO.N,Net-(J6-Pad3)*%
X166116000Y-136652000D03*
%TO.P,J6,2*%
%TO.N,/PD2*%
X163576000Y-136652000D03*
D14*
%TO.P,J6,1*%
%TO.N,GND*%
X161036000Y-136652000D03*
%TD*%
D16*
%TO.P,J5,1*%
%TO.N,/PD5*%
X174752000Y-136652000D03*
%TD*%
%TO.P,J4,1*%
%TO.N,/PD4*%
X172212000Y-136652000D03*
%TD*%
D10*
%TO.P,HALL_SENSOR1,4*%
%TO.N,/HALL_SLEEP*%
X193972700Y-132511800D03*
%TO.P,HALL_SENSOR1,3*%
%TO.N,/HALL_OUT*%
X191972700Y-132511800D03*
%TO.P,HALL_SENSOR1,2*%
%TO.N,VDD*%
X189972700Y-132511800D03*
%TO.P,HALL_SENSOR1,1*%
%TO.N,GND*%
%TA.AperFunction,ComponentPad*%
G36*
G01*
X187372700Y-133136801D02*
X187372700Y-131886799D01*
G75*
G02*
X187622699Y-131636800I249999J0D01*
G01*
X188322701Y-131636800D01*
G75*
G02*
X188572700Y-131886799I0J-249999D01*
G01*
X188572700Y-133136801D01*
G75*
G02*
X188322701Y-133386800I-249999J0D01*
G01*
X187622699Y-133386800D01*
G75*
G02*
X187372700Y-133136801I0J249999D01*
G01*
G37*
%TD.AperFunction*%
%TD*%
D13*
%TO.P,FTDI1,6*%
%TO.N,/DTR*%
X102870000Y-135890000D03*
%TO.P,FTDI1,5*%
%TO.N,/TO_FTDI_RX*%
X102870000Y-133350000D03*
%TO.P,FTDI1,4*%
%TO.N,/TO_FTDI_TX*%
X102870000Y-130810000D03*
%TO.P,FTDI1,3*%
%TO.N,/3V3_FTDI*%
X102870000Y-128270000D03*
%TO.P,FTDI1,2*%
%TO.N,GND*%
X102870000Y-125730000D03*
D14*
%TO.P,FTDI1,1*%
X102870000Y-123190000D03*
%TD*%
D16*
%TO.P,J8,1*%
%TO.N,GND*%
X179832000Y-136652000D03*
%TD*%
%TO.P,J2,1*%
%TO.N,/32kHz*%
X161366200Y-122135900D03*
%TD*%
D17*
%TO.N,GND*%
X119380000Y-124206000D03*
X114554000Y-136906000D03*
X119634000Y-137414000D03*
X124968000Y-137160000D03*
X136906000Y-137160000D03*
X139954000Y-136652000D03*
X125222000Y-122936000D03*
X133350000Y-122936000D03*
X144527583Y-124202834D03*
X154432000Y-125666500D03*
X157480000Y-129540000D03*
X127000000Y-128016000D03*
X112776000Y-123698000D03*
X169900600Y-128778000D03*
X165671500Y-127952500D03*
X166878000Y-132689600D03*
X171221400Y-124866400D03*
X162230366Y-124842390D03*
X181965600Y-125412500D03*
X182460900Y-130467100D03*
X149313900Y-122186700D03*
X118605300Y-128460500D03*
%TO.N,VBUS*%
X107442000Y-124460000D03*
X142460812Y-129274938D03*
X144526000Y-127254000D03*
X147828000Y-125730000D03*
X136144000Y-125984000D03*
X133350000Y-124206000D03*
X143357589Y-123190000D03*
X143510008Y-125222000D03*
X155448000Y-122936000D03*
X158750000Y-123190000D03*
%TO.N,/TO_FTDI_RX*%
X145948397Y-122428000D03*
X110998000Y-125984000D03*
X110998000Y-128016000D03*
X107950000Y-134112000D03*
X105918000Y-134112000D03*
X143497479Y-121959922D03*
%TO.N,/TO_FTDI_TX*%
X136652000Y-124968000D03*
X134874000Y-124968000D03*
X121666000Y-126746000D03*
X119126000Y-127177500D03*
X114046000Y-127177500D03*
X106172000Y-129032000D03*
%TO.N,/HALL_SLEEP*%
X171704000Y-133794500D03*
X185166000Y-133858000D03*
%TO.N,/HALL_OUT*%
X185928000Y-133350000D03*
X156718000Y-134874000D03*
X153485312Y-134689312D03*
X152146000Y-134112000D03*
X158292800Y-134251700D03*
X170741506Y-135297067D03*
X167970200Y-135432832D03*
%TO.N,/PD4*%
X155423077Y-134112392D03*
%TO.N,/PD5*%
X156261175Y-134099207D03*
%TO.N,/PD2*%
X158496000Y-136906000D03*
X154432000Y-134302500D03*
%TO.N,/MOSI*%
X143256000Y-129540000D03*
%TO.N,/RSV2*%
X137414000Y-133350000D03*
X137668000Y-128016000D03*
%TO.N,/SCL*%
X156972000Y-126809510D03*
%TO.N,/UPDI*%
X148336000Y-126746000D03*
X155956000Y-127114321D03*
X152503013Y-127114321D03*
X155956000Y-125666500D03*
%TO.N,VBUS*%
X179247800Y-129933700D03*
X179285900Y-127825490D03*
X150850600Y-124231400D03*
X142571678Y-132422900D03*
%TO.N,VDD*%
X168325800Y-126415800D03*
X170827700Y-126911100D03*
%TO.N,/HALL_SLEEP*%
X175260000Y-134213610D03*
X183104231Y-134097224D03*
%TO.N,/HALL_OUT*%
X182994300Y-133223000D03*
%TO.N,/SCL1*%
X186385200Y-130251200D03*
X188595000Y-130238500D03*
%TO.N,/PD4*%
X158450111Y-135217249D03*
X167376271Y-136024311D03*
%TO.N,/PD5*%
X159385888Y-135813821D03*
X164909500Y-137769600D03*
X162483800Y-137604890D03*
%TO.N,/AREF*%
X170624500Y-133743700D03*
X174621637Y-134756834D03*
%TO.N,/MOSI*%
X142633313Y-131203313D03*
%TO.N,/SDA*%
X169189400Y-123063000D03*
X172085000Y-126987300D03*
X172273257Y-131975666D03*
X162775900Y-124206000D03*
X175437800Y-127495290D03*
%TO.N,/SCL*%
X160629600Y-126060200D03*
%TO.N,/32kHz*%
X166827200Y-123063000D03*
X164299900Y-121437400D03*
X161391600Y-126796800D03*
%TO.N,+BATT*%
X125222000Y-131826000D03*
X160947100Y-132499100D03*
X141211300Y-134353300D03*
%TO.N,/BATT_MON_EN*%
X150533100Y-132702300D03*
X152069800Y-130556000D03*
%TO.N,/VREG_EN*%
X169849800Y-125463300D03*
X171818300Y-125755400D03*
X162902910Y-125488690D03*
X179302343Y-131438233D03*
%TO.N,/TO_RESET*%
X111506000Y-123698000D03*
X114046000Y-125984000D03*
%TD*%
D18*
%TO.N,GND*%
X107950000Y-132810000D02*
X108236000Y-132810000D01*
X132080000Y-130556000D02*
X132080000Y-130810000D01*
X161036000Y-136652000D02*
X160274000Y-136652000D01*
X159448499Y-137477501D02*
X154241501Y-137477501D01*
X160274000Y-136652000D02*
X159448499Y-137477501D01*
X132080000Y-130810000D02*
X132588000Y-130810000D01*
X173380400Y-124866400D02*
X173482000Y-124968000D01*
X171221400Y-124866400D02*
X173380400Y-124866400D01*
X171221400Y-126458976D02*
X171221400Y-124866400D01*
X171399202Y-126636778D02*
X171221400Y-126458976D01*
X169900600Y-128778000D02*
X171399202Y-127279398D01*
X171399202Y-127279398D02*
X171399202Y-126636778D01*
X165671500Y-127952500D02*
X163817300Y-127952500D01*
X162230366Y-126365566D02*
X162230366Y-124842390D01*
X163817300Y-127952500D02*
X162230366Y-126365566D01*
X181978300Y-125399800D02*
X181965600Y-125412500D01*
X187972700Y-125399800D02*
X181978300Y-125399800D01*
X181965600Y-125412500D02*
X181965600Y-129971800D01*
X181965600Y-129971800D02*
X182460900Y-130467100D01*
%TO.N,VBUS*%
X109220000Y-126238000D02*
X107442000Y-124460000D01*
X109220000Y-126746000D02*
X109220000Y-126238000D01*
X144526000Y-127254000D02*
X144526000Y-128016000D01*
X144526000Y-128016000D02*
X145034000Y-128524000D01*
X145034000Y-128524000D02*
X146812000Y-128524000D01*
X146812000Y-128524000D02*
X147574000Y-127762000D01*
X147574000Y-125984000D02*
X147828000Y-125730000D01*
X147574000Y-127762000D02*
X147574000Y-125984000D01*
X133350000Y-124289822D02*
X133350000Y-124206000D01*
X135044178Y-125984000D02*
X133350000Y-124289822D01*
X136144000Y-125984000D02*
X135044178Y-125984000D01*
X143357589Y-123190000D02*
X143357589Y-125069581D01*
X143357589Y-125069581D02*
X143510008Y-125222000D01*
X155448000Y-122936000D02*
X158496000Y-122936000D01*
X158496000Y-122936000D02*
X158750000Y-123190000D01*
%TO.N,/TO_FTDI_RX*%
X110998000Y-125984000D02*
X110998000Y-128016000D01*
X107950000Y-134112000D02*
X105918000Y-134112000D01*
X145137420Y-121617023D02*
X143840378Y-121617023D01*
X143840378Y-121617023D02*
X143497479Y-121959922D01*
X145948397Y-122428000D02*
X145137420Y-121617023D01*
%TO.N,/TO_FTDI_TX*%
X136652000Y-124968000D02*
X134874000Y-124968000D01*
X121234500Y-127177500D02*
X119126000Y-127177500D01*
X121666000Y-126746000D02*
X121234500Y-127177500D01*
X112191500Y-129032000D02*
X106172000Y-129032000D01*
X114046000Y-127177500D02*
X112191500Y-129032000D01*
%TO.N,/HALL_OUT*%
X152908000Y-134112000D02*
X152146000Y-134112000D01*
X153485312Y-134689312D02*
X152908000Y-134112000D01*
X157340300Y-134251700D02*
X158292800Y-134251700D01*
X156718000Y-134874000D02*
X157340300Y-134251700D01*
X170741506Y-135297067D02*
X168105965Y-135297067D01*
X168105965Y-135297067D02*
X167970200Y-135432832D01*
%TO.N,/PD2*%
X158496000Y-136906000D02*
X157035500Y-136906000D01*
X157035500Y-136906000D02*
X154432000Y-134302500D01*
%TO.N,/RSV2*%
X137414000Y-133350000D02*
X137668000Y-133096000D01*
X137668000Y-133096000D02*
X137668000Y-128016000D01*
%TO.N,/UPDI*%
X148336000Y-126746000D02*
X152134692Y-126746000D01*
X152134692Y-126746000D02*
X152503013Y-127114321D01*
X155956000Y-125666500D02*
X155956000Y-127114321D01*
%TO.N,VBUS*%
X179247800Y-127863590D02*
X179285900Y-127825490D01*
X179247800Y-129933700D02*
X179247800Y-127863590D01*
X155448000Y-122936000D02*
X154152600Y-124231400D01*
X154152600Y-124231400D02*
X150850600Y-124231400D01*
X142061811Y-131825611D02*
X142430500Y-132194300D01*
X142061811Y-129673939D02*
X142061811Y-131825611D01*
X142460812Y-129274938D02*
X142061811Y-129673939D01*
X142430500Y-132281722D02*
X142571678Y-132422900D01*
X142430500Y-132194300D02*
X142430500Y-132281722D01*
%TO.N,VDD*%
X168821100Y-126911100D02*
X168325800Y-126415800D01*
X170827700Y-126911100D02*
X168821100Y-126911100D01*
%TO.N,/HALL_SLEEP*%
X171704000Y-133794500D02*
X174840890Y-133794500D01*
X174840890Y-133794500D02*
X175260000Y-134213610D01*
X185166000Y-133858000D02*
X183343455Y-133858000D01*
X183343455Y-133858000D02*
X183104231Y-134097224D01*
%TO.N,/HALL_OUT*%
X185801000Y-133223000D02*
X182994300Y-133223000D01*
X185928000Y-133350000D02*
X185801000Y-133223000D01*
%TO.N,/SCL1*%
X188582300Y-130251200D02*
X188595000Y-130238500D01*
X186385200Y-130251200D02*
X188582300Y-130251200D01*
%TO.N,/PD4*%
X158107212Y-135560148D02*
X158450111Y-135217249D01*
X155423077Y-134112392D02*
X155423077Y-134597325D01*
X155423077Y-134597325D02*
X156385900Y-135560148D01*
X156385900Y-135560148D02*
X158107212Y-135560148D01*
X168003960Y-136652000D02*
X167376271Y-136024311D01*
X172212000Y-136652000D02*
X168003960Y-136652000D01*
%TO.N,/PD5*%
X162648510Y-137769600D02*
X162483800Y-137604890D01*
X164909500Y-137769600D02*
X162648510Y-137769600D01*
X159385888Y-133648082D02*
X159385888Y-135813821D01*
X156261175Y-134099207D02*
X156781771Y-133578611D01*
X156781771Y-133578611D02*
X159316417Y-133578611D01*
X159316417Y-133578611D02*
X159385888Y-133648082D01*
%TO.N,/AREF*%
X171637634Y-134756834D02*
X174621637Y-134756834D01*
X170624500Y-133743700D02*
X171637634Y-134756834D01*
%TO.N,/MOSI*%
X143256000Y-129540000D02*
X143256000Y-130580626D01*
X143256000Y-130580626D02*
X142633313Y-131203313D01*
%TO.N,/SDA*%
X172199300Y-131901709D02*
X172273257Y-131975666D01*
X172199300Y-127025400D02*
X172199300Y-131901709D01*
X168046400Y-124206000D02*
X162775900Y-124206000D01*
X169189400Y-123063000D02*
X168046400Y-124206000D01*
X175437800Y-130632200D02*
X175437800Y-127495290D01*
X173482000Y-132588000D02*
X175437800Y-130632200D01*
%TO.N,/SCL*%
X157734000Y-126047510D02*
X156972000Y-126809510D01*
X160616910Y-126047510D02*
X160629600Y-126060200D01*
X157734000Y-126047510D02*
X160616910Y-126047510D01*
%TO.N,/32kHz*%
X165201600Y-121437400D02*
X164299900Y-121437400D01*
X166827200Y-123063000D02*
X165201600Y-121437400D01*
X161391600Y-122161300D02*
X161366200Y-122135900D01*
X161391600Y-126796800D02*
X161391600Y-122161300D01*
%TO.N,+BATT*%
X124206000Y-130810000D02*
X125222000Y-131826000D01*
X124180000Y-130810000D02*
X124206000Y-130810000D01*
X141758000Y-132588000D02*
X139980000Y-130810000D01*
X141758000Y-132588000D02*
X141211300Y-133134700D01*
X141211300Y-133134700D02*
X141211300Y-134353300D01*
X160172400Y-133273800D02*
X160947100Y-132499100D01*
X141758000Y-132588000D02*
X142443800Y-133273800D01*
X142443800Y-133273800D02*
X160172400Y-133273800D01*
%TO.N,/BATT_MON_EN*%
X152069800Y-131165600D02*
X152069800Y-130556000D01*
X150533100Y-132702300D02*
X152069800Y-131165600D01*
%TO.N,/VREG_EN*%
X162928300Y-125463300D02*
X162902910Y-125488690D01*
X169849800Y-125463300D02*
X162928300Y-125463300D01*
X176009301Y-127246369D02*
X176009301Y-128145191D01*
X178959444Y-131095334D02*
X179302343Y-131438233D01*
X176009301Y-128145191D02*
X178959444Y-131095334D01*
X174861231Y-126098299D02*
X176009301Y-127246369D01*
X171818300Y-125755400D02*
X172161199Y-126098299D01*
X172161199Y-126098299D02*
X174861231Y-126098299D01*
%TO.N,/TO_RESET*%
X113792000Y-125984000D02*
X114046000Y-125984000D01*
X111506000Y-123698000D02*
X113792000Y-125984000D01*
%TD*%
D19*
%TO.N,GND*%
X159551000Y-136779002D02*
X159709748Y-136779002D01*
X159551000Y-136937750D01*
X159547928Y-137502000D01*
X159560188Y-137626482D01*
X159596498Y-137746180D01*
X159609230Y-137770000D01*
X158963107Y-137770000D01*
X159119375Y-137665585D01*
X159255585Y-137529375D01*
X159362604Y-137369210D01*
X159436320Y-137191243D01*
X159473900Y-137002315D01*
X159473900Y-136809685D01*
X159470327Y-136791721D01*
X159482203Y-136791721D01*
X159551000Y-136778036D01*
X159551000Y-136779002D01*
%TA.AperFunction,Conductor*%
D20*
G36*
X159551000Y-136779002D02*
G01*
X159709748Y-136779002D01*
X159551000Y-136937750D01*
X159547928Y-137502000D01*
X159560188Y-137626482D01*
X159596498Y-137746180D01*
X159609230Y-137770000D01*
X158963107Y-137770000D01*
X159119375Y-137665585D01*
X159255585Y-137529375D01*
X159362604Y-137369210D01*
X159436320Y-137191243D01*
X159473900Y-137002315D01*
X159473900Y-136809685D01*
X159470327Y-136791721D01*
X159482203Y-136791721D01*
X159551000Y-136778036D01*
X159551000Y-136779002D01*
G37*
%TD.AperFunction*%
D19*
X195428000Y-137770000D02*
X181036558Y-137770000D01*
X181083083Y-137723475D01*
X180967415Y-137607807D01*
X181231814Y-137512044D01*
X181372704Y-137222429D01*
X181454384Y-136910892D01*
X181473718Y-136589405D01*
X181429961Y-136270325D01*
X181324795Y-135965912D01*
X181231814Y-135791956D01*
X180967413Y-135696192D01*
X180011605Y-136652000D01*
X180025748Y-136666143D01*
X179846143Y-136845748D01*
X179832000Y-136831605D01*
X179817858Y-136845748D01*
X179638253Y-136666143D01*
X179652395Y-136652000D01*
X178696587Y-135696192D01*
X178634720Y-135718600D01*
X178561987Y-135609748D01*
X178468826Y-135516587D01*
X178876192Y-135516587D01*
X179832000Y-136472395D01*
X180787808Y-135516587D01*
X180692044Y-135252186D01*
X180402429Y-135111296D01*
X180090892Y-135029616D01*
X179769405Y-135010282D01*
X179450325Y-135054039D01*
X179145912Y-135159205D01*
X178971956Y-135252186D01*
X178876192Y-135516587D01*
X178468826Y-135516587D01*
X178334252Y-135382013D01*
X178066463Y-135203082D01*
X177768912Y-135079832D01*
X177453033Y-135017000D01*
X177130967Y-135017000D01*
X176815088Y-135079832D01*
X176517537Y-135203082D01*
X176249748Y-135382013D01*
X176022013Y-135609748D01*
X176022000Y-135609767D01*
X176021987Y-135609748D01*
X175794252Y-135382013D01*
X175526463Y-135203082D01*
X175499835Y-135192052D01*
X175512967Y-135160350D01*
X175545243Y-135153930D01*
X175723210Y-135080214D01*
X175883375Y-134973195D01*
X176019585Y-134836985D01*
X176126604Y-134676820D01*
X176200320Y-134498853D01*
X176237900Y-134309925D01*
X176237900Y-134117295D01*
X176200320Y-133928367D01*
X176126604Y-133750400D01*
X176019585Y-133590235D01*
X175883375Y-133454025D01*
X175723210Y-133347006D01*
X175545243Y-133273290D01*
X175356315Y-133235710D01*
X175281072Y-133235710D01*
X175237923Y-133200298D01*
X175114371Y-133134258D01*
X175089407Y-133126685D01*
X182016400Y-133126685D01*
X182016400Y-133319315D01*
X182053980Y-133508243D01*
X182127696Y-133686210D01*
X182182212Y-133767799D01*
X182163911Y-133811981D01*
X182126331Y-134000909D01*
X182126331Y-134193539D01*
X182163911Y-134382467D01*
X182237627Y-134560434D01*
X182344646Y-134720599D01*
X182480856Y-134856809D01*
X182641021Y-134963828D01*
X182818988Y-135037544D01*
X183007916Y-135075124D01*
X183200546Y-135075124D01*
X183389474Y-135037544D01*
X183567441Y-134963828D01*
X183727606Y-134856809D01*
X183863816Y-134720599D01*
X183964978Y-134569200D01*
X184494240Y-134569200D01*
X184542625Y-134617585D01*
X184702790Y-134724604D01*
X184880757Y-134798320D01*
X185069685Y-134835900D01*
X185262315Y-134835900D01*
X185451243Y-134798320D01*
X185629210Y-134724604D01*
X185789375Y-134617585D01*
X185925585Y-134481375D01*
X186028719Y-134327024D01*
X186213243Y-134290320D01*
X186391210Y-134216604D01*
X186551375Y-134109585D01*
X186687585Y-133973375D01*
X186794604Y-133813210D01*
X186832151Y-133722563D01*
X186842163Y-133741294D01*
X186921515Y-133837985D01*
X187018206Y-133917337D01*
X187128520Y-133976302D01*
X187248218Y-134012612D01*
X187372700Y-134024872D01*
X187686950Y-134021800D01*
X187845700Y-133863050D01*
X187845700Y-132638800D01*
X186896450Y-132638800D01*
X186737700Y-132797550D01*
X186737679Y-132801596D01*
X186687585Y-132726625D01*
X186551375Y-132590415D01*
X186391210Y-132483396D01*
X186213243Y-132409680D01*
X186024315Y-132372100D01*
X185831685Y-132372100D01*
X185642757Y-132409680D01*
X185464790Y-132483396D01*
X185422280Y-132511800D01*
X183666060Y-132511800D01*
X183617675Y-132463415D01*
X183457510Y-132356396D01*
X183279543Y-132282680D01*
X183090615Y-132245100D01*
X182897985Y-132245100D01*
X182709057Y-132282680D01*
X182531090Y-132356396D01*
X182370925Y-132463415D01*
X182234715Y-132599625D01*
X182127696Y-132759790D01*
X182053980Y-132937757D01*
X182016400Y-133126685D01*
X175089407Y-133126685D01*
X174980310Y-133093591D01*
X174883864Y-133084092D01*
X174909932Y-133021158D01*
X174967000Y-132734260D01*
X174967000Y-132441740D01*
X174911759Y-132164028D01*
X175915995Y-131159793D01*
X175943126Y-131137527D01*
X175965393Y-131110395D01*
X175965397Y-131110391D01*
X176032002Y-131029233D01*
X176050497Y-130994632D01*
X176098042Y-130905681D01*
X176138709Y-130771620D01*
X176149000Y-130667136D01*
X176149000Y-130667129D01*
X176152440Y-130632200D01*
X176149000Y-130597272D01*
X176149000Y-129290677D01*
X178324443Y-131466122D01*
X178324443Y-131534548D01*
X178362023Y-131723476D01*
X178435739Y-131901443D01*
X178542758Y-132061608D01*
X178678968Y-132197818D01*
X178839133Y-132304837D01*
X179017100Y-132378553D01*
X179206028Y-132416133D01*
X179398658Y-132416133D01*
X179587586Y-132378553D01*
X179765553Y-132304837D01*
X179925718Y-132197818D01*
X180061928Y-132061608D01*
X180168947Y-131901443D01*
X180242663Y-131723476D01*
X180259903Y-131636800D01*
X186734628Y-131636800D01*
X186737700Y-132226050D01*
X186896450Y-132384800D01*
X187845700Y-132384800D01*
X187845700Y-131160550D01*
X187686950Y-131001800D01*
X187372700Y-130998728D01*
X187248218Y-131010988D01*
X187128520Y-131047298D01*
X187018206Y-131106263D01*
X186921515Y-131185615D01*
X186842163Y-131282306D01*
X186783198Y-131392620D01*
X186746888Y-131512318D01*
X186734628Y-131636800D01*
X180259903Y-131636800D01*
X180280243Y-131534548D01*
X180280243Y-131341918D01*
X180242663Y-131152990D01*
X180168947Y-130975023D01*
X180061928Y-130814858D01*
X179925718Y-130678648D01*
X179901796Y-130662664D01*
X180007385Y-130557075D01*
X180114404Y-130396910D01*
X180188120Y-130218943D01*
X180200861Y-130154885D01*
X185407300Y-130154885D01*
X185407300Y-130347515D01*
X185444880Y-130536443D01*
X185518596Y-130714410D01*
X185625615Y-130874575D01*
X185761825Y-131010785D01*
X185921990Y-131117804D01*
X186099957Y-131191520D01*
X186288885Y-131229100D01*
X186481515Y-131229100D01*
X186670443Y-131191520D01*
X186848410Y-131117804D01*
X187008575Y-131010785D01*
X187056960Y-130962400D01*
X187935940Y-130962400D01*
X187971625Y-130998085D01*
X188131790Y-131105104D01*
X188148305Y-131111945D01*
X188099700Y-131160550D01*
X188099700Y-132384800D01*
X188119700Y-132384800D01*
X188119700Y-132638800D01*
X188099700Y-132638800D01*
X188099700Y-133863050D01*
X188258450Y-134021800D01*
X188572700Y-134024872D01*
X188697182Y-134012612D01*
X188816880Y-133976302D01*
X188927194Y-133917337D01*
X189023885Y-133837985D01*
X189103237Y-133741294D01*
X189129392Y-133692363D01*
X189283252Y-133818633D01*
X189497800Y-133933311D01*
X189730599Y-134003930D01*
X189972700Y-134027775D01*
X190214802Y-134003930D01*
X190447601Y-133933311D01*
X190662149Y-133818633D01*
X190850202Y-133664302D01*
X190972701Y-133515037D01*
X191095199Y-133664302D01*
X191283252Y-133818633D01*
X191497800Y-133933311D01*
X191730599Y-134003930D01*
X191972700Y-134027775D01*
X192214802Y-134003930D01*
X192447601Y-133933311D01*
X192662149Y-133818633D01*
X192850202Y-133664302D01*
X192972701Y-133515037D01*
X193095199Y-133664302D01*
X193283252Y-133818633D01*
X193497800Y-133933311D01*
X193730599Y-134003930D01*
X193972700Y-134027775D01*
X194214802Y-134003930D01*
X194447601Y-133933311D01*
X194662149Y-133818633D01*
X194850202Y-133664302D01*
X195004533Y-133476249D01*
X195119211Y-133261700D01*
X195189830Y-133028901D01*
X195207700Y-132847464D01*
X195207700Y-132176135D01*
X195189830Y-131994698D01*
X195119211Y-131761899D01*
X195004533Y-131547351D01*
X194850202Y-131359298D01*
X194662148Y-131204967D01*
X194447600Y-131090289D01*
X194214801Y-131019670D01*
X193972700Y-130995825D01*
X193730598Y-131019670D01*
X193497799Y-131090289D01*
X193283251Y-131204967D01*
X193095198Y-131359298D01*
X192972700Y-131508563D01*
X192850202Y-131359298D01*
X192662148Y-131204967D01*
X192447600Y-131090289D01*
X192214801Y-131019670D01*
X191972700Y-130995825D01*
X191730598Y-131019670D01*
X191497799Y-131090289D01*
X191283251Y-131204967D01*
X191095198Y-131359298D01*
X190972700Y-131508563D01*
X190850202Y-131359298D01*
X190662148Y-131204967D01*
X190447600Y-131090289D01*
X190214801Y-131019670D01*
X189972700Y-130995825D01*
X189730598Y-131019670D01*
X189497799Y-131090289D01*
X189283251Y-131204967D01*
X189129391Y-131331236D01*
X189103237Y-131282306D01*
X189023885Y-131185615D01*
X188970201Y-131141558D01*
X189058210Y-131105104D01*
X189218375Y-130998085D01*
X189354585Y-130861875D01*
X189461604Y-130701710D01*
X189535320Y-130523743D01*
X189572900Y-130334815D01*
X189572900Y-130142185D01*
X189535320Y-129953257D01*
X189461604Y-129775290D01*
X189354585Y-129615125D01*
X189218375Y-129478915D01*
X189058210Y-129371896D01*
X188880243Y-129298180D01*
X188691315Y-129260600D01*
X188498685Y-129260600D01*
X188309757Y-129298180D01*
X188131790Y-129371896D01*
X187971625Y-129478915D01*
X187910540Y-129540000D01*
X187056960Y-129540000D01*
X187008575Y-129491615D01*
X186848410Y-129384596D01*
X186670443Y-129310880D01*
X186481515Y-129273300D01*
X186288885Y-129273300D01*
X186099957Y-129310880D01*
X185921990Y-129384596D01*
X185761825Y-129491615D01*
X185625615Y-129627825D01*
X185518596Y-129787990D01*
X185444880Y-129965957D01*
X185407300Y-130154885D01*
X180200861Y-130154885D01*
X180225700Y-130030015D01*
X180225700Y-129837385D01*
X180188120Y-129648457D01*
X180114404Y-129470490D01*
X180007385Y-129310325D01*
X179959000Y-129261940D01*
X179959000Y-128535350D01*
X180045485Y-128448865D01*
X180152504Y-128288700D01*
X180226220Y-128110733D01*
X180263800Y-127921805D01*
X180263800Y-127729175D01*
X180226220Y-127540247D01*
X180152504Y-127362280D01*
X180045485Y-127202115D01*
X179909275Y-127065905D01*
X179749110Y-126958886D01*
X179571143Y-126885170D01*
X179382215Y-126847590D01*
X179189585Y-126847590D01*
X179000657Y-126885170D01*
X178822690Y-126958886D01*
X178662525Y-127065905D01*
X178526315Y-127202115D01*
X178419296Y-127362280D01*
X178345580Y-127540247D01*
X178308000Y-127729175D01*
X178308000Y-127921805D01*
X178345580Y-128110733D01*
X178419296Y-128288700D01*
X178526315Y-128448865D01*
X178536601Y-128459151D01*
X178536600Y-129261940D01*
X178488215Y-129310325D01*
X178381196Y-129470490D01*
X178369244Y-129499345D01*
X176720501Y-127850604D01*
X176720501Y-127281294D01*
X176723941Y-127246368D01*
X176720501Y-127211442D01*
X176720501Y-127211433D01*
X176710210Y-127106949D01*
X176669543Y-126972888D01*
X176603503Y-126849336D01*
X176589058Y-126831735D01*
X176536898Y-126768178D01*
X176536894Y-126768174D01*
X176514627Y-126741042D01*
X176487496Y-126718776D01*
X176043520Y-126274800D01*
X186734628Y-126274800D01*
X186746888Y-126399282D01*
X186783198Y-126518980D01*
X186842163Y-126629294D01*
X186921515Y-126725985D01*
X187018206Y-126805337D01*
X187128520Y-126864302D01*
X187248218Y-126900612D01*
X187372700Y-126912872D01*
X187686950Y-126909800D01*
X187845700Y-126751050D01*
X187845700Y-125526800D01*
X186896450Y-125526800D01*
X186737700Y-125685550D01*
X186734628Y-126274800D01*
X176043520Y-126274800D01*
X175388833Y-125620114D01*
X175366558Y-125592972D01*
X175258264Y-125504097D01*
X175134712Y-125438057D01*
X175000651Y-125397390D01*
X174967764Y-125394151D01*
X174967000Y-125253750D01*
X174808250Y-125095000D01*
X173609000Y-125095000D01*
X173609000Y-125115000D01*
X173355000Y-125115000D01*
X173355000Y-125095000D01*
X173335000Y-125095000D01*
X173335000Y-124841000D01*
X173355000Y-124841000D01*
X173355000Y-123641750D01*
X173609000Y-123641750D01*
X173609000Y-124841000D01*
X174808250Y-124841000D01*
X174967000Y-124682250D01*
X174967857Y-124524800D01*
X186734628Y-124524800D01*
X186737700Y-125114050D01*
X186896450Y-125272800D01*
X187845700Y-125272800D01*
X187845700Y-124048550D01*
X188099700Y-124048550D01*
X188099700Y-125272800D01*
X188119700Y-125272800D01*
X188119700Y-125526800D01*
X188099700Y-125526800D01*
X188099700Y-126751050D01*
X188258450Y-126909800D01*
X188572700Y-126912872D01*
X188697182Y-126900612D01*
X188816880Y-126864302D01*
X188927194Y-126805337D01*
X189023885Y-126725985D01*
X189103237Y-126629294D01*
X189129392Y-126580363D01*
X189283252Y-126706633D01*
X189497800Y-126821311D01*
X189730599Y-126891930D01*
X189972700Y-126915775D01*
X190214802Y-126891930D01*
X190447601Y-126821311D01*
X190662149Y-126706633D01*
X190850202Y-126552302D01*
X190972701Y-126403037D01*
X191095199Y-126552302D01*
X191283252Y-126706633D01*
X191497800Y-126821311D01*
X191730599Y-126891930D01*
X191972700Y-126915775D01*
X192214802Y-126891930D01*
X192447601Y-126821311D01*
X192662149Y-126706633D01*
X192850202Y-126552302D01*
X192972701Y-126403037D01*
X193095199Y-126552302D01*
X193283252Y-126706633D01*
X193497800Y-126821311D01*
X193730599Y-126891930D01*
X193972700Y-126915775D01*
X194214802Y-126891930D01*
X194447601Y-126821311D01*
X194662149Y-126706633D01*
X194850202Y-126552302D01*
X195004533Y-126364249D01*
X195119211Y-126149700D01*
X195189830Y-125916901D01*
X195207700Y-125735464D01*
X195207700Y-125064135D01*
X195189830Y-124882698D01*
X195119211Y-124649899D01*
X195004533Y-124435351D01*
X194850202Y-124247298D01*
X194662148Y-124092967D01*
X194447600Y-123978289D01*
X194214801Y-123907670D01*
X193972700Y-123883825D01*
X193730598Y-123907670D01*
X193497799Y-123978289D01*
X193283251Y-124092967D01*
X193095198Y-124247298D01*
X192972700Y-124396563D01*
X192850202Y-124247298D01*
X192662148Y-124092967D01*
X192447600Y-123978289D01*
X192214801Y-123907670D01*
X191972700Y-123883825D01*
X191730598Y-123907670D01*
X191497799Y-123978289D01*
X191283251Y-124092967D01*
X191095198Y-124247298D01*
X190972700Y-124396563D01*
X190850202Y-124247298D01*
X190662148Y-124092967D01*
X190447600Y-123978289D01*
X190214801Y-123907670D01*
X189972700Y-123883825D01*
X189730598Y-123907670D01*
X189497799Y-123978289D01*
X189283251Y-124092967D01*
X189129391Y-124219236D01*
X189103237Y-124170306D01*
X189023885Y-124073615D01*
X188927194Y-123994263D01*
X188816880Y-123935298D01*
X188697182Y-123898988D01*
X188572700Y-123886728D01*
X188258450Y-123889800D01*
X188099700Y-124048550D01*
X187845700Y-124048550D01*
X187686950Y-123889800D01*
X187372700Y-123886728D01*
X187248218Y-123898988D01*
X187128520Y-123935298D01*
X187018206Y-123994263D01*
X186921515Y-124073615D01*
X186842163Y-124170306D01*
X186783198Y-124280620D01*
X186746888Y-124400318D01*
X186734628Y-124524800D01*
X174967857Y-124524800D01*
X174970072Y-124118000D01*
X174957812Y-123993518D01*
X174921502Y-123873820D01*
X174862537Y-123763506D01*
X174783185Y-123666815D01*
X174686494Y-123587463D01*
X174576180Y-123528498D01*
X174456482Y-123492188D01*
X174332000Y-123479928D01*
X173767750Y-123483000D01*
X173609000Y-123641750D01*
X173355000Y-123641750D01*
X173196250Y-123483000D01*
X172632000Y-123479928D01*
X172507518Y-123492188D01*
X172387820Y-123528498D01*
X172277506Y-123587463D01*
X172180815Y-123666815D01*
X172101463Y-123763506D01*
X172042498Y-123873820D01*
X172006188Y-123993518D01*
X171993928Y-124118000D01*
X171997000Y-124682250D01*
X172148418Y-124833668D01*
X172103543Y-124815080D01*
X171914615Y-124777500D01*
X171721985Y-124777500D01*
X171533057Y-124815080D01*
X171355090Y-124888796D01*
X171194925Y-124995815D01*
X171058715Y-125132025D01*
X170951696Y-125292190D01*
X170877980Y-125470157D01*
X170840400Y-125659085D01*
X170840400Y-125851715D01*
X170856608Y-125933200D01*
X170731385Y-125933200D01*
X170708952Y-125937662D01*
X170716404Y-125926510D01*
X170790120Y-125748543D01*
X170827700Y-125559615D01*
X170827700Y-125366985D01*
X170790120Y-125178057D01*
X170716404Y-125000090D01*
X170609385Y-124839925D01*
X170473175Y-124703715D01*
X170313010Y-124596696D01*
X170135043Y-124522980D01*
X169946115Y-124485400D01*
X169753485Y-124485400D01*
X169564557Y-124522980D01*
X169386590Y-124596696D01*
X169226425Y-124703715D01*
X169178040Y-124752100D01*
X168502045Y-124752100D01*
X168551727Y-124711327D01*
X168574002Y-124684185D01*
X169217288Y-124040900D01*
X169285715Y-124040900D01*
X169474643Y-124003320D01*
X169652610Y-123929604D01*
X169812775Y-123822585D01*
X169948985Y-123686375D01*
X170056004Y-123526210D01*
X170129720Y-123348243D01*
X170167300Y-123159315D01*
X170167300Y-122966685D01*
X170129720Y-122777757D01*
X170056004Y-122599790D01*
X169948985Y-122439625D01*
X169812775Y-122303415D01*
X169652610Y-122196396D01*
X169474643Y-122122680D01*
X169285715Y-122085100D01*
X169093085Y-122085100D01*
X168904157Y-122122680D01*
X168726190Y-122196396D01*
X168566025Y-122303415D01*
X168429815Y-122439625D01*
X168322796Y-122599790D01*
X168249080Y-122777757D01*
X168211500Y-122966685D01*
X168211500Y-123035112D01*
X167751813Y-123494800D01*
X167706814Y-123494800D01*
X167767520Y-123348243D01*
X167805100Y-123159315D01*
X167805100Y-122966685D01*
X167767520Y-122777757D01*
X167693804Y-122599790D01*
X167586785Y-122439625D01*
X167450575Y-122303415D01*
X167290410Y-122196396D01*
X167112443Y-122122680D01*
X166923515Y-122085100D01*
X166855088Y-122085100D01*
X166079987Y-121310000D01*
X195428001Y-121310000D01*
X195428000Y-137770000D01*
%TA.AperFunction,Conductor*%
D20*
G36*
X195428000Y-137770000D02*
G01*
X181036558Y-137770000D01*
X181083083Y-137723475D01*
X180967415Y-137607807D01*
X181231814Y-137512044D01*
X181372704Y-137222429D01*
X181454384Y-136910892D01*
X181473718Y-136589405D01*
X181429961Y-136270325D01*
X181324795Y-135965912D01*
X181231814Y-135791956D01*
X180967413Y-135696192D01*
X180011605Y-136652000D01*
X180025748Y-136666143D01*
X179846143Y-136845748D01*
X179832000Y-136831605D01*
X179817858Y-136845748D01*
X179638253Y-136666143D01*
X179652395Y-136652000D01*
X178696587Y-135696192D01*
X178634720Y-135718600D01*
X178561987Y-135609748D01*
X178468826Y-135516587D01*
X178876192Y-135516587D01*
X179832000Y-136472395D01*
X180787808Y-135516587D01*
X180692044Y-135252186D01*
X180402429Y-135111296D01*
X180090892Y-135029616D01*
X179769405Y-135010282D01*
X179450325Y-135054039D01*
X179145912Y-135159205D01*
X178971956Y-135252186D01*
X178876192Y-135516587D01*
X178468826Y-135516587D01*
X178334252Y-135382013D01*
X178066463Y-135203082D01*
X177768912Y-135079832D01*
X177453033Y-135017000D01*
X177130967Y-135017000D01*
X176815088Y-135079832D01*
X176517537Y-135203082D01*
X176249748Y-135382013D01*
X176022013Y-135609748D01*
X176022000Y-135609767D01*
X176021987Y-135609748D01*
X175794252Y-135382013D01*
X175526463Y-135203082D01*
X175499835Y-135192052D01*
X175512967Y-135160350D01*
X175545243Y-135153930D01*
X175723210Y-135080214D01*
X175883375Y-134973195D01*
X176019585Y-134836985D01*
X176126604Y-134676820D01*
X176200320Y-134498853D01*
X176237900Y-134309925D01*
X176237900Y-134117295D01*
X176200320Y-133928367D01*
X176126604Y-133750400D01*
X176019585Y-133590235D01*
X175883375Y-133454025D01*
X175723210Y-133347006D01*
X175545243Y-133273290D01*
X175356315Y-133235710D01*
X175281072Y-133235710D01*
X175237923Y-133200298D01*
X175114371Y-133134258D01*
X175089407Y-133126685D01*
X182016400Y-133126685D01*
X182016400Y-133319315D01*
X182053980Y-133508243D01*
X182127696Y-133686210D01*
X182182212Y-133767799D01*
X182163911Y-133811981D01*
X182126331Y-134000909D01*
X182126331Y-134193539D01*
X182163911Y-134382467D01*
X182237627Y-134560434D01*
X182344646Y-134720599D01*
X182480856Y-134856809D01*
X182641021Y-134963828D01*
X182818988Y-135037544D01*
X183007916Y-135075124D01*
X183200546Y-135075124D01*
X183389474Y-135037544D01*
X183567441Y-134963828D01*
X183727606Y-134856809D01*
X183863816Y-134720599D01*
X183964978Y-134569200D01*
X184494240Y-134569200D01*
X184542625Y-134617585D01*
X184702790Y-134724604D01*
X184880757Y-134798320D01*
X185069685Y-134835900D01*
X185262315Y-134835900D01*
X185451243Y-134798320D01*
X185629210Y-134724604D01*
X185789375Y-134617585D01*
X185925585Y-134481375D01*
X186028719Y-134327024D01*
X186213243Y-134290320D01*
X186391210Y-134216604D01*
X186551375Y-134109585D01*
X186687585Y-133973375D01*
X186794604Y-133813210D01*
X186832151Y-133722563D01*
X186842163Y-133741294D01*
X186921515Y-133837985D01*
X187018206Y-133917337D01*
X187128520Y-133976302D01*
X187248218Y-134012612D01*
X187372700Y-134024872D01*
X187686950Y-134021800D01*
X187845700Y-133863050D01*
X187845700Y-132638800D01*
X186896450Y-132638800D01*
X186737700Y-132797550D01*
X186737679Y-132801596D01*
X186687585Y-132726625D01*
X186551375Y-132590415D01*
X186391210Y-132483396D01*
X186213243Y-132409680D01*
X186024315Y-132372100D01*
X185831685Y-132372100D01*
X185642757Y-132409680D01*
X185464790Y-132483396D01*
X185422280Y-132511800D01*
X183666060Y-132511800D01*
X183617675Y-132463415D01*
X183457510Y-132356396D01*
X183279543Y-132282680D01*
X183090615Y-132245100D01*
X182897985Y-132245100D01*
X182709057Y-132282680D01*
X182531090Y-132356396D01*
X182370925Y-132463415D01*
X182234715Y-132599625D01*
X182127696Y-132759790D01*
X182053980Y-132937757D01*
X182016400Y-133126685D01*
X175089407Y-133126685D01*
X174980310Y-133093591D01*
X174883864Y-133084092D01*
X174909932Y-133021158D01*
X174967000Y-132734260D01*
X174967000Y-132441740D01*
X174911759Y-132164028D01*
X175915995Y-131159793D01*
X175943126Y-131137527D01*
X175965393Y-131110395D01*
X175965397Y-131110391D01*
X176032002Y-131029233D01*
X176050497Y-130994632D01*
X176098042Y-130905681D01*
X176138709Y-130771620D01*
X176149000Y-130667136D01*
X176149000Y-130667129D01*
X176152440Y-130632200D01*
X176149000Y-130597272D01*
X176149000Y-129290677D01*
X178324443Y-131466122D01*
X178324443Y-131534548D01*
X178362023Y-131723476D01*
X178435739Y-131901443D01*
X178542758Y-132061608D01*
X178678968Y-132197818D01*
X178839133Y-132304837D01*
X179017100Y-132378553D01*
X179206028Y-132416133D01*
X179398658Y-132416133D01*
X179587586Y-132378553D01*
X179765553Y-132304837D01*
X179925718Y-132197818D01*
X180061928Y-132061608D01*
X180168947Y-131901443D01*
X180242663Y-131723476D01*
X180259903Y-131636800D01*
X186734628Y-131636800D01*
X186737700Y-132226050D01*
X186896450Y-132384800D01*
X187845700Y-132384800D01*
X187845700Y-131160550D01*
X187686950Y-131001800D01*
X187372700Y-130998728D01*
X187248218Y-131010988D01*
X187128520Y-131047298D01*
X187018206Y-131106263D01*
X186921515Y-131185615D01*
X186842163Y-131282306D01*
X186783198Y-131392620D01*
X186746888Y-131512318D01*
X186734628Y-131636800D01*
X180259903Y-131636800D01*
X180280243Y-131534548D01*
X180280243Y-131341918D01*
X180242663Y-131152990D01*
X180168947Y-130975023D01*
X180061928Y-130814858D01*
X179925718Y-130678648D01*
X179901796Y-130662664D01*
X180007385Y-130557075D01*
X180114404Y-130396910D01*
X180188120Y-130218943D01*
X180200861Y-130154885D01*
X185407300Y-130154885D01*
X185407300Y-130347515D01*
X185444880Y-130536443D01*
X185518596Y-130714410D01*
X185625615Y-130874575D01*
X185761825Y-131010785D01*
X185921990Y-131117804D01*
X186099957Y-131191520D01*
X186288885Y-131229100D01*
X186481515Y-131229100D01*
X186670443Y-131191520D01*
X186848410Y-131117804D01*
X187008575Y-131010785D01*
X187056960Y-130962400D01*
X187935940Y-130962400D01*
X187971625Y-130998085D01*
X188131790Y-131105104D01*
X188148305Y-131111945D01*
X188099700Y-131160550D01*
X188099700Y-132384800D01*
X188119700Y-132384800D01*
X188119700Y-132638800D01*
X188099700Y-132638800D01*
X188099700Y-133863050D01*
X188258450Y-134021800D01*
X188572700Y-134024872D01*
X188697182Y-134012612D01*
X188816880Y-133976302D01*
X188927194Y-133917337D01*
X189023885Y-133837985D01*
X189103237Y-133741294D01*
X189129392Y-133692363D01*
X189283252Y-133818633D01*
X189497800Y-133933311D01*
X189730599Y-134003930D01*
X189972700Y-134027775D01*
X190214802Y-134003930D01*
X190447601Y-133933311D01*
X190662149Y-133818633D01*
X190850202Y-133664302D01*
X190972701Y-133515037D01*
X191095199Y-133664302D01*
X191283252Y-133818633D01*
X191497800Y-133933311D01*
X191730599Y-134003930D01*
X191972700Y-134027775D01*
X192214802Y-134003930D01*
X192447601Y-133933311D01*
X192662149Y-133818633D01*
X192850202Y-133664302D01*
X192972701Y-133515037D01*
X193095199Y-133664302D01*
X193283252Y-133818633D01*
X193497800Y-133933311D01*
X193730599Y-134003930D01*
X193972700Y-134027775D01*
X194214802Y-134003930D01*
X194447601Y-133933311D01*
X194662149Y-133818633D01*
X194850202Y-133664302D01*
X195004533Y-133476249D01*
X195119211Y-133261700D01*
X195189830Y-133028901D01*
X195207700Y-132847464D01*
X195207700Y-132176135D01*
X195189830Y-131994698D01*
X195119211Y-131761899D01*
X195004533Y-131547351D01*
X194850202Y-131359298D01*
X194662148Y-131204967D01*
X194447600Y-131090289D01*
X194214801Y-131019670D01*
X193972700Y-130995825D01*
X193730598Y-131019670D01*
X193497799Y-131090289D01*
X193283251Y-131204967D01*
X193095198Y-131359298D01*
X192972700Y-131508563D01*
X192850202Y-131359298D01*
X192662148Y-131204967D01*
X192447600Y-131090289D01*
X192214801Y-131019670D01*
X191972700Y-130995825D01*
X191730598Y-131019670D01*
X191497799Y-131090289D01*
X191283251Y-131204967D01*
X191095198Y-131359298D01*
X190972700Y-131508563D01*
X190850202Y-131359298D01*
X190662148Y-131204967D01*
X190447600Y-131090289D01*
X190214801Y-131019670D01*
X189972700Y-130995825D01*
X189730598Y-131019670D01*
X189497799Y-131090289D01*
X189283251Y-131204967D01*
X189129391Y-131331236D01*
X189103237Y-131282306D01*
X189023885Y-131185615D01*
X188970201Y-131141558D01*
X189058210Y-131105104D01*
X189218375Y-130998085D01*
X189354585Y-130861875D01*
X189461604Y-130701710D01*
X189535320Y-130523743D01*
X189572900Y-130334815D01*
X189572900Y-130142185D01*
X189535320Y-129953257D01*
X189461604Y-129775290D01*
X189354585Y-129615125D01*
X189218375Y-129478915D01*
X189058210Y-129371896D01*
X188880243Y-129298180D01*
X188691315Y-129260600D01*
X188498685Y-129260600D01*
X188309757Y-129298180D01*
X188131790Y-129371896D01*
X187971625Y-129478915D01*
X187910540Y-129540000D01*
X187056960Y-129540000D01*
X187008575Y-129491615D01*
X186848410Y-129384596D01*
X186670443Y-129310880D01*
X186481515Y-129273300D01*
X186288885Y-129273300D01*
X186099957Y-129310880D01*
X185921990Y-129384596D01*
X185761825Y-129491615D01*
X185625615Y-129627825D01*
X185518596Y-129787990D01*
X185444880Y-129965957D01*
X185407300Y-130154885D01*
X180200861Y-130154885D01*
X180225700Y-130030015D01*
X180225700Y-129837385D01*
X180188120Y-129648457D01*
X180114404Y-129470490D01*
X180007385Y-129310325D01*
X179959000Y-129261940D01*
X179959000Y-128535350D01*
X180045485Y-128448865D01*
X180152504Y-128288700D01*
X180226220Y-128110733D01*
X180263800Y-127921805D01*
X180263800Y-127729175D01*
X180226220Y-127540247D01*
X180152504Y-127362280D01*
X180045485Y-127202115D01*
X179909275Y-127065905D01*
X179749110Y-126958886D01*
X179571143Y-126885170D01*
X179382215Y-126847590D01*
X179189585Y-126847590D01*
X179000657Y-126885170D01*
X178822690Y-126958886D01*
X178662525Y-127065905D01*
X178526315Y-127202115D01*
X178419296Y-127362280D01*
X178345580Y-127540247D01*
X178308000Y-127729175D01*
X178308000Y-127921805D01*
X178345580Y-128110733D01*
X178419296Y-128288700D01*
X178526315Y-128448865D01*
X178536601Y-128459151D01*
X178536600Y-129261940D01*
X178488215Y-129310325D01*
X178381196Y-129470490D01*
X178369244Y-129499345D01*
X176720501Y-127850604D01*
X176720501Y-127281294D01*
X176723941Y-127246368D01*
X176720501Y-127211442D01*
X176720501Y-127211433D01*
X176710210Y-127106949D01*
X176669543Y-126972888D01*
X176603503Y-126849336D01*
X176589058Y-126831735D01*
X176536898Y-126768178D01*
X176536894Y-126768174D01*
X176514627Y-126741042D01*
X176487496Y-126718776D01*
X176043520Y-126274800D01*
X186734628Y-126274800D01*
X186746888Y-126399282D01*
X186783198Y-126518980D01*
X186842163Y-126629294D01*
X186921515Y-126725985D01*
X187018206Y-126805337D01*
X187128520Y-126864302D01*
X187248218Y-126900612D01*
X187372700Y-126912872D01*
X187686950Y-126909800D01*
X187845700Y-126751050D01*
X187845700Y-125526800D01*
X186896450Y-125526800D01*
X186737700Y-125685550D01*
X186734628Y-126274800D01*
X176043520Y-126274800D01*
X175388833Y-125620114D01*
X175366558Y-125592972D01*
X175258264Y-125504097D01*
X175134712Y-125438057D01*
X175000651Y-125397390D01*
X174967764Y-125394151D01*
X174967000Y-125253750D01*
X174808250Y-125095000D01*
X173609000Y-125095000D01*
X173609000Y-125115000D01*
X173355000Y-125115000D01*
X173355000Y-125095000D01*
X173335000Y-125095000D01*
X173335000Y-124841000D01*
X173355000Y-124841000D01*
X173355000Y-123641750D01*
X173609000Y-123641750D01*
X173609000Y-124841000D01*
X174808250Y-124841000D01*
X174967000Y-124682250D01*
X174967857Y-124524800D01*
X186734628Y-124524800D01*
X186737700Y-125114050D01*
X186896450Y-125272800D01*
X187845700Y-125272800D01*
X187845700Y-124048550D01*
X188099700Y-124048550D01*
X188099700Y-125272800D01*
X188119700Y-125272800D01*
X188119700Y-125526800D01*
X188099700Y-125526800D01*
X188099700Y-126751050D01*
X188258450Y-126909800D01*
X188572700Y-126912872D01*
X188697182Y-126900612D01*
X188816880Y-126864302D01*
X188927194Y-126805337D01*
X189023885Y-126725985D01*
X189103237Y-126629294D01*
X189129392Y-126580363D01*
X189283252Y-126706633D01*
X189497800Y-126821311D01*
X189730599Y-126891930D01*
X189972700Y-126915775D01*
X190214802Y-126891930D01*
X190447601Y-126821311D01*
X190662149Y-126706633D01*
X190850202Y-126552302D01*
X190972701Y-126403037D01*
X191095199Y-126552302D01*
X191283252Y-126706633D01*
X191497800Y-126821311D01*
X191730599Y-126891930D01*
X191972700Y-126915775D01*
X192214802Y-126891930D01*
X192447601Y-126821311D01*
X192662149Y-126706633D01*
X192850202Y-126552302D01*
X192972701Y-126403037D01*
X193095199Y-126552302D01*
X193283252Y-126706633D01*
X193497800Y-126821311D01*
X193730599Y-126891930D01*
X193972700Y-126915775D01*
X194214802Y-126891930D01*
X194447601Y-126821311D01*
X194662149Y-126706633D01*
X194850202Y-126552302D01*
X195004533Y-126364249D01*
X195119211Y-126149700D01*
X195189830Y-125916901D01*
X195207700Y-125735464D01*
X195207700Y-125064135D01*
X195189830Y-124882698D01*
X195119211Y-124649899D01*
X195004533Y-124435351D01*
X194850202Y-124247298D01*
X194662148Y-124092967D01*
X194447600Y-123978289D01*
X194214801Y-123907670D01*
X193972700Y-123883825D01*
X193730598Y-123907670D01*
X193497799Y-123978289D01*
X193283251Y-124092967D01*
X193095198Y-124247298D01*
X192972700Y-124396563D01*
X192850202Y-124247298D01*
X192662148Y-124092967D01*
X192447600Y-123978289D01*
X192214801Y-123907670D01*
X191972700Y-123883825D01*
X191730598Y-123907670D01*
X191497799Y-123978289D01*
X191283251Y-124092967D01*
X191095198Y-124247298D01*
X190972700Y-124396563D01*
X190850202Y-124247298D01*
X190662148Y-124092967D01*
X190447600Y-123978289D01*
X190214801Y-123907670D01*
X189972700Y-123883825D01*
X189730598Y-123907670D01*
X189497799Y-123978289D01*
X189283251Y-124092967D01*
X189129391Y-124219236D01*
X189103237Y-124170306D01*
X189023885Y-124073615D01*
X188927194Y-123994263D01*
X188816880Y-123935298D01*
X188697182Y-123898988D01*
X188572700Y-123886728D01*
X188258450Y-123889800D01*
X188099700Y-124048550D01*
X187845700Y-124048550D01*
X187686950Y-123889800D01*
X187372700Y-123886728D01*
X187248218Y-123898988D01*
X187128520Y-123935298D01*
X187018206Y-123994263D01*
X186921515Y-124073615D01*
X186842163Y-124170306D01*
X186783198Y-124280620D01*
X186746888Y-124400318D01*
X186734628Y-124524800D01*
X174967857Y-124524800D01*
X174970072Y-124118000D01*
X174957812Y-123993518D01*
X174921502Y-123873820D01*
X174862537Y-123763506D01*
X174783185Y-123666815D01*
X174686494Y-123587463D01*
X174576180Y-123528498D01*
X174456482Y-123492188D01*
X174332000Y-123479928D01*
X173767750Y-123483000D01*
X173609000Y-123641750D01*
X173355000Y-123641750D01*
X173196250Y-123483000D01*
X172632000Y-123479928D01*
X172507518Y-123492188D01*
X172387820Y-123528498D01*
X172277506Y-123587463D01*
X172180815Y-123666815D01*
X172101463Y-123763506D01*
X172042498Y-123873820D01*
X172006188Y-123993518D01*
X171993928Y-124118000D01*
X171997000Y-124682250D01*
X172148418Y-124833668D01*
X172103543Y-124815080D01*
X171914615Y-124777500D01*
X171721985Y-124777500D01*
X171533057Y-124815080D01*
X171355090Y-124888796D01*
X171194925Y-124995815D01*
X171058715Y-125132025D01*
X170951696Y-125292190D01*
X170877980Y-125470157D01*
X170840400Y-125659085D01*
X170840400Y-125851715D01*
X170856608Y-125933200D01*
X170731385Y-125933200D01*
X170708952Y-125937662D01*
X170716404Y-125926510D01*
X170790120Y-125748543D01*
X170827700Y-125559615D01*
X170827700Y-125366985D01*
X170790120Y-125178057D01*
X170716404Y-125000090D01*
X170609385Y-124839925D01*
X170473175Y-124703715D01*
X170313010Y-124596696D01*
X170135043Y-124522980D01*
X169946115Y-124485400D01*
X169753485Y-124485400D01*
X169564557Y-124522980D01*
X169386590Y-124596696D01*
X169226425Y-124703715D01*
X169178040Y-124752100D01*
X168502045Y-124752100D01*
X168551727Y-124711327D01*
X168574002Y-124684185D01*
X169217288Y-124040900D01*
X169285715Y-124040900D01*
X169474643Y-124003320D01*
X169652610Y-123929604D01*
X169812775Y-123822585D01*
X169948985Y-123686375D01*
X170056004Y-123526210D01*
X170129720Y-123348243D01*
X170167300Y-123159315D01*
X170167300Y-122966685D01*
X170129720Y-122777757D01*
X170056004Y-122599790D01*
X169948985Y-122439625D01*
X169812775Y-122303415D01*
X169652610Y-122196396D01*
X169474643Y-122122680D01*
X169285715Y-122085100D01*
X169093085Y-122085100D01*
X168904157Y-122122680D01*
X168726190Y-122196396D01*
X168566025Y-122303415D01*
X168429815Y-122439625D01*
X168322796Y-122599790D01*
X168249080Y-122777757D01*
X168211500Y-122966685D01*
X168211500Y-123035112D01*
X167751813Y-123494800D01*
X167706814Y-123494800D01*
X167767520Y-123348243D01*
X167805100Y-123159315D01*
X167805100Y-122966685D01*
X167767520Y-122777757D01*
X167693804Y-122599790D01*
X167586785Y-122439625D01*
X167450575Y-122303415D01*
X167290410Y-122196396D01*
X167112443Y-122122680D01*
X166923515Y-122085100D01*
X166855088Y-122085100D01*
X166079987Y-121310000D01*
X195428001Y-121310000D01*
X195428000Y-137770000D01*
G37*
%TD.AperFunction*%
D19*
X142737894Y-121336547D02*
X142630875Y-121496712D01*
X142557159Y-121674679D01*
X142519579Y-121863607D01*
X142519579Y-122056237D01*
X142557159Y-122245165D01*
X142630875Y-122423132D01*
X142675184Y-122489445D01*
X142598004Y-122566625D01*
X142490985Y-122726790D01*
X142417269Y-122904757D01*
X142379689Y-123093685D01*
X142379689Y-123286315D01*
X142417269Y-123475243D01*
X142490985Y-123653210D01*
X142598004Y-123813375D01*
X142646389Y-123861760D01*
X142646390Y-124754321D01*
X142643404Y-124758790D01*
X142569688Y-124936757D01*
X142532108Y-125125685D01*
X142532108Y-125318315D01*
X142569688Y-125507243D01*
X142643404Y-125685210D01*
X142750423Y-125845375D01*
X142886633Y-125981585D01*
X143046798Y-126088604D01*
X143224765Y-126162320D01*
X143413693Y-126199900D01*
X143606323Y-126199900D01*
X143795251Y-126162320D01*
X143973218Y-126088604D01*
X144133383Y-125981585D01*
X144269593Y-125845375D01*
X144376612Y-125685210D01*
X144450328Y-125507243D01*
X144487908Y-125318315D01*
X144487908Y-125125685D01*
X144450328Y-124936757D01*
X144376612Y-124758790D01*
X144269593Y-124598625D01*
X144133383Y-124462415D01*
X144068789Y-124419255D01*
X144068789Y-124135085D01*
X149872700Y-124135085D01*
X149872700Y-124327715D01*
X149910280Y-124516643D01*
X149983996Y-124694610D01*
X150091015Y-124854775D01*
X150227225Y-124990985D01*
X150387390Y-125098004D01*
X150565357Y-125171720D01*
X150754285Y-125209300D01*
X150946915Y-125209300D01*
X151135843Y-125171720D01*
X151313810Y-125098004D01*
X151473975Y-124990985D01*
X151522360Y-124942600D01*
X154117674Y-124942600D01*
X154152600Y-124946040D01*
X154187526Y-124942600D01*
X154187536Y-124942600D01*
X154292020Y-124932309D01*
X154426081Y-124891642D01*
X154549633Y-124825602D01*
X154657927Y-124736727D01*
X154680201Y-124709586D01*
X155475888Y-123913900D01*
X155544315Y-123913900D01*
X155733243Y-123876320D01*
X155911210Y-123802604D01*
X156071375Y-123695585D01*
X156119760Y-123647200D01*
X157880907Y-123647200D01*
X157883396Y-123653210D01*
X157990415Y-123813375D01*
X158126625Y-123949585D01*
X158286790Y-124056604D01*
X158464757Y-124130320D01*
X158653685Y-124167900D01*
X158846315Y-124167900D01*
X159035243Y-124130320D01*
X159213210Y-124056604D01*
X159373375Y-123949585D01*
X159509585Y-123813375D01*
X159616604Y-123653210D01*
X159690320Y-123475243D01*
X159727900Y-123286315D01*
X159727900Y-123093685D01*
X159690320Y-122904757D01*
X159616604Y-122726790D01*
X159509585Y-122566625D01*
X159373375Y-122430415D01*
X159213210Y-122323396D01*
X159035243Y-122249680D01*
X158846315Y-122212100D01*
X158653685Y-122212100D01*
X158570331Y-122228680D01*
X158530936Y-122224800D01*
X158530926Y-122224800D01*
X158496000Y-122221360D01*
X158461074Y-122224800D01*
X156119760Y-122224800D01*
X156071375Y-122176415D01*
X155911210Y-122069396D01*
X155733243Y-121995680D01*
X155544315Y-121958100D01*
X155351685Y-121958100D01*
X155162757Y-121995680D01*
X154984790Y-122069396D01*
X154824625Y-122176415D01*
X154688415Y-122312625D01*
X154581396Y-122472790D01*
X154507680Y-122650757D01*
X154470100Y-122839685D01*
X154470100Y-122908112D01*
X153858013Y-123520200D01*
X151522360Y-123520200D01*
X151473975Y-123471815D01*
X151313810Y-123364796D01*
X151135843Y-123291080D01*
X150946915Y-123253500D01*
X150754285Y-123253500D01*
X150565357Y-123291080D01*
X150387390Y-123364796D01*
X150227225Y-123471815D01*
X150091015Y-123608025D01*
X149983996Y-123768190D01*
X149910280Y-123946157D01*
X149872700Y-124135085D01*
X144068789Y-124135085D01*
X144068789Y-123861760D01*
X144117174Y-123813375D01*
X144224193Y-123653210D01*
X144297909Y-123475243D01*
X144314558Y-123391543D01*
X144371602Y-123429659D01*
X144577304Y-123514863D01*
X144795675Y-123558300D01*
X145018325Y-123558300D01*
X145236696Y-123514863D01*
X145442398Y-123429659D01*
X145583547Y-123335346D01*
X145663154Y-123368320D01*
X145852082Y-123405900D01*
X146044712Y-123405900D01*
X146233640Y-123368320D01*
X146281891Y-123348334D01*
X146403602Y-123429659D01*
X146609304Y-123514863D01*
X146827675Y-123558300D01*
X147050325Y-123558300D01*
X147268696Y-123514863D01*
X147474398Y-123429659D01*
X147659524Y-123305961D01*
X147816961Y-123148524D01*
X147940659Y-122963398D01*
X148025863Y-122757696D01*
X148069300Y-122539325D01*
X148069300Y-122316675D01*
X148025863Y-122098304D01*
X147940659Y-121892602D01*
X147816961Y-121707476D01*
X147659524Y-121550039D01*
X147474398Y-121426341D01*
X147268696Y-121341137D01*
X147112161Y-121310000D01*
X159951651Y-121310000D01*
X159917282Y-121361437D01*
X159794032Y-121658988D01*
X159731200Y-121974867D01*
X159731200Y-122296933D01*
X159794032Y-122612812D01*
X159917282Y-122910363D01*
X160096213Y-123178152D01*
X160323948Y-123405887D01*
X160591737Y-123584818D01*
X160680401Y-123621544D01*
X160680400Y-125082300D01*
X160533285Y-125082300D01*
X160344357Y-125119880D01*
X160166390Y-125193596D01*
X160006225Y-125300615D01*
X159970530Y-125336310D01*
X157768928Y-125336310D01*
X157734000Y-125332870D01*
X157699071Y-125336310D01*
X157699064Y-125336310D01*
X157594580Y-125346601D01*
X157460518Y-125387268D01*
X157336967Y-125453308D01*
X157255809Y-125519912D01*
X157255804Y-125519917D01*
X157228673Y-125542183D01*
X157206407Y-125569314D01*
X156944112Y-125831610D01*
X156920216Y-125831610D01*
X156933900Y-125762815D01*
X156933900Y-125570185D01*
X156896320Y-125381257D01*
X156822604Y-125203290D01*
X156715585Y-125043125D01*
X156579375Y-124906915D01*
X156419210Y-124799896D01*
X156241243Y-124726180D01*
X156052315Y-124688600D01*
X155859685Y-124688600D01*
X155670757Y-124726180D01*
X155492790Y-124799896D01*
X155332625Y-124906915D01*
X155196415Y-125043125D01*
X155089396Y-125203290D01*
X155015680Y-125381257D01*
X154978100Y-125570185D01*
X154978100Y-125762815D01*
X155015680Y-125951743D01*
X155089396Y-126129710D01*
X155196415Y-126289875D01*
X155244800Y-126338260D01*
X155244801Y-126442560D01*
X155196415Y-126490946D01*
X155089396Y-126651111D01*
X155015680Y-126829078D01*
X154978100Y-127018006D01*
X154978100Y-127210636D01*
X155015680Y-127399564D01*
X155089396Y-127577531D01*
X155196415Y-127737696D01*
X155332625Y-127873906D01*
X155492790Y-127980925D01*
X155670757Y-128054641D01*
X155859685Y-128092221D01*
X156052315Y-128092221D01*
X156241243Y-128054641D01*
X156419210Y-127980925D01*
X156579375Y-127873906D01*
X156700681Y-127752600D01*
X156875685Y-127787410D01*
X157068315Y-127787410D01*
X157257243Y-127749830D01*
X157435210Y-127676114D01*
X157595375Y-127569095D01*
X157731585Y-127432885D01*
X157838604Y-127272720D01*
X157912320Y-127094753D01*
X157949900Y-126905825D01*
X157949900Y-126837398D01*
X158028588Y-126758710D01*
X159945150Y-126758710D01*
X160006225Y-126819785D01*
X160166390Y-126926804D01*
X160344357Y-127000520D01*
X160438801Y-127019306D01*
X160451280Y-127082043D01*
X160524996Y-127260010D01*
X160632015Y-127420175D01*
X160768225Y-127556385D01*
X160928390Y-127663404D01*
X161106357Y-127737120D01*
X161295285Y-127774700D01*
X161487915Y-127774700D01*
X161676843Y-127737120D01*
X161854810Y-127663404D01*
X162014975Y-127556385D01*
X162151185Y-127420175D01*
X162258204Y-127260010D01*
X162331920Y-127082043D01*
X162369500Y-126893115D01*
X162369500Y-126700485D01*
X162331920Y-126511557D01*
X162258204Y-126333590D01*
X162151185Y-126173425D01*
X162102800Y-126125040D01*
X162102800Y-126051415D01*
X162143325Y-126112065D01*
X162279535Y-126248275D01*
X162439700Y-126355294D01*
X162617667Y-126429010D01*
X162806595Y-126466590D01*
X162999225Y-126466590D01*
X163188153Y-126429010D01*
X163366120Y-126355294D01*
X163526285Y-126248275D01*
X163600060Y-126174500D01*
X167376739Y-126174500D01*
X167347900Y-126319485D01*
X167347900Y-126512115D01*
X167385480Y-126701043D01*
X167459196Y-126879010D01*
X167566215Y-127039175D01*
X167702425Y-127175385D01*
X167862590Y-127282404D01*
X168040557Y-127356120D01*
X168229485Y-127393700D01*
X168297121Y-127393700D01*
X168315773Y-127416427D01*
X168424067Y-127505302D01*
X168547619Y-127571342D01*
X168681680Y-127612009D01*
X168786164Y-127622300D01*
X168786171Y-127622300D01*
X168821100Y-127625740D01*
X168856028Y-127622300D01*
X170155940Y-127622300D01*
X170204325Y-127670685D01*
X170364490Y-127777704D01*
X170542457Y-127851420D01*
X170731385Y-127889000D01*
X170924015Y-127889000D01*
X171112943Y-127851420D01*
X171290910Y-127777704D01*
X171411721Y-127696981D01*
X171461625Y-127746885D01*
X171488100Y-127764575D01*
X171488101Y-131390561D01*
X171406653Y-131512456D01*
X171332937Y-131690423D01*
X171295357Y-131879351D01*
X171295357Y-132071981D01*
X171332937Y-132260909D01*
X171406653Y-132438876D01*
X171513672Y-132599041D01*
X171649882Y-132735251D01*
X171771629Y-132816600D01*
X171607685Y-132816600D01*
X171418757Y-132854180D01*
X171240790Y-132927896D01*
X171202264Y-132953638D01*
X171087710Y-132877096D01*
X170909743Y-132803380D01*
X170720815Y-132765800D01*
X170528185Y-132765800D01*
X170339257Y-132803380D01*
X170161290Y-132877096D01*
X170001125Y-132984115D01*
X169864915Y-133120325D01*
X169757896Y-133280490D01*
X169684180Y-133458457D01*
X169646600Y-133647385D01*
X169646600Y-133840015D01*
X169684180Y-134028943D01*
X169757896Y-134206910D01*
X169864915Y-134367075D01*
X170001125Y-134503285D01*
X170091765Y-134563848D01*
X170069746Y-134585867D01*
X168462802Y-134585867D01*
X168433410Y-134566228D01*
X168255443Y-134492512D01*
X168066515Y-134454932D01*
X167873885Y-134454932D01*
X167684957Y-134492512D01*
X167506990Y-134566228D01*
X167346825Y-134673247D01*
X167210615Y-134809457D01*
X167103596Y-134969622D01*
X167049015Y-135101393D01*
X166913061Y-135157707D01*
X166752896Y-135264726D01*
X166721972Y-135295650D01*
X166549158Y-135224068D01*
X166262260Y-135167000D01*
X165969740Y-135167000D01*
X165682842Y-135224068D01*
X165412589Y-135336010D01*
X165169368Y-135498525D01*
X164962525Y-135705368D01*
X164846000Y-135879760D01*
X164729475Y-135705368D01*
X164522632Y-135498525D01*
X164279411Y-135336010D01*
X164009158Y-135224068D01*
X163722260Y-135167000D01*
X163429740Y-135167000D01*
X163142842Y-135224068D01*
X162872589Y-135336010D01*
X162629368Y-135498525D01*
X162497513Y-135630380D01*
X162475502Y-135557820D01*
X162416537Y-135447506D01*
X162337185Y-135350815D01*
X162240494Y-135271463D01*
X162130180Y-135212498D01*
X162010482Y-135176188D01*
X161886000Y-135163928D01*
X161321750Y-135167000D01*
X161163000Y-135325750D01*
X161163000Y-136525000D01*
X161183000Y-136525000D01*
X161183000Y-136779000D01*
X161163000Y-136779000D01*
X161163000Y-136799000D01*
X160909000Y-136799000D01*
X160909000Y-136779000D01*
X160889000Y-136779000D01*
X160889000Y-136525000D01*
X160909000Y-136525000D01*
X160909000Y-135325750D01*
X160750250Y-135167000D01*
X160186000Y-135163928D01*
X160124966Y-135169939D01*
X160097088Y-135142061D01*
X160097088Y-133985000D01*
X160137474Y-133985000D01*
X160172400Y-133988440D01*
X160207326Y-133985000D01*
X160207336Y-133985000D01*
X160311820Y-133974709D01*
X160445881Y-133934042D01*
X160569433Y-133868002D01*
X160677727Y-133779127D01*
X160700001Y-133751986D01*
X160974988Y-133477000D01*
X161043415Y-133477000D01*
X161232343Y-133439420D01*
X161410310Y-133365704D01*
X161570475Y-133258685D01*
X161706685Y-133122475D01*
X161813704Y-132962310D01*
X161887420Y-132784343D01*
X161925000Y-132595415D01*
X161925000Y-132402785D01*
X161887420Y-132213857D01*
X161813704Y-132035890D01*
X161706685Y-131875725D01*
X161570475Y-131739515D01*
X161410310Y-131632496D01*
X161232343Y-131558780D01*
X161043415Y-131521200D01*
X160850785Y-131521200D01*
X160661857Y-131558780D01*
X160483890Y-131632496D01*
X160323725Y-131739515D01*
X160187515Y-131875725D01*
X160080496Y-132035890D01*
X160006780Y-132213857D01*
X159969200Y-132402785D01*
X159969200Y-132471212D01*
X159877812Y-132562600D01*
X151678587Y-132562600D01*
X152547995Y-131693193D01*
X152575126Y-131670927D01*
X152597393Y-131643795D01*
X152597397Y-131643791D01*
X152664002Y-131562633D01*
X152694980Y-131504677D01*
X152730042Y-131439081D01*
X152770709Y-131305020D01*
X152778026Y-131230734D01*
X152829385Y-131179375D01*
X152936404Y-131019210D01*
X153010120Y-130841243D01*
X153047700Y-130652315D01*
X153047700Y-130459685D01*
X153010120Y-130270757D01*
X152936404Y-130092790D01*
X152829385Y-129932625D01*
X152693175Y-129796415D01*
X152533010Y-129689396D01*
X152355043Y-129615680D01*
X152166115Y-129578100D01*
X151973485Y-129578100D01*
X151784557Y-129615680D01*
X151606590Y-129689396D01*
X151446425Y-129796415D01*
X151310215Y-129932625D01*
X151203196Y-130092790D01*
X151129480Y-130270757D01*
X151091900Y-130459685D01*
X151091900Y-130652315D01*
X151129480Y-130841243D01*
X151203196Y-131019210D01*
X151206082Y-131023530D01*
X150505213Y-131724400D01*
X150436785Y-131724400D01*
X150247857Y-131761980D01*
X150069890Y-131835696D01*
X149909725Y-131942715D01*
X149773515Y-132078925D01*
X149666496Y-132239090D01*
X149592780Y-132417057D01*
X149563830Y-132562600D01*
X143540948Y-132562600D01*
X143549578Y-132519215D01*
X143549578Y-132326585D01*
X143511998Y-132137657D01*
X143438282Y-131959690D01*
X143366831Y-131852755D01*
X143392898Y-131826688D01*
X143499917Y-131666523D01*
X143573633Y-131488556D01*
X143611213Y-131299628D01*
X143611213Y-131231201D01*
X143734196Y-131108219D01*
X143761327Y-131085953D01*
X143783593Y-131058822D01*
X143783597Y-131058818D01*
X143850202Y-130977659D01*
X143885596Y-130911441D01*
X143916242Y-130854107D01*
X143956909Y-130720046D01*
X143967200Y-130615562D01*
X143967200Y-130615553D01*
X143970640Y-130580627D01*
X143967200Y-130545701D01*
X143967200Y-130211760D01*
X144015585Y-130163375D01*
X144122604Y-130003210D01*
X144196320Y-129825243D01*
X144233900Y-129636315D01*
X144233900Y-129443685D01*
X144196320Y-129254757D01*
X144122604Y-129076790D01*
X144015585Y-128916625D01*
X143879375Y-128780415D01*
X143719210Y-128673396D01*
X143541243Y-128599680D01*
X143352315Y-128562100D01*
X143159685Y-128562100D01*
X143135704Y-128566870D01*
X143084187Y-128515353D01*
X142924022Y-128408334D01*
X142746055Y-128334618D01*
X142557127Y-128297038D01*
X142364497Y-128297038D01*
X142175569Y-128334618D01*
X141997602Y-128408334D01*
X141837437Y-128515353D01*
X141821819Y-128530971D01*
X141730000Y-128521928D01*
X138506061Y-128521928D01*
X138534604Y-128479210D01*
X138608320Y-128301243D01*
X138645900Y-128112315D01*
X138645900Y-127919685D01*
X138608320Y-127730757D01*
X138534604Y-127552790D01*
X138427585Y-127392625D01*
X138291375Y-127256415D01*
X138143616Y-127157685D01*
X143548100Y-127157685D01*
X143548100Y-127350315D01*
X143585680Y-127539243D01*
X143659396Y-127717210D01*
X143766415Y-127877375D01*
X143814800Y-127925760D01*
X143814800Y-127981074D01*
X143811360Y-128016000D01*
X143814800Y-128050926D01*
X143814800Y-128050936D01*
X143825091Y-128155420D01*
X143860582Y-128272415D01*
X143865759Y-128289481D01*
X143931798Y-128413032D01*
X143968532Y-128457792D01*
X144020674Y-128521327D01*
X144047809Y-128543596D01*
X144506407Y-129002195D01*
X144528673Y-129029327D01*
X144555804Y-129051593D01*
X144555808Y-129051597D01*
X144590097Y-129079737D01*
X144636967Y-129118202D01*
X144760519Y-129184242D01*
X144894580Y-129224909D01*
X144999064Y-129235200D01*
X144999081Y-129235200D01*
X145033999Y-129238639D01*
X145068917Y-129235200D01*
X146777074Y-129235200D01*
X146812000Y-129238640D01*
X146846926Y-129235200D01*
X146846936Y-129235200D01*
X146951420Y-129224909D01*
X147085481Y-129184242D01*
X147209033Y-129118202D01*
X147317327Y-129029327D01*
X147339601Y-129002186D01*
X148052200Y-128289589D01*
X148079326Y-128267327D01*
X148101588Y-128240201D01*
X148101598Y-128240191D01*
X148168202Y-128159033D01*
X148234242Y-128035482D01*
X148274909Y-127901420D01*
X148277175Y-127878409D01*
X148285200Y-127796936D01*
X148285200Y-127796929D01*
X148288640Y-127762000D01*
X148285200Y-127727072D01*
X148285200Y-127723900D01*
X148432315Y-127723900D01*
X148621243Y-127686320D01*
X148799210Y-127612604D01*
X148959375Y-127505585D01*
X149007760Y-127457200D01*
X151586567Y-127457200D01*
X151636409Y-127577531D01*
X151743428Y-127737696D01*
X151879638Y-127873906D01*
X152039803Y-127980925D01*
X152217770Y-128054641D01*
X152406698Y-128092221D01*
X152599328Y-128092221D01*
X152788256Y-128054641D01*
X152966223Y-127980925D01*
X153126388Y-127873906D01*
X153262598Y-127737696D01*
X153369617Y-127577531D01*
X153443333Y-127399564D01*
X153480913Y-127210636D01*
X153480913Y-127018006D01*
X153443333Y-126829078D01*
X153369617Y-126651111D01*
X153262598Y-126490946D01*
X153126388Y-126354736D01*
X152966223Y-126247717D01*
X152788256Y-126174001D01*
X152599328Y-126136421D01*
X152502957Y-126136421D01*
X152408173Y-126085758D01*
X152274112Y-126045091D01*
X152169628Y-126034800D01*
X152169618Y-126034800D01*
X152134692Y-126031360D01*
X152099766Y-126034800D01*
X149007760Y-126034800D01*
X148959375Y-125986415D01*
X148799210Y-125879396D01*
X148795636Y-125877916D01*
X148805900Y-125826315D01*
X148805900Y-125633685D01*
X148768320Y-125444757D01*
X148694604Y-125266790D01*
X148587585Y-125106625D01*
X148451375Y-124970415D01*
X148291210Y-124863396D01*
X148113243Y-124789680D01*
X147924315Y-124752100D01*
X147731685Y-124752100D01*
X147542757Y-124789680D01*
X147364790Y-124863396D01*
X147204625Y-124970415D01*
X147068415Y-125106625D01*
X146961396Y-125266790D01*
X146887680Y-125444757D01*
X146850100Y-125633685D01*
X146850100Y-125826315D01*
X146866681Y-125909673D01*
X146859360Y-125984000D01*
X146862801Y-126018936D01*
X146862800Y-126880025D01*
X146800961Y-126787476D01*
X146643524Y-126630039D01*
X146458398Y-126506341D01*
X146252696Y-126421137D01*
X146034325Y-126377700D01*
X145811675Y-126377700D01*
X145593304Y-126421137D01*
X145387602Y-126506341D01*
X145251945Y-126596985D01*
X145149375Y-126494415D01*
X144989210Y-126387396D01*
X144811243Y-126313680D01*
X144622315Y-126276100D01*
X144429685Y-126276100D01*
X144240757Y-126313680D01*
X144062790Y-126387396D01*
X143902625Y-126494415D01*
X143766415Y-126630625D01*
X143659396Y-126790790D01*
X143585680Y-126968757D01*
X143548100Y-127157685D01*
X138143616Y-127157685D01*
X138131210Y-127149396D01*
X137953243Y-127075680D01*
X137764315Y-127038100D01*
X137571685Y-127038100D01*
X137382757Y-127075680D01*
X137204790Y-127149396D01*
X137044625Y-127256415D01*
X136908415Y-127392625D01*
X136801396Y-127552790D01*
X136727680Y-127730757D01*
X136690100Y-127919685D01*
X136690100Y-128112315D01*
X136727680Y-128301243D01*
X136801396Y-128479210D01*
X136908415Y-128639375D01*
X136956801Y-128687761D01*
X136956800Y-132480907D01*
X136950790Y-132483396D01*
X136790625Y-132590415D01*
X136654415Y-132726625D01*
X136547396Y-132886790D01*
X136473680Y-133064757D01*
X136436100Y-133253685D01*
X136436100Y-133446315D01*
X136473680Y-133635243D01*
X136547396Y-133813210D01*
X136654415Y-133973375D01*
X136790625Y-134109585D01*
X136950790Y-134216604D01*
X137128757Y-134290320D01*
X137317685Y-134327900D01*
X137510315Y-134327900D01*
X137699243Y-134290320D01*
X137877210Y-134216604D01*
X138037375Y-134109585D01*
X138173585Y-133973375D01*
X138280604Y-133813210D01*
X138354320Y-133635243D01*
X138391900Y-133446315D01*
X138391900Y-133253685D01*
X138375320Y-133170331D01*
X138379200Y-133130936D01*
X138379200Y-133130927D01*
X138382436Y-133098072D01*
X140500267Y-133098072D01*
X140500100Y-133099765D01*
X140500100Y-133099774D01*
X140496660Y-133134700D01*
X140500100Y-133169626D01*
X140500100Y-133681540D01*
X140451715Y-133729925D01*
X140344696Y-133890090D01*
X140270980Y-134068057D01*
X140233400Y-134256985D01*
X140233400Y-134449615D01*
X140270980Y-134638543D01*
X140344696Y-134816510D01*
X140451715Y-134976675D01*
X140587925Y-135112885D01*
X140748090Y-135219904D01*
X140926057Y-135293620D01*
X141114985Y-135331200D01*
X141307615Y-135331200D01*
X141496543Y-135293620D01*
X141674510Y-135219904D01*
X141834675Y-135112885D01*
X141970885Y-134976675D01*
X142077904Y-134816510D01*
X142151620Y-134638543D01*
X142189200Y-134449615D01*
X142189200Y-134256985D01*
X142151620Y-134068057D01*
X142077904Y-133890090D01*
X142072245Y-133881620D01*
X142170318Y-133934042D01*
X142277177Y-133966457D01*
X142304380Y-133974709D01*
X142408864Y-133985000D01*
X142408871Y-133985000D01*
X142443800Y-133988440D01*
X142478728Y-133985000D01*
X151174204Y-133985000D01*
X151168100Y-134015685D01*
X151168100Y-134208315D01*
X151205680Y-134397243D01*
X151279396Y-134575210D01*
X151386415Y-134735375D01*
X151522625Y-134871585D01*
X151682790Y-134978604D01*
X151860757Y-135052320D01*
X152049685Y-135089900D01*
X152242315Y-135089900D01*
X152431243Y-135052320D01*
X152555828Y-135000715D01*
X152618708Y-135152522D01*
X152725727Y-135312687D01*
X152861937Y-135448897D01*
X153022102Y-135555916D01*
X153200069Y-135629632D01*
X153388997Y-135667212D01*
X153581627Y-135667212D01*
X153770555Y-135629632D01*
X153948522Y-135555916D01*
X154108687Y-135448897D01*
X154244897Y-135312687D01*
X154274591Y-135268248D01*
X154335685Y-135280400D01*
X154404113Y-135280400D01*
X156507903Y-137384191D01*
X156530173Y-137411327D01*
X156638467Y-137500202D01*
X156762019Y-137566242D01*
X156896080Y-137606909D01*
X157000564Y-137617200D01*
X157000573Y-137617200D01*
X157035499Y-137620640D01*
X157070425Y-137617200D01*
X157824240Y-137617200D01*
X157872625Y-137665585D01*
X158028893Y-137770000D01*
X100990000Y-137770000D01*
X100990000Y-128123740D01*
X101385000Y-128123740D01*
X101385000Y-128416260D01*
X101442068Y-128703158D01*
X101554010Y-128973411D01*
X101716525Y-129216632D01*
X101923368Y-129423475D01*
X102097760Y-129540000D01*
X101923368Y-129656525D01*
X101716525Y-129863368D01*
X101554010Y-130106589D01*
X101442068Y-130376842D01*
X101385000Y-130663740D01*
X101385000Y-130956260D01*
X101442068Y-131243158D01*
X101554010Y-131513411D01*
X101716525Y-131756632D01*
X101923368Y-131963475D01*
X102097760Y-132080000D01*
X101923368Y-132196525D01*
X101716525Y-132403368D01*
X101554010Y-132646589D01*
X101442068Y-132916842D01*
X101385000Y-133203740D01*
X101385000Y-133496260D01*
X101442068Y-133783158D01*
X101554010Y-134053411D01*
X101716525Y-134296632D01*
X101923368Y-134503475D01*
X102097760Y-134620000D01*
X101923368Y-134736525D01*
X101716525Y-134943368D01*
X101554010Y-135186589D01*
X101442068Y-135456842D01*
X101385000Y-135743740D01*
X101385000Y-136036260D01*
X101442068Y-136323158D01*
X101554010Y-136593411D01*
X101716525Y-136836632D01*
X101923368Y-137043475D01*
X102166589Y-137205990D01*
X102436842Y-137317932D01*
X102723740Y-137375000D01*
X103016260Y-137375000D01*
X103303158Y-137317932D01*
X103573411Y-137205990D01*
X103816632Y-137043475D01*
X104023475Y-136836632D01*
X104185990Y-136593411D01*
X104297932Y-136323158D01*
X104355000Y-136036260D01*
X104355000Y-135743740D01*
X104297932Y-135456842D01*
X104185990Y-135186589D01*
X104023475Y-134943368D01*
X103816632Y-134736525D01*
X103642240Y-134620000D01*
X103816632Y-134503475D01*
X104023475Y-134296632D01*
X104185990Y-134053411D01*
X104201616Y-134015685D01*
X104940100Y-134015685D01*
X104940100Y-134208315D01*
X104977680Y-134397243D01*
X105051396Y-134575210D01*
X105158415Y-134735375D01*
X105294625Y-134871585D01*
X105454790Y-134978604D01*
X105632757Y-135052320D01*
X105821685Y-135089900D01*
X106014315Y-135089900D01*
X106203243Y-135052320D01*
X106381210Y-134978604D01*
X106541375Y-134871585D01*
X106589760Y-134823200D01*
X107278240Y-134823200D01*
X107326625Y-134871585D01*
X107486790Y-134978604D01*
X107664757Y-135052320D01*
X107853685Y-135089900D01*
X108046315Y-135089900D01*
X108235243Y-135052320D01*
X108413210Y-134978604D01*
X108573375Y-134871585D01*
X108709585Y-134735375D01*
X108816604Y-134575210D01*
X108890320Y-134397243D01*
X108927900Y-134208315D01*
X108927900Y-134015685D01*
X108894669Y-133848623D01*
X109016725Y-133766307D01*
X109188078Y-133593474D01*
X109322421Y-133390533D01*
X109414591Y-133165282D01*
X109418462Y-133127609D01*
X109293731Y-132937000D01*
X108077000Y-132937000D01*
X108077000Y-132957000D01*
X107823000Y-132957000D01*
X107823000Y-132937000D01*
X106606269Y-132937000D01*
X106481538Y-133127609D01*
X106485409Y-133165282D01*
X106576253Y-133387293D01*
X106541375Y-133352415D01*
X106381210Y-133245396D01*
X106203243Y-133171680D01*
X106014315Y-133134100D01*
X105821685Y-133134100D01*
X105632757Y-133171680D01*
X105454790Y-133245396D01*
X105294625Y-133352415D01*
X105158415Y-133488625D01*
X105051396Y-133648790D01*
X104977680Y-133826757D01*
X104940100Y-134015685D01*
X104201616Y-134015685D01*
X104297932Y-133783158D01*
X104355000Y-133496260D01*
X104355000Y-133203740D01*
X104297932Y-132916842D01*
X104185990Y-132646589D01*
X104023475Y-132403368D01*
X103816632Y-132196525D01*
X103642240Y-132080000D01*
X103816632Y-131963475D01*
X104023475Y-131756632D01*
X104185990Y-131513411D01*
X104297932Y-131243158D01*
X104355000Y-130956260D01*
X104355000Y-130663740D01*
X104297932Y-130376842D01*
X104185990Y-130106589D01*
X104023475Y-129863368D01*
X103816632Y-129656525D01*
X103642240Y-129540000D01*
X103816632Y-129423475D01*
X104023475Y-129216632D01*
X104185990Y-128973411D01*
X104201616Y-128935685D01*
X105194100Y-128935685D01*
X105194100Y-129128315D01*
X105231680Y-129317243D01*
X105305396Y-129495210D01*
X105412415Y-129655375D01*
X105548625Y-129791585D01*
X105708790Y-129898604D01*
X105886757Y-129972320D01*
X106075685Y-130009900D01*
X106268315Y-130009900D01*
X106457243Y-129972320D01*
X106635210Y-129898604D01*
X106651149Y-129887954D01*
X106586595Y-129966613D01*
X106504528Y-130120149D01*
X106453992Y-130286745D01*
X106436928Y-130459999D01*
X106436928Y-131160001D01*
X106453992Y-131333255D01*
X106504528Y-131499851D01*
X106586595Y-131653387D01*
X106697038Y-131787962D01*
X106831613Y-131898405D01*
X106836406Y-131900967D01*
X106711922Y-132026526D01*
X106577579Y-132229467D01*
X106485409Y-132454718D01*
X106481538Y-132492391D01*
X106606269Y-132683000D01*
X107823000Y-132683000D01*
X107823000Y-132663000D01*
X108077000Y-132663000D01*
X108077000Y-132683000D01*
X109293731Y-132683000D01*
X109418462Y-132492391D01*
X109414591Y-132454718D01*
X109322421Y-132229467D01*
X109188078Y-132026526D01*
X109063594Y-131900967D01*
X109068387Y-131898405D01*
X109202962Y-131787962D01*
X109313405Y-131653387D01*
X109395472Y-131499851D01*
X109446008Y-131333255D01*
X109463072Y-131160001D01*
X109463072Y-130459999D01*
X109446008Y-130286745D01*
X109395472Y-130120149D01*
X109313405Y-129966613D01*
X109202962Y-129832038D01*
X109094713Y-129743200D01*
X112156574Y-129743200D01*
X112191500Y-129746640D01*
X112226426Y-129743200D01*
X112226436Y-129743200D01*
X112330920Y-129732909D01*
X112464981Y-129692242D01*
X112588533Y-129626202D01*
X112696827Y-129537327D01*
X112719102Y-129510185D01*
X113069287Y-129160000D01*
X121791928Y-129160000D01*
X121791928Y-132460000D01*
X121804188Y-132584482D01*
X121840498Y-132704180D01*
X121899463Y-132814494D01*
X121978815Y-132911185D01*
X122075506Y-132990537D01*
X122185820Y-133049502D01*
X122305518Y-133085812D01*
X122430000Y-133098072D01*
X125930000Y-133098072D01*
X126054482Y-133085812D01*
X126174180Y-133049502D01*
X126242192Y-133013148D01*
X130056457Y-133013148D01*
X130332627Y-133431118D01*
X130877557Y-133721649D01*
X131468696Y-133900287D01*
X132083328Y-133960168D01*
X132697831Y-133898990D01*
X133288592Y-133719103D01*
X133827373Y-133431118D01*
X134103543Y-133013148D01*
X132080000Y-130989605D01*
X130056457Y-133013148D01*
X126242192Y-133013148D01*
X126284494Y-132990537D01*
X126381185Y-132911185D01*
X126460537Y-132814494D01*
X126519502Y-132704180D01*
X126555812Y-132584482D01*
X126568072Y-132460000D01*
X126568072Y-130813328D01*
X128929832Y-130813328D01*
X128991010Y-131427831D01*
X129170897Y-132018592D01*
X129458882Y-132557373D01*
X129876852Y-132833543D01*
X131900395Y-130810000D01*
X132259605Y-130810000D01*
X134283148Y-132833543D01*
X134701118Y-132557373D01*
X134991649Y-132012443D01*
X135170287Y-131421304D01*
X135230168Y-130806672D01*
X135168990Y-130192169D01*
X134989103Y-129601408D01*
X134701118Y-129062627D01*
X134283148Y-128786457D01*
X132259605Y-130810000D01*
X131900395Y-130810000D01*
X129876852Y-128786457D01*
X129458882Y-129062627D01*
X129168351Y-129607557D01*
X128989713Y-130198696D01*
X128929832Y-130813328D01*
X126568072Y-130813328D01*
X126568072Y-129160000D01*
X126555812Y-129035518D01*
X126519502Y-128915820D01*
X126460537Y-128805506D01*
X126381185Y-128708815D01*
X126284494Y-128629463D01*
X126242193Y-128606852D01*
X130056457Y-128606852D01*
X132080000Y-130630395D01*
X134103543Y-128606852D01*
X133827373Y-128188882D01*
X133282443Y-127898351D01*
X132691304Y-127719713D01*
X132076672Y-127659832D01*
X131462169Y-127721010D01*
X130871408Y-127900897D01*
X130332627Y-128188882D01*
X130056457Y-128606852D01*
X126242193Y-128606852D01*
X126174180Y-128570498D01*
X126054482Y-128534188D01*
X125930000Y-128521928D01*
X122430000Y-128521928D01*
X122305518Y-128534188D01*
X122185820Y-128570498D01*
X122075506Y-128629463D01*
X121978815Y-128708815D01*
X121899463Y-128805506D01*
X121840498Y-128915820D01*
X121804188Y-129035518D01*
X121791928Y-129160000D01*
X113069287Y-129160000D01*
X114073888Y-128155400D01*
X114142315Y-128155400D01*
X114331243Y-128117820D01*
X114509210Y-128044104D01*
X114669375Y-127937085D01*
X114805585Y-127800875D01*
X114912604Y-127640710D01*
X114986320Y-127462743D01*
X115023900Y-127273815D01*
X115023900Y-127081185D01*
X118148100Y-127081185D01*
X118148100Y-127273815D01*
X118185680Y-127462743D01*
X118259396Y-127640710D01*
X118366415Y-127800875D01*
X118502625Y-127937085D01*
X118662790Y-128044104D01*
X118840757Y-128117820D01*
X119029685Y-128155400D01*
X119222315Y-128155400D01*
X119411243Y-128117820D01*
X119589210Y-128044104D01*
X119749375Y-127937085D01*
X119797760Y-127888700D01*
X121199574Y-127888700D01*
X121234500Y-127892140D01*
X121269426Y-127888700D01*
X121269436Y-127888700D01*
X121373920Y-127878409D01*
X121507981Y-127837742D01*
X121631533Y-127771702D01*
X121689780Y-127723900D01*
X121762315Y-127723900D01*
X121951243Y-127686320D01*
X122129210Y-127612604D01*
X122289375Y-127505585D01*
X122425585Y-127369375D01*
X122532604Y-127209210D01*
X122606320Y-127031243D01*
X122643900Y-126842315D01*
X122643900Y-126649685D01*
X122606320Y-126460757D01*
X122532604Y-126282790D01*
X122425585Y-126122625D01*
X122289375Y-125986415D01*
X122129210Y-125879396D01*
X121951243Y-125805680D01*
X121762315Y-125768100D01*
X121569685Y-125768100D01*
X121380757Y-125805680D01*
X121202790Y-125879396D01*
X121042625Y-125986415D01*
X120906415Y-126122625D01*
X120799396Y-126282790D01*
X120725680Y-126460757D01*
X120724577Y-126466300D01*
X119797760Y-126466300D01*
X119749375Y-126417915D01*
X119589210Y-126310896D01*
X119411243Y-126237180D01*
X119222315Y-126199600D01*
X119029685Y-126199600D01*
X118840757Y-126237180D01*
X118662790Y-126310896D01*
X118502625Y-126417915D01*
X118366415Y-126554125D01*
X118259396Y-126714290D01*
X118185680Y-126892257D01*
X118148100Y-127081185D01*
X115023900Y-127081185D01*
X114986320Y-126892257D01*
X114912604Y-126714290D01*
X114823375Y-126580750D01*
X114912604Y-126447210D01*
X114986320Y-126269243D01*
X115023900Y-126080315D01*
X115023900Y-125887685D01*
X114986320Y-125698757D01*
X114912604Y-125520790D01*
X114805585Y-125360625D01*
X114669375Y-125224415D01*
X114509210Y-125117396D01*
X114331243Y-125043680D01*
X114142315Y-125006100D01*
X113949685Y-125006100D01*
X113841423Y-125027635D01*
X112923473Y-124109685D01*
X132372100Y-124109685D01*
X132372100Y-124302315D01*
X132409680Y-124491243D01*
X132483396Y-124669210D01*
X132590415Y-124829375D01*
X132726625Y-124965585D01*
X132886790Y-125072604D01*
X133064757Y-125146320D01*
X133234468Y-125180078D01*
X134516585Y-126462196D01*
X134538851Y-126489327D01*
X134565982Y-126511593D01*
X134565987Y-126511598D01*
X134645058Y-126576489D01*
X134647145Y-126578202D01*
X134770697Y-126644242D01*
X134904758Y-126684909D01*
X135009242Y-126695200D01*
X135009249Y-126695200D01*
X135044178Y-126698640D01*
X135079106Y-126695200D01*
X135472240Y-126695200D01*
X135520625Y-126743585D01*
X135680790Y-126850604D01*
X135858757Y-126924320D01*
X136047685Y-126961900D01*
X136240315Y-126961900D01*
X136429243Y-126924320D01*
X136607210Y-126850604D01*
X136767375Y-126743585D01*
X136903585Y-126607375D01*
X137010604Y-126447210D01*
X137084320Y-126269243D01*
X137121900Y-126080315D01*
X137121900Y-125887685D01*
X137111636Y-125836084D01*
X137115210Y-125834604D01*
X137275375Y-125727585D01*
X137411585Y-125591375D01*
X137518604Y-125431210D01*
X137592320Y-125253243D01*
X137629900Y-125064315D01*
X137629900Y-124871685D01*
X137592320Y-124682757D01*
X137518604Y-124504790D01*
X137411585Y-124344625D01*
X137275375Y-124208415D01*
X137115210Y-124101396D01*
X136937243Y-124027680D01*
X136748315Y-123990100D01*
X136555685Y-123990100D01*
X136366757Y-124027680D01*
X136188790Y-124101396D01*
X136028625Y-124208415D01*
X135980240Y-124256800D01*
X135545760Y-124256800D01*
X135497375Y-124208415D01*
X135337210Y-124101396D01*
X135159243Y-124027680D01*
X134970315Y-123990100D01*
X134777685Y-123990100D01*
X134588757Y-124027680D01*
X134410790Y-124101396D01*
X134327900Y-124156781D01*
X134327900Y-124109685D01*
X134290320Y-123920757D01*
X134216604Y-123742790D01*
X134109585Y-123582625D01*
X133973375Y-123446415D01*
X133813210Y-123339396D01*
X133635243Y-123265680D01*
X133446315Y-123228100D01*
X133253685Y-123228100D01*
X133064757Y-123265680D01*
X132886790Y-123339396D01*
X132726625Y-123446415D01*
X132590415Y-123582625D01*
X132483396Y-123742790D01*
X132409680Y-123920757D01*
X132372100Y-124109685D01*
X112923473Y-124109685D01*
X112483900Y-123670113D01*
X112483900Y-123601685D01*
X112446320Y-123412757D01*
X112372604Y-123234790D01*
X112265585Y-123074625D01*
X112129375Y-122938415D01*
X111969210Y-122831396D01*
X111791243Y-122757680D01*
X111602315Y-122720100D01*
X111409685Y-122720100D01*
X111220757Y-122757680D01*
X111042790Y-122831396D01*
X110882625Y-122938415D01*
X110746415Y-123074625D01*
X110639396Y-123234790D01*
X110565680Y-123412757D01*
X110528100Y-123601685D01*
X110528100Y-123794315D01*
X110565680Y-123983243D01*
X110639396Y-124161210D01*
X110746415Y-124321375D01*
X110882625Y-124457585D01*
X111042790Y-124564604D01*
X111220757Y-124638320D01*
X111409685Y-124675900D01*
X111478113Y-124675900D01*
X113129881Y-126327670D01*
X113179396Y-126447210D01*
X113268625Y-126580750D01*
X113179396Y-126714290D01*
X113105680Y-126892257D01*
X113068100Y-127081185D01*
X113068100Y-127149612D01*
X111943745Y-128273967D01*
X111975900Y-128112315D01*
X111975900Y-127919685D01*
X111938320Y-127730757D01*
X111864604Y-127552790D01*
X111757585Y-127392625D01*
X111709200Y-127344240D01*
X111709200Y-126655760D01*
X111757585Y-126607375D01*
X111864604Y-126447210D01*
X111938320Y-126269243D01*
X111975900Y-126080315D01*
X111975900Y-125887685D01*
X111938320Y-125698757D01*
X111864604Y-125520790D01*
X111757585Y-125360625D01*
X111621375Y-125224415D01*
X111461210Y-125117396D01*
X111283243Y-125043680D01*
X111094315Y-125006100D01*
X110901685Y-125006100D01*
X110712757Y-125043680D01*
X110534790Y-125117396D01*
X110477978Y-125155356D01*
X110424494Y-125111463D01*
X110314180Y-125052498D01*
X110194482Y-125016188D01*
X110070000Y-125003928D01*
X108991716Y-125003928D01*
X108419900Y-124432112D01*
X108419900Y-124363685D01*
X108382320Y-124174757D01*
X108308604Y-123996790D01*
X108201585Y-123836625D01*
X108065375Y-123700415D01*
X107905210Y-123593396D01*
X107727243Y-123519680D01*
X107538315Y-123482100D01*
X107345685Y-123482100D01*
X107156757Y-123519680D01*
X106978790Y-123593396D01*
X106818625Y-123700415D01*
X106682415Y-123836625D01*
X106575396Y-123996790D01*
X106501680Y-124174757D01*
X106464100Y-124363685D01*
X106464100Y-124556315D01*
X106501680Y-124745243D01*
X106575396Y-124923210D01*
X106631383Y-125007000D01*
X106533740Y-125007000D01*
X106246842Y-125064068D01*
X105976589Y-125176010D01*
X105733368Y-125338525D01*
X105526525Y-125545368D01*
X105364010Y-125788589D01*
X105252068Y-126058842D01*
X105195000Y-126345740D01*
X105195000Y-126638260D01*
X105252068Y-126925158D01*
X105364010Y-127195411D01*
X105526525Y-127438632D01*
X105733368Y-127645475D01*
X105976589Y-127807990D01*
X106246842Y-127919932D01*
X106533740Y-127977000D01*
X106826260Y-127977000D01*
X107113158Y-127919932D01*
X107383411Y-127807990D01*
X107626632Y-127645475D01*
X107758487Y-127513620D01*
X107780498Y-127586180D01*
X107839463Y-127696494D01*
X107918815Y-127793185D01*
X108015506Y-127872537D01*
X108125820Y-127931502D01*
X108245518Y-127967812D01*
X108370000Y-127980072D01*
X110020100Y-127980072D01*
X110020100Y-128112315D01*
X110057680Y-128301243D01*
X110065781Y-128320800D01*
X106843760Y-128320800D01*
X106795375Y-128272415D01*
X106635210Y-128165396D01*
X106457243Y-128091680D01*
X106268315Y-128054100D01*
X106075685Y-128054100D01*
X105886757Y-128091680D01*
X105708790Y-128165396D01*
X105548625Y-128272415D01*
X105412415Y-128408625D01*
X105305396Y-128568790D01*
X105231680Y-128746757D01*
X105194100Y-128935685D01*
X104201616Y-128935685D01*
X104297932Y-128703158D01*
X104355000Y-128416260D01*
X104355000Y-128123740D01*
X104297932Y-127836842D01*
X104185990Y-127566589D01*
X104023475Y-127323368D01*
X103816632Y-127116525D01*
X103634466Y-126994805D01*
X103751355Y-126925178D01*
X103967588Y-126730269D01*
X104141641Y-126496920D01*
X104266825Y-126234099D01*
X104311476Y-126086890D01*
X104190155Y-125857000D01*
X102997000Y-125857000D01*
X102997000Y-125877000D01*
X102743000Y-125877000D01*
X102743000Y-125857000D01*
X101549845Y-125857000D01*
X101428524Y-126086890D01*
X101473175Y-126234099D01*
X101598359Y-126496920D01*
X101772412Y-126730269D01*
X101988645Y-126925178D01*
X102105534Y-126994805D01*
X101923368Y-127116525D01*
X101716525Y-127323368D01*
X101554010Y-127566589D01*
X101442068Y-127836842D01*
X101385000Y-128123740D01*
X100990000Y-128123740D01*
X100990000Y-124040000D01*
X101381928Y-124040000D01*
X101394188Y-124164482D01*
X101430498Y-124284180D01*
X101489463Y-124394494D01*
X101568815Y-124491185D01*
X101665506Y-124570537D01*
X101775820Y-124629502D01*
X101856466Y-124653966D01*
X101772412Y-124729731D01*
X101598359Y-124963080D01*
X101473175Y-125225901D01*
X101428524Y-125373110D01*
X101549845Y-125603000D01*
X102743000Y-125603000D01*
X102743000Y-123317000D01*
X102997000Y-123317000D01*
X102997000Y-125603000D01*
X104190155Y-125603000D01*
X104311476Y-125373110D01*
X104266825Y-125225901D01*
X104141641Y-124963080D01*
X103967588Y-124729731D01*
X103883534Y-124653966D01*
X103964180Y-124629502D01*
X104074494Y-124570537D01*
X104171185Y-124491185D01*
X104250537Y-124394494D01*
X104309502Y-124284180D01*
X104345812Y-124164482D01*
X104358072Y-124040000D01*
X104355000Y-123475750D01*
X104196250Y-123317000D01*
X102997000Y-123317000D01*
X102743000Y-123317000D01*
X101543750Y-123317000D01*
X101385000Y-123475750D01*
X101381928Y-124040000D01*
X100990000Y-124040000D01*
X100990000Y-122340000D01*
X101381928Y-122340000D01*
X101385000Y-122904250D01*
X101543750Y-123063000D01*
X102743000Y-123063000D01*
X102743000Y-121863750D01*
X102997000Y-121863750D01*
X102997000Y-123063000D01*
X104196250Y-123063000D01*
X104355000Y-122904250D01*
X104358072Y-122340000D01*
X104345812Y-122215518D01*
X104309502Y-122095820D01*
X104250537Y-121985506D01*
X104171185Y-121888815D01*
X104074494Y-121809463D01*
X103964180Y-121750498D01*
X103844482Y-121714188D01*
X103720000Y-121701928D01*
X103155750Y-121705000D01*
X102997000Y-121863750D01*
X102743000Y-121863750D01*
X102584250Y-121705000D01*
X102020000Y-121701928D01*
X101895518Y-121714188D01*
X101775820Y-121750498D01*
X101665506Y-121809463D01*
X101568815Y-121888815D01*
X101489463Y-121985506D01*
X101430498Y-122095820D01*
X101394188Y-122215518D01*
X101381928Y-122340000D01*
X100990000Y-122340000D01*
X100990000Y-121310000D01*
X142764441Y-121310000D01*
X142737894Y-121336547D01*
%TA.AperFunction,Conductor*%
D20*
G36*
X142737894Y-121336547D02*
G01*
X142630875Y-121496712D01*
X142557159Y-121674679D01*
X142519579Y-121863607D01*
X142519579Y-122056237D01*
X142557159Y-122245165D01*
X142630875Y-122423132D01*
X142675184Y-122489445D01*
X142598004Y-122566625D01*
X142490985Y-122726790D01*
X142417269Y-122904757D01*
X142379689Y-123093685D01*
X142379689Y-123286315D01*
X142417269Y-123475243D01*
X142490985Y-123653210D01*
X142598004Y-123813375D01*
X142646389Y-123861760D01*
X142646390Y-124754321D01*
X142643404Y-124758790D01*
X142569688Y-124936757D01*
X142532108Y-125125685D01*
X142532108Y-125318315D01*
X142569688Y-125507243D01*
X142643404Y-125685210D01*
X142750423Y-125845375D01*
X142886633Y-125981585D01*
X143046798Y-126088604D01*
X143224765Y-126162320D01*
X143413693Y-126199900D01*
X143606323Y-126199900D01*
X143795251Y-126162320D01*
X143973218Y-126088604D01*
X144133383Y-125981585D01*
X144269593Y-125845375D01*
X144376612Y-125685210D01*
X144450328Y-125507243D01*
X144487908Y-125318315D01*
X144487908Y-125125685D01*
X144450328Y-124936757D01*
X144376612Y-124758790D01*
X144269593Y-124598625D01*
X144133383Y-124462415D01*
X144068789Y-124419255D01*
X144068789Y-124135085D01*
X149872700Y-124135085D01*
X149872700Y-124327715D01*
X149910280Y-124516643D01*
X149983996Y-124694610D01*
X150091015Y-124854775D01*
X150227225Y-124990985D01*
X150387390Y-125098004D01*
X150565357Y-125171720D01*
X150754285Y-125209300D01*
X150946915Y-125209300D01*
X151135843Y-125171720D01*
X151313810Y-125098004D01*
X151473975Y-124990985D01*
X151522360Y-124942600D01*
X154117674Y-124942600D01*
X154152600Y-124946040D01*
X154187526Y-124942600D01*
X154187536Y-124942600D01*
X154292020Y-124932309D01*
X154426081Y-124891642D01*
X154549633Y-124825602D01*
X154657927Y-124736727D01*
X154680201Y-124709586D01*
X155475888Y-123913900D01*
X155544315Y-123913900D01*
X155733243Y-123876320D01*
X155911210Y-123802604D01*
X156071375Y-123695585D01*
X156119760Y-123647200D01*
X157880907Y-123647200D01*
X157883396Y-123653210D01*
X157990415Y-123813375D01*
X158126625Y-123949585D01*
X158286790Y-124056604D01*
X158464757Y-124130320D01*
X158653685Y-124167900D01*
X158846315Y-124167900D01*
X159035243Y-124130320D01*
X159213210Y-124056604D01*
X159373375Y-123949585D01*
X159509585Y-123813375D01*
X159616604Y-123653210D01*
X159690320Y-123475243D01*
X159727900Y-123286315D01*
X159727900Y-123093685D01*
X159690320Y-122904757D01*
X159616604Y-122726790D01*
X159509585Y-122566625D01*
X159373375Y-122430415D01*
X159213210Y-122323396D01*
X159035243Y-122249680D01*
X158846315Y-122212100D01*
X158653685Y-122212100D01*
X158570331Y-122228680D01*
X158530936Y-122224800D01*
X158530926Y-122224800D01*
X158496000Y-122221360D01*
X158461074Y-122224800D01*
X156119760Y-122224800D01*
X156071375Y-122176415D01*
X155911210Y-122069396D01*
X155733243Y-121995680D01*
X155544315Y-121958100D01*
X155351685Y-121958100D01*
X155162757Y-121995680D01*
X154984790Y-122069396D01*
X154824625Y-122176415D01*
X154688415Y-122312625D01*
X154581396Y-122472790D01*
X154507680Y-122650757D01*
X154470100Y-122839685D01*
X154470100Y-122908112D01*
X153858013Y-123520200D01*
X151522360Y-123520200D01*
X151473975Y-123471815D01*
X151313810Y-123364796D01*
X151135843Y-123291080D01*
X150946915Y-123253500D01*
X150754285Y-123253500D01*
X150565357Y-123291080D01*
X150387390Y-123364796D01*
X150227225Y-123471815D01*
X150091015Y-123608025D01*
X149983996Y-123768190D01*
X149910280Y-123946157D01*
X149872700Y-124135085D01*
X144068789Y-124135085D01*
X144068789Y-123861760D01*
X144117174Y-123813375D01*
X144224193Y-123653210D01*
X144297909Y-123475243D01*
X144314558Y-123391543D01*
X144371602Y-123429659D01*
X144577304Y-123514863D01*
X144795675Y-123558300D01*
X145018325Y-123558300D01*
X145236696Y-123514863D01*
X145442398Y-123429659D01*
X145583547Y-123335346D01*
X145663154Y-123368320D01*
X145852082Y-123405900D01*
X146044712Y-123405900D01*
X146233640Y-123368320D01*
X146281891Y-123348334D01*
X146403602Y-123429659D01*
X146609304Y-123514863D01*
X146827675Y-123558300D01*
X147050325Y-123558300D01*
X147268696Y-123514863D01*
X147474398Y-123429659D01*
X147659524Y-123305961D01*
X147816961Y-123148524D01*
X147940659Y-122963398D01*
X148025863Y-122757696D01*
X148069300Y-122539325D01*
X148069300Y-122316675D01*
X148025863Y-122098304D01*
X147940659Y-121892602D01*
X147816961Y-121707476D01*
X147659524Y-121550039D01*
X147474398Y-121426341D01*
X147268696Y-121341137D01*
X147112161Y-121310000D01*
X159951651Y-121310000D01*
X159917282Y-121361437D01*
X159794032Y-121658988D01*
X159731200Y-121974867D01*
X159731200Y-122296933D01*
X159794032Y-122612812D01*
X159917282Y-122910363D01*
X160096213Y-123178152D01*
X160323948Y-123405887D01*
X160591737Y-123584818D01*
X160680401Y-123621544D01*
X160680400Y-125082300D01*
X160533285Y-125082300D01*
X160344357Y-125119880D01*
X160166390Y-125193596D01*
X160006225Y-125300615D01*
X159970530Y-125336310D01*
X157768928Y-125336310D01*
X157734000Y-125332870D01*
X157699071Y-125336310D01*
X157699064Y-125336310D01*
X157594580Y-125346601D01*
X157460518Y-125387268D01*
X157336967Y-125453308D01*
X157255809Y-125519912D01*
X157255804Y-125519917D01*
X157228673Y-125542183D01*
X157206407Y-125569314D01*
X156944112Y-125831610D01*
X156920216Y-125831610D01*
X156933900Y-125762815D01*
X156933900Y-125570185D01*
X156896320Y-125381257D01*
X156822604Y-125203290D01*
X156715585Y-125043125D01*
X156579375Y-124906915D01*
X156419210Y-124799896D01*
X156241243Y-124726180D01*
X156052315Y-124688600D01*
X155859685Y-124688600D01*
X155670757Y-124726180D01*
X155492790Y-124799896D01*
X155332625Y-124906915D01*
X155196415Y-125043125D01*
X155089396Y-125203290D01*
X155015680Y-125381257D01*
X154978100Y-125570185D01*
X154978100Y-125762815D01*
X155015680Y-125951743D01*
X155089396Y-126129710D01*
X155196415Y-126289875D01*
X155244800Y-126338260D01*
X155244801Y-126442560D01*
X155196415Y-126490946D01*
X155089396Y-126651111D01*
X155015680Y-126829078D01*
X154978100Y-127018006D01*
X154978100Y-127210636D01*
X155015680Y-127399564D01*
X155089396Y-127577531D01*
X155196415Y-127737696D01*
X155332625Y-127873906D01*
X155492790Y-127980925D01*
X155670757Y-128054641D01*
X155859685Y-128092221D01*
X156052315Y-128092221D01*
X156241243Y-128054641D01*
X156419210Y-127980925D01*
X156579375Y-127873906D01*
X156700681Y-127752600D01*
X156875685Y-127787410D01*
X157068315Y-127787410D01*
X157257243Y-127749830D01*
X157435210Y-127676114D01*
X157595375Y-127569095D01*
X157731585Y-127432885D01*
X157838604Y-127272720D01*
X157912320Y-127094753D01*
X157949900Y-126905825D01*
X157949900Y-126837398D01*
X158028588Y-126758710D01*
X159945150Y-126758710D01*
X160006225Y-126819785D01*
X160166390Y-126926804D01*
X160344357Y-127000520D01*
X160438801Y-127019306D01*
X160451280Y-127082043D01*
X160524996Y-127260010D01*
X160632015Y-127420175D01*
X160768225Y-127556385D01*
X160928390Y-127663404D01*
X161106357Y-127737120D01*
X161295285Y-127774700D01*
X161487915Y-127774700D01*
X161676843Y-127737120D01*
X161854810Y-127663404D01*
X162014975Y-127556385D01*
X162151185Y-127420175D01*
X162258204Y-127260010D01*
X162331920Y-127082043D01*
X162369500Y-126893115D01*
X162369500Y-126700485D01*
X162331920Y-126511557D01*
X162258204Y-126333590D01*
X162151185Y-126173425D01*
X162102800Y-126125040D01*
X162102800Y-126051415D01*
X162143325Y-126112065D01*
X162279535Y-126248275D01*
X162439700Y-126355294D01*
X162617667Y-126429010D01*
X162806595Y-126466590D01*
X162999225Y-126466590D01*
X163188153Y-126429010D01*
X163366120Y-126355294D01*
X163526285Y-126248275D01*
X163600060Y-126174500D01*
X167376739Y-126174500D01*
X167347900Y-126319485D01*
X167347900Y-126512115D01*
X167385480Y-126701043D01*
X167459196Y-126879010D01*
X167566215Y-127039175D01*
X167702425Y-127175385D01*
X167862590Y-127282404D01*
X168040557Y-127356120D01*
X168229485Y-127393700D01*
X168297121Y-127393700D01*
X168315773Y-127416427D01*
X168424067Y-127505302D01*
X168547619Y-127571342D01*
X168681680Y-127612009D01*
X168786164Y-127622300D01*
X168786171Y-127622300D01*
X168821100Y-127625740D01*
X168856028Y-127622300D01*
X170155940Y-127622300D01*
X170204325Y-127670685D01*
X170364490Y-127777704D01*
X170542457Y-127851420D01*
X170731385Y-127889000D01*
X170924015Y-127889000D01*
X171112943Y-127851420D01*
X171290910Y-127777704D01*
X171411721Y-127696981D01*
X171461625Y-127746885D01*
X171488100Y-127764575D01*
X171488101Y-131390561D01*
X171406653Y-131512456D01*
X171332937Y-131690423D01*
X171295357Y-131879351D01*
X171295357Y-132071981D01*
X171332937Y-132260909D01*
X171406653Y-132438876D01*
X171513672Y-132599041D01*
X171649882Y-132735251D01*
X171771629Y-132816600D01*
X171607685Y-132816600D01*
X171418757Y-132854180D01*
X171240790Y-132927896D01*
X171202264Y-132953638D01*
X171087710Y-132877096D01*
X170909743Y-132803380D01*
X170720815Y-132765800D01*
X170528185Y-132765800D01*
X170339257Y-132803380D01*
X170161290Y-132877096D01*
X170001125Y-132984115D01*
X169864915Y-133120325D01*
X169757896Y-133280490D01*
X169684180Y-133458457D01*
X169646600Y-133647385D01*
X169646600Y-133840015D01*
X169684180Y-134028943D01*
X169757896Y-134206910D01*
X169864915Y-134367075D01*
X170001125Y-134503285D01*
X170091765Y-134563848D01*
X170069746Y-134585867D01*
X168462802Y-134585867D01*
X168433410Y-134566228D01*
X168255443Y-134492512D01*
X168066515Y-134454932D01*
X167873885Y-134454932D01*
X167684957Y-134492512D01*
X167506990Y-134566228D01*
X167346825Y-134673247D01*
X167210615Y-134809457D01*
X167103596Y-134969622D01*
X167049015Y-135101393D01*
X166913061Y-135157707D01*
X166752896Y-135264726D01*
X166721972Y-135295650D01*
X166549158Y-135224068D01*
X166262260Y-135167000D01*
X165969740Y-135167000D01*
X165682842Y-135224068D01*
X165412589Y-135336010D01*
X165169368Y-135498525D01*
X164962525Y-135705368D01*
X164846000Y-135879760D01*
X164729475Y-135705368D01*
X164522632Y-135498525D01*
X164279411Y-135336010D01*
X164009158Y-135224068D01*
X163722260Y-135167000D01*
X163429740Y-135167000D01*
X163142842Y-135224068D01*
X162872589Y-135336010D01*
X162629368Y-135498525D01*
X162497513Y-135630380D01*
X162475502Y-135557820D01*
X162416537Y-135447506D01*
X162337185Y-135350815D01*
X162240494Y-135271463D01*
X162130180Y-135212498D01*
X162010482Y-135176188D01*
X161886000Y-135163928D01*
X161321750Y-135167000D01*
X161163000Y-135325750D01*
X161163000Y-136525000D01*
X161183000Y-136525000D01*
X161183000Y-136779000D01*
X161163000Y-136779000D01*
X161163000Y-136799000D01*
X160909000Y-136799000D01*
X160909000Y-136779000D01*
X160889000Y-136779000D01*
X160889000Y-136525000D01*
X160909000Y-136525000D01*
X160909000Y-135325750D01*
X160750250Y-135167000D01*
X160186000Y-135163928D01*
X160124966Y-135169939D01*
X160097088Y-135142061D01*
X160097088Y-133985000D01*
X160137474Y-133985000D01*
X160172400Y-133988440D01*
X160207326Y-133985000D01*
X160207336Y-133985000D01*
X160311820Y-133974709D01*
X160445881Y-133934042D01*
X160569433Y-133868002D01*
X160677727Y-133779127D01*
X160700001Y-133751986D01*
X160974988Y-133477000D01*
X161043415Y-133477000D01*
X161232343Y-133439420D01*
X161410310Y-133365704D01*
X161570475Y-133258685D01*
X161706685Y-133122475D01*
X161813704Y-132962310D01*
X161887420Y-132784343D01*
X161925000Y-132595415D01*
X161925000Y-132402785D01*
X161887420Y-132213857D01*
X161813704Y-132035890D01*
X161706685Y-131875725D01*
X161570475Y-131739515D01*
X161410310Y-131632496D01*
X161232343Y-131558780D01*
X161043415Y-131521200D01*
X160850785Y-131521200D01*
X160661857Y-131558780D01*
X160483890Y-131632496D01*
X160323725Y-131739515D01*
X160187515Y-131875725D01*
X160080496Y-132035890D01*
X160006780Y-132213857D01*
X159969200Y-132402785D01*
X159969200Y-132471212D01*
X159877812Y-132562600D01*
X151678587Y-132562600D01*
X152547995Y-131693193D01*
X152575126Y-131670927D01*
X152597393Y-131643795D01*
X152597397Y-131643791D01*
X152664002Y-131562633D01*
X152694980Y-131504677D01*
X152730042Y-131439081D01*
X152770709Y-131305020D01*
X152778026Y-131230734D01*
X152829385Y-131179375D01*
X152936404Y-131019210D01*
X153010120Y-130841243D01*
X153047700Y-130652315D01*
X153047700Y-130459685D01*
X153010120Y-130270757D01*
X152936404Y-130092790D01*
X152829385Y-129932625D01*
X152693175Y-129796415D01*
X152533010Y-129689396D01*
X152355043Y-129615680D01*
X152166115Y-129578100D01*
X151973485Y-129578100D01*
X151784557Y-129615680D01*
X151606590Y-129689396D01*
X151446425Y-129796415D01*
X151310215Y-129932625D01*
X151203196Y-130092790D01*
X151129480Y-130270757D01*
X151091900Y-130459685D01*
X151091900Y-130652315D01*
X151129480Y-130841243D01*
X151203196Y-131019210D01*
X151206082Y-131023530D01*
X150505213Y-131724400D01*
X150436785Y-131724400D01*
X150247857Y-131761980D01*
X150069890Y-131835696D01*
X149909725Y-131942715D01*
X149773515Y-132078925D01*
X149666496Y-132239090D01*
X149592780Y-132417057D01*
X149563830Y-132562600D01*
X143540948Y-132562600D01*
X143549578Y-132519215D01*
X143549578Y-132326585D01*
X143511998Y-132137657D01*
X143438282Y-131959690D01*
X143366831Y-131852755D01*
X143392898Y-131826688D01*
X143499917Y-131666523D01*
X143573633Y-131488556D01*
X143611213Y-131299628D01*
X143611213Y-131231201D01*
X143734196Y-131108219D01*
X143761327Y-131085953D01*
X143783593Y-131058822D01*
X143783597Y-131058818D01*
X143850202Y-130977659D01*
X143885596Y-130911441D01*
X143916242Y-130854107D01*
X143956909Y-130720046D01*
X143967200Y-130615562D01*
X143967200Y-130615553D01*
X143970640Y-130580627D01*
X143967200Y-130545701D01*
X143967200Y-130211760D01*
X144015585Y-130163375D01*
X144122604Y-130003210D01*
X144196320Y-129825243D01*
X144233900Y-129636315D01*
X144233900Y-129443685D01*
X144196320Y-129254757D01*
X144122604Y-129076790D01*
X144015585Y-128916625D01*
X143879375Y-128780415D01*
X143719210Y-128673396D01*
X143541243Y-128599680D01*
X143352315Y-128562100D01*
X143159685Y-128562100D01*
X143135704Y-128566870D01*
X143084187Y-128515353D01*
X142924022Y-128408334D01*
X142746055Y-128334618D01*
X142557127Y-128297038D01*
X142364497Y-128297038D01*
X142175569Y-128334618D01*
X141997602Y-128408334D01*
X141837437Y-128515353D01*
X141821819Y-128530971D01*
X141730000Y-128521928D01*
X138506061Y-128521928D01*
X138534604Y-128479210D01*
X138608320Y-128301243D01*
X138645900Y-128112315D01*
X138645900Y-127919685D01*
X138608320Y-127730757D01*
X138534604Y-127552790D01*
X138427585Y-127392625D01*
X138291375Y-127256415D01*
X138143616Y-127157685D01*
X143548100Y-127157685D01*
X143548100Y-127350315D01*
X143585680Y-127539243D01*
X143659396Y-127717210D01*
X143766415Y-127877375D01*
X143814800Y-127925760D01*
X143814800Y-127981074D01*
X143811360Y-128016000D01*
X143814800Y-128050926D01*
X143814800Y-128050936D01*
X143825091Y-128155420D01*
X143860582Y-128272415D01*
X143865759Y-128289481D01*
X143931798Y-128413032D01*
X143968532Y-128457792D01*
X144020674Y-128521327D01*
X144047809Y-128543596D01*
X144506407Y-129002195D01*
X144528673Y-129029327D01*
X144555804Y-129051593D01*
X144555808Y-129051597D01*
X144590097Y-129079737D01*
X144636967Y-129118202D01*
X144760519Y-129184242D01*
X144894580Y-129224909D01*
X144999064Y-129235200D01*
X144999081Y-129235200D01*
X145033999Y-129238639D01*
X145068917Y-129235200D01*
X146777074Y-129235200D01*
X146812000Y-129238640D01*
X146846926Y-129235200D01*
X146846936Y-129235200D01*
X146951420Y-129224909D01*
X147085481Y-129184242D01*
X147209033Y-129118202D01*
X147317327Y-129029327D01*
X147339601Y-129002186D01*
X148052200Y-128289589D01*
X148079326Y-128267327D01*
X148101588Y-128240201D01*
X148101598Y-128240191D01*
X148168202Y-128159033D01*
X148234242Y-128035482D01*
X148274909Y-127901420D01*
X148277175Y-127878409D01*
X148285200Y-127796936D01*
X148285200Y-127796929D01*
X148288640Y-127762000D01*
X148285200Y-127727072D01*
X148285200Y-127723900D01*
X148432315Y-127723900D01*
X148621243Y-127686320D01*
X148799210Y-127612604D01*
X148959375Y-127505585D01*
X149007760Y-127457200D01*
X151586567Y-127457200D01*
X151636409Y-127577531D01*
X151743428Y-127737696D01*
X151879638Y-127873906D01*
X152039803Y-127980925D01*
X152217770Y-128054641D01*
X152406698Y-128092221D01*
X152599328Y-128092221D01*
X152788256Y-128054641D01*
X152966223Y-127980925D01*
X153126388Y-127873906D01*
X153262598Y-127737696D01*
X153369617Y-127577531D01*
X153443333Y-127399564D01*
X153480913Y-127210636D01*
X153480913Y-127018006D01*
X153443333Y-126829078D01*
X153369617Y-126651111D01*
X153262598Y-126490946D01*
X153126388Y-126354736D01*
X152966223Y-126247717D01*
X152788256Y-126174001D01*
X152599328Y-126136421D01*
X152502957Y-126136421D01*
X152408173Y-126085758D01*
X152274112Y-126045091D01*
X152169628Y-126034800D01*
X152169618Y-126034800D01*
X152134692Y-126031360D01*
X152099766Y-126034800D01*
X149007760Y-126034800D01*
X148959375Y-125986415D01*
X148799210Y-125879396D01*
X148795636Y-125877916D01*
X148805900Y-125826315D01*
X148805900Y-125633685D01*
X148768320Y-125444757D01*
X148694604Y-125266790D01*
X148587585Y-125106625D01*
X148451375Y-124970415D01*
X148291210Y-124863396D01*
X148113243Y-124789680D01*
X147924315Y-124752100D01*
X147731685Y-124752100D01*
X147542757Y-124789680D01*
X147364790Y-124863396D01*
X147204625Y-124970415D01*
X147068415Y-125106625D01*
X146961396Y-125266790D01*
X146887680Y-125444757D01*
X146850100Y-125633685D01*
X146850100Y-125826315D01*
X146866681Y-125909673D01*
X146859360Y-125984000D01*
X146862801Y-126018936D01*
X146862800Y-126880025D01*
X146800961Y-126787476D01*
X146643524Y-126630039D01*
X146458398Y-126506341D01*
X146252696Y-126421137D01*
X146034325Y-126377700D01*
X145811675Y-126377700D01*
X145593304Y-126421137D01*
X145387602Y-126506341D01*
X145251945Y-126596985D01*
X145149375Y-126494415D01*
X144989210Y-126387396D01*
X144811243Y-126313680D01*
X144622315Y-126276100D01*
X144429685Y-126276100D01*
X144240757Y-126313680D01*
X144062790Y-126387396D01*
X143902625Y-126494415D01*
X143766415Y-126630625D01*
X143659396Y-126790790D01*
X143585680Y-126968757D01*
X143548100Y-127157685D01*
X138143616Y-127157685D01*
X138131210Y-127149396D01*
X137953243Y-127075680D01*
X137764315Y-127038100D01*
X137571685Y-127038100D01*
X137382757Y-127075680D01*
X137204790Y-127149396D01*
X137044625Y-127256415D01*
X136908415Y-127392625D01*
X136801396Y-127552790D01*
X136727680Y-127730757D01*
X136690100Y-127919685D01*
X136690100Y-128112315D01*
X136727680Y-128301243D01*
X136801396Y-128479210D01*
X136908415Y-128639375D01*
X136956801Y-128687761D01*
X136956800Y-132480907D01*
X136950790Y-132483396D01*
X136790625Y-132590415D01*
X136654415Y-132726625D01*
X136547396Y-132886790D01*
X136473680Y-133064757D01*
X136436100Y-133253685D01*
X136436100Y-133446315D01*
X136473680Y-133635243D01*
X136547396Y-133813210D01*
X136654415Y-133973375D01*
X136790625Y-134109585D01*
X136950790Y-134216604D01*
X137128757Y-134290320D01*
X137317685Y-134327900D01*
X137510315Y-134327900D01*
X137699243Y-134290320D01*
X137877210Y-134216604D01*
X138037375Y-134109585D01*
X138173585Y-133973375D01*
X138280604Y-133813210D01*
X138354320Y-133635243D01*
X138391900Y-133446315D01*
X138391900Y-133253685D01*
X138375320Y-133170331D01*
X138379200Y-133130936D01*
X138379200Y-133130927D01*
X138382436Y-133098072D01*
X140500267Y-133098072D01*
X140500100Y-133099765D01*
X140500100Y-133099774D01*
X140496660Y-133134700D01*
X140500100Y-133169626D01*
X140500100Y-133681540D01*
X140451715Y-133729925D01*
X140344696Y-133890090D01*
X140270980Y-134068057D01*
X140233400Y-134256985D01*
X140233400Y-134449615D01*
X140270980Y-134638543D01*
X140344696Y-134816510D01*
X140451715Y-134976675D01*
X140587925Y-135112885D01*
X140748090Y-135219904D01*
X140926057Y-135293620D01*
X141114985Y-135331200D01*
X141307615Y-135331200D01*
X141496543Y-135293620D01*
X141674510Y-135219904D01*
X141834675Y-135112885D01*
X141970885Y-134976675D01*
X142077904Y-134816510D01*
X142151620Y-134638543D01*
X142189200Y-134449615D01*
X142189200Y-134256985D01*
X142151620Y-134068057D01*
X142077904Y-133890090D01*
X142072245Y-133881620D01*
X142170318Y-133934042D01*
X142277177Y-133966457D01*
X142304380Y-133974709D01*
X142408864Y-133985000D01*
X142408871Y-133985000D01*
X142443800Y-133988440D01*
X142478728Y-133985000D01*
X151174204Y-133985000D01*
X151168100Y-134015685D01*
X151168100Y-134208315D01*
X151205680Y-134397243D01*
X151279396Y-134575210D01*
X151386415Y-134735375D01*
X151522625Y-134871585D01*
X151682790Y-134978604D01*
X151860757Y-135052320D01*
X152049685Y-135089900D01*
X152242315Y-135089900D01*
X152431243Y-135052320D01*
X152555828Y-135000715D01*
X152618708Y-135152522D01*
X152725727Y-135312687D01*
X152861937Y-135448897D01*
X153022102Y-135555916D01*
X153200069Y-135629632D01*
X153388997Y-135667212D01*
X153581627Y-135667212D01*
X153770555Y-135629632D01*
X153948522Y-135555916D01*
X154108687Y-135448897D01*
X154244897Y-135312687D01*
X154274591Y-135268248D01*
X154335685Y-135280400D01*
X154404113Y-135280400D01*
X156507903Y-137384191D01*
X156530173Y-137411327D01*
X156638467Y-137500202D01*
X156762019Y-137566242D01*
X156896080Y-137606909D01*
X157000564Y-137617200D01*
X157000573Y-137617200D01*
X157035499Y-137620640D01*
X157070425Y-137617200D01*
X157824240Y-137617200D01*
X157872625Y-137665585D01*
X158028893Y-137770000D01*
X100990000Y-137770000D01*
X100990000Y-128123740D01*
X101385000Y-128123740D01*
X101385000Y-128416260D01*
X101442068Y-128703158D01*
X101554010Y-128973411D01*
X101716525Y-129216632D01*
X101923368Y-129423475D01*
X102097760Y-129540000D01*
X101923368Y-129656525D01*
X101716525Y-129863368D01*
X101554010Y-130106589D01*
X101442068Y-130376842D01*
X101385000Y-130663740D01*
X101385000Y-130956260D01*
X101442068Y-131243158D01*
X101554010Y-131513411D01*
X101716525Y-131756632D01*
X101923368Y-131963475D01*
X102097760Y-132080000D01*
X101923368Y-132196525D01*
X101716525Y-132403368D01*
X101554010Y-132646589D01*
X101442068Y-132916842D01*
X101385000Y-133203740D01*
X101385000Y-133496260D01*
X101442068Y-133783158D01*
X101554010Y-134053411D01*
X101716525Y-134296632D01*
X101923368Y-134503475D01*
X102097760Y-134620000D01*
X101923368Y-134736525D01*
X101716525Y-134943368D01*
X101554010Y-135186589D01*
X101442068Y-135456842D01*
X101385000Y-135743740D01*
X101385000Y-136036260D01*
X101442068Y-136323158D01*
X101554010Y-136593411D01*
X101716525Y-136836632D01*
X101923368Y-137043475D01*
X102166589Y-137205990D01*
X102436842Y-137317932D01*
X102723740Y-137375000D01*
X103016260Y-137375000D01*
X103303158Y-137317932D01*
X103573411Y-137205990D01*
X103816632Y-137043475D01*
X104023475Y-136836632D01*
X104185990Y-136593411D01*
X104297932Y-136323158D01*
X104355000Y-136036260D01*
X104355000Y-135743740D01*
X104297932Y-135456842D01*
X104185990Y-135186589D01*
X104023475Y-134943368D01*
X103816632Y-134736525D01*
X103642240Y-134620000D01*
X103816632Y-134503475D01*
X104023475Y-134296632D01*
X104185990Y-134053411D01*
X104201616Y-134015685D01*
X104940100Y-134015685D01*
X104940100Y-134208315D01*
X104977680Y-134397243D01*
X105051396Y-134575210D01*
X105158415Y-134735375D01*
X105294625Y-134871585D01*
X105454790Y-134978604D01*
X105632757Y-135052320D01*
X105821685Y-135089900D01*
X106014315Y-135089900D01*
X106203243Y-135052320D01*
X106381210Y-134978604D01*
X106541375Y-134871585D01*
X106589760Y-134823200D01*
X107278240Y-134823200D01*
X107326625Y-134871585D01*
X107486790Y-134978604D01*
X107664757Y-135052320D01*
X107853685Y-135089900D01*
X108046315Y-135089900D01*
X108235243Y-135052320D01*
X108413210Y-134978604D01*
X108573375Y-134871585D01*
X108709585Y-134735375D01*
X108816604Y-134575210D01*
X108890320Y-134397243D01*
X108927900Y-134208315D01*
X108927900Y-134015685D01*
X108894669Y-133848623D01*
X109016725Y-133766307D01*
X109188078Y-133593474D01*
X109322421Y-133390533D01*
X109414591Y-133165282D01*
X109418462Y-133127609D01*
X109293731Y-132937000D01*
X108077000Y-132937000D01*
X108077000Y-132957000D01*
X107823000Y-132957000D01*
X107823000Y-132937000D01*
X106606269Y-132937000D01*
X106481538Y-133127609D01*
X106485409Y-133165282D01*
X106576253Y-133387293D01*
X106541375Y-133352415D01*
X106381210Y-133245396D01*
X106203243Y-133171680D01*
X106014315Y-133134100D01*
X105821685Y-133134100D01*
X105632757Y-133171680D01*
X105454790Y-133245396D01*
X105294625Y-133352415D01*
X105158415Y-133488625D01*
X105051396Y-133648790D01*
X104977680Y-133826757D01*
X104940100Y-134015685D01*
X104201616Y-134015685D01*
X104297932Y-133783158D01*
X104355000Y-133496260D01*
X104355000Y-133203740D01*
X104297932Y-132916842D01*
X104185990Y-132646589D01*
X104023475Y-132403368D01*
X103816632Y-132196525D01*
X103642240Y-132080000D01*
X103816632Y-131963475D01*
X104023475Y-131756632D01*
X104185990Y-131513411D01*
X104297932Y-131243158D01*
X104355000Y-130956260D01*
X104355000Y-130663740D01*
X104297932Y-130376842D01*
X104185990Y-130106589D01*
X104023475Y-129863368D01*
X103816632Y-129656525D01*
X103642240Y-129540000D01*
X103816632Y-129423475D01*
X104023475Y-129216632D01*
X104185990Y-128973411D01*
X104201616Y-128935685D01*
X105194100Y-128935685D01*
X105194100Y-129128315D01*
X105231680Y-129317243D01*
X105305396Y-129495210D01*
X105412415Y-129655375D01*
X105548625Y-129791585D01*
X105708790Y-129898604D01*
X105886757Y-129972320D01*
X106075685Y-130009900D01*
X106268315Y-130009900D01*
X106457243Y-129972320D01*
X106635210Y-129898604D01*
X106651149Y-129887954D01*
X106586595Y-129966613D01*
X106504528Y-130120149D01*
X106453992Y-130286745D01*
X106436928Y-130459999D01*
X106436928Y-131160001D01*
X106453992Y-131333255D01*
X106504528Y-131499851D01*
X106586595Y-131653387D01*
X106697038Y-131787962D01*
X106831613Y-131898405D01*
X106836406Y-131900967D01*
X106711922Y-132026526D01*
X106577579Y-132229467D01*
X106485409Y-132454718D01*
X106481538Y-132492391D01*
X106606269Y-132683000D01*
X107823000Y-132683000D01*
X107823000Y-132663000D01*
X108077000Y-132663000D01*
X108077000Y-132683000D01*
X109293731Y-132683000D01*
X109418462Y-132492391D01*
X109414591Y-132454718D01*
X109322421Y-132229467D01*
X109188078Y-132026526D01*
X109063594Y-131900967D01*
X109068387Y-131898405D01*
X109202962Y-131787962D01*
X109313405Y-131653387D01*
X109395472Y-131499851D01*
X109446008Y-131333255D01*
X109463072Y-131160001D01*
X109463072Y-130459999D01*
X109446008Y-130286745D01*
X109395472Y-130120149D01*
X109313405Y-129966613D01*
X109202962Y-129832038D01*
X109094713Y-129743200D01*
X112156574Y-129743200D01*
X112191500Y-129746640D01*
X112226426Y-129743200D01*
X112226436Y-129743200D01*
X112330920Y-129732909D01*
X112464981Y-129692242D01*
X112588533Y-129626202D01*
X112696827Y-129537327D01*
X112719102Y-129510185D01*
X113069287Y-129160000D01*
X121791928Y-129160000D01*
X121791928Y-132460000D01*
X121804188Y-132584482D01*
X121840498Y-132704180D01*
X121899463Y-132814494D01*
X121978815Y-132911185D01*
X122075506Y-132990537D01*
X122185820Y-133049502D01*
X122305518Y-133085812D01*
X122430000Y-133098072D01*
X125930000Y-133098072D01*
X126054482Y-133085812D01*
X126174180Y-133049502D01*
X126242192Y-133013148D01*
X130056457Y-133013148D01*
X130332627Y-133431118D01*
X130877557Y-133721649D01*
X131468696Y-133900287D01*
X132083328Y-133960168D01*
X132697831Y-133898990D01*
X133288592Y-133719103D01*
X133827373Y-133431118D01*
X134103543Y-133013148D01*
X132080000Y-130989605D01*
X130056457Y-133013148D01*
X126242192Y-133013148D01*
X126284494Y-132990537D01*
X126381185Y-132911185D01*
X126460537Y-132814494D01*
X126519502Y-132704180D01*
X126555812Y-132584482D01*
X126568072Y-132460000D01*
X126568072Y-130813328D01*
X128929832Y-130813328D01*
X128991010Y-131427831D01*
X129170897Y-132018592D01*
X129458882Y-132557373D01*
X129876852Y-132833543D01*
X131900395Y-130810000D01*
X132259605Y-130810000D01*
X134283148Y-132833543D01*
X134701118Y-132557373D01*
X134991649Y-132012443D01*
X135170287Y-131421304D01*
X135230168Y-130806672D01*
X135168990Y-130192169D01*
X134989103Y-129601408D01*
X134701118Y-129062627D01*
X134283148Y-128786457D01*
X132259605Y-130810000D01*
X131900395Y-130810000D01*
X129876852Y-128786457D01*
X129458882Y-129062627D01*
X129168351Y-129607557D01*
X128989713Y-130198696D01*
X128929832Y-130813328D01*
X126568072Y-130813328D01*
X126568072Y-129160000D01*
X126555812Y-129035518D01*
X126519502Y-128915820D01*
X126460537Y-128805506D01*
X126381185Y-128708815D01*
X126284494Y-128629463D01*
X126242193Y-128606852D01*
X130056457Y-128606852D01*
X132080000Y-130630395D01*
X134103543Y-128606852D01*
X133827373Y-128188882D01*
X133282443Y-127898351D01*
X132691304Y-127719713D01*
X132076672Y-127659832D01*
X131462169Y-127721010D01*
X130871408Y-127900897D01*
X130332627Y-128188882D01*
X130056457Y-128606852D01*
X126242193Y-128606852D01*
X126174180Y-128570498D01*
X126054482Y-128534188D01*
X125930000Y-128521928D01*
X122430000Y-128521928D01*
X122305518Y-128534188D01*
X122185820Y-128570498D01*
X122075506Y-128629463D01*
X121978815Y-128708815D01*
X121899463Y-128805506D01*
X121840498Y-128915820D01*
X121804188Y-129035518D01*
X121791928Y-129160000D01*
X113069287Y-129160000D01*
X114073888Y-128155400D01*
X114142315Y-128155400D01*
X114331243Y-128117820D01*
X114509210Y-128044104D01*
X114669375Y-127937085D01*
X114805585Y-127800875D01*
X114912604Y-127640710D01*
X114986320Y-127462743D01*
X115023900Y-127273815D01*
X115023900Y-127081185D01*
X118148100Y-127081185D01*
X118148100Y-127273815D01*
X118185680Y-127462743D01*
X118259396Y-127640710D01*
X118366415Y-127800875D01*
X118502625Y-127937085D01*
X118662790Y-128044104D01*
X118840757Y-128117820D01*
X119029685Y-128155400D01*
X119222315Y-128155400D01*
X119411243Y-128117820D01*
X119589210Y-128044104D01*
X119749375Y-127937085D01*
X119797760Y-127888700D01*
X121199574Y-127888700D01*
X121234500Y-127892140D01*
X121269426Y-127888700D01*
X121269436Y-127888700D01*
X121373920Y-127878409D01*
X121507981Y-127837742D01*
X121631533Y-127771702D01*
X121689780Y-127723900D01*
X121762315Y-127723900D01*
X121951243Y-127686320D01*
X122129210Y-127612604D01*
X122289375Y-127505585D01*
X122425585Y-127369375D01*
X122532604Y-127209210D01*
X122606320Y-127031243D01*
X122643900Y-126842315D01*
X122643900Y-126649685D01*
X122606320Y-126460757D01*
X122532604Y-126282790D01*
X122425585Y-126122625D01*
X122289375Y-125986415D01*
X122129210Y-125879396D01*
X121951243Y-125805680D01*
X121762315Y-125768100D01*
X121569685Y-125768100D01*
X121380757Y-125805680D01*
X121202790Y-125879396D01*
X121042625Y-125986415D01*
X120906415Y-126122625D01*
X120799396Y-126282790D01*
X120725680Y-126460757D01*
X120724577Y-126466300D01*
X119797760Y-126466300D01*
X119749375Y-126417915D01*
X119589210Y-126310896D01*
X119411243Y-126237180D01*
X119222315Y-126199600D01*
X119029685Y-126199600D01*
X118840757Y-126237180D01*
X118662790Y-126310896D01*
X118502625Y-126417915D01*
X118366415Y-126554125D01*
X118259396Y-126714290D01*
X118185680Y-126892257D01*
X118148100Y-127081185D01*
X115023900Y-127081185D01*
X114986320Y-126892257D01*
X114912604Y-126714290D01*
X114823375Y-126580750D01*
X114912604Y-126447210D01*
X114986320Y-126269243D01*
X115023900Y-126080315D01*
X115023900Y-125887685D01*
X114986320Y-125698757D01*
X114912604Y-125520790D01*
X114805585Y-125360625D01*
X114669375Y-125224415D01*
X114509210Y-125117396D01*
X114331243Y-125043680D01*
X114142315Y-125006100D01*
X113949685Y-125006100D01*
X113841423Y-125027635D01*
X112923473Y-124109685D01*
X132372100Y-124109685D01*
X132372100Y-124302315D01*
X132409680Y-124491243D01*
X132483396Y-124669210D01*
X132590415Y-124829375D01*
X132726625Y-124965585D01*
X132886790Y-125072604D01*
X133064757Y-125146320D01*
X133234468Y-125180078D01*
X134516585Y-126462196D01*
X134538851Y-126489327D01*
X134565982Y-126511593D01*
X134565987Y-126511598D01*
X134645058Y-126576489D01*
X134647145Y-126578202D01*
X134770697Y-126644242D01*
X134904758Y-126684909D01*
X135009242Y-126695200D01*
X135009249Y-126695200D01*
X135044178Y-126698640D01*
X135079106Y-126695200D01*
X135472240Y-126695200D01*
X135520625Y-126743585D01*
X135680790Y-126850604D01*
X135858757Y-126924320D01*
X136047685Y-126961900D01*
X136240315Y-126961900D01*
X136429243Y-126924320D01*
X136607210Y-126850604D01*
X136767375Y-126743585D01*
X136903585Y-126607375D01*
X137010604Y-126447210D01*
X137084320Y-126269243D01*
X137121900Y-126080315D01*
X137121900Y-125887685D01*
X137111636Y-125836084D01*
X137115210Y-125834604D01*
X137275375Y-125727585D01*
X137411585Y-125591375D01*
X137518604Y-125431210D01*
X137592320Y-125253243D01*
X137629900Y-125064315D01*
X137629900Y-124871685D01*
X137592320Y-124682757D01*
X137518604Y-124504790D01*
X137411585Y-124344625D01*
X137275375Y-124208415D01*
X137115210Y-124101396D01*
X136937243Y-124027680D01*
X136748315Y-123990100D01*
X136555685Y-123990100D01*
X136366757Y-124027680D01*
X136188790Y-124101396D01*
X136028625Y-124208415D01*
X135980240Y-124256800D01*
X135545760Y-124256800D01*
X135497375Y-124208415D01*
X135337210Y-124101396D01*
X135159243Y-124027680D01*
X134970315Y-123990100D01*
X134777685Y-123990100D01*
X134588757Y-124027680D01*
X134410790Y-124101396D01*
X134327900Y-124156781D01*
X134327900Y-124109685D01*
X134290320Y-123920757D01*
X134216604Y-123742790D01*
X134109585Y-123582625D01*
X133973375Y-123446415D01*
X133813210Y-123339396D01*
X133635243Y-123265680D01*
X133446315Y-123228100D01*
X133253685Y-123228100D01*
X133064757Y-123265680D01*
X132886790Y-123339396D01*
X132726625Y-123446415D01*
X132590415Y-123582625D01*
X132483396Y-123742790D01*
X132409680Y-123920757D01*
X132372100Y-124109685D01*
X112923473Y-124109685D01*
X112483900Y-123670113D01*
X112483900Y-123601685D01*
X112446320Y-123412757D01*
X112372604Y-123234790D01*
X112265585Y-123074625D01*
X112129375Y-122938415D01*
X111969210Y-122831396D01*
X111791243Y-122757680D01*
X111602315Y-122720100D01*
X111409685Y-122720100D01*
X111220757Y-122757680D01*
X111042790Y-122831396D01*
X110882625Y-122938415D01*
X110746415Y-123074625D01*
X110639396Y-123234790D01*
X110565680Y-123412757D01*
X110528100Y-123601685D01*
X110528100Y-123794315D01*
X110565680Y-123983243D01*
X110639396Y-124161210D01*
X110746415Y-124321375D01*
X110882625Y-124457585D01*
X111042790Y-124564604D01*
X111220757Y-124638320D01*
X111409685Y-124675900D01*
X111478113Y-124675900D01*
X113129881Y-126327670D01*
X113179396Y-126447210D01*
X113268625Y-126580750D01*
X113179396Y-126714290D01*
X113105680Y-126892257D01*
X113068100Y-127081185D01*
X113068100Y-127149612D01*
X111943745Y-128273967D01*
X111975900Y-128112315D01*
X111975900Y-127919685D01*
X111938320Y-127730757D01*
X111864604Y-127552790D01*
X111757585Y-127392625D01*
X111709200Y-127344240D01*
X111709200Y-126655760D01*
X111757585Y-126607375D01*
X111864604Y-126447210D01*
X111938320Y-126269243D01*
X111975900Y-126080315D01*
X111975900Y-125887685D01*
X111938320Y-125698757D01*
X111864604Y-125520790D01*
X111757585Y-125360625D01*
X111621375Y-125224415D01*
X111461210Y-125117396D01*
X111283243Y-125043680D01*
X111094315Y-125006100D01*
X110901685Y-125006100D01*
X110712757Y-125043680D01*
X110534790Y-125117396D01*
X110477978Y-125155356D01*
X110424494Y-125111463D01*
X110314180Y-125052498D01*
X110194482Y-125016188D01*
X110070000Y-125003928D01*
X108991716Y-125003928D01*
X108419900Y-124432112D01*
X108419900Y-124363685D01*
X108382320Y-124174757D01*
X108308604Y-123996790D01*
X108201585Y-123836625D01*
X108065375Y-123700415D01*
X107905210Y-123593396D01*
X107727243Y-123519680D01*
X107538315Y-123482100D01*
X107345685Y-123482100D01*
X107156757Y-123519680D01*
X106978790Y-123593396D01*
X106818625Y-123700415D01*
X106682415Y-123836625D01*
X106575396Y-123996790D01*
X106501680Y-124174757D01*
X106464100Y-124363685D01*
X106464100Y-124556315D01*
X106501680Y-124745243D01*
X106575396Y-124923210D01*
X106631383Y-125007000D01*
X106533740Y-125007000D01*
X106246842Y-125064068D01*
X105976589Y-125176010D01*
X105733368Y-125338525D01*
X105526525Y-125545368D01*
X105364010Y-125788589D01*
X105252068Y-126058842D01*
X105195000Y-126345740D01*
X105195000Y-126638260D01*
X105252068Y-126925158D01*
X105364010Y-127195411D01*
X105526525Y-127438632D01*
X105733368Y-127645475D01*
X105976589Y-127807990D01*
X106246842Y-127919932D01*
X106533740Y-127977000D01*
X106826260Y-127977000D01*
X107113158Y-127919932D01*
X107383411Y-127807990D01*
X107626632Y-127645475D01*
X107758487Y-127513620D01*
X107780498Y-127586180D01*
X107839463Y-127696494D01*
X107918815Y-127793185D01*
X108015506Y-127872537D01*
X108125820Y-127931502D01*
X108245518Y-127967812D01*
X108370000Y-127980072D01*
X110020100Y-127980072D01*
X110020100Y-128112315D01*
X110057680Y-128301243D01*
X110065781Y-128320800D01*
X106843760Y-128320800D01*
X106795375Y-128272415D01*
X106635210Y-128165396D01*
X106457243Y-128091680D01*
X106268315Y-128054100D01*
X106075685Y-128054100D01*
X105886757Y-128091680D01*
X105708790Y-128165396D01*
X105548625Y-128272415D01*
X105412415Y-128408625D01*
X105305396Y-128568790D01*
X105231680Y-128746757D01*
X105194100Y-128935685D01*
X104201616Y-128935685D01*
X104297932Y-128703158D01*
X104355000Y-128416260D01*
X104355000Y-128123740D01*
X104297932Y-127836842D01*
X104185990Y-127566589D01*
X104023475Y-127323368D01*
X103816632Y-127116525D01*
X103634466Y-126994805D01*
X103751355Y-126925178D01*
X103967588Y-126730269D01*
X104141641Y-126496920D01*
X104266825Y-126234099D01*
X104311476Y-126086890D01*
X104190155Y-125857000D01*
X102997000Y-125857000D01*
X102997000Y-125877000D01*
X102743000Y-125877000D01*
X102743000Y-125857000D01*
X101549845Y-125857000D01*
X101428524Y-126086890D01*
X101473175Y-126234099D01*
X101598359Y-126496920D01*
X101772412Y-126730269D01*
X101988645Y-126925178D01*
X102105534Y-126994805D01*
X101923368Y-127116525D01*
X101716525Y-127323368D01*
X101554010Y-127566589D01*
X101442068Y-127836842D01*
X101385000Y-128123740D01*
X100990000Y-128123740D01*
X100990000Y-124040000D01*
X101381928Y-124040000D01*
X101394188Y-124164482D01*
X101430498Y-124284180D01*
X101489463Y-124394494D01*
X101568815Y-124491185D01*
X101665506Y-124570537D01*
X101775820Y-124629502D01*
X101856466Y-124653966D01*
X101772412Y-124729731D01*
X101598359Y-124963080D01*
X101473175Y-125225901D01*
X101428524Y-125373110D01*
X101549845Y-125603000D01*
X102743000Y-125603000D01*
X102743000Y-123317000D01*
X102997000Y-123317000D01*
X102997000Y-125603000D01*
X104190155Y-125603000D01*
X104311476Y-125373110D01*
X104266825Y-125225901D01*
X104141641Y-124963080D01*
X103967588Y-124729731D01*
X103883534Y-124653966D01*
X103964180Y-124629502D01*
X104074494Y-124570537D01*
X104171185Y-124491185D01*
X104250537Y-124394494D01*
X104309502Y-124284180D01*
X104345812Y-124164482D01*
X104358072Y-124040000D01*
X104355000Y-123475750D01*
X104196250Y-123317000D01*
X102997000Y-123317000D01*
X102743000Y-123317000D01*
X101543750Y-123317000D01*
X101385000Y-123475750D01*
X101381928Y-124040000D01*
X100990000Y-124040000D01*
X100990000Y-122340000D01*
X101381928Y-122340000D01*
X101385000Y-122904250D01*
X101543750Y-123063000D01*
X102743000Y-123063000D01*
X102743000Y-121863750D01*
X102997000Y-121863750D01*
X102997000Y-123063000D01*
X104196250Y-123063000D01*
X104355000Y-122904250D01*
X104358072Y-122340000D01*
X104345812Y-122215518D01*
X104309502Y-122095820D01*
X104250537Y-121985506D01*
X104171185Y-121888815D01*
X104074494Y-121809463D01*
X103964180Y-121750498D01*
X103844482Y-121714188D01*
X103720000Y-121701928D01*
X103155750Y-121705000D01*
X102997000Y-121863750D01*
X102743000Y-121863750D01*
X102584250Y-121705000D01*
X102020000Y-121701928D01*
X101895518Y-121714188D01*
X101775820Y-121750498D01*
X101665506Y-121809463D01*
X101568815Y-121888815D01*
X101489463Y-121985506D01*
X101430498Y-122095820D01*
X101394188Y-122215518D01*
X101381928Y-122340000D01*
X100990000Y-122340000D01*
X100990000Y-121310000D01*
X142764441Y-121310000D01*
X142737894Y-121336547D01*
G37*
%TD.AperFunction*%
%TD*%
M02*
