%TF.GenerationSoftware,KiCad,Pcbnew,(5.1.10)-1*%
%TF.CreationDate,2021-07-01T22:03:52-07:00*%
%TF.ProjectId,BivalveBit_RevA,42697661-6c76-4654-9269-745f52657641,A*%
%TF.SameCoordinates,Original*%
%TF.FileFunction,Legend,Top*%
%TF.FilePolarity,Positive*%
%FSLAX46Y46*%
G04 Gerber Fmt 4.6, Leading zero omitted, Abs format (unit mm)*
G04 Created by KiCad (PCBNEW (5.1.10)-1) date 2021-07-01 22:03:52*
%MOMM*%
%LPD*%
G01*
G04 APERTURE LIST*
%ADD10C,0.127000*%
%ADD11C,0.120000*%
%ADD12C,0.150000*%
%ADD13C,0.200000*%
G04 APERTURE END LIST*
D10*
X181058457Y-131927600D02*
X181087485Y-131840514D01*
X181116514Y-131811485D01*
X181174571Y-131782457D01*
X181261657Y-131782457D01*
X181319714Y-131811485D01*
X181348742Y-131840514D01*
X181377771Y-131898571D01*
X181377771Y-132130800D01*
X180768171Y-132130800D01*
X180768171Y-131927600D01*
X180797200Y-131869542D01*
X180826228Y-131840514D01*
X180884285Y-131811485D01*
X180942342Y-131811485D01*
X181000400Y-131840514D01*
X181029428Y-131869542D01*
X181058457Y-131927600D01*
X181058457Y-132130800D01*
X181348742Y-131550228D02*
X181377771Y-131463142D01*
X181377771Y-131318000D01*
X181348742Y-131259942D01*
X181319714Y-131230914D01*
X181261657Y-131201885D01*
X181203600Y-131201885D01*
X181145542Y-131230914D01*
X181116514Y-131259942D01*
X181087485Y-131318000D01*
X181058457Y-131434114D01*
X181029428Y-131492171D01*
X181000400Y-131521200D01*
X180942342Y-131550228D01*
X180884285Y-131550228D01*
X180826228Y-131521200D01*
X180797200Y-131492171D01*
X180768171Y-131434114D01*
X180768171Y-131288971D01*
X180797200Y-131201885D01*
X181377771Y-130621314D02*
X181377771Y-130969657D01*
X181377771Y-130795485D02*
X180768171Y-130795485D01*
X180855257Y-130853542D01*
X180913314Y-130911600D01*
X180942342Y-130969657D01*
X180768171Y-130418114D02*
X180768171Y-130040742D01*
X181000400Y-130243942D01*
X181000400Y-130156857D01*
X181029428Y-130098800D01*
X181058457Y-130069771D01*
X181116514Y-130040742D01*
X181261657Y-130040742D01*
X181319714Y-130069771D01*
X181348742Y-130098800D01*
X181377771Y-130156857D01*
X181377771Y-130331028D01*
X181348742Y-130389085D01*
X181319714Y-130418114D01*
X181029428Y-129692400D02*
X181000400Y-129750457D01*
X180971371Y-129779485D01*
X180913314Y-129808514D01*
X180884285Y-129808514D01*
X180826228Y-129779485D01*
X180797200Y-129750457D01*
X180768171Y-129692400D01*
X180768171Y-129576285D01*
X180797200Y-129518228D01*
X180826228Y-129489200D01*
X180884285Y-129460171D01*
X180913314Y-129460171D01*
X180971371Y-129489200D01*
X181000400Y-129518228D01*
X181029428Y-129576285D01*
X181029428Y-129692400D01*
X181058457Y-129750457D01*
X181087485Y-129779485D01*
X181145542Y-129808514D01*
X181261657Y-129808514D01*
X181319714Y-129779485D01*
X181348742Y-129750457D01*
X181377771Y-129692400D01*
X181377771Y-129576285D01*
X181348742Y-129518228D01*
X181319714Y-129489200D01*
X181261657Y-129460171D01*
X181145542Y-129460171D01*
X181087485Y-129489200D01*
X181058457Y-129518228D01*
X181029428Y-129576285D01*
X166979600Y-127575733D02*
X166742533Y-127237066D01*
X166573200Y-127575733D02*
X166573200Y-126864533D01*
X166844133Y-126864533D01*
X166911866Y-126898400D01*
X166945733Y-126932266D01*
X166979600Y-127000000D01*
X166979600Y-127101600D01*
X166945733Y-127169333D01*
X166911866Y-127203200D01*
X166844133Y-127237066D01*
X166573200Y-127237066D01*
X167182800Y-126864533D02*
X167589200Y-126864533D01*
X167386000Y-127575733D02*
X167386000Y-126864533D01*
X168232666Y-127508000D02*
X168198800Y-127541866D01*
X168097200Y-127575733D01*
X168029466Y-127575733D01*
X167927866Y-127541866D01*
X167860133Y-127474133D01*
X167826266Y-127406400D01*
X167792400Y-127270933D01*
X167792400Y-127169333D01*
X167826266Y-127033866D01*
X167860133Y-126966133D01*
X167927866Y-126898400D01*
X168029466Y-126864533D01*
X168097200Y-126864533D01*
X168198800Y-126898400D01*
X168232666Y-126932266D01*
X110676266Y-128981200D02*
X110676266Y-128642533D01*
X111387466Y-128642533D01*
X110676266Y-129218266D02*
X111150400Y-129218266D01*
X111387466Y-129218266D02*
X111353600Y-129184400D01*
X111319733Y-129218266D01*
X111353600Y-129252133D01*
X111387466Y-129218266D01*
X111319733Y-129218266D01*
X110947200Y-129556933D02*
X110947200Y-130098800D01*
X110676266Y-130437466D02*
X111387466Y-130437466D01*
X110676266Y-130877733D02*
X110710133Y-130810000D01*
X110744000Y-130776133D01*
X110811733Y-130742266D01*
X111014933Y-130742266D01*
X111082666Y-130776133D01*
X111116533Y-130810000D01*
X111150400Y-130877733D01*
X111150400Y-130979333D01*
X111116533Y-131047066D01*
X111082666Y-131080933D01*
X111014933Y-131114800D01*
X110811733Y-131114800D01*
X110744000Y-131080933D01*
X110710133Y-131047066D01*
X110676266Y-130979333D01*
X110676266Y-130877733D01*
X111150400Y-131419600D02*
X110676266Y-131419600D01*
X111082666Y-131419600D02*
X111116533Y-131453466D01*
X111150400Y-131521200D01*
X111150400Y-131622800D01*
X111116533Y-131690533D01*
X111048800Y-131724400D01*
X110676266Y-131724400D01*
X111048800Y-132842000D02*
X111014933Y-132943600D01*
X110981066Y-132977466D01*
X110913333Y-133011333D01*
X110811733Y-133011333D01*
X110744000Y-132977466D01*
X110710133Y-132943600D01*
X110676266Y-132875866D01*
X110676266Y-132604933D01*
X111387466Y-132604933D01*
X111387466Y-132842000D01*
X111353600Y-132909733D01*
X111319733Y-132943600D01*
X111252000Y-132977466D01*
X111184266Y-132977466D01*
X111116533Y-132943600D01*
X111082666Y-132909733D01*
X111048800Y-132842000D01*
X111048800Y-132604933D01*
X110676266Y-133620933D02*
X111048800Y-133620933D01*
X111116533Y-133587066D01*
X111150400Y-133519333D01*
X111150400Y-133383866D01*
X111116533Y-133316133D01*
X110710133Y-133620933D02*
X110676266Y-133553200D01*
X110676266Y-133383866D01*
X110710133Y-133316133D01*
X110777866Y-133282266D01*
X110845600Y-133282266D01*
X110913333Y-133316133D01*
X110947200Y-133383866D01*
X110947200Y-133553200D01*
X110981066Y-133620933D01*
X111150400Y-133858000D02*
X111150400Y-134128933D01*
X111387466Y-133959600D02*
X110777866Y-133959600D01*
X110710133Y-133993466D01*
X110676266Y-134061200D01*
X110676266Y-134128933D01*
X111150400Y-134264400D02*
X111150400Y-134535333D01*
X111387466Y-134366000D02*
X110777866Y-134366000D01*
X110710133Y-134399866D01*
X110676266Y-134467600D01*
X110676266Y-134535333D01*
X110710133Y-135043333D02*
X110676266Y-134975600D01*
X110676266Y-134840133D01*
X110710133Y-134772400D01*
X110777866Y-134738533D01*
X111048800Y-134738533D01*
X111116533Y-134772400D01*
X111150400Y-134840133D01*
X111150400Y-134975600D01*
X111116533Y-135043333D01*
X111048800Y-135077200D01*
X110981066Y-135077200D01*
X110913333Y-134738533D01*
X110676266Y-135382000D02*
X111150400Y-135382000D01*
X111014933Y-135382000D02*
X111082666Y-135415866D01*
X111116533Y-135449733D01*
X111150400Y-135517466D01*
X111150400Y-135585200D01*
X111150400Y-135754533D02*
X110676266Y-135923866D01*
X111150400Y-136093200D02*
X110676266Y-135923866D01*
X110506933Y-135856133D01*
X110473066Y-135822266D01*
X110439200Y-135754533D01*
X158517771Y-137406742D02*
X157908171Y-137406742D01*
X157908171Y-137174514D01*
X157937200Y-137116457D01*
X157966228Y-137087428D01*
X158024285Y-137058400D01*
X158111371Y-137058400D01*
X158169428Y-137087428D01*
X158198457Y-137116457D01*
X158227485Y-137174514D01*
X158227485Y-137406742D01*
X158517771Y-136797142D02*
X157908171Y-136797142D01*
X157908171Y-136652000D01*
X157937200Y-136564914D01*
X157995257Y-136506857D01*
X158053314Y-136477828D01*
X158169428Y-136448800D01*
X158256514Y-136448800D01*
X158372628Y-136477828D01*
X158430685Y-136506857D01*
X158488742Y-136564914D01*
X158517771Y-136652000D01*
X158517771Y-136797142D01*
X157908171Y-135926285D02*
X157908171Y-136042400D01*
X157937200Y-136100457D01*
X157966228Y-136129485D01*
X158053314Y-136187542D01*
X158169428Y-136216571D01*
X158401657Y-136216571D01*
X158459714Y-136187542D01*
X158488742Y-136158514D01*
X158517771Y-136100457D01*
X158517771Y-135984342D01*
X158488742Y-135926285D01*
X158459714Y-135897257D01*
X158401657Y-135868228D01*
X158256514Y-135868228D01*
X158198457Y-135897257D01*
X158169428Y-135926285D01*
X158140400Y-135984342D01*
X158140400Y-136100457D01*
X158169428Y-136158514D01*
X158198457Y-136187542D01*
X158256514Y-136216571D01*
X164998400Y-134540171D02*
X165201600Y-135149771D01*
X165404800Y-134540171D01*
X165811200Y-134830457D02*
X165898285Y-134859485D01*
X165927314Y-134888514D01*
X165956342Y-134946571D01*
X165956342Y-135033657D01*
X165927314Y-135091714D01*
X165898285Y-135120742D01*
X165840228Y-135149771D01*
X165608000Y-135149771D01*
X165608000Y-134540171D01*
X165811200Y-134540171D01*
X165869257Y-134569200D01*
X165898285Y-134598228D01*
X165927314Y-134656285D01*
X165927314Y-134714342D01*
X165898285Y-134772400D01*
X165869257Y-134801428D01*
X165811200Y-134830457D01*
X165608000Y-134830457D01*
X166217600Y-134540171D02*
X166217600Y-135033657D01*
X166246628Y-135091714D01*
X166275657Y-135120742D01*
X166333714Y-135149771D01*
X166449828Y-135149771D01*
X166507885Y-135120742D01*
X166536914Y-135091714D01*
X166565942Y-135033657D01*
X166565942Y-134540171D01*
X166827200Y-135120742D02*
X166914285Y-135149771D01*
X167059428Y-135149771D01*
X167117485Y-135120742D01*
X167146514Y-135091714D01*
X167175542Y-135033657D01*
X167175542Y-134975600D01*
X167146514Y-134917542D01*
X167117485Y-134888514D01*
X167059428Y-134859485D01*
X166943314Y-134830457D01*
X166885257Y-134801428D01*
X166856228Y-134772400D01*
X166827200Y-134714342D01*
X166827200Y-134656285D01*
X166856228Y-134598228D01*
X166885257Y-134569200D01*
X166943314Y-134540171D01*
X167088457Y-134540171D01*
X167175542Y-134569200D01*
X160494133Y-134518400D02*
X160426400Y-134484533D01*
X160324800Y-134484533D01*
X160223200Y-134518400D01*
X160155466Y-134586133D01*
X160121600Y-134653866D01*
X160087733Y-134789333D01*
X160087733Y-134890933D01*
X160121600Y-135026400D01*
X160155466Y-135094133D01*
X160223200Y-135161866D01*
X160324800Y-135195733D01*
X160392533Y-135195733D01*
X160494133Y-135161866D01*
X160528000Y-135128000D01*
X160528000Y-134890933D01*
X160392533Y-134890933D01*
X160832800Y-135195733D02*
X160832800Y-134484533D01*
X161239200Y-135195733D01*
X161239200Y-134484533D01*
X161577866Y-135195733D02*
X161577866Y-134484533D01*
X161747200Y-134484533D01*
X161848800Y-134518400D01*
X161916533Y-134586133D01*
X161950400Y-134653866D01*
X161984266Y-134789333D01*
X161984266Y-134890933D01*
X161950400Y-135026400D01*
X161916533Y-135094133D01*
X161848800Y-135161866D01*
X161747200Y-135195733D01*
X161577866Y-135195733D01*
X162695466Y-135195733D02*
X162695466Y-134484533D01*
X162966400Y-134484533D01*
X163034133Y-134518400D01*
X163068000Y-134552266D01*
X163101866Y-134620000D01*
X163101866Y-134721600D01*
X163068000Y-134789333D01*
X163034133Y-134823200D01*
X162966400Y-134857066D01*
X162695466Y-134857066D01*
X163406666Y-135195733D02*
X163406666Y-134484533D01*
X163576000Y-134484533D01*
X163677600Y-134518400D01*
X163745333Y-134586133D01*
X163779200Y-134653866D01*
X163813066Y-134789333D01*
X163813066Y-134890933D01*
X163779200Y-135026400D01*
X163745333Y-135094133D01*
X163677600Y-135161866D01*
X163576000Y-135195733D01*
X163406666Y-135195733D01*
X164084000Y-134552266D02*
X164117866Y-134518400D01*
X164185600Y-134484533D01*
X164354933Y-134484533D01*
X164422666Y-134518400D01*
X164456533Y-134552266D01*
X164490400Y-134620000D01*
X164490400Y-134687733D01*
X164456533Y-134789333D01*
X164050133Y-135195733D01*
X164490400Y-135195733D01*
X143684171Y-127863600D02*
X144293771Y-127660400D01*
X143684171Y-127457200D01*
X143974457Y-127050800D02*
X144003485Y-126963714D01*
X144032514Y-126934685D01*
X144090571Y-126905657D01*
X144177657Y-126905657D01*
X144235714Y-126934685D01*
X144264742Y-126963714D01*
X144293771Y-127021771D01*
X144293771Y-127254000D01*
X143684171Y-127254000D01*
X143684171Y-127050800D01*
X143713200Y-126992742D01*
X143742228Y-126963714D01*
X143800285Y-126934685D01*
X143858342Y-126934685D01*
X143916400Y-126963714D01*
X143945428Y-126992742D01*
X143974457Y-127050800D01*
X143974457Y-127254000D01*
X143684171Y-126644400D02*
X144177657Y-126644400D01*
X144235714Y-126615371D01*
X144264742Y-126586342D01*
X144293771Y-126528285D01*
X144293771Y-126412171D01*
X144264742Y-126354114D01*
X144235714Y-126325085D01*
X144177657Y-126296057D01*
X143684171Y-126296057D01*
X144264742Y-126034800D02*
X144293771Y-125947714D01*
X144293771Y-125802571D01*
X144264742Y-125744514D01*
X144235714Y-125715485D01*
X144177657Y-125686457D01*
X144119600Y-125686457D01*
X144061542Y-125715485D01*
X144032514Y-125744514D01*
X144003485Y-125802571D01*
X143974457Y-125918685D01*
X143945428Y-125976742D01*
X143916400Y-126005771D01*
X143858342Y-126034800D01*
X143800285Y-126034800D01*
X143742228Y-126005771D01*
X143713200Y-125976742D01*
X143684171Y-125918685D01*
X143684171Y-125773542D01*
X143713200Y-125686457D01*
X143967200Y-124162457D02*
X143938171Y-124220514D01*
X143938171Y-124307600D01*
X143967200Y-124394685D01*
X144025257Y-124452742D01*
X144083314Y-124481771D01*
X144199428Y-124510800D01*
X144286514Y-124510800D01*
X144402628Y-124481771D01*
X144460685Y-124452742D01*
X144518742Y-124394685D01*
X144547771Y-124307600D01*
X144547771Y-124249542D01*
X144518742Y-124162457D01*
X144489714Y-124133428D01*
X144286514Y-124133428D01*
X144286514Y-124249542D01*
X144547771Y-123872171D02*
X143938171Y-123872171D01*
X144547771Y-123523828D01*
X143938171Y-123523828D01*
X144547771Y-123233542D02*
X143938171Y-123233542D01*
X143938171Y-123088400D01*
X143967200Y-123001314D01*
X144025257Y-122943257D01*
X144083314Y-122914228D01*
X144199428Y-122885200D01*
X144286514Y-122885200D01*
X144402628Y-122914228D01*
X144460685Y-122943257D01*
X144518742Y-123001314D01*
X144547771Y-123088400D01*
X144547771Y-123233542D01*
X147298228Y-123596400D02*
X147588514Y-123393200D01*
X147298228Y-123248057D02*
X147907828Y-123248057D01*
X147907828Y-123480285D01*
X147878800Y-123538342D01*
X147849771Y-123567371D01*
X147791714Y-123596400D01*
X147704628Y-123596400D01*
X147646571Y-123567371D01*
X147617542Y-123538342D01*
X147588514Y-123480285D01*
X147588514Y-123248057D01*
X147907828Y-123799600D02*
X147298228Y-124206000D01*
X147907828Y-124206000D02*
X147298228Y-123799600D01*
X147399828Y-127087085D02*
X146906342Y-127087085D01*
X146848285Y-127116114D01*
X146819257Y-127145142D01*
X146790228Y-127203200D01*
X146790228Y-127319314D01*
X146819257Y-127377371D01*
X146848285Y-127406400D01*
X146906342Y-127435428D01*
X147399828Y-127435428D01*
X146790228Y-127725714D02*
X147399828Y-127725714D01*
X147399828Y-127957942D01*
X147370800Y-128016000D01*
X147341771Y-128045028D01*
X147283714Y-128074057D01*
X147196628Y-128074057D01*
X147138571Y-128045028D01*
X147109542Y-128016000D01*
X147080514Y-127957942D01*
X147080514Y-127725714D01*
X146790228Y-128335314D02*
X147399828Y-128335314D01*
X147399828Y-128480457D01*
X147370800Y-128567542D01*
X147312742Y-128625600D01*
X147254685Y-128654628D01*
X147138571Y-128683657D01*
X147051485Y-128683657D01*
X146935371Y-128654628D01*
X146877314Y-128625600D01*
X146819257Y-128567542D01*
X146790228Y-128480457D01*
X146790228Y-128335314D01*
X146790228Y-128944914D02*
X147399828Y-128944914D01*
X104072266Y-135077200D02*
X104783466Y-135077200D01*
X104783466Y-135246533D01*
X104749600Y-135348133D01*
X104681866Y-135415866D01*
X104614133Y-135449733D01*
X104478666Y-135483600D01*
X104377066Y-135483600D01*
X104241600Y-135449733D01*
X104173866Y-135415866D01*
X104106133Y-135348133D01*
X104072266Y-135246533D01*
X104072266Y-135077200D01*
X104783466Y-135686800D02*
X104783466Y-136093200D01*
X104072266Y-135890000D02*
X104783466Y-135890000D01*
X104072266Y-136736666D02*
X104410933Y-136499600D01*
X104072266Y-136330266D02*
X104783466Y-136330266D01*
X104783466Y-136601200D01*
X104749600Y-136668933D01*
X104715733Y-136702800D01*
X104648000Y-136736666D01*
X104546400Y-136736666D01*
X104478666Y-136702800D01*
X104444800Y-136668933D01*
X104410933Y-136601200D01*
X104410933Y-136330266D01*
X104749600Y-122648133D02*
X104783466Y-122580400D01*
X104783466Y-122478800D01*
X104749600Y-122377200D01*
X104681866Y-122309466D01*
X104614133Y-122275600D01*
X104478666Y-122241733D01*
X104377066Y-122241733D01*
X104241600Y-122275600D01*
X104173866Y-122309466D01*
X104106133Y-122377200D01*
X104072266Y-122478800D01*
X104072266Y-122546533D01*
X104106133Y-122648133D01*
X104140000Y-122682000D01*
X104377066Y-122682000D01*
X104377066Y-122546533D01*
X104072266Y-122986800D02*
X104783466Y-122986800D01*
X104072266Y-123393200D01*
X104783466Y-123393200D01*
X104072266Y-123731866D02*
X104783466Y-123731866D01*
X104783466Y-123901200D01*
X104749600Y-124002800D01*
X104681866Y-124070533D01*
X104614133Y-124104400D01*
X104478666Y-124138266D01*
X104377066Y-124138266D01*
X104241600Y-124104400D01*
X104173866Y-124070533D01*
X104106133Y-124002800D01*
X104072266Y-123901200D01*
X104072266Y-123731866D01*
X104749600Y-125188133D02*
X104783466Y-125120400D01*
X104783466Y-125018800D01*
X104749600Y-124917200D01*
X104681866Y-124849466D01*
X104614133Y-124815600D01*
X104478666Y-124781733D01*
X104377066Y-124781733D01*
X104241600Y-124815600D01*
X104173866Y-124849466D01*
X104106133Y-124917200D01*
X104072266Y-125018800D01*
X104072266Y-125086533D01*
X104106133Y-125188133D01*
X104140000Y-125222000D01*
X104377066Y-125222000D01*
X104377066Y-125086533D01*
X104072266Y-125526800D02*
X104783466Y-125526800D01*
X104072266Y-125933200D01*
X104783466Y-125933200D01*
X104072266Y-126271866D02*
X104783466Y-126271866D01*
X104783466Y-126441200D01*
X104749600Y-126542800D01*
X104681866Y-126610533D01*
X104614133Y-126644400D01*
X104478666Y-126678266D01*
X104377066Y-126678266D01*
X104241600Y-126644400D01*
X104173866Y-126610533D01*
X104106133Y-126542800D01*
X104072266Y-126441200D01*
X104072266Y-126271866D01*
X104783466Y-127389466D02*
X104783466Y-127829733D01*
X104512533Y-127592666D01*
X104512533Y-127694266D01*
X104478666Y-127762000D01*
X104444800Y-127795866D01*
X104377066Y-127829733D01*
X104207733Y-127829733D01*
X104140000Y-127795866D01*
X104106133Y-127762000D01*
X104072266Y-127694266D01*
X104072266Y-127491066D01*
X104106133Y-127423333D01*
X104140000Y-127389466D01*
X104783466Y-128032933D02*
X104072266Y-128270000D01*
X104783466Y-128507066D01*
X104783466Y-128676400D02*
X104783466Y-129116666D01*
X104512533Y-128879600D01*
X104512533Y-128981200D01*
X104478666Y-129048933D01*
X104444800Y-129082800D01*
X104377066Y-129116666D01*
X104207733Y-129116666D01*
X104140000Y-129082800D01*
X104106133Y-129048933D01*
X104072266Y-128981200D01*
X104072266Y-128778000D01*
X104106133Y-128710266D01*
X104140000Y-128676400D01*
X104783466Y-130268133D02*
X104783466Y-130674533D01*
X104072266Y-130471333D02*
X104783466Y-130471333D01*
X104783466Y-130843866D02*
X104072266Y-131318000D01*
X104783466Y-131318000D02*
X104072266Y-130843866D01*
X104072266Y-133231466D02*
X104410933Y-132994400D01*
X104072266Y-132825066D02*
X104783466Y-132825066D01*
X104783466Y-133096000D01*
X104749600Y-133163733D01*
X104715733Y-133197600D01*
X104648000Y-133231466D01*
X104546400Y-133231466D01*
X104478666Y-133197600D01*
X104444800Y-133163733D01*
X104410933Y-133096000D01*
X104410933Y-132825066D01*
X104783466Y-133468533D02*
X104072266Y-133942666D01*
X104783466Y-133942666D02*
X104072266Y-133468533D01*
X110540800Y-132631542D02*
X110569828Y-132573485D01*
X110569828Y-132486400D01*
X110540800Y-132399314D01*
X110482742Y-132341257D01*
X110424685Y-132312228D01*
X110308571Y-132283200D01*
X110221485Y-132283200D01*
X110105371Y-132312228D01*
X110047314Y-132341257D01*
X109989257Y-132399314D01*
X109960228Y-132486400D01*
X109960228Y-132544457D01*
X109989257Y-132631542D01*
X110018285Y-132660571D01*
X110221485Y-132660571D01*
X110221485Y-132544457D01*
X109960228Y-132921828D02*
X110569828Y-132921828D01*
X109960228Y-133270171D01*
X110569828Y-133270171D01*
X109960228Y-133560457D02*
X110569828Y-133560457D01*
X110569828Y-133705600D01*
X110540800Y-133792685D01*
X110482742Y-133850742D01*
X110424685Y-133879771D01*
X110308571Y-133908800D01*
X110221485Y-133908800D01*
X110105371Y-133879771D01*
X110047314Y-133850742D01*
X109989257Y-133792685D01*
X109960228Y-133705600D01*
X109960228Y-133560457D01*
X109965066Y-130860800D02*
X110506933Y-130860800D01*
X110236000Y-131131733D02*
X110236000Y-130589866D01*
X142731066Y-133146800D02*
X143272933Y-133146800D01*
X143002000Y-133417733D02*
X143002000Y-132875866D01*
X165303200Y-129099733D02*
X165235466Y-129065866D01*
X165201600Y-129032000D01*
X165167733Y-128964266D01*
X165167733Y-128761066D01*
X165201600Y-128693333D01*
X165235466Y-128659466D01*
X165303200Y-128625600D01*
X165404800Y-128625600D01*
X165472533Y-128659466D01*
X165506400Y-128693333D01*
X165540266Y-128761066D01*
X165540266Y-128964266D01*
X165506400Y-129032000D01*
X165472533Y-129065866D01*
X165404800Y-129099733D01*
X165303200Y-129099733D01*
X151841200Y-125797733D02*
X151773466Y-125763866D01*
X151739600Y-125730000D01*
X151705733Y-125662266D01*
X151705733Y-125459066D01*
X151739600Y-125391333D01*
X151773466Y-125357466D01*
X151841200Y-125323600D01*
X151942800Y-125323600D01*
X152010533Y-125357466D01*
X152044400Y-125391333D01*
X152078266Y-125459066D01*
X152078266Y-125662266D01*
X152044400Y-125730000D01*
X152010533Y-125763866D01*
X151942800Y-125797733D01*
X151841200Y-125797733D01*
X152494817Y-130628813D02*
X152734291Y-130389340D01*
X152590606Y-130820392D02*
X152255344Y-130149866D01*
X152925869Y-130485129D01*
X152518764Y-129886446D02*
X152806133Y-129599077D01*
X153165343Y-130245656D02*
X152662448Y-129742762D01*
X153476658Y-129934340D02*
X153141395Y-129599077D01*
X153189290Y-129646972D02*
X153189290Y-129599077D01*
X153213237Y-129527235D01*
X153285080Y-129455393D01*
X153356922Y-129431446D01*
X153428764Y-129455393D01*
X153692184Y-129718814D01*
X153428764Y-129455393D02*
X153404816Y-129383551D01*
X153428764Y-129311709D01*
X153500606Y-129239867D01*
X153572448Y-129215920D01*
X153644290Y-129239867D01*
X153907711Y-129503288D01*
X154314816Y-129048288D02*
X154290868Y-129120130D01*
X154195079Y-129215920D01*
X154123237Y-129239867D01*
X154051395Y-129215920D01*
X153859816Y-129024341D01*
X153835869Y-128952499D01*
X153859816Y-128880657D01*
X153955605Y-128784868D01*
X154027447Y-128760920D01*
X154099289Y-128784868D01*
X154147184Y-128832762D01*
X153955605Y-129120130D01*
X154458500Y-128281973D02*
X154865605Y-128689078D01*
X154889552Y-128760920D01*
X154889552Y-128808815D01*
X154865605Y-128880657D01*
X154793763Y-128952499D01*
X154721921Y-128976446D01*
X154769815Y-128593289D02*
X154745868Y-128665131D01*
X154650078Y-128760920D01*
X154578236Y-128784868D01*
X154530342Y-128784868D01*
X154458500Y-128760920D01*
X154314816Y-128617236D01*
X154290868Y-128545394D01*
X154290868Y-128497499D01*
X154314816Y-128425657D01*
X154410605Y-128329868D01*
X154482447Y-128305921D01*
X155248762Y-128162236D02*
X154985341Y-127898816D01*
X154913499Y-127874868D01*
X154841657Y-127898816D01*
X154745868Y-127994605D01*
X154721921Y-128066447D01*
X155224815Y-128138289D02*
X155200868Y-128210131D01*
X155081131Y-128329868D01*
X155009289Y-128353815D01*
X154937447Y-128329868D01*
X154889552Y-128281973D01*
X154865605Y-128210131D01*
X154889552Y-128138289D01*
X155009289Y-128018552D01*
X155033236Y-127946710D01*
X155368499Y-127371974D02*
X155703762Y-127707237D01*
X155057183Y-127300132D02*
X155296657Y-127779079D01*
X155607972Y-127467763D01*
X155751657Y-127084606D02*
X155679815Y-127108553D01*
X155631920Y-127108553D01*
X155560078Y-127084606D01*
X155536130Y-127060658D01*
X155512183Y-126988816D01*
X155512183Y-126940922D01*
X155536130Y-126869080D01*
X155631920Y-126773290D01*
X155703762Y-126749343D01*
X155751657Y-126749343D01*
X155823499Y-126773290D01*
X155847446Y-126797237D01*
X155871393Y-126869080D01*
X155871393Y-126916974D01*
X155847446Y-126988816D01*
X155751657Y-127084606D01*
X155727709Y-127156448D01*
X155727709Y-127204342D01*
X155751657Y-127276184D01*
X155847446Y-127371974D01*
X155919288Y-127395921D01*
X155967183Y-127395921D01*
X156039025Y-127371974D01*
X156134814Y-127276184D01*
X156158762Y-127204342D01*
X156158762Y-127156448D01*
X156134814Y-127084606D01*
X156039025Y-126988816D01*
X155967183Y-126964869D01*
X155919288Y-126964869D01*
X155847446Y-126988816D01*
X156039025Y-126366185D02*
X156086919Y-126318291D01*
X156158762Y-126294343D01*
X156206656Y-126294343D01*
X156278498Y-126318291D01*
X156398235Y-126390133D01*
X156517972Y-126509869D01*
X156589814Y-126629606D01*
X156613761Y-126701448D01*
X156613761Y-126749343D01*
X156589814Y-126821185D01*
X156541919Y-126869080D01*
X156470077Y-126893027D01*
X156422182Y-126893027D01*
X156350340Y-126869080D01*
X156230604Y-126797237D01*
X156110867Y-126677501D01*
X156039025Y-126557764D01*
X156015077Y-126485922D01*
X156015077Y-126438027D01*
X156039025Y-126366185D01*
X156709551Y-126126712D02*
X156637708Y-126150659D01*
X156589814Y-126150659D01*
X156517972Y-126126712D01*
X156494024Y-126102764D01*
X156470077Y-126030922D01*
X156470077Y-125983028D01*
X156494024Y-125911186D01*
X156589814Y-125815396D01*
X156661656Y-125791449D01*
X156709551Y-125791449D01*
X156781393Y-125815396D01*
X156805340Y-125839344D01*
X156829287Y-125911186D01*
X156829287Y-125959080D01*
X156805340Y-126030922D01*
X156709551Y-126126712D01*
X156685603Y-126198554D01*
X156685603Y-126246448D01*
X156709551Y-126318291D01*
X156805340Y-126414080D01*
X156877182Y-126438027D01*
X156925077Y-126438027D01*
X156996919Y-126414080D01*
X157092708Y-126318291D01*
X157116655Y-126246448D01*
X157116655Y-126198554D01*
X157092708Y-126126712D01*
X156996919Y-126030922D01*
X156925077Y-126006975D01*
X156877182Y-126006975D01*
X156805340Y-126030922D01*
X200439866Y-123782666D02*
X200473733Y-123681066D01*
X200473733Y-123511733D01*
X200439866Y-123444000D01*
X200406000Y-123410133D01*
X200338266Y-123376266D01*
X200270533Y-123376266D01*
X200202800Y-123410133D01*
X200168933Y-123444000D01*
X200135066Y-123511733D01*
X200101200Y-123647200D01*
X200067333Y-123714933D01*
X200033466Y-123748800D01*
X199965733Y-123782666D01*
X199898000Y-123782666D01*
X199830266Y-123748800D01*
X199796400Y-123714933D01*
X199762533Y-123647200D01*
X199762533Y-123477866D01*
X199796400Y-123376266D01*
X200406000Y-122665066D02*
X200439866Y-122698933D01*
X200473733Y-122800533D01*
X200473733Y-122868266D01*
X200439866Y-122969866D01*
X200372133Y-123037600D01*
X200304400Y-123071466D01*
X200168933Y-123105333D01*
X200067333Y-123105333D01*
X199931866Y-123071466D01*
X199864133Y-123037600D01*
X199796400Y-122969866D01*
X199762533Y-122868266D01*
X199762533Y-122800533D01*
X199796400Y-122698933D01*
X199830266Y-122665066D01*
X200473733Y-122021600D02*
X200473733Y-122360266D01*
X199762533Y-122360266D01*
X198661866Y-123799600D02*
X198695733Y-123698000D01*
X198695733Y-123528666D01*
X198661866Y-123460933D01*
X198628000Y-123427066D01*
X198560266Y-123393200D01*
X198492533Y-123393200D01*
X198424800Y-123427066D01*
X198390933Y-123460933D01*
X198357066Y-123528666D01*
X198323200Y-123664133D01*
X198289333Y-123731866D01*
X198255466Y-123765733D01*
X198187733Y-123799600D01*
X198120000Y-123799600D01*
X198052266Y-123765733D01*
X198018400Y-123731866D01*
X197984533Y-123664133D01*
X197984533Y-123494800D01*
X198018400Y-123393200D01*
X198695733Y-123088400D02*
X197984533Y-123088400D01*
X197984533Y-122919066D01*
X198018400Y-122817466D01*
X198086133Y-122749733D01*
X198153866Y-122715866D01*
X198289333Y-122682000D01*
X198390933Y-122682000D01*
X198526400Y-122715866D01*
X198594133Y-122749733D01*
X198661866Y-122817466D01*
X198695733Y-122919066D01*
X198695733Y-123088400D01*
X198492533Y-122411066D02*
X198492533Y-122072400D01*
X198695733Y-122478800D02*
X197984533Y-122241733D01*
X198695733Y-122004666D01*
X195952533Y-123884266D02*
X196663733Y-123647200D01*
X195952533Y-123410133D01*
X196663733Y-123173066D02*
X195952533Y-123173066D01*
X195952533Y-123003733D01*
X195986400Y-122902133D01*
X196054133Y-122834400D01*
X196121866Y-122800533D01*
X196257333Y-122766666D01*
X196358933Y-122766666D01*
X196494400Y-122800533D01*
X196562133Y-122834400D01*
X196629866Y-122902133D01*
X196663733Y-123003733D01*
X196663733Y-123173066D01*
X196663733Y-122461866D02*
X195952533Y-122461866D01*
X195952533Y-122292533D01*
X195986400Y-122190933D01*
X196054133Y-122123200D01*
X196121866Y-122089333D01*
X196257333Y-122055466D01*
X196358933Y-122055466D01*
X196494400Y-122089333D01*
X196562133Y-122123200D01*
X196629866Y-122190933D01*
X196663733Y-122292533D01*
X196663733Y-122461866D01*
X193954400Y-123477866D02*
X193920533Y-123545600D01*
X193920533Y-123647200D01*
X193954400Y-123748800D01*
X194022133Y-123816533D01*
X194089866Y-123850400D01*
X194225333Y-123884266D01*
X194326933Y-123884266D01*
X194462400Y-123850400D01*
X194530133Y-123816533D01*
X194597866Y-123748800D01*
X194631733Y-123647200D01*
X194631733Y-123579466D01*
X194597866Y-123477866D01*
X194564000Y-123444000D01*
X194326933Y-123444000D01*
X194326933Y-123579466D01*
X194631733Y-123139200D02*
X193920533Y-123139200D01*
X194631733Y-122732800D01*
X193920533Y-122732800D01*
X194631733Y-122394133D02*
X193920533Y-122394133D01*
X193920533Y-122224800D01*
X193954400Y-122123200D01*
X194022133Y-122055466D01*
X194089866Y-122021600D01*
X194225333Y-121987733D01*
X194326933Y-121987733D01*
X194462400Y-122021600D01*
X194530133Y-122055466D01*
X194597866Y-122123200D01*
X194631733Y-122224800D01*
X194631733Y-122394133D01*
X200693866Y-138142133D02*
X200727733Y-138040533D01*
X200727733Y-137871200D01*
X200693866Y-137803466D01*
X200660000Y-137769600D01*
X200592266Y-137735733D01*
X200524533Y-137735733D01*
X200456800Y-137769600D01*
X200422933Y-137803466D01*
X200389066Y-137871200D01*
X200355200Y-138006666D01*
X200321333Y-138074400D01*
X200287466Y-138108266D01*
X200219733Y-138142133D01*
X200152000Y-138142133D01*
X200084266Y-138108266D01*
X200050400Y-138074400D01*
X200016533Y-138006666D01*
X200016533Y-137837333D01*
X200050400Y-137735733D01*
X200727733Y-137092266D02*
X200727733Y-137430933D01*
X200016533Y-137430933D01*
X200355200Y-136855200D02*
X200355200Y-136618133D01*
X200727733Y-136516533D02*
X200727733Y-136855200D01*
X200016533Y-136855200D01*
X200016533Y-136516533D01*
X200355200Y-136211733D02*
X200355200Y-135974666D01*
X200727733Y-135873066D02*
X200727733Y-136211733D01*
X200016533Y-136211733D01*
X200016533Y-135873066D01*
X200727733Y-135568266D02*
X200016533Y-135568266D01*
X200016533Y-135297333D01*
X200050400Y-135229600D01*
X200084266Y-135195733D01*
X200152000Y-135161866D01*
X200253600Y-135161866D01*
X200321333Y-135195733D01*
X200355200Y-135229600D01*
X200389066Y-135297333D01*
X200389066Y-135568266D01*
X197984533Y-137871200D02*
X197984533Y-137735733D01*
X198018400Y-137668000D01*
X198086133Y-137600266D01*
X198221600Y-137566400D01*
X198458666Y-137566400D01*
X198594133Y-137600266D01*
X198661866Y-137668000D01*
X198695733Y-137735733D01*
X198695733Y-137871200D01*
X198661866Y-137938933D01*
X198594133Y-138006666D01*
X198458666Y-138040533D01*
X198221600Y-138040533D01*
X198086133Y-138006666D01*
X198018400Y-137938933D01*
X197984533Y-137871200D01*
X197984533Y-137261600D02*
X198560266Y-137261600D01*
X198628000Y-137227733D01*
X198661866Y-137193866D01*
X198695733Y-137126133D01*
X198695733Y-136990666D01*
X198661866Y-136922933D01*
X198628000Y-136889066D01*
X198560266Y-136855200D01*
X197984533Y-136855200D01*
X197984533Y-136618133D02*
X197984533Y-136211733D01*
X198695733Y-136414933D02*
X197984533Y-136414933D01*
X195952533Y-138108266D02*
X196663733Y-137871200D01*
X195952533Y-137634133D01*
X196663733Y-137397066D02*
X195952533Y-137397066D01*
X195952533Y-137227733D01*
X195986400Y-137126133D01*
X196054133Y-137058400D01*
X196121866Y-137024533D01*
X196257333Y-136990666D01*
X196358933Y-136990666D01*
X196494400Y-137024533D01*
X196562133Y-137058400D01*
X196629866Y-137126133D01*
X196663733Y-137227733D01*
X196663733Y-137397066D01*
X196663733Y-136685866D02*
X195952533Y-136685866D01*
X195952533Y-136516533D01*
X195986400Y-136414933D01*
X196054133Y-136347200D01*
X196121866Y-136313333D01*
X196257333Y-136279466D01*
X196358933Y-136279466D01*
X196494400Y-136313333D01*
X196562133Y-136347200D01*
X196629866Y-136414933D01*
X196663733Y-136516533D01*
X196663733Y-136685866D01*
X193954400Y-137701866D02*
X193920533Y-137769600D01*
X193920533Y-137871200D01*
X193954400Y-137972800D01*
X194022133Y-138040533D01*
X194089866Y-138074400D01*
X194225333Y-138108266D01*
X194326933Y-138108266D01*
X194462400Y-138074400D01*
X194530133Y-138040533D01*
X194597866Y-137972800D01*
X194631733Y-137871200D01*
X194631733Y-137803466D01*
X194597866Y-137701866D01*
X194564000Y-137668000D01*
X194326933Y-137668000D01*
X194326933Y-137803466D01*
X194631733Y-137363200D02*
X193920533Y-137363200D01*
X194631733Y-136956800D01*
X193920533Y-136956800D01*
X194631733Y-136618133D02*
X193920533Y-136618133D01*
X193920533Y-136448800D01*
X193954400Y-136347200D01*
X194022133Y-136279466D01*
X194089866Y-136245600D01*
X194225333Y-136211733D01*
X194326933Y-136211733D01*
X194462400Y-136245600D01*
X194530133Y-136279466D01*
X194597866Y-136347200D01*
X194631733Y-136448800D01*
X194631733Y-136618133D01*
X184370133Y-134518400D02*
X184302400Y-134484533D01*
X184200800Y-134484533D01*
X184099200Y-134518400D01*
X184031466Y-134586133D01*
X183997600Y-134653866D01*
X183963733Y-134789333D01*
X183963733Y-134890933D01*
X183997600Y-135026400D01*
X184031466Y-135094133D01*
X184099200Y-135161866D01*
X184200800Y-135195733D01*
X184268533Y-135195733D01*
X184370133Y-135161866D01*
X184404000Y-135128000D01*
X184404000Y-134890933D01*
X184268533Y-134890933D01*
X184708800Y-135195733D02*
X184708800Y-134484533D01*
X185115200Y-135195733D01*
X185115200Y-134484533D01*
X185453866Y-135195733D02*
X185453866Y-134484533D01*
X185623200Y-134484533D01*
X185724800Y-134518400D01*
X185792533Y-134586133D01*
X185826400Y-134653866D01*
X185860266Y-134789333D01*
X185860266Y-134890933D01*
X185826400Y-135026400D01*
X185792533Y-135094133D01*
X185724800Y-135161866D01*
X185623200Y-135195733D01*
X185453866Y-135195733D01*
X181542266Y-135195733D02*
X181542266Y-134484533D01*
X181813200Y-134484533D01*
X181880933Y-134518400D01*
X181914800Y-134552266D01*
X181948666Y-134620000D01*
X181948666Y-134721600D01*
X181914800Y-134789333D01*
X181880933Y-134823200D01*
X181813200Y-134857066D01*
X181542266Y-134857066D01*
X182490533Y-134823200D02*
X182253466Y-134823200D01*
X182253466Y-135195733D02*
X182253466Y-134484533D01*
X182592133Y-134484533D01*
X182795333Y-134484533D02*
X183235600Y-134484533D01*
X182998533Y-134755466D01*
X183100133Y-134755466D01*
X183167866Y-134789333D01*
X183201733Y-134823200D01*
X183235600Y-134890933D01*
X183235600Y-135060266D01*
X183201733Y-135128000D01*
X183167866Y-135161866D01*
X183100133Y-135195733D01*
X182896933Y-135195733D01*
X182829200Y-135161866D01*
X182795333Y-135128000D01*
X179002266Y-135195733D02*
X179002266Y-134484533D01*
X179273200Y-134484533D01*
X179340933Y-134518400D01*
X179374800Y-134552266D01*
X179408666Y-134620000D01*
X179408666Y-134721600D01*
X179374800Y-134789333D01*
X179340933Y-134823200D01*
X179273200Y-134857066D01*
X179002266Y-134857066D01*
X179950533Y-134823200D02*
X179713466Y-134823200D01*
X179713466Y-135195733D02*
X179713466Y-134484533D01*
X180052133Y-134484533D01*
X180289200Y-134552266D02*
X180323066Y-134518400D01*
X180390800Y-134484533D01*
X180560133Y-134484533D01*
X180627866Y-134518400D01*
X180661733Y-134552266D01*
X180695600Y-134620000D01*
X180695600Y-134687733D01*
X180661733Y-134789333D01*
X180255333Y-135195733D01*
X180695600Y-135195733D01*
X176140533Y-134992533D02*
X176479200Y-134992533D01*
X176072800Y-135195733D02*
X176309866Y-134484533D01*
X176546933Y-135195733D01*
X177190400Y-135195733D02*
X176953333Y-134857066D01*
X176784000Y-135195733D02*
X176784000Y-134484533D01*
X177054933Y-134484533D01*
X177122666Y-134518400D01*
X177156533Y-134552266D01*
X177190400Y-134620000D01*
X177190400Y-134721600D01*
X177156533Y-134789333D01*
X177122666Y-134823200D01*
X177054933Y-134857066D01*
X176784000Y-134857066D01*
X177495200Y-134823200D02*
X177732266Y-134823200D01*
X177833866Y-135195733D02*
X177495200Y-135195733D01*
X177495200Y-134484533D01*
X177833866Y-134484533D01*
X178375733Y-134823200D02*
X178138666Y-134823200D01*
X178138666Y-135195733D02*
X178138666Y-134484533D01*
X178477333Y-134484533D01*
X173871466Y-135195733D02*
X173871466Y-134484533D01*
X174142400Y-134484533D01*
X174210133Y-134518400D01*
X174244000Y-134552266D01*
X174277866Y-134620000D01*
X174277866Y-134721600D01*
X174244000Y-134789333D01*
X174210133Y-134823200D01*
X174142400Y-134857066D01*
X173871466Y-134857066D01*
X174582666Y-135195733D02*
X174582666Y-134484533D01*
X174752000Y-134484533D01*
X174853600Y-134518400D01*
X174921333Y-134586133D01*
X174955200Y-134653866D01*
X174989066Y-134789333D01*
X174989066Y-134890933D01*
X174955200Y-135026400D01*
X174921333Y-135094133D01*
X174853600Y-135161866D01*
X174752000Y-135195733D01*
X174582666Y-135195733D01*
X175632533Y-134484533D02*
X175293866Y-134484533D01*
X175260000Y-134823200D01*
X175293866Y-134789333D01*
X175361600Y-134755466D01*
X175530933Y-134755466D01*
X175598666Y-134789333D01*
X175632533Y-134823200D01*
X175666400Y-134890933D01*
X175666400Y-135060266D01*
X175632533Y-135128000D01*
X175598666Y-135161866D01*
X175530933Y-135195733D01*
X175361600Y-135195733D01*
X175293866Y-135161866D01*
X175260000Y-135128000D01*
X171331466Y-135195733D02*
X171331466Y-134484533D01*
X171602400Y-134484533D01*
X171670133Y-134518400D01*
X171704000Y-134552266D01*
X171737866Y-134620000D01*
X171737866Y-134721600D01*
X171704000Y-134789333D01*
X171670133Y-134823200D01*
X171602400Y-134857066D01*
X171331466Y-134857066D01*
X172042666Y-135195733D02*
X172042666Y-134484533D01*
X172212000Y-134484533D01*
X172313600Y-134518400D01*
X172381333Y-134586133D01*
X172415200Y-134653866D01*
X172449066Y-134789333D01*
X172449066Y-134890933D01*
X172415200Y-135026400D01*
X172381333Y-135094133D01*
X172313600Y-135161866D01*
X172212000Y-135195733D01*
X172042666Y-135195733D01*
X173058666Y-134721600D02*
X173058666Y-135195733D01*
X172889333Y-134450666D02*
X172720000Y-134958666D01*
X173160266Y-134958666D01*
X174972133Y-131724400D02*
X174938266Y-131826000D01*
X174938266Y-131995333D01*
X174972133Y-132063066D01*
X175006000Y-132096933D01*
X175073733Y-132130800D01*
X175141466Y-132130800D01*
X175209200Y-132096933D01*
X175243066Y-132063066D01*
X175276933Y-131995333D01*
X175310800Y-131859866D01*
X175344666Y-131792133D01*
X175378533Y-131758266D01*
X175446266Y-131724400D01*
X175514000Y-131724400D01*
X175581733Y-131758266D01*
X175615600Y-131792133D01*
X175649466Y-131859866D01*
X175649466Y-132029200D01*
X175615600Y-132130800D01*
X174938266Y-132435600D02*
X175649466Y-132435600D01*
X175649466Y-132604933D01*
X175615600Y-132706533D01*
X175547866Y-132774266D01*
X175480133Y-132808133D01*
X175344666Y-132842000D01*
X175243066Y-132842000D01*
X175107600Y-132808133D01*
X175039866Y-132774266D01*
X174972133Y-132706533D01*
X174938266Y-132604933D01*
X174938266Y-132435600D01*
X175141466Y-133112933D02*
X175141466Y-133451600D01*
X174938266Y-133045200D02*
X175649466Y-133282266D01*
X174938266Y-133519333D01*
X174972133Y-129201333D02*
X174938266Y-129302933D01*
X174938266Y-129472266D01*
X174972133Y-129540000D01*
X175006000Y-129573866D01*
X175073733Y-129607733D01*
X175141466Y-129607733D01*
X175209200Y-129573866D01*
X175243066Y-129540000D01*
X175276933Y-129472266D01*
X175310800Y-129336800D01*
X175344666Y-129269066D01*
X175378533Y-129235200D01*
X175446266Y-129201333D01*
X175514000Y-129201333D01*
X175581733Y-129235200D01*
X175615600Y-129269066D01*
X175649466Y-129336800D01*
X175649466Y-129506133D01*
X175615600Y-129607733D01*
X175006000Y-130318933D02*
X174972133Y-130285066D01*
X174938266Y-130183466D01*
X174938266Y-130115733D01*
X174972133Y-130014133D01*
X175039866Y-129946400D01*
X175107600Y-129912533D01*
X175243066Y-129878666D01*
X175344666Y-129878666D01*
X175480133Y-129912533D01*
X175547866Y-129946400D01*
X175615600Y-130014133D01*
X175649466Y-130115733D01*
X175649466Y-130183466D01*
X175615600Y-130285066D01*
X175581733Y-130318933D01*
X174938266Y-130962400D02*
X174938266Y-130623733D01*
X175649466Y-130623733D01*
X175649466Y-126204133D02*
X174938266Y-126441200D01*
X175649466Y-126678266D01*
X175310800Y-127152400D02*
X175276933Y-127254000D01*
X175243066Y-127287866D01*
X175175333Y-127321733D01*
X175073733Y-127321733D01*
X175006000Y-127287866D01*
X174972133Y-127254000D01*
X174938266Y-127186266D01*
X174938266Y-126915333D01*
X175649466Y-126915333D01*
X175649466Y-127152400D01*
X175615600Y-127220133D01*
X175581733Y-127254000D01*
X175514000Y-127287866D01*
X175446266Y-127287866D01*
X175378533Y-127254000D01*
X175344666Y-127220133D01*
X175310800Y-127152400D01*
X175310800Y-126915333D01*
X175649466Y-127626533D02*
X175073733Y-127626533D01*
X175006000Y-127660400D01*
X174972133Y-127694266D01*
X174938266Y-127762000D01*
X174938266Y-127897466D01*
X174972133Y-127965200D01*
X175006000Y-127999066D01*
X175073733Y-128032933D01*
X175649466Y-128032933D01*
X174972133Y-128337733D02*
X174938266Y-128439333D01*
X174938266Y-128608666D01*
X174972133Y-128676400D01*
X175006000Y-128710266D01*
X175073733Y-128744133D01*
X175141466Y-128744133D01*
X175209200Y-128710266D01*
X175243066Y-128676400D01*
X175276933Y-128608666D01*
X175310800Y-128473200D01*
X175344666Y-128405466D01*
X175378533Y-128371600D01*
X175446266Y-128337733D01*
X175514000Y-128337733D01*
X175581733Y-128371600D01*
X175615600Y-128405466D01*
X175649466Y-128473200D01*
X175649466Y-128642533D01*
X175615600Y-128744133D01*
X175641000Y-124133428D02*
X175677285Y-124060857D01*
X175677285Y-123952000D01*
X175641000Y-123843142D01*
X175568428Y-123770571D01*
X175495857Y-123734285D01*
X175350714Y-123698000D01*
X175241857Y-123698000D01*
X175096714Y-123734285D01*
X175024142Y-123770571D01*
X174951571Y-123843142D01*
X174915285Y-123952000D01*
X174915285Y-124024571D01*
X174951571Y-124133428D01*
X174987857Y-124169714D01*
X175241857Y-124169714D01*
X175241857Y-124024571D01*
X174915285Y-124496285D02*
X175677285Y-124496285D01*
X174915285Y-124931714D01*
X175677285Y-124931714D01*
X174915285Y-125294571D02*
X175677285Y-125294571D01*
X175677285Y-125476000D01*
X175641000Y-125584857D01*
X175568428Y-125657428D01*
X175495857Y-125693714D01*
X175350714Y-125730000D01*
X175241857Y-125730000D01*
X175096714Y-125693714D01*
X175024142Y-125657428D01*
X174951571Y-125584857D01*
X174915285Y-125476000D01*
X174915285Y-125294571D01*
D11*
%TO.C,J1*%
X110550000Y-125162000D02*
X110550000Y-126492000D01*
X109220000Y-125162000D02*
X110550000Y-125162000D01*
X107950000Y-125162000D02*
X107950000Y-127822000D01*
X107950000Y-127822000D02*
X105350000Y-127822000D01*
X107950000Y-125162000D02*
X105350000Y-125162000D01*
X105350000Y-125162000D02*
X105350000Y-127822000D01*
%TO.C,R17*%
X190514500Y-126508742D02*
X190514500Y-126983258D01*
X189469500Y-126508742D02*
X189469500Y-126983258D01*
%TO.C,R16*%
X189469500Y-123490258D02*
X189469500Y-123015742D01*
X190514500Y-123490258D02*
X190514500Y-123015742D01*
%TO.C,U4*%
X117600000Y-137470000D02*
X117600000Y-136540000D01*
X117600000Y-134310000D02*
X117600000Y-135240000D01*
X117600000Y-134310000D02*
X115440000Y-134310000D01*
X117600000Y-137470000D02*
X116140000Y-137470000D01*
%TO.C,U3*%
X184944000Y-128676000D02*
X186744000Y-128676000D01*
X186744000Y-125456000D02*
X184294000Y-125456000D01*
D12*
%TO.C,U2*%
X151247000Y-124867000D02*
X151247000Y-125092000D01*
X158497000Y-124867000D02*
X158497000Y-125192000D01*
X158497000Y-132117000D02*
X158497000Y-131792000D01*
X151247000Y-132117000D02*
X151247000Y-131792000D01*
X151247000Y-124867000D02*
X151572000Y-124867000D01*
X151247000Y-132117000D02*
X151572000Y-132117000D01*
X158497000Y-132117000D02*
X158172000Y-132117000D01*
X158497000Y-124867000D02*
X158172000Y-124867000D01*
X151247000Y-125092000D02*
X149822000Y-125092000D01*
D11*
%TO.C,U1*%
X169996000Y-127322500D02*
X169996000Y-125122500D01*
X169996000Y-127322500D02*
X169996000Y-129522500D01*
X164776000Y-127322500D02*
X164776000Y-125122500D01*
X164776000Y-127322500D02*
X164776000Y-130922500D01*
%TO.C,SW2*%
X143098000Y-137452000D02*
X143098000Y-137952000D01*
X143098000Y-137952000D02*
X155098000Y-137952000D01*
X155098000Y-137952000D02*
X155098000Y-137452000D01*
X155098000Y-135852000D02*
X155098000Y-135352000D01*
X155098000Y-135352000D02*
X143098000Y-135352000D01*
X143098000Y-135352000D02*
X143098000Y-135852000D01*
D10*
%TO.C,RESET*%
X114013500Y-121656000D02*
X117838500Y-121656000D01*
X113376000Y-123249750D02*
X113376000Y-125162250D01*
X118476000Y-123249750D02*
X118476000Y-125162250D01*
X114013500Y-126756000D02*
X117838500Y-126756000D01*
X117326000Y-124206000D02*
G75*
G03*
X117326000Y-124206000I-1400000J0D01*
G01*
D11*
%TO.C,R15*%
X169686500Y-136160742D02*
X169686500Y-136635258D01*
X168641500Y-136160742D02*
X168641500Y-136635258D01*
%TO.C,R14*%
X187466500Y-130127742D02*
X187466500Y-130602258D01*
X186421500Y-130127742D02*
X186421500Y-130602258D01*
%TO.C,R13*%
X112507500Y-128952258D02*
X112507500Y-128477742D01*
X113552500Y-128952258D02*
X113552500Y-128477742D01*
%TO.C,R12*%
X120127500Y-132317258D02*
X120127500Y-131842742D01*
X121172500Y-132317258D02*
X121172500Y-131842742D01*
%TO.C,R11*%
X112507500Y-132317258D02*
X112507500Y-131842742D01*
X113552500Y-132317258D02*
X113552500Y-131842742D01*
%TO.C,R10*%
X120127500Y-136127258D02*
X120127500Y-135652742D01*
X121172500Y-136127258D02*
X121172500Y-135652742D01*
%TO.C,R9*%
X112507500Y-136127258D02*
X112507500Y-135652742D01*
X113552500Y-136127258D02*
X113552500Y-135652742D01*
%TO.C,R8*%
X141906258Y-123458500D02*
X141431742Y-123458500D01*
X141906258Y-122413500D02*
X141431742Y-122413500D01*
%TO.C,R7*%
X146224258Y-132348500D02*
X145749742Y-132348500D01*
X146224258Y-131303500D02*
X145749742Y-131303500D01*
%TO.C,R6*%
X141906258Y-125744500D02*
X141431742Y-125744500D01*
X141906258Y-124699500D02*
X141431742Y-124699500D01*
%TO.C,R5*%
X177499742Y-130287500D02*
X177974258Y-130287500D01*
X177499742Y-131332500D02*
X177974258Y-131332500D01*
%TO.C,R4*%
X177499742Y-126477500D02*
X177974258Y-126477500D01*
X177499742Y-127522500D02*
X177974258Y-127522500D01*
%TO.C,R3*%
X141377514Y-127490220D02*
X141852030Y-127490220D01*
X141377514Y-128535220D02*
X141852030Y-128535220D01*
%TO.C,R2*%
X108982742Y-122667500D02*
X109457258Y-122667500D01*
X108982742Y-123712500D02*
X109457258Y-123712500D01*
%TO.C,R1*%
X166323742Y-121651500D02*
X166798258Y-121651500D01*
X166323742Y-122696500D02*
X166798258Y-122696500D01*
%TO.C,Q3*%
X117600000Y-132390000D02*
X117600000Y-131460000D01*
X117600000Y-129230000D02*
X117600000Y-130160000D01*
X117600000Y-129230000D02*
X115440000Y-129230000D01*
X117600000Y-132390000D02*
X116140000Y-132390000D01*
%TO.C,Q2*%
X180358000Y-129230000D02*
X180358000Y-130160000D01*
X180358000Y-132390000D02*
X180358000Y-131460000D01*
X180358000Y-132390000D02*
X182518000Y-132390000D01*
X180358000Y-129230000D02*
X181818000Y-129230000D01*
%TO.C,Q1*%
X180358000Y-125420000D02*
X180358000Y-126350000D01*
X180358000Y-128580000D02*
X180358000Y-127650000D01*
X180358000Y-128580000D02*
X182518000Y-128580000D01*
X180358000Y-125420000D02*
X181818000Y-125420000D01*
%TO.C,PROGRAM_HEADER1*%
X147193000Y-126873000D02*
X146558000Y-126873000D01*
X147193000Y-126238000D02*
X147193000Y-126873000D01*
%TO.C,PRIMARY_BATTERY1*%
X109760000Y-128750000D02*
X105040000Y-128750000D01*
X105040000Y-128750000D02*
X105040000Y-134870000D01*
X105040000Y-134870000D02*
X109760000Y-134870000D01*
X109760000Y-134870000D02*
X109760000Y-128750000D01*
X109760000Y-130510000D02*
X109960000Y-130510000D01*
X109960000Y-130510000D02*
X109960000Y-130210000D01*
X109960000Y-130210000D02*
X109760000Y-130210000D01*
X109860000Y-130510000D02*
X109860000Y-130210000D01*
X109760000Y-131310000D02*
X109150000Y-131310000D01*
X109150000Y-131310000D02*
X109150000Y-129360000D01*
X109150000Y-129360000D02*
X105650000Y-129360000D01*
X105650000Y-129360000D02*
X105650000Y-134260000D01*
X105650000Y-134260000D02*
X109150000Y-134260000D01*
X109150000Y-134260000D02*
X109150000Y-132310000D01*
X109150000Y-132310000D02*
X109760000Y-132310000D01*
X108450000Y-128750000D02*
X108450000Y-129360000D01*
X107150000Y-128750000D02*
X107150000Y-129360000D01*
X108450000Y-134870000D02*
X108450000Y-134260000D01*
X107150000Y-134870000D02*
X107150000Y-134260000D01*
X105650000Y-131710000D02*
X106150000Y-131710000D01*
X106150000Y-131710000D02*
X106150000Y-131910000D01*
X106150000Y-131910000D02*
X105650000Y-131910000D01*
X105650000Y-131810000D02*
X106150000Y-131810000D01*
X110060000Y-129700000D02*
X110060000Y-128450000D01*
X110060000Y-128450000D02*
X108810000Y-128450000D01*
%TO.C,OLED1*%
X172152000Y-133918000D02*
X174812000Y-133918000D01*
X172152000Y-126238000D02*
X172152000Y-133918000D01*
X174812000Y-126238000D02*
X174812000Y-133918000D01*
X172152000Y-126238000D02*
X174812000Y-126238000D01*
X172152000Y-124968000D02*
X172152000Y-123638000D01*
X172152000Y-123638000D02*
X173482000Y-123638000D01*
D10*
%TO.C,microSD*%
X124322000Y-123502000D02*
X124322000Y-137102000D01*
X138822000Y-123502000D02*
X138822000Y-137102000D01*
X138772000Y-123502000D02*
X136372000Y-123502000D01*
X138772000Y-137102000D02*
X136372000Y-137102000D01*
X124372000Y-124302000D02*
X125072000Y-124302000D01*
X124372000Y-136302000D02*
X125072000Y-136302000D01*
X125072000Y-124302000D02*
X126072000Y-126002000D01*
X126072000Y-126002000D02*
X126672000Y-128402000D01*
X126672000Y-128402000D02*
X126672000Y-131902000D01*
X126672000Y-131902000D02*
X126072000Y-134502000D01*
X126072000Y-134502000D02*
X125072000Y-136302000D01*
X136372000Y-123502000D02*
X136372000Y-137102000D01*
D11*
%TO.C,J7*%
X178543000Y-136652000D02*
G75*
G03*
X178543000Y-136652000I-1251000J0D01*
G01*
%TO.C,J6*%
X167446000Y-137982000D02*
X167446000Y-135322000D01*
X162306000Y-137982000D02*
X167446000Y-137982000D01*
X162306000Y-135322000D02*
X167446000Y-135322000D01*
X162306000Y-137982000D02*
X162306000Y-135322000D01*
X161036000Y-137982000D02*
X159706000Y-137982000D01*
X159706000Y-137982000D02*
X159706000Y-136652000D01*
%TO.C,J5*%
X176003000Y-136652000D02*
G75*
G03*
X176003000Y-136652000I-1251000J0D01*
G01*
%TO.C,J4*%
X173463000Y-136652000D02*
G75*
G03*
X173463000Y-136652000I-1251000J0D01*
G01*
%TO.C,J3*%
X183623000Y-136652000D02*
G75*
G03*
X183623000Y-136652000I-1251000J0D01*
G01*
%TO.C,J2*%
X181083000Y-136652000D02*
G75*
G03*
X181083000Y-136652000I-1251000J0D01*
G01*
%TO.C,HEART_SENSOR1*%
X192250000Y-124174000D02*
X192250000Y-128894000D01*
X192250000Y-128894000D02*
X202370000Y-128894000D01*
X202370000Y-128894000D02*
X202370000Y-124174000D01*
X202370000Y-124174000D02*
X192250000Y-124174000D01*
X194010000Y-124174000D02*
X194010000Y-123974000D01*
X194010000Y-123974000D02*
X193710000Y-123974000D01*
X193710000Y-123974000D02*
X193710000Y-124174000D01*
X194010000Y-124074000D02*
X193710000Y-124074000D01*
X194810000Y-124174000D02*
X194810000Y-124784000D01*
X194810000Y-124784000D02*
X192860000Y-124784000D01*
X192860000Y-124784000D02*
X192860000Y-128284000D01*
X192860000Y-128284000D02*
X201760000Y-128284000D01*
X201760000Y-128284000D02*
X201760000Y-124784000D01*
X201760000Y-124784000D02*
X199810000Y-124784000D01*
X199810000Y-124784000D02*
X199810000Y-124174000D01*
X192250000Y-125484000D02*
X192860000Y-125484000D01*
X192250000Y-126784000D02*
X192860000Y-126784000D01*
X202370000Y-125484000D02*
X201760000Y-125484000D01*
X202370000Y-126784000D02*
X201760000Y-126784000D01*
X195210000Y-128284000D02*
X195210000Y-127784000D01*
X195210000Y-127784000D02*
X195410000Y-127784000D01*
X195410000Y-127784000D02*
X195410000Y-128284000D01*
X195310000Y-128284000D02*
X195310000Y-127784000D01*
X197210000Y-128284000D02*
X197210000Y-127784000D01*
X197210000Y-127784000D02*
X197410000Y-127784000D01*
X197410000Y-127784000D02*
X197410000Y-128284000D01*
X197310000Y-128284000D02*
X197310000Y-127784000D01*
X199210000Y-128284000D02*
X199210000Y-127784000D01*
X199210000Y-127784000D02*
X199410000Y-127784000D01*
X199410000Y-127784000D02*
X199410000Y-128284000D01*
X199310000Y-128284000D02*
X199310000Y-127784000D01*
X193200000Y-123874000D02*
X191950000Y-123874000D01*
X191950000Y-123874000D02*
X191950000Y-125124000D01*
%TO.C,HALL_SENSOR1*%
X192250000Y-131286000D02*
X192250000Y-136006000D01*
X192250000Y-136006000D02*
X202370000Y-136006000D01*
X202370000Y-136006000D02*
X202370000Y-131286000D01*
X202370000Y-131286000D02*
X192250000Y-131286000D01*
X194010000Y-131286000D02*
X194010000Y-131086000D01*
X194010000Y-131086000D02*
X193710000Y-131086000D01*
X193710000Y-131086000D02*
X193710000Y-131286000D01*
X194010000Y-131186000D02*
X193710000Y-131186000D01*
X194810000Y-131286000D02*
X194810000Y-131896000D01*
X194810000Y-131896000D02*
X192860000Y-131896000D01*
X192860000Y-131896000D02*
X192860000Y-135396000D01*
X192860000Y-135396000D02*
X201760000Y-135396000D01*
X201760000Y-135396000D02*
X201760000Y-131896000D01*
X201760000Y-131896000D02*
X199810000Y-131896000D01*
X199810000Y-131896000D02*
X199810000Y-131286000D01*
X192250000Y-132596000D02*
X192860000Y-132596000D01*
X192250000Y-133896000D02*
X192860000Y-133896000D01*
X202370000Y-132596000D02*
X201760000Y-132596000D01*
X202370000Y-133896000D02*
X201760000Y-133896000D01*
X195210000Y-135396000D02*
X195210000Y-134896000D01*
X195210000Y-134896000D02*
X195410000Y-134896000D01*
X195410000Y-134896000D02*
X195410000Y-135396000D01*
X195310000Y-135396000D02*
X195310000Y-134896000D01*
X197210000Y-135396000D02*
X197210000Y-134896000D01*
X197210000Y-134896000D02*
X197410000Y-134896000D01*
X197410000Y-134896000D02*
X197410000Y-135396000D01*
X197310000Y-135396000D02*
X197310000Y-134896000D01*
X199210000Y-135396000D02*
X199210000Y-134896000D01*
X199210000Y-134896000D02*
X199410000Y-134896000D01*
X199410000Y-134896000D02*
X199410000Y-135396000D01*
X199310000Y-135396000D02*
X199310000Y-134896000D01*
X193200000Y-130986000D02*
X191950000Y-130986000D01*
X191950000Y-130986000D02*
X191950000Y-132236000D01*
%TO.C,FTDI*%
X92780000Y-121980000D02*
X101410000Y-121980000D01*
X92780000Y-122098095D02*
X101410000Y-122098095D01*
X92780000Y-122216190D02*
X101410000Y-122216190D01*
X92780000Y-122334285D02*
X101410000Y-122334285D01*
X92780000Y-122452380D02*
X101410000Y-122452380D01*
X92780000Y-122570475D02*
X101410000Y-122570475D01*
X92780000Y-122688570D02*
X101410000Y-122688570D01*
X92780000Y-122806665D02*
X101410000Y-122806665D01*
X92780000Y-122924760D02*
X101410000Y-122924760D01*
X92780000Y-123042855D02*
X101410000Y-123042855D01*
X92780000Y-123160950D02*
X101410000Y-123160950D01*
X92780000Y-123279045D02*
X101410000Y-123279045D01*
X92780000Y-123397140D02*
X101410000Y-123397140D01*
X92780000Y-123515235D02*
X101410000Y-123515235D01*
X92780000Y-123633330D02*
X101410000Y-123633330D01*
X92780000Y-123751425D02*
X101410000Y-123751425D01*
X92780000Y-123869520D02*
X101410000Y-123869520D01*
X92780000Y-123987615D02*
X101410000Y-123987615D01*
X92780000Y-124105710D02*
X101410000Y-124105710D01*
X92780000Y-124223805D02*
X101410000Y-124223805D01*
X92780000Y-124341900D02*
X101410000Y-124341900D01*
X101410000Y-122830000D02*
X101760000Y-122830000D01*
X101410000Y-123550000D02*
X101760000Y-123550000D01*
X101410000Y-125370000D02*
X101820000Y-125370000D01*
X101410000Y-126090000D02*
X101820000Y-126090000D01*
X101410000Y-127910000D02*
X101820000Y-127910000D01*
X101410000Y-128630000D02*
X101820000Y-128630000D01*
X101410000Y-130450000D02*
X101820000Y-130450000D01*
X101410000Y-131170000D02*
X101820000Y-131170000D01*
X101410000Y-132990000D02*
X101820000Y-132990000D01*
X101410000Y-133710000D02*
X101820000Y-133710000D01*
X101410000Y-135530000D02*
X101820000Y-135530000D01*
X101410000Y-136250000D02*
X101820000Y-136250000D01*
X92780000Y-124460000D02*
X101410000Y-124460000D01*
X92780000Y-127000000D02*
X101410000Y-127000000D01*
X92780000Y-129540000D02*
X101410000Y-129540000D01*
X92780000Y-132080000D02*
X101410000Y-132080000D01*
X92780000Y-134620000D02*
X101410000Y-134620000D01*
X92780000Y-121860000D02*
X101410000Y-121860000D01*
X101410000Y-121860000D02*
X101410000Y-137220000D01*
X92780000Y-137220000D02*
X101410000Y-137220000D01*
X92780000Y-121860000D02*
X92780000Y-137220000D01*
X103980000Y-121860000D02*
X103980000Y-123190000D01*
X102870000Y-121860000D02*
X103980000Y-121860000D01*
%TO.C,D1*%
X146209500Y-132898000D02*
X143524500Y-132898000D01*
X143524500Y-132898000D02*
X143524500Y-134818000D01*
X143524500Y-134818000D02*
X146209500Y-134818000D01*
D10*
%TO.C,32.768kHz*%
X165308000Y-131780000D02*
X169768000Y-131780000D01*
X169768000Y-133280000D02*
X165308000Y-133280000D01*
D13*
X164488000Y-133780000D02*
G75*
G03*
X164488000Y-133780000I-100000J0D01*
G01*
D11*
%TO.C,C8*%
X151003580Y-122684000D02*
X150722420Y-122684000D01*
X151003580Y-121664000D02*
X150722420Y-121664000D01*
%TO.C,C7*%
X120648000Y-125108580D02*
X120648000Y-124827420D01*
X121668000Y-125108580D02*
X121668000Y-124827420D01*
%TO.C,C6*%
X121160000Y-128383420D02*
X121160000Y-128664580D01*
X120140000Y-128383420D02*
X120140000Y-128664580D01*
%TO.C,C5*%
X186434000Y-123825580D02*
X186434000Y-123544420D01*
X187454000Y-123825580D02*
X187454000Y-123544420D01*
%TO.C,C4*%
X162050000Y-130175580D02*
X162050000Y-129894420D01*
X163070000Y-130175580D02*
X163070000Y-129894420D01*
%TO.C,C3*%
X184148000Y-123825580D02*
X184148000Y-123544420D01*
X185168000Y-123825580D02*
X185168000Y-123544420D01*
%TO.C,C2*%
X106539420Y-136650000D02*
X106820580Y-136650000D01*
X106539420Y-137670000D02*
X106820580Y-137670000D01*
%TO.C,C1*%
X163070000Y-124052420D02*
X163070000Y-124333580D01*
X162050000Y-124052420D02*
X162050000Y-124333580D01*
%TO.C,J8*%
X186163000Y-136652000D02*
G75*
G03*
X186163000Y-136652000I-1251000J0D01*
G01*
%TO.C,J1*%
D12*
X105680933Y-124324533D02*
X105680933Y-124832533D01*
X105647066Y-124934133D01*
X105579333Y-125001866D01*
X105477733Y-125035733D01*
X105410000Y-125035733D01*
X106392133Y-125035733D02*
X105985733Y-125035733D01*
X106188933Y-125035733D02*
X106188933Y-124324533D01*
X106121200Y-124426133D01*
X106053466Y-124493866D01*
X105985733Y-124527733D01*
%TO.C,R17*%
X189297733Y-127203200D02*
X188959066Y-127440266D01*
X189297733Y-127609600D02*
X188586533Y-127609600D01*
X188586533Y-127338666D01*
X188620400Y-127270933D01*
X188654266Y-127237066D01*
X188722000Y-127203200D01*
X188823600Y-127203200D01*
X188891333Y-127237066D01*
X188925200Y-127270933D01*
X188959066Y-127338666D01*
X188959066Y-127609600D01*
X189297733Y-126525866D02*
X189297733Y-126932266D01*
X189297733Y-126729066D02*
X188586533Y-126729066D01*
X188688133Y-126796800D01*
X188755866Y-126864533D01*
X188789733Y-126932266D01*
X188586533Y-126288800D02*
X188586533Y-125814666D01*
X189297733Y-126119466D01*
%TO.C,R16*%
X189297733Y-123710200D02*
X188959066Y-123947266D01*
X189297733Y-124116600D02*
X188586533Y-124116600D01*
X188586533Y-123845666D01*
X188620400Y-123777933D01*
X188654266Y-123744066D01*
X188722000Y-123710200D01*
X188823600Y-123710200D01*
X188891333Y-123744066D01*
X188925200Y-123777933D01*
X188959066Y-123845666D01*
X188959066Y-124116600D01*
X189297733Y-123032866D02*
X189297733Y-123439266D01*
X189297733Y-123236066D02*
X188586533Y-123236066D01*
X188688133Y-123303800D01*
X188755866Y-123371533D01*
X188789733Y-123439266D01*
X188586533Y-122423266D02*
X188586533Y-122558733D01*
X188620400Y-122626466D01*
X188654266Y-122660333D01*
X188755866Y-122728066D01*
X188891333Y-122761933D01*
X189162266Y-122761933D01*
X189230000Y-122728066D01*
X189263866Y-122694200D01*
X189297733Y-122626466D01*
X189297733Y-122491000D01*
X189263866Y-122423266D01*
X189230000Y-122389400D01*
X189162266Y-122355533D01*
X188992933Y-122355533D01*
X188925200Y-122389400D01*
X188891333Y-122423266D01*
X188857466Y-122491000D01*
X188857466Y-122626466D01*
X188891333Y-122694200D01*
X188925200Y-122728066D01*
X188992933Y-122761933D01*
%TO.C,U4*%
X115282133Y-133214533D02*
X115282133Y-133790266D01*
X115316000Y-133858000D01*
X115349866Y-133891866D01*
X115417600Y-133925733D01*
X115553066Y-133925733D01*
X115620800Y-133891866D01*
X115654666Y-133858000D01*
X115688533Y-133790266D01*
X115688533Y-133214533D01*
X116332000Y-133451600D02*
X116332000Y-133925733D01*
X116162666Y-133180666D02*
X115993333Y-133688666D01*
X116433600Y-133688666D01*
%TO.C,U3*%
X184116133Y-128896533D02*
X184116133Y-129472266D01*
X184150000Y-129540000D01*
X184183866Y-129573866D01*
X184251600Y-129607733D01*
X184387066Y-129607733D01*
X184454800Y-129573866D01*
X184488666Y-129540000D01*
X184522533Y-129472266D01*
X184522533Y-128896533D01*
X184793466Y-128896533D02*
X185233733Y-128896533D01*
X184996666Y-129167466D01*
X185098266Y-129167466D01*
X185166000Y-129201333D01*
X185199866Y-129235200D01*
X185233733Y-129302933D01*
X185233733Y-129472266D01*
X185199866Y-129540000D01*
X185166000Y-129573866D01*
X185098266Y-129607733D01*
X184895066Y-129607733D01*
X184827333Y-129573866D01*
X184793466Y-129540000D01*
%TO.C,U1*%
X163546533Y-127864366D02*
X164122266Y-127864366D01*
X164190000Y-127830500D01*
X164223866Y-127796633D01*
X164257733Y-127728900D01*
X164257733Y-127593433D01*
X164223866Y-127525700D01*
X164190000Y-127491833D01*
X164122266Y-127457966D01*
X163546533Y-127457966D01*
X164257733Y-126746766D02*
X164257733Y-127153166D01*
X164257733Y-126949966D02*
X163546533Y-126949966D01*
X163648133Y-127017700D01*
X163715866Y-127085433D01*
X163749733Y-127153166D01*
%TO.C,SW2*%
X148149733Y-136939866D02*
X148251333Y-136973733D01*
X148420666Y-136973733D01*
X148488400Y-136939866D01*
X148522266Y-136906000D01*
X148556133Y-136838266D01*
X148556133Y-136770533D01*
X148522266Y-136702800D01*
X148488400Y-136668933D01*
X148420666Y-136635066D01*
X148285200Y-136601200D01*
X148217466Y-136567333D01*
X148183600Y-136533466D01*
X148149733Y-136465733D01*
X148149733Y-136398000D01*
X148183600Y-136330266D01*
X148217466Y-136296400D01*
X148285200Y-136262533D01*
X148454533Y-136262533D01*
X148556133Y-136296400D01*
X148793200Y-136262533D02*
X148962533Y-136973733D01*
X149098000Y-136465733D01*
X149233466Y-136973733D01*
X149402800Y-136262533D01*
X149639866Y-136330266D02*
X149673733Y-136296400D01*
X149741466Y-136262533D01*
X149910800Y-136262533D01*
X149978533Y-136296400D01*
X150012400Y-136330266D01*
X150046266Y-136398000D01*
X150046266Y-136465733D01*
X150012400Y-136567333D01*
X149606000Y-136973733D01*
X150046266Y-136973733D01*
%TO.C,RESET*%
X115045066Y-121479733D02*
X114808000Y-121141066D01*
X114638666Y-121479733D02*
X114638666Y-120768533D01*
X114909600Y-120768533D01*
X114977333Y-120802400D01*
X115011200Y-120836266D01*
X115045066Y-120904000D01*
X115045066Y-121005600D01*
X115011200Y-121073333D01*
X114977333Y-121107200D01*
X114909600Y-121141066D01*
X114638666Y-121141066D01*
X115349866Y-121107200D02*
X115586933Y-121107200D01*
X115688533Y-121479733D02*
X115349866Y-121479733D01*
X115349866Y-120768533D01*
X115688533Y-120768533D01*
X115959466Y-121445866D02*
X116061066Y-121479733D01*
X116230400Y-121479733D01*
X116298133Y-121445866D01*
X116332000Y-121412000D01*
X116365866Y-121344266D01*
X116365866Y-121276533D01*
X116332000Y-121208800D01*
X116298133Y-121174933D01*
X116230400Y-121141066D01*
X116094933Y-121107200D01*
X116027200Y-121073333D01*
X115993333Y-121039466D01*
X115959466Y-120971733D01*
X115959466Y-120904000D01*
X115993333Y-120836266D01*
X116027200Y-120802400D01*
X116094933Y-120768533D01*
X116264266Y-120768533D01*
X116365866Y-120802400D01*
X116670666Y-121107200D02*
X116907733Y-121107200D01*
X117009333Y-121479733D02*
X116670666Y-121479733D01*
X116670666Y-120768533D01*
X117009333Y-120768533D01*
X117212533Y-120768533D02*
X117618933Y-120768533D01*
X117415733Y-121479733D02*
X117415733Y-120768533D01*
%TO.C,R15*%
X170755733Y-136855200D02*
X170417066Y-137092266D01*
X170755733Y-137261600D02*
X170044533Y-137261600D01*
X170044533Y-136990666D01*
X170078400Y-136922933D01*
X170112266Y-136889066D01*
X170180000Y-136855200D01*
X170281600Y-136855200D01*
X170349333Y-136889066D01*
X170383200Y-136922933D01*
X170417066Y-136990666D01*
X170417066Y-137261600D01*
X170755733Y-136177866D02*
X170755733Y-136584266D01*
X170755733Y-136381066D02*
X170044533Y-136381066D01*
X170146133Y-136448800D01*
X170213866Y-136516533D01*
X170247733Y-136584266D01*
X170044533Y-135534400D02*
X170044533Y-135873066D01*
X170383200Y-135906933D01*
X170349333Y-135873066D01*
X170315466Y-135805333D01*
X170315466Y-135636000D01*
X170349333Y-135568266D01*
X170383200Y-135534400D01*
X170450933Y-135500533D01*
X170620266Y-135500533D01*
X170688000Y-135534400D01*
X170721866Y-135568266D01*
X170755733Y-135636000D01*
X170755733Y-135805333D01*
X170721866Y-135873066D01*
X170688000Y-135906933D01*
%TO.C,R14*%
X186249733Y-130759200D02*
X185911066Y-130996266D01*
X186249733Y-131165600D02*
X185538533Y-131165600D01*
X185538533Y-130894666D01*
X185572400Y-130826933D01*
X185606266Y-130793066D01*
X185674000Y-130759200D01*
X185775600Y-130759200D01*
X185843333Y-130793066D01*
X185877200Y-130826933D01*
X185911066Y-130894666D01*
X185911066Y-131165600D01*
X186249733Y-130081866D02*
X186249733Y-130488266D01*
X186249733Y-130285066D02*
X185538533Y-130285066D01*
X185640133Y-130352800D01*
X185707866Y-130420533D01*
X185741733Y-130488266D01*
X185775600Y-129472266D02*
X186249733Y-129472266D01*
X185504666Y-129641600D02*
X186012666Y-129810933D01*
X186012666Y-129370666D01*
%TO.C,R13*%
X112335733Y-129172200D02*
X111997066Y-129409266D01*
X112335733Y-129578600D02*
X111624533Y-129578600D01*
X111624533Y-129307666D01*
X111658400Y-129239933D01*
X111692266Y-129206066D01*
X111760000Y-129172200D01*
X111861600Y-129172200D01*
X111929333Y-129206066D01*
X111963200Y-129239933D01*
X111997066Y-129307666D01*
X111997066Y-129578600D01*
X112335733Y-128494866D02*
X112335733Y-128901266D01*
X112335733Y-128698066D02*
X111624533Y-128698066D01*
X111726133Y-128765800D01*
X111793866Y-128833533D01*
X111827733Y-128901266D01*
X111624533Y-128257800D02*
X111624533Y-127817533D01*
X111895466Y-128054600D01*
X111895466Y-127953000D01*
X111929333Y-127885266D01*
X111963200Y-127851400D01*
X112030933Y-127817533D01*
X112200266Y-127817533D01*
X112268000Y-127851400D01*
X112301866Y-127885266D01*
X112335733Y-127953000D01*
X112335733Y-128156200D01*
X112301866Y-128223933D01*
X112268000Y-128257800D01*
%TO.C,R12*%
X119701733Y-132537200D02*
X119363066Y-132774266D01*
X119701733Y-132943600D02*
X118990533Y-132943600D01*
X118990533Y-132672666D01*
X119024400Y-132604933D01*
X119058266Y-132571066D01*
X119126000Y-132537200D01*
X119227600Y-132537200D01*
X119295333Y-132571066D01*
X119329200Y-132604933D01*
X119363066Y-132672666D01*
X119363066Y-132943600D01*
X119701733Y-131859866D02*
X119701733Y-132266266D01*
X119701733Y-132063066D02*
X118990533Y-132063066D01*
X119092133Y-132130800D01*
X119159866Y-132198533D01*
X119193733Y-132266266D01*
X119058266Y-131588933D02*
X119024400Y-131555066D01*
X118990533Y-131487333D01*
X118990533Y-131318000D01*
X119024400Y-131250266D01*
X119058266Y-131216400D01*
X119126000Y-131182533D01*
X119193733Y-131182533D01*
X119295333Y-131216400D01*
X119701733Y-131622800D01*
X119701733Y-131182533D01*
%TO.C,R11*%
X112335733Y-132537200D02*
X111997066Y-132774266D01*
X112335733Y-132943600D02*
X111624533Y-132943600D01*
X111624533Y-132672666D01*
X111658400Y-132604933D01*
X111692266Y-132571066D01*
X111760000Y-132537200D01*
X111861600Y-132537200D01*
X111929333Y-132571066D01*
X111963200Y-132604933D01*
X111997066Y-132672666D01*
X111997066Y-132943600D01*
X112335733Y-131859866D02*
X112335733Y-132266266D01*
X112335733Y-132063066D02*
X111624533Y-132063066D01*
X111726133Y-132130800D01*
X111793866Y-132198533D01*
X111827733Y-132266266D01*
X112335733Y-131182533D02*
X112335733Y-131588933D01*
X112335733Y-131385733D02*
X111624533Y-131385733D01*
X111726133Y-131453466D01*
X111793866Y-131521200D01*
X111827733Y-131588933D01*
%TO.C,R10*%
X119701733Y-136347200D02*
X119363066Y-136584266D01*
X119701733Y-136753600D02*
X118990533Y-136753600D01*
X118990533Y-136482666D01*
X119024400Y-136414933D01*
X119058266Y-136381066D01*
X119126000Y-136347200D01*
X119227600Y-136347200D01*
X119295333Y-136381066D01*
X119329200Y-136414933D01*
X119363066Y-136482666D01*
X119363066Y-136753600D01*
X119701733Y-135669866D02*
X119701733Y-136076266D01*
X119701733Y-135873066D02*
X118990533Y-135873066D01*
X119092133Y-135940800D01*
X119159866Y-136008533D01*
X119193733Y-136076266D01*
X118990533Y-135229600D02*
X118990533Y-135161866D01*
X119024400Y-135094133D01*
X119058266Y-135060266D01*
X119126000Y-135026400D01*
X119261466Y-134992533D01*
X119430800Y-134992533D01*
X119566266Y-135026400D01*
X119634000Y-135060266D01*
X119667866Y-135094133D01*
X119701733Y-135161866D01*
X119701733Y-135229600D01*
X119667866Y-135297333D01*
X119634000Y-135331200D01*
X119566266Y-135365066D01*
X119430800Y-135398933D01*
X119261466Y-135398933D01*
X119126000Y-135365066D01*
X119058266Y-135331200D01*
X119024400Y-135297333D01*
X118990533Y-135229600D01*
%TO.C,R9*%
X112335733Y-136008533D02*
X111997066Y-136245600D01*
X112335733Y-136414933D02*
X111624533Y-136414933D01*
X111624533Y-136144000D01*
X111658400Y-136076266D01*
X111692266Y-136042400D01*
X111760000Y-136008533D01*
X111861600Y-136008533D01*
X111929333Y-136042400D01*
X111963200Y-136076266D01*
X111997066Y-136144000D01*
X111997066Y-136414933D01*
X112335733Y-135669866D02*
X112335733Y-135534400D01*
X112301866Y-135466666D01*
X112268000Y-135432800D01*
X112166400Y-135365066D01*
X112030933Y-135331200D01*
X111760000Y-135331200D01*
X111692266Y-135365066D01*
X111658400Y-135398933D01*
X111624533Y-135466666D01*
X111624533Y-135602133D01*
X111658400Y-135669866D01*
X111692266Y-135703733D01*
X111760000Y-135737600D01*
X111929333Y-135737600D01*
X111997066Y-135703733D01*
X112030933Y-135669866D01*
X112064800Y-135602133D01*
X112064800Y-135466666D01*
X112030933Y-135398933D01*
X111997066Y-135365066D01*
X111929333Y-135331200D01*
%TO.C,R8*%
X141550466Y-121987733D02*
X141313400Y-121649066D01*
X141144066Y-121987733D02*
X141144066Y-121276533D01*
X141415000Y-121276533D01*
X141482733Y-121310400D01*
X141516600Y-121344266D01*
X141550466Y-121412000D01*
X141550466Y-121513600D01*
X141516600Y-121581333D01*
X141482733Y-121615200D01*
X141415000Y-121649066D01*
X141144066Y-121649066D01*
X141956866Y-121581333D02*
X141889133Y-121547466D01*
X141855266Y-121513600D01*
X141821400Y-121445866D01*
X141821400Y-121412000D01*
X141855266Y-121344266D01*
X141889133Y-121310400D01*
X141956866Y-121276533D01*
X142092333Y-121276533D01*
X142160066Y-121310400D01*
X142193933Y-121344266D01*
X142227800Y-121412000D01*
X142227800Y-121445866D01*
X142193933Y-121513600D01*
X142160066Y-121547466D01*
X142092333Y-121581333D01*
X141956866Y-121581333D01*
X141889133Y-121615200D01*
X141855266Y-121649066D01*
X141821400Y-121716800D01*
X141821400Y-121852266D01*
X141855266Y-121920000D01*
X141889133Y-121953866D01*
X141956866Y-121987733D01*
X142092333Y-121987733D01*
X142160066Y-121953866D01*
X142193933Y-121920000D01*
X142227800Y-121852266D01*
X142227800Y-121716800D01*
X142193933Y-121649066D01*
X142160066Y-121615200D01*
X142092333Y-121581333D01*
%TO.C,R7*%
X147963466Y-132147733D02*
X147726400Y-131809066D01*
X147557066Y-132147733D02*
X147557066Y-131436533D01*
X147828000Y-131436533D01*
X147895733Y-131470400D01*
X147929600Y-131504266D01*
X147963466Y-131572000D01*
X147963466Y-131673600D01*
X147929600Y-131741333D01*
X147895733Y-131775200D01*
X147828000Y-131809066D01*
X147557066Y-131809066D01*
X148200533Y-131436533D02*
X148674666Y-131436533D01*
X148369866Y-132147733D01*
%TO.C,R6*%
X141550466Y-124527733D02*
X141313400Y-124189066D01*
X141144066Y-124527733D02*
X141144066Y-123816533D01*
X141415000Y-123816533D01*
X141482733Y-123850400D01*
X141516600Y-123884266D01*
X141550466Y-123952000D01*
X141550466Y-124053600D01*
X141516600Y-124121333D01*
X141482733Y-124155200D01*
X141415000Y-124189066D01*
X141144066Y-124189066D01*
X142160066Y-123816533D02*
X142024600Y-123816533D01*
X141956866Y-123850400D01*
X141923000Y-123884266D01*
X141855266Y-123985866D01*
X141821400Y-124121333D01*
X141821400Y-124392266D01*
X141855266Y-124460000D01*
X141889133Y-124493866D01*
X141956866Y-124527733D01*
X142092333Y-124527733D01*
X142160066Y-124493866D01*
X142193933Y-124460000D01*
X142227800Y-124392266D01*
X142227800Y-124222933D01*
X142193933Y-124155200D01*
X142160066Y-124121333D01*
X142092333Y-124087466D01*
X141956866Y-124087466D01*
X141889133Y-124121333D01*
X141855266Y-124155200D01*
X141821400Y-124222933D01*
%TO.C,R5*%
X177681466Y-130115733D02*
X177444400Y-129777066D01*
X177275066Y-130115733D02*
X177275066Y-129404533D01*
X177546000Y-129404533D01*
X177613733Y-129438400D01*
X177647600Y-129472266D01*
X177681466Y-129540000D01*
X177681466Y-129641600D01*
X177647600Y-129709333D01*
X177613733Y-129743200D01*
X177546000Y-129777066D01*
X177275066Y-129777066D01*
X178324933Y-129404533D02*
X177986266Y-129404533D01*
X177952400Y-129743200D01*
X177986266Y-129709333D01*
X178054000Y-129675466D01*
X178223333Y-129675466D01*
X178291066Y-129709333D01*
X178324933Y-129743200D01*
X178358800Y-129810933D01*
X178358800Y-129980266D01*
X178324933Y-130048000D01*
X178291066Y-130081866D01*
X178223333Y-130115733D01*
X178054000Y-130115733D01*
X177986266Y-130081866D01*
X177952400Y-130048000D01*
%TO.C,R4*%
X177618466Y-126305733D02*
X177381400Y-125967066D01*
X177212066Y-126305733D02*
X177212066Y-125594533D01*
X177483000Y-125594533D01*
X177550733Y-125628400D01*
X177584600Y-125662266D01*
X177618466Y-125730000D01*
X177618466Y-125831600D01*
X177584600Y-125899333D01*
X177550733Y-125933200D01*
X177483000Y-125967066D01*
X177212066Y-125967066D01*
X178228066Y-125831600D02*
X178228066Y-126305733D01*
X178058733Y-125560666D02*
X177889400Y-126068666D01*
X178329666Y-126068666D01*
%TO.C,R3*%
X141496238Y-127321733D02*
X141259172Y-126983066D01*
X141089838Y-127321733D02*
X141089838Y-126610533D01*
X141360772Y-126610533D01*
X141428505Y-126644400D01*
X141462372Y-126678266D01*
X141496238Y-126746000D01*
X141496238Y-126847600D01*
X141462372Y-126915333D01*
X141428505Y-126949200D01*
X141360772Y-126983066D01*
X141089838Y-126983066D01*
X141733305Y-126610533D02*
X142173572Y-126610533D01*
X141936505Y-126881466D01*
X142038105Y-126881466D01*
X142105838Y-126915333D01*
X142139705Y-126949200D01*
X142173572Y-127016933D01*
X142173572Y-127186266D01*
X142139705Y-127254000D01*
X142105838Y-127287866D01*
X142038105Y-127321733D01*
X141834905Y-127321733D01*
X141767172Y-127287866D01*
X141733305Y-127254000D01*
%TO.C,R2*%
X109101466Y-122495733D02*
X108864400Y-122157066D01*
X108695066Y-122495733D02*
X108695066Y-121784533D01*
X108966000Y-121784533D01*
X109033733Y-121818400D01*
X109067600Y-121852266D01*
X109101466Y-121920000D01*
X109101466Y-122021600D01*
X109067600Y-122089333D01*
X109033733Y-122123200D01*
X108966000Y-122157066D01*
X108695066Y-122157066D01*
X109372400Y-121852266D02*
X109406266Y-121818400D01*
X109474000Y-121784533D01*
X109643333Y-121784533D01*
X109711066Y-121818400D01*
X109744933Y-121852266D01*
X109778800Y-121920000D01*
X109778800Y-121987733D01*
X109744933Y-122089333D01*
X109338533Y-122495733D01*
X109778800Y-122495733D01*
%TO.C,R1*%
X164219466Y-122495733D02*
X163982400Y-122157066D01*
X163813066Y-122495733D02*
X163813066Y-121784533D01*
X164084000Y-121784533D01*
X164151733Y-121818400D01*
X164185600Y-121852266D01*
X164219466Y-121920000D01*
X164219466Y-122021600D01*
X164185600Y-122089333D01*
X164151733Y-122123200D01*
X164084000Y-122157066D01*
X163813066Y-122157066D01*
X164896800Y-122495733D02*
X164490400Y-122495733D01*
X164693600Y-122495733D02*
X164693600Y-121784533D01*
X164625866Y-121886133D01*
X164558133Y-121953866D01*
X164490400Y-121987733D01*
%TO.C,Q3*%
X115756266Y-128913466D02*
X115688533Y-128879600D01*
X115620800Y-128811866D01*
X115519200Y-128710266D01*
X115451466Y-128676400D01*
X115383733Y-128676400D01*
X115417600Y-128845733D02*
X115349866Y-128811866D01*
X115282133Y-128744133D01*
X115248266Y-128608666D01*
X115248266Y-128371600D01*
X115282133Y-128236133D01*
X115349866Y-128168400D01*
X115417600Y-128134533D01*
X115553066Y-128134533D01*
X115620800Y-128168400D01*
X115688533Y-128236133D01*
X115722400Y-128371600D01*
X115722400Y-128608666D01*
X115688533Y-128744133D01*
X115620800Y-128811866D01*
X115553066Y-128845733D01*
X115417600Y-128845733D01*
X115959466Y-128134533D02*
X116399733Y-128134533D01*
X116162666Y-128405466D01*
X116264266Y-128405466D01*
X116332000Y-128439333D01*
X116365866Y-128473200D01*
X116399733Y-128540933D01*
X116399733Y-128710266D01*
X116365866Y-128778000D01*
X116332000Y-128811866D01*
X116264266Y-128845733D01*
X116061066Y-128845733D01*
X115993333Y-128811866D01*
X115959466Y-128778000D01*
%TO.C,Q2*%
X181050266Y-133485466D02*
X180982533Y-133451600D01*
X180914800Y-133383866D01*
X180813200Y-133282266D01*
X180745466Y-133248400D01*
X180677733Y-133248400D01*
X180711600Y-133417733D02*
X180643866Y-133383866D01*
X180576133Y-133316133D01*
X180542266Y-133180666D01*
X180542266Y-132943600D01*
X180576133Y-132808133D01*
X180643866Y-132740400D01*
X180711600Y-132706533D01*
X180847066Y-132706533D01*
X180914800Y-132740400D01*
X180982533Y-132808133D01*
X181016400Y-132943600D01*
X181016400Y-133180666D01*
X180982533Y-133316133D01*
X180914800Y-133383866D01*
X180847066Y-133417733D01*
X180711600Y-133417733D01*
X181287333Y-132774266D02*
X181321200Y-132740400D01*
X181388933Y-132706533D01*
X181558266Y-132706533D01*
X181626000Y-132740400D01*
X181659866Y-132774266D01*
X181693733Y-132842000D01*
X181693733Y-132909733D01*
X181659866Y-133011333D01*
X181253466Y-133417733D01*
X181693733Y-133417733D01*
%TO.C,Q1*%
X181034266Y-125103466D02*
X180966533Y-125069600D01*
X180898800Y-125001866D01*
X180797200Y-124900266D01*
X180729466Y-124866400D01*
X180661733Y-124866400D01*
X180695600Y-125035733D02*
X180627866Y-125001866D01*
X180560133Y-124934133D01*
X180526266Y-124798666D01*
X180526266Y-124561600D01*
X180560133Y-124426133D01*
X180627866Y-124358400D01*
X180695600Y-124324533D01*
X180831066Y-124324533D01*
X180898800Y-124358400D01*
X180966533Y-124426133D01*
X181000400Y-124561600D01*
X181000400Y-124798666D01*
X180966533Y-124934133D01*
X180898800Y-125001866D01*
X180831066Y-125035733D01*
X180695600Y-125035733D01*
X181677733Y-125035733D02*
X181271333Y-125035733D01*
X181474533Y-125035733D02*
X181474533Y-124324533D01*
X181406800Y-124426133D01*
X181339066Y-124493866D01*
X181271333Y-124527733D01*
%TO.C,OLED1*%
X172110400Y-122248533D02*
X172245866Y-122248533D01*
X172313600Y-122282400D01*
X172381333Y-122350133D01*
X172415200Y-122485600D01*
X172415200Y-122722666D01*
X172381333Y-122858133D01*
X172313600Y-122925866D01*
X172245866Y-122959733D01*
X172110400Y-122959733D01*
X172042666Y-122925866D01*
X171974933Y-122858133D01*
X171941066Y-122722666D01*
X171941066Y-122485600D01*
X171974933Y-122350133D01*
X172042666Y-122282400D01*
X172110400Y-122248533D01*
X173058666Y-122959733D02*
X172720000Y-122959733D01*
X172720000Y-122248533D01*
X173295733Y-122587200D02*
X173532800Y-122587200D01*
X173634400Y-122959733D02*
X173295733Y-122959733D01*
X173295733Y-122248533D01*
X173634400Y-122248533D01*
X173939200Y-122959733D02*
X173939200Y-122248533D01*
X174108533Y-122248533D01*
X174210133Y-122282400D01*
X174277866Y-122350133D01*
X174311733Y-122417866D01*
X174345600Y-122553333D01*
X174345600Y-122654933D01*
X174311733Y-122790400D01*
X174277866Y-122858133D01*
X174210133Y-122925866D01*
X174108533Y-122959733D01*
X173939200Y-122959733D01*
X175022933Y-122959733D02*
X174616533Y-122959733D01*
X174819733Y-122959733D02*
X174819733Y-122248533D01*
X174752000Y-122350133D01*
X174684266Y-122417866D01*
X174616533Y-122451733D01*
%TO.C,microSD*%
X124019733Y-132317066D02*
X123545600Y-132317066D01*
X123613333Y-132317066D02*
X123579466Y-132283200D01*
X123545600Y-132215466D01*
X123545600Y-132113866D01*
X123579466Y-132046133D01*
X123647200Y-132012266D01*
X124019733Y-132012266D01*
X123647200Y-132012266D02*
X123579466Y-131978400D01*
X123545600Y-131910666D01*
X123545600Y-131809066D01*
X123579466Y-131741333D01*
X123647200Y-131707466D01*
X124019733Y-131707466D01*
X124019733Y-131368800D02*
X123545600Y-131368800D01*
X123308533Y-131368800D02*
X123342400Y-131402666D01*
X123376266Y-131368800D01*
X123342400Y-131334933D01*
X123308533Y-131368800D01*
X123376266Y-131368800D01*
X123985866Y-130725333D02*
X124019733Y-130793066D01*
X124019733Y-130928533D01*
X123985866Y-130996266D01*
X123952000Y-131030133D01*
X123884266Y-131064000D01*
X123681066Y-131064000D01*
X123613333Y-131030133D01*
X123579466Y-130996266D01*
X123545600Y-130928533D01*
X123545600Y-130793066D01*
X123579466Y-130725333D01*
X124019733Y-130420533D02*
X123545600Y-130420533D01*
X123681066Y-130420533D02*
X123613333Y-130386666D01*
X123579466Y-130352800D01*
X123545600Y-130285066D01*
X123545600Y-130217333D01*
X124019733Y-129878666D02*
X123985866Y-129946400D01*
X123952000Y-129980266D01*
X123884266Y-130014133D01*
X123681066Y-130014133D01*
X123613333Y-129980266D01*
X123579466Y-129946400D01*
X123545600Y-129878666D01*
X123545600Y-129777066D01*
X123579466Y-129709333D01*
X123613333Y-129675466D01*
X123681066Y-129641600D01*
X123884266Y-129641600D01*
X123952000Y-129675466D01*
X123985866Y-129709333D01*
X124019733Y-129777066D01*
X124019733Y-129878666D01*
X123985866Y-129370666D02*
X124019733Y-129269066D01*
X124019733Y-129099733D01*
X123985866Y-129032000D01*
X123952000Y-128998133D01*
X123884266Y-128964266D01*
X123816533Y-128964266D01*
X123748800Y-128998133D01*
X123714933Y-129032000D01*
X123681066Y-129099733D01*
X123647200Y-129235200D01*
X123613333Y-129302933D01*
X123579466Y-129336800D01*
X123511733Y-129370666D01*
X123444000Y-129370666D01*
X123376266Y-129336800D01*
X123342400Y-129302933D01*
X123308533Y-129235200D01*
X123308533Y-129065866D01*
X123342400Y-128964266D01*
X124019733Y-128659466D02*
X123308533Y-128659466D01*
X123308533Y-128490133D01*
X123342400Y-128388533D01*
X123410133Y-128320800D01*
X123477866Y-128286933D01*
X123613333Y-128253066D01*
X123714933Y-128253066D01*
X123850400Y-128286933D01*
X123918133Y-128320800D01*
X123985866Y-128388533D01*
X124019733Y-128490133D01*
X124019733Y-128659466D01*
%TO.C,HEART_SENSOR1*%
X193144400Y-129861733D02*
X193144400Y-129150533D01*
X193144400Y-129489200D02*
X193550800Y-129489200D01*
X193550800Y-129861733D02*
X193550800Y-129150533D01*
X193889466Y-129489200D02*
X194126533Y-129489200D01*
X194228133Y-129861733D02*
X193889466Y-129861733D01*
X193889466Y-129150533D01*
X194228133Y-129150533D01*
X194499066Y-129658533D02*
X194837733Y-129658533D01*
X194431333Y-129861733D02*
X194668400Y-129150533D01*
X194905466Y-129861733D01*
X195548933Y-129861733D02*
X195311866Y-129523066D01*
X195142533Y-129861733D02*
X195142533Y-129150533D01*
X195413466Y-129150533D01*
X195481200Y-129184400D01*
X195515066Y-129218266D01*
X195548933Y-129286000D01*
X195548933Y-129387600D01*
X195515066Y-129455333D01*
X195481200Y-129489200D01*
X195413466Y-129523066D01*
X195142533Y-129523066D01*
X195752133Y-129150533D02*
X196158533Y-129150533D01*
X195955333Y-129861733D02*
X195955333Y-129150533D01*
X196226266Y-129929466D02*
X196768133Y-129929466D01*
X196903600Y-129827866D02*
X197005200Y-129861733D01*
X197174533Y-129861733D01*
X197242266Y-129827866D01*
X197276133Y-129794000D01*
X197310000Y-129726266D01*
X197310000Y-129658533D01*
X197276133Y-129590800D01*
X197242266Y-129556933D01*
X197174533Y-129523066D01*
X197039066Y-129489200D01*
X196971333Y-129455333D01*
X196937466Y-129421466D01*
X196903600Y-129353733D01*
X196903600Y-129286000D01*
X196937466Y-129218266D01*
X196971333Y-129184400D01*
X197039066Y-129150533D01*
X197208400Y-129150533D01*
X197310000Y-129184400D01*
X197614800Y-129489200D02*
X197851866Y-129489200D01*
X197953466Y-129861733D02*
X197614800Y-129861733D01*
X197614800Y-129150533D01*
X197953466Y-129150533D01*
X198258266Y-129861733D02*
X198258266Y-129150533D01*
X198664666Y-129861733D01*
X198664666Y-129150533D01*
X198969466Y-129827866D02*
X199071066Y-129861733D01*
X199240400Y-129861733D01*
X199308133Y-129827866D01*
X199342000Y-129794000D01*
X199375866Y-129726266D01*
X199375866Y-129658533D01*
X199342000Y-129590800D01*
X199308133Y-129556933D01*
X199240400Y-129523066D01*
X199104933Y-129489200D01*
X199037200Y-129455333D01*
X199003333Y-129421466D01*
X198969466Y-129353733D01*
X198969466Y-129286000D01*
X199003333Y-129218266D01*
X199037200Y-129184400D01*
X199104933Y-129150533D01*
X199274266Y-129150533D01*
X199375866Y-129184400D01*
X199816133Y-129150533D02*
X199951600Y-129150533D01*
X200019333Y-129184400D01*
X200087066Y-129252133D01*
X200120933Y-129387600D01*
X200120933Y-129624666D01*
X200087066Y-129760133D01*
X200019333Y-129827866D01*
X199951600Y-129861733D01*
X199816133Y-129861733D01*
X199748400Y-129827866D01*
X199680666Y-129760133D01*
X199646800Y-129624666D01*
X199646800Y-129387600D01*
X199680666Y-129252133D01*
X199748400Y-129184400D01*
X199816133Y-129150533D01*
X200832133Y-129861733D02*
X200595066Y-129523066D01*
X200425733Y-129861733D02*
X200425733Y-129150533D01*
X200696666Y-129150533D01*
X200764400Y-129184400D01*
X200798266Y-129218266D01*
X200832133Y-129286000D01*
X200832133Y-129387600D01*
X200798266Y-129455333D01*
X200764400Y-129489200D01*
X200696666Y-129523066D01*
X200425733Y-129523066D01*
X201509466Y-129861733D02*
X201103066Y-129861733D01*
X201306266Y-129861733D02*
X201306266Y-129150533D01*
X201238533Y-129252133D01*
X201170800Y-129319866D01*
X201103066Y-129353733D01*
%TO.C,HALL_SENSOR1*%
X193516933Y-131131733D02*
X193516933Y-130420533D01*
X193516933Y-130759200D02*
X193923333Y-130759200D01*
X193923333Y-131131733D02*
X193923333Y-130420533D01*
X194228133Y-130928533D02*
X194566800Y-130928533D01*
X194160400Y-131131733D02*
X194397466Y-130420533D01*
X194634533Y-131131733D01*
X195210266Y-131131733D02*
X194871600Y-131131733D01*
X194871600Y-130420533D01*
X195786000Y-131131733D02*
X195447333Y-131131733D01*
X195447333Y-130420533D01*
X195853733Y-131199466D02*
X196395600Y-131199466D01*
X196531066Y-131097866D02*
X196632666Y-131131733D01*
X196802000Y-131131733D01*
X196869733Y-131097866D01*
X196903600Y-131064000D01*
X196937466Y-130996266D01*
X196937466Y-130928533D01*
X196903600Y-130860800D01*
X196869733Y-130826933D01*
X196802000Y-130793066D01*
X196666533Y-130759200D01*
X196598800Y-130725333D01*
X196564933Y-130691466D01*
X196531066Y-130623733D01*
X196531066Y-130556000D01*
X196564933Y-130488266D01*
X196598800Y-130454400D01*
X196666533Y-130420533D01*
X196835866Y-130420533D01*
X196937466Y-130454400D01*
X197242266Y-130759200D02*
X197479333Y-130759200D01*
X197580933Y-131131733D02*
X197242266Y-131131733D01*
X197242266Y-130420533D01*
X197580933Y-130420533D01*
X197885733Y-131131733D02*
X197885733Y-130420533D01*
X198292133Y-131131733D01*
X198292133Y-130420533D01*
X198596933Y-131097866D02*
X198698533Y-131131733D01*
X198867866Y-131131733D01*
X198935600Y-131097866D01*
X198969466Y-131064000D01*
X199003333Y-130996266D01*
X199003333Y-130928533D01*
X198969466Y-130860800D01*
X198935600Y-130826933D01*
X198867866Y-130793066D01*
X198732400Y-130759200D01*
X198664666Y-130725333D01*
X198630800Y-130691466D01*
X198596933Y-130623733D01*
X198596933Y-130556000D01*
X198630800Y-130488266D01*
X198664666Y-130454400D01*
X198732400Y-130420533D01*
X198901733Y-130420533D01*
X199003333Y-130454400D01*
X199443600Y-130420533D02*
X199579066Y-130420533D01*
X199646800Y-130454400D01*
X199714533Y-130522133D01*
X199748400Y-130657600D01*
X199748400Y-130894666D01*
X199714533Y-131030133D01*
X199646800Y-131097866D01*
X199579066Y-131131733D01*
X199443600Y-131131733D01*
X199375866Y-131097866D01*
X199308133Y-131030133D01*
X199274266Y-130894666D01*
X199274266Y-130657600D01*
X199308133Y-130522133D01*
X199375866Y-130454400D01*
X199443600Y-130420533D01*
X200459600Y-131131733D02*
X200222533Y-130793066D01*
X200053200Y-131131733D02*
X200053200Y-130420533D01*
X200324133Y-130420533D01*
X200391866Y-130454400D01*
X200425733Y-130488266D01*
X200459600Y-130556000D01*
X200459600Y-130657600D01*
X200425733Y-130725333D01*
X200391866Y-130759200D01*
X200324133Y-130793066D01*
X200053200Y-130793066D01*
X201136933Y-131131733D02*
X200730533Y-131131733D01*
X200933733Y-131131733D02*
X200933733Y-130420533D01*
X200866000Y-130522133D01*
X200798266Y-130589866D01*
X200730533Y-130623733D01*
%TO.C,FTDI*%
X102175733Y-121361200D02*
X101938666Y-121361200D01*
X101938666Y-121733733D02*
X101938666Y-121022533D01*
X102277333Y-121022533D01*
X102446666Y-121022533D02*
X102853066Y-121022533D01*
X102649866Y-121733733D02*
X102649866Y-121022533D01*
X103090133Y-121733733D02*
X103090133Y-121022533D01*
X103259466Y-121022533D01*
X103361066Y-121056400D01*
X103428800Y-121124133D01*
X103462666Y-121191866D01*
X103496533Y-121327333D01*
X103496533Y-121428933D01*
X103462666Y-121564400D01*
X103428800Y-121632133D01*
X103361066Y-121699866D01*
X103259466Y-121733733D01*
X103090133Y-121733733D01*
X103801333Y-121733733D02*
X103801333Y-121022533D01*
%TO.C,32.768kHz*%
X164930666Y-133468533D02*
X165370933Y-133468533D01*
X165133866Y-133739466D01*
X165235466Y-133739466D01*
X165303200Y-133773333D01*
X165337066Y-133807200D01*
X165370933Y-133874933D01*
X165370933Y-134044266D01*
X165337066Y-134112000D01*
X165303200Y-134145866D01*
X165235466Y-134179733D01*
X165032266Y-134179733D01*
X164964533Y-134145866D01*
X164930666Y-134112000D01*
X165641866Y-133536266D02*
X165675733Y-133502400D01*
X165743466Y-133468533D01*
X165912800Y-133468533D01*
X165980533Y-133502400D01*
X166014400Y-133536266D01*
X166048266Y-133604000D01*
X166048266Y-133671733D01*
X166014400Y-133773333D01*
X165608000Y-134179733D01*
X166048266Y-134179733D01*
X166353066Y-134112000D02*
X166386933Y-134145866D01*
X166353066Y-134179733D01*
X166319200Y-134145866D01*
X166353066Y-134112000D01*
X166353066Y-134179733D01*
X166624000Y-133468533D02*
X167098133Y-133468533D01*
X166793333Y-134179733D01*
X167673866Y-133468533D02*
X167538400Y-133468533D01*
X167470666Y-133502400D01*
X167436800Y-133536266D01*
X167369066Y-133637866D01*
X167335200Y-133773333D01*
X167335200Y-134044266D01*
X167369066Y-134112000D01*
X167402933Y-134145866D01*
X167470666Y-134179733D01*
X167606133Y-134179733D01*
X167673866Y-134145866D01*
X167707733Y-134112000D01*
X167741600Y-134044266D01*
X167741600Y-133874933D01*
X167707733Y-133807200D01*
X167673866Y-133773333D01*
X167606133Y-133739466D01*
X167470666Y-133739466D01*
X167402933Y-133773333D01*
X167369066Y-133807200D01*
X167335200Y-133874933D01*
X168148000Y-133773333D02*
X168080266Y-133739466D01*
X168046400Y-133705600D01*
X168012533Y-133637866D01*
X168012533Y-133604000D01*
X168046400Y-133536266D01*
X168080266Y-133502400D01*
X168148000Y-133468533D01*
X168283466Y-133468533D01*
X168351200Y-133502400D01*
X168385066Y-133536266D01*
X168418933Y-133604000D01*
X168418933Y-133637866D01*
X168385066Y-133705600D01*
X168351200Y-133739466D01*
X168283466Y-133773333D01*
X168148000Y-133773333D01*
X168080266Y-133807200D01*
X168046400Y-133841066D01*
X168012533Y-133908800D01*
X168012533Y-134044266D01*
X168046400Y-134112000D01*
X168080266Y-134145866D01*
X168148000Y-134179733D01*
X168283466Y-134179733D01*
X168351200Y-134145866D01*
X168385066Y-134112000D01*
X168418933Y-134044266D01*
X168418933Y-133908800D01*
X168385066Y-133841066D01*
X168351200Y-133807200D01*
X168283466Y-133773333D01*
X168723733Y-134179733D02*
X168723733Y-133468533D01*
X168791466Y-133908800D02*
X168994666Y-134179733D01*
X168994666Y-133705600D02*
X168723733Y-133976533D01*
X169299466Y-134179733D02*
X169299466Y-133468533D01*
X169299466Y-133807200D02*
X169705866Y-133807200D01*
X169705866Y-134179733D02*
X169705866Y-133468533D01*
X169976800Y-133705600D02*
X170349333Y-133705600D01*
X169976800Y-134179733D01*
X170349333Y-134179733D01*
%TO.C,C8*%
X150744466Y-123698000D02*
X150710600Y-123731866D01*
X150609000Y-123765733D01*
X150541266Y-123765733D01*
X150439666Y-123731866D01*
X150371933Y-123664133D01*
X150338066Y-123596400D01*
X150304200Y-123460933D01*
X150304200Y-123359333D01*
X150338066Y-123223866D01*
X150371933Y-123156133D01*
X150439666Y-123088400D01*
X150541266Y-123054533D01*
X150609000Y-123054533D01*
X150710600Y-123088400D01*
X150744466Y-123122266D01*
X151150866Y-123359333D02*
X151083133Y-123325466D01*
X151049266Y-123291600D01*
X151015400Y-123223866D01*
X151015400Y-123190000D01*
X151049266Y-123122266D01*
X151083133Y-123088400D01*
X151150866Y-123054533D01*
X151286333Y-123054533D01*
X151354066Y-123088400D01*
X151387933Y-123122266D01*
X151421800Y-123190000D01*
X151421800Y-123223866D01*
X151387933Y-123291600D01*
X151354066Y-123325466D01*
X151286333Y-123359333D01*
X151150866Y-123359333D01*
X151083133Y-123393200D01*
X151049266Y-123427066D01*
X151015400Y-123494800D01*
X151015400Y-123630266D01*
X151049266Y-123698000D01*
X151083133Y-123731866D01*
X151150866Y-123765733D01*
X151286333Y-123765733D01*
X151354066Y-123731866D01*
X151387933Y-123698000D01*
X151421800Y-123630266D01*
X151421800Y-123494800D01*
X151387933Y-123427066D01*
X151354066Y-123393200D01*
X151286333Y-123359333D01*
%TO.C,C7*%
X122682000Y-125086533D02*
X122715866Y-125120400D01*
X122749733Y-125222000D01*
X122749733Y-125289733D01*
X122715866Y-125391333D01*
X122648133Y-125459066D01*
X122580400Y-125492933D01*
X122444933Y-125526800D01*
X122343333Y-125526800D01*
X122207866Y-125492933D01*
X122140133Y-125459066D01*
X122072400Y-125391333D01*
X122038533Y-125289733D01*
X122038533Y-125222000D01*
X122072400Y-125120400D01*
X122106266Y-125086533D01*
X122038533Y-124849466D02*
X122038533Y-124375333D01*
X122749733Y-124680133D01*
%TO.C,C6*%
X122174000Y-128642533D02*
X122207866Y-128676400D01*
X122241733Y-128778000D01*
X122241733Y-128845733D01*
X122207866Y-128947333D01*
X122140133Y-129015066D01*
X122072400Y-129048933D01*
X121936933Y-129082800D01*
X121835333Y-129082800D01*
X121699866Y-129048933D01*
X121632133Y-129015066D01*
X121564400Y-128947333D01*
X121530533Y-128845733D01*
X121530533Y-128778000D01*
X121564400Y-128676400D01*
X121598266Y-128642533D01*
X121530533Y-128032933D02*
X121530533Y-128168400D01*
X121564400Y-128236133D01*
X121598266Y-128270000D01*
X121699866Y-128337733D01*
X121835333Y-128371600D01*
X122106266Y-128371600D01*
X122174000Y-128337733D01*
X122207866Y-128303866D01*
X122241733Y-128236133D01*
X122241733Y-128100666D01*
X122207866Y-128032933D01*
X122174000Y-127999066D01*
X122106266Y-127965200D01*
X121936933Y-127965200D01*
X121869200Y-127999066D01*
X121835333Y-128032933D01*
X121801466Y-128100666D01*
X121801466Y-128236133D01*
X121835333Y-128303866D01*
X121869200Y-128337733D01*
X121936933Y-128371600D01*
%TO.C,C5*%
X186182000Y-122038533D02*
X186215866Y-122072400D01*
X186249733Y-122174000D01*
X186249733Y-122241733D01*
X186215866Y-122343333D01*
X186148133Y-122411066D01*
X186080400Y-122444933D01*
X185944933Y-122478800D01*
X185843333Y-122478800D01*
X185707866Y-122444933D01*
X185640133Y-122411066D01*
X185572400Y-122343333D01*
X185538533Y-122241733D01*
X185538533Y-122174000D01*
X185572400Y-122072400D01*
X185606266Y-122038533D01*
X185538533Y-121395066D02*
X185538533Y-121733733D01*
X185877200Y-121767600D01*
X185843333Y-121733733D01*
X185809466Y-121666000D01*
X185809466Y-121496666D01*
X185843333Y-121428933D01*
X185877200Y-121395066D01*
X185944933Y-121361200D01*
X186114266Y-121361200D01*
X186182000Y-121395066D01*
X186215866Y-121428933D01*
X186249733Y-121496666D01*
X186249733Y-121666000D01*
X186215866Y-121733733D01*
X186182000Y-121767600D01*
%TO.C,C4*%
X161798000Y-130153533D02*
X161831866Y-130187400D01*
X161865733Y-130289000D01*
X161865733Y-130356733D01*
X161831866Y-130458333D01*
X161764133Y-130526066D01*
X161696400Y-130559933D01*
X161560933Y-130593800D01*
X161459333Y-130593800D01*
X161323866Y-130559933D01*
X161256133Y-130526066D01*
X161188400Y-130458333D01*
X161154533Y-130356733D01*
X161154533Y-130289000D01*
X161188400Y-130187400D01*
X161222266Y-130153533D01*
X161391600Y-129543933D02*
X161865733Y-129543933D01*
X161120666Y-129713266D02*
X161628666Y-129882600D01*
X161628666Y-129442333D01*
%TO.C,C3*%
X183896000Y-122038533D02*
X183929866Y-122072400D01*
X183963733Y-122174000D01*
X183963733Y-122241733D01*
X183929866Y-122343333D01*
X183862133Y-122411066D01*
X183794400Y-122444933D01*
X183658933Y-122478800D01*
X183557333Y-122478800D01*
X183421866Y-122444933D01*
X183354133Y-122411066D01*
X183286400Y-122343333D01*
X183252533Y-122241733D01*
X183252533Y-122174000D01*
X183286400Y-122072400D01*
X183320266Y-122038533D01*
X183252533Y-121801466D02*
X183252533Y-121361200D01*
X183523466Y-121598266D01*
X183523466Y-121496666D01*
X183557333Y-121428933D01*
X183591200Y-121395066D01*
X183658933Y-121361200D01*
X183828266Y-121361200D01*
X183896000Y-121395066D01*
X183929866Y-121428933D01*
X183963733Y-121496666D01*
X183963733Y-121699866D01*
X183929866Y-121767600D01*
X183896000Y-121801466D01*
%TO.C,C2*%
X108847466Y-137414000D02*
X108813600Y-137447866D01*
X108712000Y-137481733D01*
X108644266Y-137481733D01*
X108542666Y-137447866D01*
X108474933Y-137380133D01*
X108441066Y-137312400D01*
X108407200Y-137176933D01*
X108407200Y-137075333D01*
X108441066Y-136939866D01*
X108474933Y-136872133D01*
X108542666Y-136804400D01*
X108644266Y-136770533D01*
X108712000Y-136770533D01*
X108813600Y-136804400D01*
X108847466Y-136838266D01*
X109118400Y-136838266D02*
X109152266Y-136804400D01*
X109220000Y-136770533D01*
X109389333Y-136770533D01*
X109457066Y-136804400D01*
X109490933Y-136838266D01*
X109524800Y-136906000D01*
X109524800Y-136973733D01*
X109490933Y-137075333D01*
X109084533Y-137481733D01*
X109524800Y-137481733D01*
%TO.C,C1*%
X161798000Y-124070533D02*
X161831866Y-124104400D01*
X161865733Y-124206000D01*
X161865733Y-124273733D01*
X161831866Y-124375333D01*
X161764133Y-124443066D01*
X161696400Y-124476933D01*
X161560933Y-124510800D01*
X161459333Y-124510800D01*
X161323866Y-124476933D01*
X161256133Y-124443066D01*
X161188400Y-124375333D01*
X161154533Y-124273733D01*
X161154533Y-124206000D01*
X161188400Y-124104400D01*
X161222266Y-124070533D01*
X161865733Y-123393200D02*
X161865733Y-123799600D01*
X161865733Y-123596400D02*
X161154533Y-123596400D01*
X161256133Y-123664133D01*
X161323866Y-123731866D01*
X161357733Y-123799600D01*
%TD*%
M02*
