%TF.GenerationSoftware,KiCad,Pcbnew,(5.1.10)-1*%
%TF.CreationDate,2021-07-02T15:13:39-07:00*%
%TF.ProjectId,BivalveBit,42697661-6c76-4654-9269-742e6b696361,A*%
%TF.SameCoordinates,Original*%
%TF.FileFunction,Legend,Top*%
%TF.FilePolarity,Positive*%
%FSLAX46Y46*%
G04 Gerber Fmt 4.6, Leading zero omitted, Abs format (unit mm)*
G04 Created by KiCad (PCBNEW (5.1.10)-1) date 2021-07-02 15:13:39*
%MOMM*%
%LPD*%
G01*
G04 APERTURE LIST*
%ADD10C,0.127000*%
%ADD11C,0.381000*%
%ADD12C,0.120000*%
%ADD13C,0.150000*%
%ADD14C,0.200000*%
G04 APERTURE END LIST*
D10*
X145626666Y-135001000D02*
X146168533Y-135001000D01*
X145897600Y-135271933D02*
X145897600Y-134730066D01*
X143895233Y-125674966D02*
X143895233Y-125268566D01*
X144606433Y-125471766D02*
X143895233Y-125471766D01*
X143895233Y-125099233D02*
X144606433Y-124625100D01*
X143895233Y-124625100D02*
X144606433Y-125099233D01*
X170908133Y-129247900D02*
X170196933Y-129247900D01*
X170704933Y-129010833D01*
X170196933Y-128773766D01*
X170908133Y-128773766D01*
X170840400Y-128028700D02*
X170874266Y-128062566D01*
X170908133Y-128164166D01*
X170908133Y-128231900D01*
X170874266Y-128333500D01*
X170806533Y-128401233D01*
X170738800Y-128435100D01*
X170603333Y-128468966D01*
X170501733Y-128468966D01*
X170366266Y-128435100D01*
X170298533Y-128401233D01*
X170230800Y-128333500D01*
X170196933Y-128231900D01*
X170196933Y-128164166D01*
X170230800Y-128062566D01*
X170264666Y-128028700D01*
X170908133Y-127723900D02*
X170196933Y-127723900D01*
X170196933Y-127452966D01*
X170230800Y-127385233D01*
X170264666Y-127351366D01*
X170332400Y-127317500D01*
X170434000Y-127317500D01*
X170501733Y-127351366D01*
X170535600Y-127385233D01*
X170569466Y-127452966D01*
X170569466Y-127723900D01*
X170196933Y-127080433D02*
X170196933Y-126606300D01*
X170908133Y-126911100D01*
X170908133Y-126301500D02*
X170908133Y-126166033D01*
X170874266Y-126098300D01*
X170840400Y-126064433D01*
X170738800Y-125996700D01*
X170603333Y-125962833D01*
X170332400Y-125962833D01*
X170264666Y-125996700D01*
X170230800Y-126030566D01*
X170196933Y-126098300D01*
X170196933Y-126233766D01*
X170230800Y-126301500D01*
X170264666Y-126335366D01*
X170332400Y-126369233D01*
X170501733Y-126369233D01*
X170569466Y-126335366D01*
X170603333Y-126301500D01*
X170637200Y-126233766D01*
X170637200Y-126098300D01*
X170603333Y-126030566D01*
X170569466Y-125996700D01*
X170501733Y-125962833D01*
X170434000Y-125353233D02*
X170908133Y-125353233D01*
X170163066Y-125522566D02*
X170671066Y-125691900D01*
X170671066Y-125251633D01*
X170196933Y-124845233D02*
X170196933Y-124777500D01*
X170230800Y-124709766D01*
X170264666Y-124675900D01*
X170332400Y-124642033D01*
X170467866Y-124608166D01*
X170637200Y-124608166D01*
X170772666Y-124642033D01*
X170840400Y-124675900D01*
X170874266Y-124709766D01*
X170908133Y-124777500D01*
X170908133Y-124845233D01*
X170874266Y-124912966D01*
X170840400Y-124946833D01*
X170772666Y-124980700D01*
X170637200Y-125014566D01*
X170467866Y-125014566D01*
X170332400Y-124980700D01*
X170264666Y-124946833D01*
X170230800Y-124912966D01*
X170196933Y-124845233D01*
X170196933Y-124167900D02*
X170196933Y-124100166D01*
X170230800Y-124032433D01*
X170264666Y-123998566D01*
X170332400Y-123964700D01*
X170467866Y-123930833D01*
X170637200Y-123930833D01*
X170772666Y-123964700D01*
X170840400Y-123998566D01*
X170874266Y-124032433D01*
X170908133Y-124100166D01*
X170908133Y-124167900D01*
X170874266Y-124235633D01*
X170840400Y-124269500D01*
X170772666Y-124303366D01*
X170637200Y-124337233D01*
X170467866Y-124337233D01*
X170332400Y-124303366D01*
X170264666Y-124269500D01*
X170230800Y-124235633D01*
X170196933Y-124167900D01*
X157060900Y-120832033D02*
X157501166Y-120832033D01*
X157264100Y-121102966D01*
X157365700Y-121102966D01*
X157433433Y-121136833D01*
X157467300Y-121170700D01*
X157501166Y-121238433D01*
X157501166Y-121407766D01*
X157467300Y-121475500D01*
X157433433Y-121509366D01*
X157365700Y-121543233D01*
X157162500Y-121543233D01*
X157094766Y-121509366D01*
X157060900Y-121475500D01*
X157772100Y-120899766D02*
X157805966Y-120865900D01*
X157873700Y-120832033D01*
X158043033Y-120832033D01*
X158110766Y-120865900D01*
X158144633Y-120899766D01*
X158178500Y-120967500D01*
X158178500Y-121035233D01*
X158144633Y-121136833D01*
X157738233Y-121543233D01*
X158178500Y-121543233D01*
X158483300Y-121543233D02*
X158483300Y-120832033D01*
X158551033Y-121272300D02*
X158754233Y-121543233D01*
X158754233Y-121069100D02*
X158483300Y-121340033D01*
X159059033Y-121543233D02*
X159059033Y-120832033D01*
X159059033Y-121170700D02*
X159465433Y-121170700D01*
X159465433Y-121543233D02*
X159465433Y-120832033D01*
X159736366Y-121069100D02*
X160108900Y-121069100D01*
X159736366Y-121543233D01*
X160108900Y-121543233D01*
D11*
X163385500Y-131925785D02*
X163458071Y-131998357D01*
X163385500Y-132070928D01*
X163312928Y-131998357D01*
X163385500Y-131925785D01*
X163385500Y-132070928D01*
D10*
X165269938Y-130656390D02*
X165615861Y-130656390D01*
X165429595Y-130869266D01*
X165509423Y-130869266D01*
X165562642Y-130895876D01*
X165589252Y-130922485D01*
X165615861Y-130975704D01*
X165615861Y-131108752D01*
X165589252Y-131161971D01*
X165562642Y-131188580D01*
X165509423Y-131215190D01*
X165349766Y-131215190D01*
X165296547Y-131188580D01*
X165269938Y-131161971D01*
X165828738Y-130709609D02*
X165855347Y-130683000D01*
X165908566Y-130656390D01*
X166041614Y-130656390D01*
X166094833Y-130683000D01*
X166121442Y-130709609D01*
X166148052Y-130762828D01*
X166148052Y-130816047D01*
X166121442Y-130895876D01*
X165802128Y-131215190D01*
X166148052Y-131215190D01*
X166387538Y-131161971D02*
X166414147Y-131188580D01*
X166387538Y-131215190D01*
X166360928Y-131188580D01*
X166387538Y-131161971D01*
X166387538Y-131215190D01*
X166600414Y-130656390D02*
X166972947Y-130656390D01*
X166733461Y-131215190D01*
X167425309Y-130656390D02*
X167318871Y-130656390D01*
X167265652Y-130683000D01*
X167239042Y-130709609D01*
X167185823Y-130789438D01*
X167159214Y-130895876D01*
X167159214Y-131108752D01*
X167185823Y-131161971D01*
X167212433Y-131188580D01*
X167265652Y-131215190D01*
X167372090Y-131215190D01*
X167425309Y-131188580D01*
X167451919Y-131161971D01*
X167478528Y-131108752D01*
X167478528Y-130975704D01*
X167451919Y-130922485D01*
X167425309Y-130895876D01*
X167372090Y-130869266D01*
X167265652Y-130869266D01*
X167212433Y-130895876D01*
X167185823Y-130922485D01*
X167159214Y-130975704D01*
X167797842Y-130895876D02*
X167744623Y-130869266D01*
X167718014Y-130842657D01*
X167691404Y-130789438D01*
X167691404Y-130762828D01*
X167718014Y-130709609D01*
X167744623Y-130683000D01*
X167797842Y-130656390D01*
X167904280Y-130656390D01*
X167957500Y-130683000D01*
X167984109Y-130709609D01*
X168010719Y-130762828D01*
X168010719Y-130789438D01*
X167984109Y-130842657D01*
X167957500Y-130869266D01*
X167904280Y-130895876D01*
X167797842Y-130895876D01*
X167744623Y-130922485D01*
X167718014Y-130949095D01*
X167691404Y-131002314D01*
X167691404Y-131108752D01*
X167718014Y-131161971D01*
X167744623Y-131188580D01*
X167797842Y-131215190D01*
X167904280Y-131215190D01*
X167957500Y-131188580D01*
X167984109Y-131161971D01*
X168010719Y-131108752D01*
X168010719Y-131002314D01*
X167984109Y-130949095D01*
X167957500Y-130922485D01*
X167904280Y-130895876D01*
X168250204Y-131215190D02*
X168250204Y-130656390D01*
X168303423Y-131002314D02*
X168463080Y-131215190D01*
X168463080Y-130842657D02*
X168250204Y-131055533D01*
X168702566Y-131215190D02*
X168702566Y-130656390D01*
X168702566Y-130922485D02*
X169021880Y-130922485D01*
X169021880Y-131215190D02*
X169021880Y-130656390D01*
X169234757Y-130842657D02*
X169527461Y-130842657D01*
X169234757Y-131215190D01*
X169527461Y-131215190D01*
X116771057Y-132007428D02*
X116800085Y-131920342D01*
X116829114Y-131891314D01*
X116887171Y-131862285D01*
X116974257Y-131862285D01*
X117032314Y-131891314D01*
X117061342Y-131920342D01*
X117090371Y-131978400D01*
X117090371Y-132210628D01*
X116480771Y-132210628D01*
X116480771Y-132007428D01*
X116509800Y-131949371D01*
X116538828Y-131920342D01*
X116596885Y-131891314D01*
X116654942Y-131891314D01*
X116713000Y-131920342D01*
X116742028Y-131949371D01*
X116771057Y-132007428D01*
X116771057Y-132210628D01*
X117090371Y-131601028D02*
X116480771Y-131601028D01*
X116771057Y-131601028D02*
X116771057Y-131252685D01*
X117090371Y-131252685D02*
X116480771Y-131252685D01*
X116538828Y-130991428D02*
X116509800Y-130962400D01*
X116480771Y-130904342D01*
X116480771Y-130759200D01*
X116509800Y-130701142D01*
X116538828Y-130672114D01*
X116596885Y-130643085D01*
X116654942Y-130643085D01*
X116742028Y-130672114D01*
X117090371Y-131020457D01*
X117090371Y-130643085D01*
X116480771Y-130265714D02*
X116480771Y-130207657D01*
X116509800Y-130149600D01*
X116538828Y-130120571D01*
X116596885Y-130091542D01*
X116713000Y-130062514D01*
X116858142Y-130062514D01*
X116974257Y-130091542D01*
X117032314Y-130120571D01*
X117061342Y-130149600D01*
X117090371Y-130207657D01*
X117090371Y-130265714D01*
X117061342Y-130323771D01*
X117032314Y-130352800D01*
X116974257Y-130381828D01*
X116858142Y-130410857D01*
X116713000Y-130410857D01*
X116596885Y-130381828D01*
X116538828Y-130352800D01*
X116509800Y-130323771D01*
X116480771Y-130265714D01*
X116480771Y-129859314D02*
X116480771Y-129481942D01*
X116713000Y-129685142D01*
X116713000Y-129598057D01*
X116742028Y-129540000D01*
X116771057Y-129510971D01*
X116829114Y-129481942D01*
X116974257Y-129481942D01*
X117032314Y-129510971D01*
X117061342Y-129540000D01*
X117090371Y-129598057D01*
X117090371Y-129772228D01*
X117061342Y-129830285D01*
X117032314Y-129859314D01*
X177489757Y-132930900D02*
X177518785Y-132843814D01*
X177547814Y-132814785D01*
X177605871Y-132785757D01*
X177692957Y-132785757D01*
X177751014Y-132814785D01*
X177780042Y-132843814D01*
X177809071Y-132901871D01*
X177809071Y-133134100D01*
X177199471Y-133134100D01*
X177199471Y-132930900D01*
X177228500Y-132872842D01*
X177257528Y-132843814D01*
X177315585Y-132814785D01*
X177373642Y-132814785D01*
X177431700Y-132843814D01*
X177460728Y-132872842D01*
X177489757Y-132930900D01*
X177489757Y-133134100D01*
X177780042Y-132553528D02*
X177809071Y-132466442D01*
X177809071Y-132321300D01*
X177780042Y-132263242D01*
X177751014Y-132234214D01*
X177692957Y-132205185D01*
X177634900Y-132205185D01*
X177576842Y-132234214D01*
X177547814Y-132263242D01*
X177518785Y-132321300D01*
X177489757Y-132437414D01*
X177460728Y-132495471D01*
X177431700Y-132524500D01*
X177373642Y-132553528D01*
X177315585Y-132553528D01*
X177257528Y-132524500D01*
X177228500Y-132495471D01*
X177199471Y-132437414D01*
X177199471Y-132292271D01*
X177228500Y-132205185D01*
X177809071Y-131624614D02*
X177809071Y-131972957D01*
X177809071Y-131798785D02*
X177199471Y-131798785D01*
X177286557Y-131856842D01*
X177344614Y-131914900D01*
X177373642Y-131972957D01*
X177199471Y-131421414D02*
X177199471Y-131044042D01*
X177431700Y-131247242D01*
X177431700Y-131160157D01*
X177460728Y-131102100D01*
X177489757Y-131073071D01*
X177547814Y-131044042D01*
X177692957Y-131044042D01*
X177751014Y-131073071D01*
X177780042Y-131102100D01*
X177809071Y-131160157D01*
X177809071Y-131334328D01*
X177780042Y-131392385D01*
X177751014Y-131421414D01*
X177460728Y-130695700D02*
X177431700Y-130753757D01*
X177402671Y-130782785D01*
X177344614Y-130811814D01*
X177315585Y-130811814D01*
X177257528Y-130782785D01*
X177228500Y-130753757D01*
X177199471Y-130695700D01*
X177199471Y-130579585D01*
X177228500Y-130521528D01*
X177257528Y-130492500D01*
X177315585Y-130463471D01*
X177344614Y-130463471D01*
X177402671Y-130492500D01*
X177431700Y-130521528D01*
X177460728Y-130579585D01*
X177460728Y-130695700D01*
X177489757Y-130753757D01*
X177518785Y-130782785D01*
X177576842Y-130811814D01*
X177692957Y-130811814D01*
X177751014Y-130782785D01*
X177780042Y-130753757D01*
X177809071Y-130695700D01*
X177809071Y-130579585D01*
X177780042Y-130521528D01*
X177751014Y-130492500D01*
X177692957Y-130463471D01*
X177576842Y-130463471D01*
X177518785Y-130492500D01*
X177489757Y-130521528D01*
X177460728Y-130579585D01*
X168211500Y-127563033D02*
X167974433Y-127224366D01*
X167805100Y-127563033D02*
X167805100Y-126851833D01*
X168076033Y-126851833D01*
X168143766Y-126885700D01*
X168177633Y-126919566D01*
X168211500Y-126987300D01*
X168211500Y-127088900D01*
X168177633Y-127156633D01*
X168143766Y-127190500D01*
X168076033Y-127224366D01*
X167805100Y-127224366D01*
X168414700Y-126851833D02*
X168821100Y-126851833D01*
X168617900Y-127563033D02*
X168617900Y-126851833D01*
X169464566Y-127495300D02*
X169430700Y-127529166D01*
X169329100Y-127563033D01*
X169261366Y-127563033D01*
X169159766Y-127529166D01*
X169092033Y-127461433D01*
X169058166Y-127393700D01*
X169024300Y-127258233D01*
X169024300Y-127156633D01*
X169058166Y-127021166D01*
X169092033Y-126953433D01*
X169159766Y-126885700D01*
X169261366Y-126851833D01*
X169329100Y-126851833D01*
X169430700Y-126885700D01*
X169464566Y-126919566D01*
X110676266Y-128981200D02*
X110676266Y-128642533D01*
X111387466Y-128642533D01*
X110676266Y-129218266D02*
X111150400Y-129218266D01*
X111387466Y-129218266D02*
X111353600Y-129184400D01*
X111319733Y-129218266D01*
X111353600Y-129252133D01*
X111387466Y-129218266D01*
X111319733Y-129218266D01*
X110947200Y-129556933D02*
X110947200Y-130098800D01*
X110676266Y-130437466D02*
X111387466Y-130437466D01*
X110676266Y-130877733D02*
X110710133Y-130810000D01*
X110744000Y-130776133D01*
X110811733Y-130742266D01*
X111014933Y-130742266D01*
X111082666Y-130776133D01*
X111116533Y-130810000D01*
X111150400Y-130877733D01*
X111150400Y-130979333D01*
X111116533Y-131047066D01*
X111082666Y-131080933D01*
X111014933Y-131114800D01*
X110811733Y-131114800D01*
X110744000Y-131080933D01*
X110710133Y-131047066D01*
X110676266Y-130979333D01*
X110676266Y-130877733D01*
X111150400Y-131419600D02*
X110676266Y-131419600D01*
X111082666Y-131419600D02*
X111116533Y-131453466D01*
X111150400Y-131521200D01*
X111150400Y-131622800D01*
X111116533Y-131690533D01*
X111048800Y-131724400D01*
X110676266Y-131724400D01*
X111048800Y-132842000D02*
X111014933Y-132943600D01*
X110981066Y-132977466D01*
X110913333Y-133011333D01*
X110811733Y-133011333D01*
X110744000Y-132977466D01*
X110710133Y-132943600D01*
X110676266Y-132875866D01*
X110676266Y-132604933D01*
X111387466Y-132604933D01*
X111387466Y-132842000D01*
X111353600Y-132909733D01*
X111319733Y-132943600D01*
X111252000Y-132977466D01*
X111184266Y-132977466D01*
X111116533Y-132943600D01*
X111082666Y-132909733D01*
X111048800Y-132842000D01*
X111048800Y-132604933D01*
X110676266Y-133620933D02*
X111048800Y-133620933D01*
X111116533Y-133587066D01*
X111150400Y-133519333D01*
X111150400Y-133383866D01*
X111116533Y-133316133D01*
X110710133Y-133620933D02*
X110676266Y-133553200D01*
X110676266Y-133383866D01*
X110710133Y-133316133D01*
X110777866Y-133282266D01*
X110845600Y-133282266D01*
X110913333Y-133316133D01*
X110947200Y-133383866D01*
X110947200Y-133553200D01*
X110981066Y-133620933D01*
X111150400Y-133858000D02*
X111150400Y-134128933D01*
X111387466Y-133959600D02*
X110777866Y-133959600D01*
X110710133Y-133993466D01*
X110676266Y-134061200D01*
X110676266Y-134128933D01*
X111150400Y-134264400D02*
X111150400Y-134535333D01*
X111387466Y-134366000D02*
X110777866Y-134366000D01*
X110710133Y-134399866D01*
X110676266Y-134467600D01*
X110676266Y-134535333D01*
X110710133Y-135043333D02*
X110676266Y-134975600D01*
X110676266Y-134840133D01*
X110710133Y-134772400D01*
X110777866Y-134738533D01*
X111048800Y-134738533D01*
X111116533Y-134772400D01*
X111150400Y-134840133D01*
X111150400Y-134975600D01*
X111116533Y-135043333D01*
X111048800Y-135077200D01*
X110981066Y-135077200D01*
X110913333Y-134738533D01*
X110676266Y-135382000D02*
X111150400Y-135382000D01*
X111014933Y-135382000D02*
X111082666Y-135415866D01*
X111116533Y-135449733D01*
X111150400Y-135517466D01*
X111150400Y-135585200D01*
X111150400Y-135754533D02*
X110676266Y-135923866D01*
X111150400Y-136093200D02*
X110676266Y-135923866D01*
X110506933Y-135856133D01*
X110473066Y-135822266D01*
X110439200Y-135754533D01*
X158517771Y-137406742D02*
X157908171Y-137406742D01*
X157908171Y-137174514D01*
X157937200Y-137116457D01*
X157966228Y-137087428D01*
X158024285Y-137058400D01*
X158111371Y-137058400D01*
X158169428Y-137087428D01*
X158198457Y-137116457D01*
X158227485Y-137174514D01*
X158227485Y-137406742D01*
X158517771Y-136797142D02*
X157908171Y-136797142D01*
X157908171Y-136652000D01*
X157937200Y-136564914D01*
X157995257Y-136506857D01*
X158053314Y-136477828D01*
X158169428Y-136448800D01*
X158256514Y-136448800D01*
X158372628Y-136477828D01*
X158430685Y-136506857D01*
X158488742Y-136564914D01*
X158517771Y-136652000D01*
X158517771Y-136797142D01*
X157908171Y-135926285D02*
X157908171Y-136042400D01*
X157937200Y-136100457D01*
X157966228Y-136129485D01*
X158053314Y-136187542D01*
X158169428Y-136216571D01*
X158401657Y-136216571D01*
X158459714Y-136187542D01*
X158488742Y-136158514D01*
X158517771Y-136100457D01*
X158517771Y-135984342D01*
X158488742Y-135926285D01*
X158459714Y-135897257D01*
X158401657Y-135868228D01*
X158256514Y-135868228D01*
X158198457Y-135897257D01*
X158169428Y-135926285D01*
X158140400Y-135984342D01*
X158140400Y-136100457D01*
X158169428Y-136158514D01*
X158198457Y-136187542D01*
X158256514Y-136216571D01*
X164998400Y-134540171D02*
X165201600Y-135149771D01*
X165404800Y-134540171D01*
X165811200Y-134830457D02*
X165898285Y-134859485D01*
X165927314Y-134888514D01*
X165956342Y-134946571D01*
X165956342Y-135033657D01*
X165927314Y-135091714D01*
X165898285Y-135120742D01*
X165840228Y-135149771D01*
X165608000Y-135149771D01*
X165608000Y-134540171D01*
X165811200Y-134540171D01*
X165869257Y-134569200D01*
X165898285Y-134598228D01*
X165927314Y-134656285D01*
X165927314Y-134714342D01*
X165898285Y-134772400D01*
X165869257Y-134801428D01*
X165811200Y-134830457D01*
X165608000Y-134830457D01*
X166217600Y-134540171D02*
X166217600Y-135033657D01*
X166246628Y-135091714D01*
X166275657Y-135120742D01*
X166333714Y-135149771D01*
X166449828Y-135149771D01*
X166507885Y-135120742D01*
X166536914Y-135091714D01*
X166565942Y-135033657D01*
X166565942Y-134540171D01*
X166827200Y-135120742D02*
X166914285Y-135149771D01*
X167059428Y-135149771D01*
X167117485Y-135120742D01*
X167146514Y-135091714D01*
X167175542Y-135033657D01*
X167175542Y-134975600D01*
X167146514Y-134917542D01*
X167117485Y-134888514D01*
X167059428Y-134859485D01*
X166943314Y-134830457D01*
X166885257Y-134801428D01*
X166856228Y-134772400D01*
X166827200Y-134714342D01*
X166827200Y-134656285D01*
X166856228Y-134598228D01*
X166885257Y-134569200D01*
X166943314Y-134540171D01*
X167088457Y-134540171D01*
X167175542Y-134569200D01*
X160494133Y-134518400D02*
X160426400Y-134484533D01*
X160324800Y-134484533D01*
X160223200Y-134518400D01*
X160155466Y-134586133D01*
X160121600Y-134653866D01*
X160087733Y-134789333D01*
X160087733Y-134890933D01*
X160121600Y-135026400D01*
X160155466Y-135094133D01*
X160223200Y-135161866D01*
X160324800Y-135195733D01*
X160392533Y-135195733D01*
X160494133Y-135161866D01*
X160528000Y-135128000D01*
X160528000Y-134890933D01*
X160392533Y-134890933D01*
X160832800Y-135195733D02*
X160832800Y-134484533D01*
X161239200Y-135195733D01*
X161239200Y-134484533D01*
X161577866Y-135195733D02*
X161577866Y-134484533D01*
X161747200Y-134484533D01*
X161848800Y-134518400D01*
X161916533Y-134586133D01*
X161950400Y-134653866D01*
X161984266Y-134789333D01*
X161984266Y-134890933D01*
X161950400Y-135026400D01*
X161916533Y-135094133D01*
X161848800Y-135161866D01*
X161747200Y-135195733D01*
X161577866Y-135195733D01*
X162695466Y-135195733D02*
X162695466Y-134484533D01*
X162966400Y-134484533D01*
X163034133Y-134518400D01*
X163068000Y-134552266D01*
X163101866Y-134620000D01*
X163101866Y-134721600D01*
X163068000Y-134789333D01*
X163034133Y-134823200D01*
X162966400Y-134857066D01*
X162695466Y-134857066D01*
X163406666Y-135195733D02*
X163406666Y-134484533D01*
X163576000Y-134484533D01*
X163677600Y-134518400D01*
X163745333Y-134586133D01*
X163779200Y-134653866D01*
X163813066Y-134789333D01*
X163813066Y-134890933D01*
X163779200Y-135026400D01*
X163745333Y-135094133D01*
X163677600Y-135161866D01*
X163576000Y-135195733D01*
X163406666Y-135195733D01*
X164084000Y-134552266D02*
X164117866Y-134518400D01*
X164185600Y-134484533D01*
X164354933Y-134484533D01*
X164422666Y-134518400D01*
X164456533Y-134552266D01*
X164490400Y-134620000D01*
X164490400Y-134687733D01*
X164456533Y-134789333D01*
X164050133Y-135195733D01*
X164490400Y-135195733D01*
X143658771Y-128206500D02*
X144268371Y-128003300D01*
X143658771Y-127800100D01*
X143949057Y-127393700D02*
X143978085Y-127306614D01*
X144007114Y-127277585D01*
X144065171Y-127248557D01*
X144152257Y-127248557D01*
X144210314Y-127277585D01*
X144239342Y-127306614D01*
X144268371Y-127364671D01*
X144268371Y-127596900D01*
X143658771Y-127596900D01*
X143658771Y-127393700D01*
X143687800Y-127335642D01*
X143716828Y-127306614D01*
X143774885Y-127277585D01*
X143832942Y-127277585D01*
X143891000Y-127306614D01*
X143920028Y-127335642D01*
X143949057Y-127393700D01*
X143949057Y-127596900D01*
X143658771Y-126987300D02*
X144152257Y-126987300D01*
X144210314Y-126958271D01*
X144239342Y-126929242D01*
X144268371Y-126871185D01*
X144268371Y-126755071D01*
X144239342Y-126697014D01*
X144210314Y-126667985D01*
X144152257Y-126638957D01*
X143658771Y-126638957D01*
X144239342Y-126377700D02*
X144268371Y-126290614D01*
X144268371Y-126145471D01*
X144239342Y-126087414D01*
X144210314Y-126058385D01*
X144152257Y-126029357D01*
X144094200Y-126029357D01*
X144036142Y-126058385D01*
X144007114Y-126087414D01*
X143978085Y-126145471D01*
X143949057Y-126261585D01*
X143920028Y-126319642D01*
X143891000Y-126348671D01*
X143832942Y-126377700D01*
X143774885Y-126377700D01*
X143716828Y-126348671D01*
X143687800Y-126319642D01*
X143658771Y-126261585D01*
X143658771Y-126116442D01*
X143687800Y-126029357D01*
X143637000Y-123857657D02*
X143607971Y-123915714D01*
X143607971Y-124002800D01*
X143637000Y-124089885D01*
X143695057Y-124147942D01*
X143753114Y-124176971D01*
X143869228Y-124206000D01*
X143956314Y-124206000D01*
X144072428Y-124176971D01*
X144130485Y-124147942D01*
X144188542Y-124089885D01*
X144217571Y-124002800D01*
X144217571Y-123944742D01*
X144188542Y-123857657D01*
X144159514Y-123828628D01*
X143956314Y-123828628D01*
X143956314Y-123944742D01*
X144217571Y-123567371D02*
X143607971Y-123567371D01*
X144217571Y-123219028D01*
X143607971Y-123219028D01*
X144217571Y-122928742D02*
X143607971Y-122928742D01*
X143607971Y-122783600D01*
X143637000Y-122696514D01*
X143695057Y-122638457D01*
X143753114Y-122609428D01*
X143869228Y-122580400D01*
X143956314Y-122580400D01*
X144072428Y-122609428D01*
X144130485Y-122638457D01*
X144188542Y-122696514D01*
X144217571Y-122783600D01*
X144217571Y-122928742D01*
X147298228Y-123596400D02*
X147588514Y-123393200D01*
X147298228Y-123248057D02*
X147907828Y-123248057D01*
X147907828Y-123480285D01*
X147878800Y-123538342D01*
X147849771Y-123567371D01*
X147791714Y-123596400D01*
X147704628Y-123596400D01*
X147646571Y-123567371D01*
X147617542Y-123538342D01*
X147588514Y-123480285D01*
X147588514Y-123248057D01*
X147907828Y-123799600D02*
X147298228Y-124206000D01*
X147907828Y-124206000D02*
X147298228Y-123799600D01*
X147399828Y-127087085D02*
X146906342Y-127087085D01*
X146848285Y-127116114D01*
X146819257Y-127145142D01*
X146790228Y-127203200D01*
X146790228Y-127319314D01*
X146819257Y-127377371D01*
X146848285Y-127406400D01*
X146906342Y-127435428D01*
X147399828Y-127435428D01*
X146790228Y-127725714D02*
X147399828Y-127725714D01*
X147399828Y-127957942D01*
X147370800Y-128016000D01*
X147341771Y-128045028D01*
X147283714Y-128074057D01*
X147196628Y-128074057D01*
X147138571Y-128045028D01*
X147109542Y-128016000D01*
X147080514Y-127957942D01*
X147080514Y-127725714D01*
X146790228Y-128335314D02*
X147399828Y-128335314D01*
X147399828Y-128480457D01*
X147370800Y-128567542D01*
X147312742Y-128625600D01*
X147254685Y-128654628D01*
X147138571Y-128683657D01*
X147051485Y-128683657D01*
X146935371Y-128654628D01*
X146877314Y-128625600D01*
X146819257Y-128567542D01*
X146790228Y-128480457D01*
X146790228Y-128335314D01*
X146790228Y-128944914D02*
X147399828Y-128944914D01*
X104072266Y-135077200D02*
X104783466Y-135077200D01*
X104783466Y-135246533D01*
X104749600Y-135348133D01*
X104681866Y-135415866D01*
X104614133Y-135449733D01*
X104478666Y-135483600D01*
X104377066Y-135483600D01*
X104241600Y-135449733D01*
X104173866Y-135415866D01*
X104106133Y-135348133D01*
X104072266Y-135246533D01*
X104072266Y-135077200D01*
X104783466Y-135686800D02*
X104783466Y-136093200D01*
X104072266Y-135890000D02*
X104783466Y-135890000D01*
X104072266Y-136736666D02*
X104410933Y-136499600D01*
X104072266Y-136330266D02*
X104783466Y-136330266D01*
X104783466Y-136601200D01*
X104749600Y-136668933D01*
X104715733Y-136702800D01*
X104648000Y-136736666D01*
X104546400Y-136736666D01*
X104478666Y-136702800D01*
X104444800Y-136668933D01*
X104410933Y-136601200D01*
X104410933Y-136330266D01*
X104749600Y-122648133D02*
X104783466Y-122580400D01*
X104783466Y-122478800D01*
X104749600Y-122377200D01*
X104681866Y-122309466D01*
X104614133Y-122275600D01*
X104478666Y-122241733D01*
X104377066Y-122241733D01*
X104241600Y-122275600D01*
X104173866Y-122309466D01*
X104106133Y-122377200D01*
X104072266Y-122478800D01*
X104072266Y-122546533D01*
X104106133Y-122648133D01*
X104140000Y-122682000D01*
X104377066Y-122682000D01*
X104377066Y-122546533D01*
X104072266Y-122986800D02*
X104783466Y-122986800D01*
X104072266Y-123393200D01*
X104783466Y-123393200D01*
X104072266Y-123731866D02*
X104783466Y-123731866D01*
X104783466Y-123901200D01*
X104749600Y-124002800D01*
X104681866Y-124070533D01*
X104614133Y-124104400D01*
X104478666Y-124138266D01*
X104377066Y-124138266D01*
X104241600Y-124104400D01*
X104173866Y-124070533D01*
X104106133Y-124002800D01*
X104072266Y-123901200D01*
X104072266Y-123731866D01*
X104749600Y-125188133D02*
X104783466Y-125120400D01*
X104783466Y-125018800D01*
X104749600Y-124917200D01*
X104681866Y-124849466D01*
X104614133Y-124815600D01*
X104478666Y-124781733D01*
X104377066Y-124781733D01*
X104241600Y-124815600D01*
X104173866Y-124849466D01*
X104106133Y-124917200D01*
X104072266Y-125018800D01*
X104072266Y-125086533D01*
X104106133Y-125188133D01*
X104140000Y-125222000D01*
X104377066Y-125222000D01*
X104377066Y-125086533D01*
X104072266Y-125526800D02*
X104783466Y-125526800D01*
X104072266Y-125933200D01*
X104783466Y-125933200D01*
X104072266Y-126271866D02*
X104783466Y-126271866D01*
X104783466Y-126441200D01*
X104749600Y-126542800D01*
X104681866Y-126610533D01*
X104614133Y-126644400D01*
X104478666Y-126678266D01*
X104377066Y-126678266D01*
X104241600Y-126644400D01*
X104173866Y-126610533D01*
X104106133Y-126542800D01*
X104072266Y-126441200D01*
X104072266Y-126271866D01*
X104783466Y-127389466D02*
X104783466Y-127829733D01*
X104512533Y-127592666D01*
X104512533Y-127694266D01*
X104478666Y-127762000D01*
X104444800Y-127795866D01*
X104377066Y-127829733D01*
X104207733Y-127829733D01*
X104140000Y-127795866D01*
X104106133Y-127762000D01*
X104072266Y-127694266D01*
X104072266Y-127491066D01*
X104106133Y-127423333D01*
X104140000Y-127389466D01*
X104783466Y-128032933D02*
X104072266Y-128270000D01*
X104783466Y-128507066D01*
X104783466Y-128676400D02*
X104783466Y-129116666D01*
X104512533Y-128879600D01*
X104512533Y-128981200D01*
X104478666Y-129048933D01*
X104444800Y-129082800D01*
X104377066Y-129116666D01*
X104207733Y-129116666D01*
X104140000Y-129082800D01*
X104106133Y-129048933D01*
X104072266Y-128981200D01*
X104072266Y-128778000D01*
X104106133Y-128710266D01*
X104140000Y-128676400D01*
X104783466Y-130268133D02*
X104783466Y-130674533D01*
X104072266Y-130471333D02*
X104783466Y-130471333D01*
X104783466Y-130843866D02*
X104072266Y-131318000D01*
X104783466Y-131318000D02*
X104072266Y-130843866D01*
X104072266Y-133231466D02*
X104410933Y-132994400D01*
X104072266Y-132825066D02*
X104783466Y-132825066D01*
X104783466Y-133096000D01*
X104749600Y-133163733D01*
X104715733Y-133197600D01*
X104648000Y-133231466D01*
X104546400Y-133231466D01*
X104478666Y-133197600D01*
X104444800Y-133163733D01*
X104410933Y-133096000D01*
X104410933Y-132825066D01*
X104783466Y-133468533D02*
X104072266Y-133942666D01*
X104783466Y-133942666D02*
X104072266Y-133468533D01*
X110540800Y-132631542D02*
X110569828Y-132573485D01*
X110569828Y-132486400D01*
X110540800Y-132399314D01*
X110482742Y-132341257D01*
X110424685Y-132312228D01*
X110308571Y-132283200D01*
X110221485Y-132283200D01*
X110105371Y-132312228D01*
X110047314Y-132341257D01*
X109989257Y-132399314D01*
X109960228Y-132486400D01*
X109960228Y-132544457D01*
X109989257Y-132631542D01*
X110018285Y-132660571D01*
X110221485Y-132660571D01*
X110221485Y-132544457D01*
X109960228Y-132921828D02*
X110569828Y-132921828D01*
X109960228Y-133270171D01*
X110569828Y-133270171D01*
X109960228Y-133560457D02*
X110569828Y-133560457D01*
X110569828Y-133705600D01*
X110540800Y-133792685D01*
X110482742Y-133850742D01*
X110424685Y-133879771D01*
X110308571Y-133908800D01*
X110221485Y-133908800D01*
X110105371Y-133879771D01*
X110047314Y-133850742D01*
X109989257Y-133792685D01*
X109960228Y-133705600D01*
X109960228Y-133560457D01*
X109965066Y-130860800D02*
X110506933Y-130860800D01*
X110236000Y-131131733D02*
X110236000Y-130589866D01*
X141956366Y-134975600D02*
X142498233Y-134975600D01*
X142227300Y-135246533D02*
X142227300Y-134704666D01*
D11*
X167182800Y-127391885D02*
X167255371Y-127464457D01*
X167182800Y-127537028D01*
X167110228Y-127464457D01*
X167182800Y-127391885D01*
X167182800Y-127537028D01*
D10*
X151841200Y-125797733D02*
X151773466Y-125763866D01*
X151739600Y-125730000D01*
X151705733Y-125662266D01*
X151705733Y-125459066D01*
X151739600Y-125391333D01*
X151773466Y-125357466D01*
X151841200Y-125323600D01*
X151942800Y-125323600D01*
X152010533Y-125357466D01*
X152044400Y-125391333D01*
X152078266Y-125459066D01*
X152078266Y-125662266D01*
X152044400Y-125730000D01*
X152010533Y-125763866D01*
X151942800Y-125797733D01*
X151841200Y-125797733D01*
X152494817Y-130628813D02*
X152734291Y-130389340D01*
X152590606Y-130820392D02*
X152255344Y-130149866D01*
X152925869Y-130485129D01*
X152518764Y-129886446D02*
X152806133Y-129599077D01*
X153165343Y-130245656D02*
X152662448Y-129742762D01*
X153476658Y-129934340D02*
X153141395Y-129599077D01*
X153189290Y-129646972D02*
X153189290Y-129599077D01*
X153213237Y-129527235D01*
X153285080Y-129455393D01*
X153356922Y-129431446D01*
X153428764Y-129455393D01*
X153692184Y-129718814D01*
X153428764Y-129455393D02*
X153404816Y-129383551D01*
X153428764Y-129311709D01*
X153500606Y-129239867D01*
X153572448Y-129215920D01*
X153644290Y-129239867D01*
X153907711Y-129503288D01*
X154314816Y-129048288D02*
X154290868Y-129120130D01*
X154195079Y-129215920D01*
X154123237Y-129239867D01*
X154051395Y-129215920D01*
X153859816Y-129024341D01*
X153835869Y-128952499D01*
X153859816Y-128880657D01*
X153955605Y-128784868D01*
X154027447Y-128760920D01*
X154099289Y-128784868D01*
X154147184Y-128832762D01*
X153955605Y-129120130D01*
X154458500Y-128281973D02*
X154865605Y-128689078D01*
X154889552Y-128760920D01*
X154889552Y-128808815D01*
X154865605Y-128880657D01*
X154793763Y-128952499D01*
X154721921Y-128976446D01*
X154769815Y-128593289D02*
X154745868Y-128665131D01*
X154650078Y-128760920D01*
X154578236Y-128784868D01*
X154530342Y-128784868D01*
X154458500Y-128760920D01*
X154314816Y-128617236D01*
X154290868Y-128545394D01*
X154290868Y-128497499D01*
X154314816Y-128425657D01*
X154410605Y-128329868D01*
X154482447Y-128305921D01*
X155248762Y-128162236D02*
X154985341Y-127898816D01*
X154913499Y-127874868D01*
X154841657Y-127898816D01*
X154745868Y-127994605D01*
X154721921Y-128066447D01*
X155224815Y-128138289D02*
X155200868Y-128210131D01*
X155081131Y-128329868D01*
X155009289Y-128353815D01*
X154937447Y-128329868D01*
X154889552Y-128281973D01*
X154865605Y-128210131D01*
X154889552Y-128138289D01*
X155009289Y-128018552D01*
X155033236Y-127946710D01*
X155368499Y-127371974D02*
X155703762Y-127707237D01*
X155057183Y-127300132D02*
X155296657Y-127779079D01*
X155607972Y-127467763D01*
X155751657Y-127084606D02*
X155679815Y-127108553D01*
X155631920Y-127108553D01*
X155560078Y-127084606D01*
X155536130Y-127060658D01*
X155512183Y-126988816D01*
X155512183Y-126940922D01*
X155536130Y-126869080D01*
X155631920Y-126773290D01*
X155703762Y-126749343D01*
X155751657Y-126749343D01*
X155823499Y-126773290D01*
X155847446Y-126797237D01*
X155871393Y-126869080D01*
X155871393Y-126916974D01*
X155847446Y-126988816D01*
X155751657Y-127084606D01*
X155727709Y-127156448D01*
X155727709Y-127204342D01*
X155751657Y-127276184D01*
X155847446Y-127371974D01*
X155919288Y-127395921D01*
X155967183Y-127395921D01*
X156039025Y-127371974D01*
X156134814Y-127276184D01*
X156158762Y-127204342D01*
X156158762Y-127156448D01*
X156134814Y-127084606D01*
X156039025Y-126988816D01*
X155967183Y-126964869D01*
X155919288Y-126964869D01*
X155847446Y-126988816D01*
X156039025Y-126366185D02*
X156086919Y-126318291D01*
X156158762Y-126294343D01*
X156206656Y-126294343D01*
X156278498Y-126318291D01*
X156398235Y-126390133D01*
X156517972Y-126509869D01*
X156589814Y-126629606D01*
X156613761Y-126701448D01*
X156613761Y-126749343D01*
X156589814Y-126821185D01*
X156541919Y-126869080D01*
X156470077Y-126893027D01*
X156422182Y-126893027D01*
X156350340Y-126869080D01*
X156230604Y-126797237D01*
X156110867Y-126677501D01*
X156039025Y-126557764D01*
X156015077Y-126485922D01*
X156015077Y-126438027D01*
X156039025Y-126366185D01*
X156709551Y-126126712D02*
X156637708Y-126150659D01*
X156589814Y-126150659D01*
X156517972Y-126126712D01*
X156494024Y-126102764D01*
X156470077Y-126030922D01*
X156470077Y-125983028D01*
X156494024Y-125911186D01*
X156589814Y-125815396D01*
X156661656Y-125791449D01*
X156709551Y-125791449D01*
X156781393Y-125815396D01*
X156805340Y-125839344D01*
X156829287Y-125911186D01*
X156829287Y-125959080D01*
X156805340Y-126030922D01*
X156709551Y-126126712D01*
X156685603Y-126198554D01*
X156685603Y-126246448D01*
X156709551Y-126318291D01*
X156805340Y-126414080D01*
X156877182Y-126438027D01*
X156925077Y-126438027D01*
X156996919Y-126414080D01*
X157092708Y-126318291D01*
X157116655Y-126246448D01*
X157116655Y-126198554D01*
X157092708Y-126126712D01*
X156996919Y-126030922D01*
X156925077Y-126006975D01*
X156877182Y-126006975D01*
X156805340Y-126030922D01*
X194102566Y-123198466D02*
X194136433Y-123096866D01*
X194136433Y-122927533D01*
X194102566Y-122859800D01*
X194068700Y-122825933D01*
X194000966Y-122792066D01*
X193933233Y-122792066D01*
X193865500Y-122825933D01*
X193831633Y-122859800D01*
X193797766Y-122927533D01*
X193763900Y-123063000D01*
X193730033Y-123130733D01*
X193696166Y-123164600D01*
X193628433Y-123198466D01*
X193560700Y-123198466D01*
X193492966Y-123164600D01*
X193459100Y-123130733D01*
X193425233Y-123063000D01*
X193425233Y-122893666D01*
X193459100Y-122792066D01*
X194068700Y-122080866D02*
X194102566Y-122114733D01*
X194136433Y-122216333D01*
X194136433Y-122284066D01*
X194102566Y-122385666D01*
X194034833Y-122453400D01*
X193967100Y-122487266D01*
X193831633Y-122521133D01*
X193730033Y-122521133D01*
X193594566Y-122487266D01*
X193526833Y-122453400D01*
X193459100Y-122385666D01*
X193425233Y-122284066D01*
X193425233Y-122216333D01*
X193459100Y-122114733D01*
X193492966Y-122080866D01*
X194136433Y-121437400D02*
X194136433Y-121776066D01*
X193425233Y-121776066D01*
X192324566Y-123215400D02*
X192358433Y-123113800D01*
X192358433Y-122944466D01*
X192324566Y-122876733D01*
X192290700Y-122842866D01*
X192222966Y-122809000D01*
X192155233Y-122809000D01*
X192087500Y-122842866D01*
X192053633Y-122876733D01*
X192019766Y-122944466D01*
X191985900Y-123079933D01*
X191952033Y-123147666D01*
X191918166Y-123181533D01*
X191850433Y-123215400D01*
X191782700Y-123215400D01*
X191714966Y-123181533D01*
X191681100Y-123147666D01*
X191647233Y-123079933D01*
X191647233Y-122910600D01*
X191681100Y-122809000D01*
X192358433Y-122504200D02*
X191647233Y-122504200D01*
X191647233Y-122334866D01*
X191681100Y-122233266D01*
X191748833Y-122165533D01*
X191816566Y-122131666D01*
X191952033Y-122097800D01*
X192053633Y-122097800D01*
X192189100Y-122131666D01*
X192256833Y-122165533D01*
X192324566Y-122233266D01*
X192358433Y-122334866D01*
X192358433Y-122504200D01*
X192155233Y-121826866D02*
X192155233Y-121488200D01*
X192358433Y-121894600D02*
X191647233Y-121657533D01*
X192358433Y-121420466D01*
X189615233Y-123300066D02*
X190326433Y-123063000D01*
X189615233Y-122825933D01*
X190326433Y-122588866D02*
X189615233Y-122588866D01*
X189615233Y-122419533D01*
X189649100Y-122317933D01*
X189716833Y-122250200D01*
X189784566Y-122216333D01*
X189920033Y-122182466D01*
X190021633Y-122182466D01*
X190157100Y-122216333D01*
X190224833Y-122250200D01*
X190292566Y-122317933D01*
X190326433Y-122419533D01*
X190326433Y-122588866D01*
X190326433Y-121877666D02*
X189615233Y-121877666D01*
X189615233Y-121708333D01*
X189649100Y-121606733D01*
X189716833Y-121539000D01*
X189784566Y-121505133D01*
X189920033Y-121471266D01*
X190021633Y-121471266D01*
X190157100Y-121505133D01*
X190224833Y-121539000D01*
X190292566Y-121606733D01*
X190326433Y-121708333D01*
X190326433Y-121877666D01*
X187617100Y-122893666D02*
X187583233Y-122961400D01*
X187583233Y-123063000D01*
X187617100Y-123164600D01*
X187684833Y-123232333D01*
X187752566Y-123266200D01*
X187888033Y-123300066D01*
X187989633Y-123300066D01*
X188125100Y-123266200D01*
X188192833Y-123232333D01*
X188260566Y-123164600D01*
X188294433Y-123063000D01*
X188294433Y-122995266D01*
X188260566Y-122893666D01*
X188226700Y-122859800D01*
X187989633Y-122859800D01*
X187989633Y-122995266D01*
X188294433Y-122555000D02*
X187583233Y-122555000D01*
X188294433Y-122148600D01*
X187583233Y-122148600D01*
X188294433Y-121809933D02*
X187583233Y-121809933D01*
X187583233Y-121640600D01*
X187617100Y-121539000D01*
X187684833Y-121471266D01*
X187752566Y-121437400D01*
X187888033Y-121403533D01*
X187989633Y-121403533D01*
X188125100Y-121437400D01*
X188192833Y-121471266D01*
X188260566Y-121539000D01*
X188294433Y-121640600D01*
X188294433Y-121809933D01*
X194407366Y-137837333D02*
X194441233Y-137735733D01*
X194441233Y-137566400D01*
X194407366Y-137498666D01*
X194373500Y-137464800D01*
X194305766Y-137430933D01*
X194238033Y-137430933D01*
X194170300Y-137464800D01*
X194136433Y-137498666D01*
X194102566Y-137566400D01*
X194068700Y-137701866D01*
X194034833Y-137769600D01*
X194000966Y-137803466D01*
X193933233Y-137837333D01*
X193865500Y-137837333D01*
X193797766Y-137803466D01*
X193763900Y-137769600D01*
X193730033Y-137701866D01*
X193730033Y-137532533D01*
X193763900Y-137430933D01*
X194441233Y-136787466D02*
X194441233Y-137126133D01*
X193730033Y-137126133D01*
X194068700Y-136550400D02*
X194068700Y-136313333D01*
X194441233Y-136211733D02*
X194441233Y-136550400D01*
X193730033Y-136550400D01*
X193730033Y-136211733D01*
X194068700Y-135906933D02*
X194068700Y-135669866D01*
X194441233Y-135568266D02*
X194441233Y-135906933D01*
X193730033Y-135906933D01*
X193730033Y-135568266D01*
X194441233Y-135263466D02*
X193730033Y-135263466D01*
X193730033Y-134992533D01*
X193763900Y-134924800D01*
X193797766Y-134890933D01*
X193865500Y-134857066D01*
X193967100Y-134857066D01*
X194034833Y-134890933D01*
X194068700Y-134924800D01*
X194102566Y-134992533D01*
X194102566Y-135263466D01*
X191647233Y-137287000D02*
X191647233Y-137151533D01*
X191681100Y-137083800D01*
X191748833Y-137016066D01*
X191884300Y-136982200D01*
X192121366Y-136982200D01*
X192256833Y-137016066D01*
X192324566Y-137083800D01*
X192358433Y-137151533D01*
X192358433Y-137287000D01*
X192324566Y-137354733D01*
X192256833Y-137422466D01*
X192121366Y-137456333D01*
X191884300Y-137456333D01*
X191748833Y-137422466D01*
X191681100Y-137354733D01*
X191647233Y-137287000D01*
X191647233Y-136677400D02*
X192222966Y-136677400D01*
X192290700Y-136643533D01*
X192324566Y-136609666D01*
X192358433Y-136541933D01*
X192358433Y-136406466D01*
X192324566Y-136338733D01*
X192290700Y-136304866D01*
X192222966Y-136271000D01*
X191647233Y-136271000D01*
X191647233Y-136033933D02*
X191647233Y-135627533D01*
X192358433Y-135830733D02*
X191647233Y-135830733D01*
X189615233Y-137524066D02*
X190326433Y-137287000D01*
X189615233Y-137049933D01*
X190326433Y-136812866D02*
X189615233Y-136812866D01*
X189615233Y-136643533D01*
X189649100Y-136541933D01*
X189716833Y-136474200D01*
X189784566Y-136440333D01*
X189920033Y-136406466D01*
X190021633Y-136406466D01*
X190157100Y-136440333D01*
X190224833Y-136474200D01*
X190292566Y-136541933D01*
X190326433Y-136643533D01*
X190326433Y-136812866D01*
X190326433Y-136101666D02*
X189615233Y-136101666D01*
X189615233Y-135932333D01*
X189649100Y-135830733D01*
X189716833Y-135763000D01*
X189784566Y-135729133D01*
X189920033Y-135695266D01*
X190021633Y-135695266D01*
X190157100Y-135729133D01*
X190224833Y-135763000D01*
X190292566Y-135830733D01*
X190326433Y-135932333D01*
X190326433Y-136101666D01*
X187617100Y-137117666D02*
X187583233Y-137185400D01*
X187583233Y-137287000D01*
X187617100Y-137388600D01*
X187684833Y-137456333D01*
X187752566Y-137490200D01*
X187888033Y-137524066D01*
X187989633Y-137524066D01*
X188125100Y-137490200D01*
X188192833Y-137456333D01*
X188260566Y-137388600D01*
X188294433Y-137287000D01*
X188294433Y-137219266D01*
X188260566Y-137117666D01*
X188226700Y-137083800D01*
X187989633Y-137083800D01*
X187989633Y-137219266D01*
X188294433Y-136779000D02*
X187583233Y-136779000D01*
X188294433Y-136372600D01*
X187583233Y-136372600D01*
X188294433Y-136033933D02*
X187583233Y-136033933D01*
X187583233Y-135864600D01*
X187617100Y-135763000D01*
X187684833Y-135695266D01*
X187752566Y-135661400D01*
X187888033Y-135627533D01*
X187989633Y-135627533D01*
X188125100Y-135661400D01*
X188192833Y-135695266D01*
X188260566Y-135763000D01*
X188294433Y-135864600D01*
X188294433Y-136033933D01*
X179353633Y-134493000D02*
X179285900Y-134459133D01*
X179184300Y-134459133D01*
X179082700Y-134493000D01*
X179014966Y-134560733D01*
X178981100Y-134628466D01*
X178947233Y-134763933D01*
X178947233Y-134865533D01*
X178981100Y-135001000D01*
X179014966Y-135068733D01*
X179082700Y-135136466D01*
X179184300Y-135170333D01*
X179252033Y-135170333D01*
X179353633Y-135136466D01*
X179387500Y-135102600D01*
X179387500Y-134865533D01*
X179252033Y-134865533D01*
X179692300Y-135170333D02*
X179692300Y-134459133D01*
X180098700Y-135170333D01*
X180098700Y-134459133D01*
X180437366Y-135170333D02*
X180437366Y-134459133D01*
X180606700Y-134459133D01*
X180708300Y-134493000D01*
X180776033Y-134560733D01*
X180809900Y-134628466D01*
X180843766Y-134763933D01*
X180843766Y-134865533D01*
X180809900Y-135001000D01*
X180776033Y-135068733D01*
X180708300Y-135136466D01*
X180606700Y-135170333D01*
X180437366Y-135170333D01*
X176140533Y-134992533D02*
X176479200Y-134992533D01*
X176072800Y-135195733D02*
X176309866Y-134484533D01*
X176546933Y-135195733D01*
X177190400Y-135195733D02*
X176953333Y-134857066D01*
X176784000Y-135195733D02*
X176784000Y-134484533D01*
X177054933Y-134484533D01*
X177122666Y-134518400D01*
X177156533Y-134552266D01*
X177190400Y-134620000D01*
X177190400Y-134721600D01*
X177156533Y-134789333D01*
X177122666Y-134823200D01*
X177054933Y-134857066D01*
X176784000Y-134857066D01*
X177495200Y-134823200D02*
X177732266Y-134823200D01*
X177833866Y-135195733D02*
X177495200Y-135195733D01*
X177495200Y-134484533D01*
X177833866Y-134484533D01*
X178375733Y-134823200D02*
X178138666Y-134823200D01*
X178138666Y-135195733D02*
X178138666Y-134484533D01*
X178477333Y-134484533D01*
X173871466Y-135195733D02*
X173871466Y-134484533D01*
X174142400Y-134484533D01*
X174210133Y-134518400D01*
X174244000Y-134552266D01*
X174277866Y-134620000D01*
X174277866Y-134721600D01*
X174244000Y-134789333D01*
X174210133Y-134823200D01*
X174142400Y-134857066D01*
X173871466Y-134857066D01*
X174582666Y-135195733D02*
X174582666Y-134484533D01*
X174752000Y-134484533D01*
X174853600Y-134518400D01*
X174921333Y-134586133D01*
X174955200Y-134653866D01*
X174989066Y-134789333D01*
X174989066Y-134890933D01*
X174955200Y-135026400D01*
X174921333Y-135094133D01*
X174853600Y-135161866D01*
X174752000Y-135195733D01*
X174582666Y-135195733D01*
X175632533Y-134484533D02*
X175293866Y-134484533D01*
X175260000Y-134823200D01*
X175293866Y-134789333D01*
X175361600Y-134755466D01*
X175530933Y-134755466D01*
X175598666Y-134789333D01*
X175632533Y-134823200D01*
X175666400Y-134890933D01*
X175666400Y-135060266D01*
X175632533Y-135128000D01*
X175598666Y-135161866D01*
X175530933Y-135195733D01*
X175361600Y-135195733D01*
X175293866Y-135161866D01*
X175260000Y-135128000D01*
X171331466Y-135195733D02*
X171331466Y-134484533D01*
X171602400Y-134484533D01*
X171670133Y-134518400D01*
X171704000Y-134552266D01*
X171737866Y-134620000D01*
X171737866Y-134721600D01*
X171704000Y-134789333D01*
X171670133Y-134823200D01*
X171602400Y-134857066D01*
X171331466Y-134857066D01*
X172042666Y-135195733D02*
X172042666Y-134484533D01*
X172212000Y-134484533D01*
X172313600Y-134518400D01*
X172381333Y-134586133D01*
X172415200Y-134653866D01*
X172449066Y-134789333D01*
X172449066Y-134890933D01*
X172415200Y-135026400D01*
X172381333Y-135094133D01*
X172313600Y-135161866D01*
X172212000Y-135195733D01*
X172042666Y-135195733D01*
X173058666Y-134721600D02*
X173058666Y-135195733D01*
X172889333Y-134450666D02*
X172720000Y-134958666D01*
X173160266Y-134958666D01*
X174972133Y-131724400D02*
X174938266Y-131826000D01*
X174938266Y-131995333D01*
X174972133Y-132063066D01*
X175006000Y-132096933D01*
X175073733Y-132130800D01*
X175141466Y-132130800D01*
X175209200Y-132096933D01*
X175243066Y-132063066D01*
X175276933Y-131995333D01*
X175310800Y-131859866D01*
X175344666Y-131792133D01*
X175378533Y-131758266D01*
X175446266Y-131724400D01*
X175514000Y-131724400D01*
X175581733Y-131758266D01*
X175615600Y-131792133D01*
X175649466Y-131859866D01*
X175649466Y-132029200D01*
X175615600Y-132130800D01*
X174938266Y-132435600D02*
X175649466Y-132435600D01*
X175649466Y-132604933D01*
X175615600Y-132706533D01*
X175547866Y-132774266D01*
X175480133Y-132808133D01*
X175344666Y-132842000D01*
X175243066Y-132842000D01*
X175107600Y-132808133D01*
X175039866Y-132774266D01*
X174972133Y-132706533D01*
X174938266Y-132604933D01*
X174938266Y-132435600D01*
X175141466Y-133112933D02*
X175141466Y-133451600D01*
X174938266Y-133045200D02*
X175649466Y-133282266D01*
X174938266Y-133519333D01*
X174972133Y-129201333D02*
X174938266Y-129302933D01*
X174938266Y-129472266D01*
X174972133Y-129540000D01*
X175006000Y-129573866D01*
X175073733Y-129607733D01*
X175141466Y-129607733D01*
X175209200Y-129573866D01*
X175243066Y-129540000D01*
X175276933Y-129472266D01*
X175310800Y-129336800D01*
X175344666Y-129269066D01*
X175378533Y-129235200D01*
X175446266Y-129201333D01*
X175514000Y-129201333D01*
X175581733Y-129235200D01*
X175615600Y-129269066D01*
X175649466Y-129336800D01*
X175649466Y-129506133D01*
X175615600Y-129607733D01*
X175006000Y-130318933D02*
X174972133Y-130285066D01*
X174938266Y-130183466D01*
X174938266Y-130115733D01*
X174972133Y-130014133D01*
X175039866Y-129946400D01*
X175107600Y-129912533D01*
X175243066Y-129878666D01*
X175344666Y-129878666D01*
X175480133Y-129912533D01*
X175547866Y-129946400D01*
X175615600Y-130014133D01*
X175649466Y-130115733D01*
X175649466Y-130183466D01*
X175615600Y-130285066D01*
X175581733Y-130318933D01*
X174938266Y-130962400D02*
X174938266Y-130623733D01*
X175649466Y-130623733D01*
X175649466Y-126204133D02*
X174938266Y-126441200D01*
X175649466Y-126678266D01*
X175310800Y-127152400D02*
X175276933Y-127254000D01*
X175243066Y-127287866D01*
X175175333Y-127321733D01*
X175073733Y-127321733D01*
X175006000Y-127287866D01*
X174972133Y-127254000D01*
X174938266Y-127186266D01*
X174938266Y-126915333D01*
X175649466Y-126915333D01*
X175649466Y-127152400D01*
X175615600Y-127220133D01*
X175581733Y-127254000D01*
X175514000Y-127287866D01*
X175446266Y-127287866D01*
X175378533Y-127254000D01*
X175344666Y-127220133D01*
X175310800Y-127152400D01*
X175310800Y-126915333D01*
X175649466Y-127626533D02*
X175073733Y-127626533D01*
X175006000Y-127660400D01*
X174972133Y-127694266D01*
X174938266Y-127762000D01*
X174938266Y-127897466D01*
X174972133Y-127965200D01*
X175006000Y-127999066D01*
X175073733Y-128032933D01*
X175649466Y-128032933D01*
X174972133Y-128337733D02*
X174938266Y-128439333D01*
X174938266Y-128608666D01*
X174972133Y-128676400D01*
X175006000Y-128710266D01*
X175073733Y-128744133D01*
X175141466Y-128744133D01*
X175209200Y-128710266D01*
X175243066Y-128676400D01*
X175276933Y-128608666D01*
X175310800Y-128473200D01*
X175344666Y-128405466D01*
X175378533Y-128371600D01*
X175446266Y-128337733D01*
X175514000Y-128337733D01*
X175581733Y-128371600D01*
X175615600Y-128405466D01*
X175649466Y-128473200D01*
X175649466Y-128642533D01*
X175615600Y-128744133D01*
X175641000Y-124133428D02*
X175677285Y-124060857D01*
X175677285Y-123952000D01*
X175641000Y-123843142D01*
X175568428Y-123770571D01*
X175495857Y-123734285D01*
X175350714Y-123698000D01*
X175241857Y-123698000D01*
X175096714Y-123734285D01*
X175024142Y-123770571D01*
X174951571Y-123843142D01*
X174915285Y-123952000D01*
X174915285Y-124024571D01*
X174951571Y-124133428D01*
X174987857Y-124169714D01*
X175241857Y-124169714D01*
X175241857Y-124024571D01*
X174915285Y-124496285D02*
X175677285Y-124496285D01*
X174915285Y-124931714D01*
X175677285Y-124931714D01*
X174915285Y-125294571D02*
X175677285Y-125294571D01*
X175677285Y-125476000D01*
X175641000Y-125584857D01*
X175568428Y-125657428D01*
X175495857Y-125693714D01*
X175350714Y-125730000D01*
X175241857Y-125730000D01*
X175096714Y-125693714D01*
X175024142Y-125657428D01*
X174951571Y-125584857D01*
X174915285Y-125476000D01*
X174915285Y-125294571D01*
D12*
%TO.C,HEART_SENSOR1*%
X185912700Y-123589800D02*
X185912700Y-128309800D01*
X185912700Y-128309800D02*
X196032700Y-128309800D01*
X196032700Y-128309800D02*
X196032700Y-123589800D01*
X196032700Y-123589800D02*
X185912700Y-123589800D01*
X187672700Y-123589800D02*
X187672700Y-123389800D01*
X187672700Y-123389800D02*
X187372700Y-123389800D01*
X187372700Y-123389800D02*
X187372700Y-123589800D01*
X187672700Y-123489800D02*
X187372700Y-123489800D01*
X188472700Y-123589800D02*
X188472700Y-124199800D01*
X188472700Y-124199800D02*
X186522700Y-124199800D01*
X186522700Y-124199800D02*
X186522700Y-127699800D01*
X186522700Y-127699800D02*
X195422700Y-127699800D01*
X195422700Y-127699800D02*
X195422700Y-124199800D01*
X195422700Y-124199800D02*
X193472700Y-124199800D01*
X193472700Y-124199800D02*
X193472700Y-123589800D01*
X185912700Y-124899800D02*
X186522700Y-124899800D01*
X185912700Y-126199800D02*
X186522700Y-126199800D01*
X196032700Y-124899800D02*
X195422700Y-124899800D01*
X196032700Y-126199800D02*
X195422700Y-126199800D01*
X188872700Y-127699800D02*
X188872700Y-127199800D01*
X188872700Y-127199800D02*
X189072700Y-127199800D01*
X189072700Y-127199800D02*
X189072700Y-127699800D01*
X188972700Y-127699800D02*
X188972700Y-127199800D01*
X190872700Y-127699800D02*
X190872700Y-127199800D01*
X190872700Y-127199800D02*
X191072700Y-127199800D01*
X191072700Y-127199800D02*
X191072700Y-127699800D01*
X190972700Y-127699800D02*
X190972700Y-127199800D01*
X192872700Y-127699800D02*
X192872700Y-127199800D01*
X192872700Y-127199800D02*
X193072700Y-127199800D01*
X193072700Y-127199800D02*
X193072700Y-127699800D01*
X192972700Y-127699800D02*
X192972700Y-127199800D01*
X186862700Y-123289800D02*
X185612700Y-123289800D01*
X185612700Y-123289800D02*
X185612700Y-124539800D01*
%TO.C,J1*%
X110550000Y-125162000D02*
X110550000Y-126492000D01*
X109220000Y-125162000D02*
X110550000Y-125162000D01*
X107950000Y-125162000D02*
X107950000Y-127822000D01*
X107950000Y-127822000D02*
X105350000Y-127822000D01*
X107950000Y-125162000D02*
X105350000Y-125162000D01*
X105350000Y-125162000D02*
X105350000Y-127822000D01*
%TO.C,R17*%
X183437000Y-122881158D02*
X183437000Y-122406642D01*
X184482000Y-122881158D02*
X184482000Y-122406642D01*
%TO.C,R16*%
X180579500Y-122881158D02*
X180579500Y-122406642D01*
X181624500Y-122881158D02*
X181624500Y-122406642D01*
%TO.C,U4*%
X117600000Y-137470000D02*
X117600000Y-136540000D01*
X117600000Y-134310000D02*
X117600000Y-135240000D01*
X117600000Y-134310000D02*
X115440000Y-134310000D01*
X117600000Y-137470000D02*
X116140000Y-137470000D01*
%TO.C,U3*%
X180519500Y-132089800D02*
X182319500Y-132089800D01*
X182319500Y-128869800D02*
X179869500Y-128869800D01*
D13*
%TO.C,U2*%
X151247000Y-124867000D02*
X151247000Y-125092000D01*
X158497000Y-124867000D02*
X158497000Y-125192000D01*
X158497000Y-132117000D02*
X158497000Y-131792000D01*
X151247000Y-132117000D02*
X151247000Y-131792000D01*
X151247000Y-124867000D02*
X151572000Y-124867000D01*
X151247000Y-132117000D02*
X151572000Y-132117000D01*
X158497000Y-132117000D02*
X158172000Y-132117000D01*
X158497000Y-124867000D02*
X158172000Y-124867000D01*
X151247000Y-125092000D02*
X149822000Y-125092000D01*
D12*
%TO.C,SW2*%
X143098000Y-137452000D02*
X143098000Y-137952000D01*
X143098000Y-137952000D02*
X155098000Y-137952000D01*
X155098000Y-137952000D02*
X155098000Y-137452000D01*
X155098000Y-135852000D02*
X155098000Y-135352000D01*
X155098000Y-135352000D02*
X143098000Y-135352000D01*
X143098000Y-135352000D02*
X143098000Y-135852000D01*
D10*
%TO.C,RESET1*%
X114013500Y-121656000D02*
X117838500Y-121656000D01*
X113376000Y-123249750D02*
X113376000Y-125162250D01*
X118476000Y-123249750D02*
X118476000Y-125162250D01*
X114013500Y-126756000D02*
X117838500Y-126756000D01*
X117326000Y-124206000D02*
G75*
G03*
X117326000Y-124206000I-1400000J0D01*
G01*
D12*
%TO.C,R15*%
X169686500Y-136160742D02*
X169686500Y-136635258D01*
X168641500Y-136160742D02*
X168641500Y-136635258D01*
%TO.C,R14*%
X184761400Y-130179042D02*
X184761400Y-130653558D01*
X183716400Y-130179042D02*
X183716400Y-130653558D01*
%TO.C,R13*%
X112507500Y-128952258D02*
X112507500Y-128477742D01*
X113552500Y-128952258D02*
X113552500Y-128477742D01*
%TO.C,R12*%
X120127500Y-132317258D02*
X120127500Y-131842742D01*
X121172500Y-132317258D02*
X121172500Y-131842742D01*
%TO.C,R11*%
X112507500Y-132317258D02*
X112507500Y-131842742D01*
X113552500Y-132317258D02*
X113552500Y-131842742D01*
%TO.C,R10*%
X120127500Y-136127258D02*
X120127500Y-135652742D01*
X121172500Y-136127258D02*
X121172500Y-135652742D01*
%TO.C,R9*%
X112507500Y-136127258D02*
X112507500Y-135652742D01*
X113552500Y-136127258D02*
X113552500Y-135652742D01*
%TO.C,R8*%
X141906258Y-123458500D02*
X141431742Y-123458500D01*
X141906258Y-122413500D02*
X141431742Y-122413500D01*
%TO.C,R7*%
X144966458Y-132602500D02*
X144491942Y-132602500D01*
X144966458Y-131557500D02*
X144491942Y-131557500D01*
%TO.C,R6*%
X141906258Y-125744500D02*
X141431742Y-125744500D01*
X141906258Y-124699500D02*
X141431742Y-124699500D01*
%TO.C,R5*%
X177414958Y-129694200D02*
X176940442Y-129694200D01*
X177414958Y-128649200D02*
X176940442Y-128649200D01*
%TO.C,R4*%
X177402258Y-127827300D02*
X176927742Y-127827300D01*
X177402258Y-126782300D02*
X176927742Y-126782300D01*
%TO.C,R3*%
X141469342Y-127480800D02*
X141943858Y-127480800D01*
X141469342Y-128525800D02*
X141943858Y-128525800D01*
%TO.C,R2*%
X108982742Y-122667500D02*
X109457258Y-122667500D01*
X108982742Y-123712500D02*
X109457258Y-123712500D01*
%TO.C,R1*%
X166323742Y-121651500D02*
X166798258Y-121651500D01*
X166323742Y-122696500D02*
X166798258Y-122696500D01*
%TO.C,Q3*%
X117600000Y-132390000D02*
X117600000Y-131460000D01*
X117600000Y-129230000D02*
X117600000Y-130160000D01*
X117600000Y-129230000D02*
X115440000Y-129230000D01*
X117600000Y-132390000D02*
X116140000Y-132390000D01*
%TO.C,Q2*%
X176709800Y-130093600D02*
X176709800Y-131023600D01*
X176709800Y-133253600D02*
X176709800Y-132323600D01*
X176709800Y-133253600D02*
X178869800Y-133253600D01*
X176709800Y-130093600D02*
X178169800Y-130093600D01*
%TO.C,Q1*%
X176773300Y-123210200D02*
X176773300Y-124140200D01*
X176773300Y-126370200D02*
X176773300Y-125440200D01*
X176773300Y-126370200D02*
X178933300Y-126370200D01*
X176773300Y-123210200D02*
X178233300Y-123210200D01*
%TO.C,PROGRAM_HEADER1*%
X147193000Y-126873000D02*
X146558000Y-126873000D01*
X147193000Y-126238000D02*
X147193000Y-126873000D01*
%TO.C,PRIMARY_BATTERY1*%
X109760000Y-128750000D02*
X105040000Y-128750000D01*
X105040000Y-128750000D02*
X105040000Y-134870000D01*
X105040000Y-134870000D02*
X109760000Y-134870000D01*
X109760000Y-134870000D02*
X109760000Y-128750000D01*
X109760000Y-130510000D02*
X109960000Y-130510000D01*
X109960000Y-130510000D02*
X109960000Y-130210000D01*
X109960000Y-130210000D02*
X109760000Y-130210000D01*
X109860000Y-130510000D02*
X109860000Y-130210000D01*
X109760000Y-131310000D02*
X109150000Y-131310000D01*
X109150000Y-131310000D02*
X109150000Y-129360000D01*
X109150000Y-129360000D02*
X105650000Y-129360000D01*
X105650000Y-129360000D02*
X105650000Y-134260000D01*
X105650000Y-134260000D02*
X109150000Y-134260000D01*
X109150000Y-134260000D02*
X109150000Y-132310000D01*
X109150000Y-132310000D02*
X109760000Y-132310000D01*
X108450000Y-128750000D02*
X108450000Y-129360000D01*
X107150000Y-128750000D02*
X107150000Y-129360000D01*
X108450000Y-134870000D02*
X108450000Y-134260000D01*
X107150000Y-134870000D02*
X107150000Y-134260000D01*
X105650000Y-131710000D02*
X106150000Y-131710000D01*
X106150000Y-131710000D02*
X106150000Y-131910000D01*
X106150000Y-131910000D02*
X105650000Y-131910000D01*
X105650000Y-131810000D02*
X106150000Y-131810000D01*
X110060000Y-129700000D02*
X110060000Y-128450000D01*
X110060000Y-128450000D02*
X108810000Y-128450000D01*
%TO.C,OLED1*%
X172152000Y-133918000D02*
X174812000Y-133918000D01*
X172152000Y-126238000D02*
X172152000Y-133918000D01*
X174812000Y-126238000D02*
X174812000Y-133918000D01*
X172152000Y-126238000D02*
X174812000Y-126238000D01*
X172152000Y-124968000D02*
X172152000Y-123638000D01*
X172152000Y-123638000D02*
X173482000Y-123638000D01*
D10*
%TO.C,microSD1*%
X124322000Y-123502000D02*
X124322000Y-137102000D01*
X138822000Y-123502000D02*
X138822000Y-137102000D01*
X138772000Y-123502000D02*
X136372000Y-123502000D01*
X138772000Y-137102000D02*
X136372000Y-137102000D01*
X124372000Y-124302000D02*
X125072000Y-124302000D01*
X124372000Y-136302000D02*
X125072000Y-136302000D01*
X125072000Y-124302000D02*
X126072000Y-126002000D01*
X126072000Y-126002000D02*
X126672000Y-128402000D01*
X126672000Y-128402000D02*
X126672000Y-131902000D01*
X126672000Y-131902000D02*
X126072000Y-134502000D01*
X126072000Y-134502000D02*
X125072000Y-136302000D01*
X136372000Y-123502000D02*
X136372000Y-137102000D01*
D12*
%TO.C,J7*%
X178543000Y-136652000D02*
G75*
G03*
X178543000Y-136652000I-1251000J0D01*
G01*
%TO.C,J6*%
X167446000Y-137982000D02*
X167446000Y-135322000D01*
X162306000Y-137982000D02*
X167446000Y-137982000D01*
X162306000Y-135322000D02*
X167446000Y-135322000D01*
X162306000Y-137982000D02*
X162306000Y-135322000D01*
X161036000Y-137982000D02*
X159706000Y-137982000D01*
X159706000Y-137982000D02*
X159706000Y-136652000D01*
%TO.C,J5*%
X176003000Y-136652000D02*
G75*
G03*
X176003000Y-136652000I-1251000J0D01*
G01*
%TO.C,J4*%
X173463000Y-136652000D02*
G75*
G03*
X173463000Y-136652000I-1251000J0D01*
G01*
%TO.C,HALL_SENSOR1*%
X185912700Y-130701800D02*
X185912700Y-135421800D01*
X185912700Y-135421800D02*
X196032700Y-135421800D01*
X196032700Y-135421800D02*
X196032700Y-130701800D01*
X196032700Y-130701800D02*
X185912700Y-130701800D01*
X187672700Y-130701800D02*
X187672700Y-130501800D01*
X187672700Y-130501800D02*
X187372700Y-130501800D01*
X187372700Y-130501800D02*
X187372700Y-130701800D01*
X187672700Y-130601800D02*
X187372700Y-130601800D01*
X188472700Y-130701800D02*
X188472700Y-131311800D01*
X188472700Y-131311800D02*
X186522700Y-131311800D01*
X186522700Y-131311800D02*
X186522700Y-134811800D01*
X186522700Y-134811800D02*
X195422700Y-134811800D01*
X195422700Y-134811800D02*
X195422700Y-131311800D01*
X195422700Y-131311800D02*
X193472700Y-131311800D01*
X193472700Y-131311800D02*
X193472700Y-130701800D01*
X185912700Y-132011800D02*
X186522700Y-132011800D01*
X185912700Y-133311800D02*
X186522700Y-133311800D01*
X196032700Y-132011800D02*
X195422700Y-132011800D01*
X196032700Y-133311800D02*
X195422700Y-133311800D01*
X188872700Y-134811800D02*
X188872700Y-134311800D01*
X188872700Y-134311800D02*
X189072700Y-134311800D01*
X189072700Y-134311800D02*
X189072700Y-134811800D01*
X188972700Y-134811800D02*
X188972700Y-134311800D01*
X190872700Y-134811800D02*
X190872700Y-134311800D01*
X190872700Y-134311800D02*
X191072700Y-134311800D01*
X191072700Y-134311800D02*
X191072700Y-134811800D01*
X190972700Y-134811800D02*
X190972700Y-134311800D01*
X192872700Y-134811800D02*
X192872700Y-134311800D01*
X192872700Y-134311800D02*
X193072700Y-134311800D01*
X193072700Y-134311800D02*
X193072700Y-134811800D01*
X192972700Y-134811800D02*
X192972700Y-134311800D01*
X186862700Y-130401800D02*
X185612700Y-130401800D01*
X185612700Y-130401800D02*
X185612700Y-131651800D01*
%TO.C,FTDI1*%
X92780000Y-121980000D02*
X101410000Y-121980000D01*
X92780000Y-122098095D02*
X101410000Y-122098095D01*
X92780000Y-122216190D02*
X101410000Y-122216190D01*
X92780000Y-122334285D02*
X101410000Y-122334285D01*
X92780000Y-122452380D02*
X101410000Y-122452380D01*
X92780000Y-122570475D02*
X101410000Y-122570475D01*
X92780000Y-122688570D02*
X101410000Y-122688570D01*
X92780000Y-122806665D02*
X101410000Y-122806665D01*
X92780000Y-122924760D02*
X101410000Y-122924760D01*
X92780000Y-123042855D02*
X101410000Y-123042855D01*
X92780000Y-123160950D02*
X101410000Y-123160950D01*
X92780000Y-123279045D02*
X101410000Y-123279045D01*
X92780000Y-123397140D02*
X101410000Y-123397140D01*
X92780000Y-123515235D02*
X101410000Y-123515235D01*
X92780000Y-123633330D02*
X101410000Y-123633330D01*
X92780000Y-123751425D02*
X101410000Y-123751425D01*
X92780000Y-123869520D02*
X101410000Y-123869520D01*
X92780000Y-123987615D02*
X101410000Y-123987615D01*
X92780000Y-124105710D02*
X101410000Y-124105710D01*
X92780000Y-124223805D02*
X101410000Y-124223805D01*
X92780000Y-124341900D02*
X101410000Y-124341900D01*
X101410000Y-122830000D02*
X101760000Y-122830000D01*
X101410000Y-123550000D02*
X101760000Y-123550000D01*
X101410000Y-125370000D02*
X101820000Y-125370000D01*
X101410000Y-126090000D02*
X101820000Y-126090000D01*
X101410000Y-127910000D02*
X101820000Y-127910000D01*
X101410000Y-128630000D02*
X101820000Y-128630000D01*
X101410000Y-130450000D02*
X101820000Y-130450000D01*
X101410000Y-131170000D02*
X101820000Y-131170000D01*
X101410000Y-132990000D02*
X101820000Y-132990000D01*
X101410000Y-133710000D02*
X101820000Y-133710000D01*
X101410000Y-135530000D02*
X101820000Y-135530000D01*
X101410000Y-136250000D02*
X101820000Y-136250000D01*
X92780000Y-124460000D02*
X101410000Y-124460000D01*
X92780000Y-127000000D02*
X101410000Y-127000000D01*
X92780000Y-129540000D02*
X101410000Y-129540000D01*
X92780000Y-132080000D02*
X101410000Y-132080000D01*
X92780000Y-134620000D02*
X101410000Y-134620000D01*
X92780000Y-121860000D02*
X101410000Y-121860000D01*
X101410000Y-121860000D02*
X101410000Y-137220000D01*
X92780000Y-137220000D02*
X101410000Y-137220000D01*
X92780000Y-121860000D02*
X92780000Y-137220000D01*
X103980000Y-121860000D02*
X103980000Y-123190000D01*
X102870000Y-121860000D02*
X103980000Y-121860000D01*
%TO.C,D1*%
X145030700Y-132847200D02*
X142345700Y-132847200D01*
X142345700Y-132847200D02*
X142345700Y-134767200D01*
X142345700Y-134767200D02*
X145030700Y-134767200D01*
D10*
%TO.C,Crystal_32.768kHz1*%
X165194100Y-130174300D02*
X169654100Y-130174300D01*
X169654100Y-131674300D02*
X165194100Y-131674300D01*
D14*
X164374100Y-132174300D02*
G75*
G03*
X164374100Y-132174300I-100000J0D01*
G01*
D12*
%TO.C,C8*%
X153594680Y-122684000D02*
X153313520Y-122684000D01*
X153594680Y-121664000D02*
X153313520Y-121664000D01*
%TO.C,C7*%
X120648000Y-125108580D02*
X120648000Y-124827420D01*
X121668000Y-125108580D02*
X121668000Y-124827420D01*
%TO.C,C6*%
X121160000Y-128383420D02*
X121160000Y-128664580D01*
X120140000Y-128383420D02*
X120140000Y-128664580D01*
%TO.C,C5*%
X182585900Y-127331080D02*
X182585900Y-127049920D01*
X183605900Y-127331080D02*
X183605900Y-127049920D01*
%TO.C,C4*%
X161110200Y-130658480D02*
X161110200Y-130377320D01*
X162130200Y-130658480D02*
X162130200Y-130377320D01*
%TO.C,C3*%
X180363400Y-127318380D02*
X180363400Y-127037220D01*
X181383400Y-127318380D02*
X181383400Y-127037220D01*
%TO.C,C2*%
X106539420Y-136650000D02*
X106820580Y-136650000D01*
X106539420Y-137670000D02*
X106820580Y-137670000D01*
%TO.C,C1*%
X165660800Y-124281320D02*
X165660800Y-124562480D01*
X164640800Y-124281320D02*
X164640800Y-124562480D01*
%TO.C,J8*%
X181083000Y-136652000D02*
G75*
G03*
X181083000Y-136652000I-1251000J0D01*
G01*
%TO.C,C9*%
X165050080Y-128636300D02*
X164768920Y-128636300D01*
X165050080Y-129656300D02*
X164768920Y-129656300D01*
%TO.C,C10*%
X164756220Y-132179600D02*
X165037380Y-132179600D01*
X164756220Y-133199600D02*
X165037380Y-133199600D01*
%TO.C,RTC1*%
X166601500Y-126669800D02*
X166601500Y-129594800D01*
X166601500Y-126669800D02*
X166601500Y-125169800D01*
X169821500Y-126669800D02*
X169821500Y-128169800D01*
X169821500Y-126669800D02*
X169821500Y-125169800D01*
%TO.C,J2*%
X162617200Y-122135900D02*
G75*
G03*
X162617200Y-122135900I-1251000J0D01*
G01*
%TO.C,D2*%
X146028700Y-134792600D02*
X148713700Y-134792600D01*
X146028700Y-132872600D02*
X146028700Y-134792600D01*
X148713700Y-132872600D02*
X146028700Y-132872600D01*
%TO.C,R18*%
X148065258Y-131595600D02*
X147590742Y-131595600D01*
X148065258Y-132640600D02*
X147590742Y-132640600D01*
%TO.C,HEART_SENSOR1*%
D13*
X186807100Y-129277533D02*
X186807100Y-128566333D01*
X186807100Y-128905000D02*
X187213500Y-128905000D01*
X187213500Y-129277533D02*
X187213500Y-128566333D01*
X187552166Y-128905000D02*
X187789233Y-128905000D01*
X187890833Y-129277533D02*
X187552166Y-129277533D01*
X187552166Y-128566333D01*
X187890833Y-128566333D01*
X188161766Y-129074333D02*
X188500433Y-129074333D01*
X188094033Y-129277533D02*
X188331100Y-128566333D01*
X188568166Y-129277533D01*
X189211633Y-129277533D02*
X188974566Y-128938866D01*
X188805233Y-129277533D02*
X188805233Y-128566333D01*
X189076166Y-128566333D01*
X189143900Y-128600200D01*
X189177766Y-128634066D01*
X189211633Y-128701800D01*
X189211633Y-128803400D01*
X189177766Y-128871133D01*
X189143900Y-128905000D01*
X189076166Y-128938866D01*
X188805233Y-128938866D01*
X189414833Y-128566333D02*
X189821233Y-128566333D01*
X189618033Y-129277533D02*
X189618033Y-128566333D01*
X189888966Y-129345266D02*
X190430833Y-129345266D01*
X190566300Y-129243666D02*
X190667900Y-129277533D01*
X190837233Y-129277533D01*
X190904966Y-129243666D01*
X190938833Y-129209800D01*
X190972700Y-129142066D01*
X190972700Y-129074333D01*
X190938833Y-129006600D01*
X190904966Y-128972733D01*
X190837233Y-128938866D01*
X190701766Y-128905000D01*
X190634033Y-128871133D01*
X190600166Y-128837266D01*
X190566300Y-128769533D01*
X190566300Y-128701800D01*
X190600166Y-128634066D01*
X190634033Y-128600200D01*
X190701766Y-128566333D01*
X190871100Y-128566333D01*
X190972700Y-128600200D01*
X191277500Y-128905000D02*
X191514566Y-128905000D01*
X191616166Y-129277533D02*
X191277500Y-129277533D01*
X191277500Y-128566333D01*
X191616166Y-128566333D01*
X191920966Y-129277533D02*
X191920966Y-128566333D01*
X192327366Y-129277533D01*
X192327366Y-128566333D01*
X192632166Y-129243666D02*
X192733766Y-129277533D01*
X192903100Y-129277533D01*
X192970833Y-129243666D01*
X193004700Y-129209800D01*
X193038566Y-129142066D01*
X193038566Y-129074333D01*
X193004700Y-129006600D01*
X192970833Y-128972733D01*
X192903100Y-128938866D01*
X192767633Y-128905000D01*
X192699900Y-128871133D01*
X192666033Y-128837266D01*
X192632166Y-128769533D01*
X192632166Y-128701800D01*
X192666033Y-128634066D01*
X192699900Y-128600200D01*
X192767633Y-128566333D01*
X192936966Y-128566333D01*
X193038566Y-128600200D01*
X193478833Y-128566333D02*
X193614300Y-128566333D01*
X193682033Y-128600200D01*
X193749766Y-128667933D01*
X193783633Y-128803400D01*
X193783633Y-129040466D01*
X193749766Y-129175933D01*
X193682033Y-129243666D01*
X193614300Y-129277533D01*
X193478833Y-129277533D01*
X193411100Y-129243666D01*
X193343366Y-129175933D01*
X193309500Y-129040466D01*
X193309500Y-128803400D01*
X193343366Y-128667933D01*
X193411100Y-128600200D01*
X193478833Y-128566333D01*
X194494833Y-129277533D02*
X194257766Y-128938866D01*
X194088433Y-129277533D02*
X194088433Y-128566333D01*
X194359366Y-128566333D01*
X194427100Y-128600200D01*
X194460966Y-128634066D01*
X194494833Y-128701800D01*
X194494833Y-128803400D01*
X194460966Y-128871133D01*
X194427100Y-128905000D01*
X194359366Y-128938866D01*
X194088433Y-128938866D01*
X195172166Y-129277533D02*
X194765766Y-129277533D01*
X194968966Y-129277533D02*
X194968966Y-128566333D01*
X194901233Y-128667933D01*
X194833500Y-128735666D01*
X194765766Y-128769533D01*
%TO.C,J1*%
X105680933Y-124324533D02*
X105680933Y-124832533D01*
X105647066Y-124934133D01*
X105579333Y-125001866D01*
X105477733Y-125035733D01*
X105410000Y-125035733D01*
X106392133Y-125035733D02*
X105985733Y-125035733D01*
X106188933Y-125035733D02*
X106188933Y-124324533D01*
X106121200Y-124426133D01*
X106053466Y-124493866D01*
X105985733Y-124527733D01*
%TO.C,R17*%
X185297233Y-123101100D02*
X184958566Y-123338166D01*
X185297233Y-123507500D02*
X184586033Y-123507500D01*
X184586033Y-123236566D01*
X184619900Y-123168833D01*
X184653766Y-123134966D01*
X184721500Y-123101100D01*
X184823100Y-123101100D01*
X184890833Y-123134966D01*
X184924700Y-123168833D01*
X184958566Y-123236566D01*
X184958566Y-123507500D01*
X185297233Y-122423766D02*
X185297233Y-122830166D01*
X185297233Y-122626966D02*
X184586033Y-122626966D01*
X184687633Y-122694700D01*
X184755366Y-122762433D01*
X184789233Y-122830166D01*
X184586033Y-122186700D02*
X184586033Y-121712566D01*
X185297233Y-122017366D01*
%TO.C,R16*%
X180407733Y-123101100D02*
X180069066Y-123338166D01*
X180407733Y-123507500D02*
X179696533Y-123507500D01*
X179696533Y-123236566D01*
X179730400Y-123168833D01*
X179764266Y-123134966D01*
X179832000Y-123101100D01*
X179933600Y-123101100D01*
X180001333Y-123134966D01*
X180035200Y-123168833D01*
X180069066Y-123236566D01*
X180069066Y-123507500D01*
X180407733Y-122423766D02*
X180407733Y-122830166D01*
X180407733Y-122626966D02*
X179696533Y-122626966D01*
X179798133Y-122694700D01*
X179865866Y-122762433D01*
X179899733Y-122830166D01*
X179696533Y-121814166D02*
X179696533Y-121949633D01*
X179730400Y-122017366D01*
X179764266Y-122051233D01*
X179865866Y-122118966D01*
X180001333Y-122152833D01*
X180272266Y-122152833D01*
X180340000Y-122118966D01*
X180373866Y-122085100D01*
X180407733Y-122017366D01*
X180407733Y-121881900D01*
X180373866Y-121814166D01*
X180340000Y-121780300D01*
X180272266Y-121746433D01*
X180102933Y-121746433D01*
X180035200Y-121780300D01*
X180001333Y-121814166D01*
X179967466Y-121881900D01*
X179967466Y-122017366D01*
X180001333Y-122085100D01*
X180035200Y-122118966D01*
X180102933Y-122152833D01*
%TO.C,U4*%
X115282133Y-133214533D02*
X115282133Y-133790266D01*
X115316000Y-133858000D01*
X115349866Y-133891866D01*
X115417600Y-133925733D01*
X115553066Y-133925733D01*
X115620800Y-133891866D01*
X115654666Y-133858000D01*
X115688533Y-133790266D01*
X115688533Y-133214533D01*
X116332000Y-133451600D02*
X116332000Y-133925733D01*
X116162666Y-133180666D02*
X115993333Y-133688666D01*
X116433600Y-133688666D01*
%TO.C,U3*%
X180839533Y-132350933D02*
X180839533Y-132926666D01*
X180873400Y-132994400D01*
X180907266Y-133028266D01*
X180975000Y-133062133D01*
X181110466Y-133062133D01*
X181178200Y-133028266D01*
X181212066Y-132994400D01*
X181245933Y-132926666D01*
X181245933Y-132350933D01*
X181516866Y-132350933D02*
X181957133Y-132350933D01*
X181720066Y-132621866D01*
X181821666Y-132621866D01*
X181889400Y-132655733D01*
X181923266Y-132689600D01*
X181957133Y-132757333D01*
X181957133Y-132926666D01*
X181923266Y-132994400D01*
X181889400Y-133028266D01*
X181821666Y-133062133D01*
X181618466Y-133062133D01*
X181550733Y-133028266D01*
X181516866Y-132994400D01*
%TO.C,SW2*%
X148149733Y-136939866D02*
X148251333Y-136973733D01*
X148420666Y-136973733D01*
X148488400Y-136939866D01*
X148522266Y-136906000D01*
X148556133Y-136838266D01*
X148556133Y-136770533D01*
X148522266Y-136702800D01*
X148488400Y-136668933D01*
X148420666Y-136635066D01*
X148285200Y-136601200D01*
X148217466Y-136567333D01*
X148183600Y-136533466D01*
X148149733Y-136465733D01*
X148149733Y-136398000D01*
X148183600Y-136330266D01*
X148217466Y-136296400D01*
X148285200Y-136262533D01*
X148454533Y-136262533D01*
X148556133Y-136296400D01*
X148793200Y-136262533D02*
X148962533Y-136973733D01*
X149098000Y-136465733D01*
X149233466Y-136973733D01*
X149402800Y-136262533D01*
X149639866Y-136330266D02*
X149673733Y-136296400D01*
X149741466Y-136262533D01*
X149910800Y-136262533D01*
X149978533Y-136296400D01*
X150012400Y-136330266D01*
X150046266Y-136398000D01*
X150046266Y-136465733D01*
X150012400Y-136567333D01*
X149606000Y-136973733D01*
X150046266Y-136973733D01*
%TO.C,RESET1*%
X114706400Y-121479733D02*
X114469333Y-121141066D01*
X114300000Y-121479733D02*
X114300000Y-120768533D01*
X114570933Y-120768533D01*
X114638666Y-120802400D01*
X114672533Y-120836266D01*
X114706400Y-120904000D01*
X114706400Y-121005600D01*
X114672533Y-121073333D01*
X114638666Y-121107200D01*
X114570933Y-121141066D01*
X114300000Y-121141066D01*
X115011200Y-121107200D02*
X115248266Y-121107200D01*
X115349866Y-121479733D02*
X115011200Y-121479733D01*
X115011200Y-120768533D01*
X115349866Y-120768533D01*
X115620800Y-121445866D02*
X115722400Y-121479733D01*
X115891733Y-121479733D01*
X115959466Y-121445866D01*
X115993333Y-121412000D01*
X116027200Y-121344266D01*
X116027200Y-121276533D01*
X115993333Y-121208800D01*
X115959466Y-121174933D01*
X115891733Y-121141066D01*
X115756266Y-121107200D01*
X115688533Y-121073333D01*
X115654666Y-121039466D01*
X115620800Y-120971733D01*
X115620800Y-120904000D01*
X115654666Y-120836266D01*
X115688533Y-120802400D01*
X115756266Y-120768533D01*
X115925600Y-120768533D01*
X116027200Y-120802400D01*
X116332000Y-121107200D02*
X116569066Y-121107200D01*
X116670666Y-121479733D02*
X116332000Y-121479733D01*
X116332000Y-120768533D01*
X116670666Y-120768533D01*
X116873866Y-120768533D02*
X117280266Y-120768533D01*
X117077066Y-121479733D02*
X117077066Y-120768533D01*
X117889866Y-121479733D02*
X117483466Y-121479733D01*
X117686666Y-121479733D02*
X117686666Y-120768533D01*
X117618933Y-120870133D01*
X117551200Y-120937866D01*
X117483466Y-120971733D01*
%TO.C,R15*%
X170755733Y-136855200D02*
X170417066Y-137092266D01*
X170755733Y-137261600D02*
X170044533Y-137261600D01*
X170044533Y-136990666D01*
X170078400Y-136922933D01*
X170112266Y-136889066D01*
X170180000Y-136855200D01*
X170281600Y-136855200D01*
X170349333Y-136889066D01*
X170383200Y-136922933D01*
X170417066Y-136990666D01*
X170417066Y-137261600D01*
X170755733Y-136177866D02*
X170755733Y-136584266D01*
X170755733Y-136381066D02*
X170044533Y-136381066D01*
X170146133Y-136448800D01*
X170213866Y-136516533D01*
X170247733Y-136584266D01*
X170044533Y-135534400D02*
X170044533Y-135873066D01*
X170383200Y-135906933D01*
X170349333Y-135873066D01*
X170315466Y-135805333D01*
X170315466Y-135636000D01*
X170349333Y-135568266D01*
X170383200Y-135534400D01*
X170450933Y-135500533D01*
X170620266Y-135500533D01*
X170688000Y-135534400D01*
X170721866Y-135568266D01*
X170755733Y-135636000D01*
X170755733Y-135805333D01*
X170721866Y-135873066D01*
X170688000Y-135906933D01*
%TO.C,R14*%
X184598733Y-133311900D02*
X184260066Y-133548966D01*
X184598733Y-133718300D02*
X183887533Y-133718300D01*
X183887533Y-133447366D01*
X183921400Y-133379633D01*
X183955266Y-133345766D01*
X184023000Y-133311900D01*
X184124600Y-133311900D01*
X184192333Y-133345766D01*
X184226200Y-133379633D01*
X184260066Y-133447366D01*
X184260066Y-133718300D01*
X184598733Y-132634566D02*
X184598733Y-133040966D01*
X184598733Y-132837766D02*
X183887533Y-132837766D01*
X183989133Y-132905500D01*
X184056866Y-132973233D01*
X184090733Y-133040966D01*
X184124600Y-132024966D02*
X184598733Y-132024966D01*
X183853666Y-132194300D02*
X184361666Y-132363633D01*
X184361666Y-131923366D01*
%TO.C,R13*%
X112335733Y-129172200D02*
X111997066Y-129409266D01*
X112335733Y-129578600D02*
X111624533Y-129578600D01*
X111624533Y-129307666D01*
X111658400Y-129239933D01*
X111692266Y-129206066D01*
X111760000Y-129172200D01*
X111861600Y-129172200D01*
X111929333Y-129206066D01*
X111963200Y-129239933D01*
X111997066Y-129307666D01*
X111997066Y-129578600D01*
X112335733Y-128494866D02*
X112335733Y-128901266D01*
X112335733Y-128698066D02*
X111624533Y-128698066D01*
X111726133Y-128765800D01*
X111793866Y-128833533D01*
X111827733Y-128901266D01*
X111624533Y-128257800D02*
X111624533Y-127817533D01*
X111895466Y-128054600D01*
X111895466Y-127953000D01*
X111929333Y-127885266D01*
X111963200Y-127851400D01*
X112030933Y-127817533D01*
X112200266Y-127817533D01*
X112268000Y-127851400D01*
X112301866Y-127885266D01*
X112335733Y-127953000D01*
X112335733Y-128156200D01*
X112301866Y-128223933D01*
X112268000Y-128257800D01*
%TO.C,R12*%
X119701733Y-132537200D02*
X119363066Y-132774266D01*
X119701733Y-132943600D02*
X118990533Y-132943600D01*
X118990533Y-132672666D01*
X119024400Y-132604933D01*
X119058266Y-132571066D01*
X119126000Y-132537200D01*
X119227600Y-132537200D01*
X119295333Y-132571066D01*
X119329200Y-132604933D01*
X119363066Y-132672666D01*
X119363066Y-132943600D01*
X119701733Y-131859866D02*
X119701733Y-132266266D01*
X119701733Y-132063066D02*
X118990533Y-132063066D01*
X119092133Y-132130800D01*
X119159866Y-132198533D01*
X119193733Y-132266266D01*
X119058266Y-131588933D02*
X119024400Y-131555066D01*
X118990533Y-131487333D01*
X118990533Y-131318000D01*
X119024400Y-131250266D01*
X119058266Y-131216400D01*
X119126000Y-131182533D01*
X119193733Y-131182533D01*
X119295333Y-131216400D01*
X119701733Y-131622800D01*
X119701733Y-131182533D01*
%TO.C,R11*%
X112335733Y-132537200D02*
X111997066Y-132774266D01*
X112335733Y-132943600D02*
X111624533Y-132943600D01*
X111624533Y-132672666D01*
X111658400Y-132604933D01*
X111692266Y-132571066D01*
X111760000Y-132537200D01*
X111861600Y-132537200D01*
X111929333Y-132571066D01*
X111963200Y-132604933D01*
X111997066Y-132672666D01*
X111997066Y-132943600D01*
X112335733Y-131859866D02*
X112335733Y-132266266D01*
X112335733Y-132063066D02*
X111624533Y-132063066D01*
X111726133Y-132130800D01*
X111793866Y-132198533D01*
X111827733Y-132266266D01*
X112335733Y-131182533D02*
X112335733Y-131588933D01*
X112335733Y-131385733D02*
X111624533Y-131385733D01*
X111726133Y-131453466D01*
X111793866Y-131521200D01*
X111827733Y-131588933D01*
%TO.C,R10*%
X119701733Y-136347200D02*
X119363066Y-136584266D01*
X119701733Y-136753600D02*
X118990533Y-136753600D01*
X118990533Y-136482666D01*
X119024400Y-136414933D01*
X119058266Y-136381066D01*
X119126000Y-136347200D01*
X119227600Y-136347200D01*
X119295333Y-136381066D01*
X119329200Y-136414933D01*
X119363066Y-136482666D01*
X119363066Y-136753600D01*
X119701733Y-135669866D02*
X119701733Y-136076266D01*
X119701733Y-135873066D02*
X118990533Y-135873066D01*
X119092133Y-135940800D01*
X119159866Y-136008533D01*
X119193733Y-136076266D01*
X118990533Y-135229600D02*
X118990533Y-135161866D01*
X119024400Y-135094133D01*
X119058266Y-135060266D01*
X119126000Y-135026400D01*
X119261466Y-134992533D01*
X119430800Y-134992533D01*
X119566266Y-135026400D01*
X119634000Y-135060266D01*
X119667866Y-135094133D01*
X119701733Y-135161866D01*
X119701733Y-135229600D01*
X119667866Y-135297333D01*
X119634000Y-135331200D01*
X119566266Y-135365066D01*
X119430800Y-135398933D01*
X119261466Y-135398933D01*
X119126000Y-135365066D01*
X119058266Y-135331200D01*
X119024400Y-135297333D01*
X118990533Y-135229600D01*
%TO.C,R9*%
X112335733Y-136008533D02*
X111997066Y-136245600D01*
X112335733Y-136414933D02*
X111624533Y-136414933D01*
X111624533Y-136144000D01*
X111658400Y-136076266D01*
X111692266Y-136042400D01*
X111760000Y-136008533D01*
X111861600Y-136008533D01*
X111929333Y-136042400D01*
X111963200Y-136076266D01*
X111997066Y-136144000D01*
X111997066Y-136414933D01*
X112335733Y-135669866D02*
X112335733Y-135534400D01*
X112301866Y-135466666D01*
X112268000Y-135432800D01*
X112166400Y-135365066D01*
X112030933Y-135331200D01*
X111760000Y-135331200D01*
X111692266Y-135365066D01*
X111658400Y-135398933D01*
X111624533Y-135466666D01*
X111624533Y-135602133D01*
X111658400Y-135669866D01*
X111692266Y-135703733D01*
X111760000Y-135737600D01*
X111929333Y-135737600D01*
X111997066Y-135703733D01*
X112030933Y-135669866D01*
X112064800Y-135602133D01*
X112064800Y-135466666D01*
X112030933Y-135398933D01*
X111997066Y-135365066D01*
X111929333Y-135331200D01*
%TO.C,R8*%
X141550466Y-121987733D02*
X141313400Y-121649066D01*
X141144066Y-121987733D02*
X141144066Y-121276533D01*
X141415000Y-121276533D01*
X141482733Y-121310400D01*
X141516600Y-121344266D01*
X141550466Y-121412000D01*
X141550466Y-121513600D01*
X141516600Y-121581333D01*
X141482733Y-121615200D01*
X141415000Y-121649066D01*
X141144066Y-121649066D01*
X141956866Y-121581333D02*
X141889133Y-121547466D01*
X141855266Y-121513600D01*
X141821400Y-121445866D01*
X141821400Y-121412000D01*
X141855266Y-121344266D01*
X141889133Y-121310400D01*
X141956866Y-121276533D01*
X142092333Y-121276533D01*
X142160066Y-121310400D01*
X142193933Y-121344266D01*
X142227800Y-121412000D01*
X142227800Y-121445866D01*
X142193933Y-121513600D01*
X142160066Y-121547466D01*
X142092333Y-121581333D01*
X141956866Y-121581333D01*
X141889133Y-121615200D01*
X141855266Y-121649066D01*
X141821400Y-121716800D01*
X141821400Y-121852266D01*
X141855266Y-121920000D01*
X141889133Y-121953866D01*
X141956866Y-121987733D01*
X142092333Y-121987733D01*
X142160066Y-121953866D01*
X142193933Y-121920000D01*
X142227800Y-121852266D01*
X142227800Y-121716800D01*
X142193933Y-121649066D01*
X142160066Y-121615200D01*
X142092333Y-121581333D01*
%TO.C,R7*%
X144496366Y-131334933D02*
X144259300Y-130996266D01*
X144089966Y-131334933D02*
X144089966Y-130623733D01*
X144360900Y-130623733D01*
X144428633Y-130657600D01*
X144462500Y-130691466D01*
X144496366Y-130759200D01*
X144496366Y-130860800D01*
X144462500Y-130928533D01*
X144428633Y-130962400D01*
X144360900Y-130996266D01*
X144089966Y-130996266D01*
X144733433Y-130623733D02*
X145207566Y-130623733D01*
X144902766Y-131334933D01*
%TO.C,R6*%
X141613466Y-124489633D02*
X141376400Y-124150966D01*
X141207066Y-124489633D02*
X141207066Y-123778433D01*
X141478000Y-123778433D01*
X141545733Y-123812300D01*
X141579600Y-123846166D01*
X141613466Y-123913900D01*
X141613466Y-124015500D01*
X141579600Y-124083233D01*
X141545733Y-124117100D01*
X141478000Y-124150966D01*
X141207066Y-124150966D01*
X142223066Y-123778433D02*
X142087600Y-123778433D01*
X142019866Y-123812300D01*
X141986000Y-123846166D01*
X141918266Y-123947766D01*
X141884400Y-124083233D01*
X141884400Y-124354166D01*
X141918266Y-124421900D01*
X141952133Y-124455766D01*
X142019866Y-124489633D01*
X142155333Y-124489633D01*
X142223066Y-124455766D01*
X142256933Y-124421900D01*
X142290800Y-124354166D01*
X142290800Y-124184833D01*
X142256933Y-124117100D01*
X142223066Y-124083233D01*
X142155333Y-124049366D01*
X142019866Y-124049366D01*
X141952133Y-124083233D01*
X141918266Y-124117100D01*
X141884400Y-124184833D01*
%TO.C,R5*%
D10*
X178981100Y-129193471D02*
X178777900Y-128903185D01*
X178632757Y-129193471D02*
X178632757Y-128583871D01*
X178864985Y-128583871D01*
X178923042Y-128612900D01*
X178952071Y-128641928D01*
X178981100Y-128699985D01*
X178981100Y-128787071D01*
X178952071Y-128845128D01*
X178923042Y-128874157D01*
X178864985Y-128903185D01*
X178632757Y-128903185D01*
X179532642Y-128583871D02*
X179242357Y-128583871D01*
X179213328Y-128874157D01*
X179242357Y-128845128D01*
X179300414Y-128816100D01*
X179445557Y-128816100D01*
X179503614Y-128845128D01*
X179532642Y-128874157D01*
X179561671Y-128932214D01*
X179561671Y-129077357D01*
X179532642Y-129135414D01*
X179503614Y-129164442D01*
X179445557Y-129193471D01*
X179300414Y-129193471D01*
X179242357Y-129164442D01*
X179213328Y-129135414D01*
%TO.C,R4*%
X179019200Y-127504371D02*
X178816000Y-127214085D01*
X178670857Y-127504371D02*
X178670857Y-126894771D01*
X178903085Y-126894771D01*
X178961142Y-126923800D01*
X178990171Y-126952828D01*
X179019200Y-127010885D01*
X179019200Y-127097971D01*
X178990171Y-127156028D01*
X178961142Y-127185057D01*
X178903085Y-127214085D01*
X178670857Y-127214085D01*
X179541714Y-127097971D02*
X179541714Y-127504371D01*
X179396571Y-126865742D02*
X179251428Y-127301171D01*
X179628800Y-127301171D01*
%TO.C,R3*%
D13*
X141578294Y-127159913D02*
X141341228Y-126821246D01*
X141171894Y-127159913D02*
X141171894Y-126448713D01*
X141442828Y-126448713D01*
X141510561Y-126482580D01*
X141544428Y-126516446D01*
X141578294Y-126584180D01*
X141578294Y-126685780D01*
X141544428Y-126753513D01*
X141510561Y-126787380D01*
X141442828Y-126821246D01*
X141171894Y-126821246D01*
X141815361Y-126448713D02*
X142255628Y-126448713D01*
X142018561Y-126719646D01*
X142120161Y-126719646D01*
X142187894Y-126753513D01*
X142221761Y-126787380D01*
X142255628Y-126855113D01*
X142255628Y-127024446D01*
X142221761Y-127092180D01*
X142187894Y-127126046D01*
X142120161Y-127159913D01*
X141916961Y-127159913D01*
X141849228Y-127126046D01*
X141815361Y-127092180D01*
%TO.C,R2*%
X109101466Y-122495733D02*
X108864400Y-122157066D01*
X108695066Y-122495733D02*
X108695066Y-121784533D01*
X108966000Y-121784533D01*
X109033733Y-121818400D01*
X109067600Y-121852266D01*
X109101466Y-121920000D01*
X109101466Y-122021600D01*
X109067600Y-122089333D01*
X109033733Y-122123200D01*
X108966000Y-122157066D01*
X108695066Y-122157066D01*
X109372400Y-121852266D02*
X109406266Y-121818400D01*
X109474000Y-121784533D01*
X109643333Y-121784533D01*
X109711066Y-121818400D01*
X109744933Y-121852266D01*
X109778800Y-121920000D01*
X109778800Y-121987733D01*
X109744933Y-122089333D01*
X109338533Y-122495733D01*
X109778800Y-122495733D01*
%TO.C,R1*%
X164219466Y-122495733D02*
X163982400Y-122157066D01*
X163813066Y-122495733D02*
X163813066Y-121784533D01*
X164084000Y-121784533D01*
X164151733Y-121818400D01*
X164185600Y-121852266D01*
X164219466Y-121920000D01*
X164219466Y-122021600D01*
X164185600Y-122089333D01*
X164151733Y-122123200D01*
X164084000Y-122157066D01*
X163813066Y-122157066D01*
X164896800Y-122495733D02*
X164490400Y-122495733D01*
X164693600Y-122495733D02*
X164693600Y-121784533D01*
X164625866Y-121886133D01*
X164558133Y-121953866D01*
X164490400Y-121987733D01*
%TO.C,Q3*%
X115756266Y-128913466D02*
X115688533Y-128879600D01*
X115620800Y-128811866D01*
X115519200Y-128710266D01*
X115451466Y-128676400D01*
X115383733Y-128676400D01*
X115417600Y-128845733D02*
X115349866Y-128811866D01*
X115282133Y-128744133D01*
X115248266Y-128608666D01*
X115248266Y-128371600D01*
X115282133Y-128236133D01*
X115349866Y-128168400D01*
X115417600Y-128134533D01*
X115553066Y-128134533D01*
X115620800Y-128168400D01*
X115688533Y-128236133D01*
X115722400Y-128371600D01*
X115722400Y-128608666D01*
X115688533Y-128744133D01*
X115620800Y-128811866D01*
X115553066Y-128845733D01*
X115417600Y-128845733D01*
X115959466Y-128134533D02*
X116399733Y-128134533D01*
X116162666Y-128405466D01*
X116264266Y-128405466D01*
X116332000Y-128439333D01*
X116365866Y-128473200D01*
X116399733Y-128540933D01*
X116399733Y-128710266D01*
X116365866Y-128778000D01*
X116332000Y-128811866D01*
X116264266Y-128845733D01*
X116061066Y-128845733D01*
X115993333Y-128811866D01*
X115959466Y-128778000D01*
%TO.C,Q2*%
X177402066Y-134349066D02*
X177334333Y-134315200D01*
X177266600Y-134247466D01*
X177165000Y-134145866D01*
X177097266Y-134112000D01*
X177029533Y-134112000D01*
X177063400Y-134281333D02*
X176995666Y-134247466D01*
X176927933Y-134179733D01*
X176894066Y-134044266D01*
X176894066Y-133807200D01*
X176927933Y-133671733D01*
X176995666Y-133604000D01*
X177063400Y-133570133D01*
X177198866Y-133570133D01*
X177266600Y-133604000D01*
X177334333Y-133671733D01*
X177368200Y-133807200D01*
X177368200Y-134044266D01*
X177334333Y-134179733D01*
X177266600Y-134247466D01*
X177198866Y-134281333D01*
X177063400Y-134281333D01*
X177639133Y-133637866D02*
X177673000Y-133604000D01*
X177740733Y-133570133D01*
X177910066Y-133570133D01*
X177977800Y-133604000D01*
X178011666Y-133637866D01*
X178045533Y-133705600D01*
X178045533Y-133773333D01*
X178011666Y-133874933D01*
X177605266Y-134281333D01*
X178045533Y-134281333D01*
%TO.C,Q1*%
X177449566Y-122893666D02*
X177381833Y-122859800D01*
X177314100Y-122792066D01*
X177212500Y-122690466D01*
X177144766Y-122656600D01*
X177077033Y-122656600D01*
X177110900Y-122825933D02*
X177043166Y-122792066D01*
X176975433Y-122724333D01*
X176941566Y-122588866D01*
X176941566Y-122351800D01*
X176975433Y-122216333D01*
X177043166Y-122148600D01*
X177110900Y-122114733D01*
X177246366Y-122114733D01*
X177314100Y-122148600D01*
X177381833Y-122216333D01*
X177415700Y-122351800D01*
X177415700Y-122588866D01*
X177381833Y-122724333D01*
X177314100Y-122792066D01*
X177246366Y-122825933D01*
X177110900Y-122825933D01*
X178093033Y-122825933D02*
X177686633Y-122825933D01*
X177889833Y-122825933D02*
X177889833Y-122114733D01*
X177822100Y-122216333D01*
X177754366Y-122284066D01*
X177686633Y-122317933D01*
%TO.C,OLED1*%
X172110400Y-122248533D02*
X172245866Y-122248533D01*
X172313600Y-122282400D01*
X172381333Y-122350133D01*
X172415200Y-122485600D01*
X172415200Y-122722666D01*
X172381333Y-122858133D01*
X172313600Y-122925866D01*
X172245866Y-122959733D01*
X172110400Y-122959733D01*
X172042666Y-122925866D01*
X171974933Y-122858133D01*
X171941066Y-122722666D01*
X171941066Y-122485600D01*
X171974933Y-122350133D01*
X172042666Y-122282400D01*
X172110400Y-122248533D01*
X173058666Y-122959733D02*
X172720000Y-122959733D01*
X172720000Y-122248533D01*
X173295733Y-122587200D02*
X173532800Y-122587200D01*
X173634400Y-122959733D02*
X173295733Y-122959733D01*
X173295733Y-122248533D01*
X173634400Y-122248533D01*
X173939200Y-122959733D02*
X173939200Y-122248533D01*
X174108533Y-122248533D01*
X174210133Y-122282400D01*
X174277866Y-122350133D01*
X174311733Y-122417866D01*
X174345600Y-122553333D01*
X174345600Y-122654933D01*
X174311733Y-122790400D01*
X174277866Y-122858133D01*
X174210133Y-122925866D01*
X174108533Y-122959733D01*
X173939200Y-122959733D01*
X175022933Y-122959733D02*
X174616533Y-122959733D01*
X174819733Y-122959733D02*
X174819733Y-122248533D01*
X174752000Y-122350133D01*
X174684266Y-122417866D01*
X174616533Y-122451733D01*
%TO.C,microSD1*%
X124019733Y-132655733D02*
X123545600Y-132655733D01*
X123613333Y-132655733D02*
X123579466Y-132621866D01*
X123545600Y-132554133D01*
X123545600Y-132452533D01*
X123579466Y-132384800D01*
X123647200Y-132350933D01*
X124019733Y-132350933D01*
X123647200Y-132350933D02*
X123579466Y-132317066D01*
X123545600Y-132249333D01*
X123545600Y-132147733D01*
X123579466Y-132080000D01*
X123647200Y-132046133D01*
X124019733Y-132046133D01*
X124019733Y-131707466D02*
X123545600Y-131707466D01*
X123308533Y-131707466D02*
X123342400Y-131741333D01*
X123376266Y-131707466D01*
X123342400Y-131673600D01*
X123308533Y-131707466D01*
X123376266Y-131707466D01*
X123985866Y-131064000D02*
X124019733Y-131131733D01*
X124019733Y-131267200D01*
X123985866Y-131334933D01*
X123952000Y-131368800D01*
X123884266Y-131402666D01*
X123681066Y-131402666D01*
X123613333Y-131368800D01*
X123579466Y-131334933D01*
X123545600Y-131267200D01*
X123545600Y-131131733D01*
X123579466Y-131064000D01*
X124019733Y-130759200D02*
X123545600Y-130759200D01*
X123681066Y-130759200D02*
X123613333Y-130725333D01*
X123579466Y-130691466D01*
X123545600Y-130623733D01*
X123545600Y-130556000D01*
X124019733Y-130217333D02*
X123985866Y-130285066D01*
X123952000Y-130318933D01*
X123884266Y-130352800D01*
X123681066Y-130352800D01*
X123613333Y-130318933D01*
X123579466Y-130285066D01*
X123545600Y-130217333D01*
X123545600Y-130115733D01*
X123579466Y-130048000D01*
X123613333Y-130014133D01*
X123681066Y-129980266D01*
X123884266Y-129980266D01*
X123952000Y-130014133D01*
X123985866Y-130048000D01*
X124019733Y-130115733D01*
X124019733Y-130217333D01*
X123985866Y-129709333D02*
X124019733Y-129607733D01*
X124019733Y-129438400D01*
X123985866Y-129370666D01*
X123952000Y-129336800D01*
X123884266Y-129302933D01*
X123816533Y-129302933D01*
X123748800Y-129336800D01*
X123714933Y-129370666D01*
X123681066Y-129438400D01*
X123647200Y-129573866D01*
X123613333Y-129641600D01*
X123579466Y-129675466D01*
X123511733Y-129709333D01*
X123444000Y-129709333D01*
X123376266Y-129675466D01*
X123342400Y-129641600D01*
X123308533Y-129573866D01*
X123308533Y-129404533D01*
X123342400Y-129302933D01*
X124019733Y-128998133D02*
X123308533Y-128998133D01*
X123308533Y-128828800D01*
X123342400Y-128727200D01*
X123410133Y-128659466D01*
X123477866Y-128625600D01*
X123613333Y-128591733D01*
X123714933Y-128591733D01*
X123850400Y-128625600D01*
X123918133Y-128659466D01*
X123985866Y-128727200D01*
X124019733Y-128828800D01*
X124019733Y-128998133D01*
X124019733Y-127914400D02*
X124019733Y-128320800D01*
X124019733Y-128117600D02*
X123308533Y-128117600D01*
X123410133Y-128185333D01*
X123477866Y-128253066D01*
X123511733Y-128320800D01*
%TO.C,HALL_SENSOR1*%
X187179633Y-130547533D02*
X187179633Y-129836333D01*
X187179633Y-130175000D02*
X187586033Y-130175000D01*
X187586033Y-130547533D02*
X187586033Y-129836333D01*
X187890833Y-130344333D02*
X188229500Y-130344333D01*
X187823100Y-130547533D02*
X188060166Y-129836333D01*
X188297233Y-130547533D01*
X188872966Y-130547533D02*
X188534300Y-130547533D01*
X188534300Y-129836333D01*
X189448700Y-130547533D02*
X189110033Y-130547533D01*
X189110033Y-129836333D01*
X189516433Y-130615266D02*
X190058300Y-130615266D01*
X190193766Y-130513666D02*
X190295366Y-130547533D01*
X190464700Y-130547533D01*
X190532433Y-130513666D01*
X190566300Y-130479800D01*
X190600166Y-130412066D01*
X190600166Y-130344333D01*
X190566300Y-130276600D01*
X190532433Y-130242733D01*
X190464700Y-130208866D01*
X190329233Y-130175000D01*
X190261500Y-130141133D01*
X190227633Y-130107266D01*
X190193766Y-130039533D01*
X190193766Y-129971800D01*
X190227633Y-129904066D01*
X190261500Y-129870200D01*
X190329233Y-129836333D01*
X190498566Y-129836333D01*
X190600166Y-129870200D01*
X190904966Y-130175000D02*
X191142033Y-130175000D01*
X191243633Y-130547533D02*
X190904966Y-130547533D01*
X190904966Y-129836333D01*
X191243633Y-129836333D01*
X191548433Y-130547533D02*
X191548433Y-129836333D01*
X191954833Y-130547533D01*
X191954833Y-129836333D01*
X192259633Y-130513666D02*
X192361233Y-130547533D01*
X192530566Y-130547533D01*
X192598300Y-130513666D01*
X192632166Y-130479800D01*
X192666033Y-130412066D01*
X192666033Y-130344333D01*
X192632166Y-130276600D01*
X192598300Y-130242733D01*
X192530566Y-130208866D01*
X192395100Y-130175000D01*
X192327366Y-130141133D01*
X192293500Y-130107266D01*
X192259633Y-130039533D01*
X192259633Y-129971800D01*
X192293500Y-129904066D01*
X192327366Y-129870200D01*
X192395100Y-129836333D01*
X192564433Y-129836333D01*
X192666033Y-129870200D01*
X193106300Y-129836333D02*
X193241766Y-129836333D01*
X193309500Y-129870200D01*
X193377233Y-129937933D01*
X193411100Y-130073400D01*
X193411100Y-130310466D01*
X193377233Y-130445933D01*
X193309500Y-130513666D01*
X193241766Y-130547533D01*
X193106300Y-130547533D01*
X193038566Y-130513666D01*
X192970833Y-130445933D01*
X192936966Y-130310466D01*
X192936966Y-130073400D01*
X192970833Y-129937933D01*
X193038566Y-129870200D01*
X193106300Y-129836333D01*
X194122300Y-130547533D02*
X193885233Y-130208866D01*
X193715900Y-130547533D02*
X193715900Y-129836333D01*
X193986833Y-129836333D01*
X194054566Y-129870200D01*
X194088433Y-129904066D01*
X194122300Y-129971800D01*
X194122300Y-130073400D01*
X194088433Y-130141133D01*
X194054566Y-130175000D01*
X193986833Y-130208866D01*
X193715900Y-130208866D01*
X194799633Y-130547533D02*
X194393233Y-130547533D01*
X194596433Y-130547533D02*
X194596433Y-129836333D01*
X194528700Y-129937933D01*
X194460966Y-130005666D01*
X194393233Y-130039533D01*
%TO.C,FTDI1*%
X101837066Y-121361200D02*
X101600000Y-121361200D01*
X101600000Y-121733733D02*
X101600000Y-121022533D01*
X101938666Y-121022533D01*
X102108000Y-121022533D02*
X102514400Y-121022533D01*
X102311200Y-121733733D02*
X102311200Y-121022533D01*
X102751466Y-121733733D02*
X102751466Y-121022533D01*
X102920800Y-121022533D01*
X103022400Y-121056400D01*
X103090133Y-121124133D01*
X103124000Y-121191866D01*
X103157866Y-121327333D01*
X103157866Y-121428933D01*
X103124000Y-121564400D01*
X103090133Y-121632133D01*
X103022400Y-121699866D01*
X102920800Y-121733733D01*
X102751466Y-121733733D01*
X103462666Y-121733733D02*
X103462666Y-121022533D01*
X104173866Y-121733733D02*
X103767466Y-121733733D01*
X103970666Y-121733733D02*
X103970666Y-121022533D01*
X103902933Y-121124133D01*
X103835200Y-121191866D01*
X103767466Y-121225733D01*
%TO.C,C8*%
X151265466Y-122402600D02*
X151231600Y-122436466D01*
X151130000Y-122470333D01*
X151062266Y-122470333D01*
X150960666Y-122436466D01*
X150892933Y-122368733D01*
X150859066Y-122301000D01*
X150825200Y-122165533D01*
X150825200Y-122063933D01*
X150859066Y-121928466D01*
X150892933Y-121860733D01*
X150960666Y-121793000D01*
X151062266Y-121759133D01*
X151130000Y-121759133D01*
X151231600Y-121793000D01*
X151265466Y-121826866D01*
X151671866Y-122063933D02*
X151604133Y-122030066D01*
X151570266Y-121996200D01*
X151536400Y-121928466D01*
X151536400Y-121894600D01*
X151570266Y-121826866D01*
X151604133Y-121793000D01*
X151671866Y-121759133D01*
X151807333Y-121759133D01*
X151875066Y-121793000D01*
X151908933Y-121826866D01*
X151942800Y-121894600D01*
X151942800Y-121928466D01*
X151908933Y-121996200D01*
X151875066Y-122030066D01*
X151807333Y-122063933D01*
X151671866Y-122063933D01*
X151604133Y-122097800D01*
X151570266Y-122131666D01*
X151536400Y-122199400D01*
X151536400Y-122334866D01*
X151570266Y-122402600D01*
X151604133Y-122436466D01*
X151671866Y-122470333D01*
X151807333Y-122470333D01*
X151875066Y-122436466D01*
X151908933Y-122402600D01*
X151942800Y-122334866D01*
X151942800Y-122199400D01*
X151908933Y-122131666D01*
X151875066Y-122097800D01*
X151807333Y-122063933D01*
%TO.C,C7*%
X122682000Y-125086533D02*
X122715866Y-125120400D01*
X122749733Y-125222000D01*
X122749733Y-125289733D01*
X122715866Y-125391333D01*
X122648133Y-125459066D01*
X122580400Y-125492933D01*
X122444933Y-125526800D01*
X122343333Y-125526800D01*
X122207866Y-125492933D01*
X122140133Y-125459066D01*
X122072400Y-125391333D01*
X122038533Y-125289733D01*
X122038533Y-125222000D01*
X122072400Y-125120400D01*
X122106266Y-125086533D01*
X122038533Y-124849466D02*
X122038533Y-124375333D01*
X122749733Y-124680133D01*
%TO.C,C6*%
X122174000Y-128642533D02*
X122207866Y-128676400D01*
X122241733Y-128778000D01*
X122241733Y-128845733D01*
X122207866Y-128947333D01*
X122140133Y-129015066D01*
X122072400Y-129048933D01*
X121936933Y-129082800D01*
X121835333Y-129082800D01*
X121699866Y-129048933D01*
X121632133Y-129015066D01*
X121564400Y-128947333D01*
X121530533Y-128845733D01*
X121530533Y-128778000D01*
X121564400Y-128676400D01*
X121598266Y-128642533D01*
X121530533Y-128032933D02*
X121530533Y-128168400D01*
X121564400Y-128236133D01*
X121598266Y-128270000D01*
X121699866Y-128337733D01*
X121835333Y-128371600D01*
X122106266Y-128371600D01*
X122174000Y-128337733D01*
X122207866Y-128303866D01*
X122241733Y-128236133D01*
X122241733Y-128100666D01*
X122207866Y-128032933D01*
X122174000Y-127999066D01*
X122106266Y-127965200D01*
X121936933Y-127965200D01*
X121869200Y-127999066D01*
X121835333Y-128032933D01*
X121801466Y-128100666D01*
X121801466Y-128236133D01*
X121835333Y-128303866D01*
X121869200Y-128337733D01*
X121936933Y-128371600D01*
%TO.C,C5*%
X183426100Y-125302433D02*
X183459966Y-125336300D01*
X183493833Y-125437900D01*
X183493833Y-125505633D01*
X183459966Y-125607233D01*
X183392233Y-125674966D01*
X183324500Y-125708833D01*
X183189033Y-125742700D01*
X183087433Y-125742700D01*
X182951966Y-125708833D01*
X182884233Y-125674966D01*
X182816500Y-125607233D01*
X182782633Y-125505633D01*
X182782633Y-125437900D01*
X182816500Y-125336300D01*
X182850366Y-125302433D01*
X182782633Y-124658966D02*
X182782633Y-124997633D01*
X183121300Y-125031500D01*
X183087433Y-124997633D01*
X183053566Y-124929900D01*
X183053566Y-124760566D01*
X183087433Y-124692833D01*
X183121300Y-124658966D01*
X183189033Y-124625100D01*
X183358366Y-124625100D01*
X183426100Y-124658966D01*
X183459966Y-124692833D01*
X183493833Y-124760566D01*
X183493833Y-124929900D01*
X183459966Y-124997633D01*
X183426100Y-125031500D01*
%TO.C,C4*%
X160858200Y-130636433D02*
X160892066Y-130670300D01*
X160925933Y-130771900D01*
X160925933Y-130839633D01*
X160892066Y-130941233D01*
X160824333Y-131008966D01*
X160756600Y-131042833D01*
X160621133Y-131076700D01*
X160519533Y-131076700D01*
X160384066Y-131042833D01*
X160316333Y-131008966D01*
X160248600Y-130941233D01*
X160214733Y-130839633D01*
X160214733Y-130771900D01*
X160248600Y-130670300D01*
X160282466Y-130636433D01*
X160451800Y-130026833D02*
X160925933Y-130026833D01*
X160180866Y-130196166D02*
X160688866Y-130365500D01*
X160688866Y-129925233D01*
%TO.C,C3*%
X181140100Y-125251633D02*
X181173966Y-125285500D01*
X181207833Y-125387100D01*
X181207833Y-125454833D01*
X181173966Y-125556433D01*
X181106233Y-125624166D01*
X181038500Y-125658033D01*
X180903033Y-125691900D01*
X180801433Y-125691900D01*
X180665966Y-125658033D01*
X180598233Y-125624166D01*
X180530500Y-125556433D01*
X180496633Y-125454833D01*
X180496633Y-125387100D01*
X180530500Y-125285500D01*
X180564366Y-125251633D01*
X180496633Y-125014566D02*
X180496633Y-124574300D01*
X180767566Y-124811366D01*
X180767566Y-124709766D01*
X180801433Y-124642033D01*
X180835300Y-124608166D01*
X180903033Y-124574300D01*
X181072366Y-124574300D01*
X181140100Y-124608166D01*
X181173966Y-124642033D01*
X181207833Y-124709766D01*
X181207833Y-124912966D01*
X181173966Y-124980700D01*
X181140100Y-125014566D01*
%TO.C,C2*%
X108847466Y-137414000D02*
X108813600Y-137447866D01*
X108712000Y-137481733D01*
X108644266Y-137481733D01*
X108542666Y-137447866D01*
X108474933Y-137380133D01*
X108441066Y-137312400D01*
X108407200Y-137176933D01*
X108407200Y-137075333D01*
X108441066Y-136939866D01*
X108474933Y-136872133D01*
X108542666Y-136804400D01*
X108644266Y-136770533D01*
X108712000Y-136770533D01*
X108813600Y-136804400D01*
X108847466Y-136838266D01*
X109118400Y-136838266D02*
X109152266Y-136804400D01*
X109220000Y-136770533D01*
X109389333Y-136770533D01*
X109457066Y-136804400D01*
X109490933Y-136838266D01*
X109524800Y-136906000D01*
X109524800Y-136973733D01*
X109490933Y-137075333D01*
X109084533Y-137481733D01*
X109524800Y-137481733D01*
%TO.C,C1*%
X164185600Y-124705533D02*
X164219466Y-124739400D01*
X164253333Y-124841000D01*
X164253333Y-124908733D01*
X164219466Y-125010333D01*
X164151733Y-125078066D01*
X164084000Y-125111933D01*
X163948533Y-125145800D01*
X163846933Y-125145800D01*
X163711466Y-125111933D01*
X163643733Y-125078066D01*
X163576000Y-125010333D01*
X163542133Y-124908733D01*
X163542133Y-124841000D01*
X163576000Y-124739400D01*
X163609866Y-124705533D01*
X164253333Y-124028200D02*
X164253333Y-124434600D01*
X164253333Y-124231400D02*
X163542133Y-124231400D01*
X163643733Y-124299133D01*
X163711466Y-124366866D01*
X163745333Y-124434600D01*
%TO.C,C9*%
D10*
X164448066Y-128422400D02*
X164414200Y-128456266D01*
X164312600Y-128490133D01*
X164244866Y-128490133D01*
X164143266Y-128456266D01*
X164075533Y-128388533D01*
X164041666Y-128320800D01*
X164007800Y-128185333D01*
X164007800Y-128083733D01*
X164041666Y-127948266D01*
X164075533Y-127880533D01*
X164143266Y-127812800D01*
X164244866Y-127778933D01*
X164312600Y-127778933D01*
X164414200Y-127812800D01*
X164448066Y-127846666D01*
X164786733Y-128490133D02*
X164922200Y-128490133D01*
X164989933Y-128456266D01*
X165023800Y-128422400D01*
X165091533Y-128320800D01*
X165125400Y-128185333D01*
X165125400Y-127914400D01*
X165091533Y-127846666D01*
X165057666Y-127812800D01*
X164989933Y-127778933D01*
X164854466Y-127778933D01*
X164786733Y-127812800D01*
X164752866Y-127846666D01*
X164719000Y-127914400D01*
X164719000Y-128083733D01*
X164752866Y-128151466D01*
X164786733Y-128185333D01*
X164854466Y-128219200D01*
X164989933Y-128219200D01*
X165057666Y-128185333D01*
X165091533Y-128151466D01*
X165125400Y-128083733D01*
%TO.C,C10*%
X164465000Y-133985000D02*
X164431133Y-134018866D01*
X164329533Y-134052733D01*
X164261800Y-134052733D01*
X164160200Y-134018866D01*
X164092466Y-133951133D01*
X164058600Y-133883400D01*
X164024733Y-133747933D01*
X164024733Y-133646333D01*
X164058600Y-133510866D01*
X164092466Y-133443133D01*
X164160200Y-133375400D01*
X164261800Y-133341533D01*
X164329533Y-133341533D01*
X164431133Y-133375400D01*
X164465000Y-133409266D01*
X165142333Y-134052733D02*
X164735933Y-134052733D01*
X164939133Y-134052733D02*
X164939133Y-133341533D01*
X164871400Y-133443133D01*
X164803666Y-133510866D01*
X164735933Y-133544733D01*
X165582600Y-133341533D02*
X165650333Y-133341533D01*
X165718066Y-133375400D01*
X165751933Y-133409266D01*
X165785800Y-133477000D01*
X165819666Y-133612466D01*
X165819666Y-133781800D01*
X165785800Y-133917266D01*
X165751933Y-133985000D01*
X165718066Y-134018866D01*
X165650333Y-134052733D01*
X165582600Y-134052733D01*
X165514866Y-134018866D01*
X165481000Y-133985000D01*
X165447133Y-133917266D01*
X165413266Y-133781800D01*
X165413266Y-133612466D01*
X165447133Y-133477000D01*
X165481000Y-133409266D01*
X165514866Y-133375400D01*
X165582600Y-133341533D01*
%TO.C,J2*%
D13*
X161032866Y-123838280D02*
X161032866Y-124552566D01*
X160985247Y-124695423D01*
X160890009Y-124790661D01*
X160747152Y-124838280D01*
X160651914Y-124838280D01*
X161461438Y-123933519D02*
X161509057Y-123885900D01*
X161604295Y-123838280D01*
X161842390Y-123838280D01*
X161937628Y-123885900D01*
X161985247Y-123933519D01*
X162032866Y-124028757D01*
X162032866Y-124123995D01*
X161985247Y-124266852D01*
X161413819Y-124838280D01*
X162032866Y-124838280D01*
%TO.C,R18*%
D10*
X147385314Y-131314371D02*
X147182114Y-131024085D01*
X147036971Y-131314371D02*
X147036971Y-130704771D01*
X147269200Y-130704771D01*
X147327257Y-130733800D01*
X147356285Y-130762828D01*
X147385314Y-130820885D01*
X147385314Y-130907971D01*
X147356285Y-130966028D01*
X147327257Y-130995057D01*
X147269200Y-131024085D01*
X147036971Y-131024085D01*
X147965885Y-131314371D02*
X147617542Y-131314371D01*
X147791714Y-131314371D02*
X147791714Y-130704771D01*
X147733657Y-130791857D01*
X147675600Y-130849914D01*
X147617542Y-130878942D01*
X148314228Y-130966028D02*
X148256171Y-130937000D01*
X148227142Y-130907971D01*
X148198114Y-130849914D01*
X148198114Y-130820885D01*
X148227142Y-130762828D01*
X148256171Y-130733800D01*
X148314228Y-130704771D01*
X148430342Y-130704771D01*
X148488400Y-130733800D01*
X148517428Y-130762828D01*
X148546457Y-130820885D01*
X148546457Y-130849914D01*
X148517428Y-130907971D01*
X148488400Y-130937000D01*
X148430342Y-130966028D01*
X148314228Y-130966028D01*
X148256171Y-130995057D01*
X148227142Y-131024085D01*
X148198114Y-131082142D01*
X148198114Y-131198257D01*
X148227142Y-131256314D01*
X148256171Y-131285342D01*
X148314228Y-131314371D01*
X148430342Y-131314371D01*
X148488400Y-131285342D01*
X148517428Y-131256314D01*
X148546457Y-131198257D01*
X148546457Y-131082142D01*
X148517428Y-131024085D01*
X148488400Y-130995057D01*
X148430342Y-130966028D01*
%TD*%
M02*
