M48
; DRILL file {KiCad (5.1.10)-1} date 07/02/21 15:13:46
; FORMAT={-:-/ absolute / inch / decimal}
; #@! TF.CreationDate,2021-07-02T15:13:46-07:00
; #@! TF.GenerationSoftware,Kicad,Pcbnew,(5.1.10)-1
; #@! TF.FileFunction,Plated,1,2,PTH
FMAT,2
INCH
T1C0.0130
T2C0.0295
T3C0.0394
%
G90
G05
T1
X4.17Y-5.28
X4.18Y-5.08
X4.23Y-4.9
X4.25Y-5.28
X4.37Y-4.96
X4.37Y-5.04
X4.39Y-4.87
X4.44Y-4.87
X4.49Y-4.96
X4.49Y-5.007
X4.51Y-5.39
X4.6695Y-5.0575
X4.69Y-5.007
X4.7Y-4.89
X4.71Y-5.41
X4.79Y-4.99
X4.92Y-5.4
X4.93Y-4.84
X4.93Y-5.19
X5.0Y-5.04
X5.25Y-4.84
X5.25Y-4.89
X5.31Y-4.92
X5.36Y-4.96
X5.38Y-4.92
X5.39Y-5.4
X5.41Y-5.25
X5.42Y-5.04
X5.51Y-5.38
X5.5595Y-5.2895
X5.6087Y-5.0896
X5.6131Y-5.2135
X5.6155Y-5.1655
X5.64Y-5.1
X5.644Y-4.85
X5.6495Y-4.8016
X5.65Y-4.93
X5.69Y-5.01
X5.6901Y-4.8899
X5.746Y-4.82
X5.82Y-4.95
X5.84Y-4.99
X5.8785Y-4.8105
X5.9265Y-5.2245
X5.939Y-4.891
X5.987Y-5.14
X5.99Y-5.28
X6.0041Y-5.0045
X6.0427Y-5.3027
X6.08Y-4.9475
X6.08Y-5.2875
X6.119Y-5.28
X6.12Y-4.84
X6.14Y-4.9475
X6.14Y-5.0045
X6.152Y-5.2795
X6.17Y-5.31
X6.18Y-4.9925
X6.2Y-5.1
X6.232Y-5.2855
X6.2382Y-5.3235
X6.24Y-5.39
X6.25Y-4.85
X6.275Y-5.347
X6.324Y-4.963
X6.3365Y-5.2165
X6.354Y-4.992
X6.387Y-4.9151
X6.397Y-5.4175
X6.4085Y-4.89
X6.4135Y-4.9405
X6.4685Y-4.781
X6.4925Y-5.424
X6.5225Y-5.0375
X6.568Y-4.845
X6.57Y-5.224
X6.5896Y-5.3553
X6.613Y-5.332
X6.627Y-4.977
X6.661Y-4.845
X6.687Y-4.9395
X6.689Y-5.07
X6.7175Y-5.2655
X6.7221Y-5.3267
X6.7255Y-4.9965
X6.741Y-4.916
X6.76Y-5.2675
X6.7645Y-4.951
X6.775Y-4.9995
X6.7824Y-5.1959
X6.8749Y-5.3054
X6.9Y-5.284
X6.907Y-5.0195
X7.057Y-5.1155
X7.0585Y-5.0325
X7.0591Y-5.1747
X7.164Y-4.9375
X7.1835Y-5.1365
X7.2045Y-5.245
X7.2088Y-5.2794
X7.29Y-5.27
X7.32Y-5.25
X7.338Y-5.128
X7.425Y-5.1275
T2
X4.25Y-5.15
X4.25Y-5.2287
X7.4005Y-4.937
X7.4005Y-5.217
X7.4792Y-4.937
X7.4792Y-5.217
X7.558Y-4.937
X7.558Y-5.217
X7.6367Y-4.937
X7.6367Y-5.217
T3
X4.05Y-4.85
X4.05Y-4.95
X4.05Y-5.05
X4.05Y-5.15
X4.05Y-5.25
X4.05Y-5.35
X4.2Y-4.98
X4.3Y-4.98
X6.34Y-5.38
X6.353Y-4.8085
X6.44Y-5.38
X6.54Y-5.38
X6.78Y-5.38
X6.83Y-4.92
X6.83Y-5.02
X6.83Y-5.12
X6.83Y-5.22
X6.88Y-5.38
X6.98Y-5.38
X7.08Y-5.38
T0
M30
