%TF.GenerationSoftware,KiCad,Pcbnew,(5.1.10)-1*%
%TF.CreationDate,2021-07-02T15:13:39-07:00*%
%TF.ProjectId,BivalveBit,42697661-6c76-4654-9269-742e6b696361,A*%
%TF.SameCoordinates,Original*%
%TF.FileFunction,Copper,L1,Top*%
%TF.FilePolarity,Positive*%
%FSLAX46Y46*%
G04 Gerber Fmt 4.6, Leading zero omitted, Abs format (unit mm)*
G04 Created by KiCad (PCBNEW (5.1.10)-1) date 2021-07-02 15:13:39*
%MOMM*%
%LPD*%
G01*
G04 APERTURE LIST*
%TA.AperFunction,ComponentPad*%
%ADD10O,1.200000X1.750000*%
%TD*%
%TA.AperFunction,ComponentPad*%
%ADD11O,1.700000X1.700000*%
%TD*%
%TA.AperFunction,ComponentPad*%
%ADD12R,1.700000X1.700000*%
%TD*%
%TA.AperFunction,SMDPad,CuDef*%
%ADD13R,0.900000X0.800000*%
%TD*%
%TA.AperFunction,SMDPad,CuDef*%
%ADD14R,1.060000X0.650000*%
%TD*%
%TA.AperFunction,SMDPad,CuDef*%
%ADD15R,0.550000X1.600000*%
%TD*%
%TA.AperFunction,SMDPad,CuDef*%
%ADD16R,1.600000X0.550000*%
%TD*%
%TA.AperFunction,SMDPad,CuDef*%
%ADD17R,2.000000X2.000000*%
%TD*%
%TA.AperFunction,SMDPad,CuDef*%
%ADD18R,1.600000X1.000000*%
%TD*%
%TA.AperFunction,ConnectorPad*%
%ADD19C,0.787400*%
%TD*%
%TA.AperFunction,ComponentPad*%
%ADD20O,1.750000X1.200000*%
%TD*%
%TA.AperFunction,SMDPad,CuDef*%
%ADD21R,2.050000X1.500000*%
%TD*%
%TA.AperFunction,SMDPad,CuDef*%
%ADD22R,1.500000X0.800000*%
%TD*%
%TA.AperFunction,ComponentPad*%
%ADD23C,2.000000*%
%TD*%
%TA.AperFunction,SMDPad,CuDef*%
%ADD24R,1.200000X0.600000*%
%TD*%
%TA.AperFunction,ViaPad*%
%ADD25C,0.685800*%
%TD*%
%TA.AperFunction,Conductor*%
%ADD26C,0.152400*%
%TD*%
%TA.AperFunction,Conductor*%
%ADD27C,0.254000*%
%TD*%
%TA.AperFunction,Conductor*%
%ADD28C,0.100000*%
%TD*%
G04 APERTURE END LIST*
D10*
%TO.P,HEART_SENSOR1,4*%
%TO.N,/SCL1*%
X193972700Y-125399800D03*
%TO.P,HEART_SENSOR1,3*%
%TO.N,/SDA1*%
X191972700Y-125399800D03*
%TO.P,HEART_SENSOR1,2*%
%TO.N,VDD*%
X189972700Y-125399800D03*
%TO.P,HEART_SENSOR1,1*%
%TO.N,GND*%
%TA.AperFunction,ComponentPad*%
G36*
G01*
X187372700Y-126024801D02*
X187372700Y-124774799D01*
G75*
G02*
X187622699Y-124524800I249999J0D01*
G01*
X188322701Y-124524800D01*
G75*
G02*
X188572700Y-124774799I0J-249999D01*
G01*
X188572700Y-126024801D01*
G75*
G02*
X188322701Y-126274800I-249999J0D01*
G01*
X187622699Y-126274800D01*
G75*
G02*
X187372700Y-126024801I0J249999D01*
G01*
G37*
%TD.AperFunction*%
%TD*%
D11*
%TO.P,J1,2*%
%TO.N,/3V3_FTDI*%
X106680000Y-126492000D03*
D12*
%TO.P,J1,1*%
%TO.N,VBUS*%
X109220000Y-126492000D03*
%TD*%
%TO.P,R17,2*%
%TO.N,/SCL1*%
%TA.AperFunction,SMDPad,CuDef*%
G36*
G01*
X184234500Y-122218900D02*
X183684500Y-122218900D01*
G75*
G02*
X183484500Y-122018900I0J200000D01*
G01*
X183484500Y-121618900D01*
G75*
G02*
X183684500Y-121418900I200000J0D01*
G01*
X184234500Y-121418900D01*
G75*
G02*
X184434500Y-121618900I0J-200000D01*
G01*
X184434500Y-122018900D01*
G75*
G02*
X184234500Y-122218900I-200000J0D01*
G01*
G37*
%TD.AperFunction*%
%TO.P,R17,1*%
%TO.N,VDD*%
%TA.AperFunction,SMDPad,CuDef*%
G36*
G01*
X184234500Y-123868900D02*
X183684500Y-123868900D01*
G75*
G02*
X183484500Y-123668900I0J200000D01*
G01*
X183484500Y-123268900D01*
G75*
G02*
X183684500Y-123068900I200000J0D01*
G01*
X184234500Y-123068900D01*
G75*
G02*
X184434500Y-123268900I0J-200000D01*
G01*
X184434500Y-123668900D01*
G75*
G02*
X184234500Y-123868900I-200000J0D01*
G01*
G37*
%TD.AperFunction*%
%TD*%
%TO.P,R16,2*%
%TO.N,/SDA1*%
%TA.AperFunction,SMDPad,CuDef*%
G36*
G01*
X181377000Y-122218900D02*
X180827000Y-122218900D01*
G75*
G02*
X180627000Y-122018900I0J200000D01*
G01*
X180627000Y-121618900D01*
G75*
G02*
X180827000Y-121418900I200000J0D01*
G01*
X181377000Y-121418900D01*
G75*
G02*
X181577000Y-121618900I0J-200000D01*
G01*
X181577000Y-122018900D01*
G75*
G02*
X181377000Y-122218900I-200000J0D01*
G01*
G37*
%TD.AperFunction*%
%TO.P,R16,1*%
%TO.N,VDD*%
%TA.AperFunction,SMDPad,CuDef*%
G36*
G01*
X181377000Y-123868900D02*
X180827000Y-123868900D01*
G75*
G02*
X180627000Y-123668900I0J200000D01*
G01*
X180627000Y-123268900D01*
G75*
G02*
X180827000Y-123068900I200000J0D01*
G01*
X181377000Y-123068900D01*
G75*
G02*
X181577000Y-123268900I0J-200000D01*
G01*
X181577000Y-123668900D01*
G75*
G02*
X181377000Y-123868900I-200000J0D01*
G01*
G37*
%TD.AperFunction*%
%TD*%
D13*
%TO.P,U4,3*%
%TO.N,Net-(Q3-Pad1)*%
X117840000Y-135890000D03*
%TO.P,U4,2*%
%TO.N,GND*%
X115840000Y-136840000D03*
%TO.P,U4,1*%
%TO.N,Net-(R11-Pad1)*%
X115840000Y-134940000D03*
%TD*%
D14*
%TO.P,U3,5*%
%TO.N,VDD*%
X182519500Y-129529800D03*
%TO.P,U3,4*%
%TO.N,Net-(U3-Pad4)*%
X182519500Y-131429800D03*
%TO.P,U3,3*%
%TO.N,/VREG_EN*%
X180319500Y-131429800D03*
%TO.P,U3,2*%
%TO.N,GND*%
X180319500Y-130479800D03*
%TO.P,U3,1*%
%TO.N,VBUS*%
X180319500Y-129529800D03*
%TD*%
D15*
%TO.P,U2,32*%
%TO.N,/SDA*%
X152072000Y-124242000D03*
%TO.P,U2,31*%
%TO.N,/TO_FTDI_RX*%
X152872000Y-124242000D03*
%TO.P,U2,30*%
%TO.N,/TO_FTDI_TX*%
X153672000Y-124242000D03*
%TO.P,U2,29*%
%TO.N,GND*%
X154472000Y-124242000D03*
%TO.P,U2,28*%
%TO.N,VBUS*%
X155272000Y-124242000D03*
%TO.P,U2,27*%
%TO.N,/UPDI*%
X156072000Y-124242000D03*
%TO.P,U2,26*%
%TO.N,/TO_RESET*%
X156872000Y-124242000D03*
%TO.P,U2,25*%
%TO.N,Net-(U2-Pad25)*%
X157672000Y-124242000D03*
D16*
%TO.P,U2,24*%
%TO.N,/VREG_EN*%
X159122000Y-125692000D03*
%TO.P,U2,23*%
%TO.N,Net-(U2-Pad23)*%
X159122000Y-126492000D03*
%TO.P,U2,22*%
%TO.N,Net-(U2-Pad22)*%
X159122000Y-127292000D03*
%TO.P,U2,21*%
%TO.N,Net-(U2-Pad21)*%
X159122000Y-128092000D03*
%TO.P,U2,20*%
%TO.N,/32kHz*%
X159122000Y-128892000D03*
%TO.P,U2,19*%
%TO.N,GND*%
X159122000Y-129692000D03*
%TO.P,U2,18*%
%TO.N,VDD*%
X159122000Y-130492000D03*
%TO.P,U2,17*%
%TO.N,/AREF*%
X159122000Y-131292000D03*
D15*
%TO.P,U2,16*%
%TO.N,/PD6*%
X157672000Y-132742000D03*
%TO.P,U2,15*%
%TO.N,/PD5*%
X156872000Y-132742000D03*
%TO.P,U2,14*%
%TO.N,/PD4*%
X156072000Y-132742000D03*
%TO.P,U2,13*%
%TO.N,Net-(U2-Pad13)*%
X155272000Y-132742000D03*
%TO.P,U2,12*%
%TO.N,/PD2*%
X154472000Y-132742000D03*
%TO.P,U2,11*%
%TO.N,/BATT_MONITOR*%
X153672000Y-132742000D03*
%TO.P,U2,10*%
%TO.N,/HALL_OUT*%
X152872000Y-132742000D03*
%TO.P,U2,9*%
%TO.N,Net-(R18-Pad1)*%
X152072000Y-132742000D03*
D16*
%TO.P,U2,8*%
%TO.N,/HALL_SLEEP*%
X150622000Y-131292000D03*
%TO.P,U2,7*%
%TO.N,/BATT_MON_EN*%
X150622000Y-130492000D03*
%TO.P,U2,6*%
%TO.N,/LED*%
X150622000Y-129692000D03*
%TO.P,U2,5*%
%TO.N,/CS*%
X150622000Y-128892000D03*
%TO.P,U2,4*%
%TO.N,/SCK*%
X150622000Y-128092000D03*
%TO.P,U2,3*%
%TO.N,/MISO*%
X150622000Y-127292000D03*
%TO.P,U2,2*%
%TO.N,/MOSI*%
X150622000Y-126492000D03*
%TO.P,U2,1*%
%TO.N,/SCL*%
X150622000Y-125692000D03*
%TD*%
D17*
%TO.P,SW2,2*%
%TO.N,/PD6*%
X156658000Y-136652000D03*
%TO.P,SW2,1*%
%TO.N,GND*%
X141538000Y-136652000D03*
%TD*%
D18*
%TO.P,RESET1,4*%
%TO.N,Net-(RESET1-Pad4)*%
X119126000Y-126106000D03*
%TO.P,RESET1,3*%
%TO.N,/TO_RESET*%
X112726000Y-126106000D03*
%TO.P,RESET1,2*%
%TO.N,GND*%
X119126000Y-122306000D03*
%TO.P,RESET1,1*%
X112726000Y-122306000D03*
%TD*%
%TO.P,R15,2*%
%TO.N,Net-(J6-Pad3)*%
%TA.AperFunction,SMDPad,CuDef*%
G36*
G01*
X168889000Y-136823000D02*
X169439000Y-136823000D01*
G75*
G02*
X169639000Y-137023000I0J-200000D01*
G01*
X169639000Y-137423000D01*
G75*
G02*
X169439000Y-137623000I-200000J0D01*
G01*
X168889000Y-137623000D01*
G75*
G02*
X168689000Y-137423000I0J200000D01*
G01*
X168689000Y-137023000D01*
G75*
G02*
X168889000Y-136823000I200000J0D01*
G01*
G37*
%TD.AperFunction*%
%TO.P,R15,1*%
%TO.N,VBUS*%
%TA.AperFunction,SMDPad,CuDef*%
G36*
G01*
X168889000Y-135173000D02*
X169439000Y-135173000D01*
G75*
G02*
X169639000Y-135373000I0J-200000D01*
G01*
X169639000Y-135773000D01*
G75*
G02*
X169439000Y-135973000I-200000J0D01*
G01*
X168889000Y-135973000D01*
G75*
G02*
X168689000Y-135773000I0J200000D01*
G01*
X168689000Y-135373000D01*
G75*
G02*
X168889000Y-135173000I200000J0D01*
G01*
G37*
%TD.AperFunction*%
%TD*%
%TO.P,R14,2*%
%TO.N,/AREF*%
%TA.AperFunction,SMDPad,CuDef*%
G36*
G01*
X183963900Y-130841300D02*
X184513900Y-130841300D01*
G75*
G02*
X184713900Y-131041300I0J-200000D01*
G01*
X184713900Y-131441300D01*
G75*
G02*
X184513900Y-131641300I-200000J0D01*
G01*
X183963900Y-131641300D01*
G75*
G02*
X183763900Y-131441300I0J200000D01*
G01*
X183763900Y-131041300D01*
G75*
G02*
X183963900Y-130841300I200000J0D01*
G01*
G37*
%TD.AperFunction*%
%TO.P,R14,1*%
%TO.N,VDD*%
%TA.AperFunction,SMDPad,CuDef*%
G36*
G01*
X183963900Y-129191300D02*
X184513900Y-129191300D01*
G75*
G02*
X184713900Y-129391300I0J-200000D01*
G01*
X184713900Y-129791300D01*
G75*
G02*
X184513900Y-129991300I-200000J0D01*
G01*
X183963900Y-129991300D01*
G75*
G02*
X183763900Y-129791300I0J200000D01*
G01*
X183763900Y-129391300D01*
G75*
G02*
X183963900Y-129191300I200000J0D01*
G01*
G37*
%TD.AperFunction*%
%TD*%
%TO.P,R13,2*%
%TO.N,VBUS*%
%TA.AperFunction,SMDPad,CuDef*%
G36*
G01*
X113305000Y-128290000D02*
X112755000Y-128290000D01*
G75*
G02*
X112555000Y-128090000I0J200000D01*
G01*
X112555000Y-127690000D01*
G75*
G02*
X112755000Y-127490000I200000J0D01*
G01*
X113305000Y-127490000D01*
G75*
G02*
X113505000Y-127690000I0J-200000D01*
G01*
X113505000Y-128090000D01*
G75*
G02*
X113305000Y-128290000I-200000J0D01*
G01*
G37*
%TD.AperFunction*%
%TO.P,R13,1*%
%TO.N,Net-(Q3-Pad1)*%
%TA.AperFunction,SMDPad,CuDef*%
G36*
G01*
X113305000Y-129940000D02*
X112755000Y-129940000D01*
G75*
G02*
X112555000Y-129740000I0J200000D01*
G01*
X112555000Y-129340000D01*
G75*
G02*
X112755000Y-129140000I200000J0D01*
G01*
X113305000Y-129140000D01*
G75*
G02*
X113505000Y-129340000I0J-200000D01*
G01*
X113505000Y-129740000D01*
G75*
G02*
X113305000Y-129940000I-200000J0D01*
G01*
G37*
%TD.AperFunction*%
%TD*%
%TO.P,R12,2*%
%TO.N,Net-(Q3-Pad3)*%
%TA.AperFunction,SMDPad,CuDef*%
G36*
G01*
X120925000Y-131655000D02*
X120375000Y-131655000D01*
G75*
G02*
X120175000Y-131455000I0J200000D01*
G01*
X120175000Y-131055000D01*
G75*
G02*
X120375000Y-130855000I200000J0D01*
G01*
X120925000Y-130855000D01*
G75*
G02*
X121125000Y-131055000I0J-200000D01*
G01*
X121125000Y-131455000D01*
G75*
G02*
X120925000Y-131655000I-200000J0D01*
G01*
G37*
%TD.AperFunction*%
%TO.P,R12,1*%
%TO.N,/BATT_MONITOR*%
%TA.AperFunction,SMDPad,CuDef*%
G36*
G01*
X120925000Y-133305000D02*
X120375000Y-133305000D01*
G75*
G02*
X120175000Y-133105000I0J200000D01*
G01*
X120175000Y-132705000D01*
G75*
G02*
X120375000Y-132505000I200000J0D01*
G01*
X120925000Y-132505000D01*
G75*
G02*
X121125000Y-132705000I0J-200000D01*
G01*
X121125000Y-133105000D01*
G75*
G02*
X120925000Y-133305000I-200000J0D01*
G01*
G37*
%TD.AperFunction*%
%TD*%
%TO.P,R11,2*%
%TO.N,/BATT_MON_EN*%
%TA.AperFunction,SMDPad,CuDef*%
G36*
G01*
X113305000Y-131655000D02*
X112755000Y-131655000D01*
G75*
G02*
X112555000Y-131455000I0J200000D01*
G01*
X112555000Y-131055000D01*
G75*
G02*
X112755000Y-130855000I200000J0D01*
G01*
X113305000Y-130855000D01*
G75*
G02*
X113505000Y-131055000I0J-200000D01*
G01*
X113505000Y-131455000D01*
G75*
G02*
X113305000Y-131655000I-200000J0D01*
G01*
G37*
%TD.AperFunction*%
%TO.P,R11,1*%
%TO.N,Net-(R11-Pad1)*%
%TA.AperFunction,SMDPad,CuDef*%
G36*
G01*
X113305000Y-133305000D02*
X112755000Y-133305000D01*
G75*
G02*
X112555000Y-133105000I0J200000D01*
G01*
X112555000Y-132705000D01*
G75*
G02*
X112755000Y-132505000I200000J0D01*
G01*
X113305000Y-132505000D01*
G75*
G02*
X113505000Y-132705000I0J-200000D01*
G01*
X113505000Y-133105000D01*
G75*
G02*
X113305000Y-133305000I-200000J0D01*
G01*
G37*
%TD.AperFunction*%
%TD*%
%TO.P,R10,2*%
%TO.N,/BATT_MONITOR*%
%TA.AperFunction,SMDPad,CuDef*%
G36*
G01*
X120925000Y-135465000D02*
X120375000Y-135465000D01*
G75*
G02*
X120175000Y-135265000I0J200000D01*
G01*
X120175000Y-134865000D01*
G75*
G02*
X120375000Y-134665000I200000J0D01*
G01*
X120925000Y-134665000D01*
G75*
G02*
X121125000Y-134865000I0J-200000D01*
G01*
X121125000Y-135265000D01*
G75*
G02*
X120925000Y-135465000I-200000J0D01*
G01*
G37*
%TD.AperFunction*%
%TO.P,R10,1*%
%TO.N,GND*%
%TA.AperFunction,SMDPad,CuDef*%
G36*
G01*
X120925000Y-137115000D02*
X120375000Y-137115000D01*
G75*
G02*
X120175000Y-136915000I0J200000D01*
G01*
X120175000Y-136515000D01*
G75*
G02*
X120375000Y-136315000I200000J0D01*
G01*
X120925000Y-136315000D01*
G75*
G02*
X121125000Y-136515000I0J-200000D01*
G01*
X121125000Y-136915000D01*
G75*
G02*
X120925000Y-137115000I-200000J0D01*
G01*
G37*
%TD.AperFunction*%
%TD*%
%TO.P,R9,2*%
%TO.N,/BATT_MON_EN*%
%TA.AperFunction,SMDPad,CuDef*%
G36*
G01*
X113305000Y-135465000D02*
X112755000Y-135465000D01*
G75*
G02*
X112555000Y-135265000I0J200000D01*
G01*
X112555000Y-134865000D01*
G75*
G02*
X112755000Y-134665000I200000J0D01*
G01*
X113305000Y-134665000D01*
G75*
G02*
X113505000Y-134865000I0J-200000D01*
G01*
X113505000Y-135265000D01*
G75*
G02*
X113305000Y-135465000I-200000J0D01*
G01*
G37*
%TD.AperFunction*%
%TO.P,R9,1*%
%TO.N,GND*%
%TA.AperFunction,SMDPad,CuDef*%
G36*
G01*
X113305000Y-137115000D02*
X112755000Y-137115000D01*
G75*
G02*
X112555000Y-136915000I0J200000D01*
G01*
X112555000Y-136515000D01*
G75*
G02*
X112755000Y-136315000I200000J0D01*
G01*
X113305000Y-136315000D01*
G75*
G02*
X113505000Y-136515000I0J-200000D01*
G01*
X113505000Y-136915000D01*
G75*
G02*
X113305000Y-137115000I-200000J0D01*
G01*
G37*
%TD.AperFunction*%
%TD*%
%TO.P,R8,2*%
%TO.N,/RSV1*%
%TA.AperFunction,SMDPad,CuDef*%
G36*
G01*
X141244000Y-122661000D02*
X141244000Y-123211000D01*
G75*
G02*
X141044000Y-123411000I-200000J0D01*
G01*
X140644000Y-123411000D01*
G75*
G02*
X140444000Y-123211000I0J200000D01*
G01*
X140444000Y-122661000D01*
G75*
G02*
X140644000Y-122461000I200000J0D01*
G01*
X141044000Y-122461000D01*
G75*
G02*
X141244000Y-122661000I0J-200000D01*
G01*
G37*
%TD.AperFunction*%
%TO.P,R8,1*%
%TO.N,VBUS*%
%TA.AperFunction,SMDPad,CuDef*%
G36*
G01*
X142894000Y-122661000D02*
X142894000Y-123211000D01*
G75*
G02*
X142694000Y-123411000I-200000J0D01*
G01*
X142294000Y-123411000D01*
G75*
G02*
X142094000Y-123211000I0J200000D01*
G01*
X142094000Y-122661000D01*
G75*
G02*
X142294000Y-122461000I200000J0D01*
G01*
X142694000Y-122461000D01*
G75*
G02*
X142894000Y-122661000I0J-200000D01*
G01*
G37*
%TD.AperFunction*%
%TD*%
%TO.P,R7,2*%
%TO.N,Net-(D1-Pad2)*%
%TA.AperFunction,SMDPad,CuDef*%
G36*
G01*
X144304200Y-131805000D02*
X144304200Y-132355000D01*
G75*
G02*
X144104200Y-132555000I-200000J0D01*
G01*
X143704200Y-132555000D01*
G75*
G02*
X143504200Y-132355000I0J200000D01*
G01*
X143504200Y-131805000D01*
G75*
G02*
X143704200Y-131605000I200000J0D01*
G01*
X144104200Y-131605000D01*
G75*
G02*
X144304200Y-131805000I0J-200000D01*
G01*
G37*
%TD.AperFunction*%
%TO.P,R7,1*%
%TO.N,/LED*%
%TA.AperFunction,SMDPad,CuDef*%
G36*
G01*
X145954200Y-131805000D02*
X145954200Y-132355000D01*
G75*
G02*
X145754200Y-132555000I-200000J0D01*
G01*
X145354200Y-132555000D01*
G75*
G02*
X145154200Y-132355000I0J200000D01*
G01*
X145154200Y-131805000D01*
G75*
G02*
X145354200Y-131605000I200000J0D01*
G01*
X145754200Y-131605000D01*
G75*
G02*
X145954200Y-131805000I0J-200000D01*
G01*
G37*
%TD.AperFunction*%
%TD*%
%TO.P,R6,2*%
%TO.N,/RSV2*%
%TA.AperFunction,SMDPad,CuDef*%
G36*
G01*
X141244000Y-124947000D02*
X141244000Y-125497000D01*
G75*
G02*
X141044000Y-125697000I-200000J0D01*
G01*
X140644000Y-125697000D01*
G75*
G02*
X140444000Y-125497000I0J200000D01*
G01*
X140444000Y-124947000D01*
G75*
G02*
X140644000Y-124747000I200000J0D01*
G01*
X141044000Y-124747000D01*
G75*
G02*
X141244000Y-124947000I0J-200000D01*
G01*
G37*
%TD.AperFunction*%
%TO.P,R6,1*%
%TO.N,VBUS*%
%TA.AperFunction,SMDPad,CuDef*%
G36*
G01*
X142894000Y-124947000D02*
X142894000Y-125497000D01*
G75*
G02*
X142694000Y-125697000I-200000J0D01*
G01*
X142294000Y-125697000D01*
G75*
G02*
X142094000Y-125497000I0J200000D01*
G01*
X142094000Y-124947000D01*
G75*
G02*
X142294000Y-124747000I200000J0D01*
G01*
X142694000Y-124747000D01*
G75*
G02*
X142894000Y-124947000I0J-200000D01*
G01*
G37*
%TD.AperFunction*%
%TD*%
%TO.P,R5,2*%
%TO.N,/SCL*%
%TA.AperFunction,SMDPad,CuDef*%
G36*
G01*
X176752700Y-128896700D02*
X176752700Y-129446700D01*
G75*
G02*
X176552700Y-129646700I-200000J0D01*
G01*
X176152700Y-129646700D01*
G75*
G02*
X175952700Y-129446700I0J200000D01*
G01*
X175952700Y-128896700D01*
G75*
G02*
X176152700Y-128696700I200000J0D01*
G01*
X176552700Y-128696700D01*
G75*
G02*
X176752700Y-128896700I0J-200000D01*
G01*
G37*
%TD.AperFunction*%
%TO.P,R5,1*%
%TO.N,VBUS*%
%TA.AperFunction,SMDPad,CuDef*%
G36*
G01*
X178402700Y-128896700D02*
X178402700Y-129446700D01*
G75*
G02*
X178202700Y-129646700I-200000J0D01*
G01*
X177802700Y-129646700D01*
G75*
G02*
X177602700Y-129446700I0J200000D01*
G01*
X177602700Y-128896700D01*
G75*
G02*
X177802700Y-128696700I200000J0D01*
G01*
X178202700Y-128696700D01*
G75*
G02*
X178402700Y-128896700I0J-200000D01*
G01*
G37*
%TD.AperFunction*%
%TD*%
%TO.P,R4,2*%
%TO.N,/SDA*%
%TA.AperFunction,SMDPad,CuDef*%
G36*
G01*
X176740000Y-127029800D02*
X176740000Y-127579800D01*
G75*
G02*
X176540000Y-127779800I-200000J0D01*
G01*
X176140000Y-127779800D01*
G75*
G02*
X175940000Y-127579800I0J200000D01*
G01*
X175940000Y-127029800D01*
G75*
G02*
X176140000Y-126829800I200000J0D01*
G01*
X176540000Y-126829800D01*
G75*
G02*
X176740000Y-127029800I0J-200000D01*
G01*
G37*
%TD.AperFunction*%
%TO.P,R4,1*%
%TO.N,VBUS*%
%TA.AperFunction,SMDPad,CuDef*%
G36*
G01*
X178390000Y-127029800D02*
X178390000Y-127579800D01*
G75*
G02*
X178190000Y-127779800I-200000J0D01*
G01*
X177790000Y-127779800D01*
G75*
G02*
X177590000Y-127579800I0J200000D01*
G01*
X177590000Y-127029800D01*
G75*
G02*
X177790000Y-126829800I200000J0D01*
G01*
X178190000Y-126829800D01*
G75*
G02*
X178390000Y-127029800I0J-200000D01*
G01*
G37*
%TD.AperFunction*%
%TD*%
%TO.P,R3,2*%
%TO.N,/UPDI*%
%TA.AperFunction,SMDPad,CuDef*%
G36*
G01*
X142131600Y-128278300D02*
X142131600Y-127728300D01*
G75*
G02*
X142331600Y-127528300I200000J0D01*
G01*
X142731600Y-127528300D01*
G75*
G02*
X142931600Y-127728300I0J-200000D01*
G01*
X142931600Y-128278300D01*
G75*
G02*
X142731600Y-128478300I-200000J0D01*
G01*
X142331600Y-128478300D01*
G75*
G02*
X142131600Y-128278300I0J200000D01*
G01*
G37*
%TD.AperFunction*%
%TO.P,R3,1*%
%TO.N,VBUS*%
%TA.AperFunction,SMDPad,CuDef*%
G36*
G01*
X140481600Y-128278300D02*
X140481600Y-127728300D01*
G75*
G02*
X140681600Y-127528300I200000J0D01*
G01*
X141081600Y-127528300D01*
G75*
G02*
X141281600Y-127728300I0J-200000D01*
G01*
X141281600Y-128278300D01*
G75*
G02*
X141081600Y-128478300I-200000J0D01*
G01*
X140681600Y-128478300D01*
G75*
G02*
X140481600Y-128278300I0J200000D01*
G01*
G37*
%TD.AperFunction*%
%TD*%
%TO.P,R2,2*%
%TO.N,/TO_RESET*%
%TA.AperFunction,SMDPad,CuDef*%
G36*
G01*
X109645000Y-123465000D02*
X109645000Y-122915000D01*
G75*
G02*
X109845000Y-122715000I200000J0D01*
G01*
X110245000Y-122715000D01*
G75*
G02*
X110445000Y-122915000I0J-200000D01*
G01*
X110445000Y-123465000D01*
G75*
G02*
X110245000Y-123665000I-200000J0D01*
G01*
X109845000Y-123665000D01*
G75*
G02*
X109645000Y-123465000I0J200000D01*
G01*
G37*
%TD.AperFunction*%
%TO.P,R2,1*%
%TO.N,VBUS*%
%TA.AperFunction,SMDPad,CuDef*%
G36*
G01*
X107995000Y-123465000D02*
X107995000Y-122915000D01*
G75*
G02*
X108195000Y-122715000I200000J0D01*
G01*
X108595000Y-122715000D01*
G75*
G02*
X108795000Y-122915000I0J-200000D01*
G01*
X108795000Y-123465000D01*
G75*
G02*
X108595000Y-123665000I-200000J0D01*
G01*
X108195000Y-123665000D01*
G75*
G02*
X107995000Y-123465000I0J200000D01*
G01*
G37*
%TD.AperFunction*%
%TD*%
%TO.P,R1,2*%
%TO.N,/32kHz*%
%TA.AperFunction,SMDPad,CuDef*%
G36*
G01*
X166986000Y-122449000D02*
X166986000Y-121899000D01*
G75*
G02*
X167186000Y-121699000I200000J0D01*
G01*
X167586000Y-121699000D01*
G75*
G02*
X167786000Y-121899000I0J-200000D01*
G01*
X167786000Y-122449000D01*
G75*
G02*
X167586000Y-122649000I-200000J0D01*
G01*
X167186000Y-122649000D01*
G75*
G02*
X166986000Y-122449000I0J200000D01*
G01*
G37*
%TD.AperFunction*%
%TO.P,R1,1*%
%TO.N,VBUS*%
%TA.AperFunction,SMDPad,CuDef*%
G36*
G01*
X165336000Y-122449000D02*
X165336000Y-121899000D01*
G75*
G02*
X165536000Y-121699000I200000J0D01*
G01*
X165936000Y-121699000D01*
G75*
G02*
X166136000Y-121899000I0J-200000D01*
G01*
X166136000Y-122449000D01*
G75*
G02*
X165936000Y-122649000I-200000J0D01*
G01*
X165536000Y-122649000D01*
G75*
G02*
X165336000Y-122449000I0J200000D01*
G01*
G37*
%TD.AperFunction*%
%TD*%
D13*
%TO.P,Q3,3*%
%TO.N,Net-(Q3-Pad3)*%
X117840000Y-130810000D03*
%TO.P,Q3,2*%
%TO.N,VBUS*%
X115840000Y-131760000D03*
%TO.P,Q3,1*%
%TO.N,Net-(Q3-Pad1)*%
X115840000Y-129860000D03*
%TD*%
%TO.P,Q2,3*%
%TO.N,/SCL*%
X176469800Y-131673600D03*
%TO.P,Q2,2*%
%TO.N,/SCL1*%
X178469800Y-130723600D03*
%TO.P,Q2,1*%
%TO.N,VBUS*%
X178469800Y-132623600D03*
%TD*%
%TO.P,Q1,3*%
%TO.N,/SDA*%
X176533300Y-124790200D03*
%TO.P,Q1,2*%
%TO.N,/SDA1*%
X178533300Y-123840200D03*
%TO.P,Q1,1*%
%TO.N,VBUS*%
X178533300Y-125740200D03*
%TD*%
D19*
%TO.P,PROGRAM_HEADER1,6*%
%TO.N,GND*%
X145288000Y-123698000D03*
%TO.P,PROGRAM_HEADER1,5*%
%TO.N,/TO_FTDI_RX*%
X146558000Y-123698000D03*
%TO.P,PROGRAM_HEADER1,4*%
%TO.N,/TO_FTDI_TX*%
X145288000Y-124968000D03*
%TO.P,PROGRAM_HEADER1,3*%
%TO.N,Net-(PROGRAM_HEADER1-Pad3)*%
X146558000Y-124968000D03*
%TO.P,PROGRAM_HEADER1,2*%
%TO.N,VBUS*%
X145288000Y-126238000D03*
%TO.P,PROGRAM_HEADER1,1*%
%TO.N,/UPDI*%
X146558000Y-126238000D03*
%TD*%
D20*
%TO.P,PRIMARY_BATTERY1,2*%
%TO.N,GND*%
X107950000Y-132810000D03*
%TO.P,PRIMARY_BATTERY1,1*%
%TO.N,VBUS*%
%TA.AperFunction,ComponentPad*%
G36*
G01*
X107324999Y-130210000D02*
X108575001Y-130210000D01*
G75*
G02*
X108825000Y-130459999I0J-249999D01*
G01*
X108825000Y-131160001D01*
G75*
G02*
X108575001Y-131410000I-249999J0D01*
G01*
X107324999Y-131410000D01*
G75*
G02*
X107075000Y-131160001I0J249999D01*
G01*
X107075000Y-130459999D01*
G75*
G02*
X107324999Y-130210000I249999J0D01*
G01*
G37*
%TD.AperFunction*%
%TD*%
D11*
%TO.P,OLED1,4*%
%TO.N,/SDA*%
X173482000Y-132588000D03*
%TO.P,OLED1,3*%
%TO.N,/SCL*%
X173482000Y-130048000D03*
%TO.P,OLED1,2*%
%TO.N,VBUS*%
X173482000Y-127508000D03*
D12*
%TO.P,OLED1,1*%
%TO.N,GND*%
X173482000Y-124968000D03*
%TD*%
D21*
%TO.P,microSD1,G4*%
%TO.N,GND*%
X126872000Y-123427000D03*
%TO.P,microSD1,G3*%
X135172000Y-123427000D03*
%TO.P,microSD1,G2*%
X135172000Y-137177000D03*
%TO.P,microSD1,G1*%
X126872000Y-137177000D03*
D22*
%TO.P,microSD1,8*%
%TO.N,/RSV1*%
X129472000Y-125802000D03*
%TO.P,microSD1,7*%
%TO.N,/MISO*%
X129472000Y-126902000D03*
%TO.P,microSD1,6*%
%TO.N,GND*%
X129472000Y-128002000D03*
%TO.P,microSD1,5*%
%TO.N,/SCK*%
X129472000Y-129102000D03*
%TO.P,microSD1,4*%
%TO.N,VBUS*%
X129472000Y-130202000D03*
%TO.P,microSD1,3*%
%TO.N,/MOSI*%
X129472000Y-131302000D03*
%TO.P,microSD1,2*%
%TO.N,/CS*%
X129472000Y-132402000D03*
%TO.P,microSD1,1*%
%TO.N,/RSV2*%
X129472000Y-133502000D03*
%TD*%
D23*
%TO.P,J7,1*%
%TO.N,/AREF*%
X177292000Y-136652000D03*
%TD*%
D11*
%TO.P,J6,3*%
%TO.N,Net-(J6-Pad3)*%
X166116000Y-136652000D03*
%TO.P,J6,2*%
%TO.N,/PD2*%
X163576000Y-136652000D03*
D12*
%TO.P,J6,1*%
%TO.N,GND*%
X161036000Y-136652000D03*
%TD*%
D23*
%TO.P,J5,1*%
%TO.N,/PD5*%
X174752000Y-136652000D03*
%TD*%
%TO.P,J4,1*%
%TO.N,/PD4*%
X172212000Y-136652000D03*
%TD*%
D10*
%TO.P,HALL_SENSOR1,4*%
%TO.N,/HALL_SLEEP*%
X193972700Y-132511800D03*
%TO.P,HALL_SENSOR1,3*%
%TO.N,/HALL_OUT*%
X191972700Y-132511800D03*
%TO.P,HALL_SENSOR1,2*%
%TO.N,VDD*%
X189972700Y-132511800D03*
%TO.P,HALL_SENSOR1,1*%
%TO.N,GND*%
%TA.AperFunction,ComponentPad*%
G36*
G01*
X187372700Y-133136801D02*
X187372700Y-131886799D01*
G75*
G02*
X187622699Y-131636800I249999J0D01*
G01*
X188322701Y-131636800D01*
G75*
G02*
X188572700Y-131886799I0J-249999D01*
G01*
X188572700Y-133136801D01*
G75*
G02*
X188322701Y-133386800I-249999J0D01*
G01*
X187622699Y-133386800D01*
G75*
G02*
X187372700Y-133136801I0J249999D01*
G01*
G37*
%TD.AperFunction*%
%TD*%
D11*
%TO.P,FTDI1,6*%
%TO.N,/DTR*%
X102870000Y-135890000D03*
%TO.P,FTDI1,5*%
%TO.N,/TO_FTDI_RX*%
X102870000Y-133350000D03*
%TO.P,FTDI1,4*%
%TO.N,/TO_FTDI_TX*%
X102870000Y-130810000D03*
%TO.P,FTDI1,3*%
%TO.N,/3V3_FTDI*%
X102870000Y-128270000D03*
%TO.P,FTDI1,2*%
%TO.N,GND*%
X102870000Y-125730000D03*
D12*
%TO.P,FTDI1,1*%
X102870000Y-123190000D03*
%TD*%
%TO.P,D1,2*%
%TO.N,Net-(D1-Pad2)*%
%TA.AperFunction,SMDPad,CuDef*%
G36*
G01*
X144480700Y-134263450D02*
X144480700Y-133350950D01*
G75*
G02*
X144724450Y-133107200I243750J0D01*
G01*
X145211950Y-133107200D01*
G75*
G02*
X145455700Y-133350950I0J-243750D01*
G01*
X145455700Y-134263450D01*
G75*
G02*
X145211950Y-134507200I-243750J0D01*
G01*
X144724450Y-134507200D01*
G75*
G02*
X144480700Y-134263450I0J243750D01*
G01*
G37*
%TD.AperFunction*%
%TO.P,D1,1*%
%TO.N,VBUS*%
%TA.AperFunction,SMDPad,CuDef*%
G36*
G01*
X142605700Y-134263450D02*
X142605700Y-133350950D01*
G75*
G02*
X142849450Y-133107200I243750J0D01*
G01*
X143336950Y-133107200D01*
G75*
G02*
X143580700Y-133350950I0J-243750D01*
G01*
X143580700Y-134263450D01*
G75*
G02*
X143336950Y-134507200I-243750J0D01*
G01*
X142849450Y-134507200D01*
G75*
G02*
X142605700Y-134263450I0J243750D01*
G01*
G37*
%TD.AperFunction*%
%TD*%
D24*
%TO.P,Crystal_32.768kHz1,4*%
%TO.N,Net-(C9-Pad2)*%
X164274100Y-130474300D03*
%TO.P,Crystal_32.768kHz1,3*%
%TO.N,Net-(Crystal_32.768kHz1-Pad3)*%
X170574100Y-130474300D03*
%TO.P,Crystal_32.768kHz1,2*%
%TO.N,Net-(Crystal_32.768kHz1-Pad2)*%
X170574100Y-131374300D03*
%TO.P,Crystal_32.768kHz1,1*%
%TO.N,Net-(C10-Pad1)*%
X164274100Y-131374300D03*
%TD*%
%TO.P,C8,2*%
%TO.N,GND*%
%TA.AperFunction,SMDPad,CuDef*%
G36*
G01*
X153129100Y-121924000D02*
X153129100Y-122424000D01*
G75*
G02*
X152904100Y-122649000I-225000J0D01*
G01*
X152454100Y-122649000D01*
G75*
G02*
X152229100Y-122424000I0J225000D01*
G01*
X152229100Y-121924000D01*
G75*
G02*
X152454100Y-121699000I225000J0D01*
G01*
X152904100Y-121699000D01*
G75*
G02*
X153129100Y-121924000I0J-225000D01*
G01*
G37*
%TD.AperFunction*%
%TO.P,C8,1*%
%TO.N,VBUS*%
%TA.AperFunction,SMDPad,CuDef*%
G36*
G01*
X154679100Y-121924000D02*
X154679100Y-122424000D01*
G75*
G02*
X154454100Y-122649000I-225000J0D01*
G01*
X154004100Y-122649000D01*
G75*
G02*
X153779100Y-122424000I0J225000D01*
G01*
X153779100Y-121924000D01*
G75*
G02*
X154004100Y-121699000I225000J0D01*
G01*
X154454100Y-121699000D01*
G75*
G02*
X154679100Y-121924000I0J-225000D01*
G01*
G37*
%TD.AperFunction*%
%TD*%
%TO.P,C7,2*%
%TO.N,GND*%
%TA.AperFunction,SMDPad,CuDef*%
G36*
G01*
X121408000Y-124643000D02*
X120908000Y-124643000D01*
G75*
G02*
X120683000Y-124418000I0J225000D01*
G01*
X120683000Y-123968000D01*
G75*
G02*
X120908000Y-123743000I225000J0D01*
G01*
X121408000Y-123743000D01*
G75*
G02*
X121633000Y-123968000I0J-225000D01*
G01*
X121633000Y-124418000D01*
G75*
G02*
X121408000Y-124643000I-225000J0D01*
G01*
G37*
%TD.AperFunction*%
%TO.P,C7,1*%
%TO.N,VBUS*%
%TA.AperFunction,SMDPad,CuDef*%
G36*
G01*
X121408000Y-126193000D02*
X120908000Y-126193000D01*
G75*
G02*
X120683000Y-125968000I0J225000D01*
G01*
X120683000Y-125518000D01*
G75*
G02*
X120908000Y-125293000I225000J0D01*
G01*
X121408000Y-125293000D01*
G75*
G02*
X121633000Y-125518000I0J-225000D01*
G01*
X121633000Y-125968000D01*
G75*
G02*
X121408000Y-126193000I-225000J0D01*
G01*
G37*
%TD.AperFunction*%
%TD*%
%TO.P,C6,2*%
%TO.N,GND*%
%TA.AperFunction,SMDPad,CuDef*%
G36*
G01*
X120400000Y-128849000D02*
X120900000Y-128849000D01*
G75*
G02*
X121125000Y-129074000I0J-225000D01*
G01*
X121125000Y-129524000D01*
G75*
G02*
X120900000Y-129749000I-225000J0D01*
G01*
X120400000Y-129749000D01*
G75*
G02*
X120175000Y-129524000I0J225000D01*
G01*
X120175000Y-129074000D01*
G75*
G02*
X120400000Y-128849000I225000J0D01*
G01*
G37*
%TD.AperFunction*%
%TO.P,C6,1*%
%TO.N,VBUS*%
%TA.AperFunction,SMDPad,CuDef*%
G36*
G01*
X120400000Y-127299000D02*
X120900000Y-127299000D01*
G75*
G02*
X121125000Y-127524000I0J-225000D01*
G01*
X121125000Y-127974000D01*
G75*
G02*
X120900000Y-128199000I-225000J0D01*
G01*
X120400000Y-128199000D01*
G75*
G02*
X120175000Y-127974000I0J225000D01*
G01*
X120175000Y-127524000D01*
G75*
G02*
X120400000Y-127299000I225000J0D01*
G01*
G37*
%TD.AperFunction*%
%TD*%
%TO.P,C5,2*%
%TO.N,GND*%
%TA.AperFunction,SMDPad,CuDef*%
G36*
G01*
X183345900Y-126865500D02*
X182845900Y-126865500D01*
G75*
G02*
X182620900Y-126640500I0J225000D01*
G01*
X182620900Y-126190500D01*
G75*
G02*
X182845900Y-125965500I225000J0D01*
G01*
X183345900Y-125965500D01*
G75*
G02*
X183570900Y-126190500I0J-225000D01*
G01*
X183570900Y-126640500D01*
G75*
G02*
X183345900Y-126865500I-225000J0D01*
G01*
G37*
%TD.AperFunction*%
%TO.P,C5,1*%
%TO.N,VDD*%
%TA.AperFunction,SMDPad,CuDef*%
G36*
G01*
X183345900Y-128415500D02*
X182845900Y-128415500D01*
G75*
G02*
X182620900Y-128190500I0J225000D01*
G01*
X182620900Y-127740500D01*
G75*
G02*
X182845900Y-127515500I225000J0D01*
G01*
X183345900Y-127515500D01*
G75*
G02*
X183570900Y-127740500I0J-225000D01*
G01*
X183570900Y-128190500D01*
G75*
G02*
X183345900Y-128415500I-225000J0D01*
G01*
G37*
%TD.AperFunction*%
%TD*%
%TO.P,C4,2*%
%TO.N,GND*%
%TA.AperFunction,SMDPad,CuDef*%
G36*
G01*
X161870200Y-130192900D02*
X161370200Y-130192900D01*
G75*
G02*
X161145200Y-129967900I0J225000D01*
G01*
X161145200Y-129517900D01*
G75*
G02*
X161370200Y-129292900I225000J0D01*
G01*
X161870200Y-129292900D01*
G75*
G02*
X162095200Y-129517900I0J-225000D01*
G01*
X162095200Y-129967900D01*
G75*
G02*
X161870200Y-130192900I-225000J0D01*
G01*
G37*
%TD.AperFunction*%
%TO.P,C4,1*%
%TO.N,VDD*%
%TA.AperFunction,SMDPad,CuDef*%
G36*
G01*
X161870200Y-131742900D02*
X161370200Y-131742900D01*
G75*
G02*
X161145200Y-131517900I0J225000D01*
G01*
X161145200Y-131067900D01*
G75*
G02*
X161370200Y-130842900I225000J0D01*
G01*
X161870200Y-130842900D01*
G75*
G02*
X162095200Y-131067900I0J-225000D01*
G01*
X162095200Y-131517900D01*
G75*
G02*
X161870200Y-131742900I-225000J0D01*
G01*
G37*
%TD.AperFunction*%
%TD*%
%TO.P,C3,2*%
%TO.N,GND*%
%TA.AperFunction,SMDPad,CuDef*%
G36*
G01*
X181123400Y-126852800D02*
X180623400Y-126852800D01*
G75*
G02*
X180398400Y-126627800I0J225000D01*
G01*
X180398400Y-126177800D01*
G75*
G02*
X180623400Y-125952800I225000J0D01*
G01*
X181123400Y-125952800D01*
G75*
G02*
X181348400Y-126177800I0J-225000D01*
G01*
X181348400Y-126627800D01*
G75*
G02*
X181123400Y-126852800I-225000J0D01*
G01*
G37*
%TD.AperFunction*%
%TO.P,C3,1*%
%TO.N,VBUS*%
%TA.AperFunction,SMDPad,CuDef*%
G36*
G01*
X181123400Y-128402800D02*
X180623400Y-128402800D01*
G75*
G02*
X180398400Y-128177800I0J225000D01*
G01*
X180398400Y-127727800D01*
G75*
G02*
X180623400Y-127502800I225000J0D01*
G01*
X181123400Y-127502800D01*
G75*
G02*
X181348400Y-127727800I0J-225000D01*
G01*
X181348400Y-128177800D01*
G75*
G02*
X181123400Y-128402800I-225000J0D01*
G01*
G37*
%TD.AperFunction*%
%TD*%
%TO.P,C2,2*%
%TO.N,/TO_RESET*%
%TA.AperFunction,SMDPad,CuDef*%
G36*
G01*
X107005000Y-137410000D02*
X107005000Y-136910000D01*
G75*
G02*
X107230000Y-136685000I225000J0D01*
G01*
X107680000Y-136685000D01*
G75*
G02*
X107905000Y-136910000I0J-225000D01*
G01*
X107905000Y-137410000D01*
G75*
G02*
X107680000Y-137635000I-225000J0D01*
G01*
X107230000Y-137635000D01*
G75*
G02*
X107005000Y-137410000I0J225000D01*
G01*
G37*
%TD.AperFunction*%
%TO.P,C2,1*%
%TO.N,/DTR*%
%TA.AperFunction,SMDPad,CuDef*%
G36*
G01*
X105455000Y-137410000D02*
X105455000Y-136910000D01*
G75*
G02*
X105680000Y-136685000I225000J0D01*
G01*
X106130000Y-136685000D01*
G75*
G02*
X106355000Y-136910000I0J-225000D01*
G01*
X106355000Y-137410000D01*
G75*
G02*
X106130000Y-137635000I-225000J0D01*
G01*
X105680000Y-137635000D01*
G75*
G02*
X105455000Y-137410000I0J225000D01*
G01*
G37*
%TD.AperFunction*%
%TD*%
%TO.P,C1,2*%
%TO.N,GND*%
%TA.AperFunction,SMDPad,CuDef*%
G36*
G01*
X164900800Y-124746900D02*
X165400800Y-124746900D01*
G75*
G02*
X165625800Y-124971900I0J-225000D01*
G01*
X165625800Y-125421900D01*
G75*
G02*
X165400800Y-125646900I-225000J0D01*
G01*
X164900800Y-125646900D01*
G75*
G02*
X164675800Y-125421900I0J225000D01*
G01*
X164675800Y-124971900D01*
G75*
G02*
X164900800Y-124746900I225000J0D01*
G01*
G37*
%TD.AperFunction*%
%TO.P,C1,1*%
%TO.N,VBUS*%
%TA.AperFunction,SMDPad,CuDef*%
G36*
G01*
X164900800Y-123196900D02*
X165400800Y-123196900D01*
G75*
G02*
X165625800Y-123421900I0J-225000D01*
G01*
X165625800Y-123871900D01*
G75*
G02*
X165400800Y-124096900I-225000J0D01*
G01*
X164900800Y-124096900D01*
G75*
G02*
X164675800Y-123871900I0J225000D01*
G01*
X164675800Y-123421900D01*
G75*
G02*
X164900800Y-123196900I225000J0D01*
G01*
G37*
%TD.AperFunction*%
%TD*%
D23*
%TO.P,J8,1*%
%TO.N,GND*%
X179832000Y-136652000D03*
%TD*%
%TO.P,C9,1*%
%TO.N,GND*%
%TA.AperFunction,SMDPad,CuDef*%
G36*
G01*
X166134500Y-128896300D02*
X166134500Y-129396300D01*
G75*
G02*
X165909500Y-129621300I-225000J0D01*
G01*
X165459500Y-129621300D01*
G75*
G02*
X165234500Y-129396300I0J225000D01*
G01*
X165234500Y-128896300D01*
G75*
G02*
X165459500Y-128671300I225000J0D01*
G01*
X165909500Y-128671300D01*
G75*
G02*
X166134500Y-128896300I0J-225000D01*
G01*
G37*
%TD.AperFunction*%
%TO.P,C9,2*%
%TO.N,Net-(C9-Pad2)*%
%TA.AperFunction,SMDPad,CuDef*%
G36*
G01*
X164584500Y-128896300D02*
X164584500Y-129396300D01*
G75*
G02*
X164359500Y-129621300I-225000J0D01*
G01*
X163909500Y-129621300D01*
G75*
G02*
X163684500Y-129396300I0J225000D01*
G01*
X163684500Y-128896300D01*
G75*
G02*
X163909500Y-128671300I225000J0D01*
G01*
X164359500Y-128671300D01*
G75*
G02*
X164584500Y-128896300I0J-225000D01*
G01*
G37*
%TD.AperFunction*%
%TD*%
%TO.P,C10,2*%
%TO.N,GND*%
%TA.AperFunction,SMDPad,CuDef*%
G36*
G01*
X165221800Y-132939600D02*
X165221800Y-132439600D01*
G75*
G02*
X165446800Y-132214600I225000J0D01*
G01*
X165896800Y-132214600D01*
G75*
G02*
X166121800Y-132439600I0J-225000D01*
G01*
X166121800Y-132939600D01*
G75*
G02*
X165896800Y-133164600I-225000J0D01*
G01*
X165446800Y-133164600D01*
G75*
G02*
X165221800Y-132939600I0J225000D01*
G01*
G37*
%TD.AperFunction*%
%TO.P,C10,1*%
%TO.N,Net-(C10-Pad1)*%
%TA.AperFunction,SMDPad,CuDef*%
G36*
G01*
X163671800Y-132939600D02*
X163671800Y-132439600D01*
G75*
G02*
X163896800Y-132214600I225000J0D01*
G01*
X164346800Y-132214600D01*
G75*
G02*
X164571800Y-132439600I0J-225000D01*
G01*
X164571800Y-132939600D01*
G75*
G02*
X164346800Y-133164600I-225000J0D01*
G01*
X163896800Y-133164600D01*
G75*
G02*
X163671800Y-132939600I0J225000D01*
G01*
G37*
%TD.AperFunction*%
%TD*%
%TO.P,RTC1,1*%
%TO.N,Net-(C9-Pad2)*%
%TA.AperFunction,SMDPad,CuDef*%
G36*
G01*
X167336500Y-129594800D02*
X167136500Y-129594800D01*
G75*
G02*
X167036500Y-129494800I0J100000D01*
G01*
X167036500Y-128069800D01*
G75*
G02*
X167136500Y-127969800I100000J0D01*
G01*
X167336500Y-127969800D01*
G75*
G02*
X167436500Y-128069800I0J-100000D01*
G01*
X167436500Y-129494800D01*
G75*
G02*
X167336500Y-129594800I-100000J0D01*
G01*
G37*
%TD.AperFunction*%
%TO.P,RTC1,2*%
%TO.N,Net-(C10-Pad1)*%
%TA.AperFunction,SMDPad,CuDef*%
G36*
G01*
X167986500Y-129594800D02*
X167786500Y-129594800D01*
G75*
G02*
X167686500Y-129494800I0J100000D01*
G01*
X167686500Y-128069800D01*
G75*
G02*
X167786500Y-127969800I100000J0D01*
G01*
X167986500Y-127969800D01*
G75*
G02*
X168086500Y-128069800I0J-100000D01*
G01*
X168086500Y-129494800D01*
G75*
G02*
X167986500Y-129594800I-100000J0D01*
G01*
G37*
%TD.AperFunction*%
%TO.P,RTC1,3*%
%TO.N,+BATT*%
%TA.AperFunction,SMDPad,CuDef*%
G36*
G01*
X168636500Y-129594800D02*
X168436500Y-129594800D01*
G75*
G02*
X168336500Y-129494800I0J100000D01*
G01*
X168336500Y-128069800D01*
G75*
G02*
X168436500Y-127969800I100000J0D01*
G01*
X168636500Y-127969800D01*
G75*
G02*
X168736500Y-128069800I0J-100000D01*
G01*
X168736500Y-129494800D01*
G75*
G02*
X168636500Y-129594800I-100000J0D01*
G01*
G37*
%TD.AperFunction*%
%TO.P,RTC1,4*%
%TO.N,GND*%
%TA.AperFunction,SMDPad,CuDef*%
G36*
G01*
X169286500Y-129594800D02*
X169086500Y-129594800D01*
G75*
G02*
X168986500Y-129494800I0J100000D01*
G01*
X168986500Y-128069800D01*
G75*
G02*
X169086500Y-127969800I100000J0D01*
G01*
X169286500Y-127969800D01*
G75*
G02*
X169386500Y-128069800I0J-100000D01*
G01*
X169386500Y-129494800D01*
G75*
G02*
X169286500Y-129594800I-100000J0D01*
G01*
G37*
%TD.AperFunction*%
%TO.P,RTC1,5*%
%TO.N,/SDA*%
%TA.AperFunction,SMDPad,CuDef*%
G36*
G01*
X169286500Y-125369800D02*
X169086500Y-125369800D01*
G75*
G02*
X168986500Y-125269800I0J100000D01*
G01*
X168986500Y-123844800D01*
G75*
G02*
X169086500Y-123744800I100000J0D01*
G01*
X169286500Y-123744800D01*
G75*
G02*
X169386500Y-123844800I0J-100000D01*
G01*
X169386500Y-125269800D01*
G75*
G02*
X169286500Y-125369800I-100000J0D01*
G01*
G37*
%TD.AperFunction*%
%TO.P,RTC1,6*%
%TO.N,/SCL*%
%TA.AperFunction,SMDPad,CuDef*%
G36*
G01*
X168636500Y-125369800D02*
X168436500Y-125369800D01*
G75*
G02*
X168336500Y-125269800I0J100000D01*
G01*
X168336500Y-123844800D01*
G75*
G02*
X168436500Y-123744800I100000J0D01*
G01*
X168636500Y-123744800D01*
G75*
G02*
X168736500Y-123844800I0J-100000D01*
G01*
X168736500Y-125269800D01*
G75*
G02*
X168636500Y-125369800I-100000J0D01*
G01*
G37*
%TD.AperFunction*%
%TO.P,RTC1,7*%
%TO.N,/32kHz*%
%TA.AperFunction,SMDPad,CuDef*%
G36*
G01*
X167986500Y-125369800D02*
X167786500Y-125369800D01*
G75*
G02*
X167686500Y-125269800I0J100000D01*
G01*
X167686500Y-123844800D01*
G75*
G02*
X167786500Y-123744800I100000J0D01*
G01*
X167986500Y-123744800D01*
G75*
G02*
X168086500Y-123844800I0J-100000D01*
G01*
X168086500Y-125269800D01*
G75*
G02*
X167986500Y-125369800I-100000J0D01*
G01*
G37*
%TD.AperFunction*%
%TO.P,RTC1,8*%
%TO.N,VBUS*%
%TA.AperFunction,SMDPad,CuDef*%
G36*
G01*
X167336500Y-125369800D02*
X167136500Y-125369800D01*
G75*
G02*
X167036500Y-125269800I0J100000D01*
G01*
X167036500Y-123844800D01*
G75*
G02*
X167136500Y-123744800I100000J0D01*
G01*
X167336500Y-123744800D01*
G75*
G02*
X167436500Y-123844800I0J-100000D01*
G01*
X167436500Y-125269800D01*
G75*
G02*
X167336500Y-125369800I-100000J0D01*
G01*
G37*
%TD.AperFunction*%
%TD*%
%TO.P,J2,1*%
%TO.N,/32kHz*%
X161366200Y-122135900D03*
%TD*%
%TO.P,D2,1*%
%TO.N,VBUS*%
%TA.AperFunction,SMDPad,CuDef*%
G36*
G01*
X146288700Y-134288850D02*
X146288700Y-133376350D01*
G75*
G02*
X146532450Y-133132600I243750J0D01*
G01*
X147019950Y-133132600D01*
G75*
G02*
X147263700Y-133376350I0J-243750D01*
G01*
X147263700Y-134288850D01*
G75*
G02*
X147019950Y-134532600I-243750J0D01*
G01*
X146532450Y-134532600D01*
G75*
G02*
X146288700Y-134288850I0J243750D01*
G01*
G37*
%TD.AperFunction*%
%TO.P,D2,2*%
%TO.N,Net-(D2-Pad2)*%
%TA.AperFunction,SMDPad,CuDef*%
G36*
G01*
X148163700Y-134288850D02*
X148163700Y-133376350D01*
G75*
G02*
X148407450Y-133132600I243750J0D01*
G01*
X148894950Y-133132600D01*
G75*
G02*
X149138700Y-133376350I0J-243750D01*
G01*
X149138700Y-134288850D01*
G75*
G02*
X148894950Y-134532600I-243750J0D01*
G01*
X148407450Y-134532600D01*
G75*
G02*
X148163700Y-134288850I0J243750D01*
G01*
G37*
%TD.AperFunction*%
%TD*%
%TO.P,R18,1*%
%TO.N,Net-(R18-Pad1)*%
%TA.AperFunction,SMDPad,CuDef*%
G36*
G01*
X149053000Y-131843100D02*
X149053000Y-132393100D01*
G75*
G02*
X148853000Y-132593100I-200000J0D01*
G01*
X148453000Y-132593100D01*
G75*
G02*
X148253000Y-132393100I0J200000D01*
G01*
X148253000Y-131843100D01*
G75*
G02*
X148453000Y-131643100I200000J0D01*
G01*
X148853000Y-131643100D01*
G75*
G02*
X149053000Y-131843100I0J-200000D01*
G01*
G37*
%TD.AperFunction*%
%TO.P,R18,2*%
%TO.N,Net-(D2-Pad2)*%
%TA.AperFunction,SMDPad,CuDef*%
G36*
G01*
X147403000Y-131843100D02*
X147403000Y-132393100D01*
G75*
G02*
X147203000Y-132593100I-200000J0D01*
G01*
X146803000Y-132593100D01*
G75*
G02*
X146603000Y-132393100I0J200000D01*
G01*
X146603000Y-131843100D01*
G75*
G02*
X146803000Y-131643100I200000J0D01*
G01*
X147203000Y-131643100D01*
G75*
G02*
X147403000Y-131843100I0J-200000D01*
G01*
G37*
%TD.AperFunction*%
%TD*%
D25*
%TO.N,GND*%
X119380000Y-124206000D03*
X114554000Y-136906000D03*
X119634000Y-137414000D03*
X124968000Y-137160000D03*
X136906000Y-137160000D03*
X139954000Y-136652000D03*
X125222000Y-122936000D03*
X133350000Y-122936000D03*
X144527583Y-124202834D03*
X154432000Y-125666500D03*
X157480000Y-129540000D03*
X127000000Y-128016000D03*
X112776000Y-123698000D03*
X169900600Y-128778000D03*
X165671500Y-127952500D03*
X166878000Y-132689600D03*
X171221400Y-124866400D03*
X162230366Y-124842390D03*
X181965600Y-125412500D03*
X182460900Y-130467100D03*
X149313900Y-122186700D03*
X118605300Y-128460500D03*
%TO.N,VBUS*%
X107442000Y-124460000D03*
X142460812Y-129274938D03*
X144526000Y-127254000D03*
X147828000Y-125730000D03*
X136144000Y-125984000D03*
X133350000Y-124206000D03*
X143357589Y-123190000D03*
X143510008Y-125222000D03*
X155448000Y-122936000D03*
X158750000Y-123190000D03*
%TO.N,/TO_FTDI_RX*%
X145948397Y-122428000D03*
X110998000Y-125984000D03*
X110998000Y-128016000D03*
X107950000Y-134112000D03*
X105918000Y-134112000D03*
X143497479Y-121959922D03*
%TO.N,/TO_FTDI_TX*%
X136652000Y-124968000D03*
X134874000Y-124968000D03*
X121666000Y-126746000D03*
X119126000Y-127177500D03*
X114046000Y-127177500D03*
X106172000Y-129032000D03*
%TO.N,/HALL_SLEEP*%
X171704000Y-133794500D03*
X185166000Y-133858000D03*
%TO.N,/HALL_OUT*%
X185928000Y-133350000D03*
X156718000Y-134874000D03*
X153485312Y-134689312D03*
X152146000Y-134112000D03*
X158292800Y-134251700D03*
X170741506Y-135297067D03*
X167970200Y-135432832D03*
%TO.N,/PD4*%
X155423077Y-134112392D03*
%TO.N,/PD5*%
X156261175Y-134099207D03*
%TO.N,/PD2*%
X158496000Y-136906000D03*
X154432000Y-134302500D03*
%TO.N,/MOSI*%
X143256000Y-129540000D03*
%TO.N,/RSV2*%
X137414000Y-133350000D03*
X137668000Y-128016000D03*
%TO.N,/SCL*%
X156972000Y-126809510D03*
%TO.N,/UPDI*%
X148336000Y-126746000D03*
X155956000Y-127114321D03*
X152503013Y-127114321D03*
X155956000Y-125666500D03*
%TO.N,VBUS*%
X179247800Y-129933700D03*
X179285900Y-127825490D03*
X150850600Y-124231400D03*
X142571678Y-132422900D03*
%TO.N,VDD*%
X168325800Y-126415800D03*
X170827700Y-126911100D03*
%TO.N,/HALL_SLEEP*%
X175260000Y-134213610D03*
X183104231Y-134097224D03*
%TO.N,/HALL_OUT*%
X182994300Y-133223000D03*
%TO.N,/SCL1*%
X186385200Y-130251200D03*
X188595000Y-130238500D03*
%TO.N,/PD4*%
X158450111Y-135217249D03*
X167376271Y-136024311D03*
%TO.N,/PD5*%
X159385888Y-135813821D03*
X164909500Y-137769600D03*
X162483800Y-137604890D03*
%TO.N,/AREF*%
X170624500Y-133743700D03*
X174621637Y-134756834D03*
%TO.N,/MOSI*%
X142633313Y-131203313D03*
%TO.N,/SDA*%
X169189400Y-123063000D03*
X172085000Y-126987300D03*
X172273257Y-131975666D03*
X162775900Y-124206000D03*
X175437800Y-127495290D03*
%TO.N,/SCL*%
X160629600Y-126060200D03*
%TO.N,/32kHz*%
X166827200Y-123063000D03*
X164299900Y-121437400D03*
X161391600Y-126796800D03*
%TO.N,+BATT*%
X125222000Y-131826000D03*
X160947100Y-132499100D03*
X141211300Y-134353300D03*
%TO.N,/BATT_MON_EN*%
X150533100Y-132702300D03*
X152069800Y-130556000D03*
%TO.N,/VREG_EN*%
X169849800Y-125463300D03*
X171818300Y-125755400D03*
X162902910Y-125488690D03*
X179302343Y-131438233D03*
%TO.N,/TO_RESET*%
X111506000Y-123698000D03*
X114046000Y-125984000D03*
%TD*%
D26*
%TO.N,GND*%
X114363000Y-136715000D02*
X114554000Y-136906000D01*
X113030000Y-136715000D02*
X114363000Y-136715000D01*
X114620000Y-136840000D02*
X114554000Y-136906000D01*
X115840000Y-136840000D02*
X114620000Y-136840000D01*
X120333000Y-136715000D02*
X119634000Y-137414000D01*
X120650000Y-136715000D02*
X120333000Y-136715000D01*
X124985000Y-137177000D02*
X124968000Y-137160000D01*
X126872000Y-137177000D02*
X124985000Y-137177000D01*
X136889000Y-137177000D02*
X136906000Y-137160000D01*
X135172000Y-137177000D02*
X136889000Y-137177000D01*
X141538000Y-136652000D02*
X139954000Y-136652000D01*
X125713000Y-123427000D02*
X125222000Y-122936000D01*
X126872000Y-123427000D02*
X125713000Y-123427000D01*
X133841000Y-123427000D02*
X133350000Y-122936000D01*
X135172000Y-123427000D02*
X133841000Y-123427000D01*
X145032417Y-123698000D02*
X144527583Y-124202834D01*
X145288000Y-123698000D02*
X145032417Y-123698000D01*
X154472000Y-125626500D02*
X154432000Y-125666500D01*
X154472000Y-124242000D02*
X154472000Y-125626500D01*
X157632000Y-129692000D02*
X157480000Y-129540000D01*
X159122000Y-129692000D02*
X157632000Y-129692000D01*
X127014000Y-128002000D02*
X127000000Y-128016000D01*
X129472000Y-128002000D02*
X127014000Y-128002000D01*
X112726000Y-123648000D02*
X112776000Y-123698000D01*
X112726000Y-122306000D02*
X112726000Y-123648000D01*
X119126000Y-123952000D02*
X119380000Y-124206000D01*
X119126000Y-122306000D02*
X119126000Y-123952000D01*
X119393000Y-124193000D02*
X119380000Y-124206000D01*
X121158000Y-124193000D02*
X119393000Y-124193000D01*
X169896300Y-128782300D02*
X169900600Y-128778000D01*
X169186500Y-128782300D02*
X169896300Y-128782300D01*
X165684500Y-127965500D02*
X165671500Y-127952500D01*
X165684500Y-129146300D02*
X165684500Y-127965500D01*
X165671800Y-132689600D02*
X166878000Y-132689600D01*
X161569300Y-129692000D02*
X161620200Y-129742900D01*
X159122000Y-129692000D02*
X161569300Y-129692000D01*
X171284900Y-124866400D02*
X171221400Y-124866400D01*
X165150800Y-125121301D02*
X164871889Y-124842390D01*
X164871889Y-124842390D02*
X162230366Y-124842390D01*
X181965600Y-125412500D02*
X181965600Y-126580600D01*
X181991000Y-126606000D02*
X181965600Y-126580600D01*
X183057800Y-126606000D02*
X181991000Y-126606000D01*
X180319500Y-130479800D02*
X182448200Y-130479800D01*
X182448200Y-130479800D02*
X182460900Y-130467100D01*
X180936900Y-126580600D02*
X180873400Y-126517100D01*
X181965600Y-126580600D02*
X180936900Y-126580600D01*
X152679100Y-122174000D02*
X149326600Y-122174000D01*
X149326600Y-122174000D02*
X149313900Y-122186700D01*
X120650000Y-129299000D02*
X119443800Y-129299000D01*
X119443800Y-129299000D02*
X118605300Y-128460500D01*
%TO.N,VBUS*%
X155272000Y-124242000D02*
X155272000Y-123555518D01*
X165736000Y-122174000D02*
X165736000Y-122300000D01*
X107950000Y-128016000D02*
X109220000Y-126746000D01*
X107950000Y-130810000D02*
X107950000Y-128016000D01*
X113035242Y-130626390D02*
X114706390Y-130626390D01*
X112326390Y-129917538D02*
X113035242Y-130626390D01*
X114706390Y-130626390D02*
X115840000Y-131760000D01*
X112326390Y-128593610D02*
X112326390Y-129917538D01*
X113030000Y-127890000D02*
X112326390Y-128593610D01*
X113171000Y-127749000D02*
X113030000Y-127890000D01*
X120650000Y-127749000D02*
X113171000Y-127749000D01*
X123103000Y-130202000D02*
X129472000Y-130202000D01*
X120650000Y-127749000D02*
X123103000Y-130202000D01*
X143510000Y-126238000D02*
X142494000Y-125222000D01*
X145288000Y-126238000D02*
X143510000Y-126238000D01*
X108395000Y-123507000D02*
X108395000Y-123190000D01*
X107442000Y-124460000D02*
X108395000Y-123507000D01*
X142494000Y-126238000D02*
X143510000Y-126238000D01*
X140716000Y-128016000D02*
X142494000Y-126238000D01*
X141201874Y-128016000D02*
X142460812Y-129274938D01*
X140716000Y-128016000D02*
X141201874Y-128016000D01*
X145288000Y-126492000D02*
X144526000Y-127254000D01*
X145288000Y-126238000D02*
X145288000Y-126492000D01*
X136144000Y-127337822D02*
X136144000Y-125984000D01*
X137393679Y-128587501D02*
X136144000Y-127337822D01*
X140144499Y-128587501D02*
X137393679Y-128587501D01*
X140716000Y-128016000D02*
X140144499Y-128587501D01*
X143103589Y-122936000D02*
X143357589Y-123190000D01*
X142494000Y-122936000D02*
X143103589Y-122936000D01*
X142494000Y-125222000D02*
X143510008Y-125222000D01*
X155272000Y-124242000D02*
X155272000Y-123112000D01*
X155272000Y-123112000D02*
X155448000Y-122936000D01*
X120650000Y-125743000D02*
X120650000Y-127749000D01*
X121907000Y-125743000D02*
X120650000Y-125743000D01*
X123101101Y-124548899D02*
X121907000Y-125743000D01*
X133007101Y-124548899D02*
X123101101Y-124548899D01*
X133350000Y-124206000D02*
X133007101Y-124548899D01*
X111252000Y-126746000D02*
X112396000Y-127890000D01*
X112396000Y-127890000D02*
X113030000Y-127890000D01*
X109220000Y-126746000D02*
X111252000Y-126746000D01*
%TO.N,/DTR*%
X104635000Y-135890000D02*
X105905000Y-137160000D01*
X102870000Y-135890000D02*
X104635000Y-135890000D01*
%TO.N,VDD*%
X159122000Y-130492000D02*
X162242000Y-130492000D01*
%TO.N,/TO_FTDI_RX*%
X147804601Y-123213399D02*
X147320000Y-123698000D01*
X152795799Y-123213399D02*
X147804601Y-123213399D01*
X152872000Y-123289600D02*
X152795799Y-123213399D01*
X147320000Y-123698000D02*
X146558000Y-123698000D01*
X152872000Y-124242000D02*
X152872000Y-123289600D01*
X145948397Y-123088397D02*
X145948397Y-122428000D01*
X146558000Y-123698000D02*
X145948397Y-123088397D01*
X108094831Y-134112000D02*
X107950000Y-134112000D01*
X110998000Y-131208831D02*
X108094831Y-134112000D01*
X110998000Y-128016000D02*
X110998000Y-131208831D01*
X103632000Y-134112000D02*
X102870000Y-133350000D01*
X105918000Y-134112000D02*
X103632000Y-134112000D01*
X121582751Y-125064390D02*
X124687219Y-121959922D01*
X124687219Y-121959922D02*
X143497479Y-121959922D01*
X111917610Y-125064390D02*
X121582751Y-125064390D01*
X110998000Y-125984000D02*
X111917610Y-125064390D01*
%TO.N,/TO_FTDI_TX*%
X137756901Y-123863099D02*
X136652000Y-124968000D01*
X123444000Y-124968000D02*
X121666000Y-126746000D01*
X134874000Y-124968000D02*
X123444000Y-124968000D01*
X119126000Y-127177500D02*
X114046000Y-127177500D01*
X104648000Y-129032000D02*
X102870000Y-130810000D01*
X106172000Y-129032000D02*
X104648000Y-129032000D01*
X148562589Y-122908589D02*
X153290989Y-122908589D01*
X147358099Y-121704099D02*
X148562589Y-122908589D01*
X143929099Y-122334527D02*
X144559527Y-121704099D01*
X153290989Y-122908589D02*
X153672000Y-123289600D01*
X144559527Y-121704099D02*
X147358099Y-121704099D01*
X153672000Y-123289600D02*
X153672000Y-124242000D01*
X144526000Y-124968000D02*
X144272000Y-124714000D01*
X145288000Y-124968000D02*
X144526000Y-124968000D01*
X142996929Y-123863099D02*
X137756901Y-123863099D01*
X143847830Y-124714000D02*
X142996929Y-123863099D01*
X144272000Y-124714000D02*
X143847830Y-124714000D01*
X143675099Y-123863099D02*
X143929099Y-123609099D01*
X143929099Y-123609099D02*
X143929099Y-122334527D01*
X143675099Y-123863099D02*
X142996929Y-123863099D01*
%TO.N,/HALL_SLEEP*%
X185812420Y-134504420D02*
X185166000Y-133858000D01*
%TO.N,/HALL_OUT*%
X186777610Y-134199610D02*
X185928000Y-133350000D01*
X153670000Y-134874000D02*
X153485312Y-134689312D01*
X156718000Y-134874000D02*
X153670000Y-134874000D01*
X152872000Y-133386000D02*
X152872000Y-132742000D01*
X152146000Y-134112000D02*
X152872000Y-133386000D01*
X158292800Y-134251700D02*
X158978600Y-134937500D01*
X161546199Y-134937500D02*
X161877287Y-135268588D01*
X161877287Y-135268588D02*
X164219985Y-135268588D01*
X164219985Y-135268588D02*
X164244530Y-135293133D01*
X165179132Y-135293133D02*
X165255332Y-135216933D01*
X164244530Y-135293133D02*
X165179132Y-135293133D01*
X165255332Y-135216933D02*
X167269368Y-135216933D01*
X158978600Y-134937500D02*
X161546199Y-134937500D01*
X167485267Y-135432832D02*
X167970200Y-135432832D01*
X167269368Y-135216933D02*
X167485267Y-135432832D01*
%TO.N,/PD4*%
X156072000Y-133463469D02*
X155423077Y-134112392D01*
X156072000Y-132742000D02*
X156072000Y-133463469D01*
%TO.N,/PD5*%
X156872000Y-133488382D02*
X156872000Y-132742000D01*
X156261175Y-134099207D02*
X156872000Y-133488382D01*
%TO.N,Net-(J6-Pad3)*%
X166116000Y-136652000D02*
X168022000Y-136652000D01*
X168593000Y-137223000D02*
X168022000Y-136652000D01*
X169164000Y-137223000D02*
X168593000Y-137223000D01*
%TO.N,/PD2*%
X154472000Y-132742000D02*
X154472000Y-134262500D01*
X154472000Y-134262500D02*
X154432000Y-134302500D01*
%TO.N,/AREF*%
X178520601Y-135423399D02*
X182710601Y-135423399D01*
X177292000Y-136652000D02*
X178520601Y-135423399D01*
%TO.N,/RSV1*%
X137849482Y-122936000D02*
X140844000Y-122936000D01*
X134983482Y-125802000D02*
X137849482Y-122936000D01*
X129472000Y-125802000D02*
X134983482Y-125802000D01*
%TO.N,/MISO*%
X150622000Y-127292000D02*
X149314000Y-127292000D01*
X149314000Y-127292000D02*
X147886390Y-128719610D01*
X147886390Y-128719610D02*
X147886390Y-128796544D01*
X147886390Y-128796544D02*
X146482554Y-130200380D01*
X146482554Y-130200380D02*
X133502380Y-130200380D01*
X130204000Y-126902000D02*
X129472000Y-126902000D01*
X133502380Y-130200380D02*
X130204000Y-126902000D01*
%TO.N,/SCK*%
X129796000Y-128778000D02*
X129472000Y-129102000D01*
X130374400Y-129102000D02*
X129472000Y-129102000D01*
X131777590Y-130505190D02*
X130374400Y-129102000D01*
X146608810Y-130505190D02*
X131777590Y-130505190D01*
X149022000Y-128092000D02*
X146608810Y-130505190D01*
X150622000Y-128092000D02*
X149022000Y-128092000D01*
%TO.N,/MOSI*%
X149682934Y-126492000D02*
X150622000Y-126492000D01*
X146634934Y-129540000D02*
X149682934Y-126492000D01*
X143256000Y-129540000D02*
X146634934Y-129540000D01*
%TO.N,/CS*%
X128493399Y-134084881D02*
X128493399Y-132919119D01*
X129010518Y-132402000D02*
X129472000Y-132402000D01*
X128539119Y-134130601D02*
X128493399Y-134084881D01*
X128493399Y-132919119D02*
X129010518Y-132402000D01*
X133368601Y-134130601D02*
X128539119Y-134130601D01*
X133382465Y-134130601D02*
X133368601Y-134130601D01*
%TO.N,/RSV2*%
X133580000Y-133502000D02*
X129472000Y-133502000D01*
X137262000Y-133502000D02*
X137414000Y-133350000D01*
X133580000Y-133502000D02*
X137262000Y-133502000D01*
X140462000Y-125222000D02*
X137668000Y-128016000D01*
X140844000Y-125222000D02*
X140462000Y-125222000D01*
%TO.N,/SCL*%
X152242143Y-126542811D02*
X156705301Y-126542811D01*
X156705301Y-126542811D02*
X156972000Y-126809510D01*
X151391332Y-125692000D02*
X152242143Y-126542811D01*
X150622000Y-125692000D02*
X151391332Y-125692000D01*
%TO.N,/UPDI*%
X146951699Y-126631699D02*
X146558000Y-126238000D01*
X146951699Y-128130301D02*
X146951699Y-126631699D01*
X146304000Y-128778000D02*
X146951699Y-128130301D01*
X144780000Y-128778000D02*
X146304000Y-128778000D01*
X144018000Y-128016000D02*
X144780000Y-128778000D01*
X142366000Y-128016000D02*
X144018000Y-128016000D01*
X148221699Y-126631699D02*
X148336000Y-126746000D01*
X146951699Y-126631699D02*
X148221699Y-126631699D01*
X152987946Y-127114321D02*
X155956000Y-127114321D01*
X152503013Y-127114321D02*
X152987946Y-127114321D01*
X156072000Y-125550500D02*
X155956000Y-125666500D01*
X156072000Y-124242000D02*
X156072000Y-125550500D01*
%TO.N,Net-(Q3-Pad3)*%
X118285000Y-131255000D02*
X117840000Y-130810000D01*
X120650000Y-131255000D02*
X118285000Y-131255000D01*
%TO.N,Net-(Q3-Pad1)*%
X117840000Y-132412400D02*
X117840000Y-135890000D01*
X115840000Y-130412400D02*
X117840000Y-132412400D01*
X115840000Y-129860000D02*
X115840000Y-130412400D01*
X113350000Y-129860000D02*
X113030000Y-129540000D01*
X115840000Y-129860000D02*
X113350000Y-129860000D01*
%TO.N,/32kHz*%
X167386000Y-122422500D02*
X167386000Y-122174000D01*
%TO.N,VBUS*%
X165736000Y-123056800D02*
X167236500Y-124557300D01*
X165736000Y-122174000D02*
X165736000Y-123056800D01*
X165736000Y-123061700D02*
X165150800Y-123646900D01*
X165736000Y-123056800D02*
X165736000Y-123061700D01*
X159359600Y-123799600D02*
X158750000Y-123190000D01*
X162178400Y-123799600D02*
X159359600Y-123799600D01*
X162560000Y-123418000D02*
X162178400Y-123799600D01*
X163970300Y-123418000D02*
X162560000Y-123418000D01*
X165214300Y-122174000D02*
X163970300Y-123418000D01*
X165736000Y-122174000D02*
X165214300Y-122174000D01*
X166439610Y-121470390D02*
X165736000Y-122174000D01*
X168892190Y-121470390D02*
X166439610Y-121470390D01*
X172403399Y-124981599D02*
X168892190Y-121470390D01*
X172403399Y-126429399D02*
X172403399Y-124981599D01*
X173482000Y-127508000D02*
X172403399Y-126429399D01*
X170610321Y-134620013D02*
X173046317Y-134620013D01*
X175042730Y-132623600D02*
X178469800Y-132623600D01*
X169657334Y-135573000D02*
X170610321Y-134620013D01*
X173046317Y-134620013D02*
X175042730Y-132623600D01*
X169164000Y-135573000D02*
X169657334Y-135573000D01*
X178269400Y-126042200D02*
X178533300Y-125778300D01*
X178269400Y-127317500D02*
X178269400Y-126042200D01*
X179651700Y-129529800D02*
X179247800Y-129933700D01*
X180319500Y-129529800D02*
X179651700Y-129529800D01*
X177558200Y-129933700D02*
X179247800Y-129933700D01*
X177520600Y-131674400D02*
X177520600Y-129971300D01*
X178469800Y-132623600D02*
X177520600Y-131674400D01*
X177520600Y-129971300D02*
X177558200Y-129933700D01*
X178002700Y-129489200D02*
X177558200Y-129933700D01*
X178002700Y-129222500D02*
X178002700Y-129489200D01*
X177520100Y-128066800D02*
X178269400Y-127317500D01*
X174904400Y-128066800D02*
X177520100Y-128066800D01*
X173482000Y-127508000D02*
X174345600Y-127508000D01*
X174345600Y-127508000D02*
X174904400Y-128066800D01*
X178777390Y-127825490D02*
X179285900Y-127825490D01*
X179527510Y-128067100D02*
X179285900Y-127825490D01*
X178269400Y-127317500D02*
X178777390Y-127825490D01*
X180873400Y-128067100D02*
X179527510Y-128067100D01*
X147828000Y-125730000D02*
X149326600Y-124231400D01*
X149326600Y-124231400D02*
X150850600Y-124231400D01*
X154686000Y-122174000D02*
X155448000Y-122936000D01*
X154229100Y-122174000D02*
X154686000Y-122174000D01*
X144021810Y-134735810D02*
X143093200Y-133807200D01*
X145872990Y-134735810D02*
X144021810Y-134735810D01*
X146776200Y-133832600D02*
X145872990Y-134735810D01*
X143093200Y-132944422D02*
X143093200Y-133807200D01*
X142571678Y-132422900D02*
X143093200Y-132944422D01*
%TO.N,VDD*%
X161620200Y-131113800D02*
X162242000Y-130492000D01*
X161620200Y-131292900D02*
X161620200Y-131113800D01*
X162323810Y-127159990D02*
X163068000Y-126415800D01*
X162242000Y-130492000D02*
X162323810Y-130410190D01*
X162323810Y-130410190D02*
X162323810Y-127159990D01*
X163068000Y-126415800D02*
X168325800Y-126415800D01*
X181102000Y-123468900D02*
X183959500Y-123468900D01*
X189624558Y-125399800D02*
X189972700Y-125399800D01*
X187693658Y-123468900D02*
X189624558Y-125399800D01*
X183959500Y-123468900D02*
X187693658Y-123468900D01*
X184177400Y-129529800D02*
X184238900Y-129591300D01*
X182519500Y-129529800D02*
X184177400Y-129529800D01*
X181856600Y-128866900D02*
X182519500Y-129529800D01*
X179629598Y-128397000D02*
X180099498Y-128866900D01*
X180099498Y-128866900D02*
X181856600Y-128866900D01*
X172964271Y-128586601D02*
X173999729Y-128586601D01*
X170827700Y-126911100D02*
X172422790Y-128506190D01*
X174189330Y-128397000D02*
X179629598Y-128397000D01*
X172422790Y-128506190D02*
X172883860Y-128506190D01*
X173999729Y-128586601D02*
X174189330Y-128397000D01*
X172883860Y-128506190D02*
X172964271Y-128586601D01*
X183057800Y-128156000D02*
X183997600Y-127216200D01*
X183057800Y-128991500D02*
X183057800Y-128156000D01*
X182519500Y-129529800D02*
X183057800Y-128991500D01*
X183997600Y-123507000D02*
X183959500Y-123468900D01*
X183997600Y-127216200D02*
X183997600Y-123507000D01*
X189972700Y-132462022D02*
X189972700Y-132511800D01*
X187101978Y-129591300D02*
X189972700Y-132462022D01*
X184238900Y-129591300D02*
X187101978Y-129591300D01*
%TO.N,Net-(D1-Pad2)*%
X143904200Y-132743200D02*
X144968200Y-133807200D01*
X143904200Y-132080000D02*
X143904200Y-132743200D01*
%TO.N,/HALL_SLEEP*%
X164346241Y-134963777D02*
X162003543Y-134963777D01*
X161659766Y-134620000D02*
X160963518Y-134620000D01*
X162003543Y-134963777D02*
X161659766Y-134620000D01*
X168244521Y-134861331D02*
X167695879Y-134861331D01*
X160963518Y-134620000D02*
X157635518Y-131292000D01*
X157635518Y-131292000D02*
X150622000Y-131292000D01*
X165129076Y-134912123D02*
X165052877Y-134988322D01*
X164370786Y-134988322D02*
X164346241Y-134963777D01*
X165052877Y-134988322D02*
X164370786Y-134988322D01*
X167645087Y-134912123D02*
X165129076Y-134912123D01*
X167695879Y-134861331D02*
X167645087Y-134912123D01*
X168327580Y-134944390D02*
X168244521Y-134861331D01*
X169358844Y-134944390D02*
X168327580Y-134944390D01*
X169988032Y-134315202D02*
X169358844Y-134944390D01*
X171704000Y-133794500D02*
X171183298Y-134315202D01*
X171183298Y-134315202D02*
X169988032Y-134315202D01*
X191980080Y-134504420D02*
X193972700Y-132511800D01*
X185812420Y-134504420D02*
X191980080Y-134504420D01*
X182987845Y-134213610D02*
X183104231Y-134097224D01*
X175260000Y-134213610D02*
X182987845Y-134213610D01*
%TO.N,/HALL_OUT*%
X190284890Y-134199610D02*
X186777610Y-134199610D01*
X191972700Y-132511800D02*
X190284890Y-134199610D01*
X172800329Y-135297067D02*
X174531497Y-133565899D01*
X170741506Y-135297067D02*
X172800329Y-135297067D01*
X174531497Y-133565899D02*
X182651401Y-133565899D01*
X182651401Y-133565899D02*
X182994300Y-133223000D01*
%TO.N,/SCL1*%
X190391800Y-121818900D02*
X193972700Y-125399800D01*
X183959500Y-121818900D02*
X190391800Y-121818900D01*
X190537890Y-128834610D02*
X193972700Y-125399800D01*
X179047488Y-132029200D02*
X180986582Y-132029200D01*
X178469800Y-131451512D02*
X179047488Y-132029200D01*
X178469800Y-130723600D02*
X178469800Y-131451512D01*
X183535290Y-130863762D02*
X184147852Y-130251200D01*
X183124928Y-132029200D02*
X183535290Y-131618838D01*
X184147852Y-130251200D02*
X186385200Y-130251200D01*
X183535290Y-131618838D02*
X183535290Y-130863762D01*
X180986582Y-132029200D02*
X183124928Y-132029200D01*
X189998890Y-128834610D02*
X190537890Y-128834610D01*
X188595000Y-130238500D02*
X189998890Y-128834610D01*
%TO.N,/SDA1*%
X179042600Y-123878300D02*
X181102000Y-121818900D01*
X178533300Y-123878300D02*
X179042600Y-123878300D01*
X191871600Y-125399800D02*
X191972700Y-125399800D01*
X191376300Y-124904500D02*
X191871600Y-125399800D01*
X191376300Y-124828300D02*
X191376300Y-124904500D01*
X191312800Y-124764800D02*
X191376300Y-124828300D01*
X190784531Y-124764800D02*
X191312800Y-124764800D01*
X188467241Y-122447510D02*
X190784531Y-124764800D01*
X181730610Y-122447510D02*
X188467241Y-122447510D01*
X181102000Y-121818900D02*
X181730610Y-122447510D01*
%TO.N,Net-(U2-Pad23)*%
X159122000Y-126492000D02*
X159337900Y-126707900D01*
%TO.N,/PD4*%
X158450111Y-135217249D02*
X158475173Y-135242311D01*
X158475173Y-135242311D02*
X161419943Y-135242311D01*
X161419943Y-135242311D02*
X161751031Y-135573399D01*
X161751031Y-135573399D02*
X164093729Y-135573399D01*
X164093729Y-135573399D02*
X164118274Y-135597944D01*
X164118274Y-135597944D02*
X165305388Y-135597944D01*
X165305388Y-135597944D02*
X165381588Y-135521744D01*
X165381588Y-135521744D02*
X166873704Y-135521744D01*
X166873704Y-135521744D02*
X167376271Y-136024311D01*
%TO.N,/PD5*%
X173482000Y-137922000D02*
X165608000Y-137922000D01*
X174752000Y-136652000D02*
X173482000Y-137922000D01*
X165061900Y-137922000D02*
X164909500Y-137769600D01*
X165608000Y-137922000D02*
X165061900Y-137922000D01*
X160143718Y-137871200D02*
X159385888Y-137113370D01*
X159385888Y-137113370D02*
X159385888Y-135813821D01*
X162217490Y-137871200D02*
X160143718Y-137871200D01*
X162483800Y-137604890D02*
X162217490Y-137871200D01*
%TO.N,/PD2*%
X159766390Y-138176390D02*
X158496000Y-136906000D01*
X163156510Y-138176390D02*
X159766390Y-138176390D01*
X163576000Y-137756900D02*
X163156510Y-138176390D01*
X163576000Y-136652000D02*
X163576000Y-137756900D01*
%TO.N,/AREF*%
X167518831Y-134607312D02*
X167569623Y-134556520D01*
X164472497Y-134658966D02*
X164497042Y-134683511D01*
X164926621Y-134683511D02*
X165002820Y-134607312D01*
X168370777Y-134556520D02*
X168453836Y-134639579D01*
X165002820Y-134607312D02*
X167518831Y-134607312D01*
X164497042Y-134683511D02*
X164926621Y-134683511D01*
X168453836Y-134639579D02*
X169232588Y-134639579D01*
X169232588Y-134639579D02*
X170128467Y-133743700D01*
X167569623Y-134556520D02*
X168370777Y-134556520D01*
X170128467Y-133743700D02*
X170624500Y-133743700D01*
X160074400Y-132603567D02*
X162129799Y-134658966D01*
X159122000Y-131292000D02*
X159647000Y-131292000D01*
X162129799Y-134658966D02*
X164472497Y-134658966D01*
X160074400Y-131719400D02*
X160074400Y-132603567D01*
X159647000Y-131292000D02*
X160074400Y-131719400D01*
X175516804Y-135652001D02*
X174621637Y-134756834D01*
X176292001Y-135652001D02*
X175516804Y-135652001D01*
X177292000Y-136652000D02*
X176292001Y-135652001D01*
X184238900Y-133895100D02*
X184238900Y-131241300D01*
X182710601Y-135423399D02*
X184238900Y-133895100D01*
%TO.N,/MOSI*%
X129472000Y-131302000D02*
X142534626Y-131302000D01*
X142534626Y-131302000D02*
X142633313Y-131203313D01*
%TO.N,/CS*%
X140614400Y-131851400D02*
X138335199Y-134130601D01*
X138335199Y-134130601D02*
X133368601Y-134130601D01*
X143834864Y-130810000D02*
X142793464Y-131851400D01*
X147229598Y-130810000D02*
X143834864Y-130810000D01*
X149147598Y-128892000D02*
X147229598Y-130810000D01*
X142793464Y-131851400D02*
X140614400Y-131851400D01*
X150622000Y-128892000D02*
X149147598Y-128892000D01*
%TO.N,/SDA*%
X169189400Y-124554400D02*
X169186500Y-124557300D01*
X169189400Y-123063000D02*
X169189400Y-124554400D01*
X172869666Y-131975666D02*
X172273257Y-131975666D01*
X173482000Y-132588000D02*
X172869666Y-131975666D01*
X169186500Y-124557300D02*
X169186500Y-125651634D01*
X169186500Y-125651634D02*
X169772860Y-126237994D01*
X169772860Y-126237994D02*
X171335694Y-126237994D01*
X171335694Y-126237994D02*
X172085000Y-126987300D01*
X159121518Y-124206000D02*
X162775900Y-124206000D01*
X152072000Y-124242000D02*
X152072000Y-125941601D01*
X157089518Y-126238000D02*
X159121518Y-124206000D01*
X152072000Y-125941601D02*
X152368399Y-126238000D01*
X152368399Y-126238000D02*
X157089518Y-126238000D01*
X176533300Y-126399790D02*
X175437800Y-127495290D01*
X176533300Y-124828300D02*
X176533300Y-126399790D01*
X175628290Y-127304800D02*
X175437800Y-127495290D01*
X176340000Y-127304800D02*
X175628290Y-127304800D01*
%TO.N,/SCL*%
X168536500Y-124557300D02*
X168536500Y-125369800D01*
X168536500Y-125184526D02*
X168536500Y-124557300D01*
X167660826Y-126060200D02*
X168536500Y-125184526D01*
X160629600Y-126060200D02*
X167660826Y-126060200D01*
X171506934Y-129133576D02*
X172421358Y-130048000D01*
X171506934Y-128403134D02*
X171506934Y-129133576D01*
X168536500Y-125432700D02*
X171506934Y-128403134D01*
X168536500Y-124557300D02*
X168536500Y-125432700D01*
X172421358Y-130048000D02*
X173482000Y-130048000D01*
X175793900Y-130048000D02*
X176632100Y-129209800D01*
X173482000Y-130048000D02*
X175793900Y-130048000D01*
X175793900Y-130997700D02*
X176469800Y-131673600D01*
X175793900Y-130048000D02*
X175793900Y-130997700D01*
%TO.N,/32kHz*%
X167886500Y-122674500D02*
X167886500Y-124557300D01*
X167386000Y-122174000D02*
X167886500Y-122674500D01*
X167386000Y-122504200D02*
X166827200Y-123063000D01*
X167386000Y-122174000D02*
X167386000Y-122504200D01*
X162064700Y-121437400D02*
X161366200Y-122135900D01*
X164299900Y-121437400D02*
X162064700Y-121437400D01*
X161391600Y-127574800D02*
X161391600Y-126796800D01*
X160074400Y-128892000D02*
X161391600Y-127574800D01*
X159122000Y-128892000D02*
X160074400Y-128892000D01*
%TO.N,+BATT*%
X162256055Y-134354155D02*
X160947100Y-133045200D01*
X164598753Y-134354155D02*
X162256055Y-134354155D01*
X164623298Y-134378700D02*
X164598753Y-134354155D01*
X164800365Y-134378700D02*
X164623298Y-134378700D01*
X164876564Y-134302501D02*
X164800365Y-134378700D01*
X167392575Y-134302501D02*
X164876564Y-134302501D01*
X167443367Y-134251709D02*
X167392575Y-134302501D01*
X168497033Y-134251709D02*
X167443367Y-134251709D01*
X168580092Y-134334768D02*
X168497033Y-134251709D01*
X171856400Y-131584700D02*
X169106332Y-134334768D01*
X171856400Y-130060700D02*
X171856400Y-131584700D01*
X171741399Y-129945699D02*
X171856400Y-130060700D01*
X160947100Y-133045200D02*
X160947100Y-132499100D01*
X169106332Y-134334768D02*
X168580092Y-134334768D01*
X171741399Y-129799107D02*
X171741399Y-129945699D01*
X169683482Y-127741190D02*
X171741399Y-129799107D01*
X168765110Y-127741190D02*
X169683482Y-127741190D01*
X168536500Y-127969800D02*
X168765110Y-127741190D01*
X168536500Y-128782300D02*
X168536500Y-127969800D01*
X128126237Y-134730237D02*
X140834363Y-134730237D01*
X125222000Y-131826000D02*
X128126237Y-134730237D01*
X140834363Y-134730237D02*
X141211300Y-134353300D01*
%TO.N,/LED*%
X150622000Y-129692000D02*
X149708000Y-129692000D01*
X149669600Y-129692000D02*
X150622000Y-129692000D01*
X147947110Y-131414490D02*
X149669600Y-129692000D01*
X146219710Y-131414490D02*
X147947110Y-131414490D01*
X145554200Y-132080000D02*
X146219710Y-131414490D01*
%TO.N,/BATT_MON_EN*%
X112326390Y-131958610D02*
X113030000Y-131255000D01*
X112326390Y-134361390D02*
X112326390Y-131958610D01*
X113030000Y-135065000D02*
X112326390Y-134361390D01*
X149935518Y-130492000D02*
X150622000Y-130492000D01*
X140228863Y-135118588D02*
X148733230Y-135118588D01*
X140219451Y-135128000D02*
X140228863Y-135118588D01*
X121102538Y-132276390D02*
X123954148Y-135128000D01*
X120197462Y-132276390D02*
X121102538Y-132276390D01*
X119946390Y-135045092D02*
X119946390Y-132527462D01*
X118472881Y-136518601D02*
X119946390Y-135045092D01*
X119946390Y-132527462D02*
X120197462Y-132276390D01*
X123954148Y-135128000D02*
X140219451Y-135128000D01*
X113030000Y-131255000D02*
X114163601Y-132388601D01*
X148733230Y-135118588D02*
X150527218Y-133324600D01*
X117207119Y-136518601D02*
X118472881Y-136518601D01*
X117161399Y-136472881D02*
X117207119Y-136518601D01*
X114163601Y-132388601D02*
X116937663Y-132388601D01*
X116937663Y-132388601D02*
X117161399Y-132612337D01*
X117161399Y-132612337D02*
X117161399Y-136472881D01*
X150527218Y-132708182D02*
X150533100Y-132702300D01*
X150527218Y-133324600D02*
X150527218Y-132708182D01*
X150686000Y-130556000D02*
X150622000Y-130492000D01*
X152069800Y-130556000D02*
X150686000Y-130556000D01*
%TO.N,/BATT_MONITOR*%
X120650000Y-135065000D02*
X120650000Y-132905000D01*
X151984400Y-135382000D02*
X153672000Y-133694400D01*
X140355119Y-135423399D02*
X148859486Y-135423399D01*
X123177811Y-135432811D02*
X140345707Y-135432811D01*
X148859486Y-135423399D02*
X148900885Y-135382000D01*
X140345707Y-135432811D02*
X140355119Y-135423399D01*
X148900885Y-135382000D02*
X151984400Y-135382000D01*
X120650000Y-132905000D02*
X123177811Y-135432811D01*
X153672000Y-133694400D02*
X153672000Y-132742000D01*
%TO.N,Net-(R11-Pad1)*%
X113805000Y-132905000D02*
X115840000Y-134940000D01*
X113030000Y-132905000D02*
X113805000Y-132905000D01*
%TO.N,/PD6*%
X157606989Y-132807011D02*
X157672000Y-132742000D01*
X156658000Y-136652000D02*
X157606989Y-135703011D01*
X157606989Y-135703011D02*
X157606989Y-132807011D01*
%TO.N,/VREG_EN*%
X171526200Y-125463300D02*
X171818300Y-125755400D01*
X169849800Y-125463300D02*
X171526200Y-125463300D01*
X159122000Y-125692000D02*
X160074400Y-125692000D01*
X160074400Y-125692000D02*
X160277710Y-125488690D01*
X160277710Y-125488690D02*
X162902910Y-125488690D01*
X179310776Y-131429800D02*
X179302343Y-131438233D01*
X180319500Y-131429800D02*
X179310776Y-131429800D01*
%TO.N,/3V3_FTDI*%
X105156000Y-128270000D02*
X106680000Y-126746000D01*
X102870000Y-128270000D02*
X105156000Y-128270000D01*
%TO.N,/TO_RESET*%
X108141399Y-127062601D02*
X108141399Y-125093601D01*
X106846390Y-128357610D02*
X108141399Y-127062601D01*
X106846390Y-136551390D02*
X106846390Y-128357610D01*
X108141399Y-125093601D02*
X110045000Y-123190000D01*
X107455000Y-137160000D02*
X106846390Y-136551390D01*
X110998000Y-123190000D02*
X111506000Y-123698000D01*
X110045000Y-123190000D02*
X110998000Y-123190000D01*
X112848000Y-125984000D02*
X112726000Y-126106000D01*
X114046000Y-125984000D02*
X112848000Y-125984000D01*
X155519111Y-121399289D02*
X156872000Y-122752178D01*
X143782670Y-121399289D02*
X155519111Y-121399289D01*
X143771801Y-121388420D02*
X143782670Y-121399289D01*
X111529580Y-121388420D02*
X143771801Y-121388420D01*
X156872000Y-122752178D02*
X156872000Y-124242000D01*
X110045000Y-122873000D02*
X111529580Y-121388420D01*
X110045000Y-123190000D02*
X110045000Y-122873000D01*
%TO.N,Net-(C9-Pad2)*%
X164134500Y-130334700D02*
X164274100Y-130474300D01*
X164134500Y-129146300D02*
X164134500Y-130334700D01*
X165544500Y-130474300D02*
X164274100Y-130474300D01*
X167236500Y-128782300D02*
X165544500Y-130474300D01*
%TO.N,Net-(C10-Pad1)*%
X164121800Y-131526600D02*
X164274100Y-131374300D01*
X164121800Y-132689600D02*
X164121800Y-131526600D01*
X167886500Y-129594800D02*
X167886500Y-128782300D01*
X166107000Y-131374300D02*
X167886500Y-129594800D01*
X164274100Y-131374300D02*
X166107000Y-131374300D01*
%TO.N,Net-(D2-Pad2)*%
X147003000Y-132184400D02*
X148651200Y-133832600D01*
X147003000Y-132118100D02*
X147003000Y-132184400D01*
%TO.N,Net-(R18-Pad1)*%
X151448100Y-132118100D02*
X152072000Y-132742000D01*
X148653000Y-132118100D02*
X151448100Y-132118100D01*
%TD*%
D27*
%TO.N,GND*%
X168034240Y-127078576D02*
X168114646Y-127111881D01*
X168254502Y-127139700D01*
X168397098Y-127139700D01*
X168536954Y-127111881D01*
X168613399Y-127080216D01*
X169540064Y-127082842D01*
X169745066Y-127287843D01*
X169705942Y-127283990D01*
X169705932Y-127283990D01*
X169683482Y-127281779D01*
X169661032Y-127283990D01*
X168787559Y-127283990D01*
X168765109Y-127281779D01*
X168742659Y-127283990D01*
X168742650Y-127283990D01*
X168675483Y-127290605D01*
X168589301Y-127316749D01*
X168509874Y-127359203D01*
X168440257Y-127416337D01*
X168425936Y-127433787D01*
X168229093Y-127630630D01*
X168211648Y-127644947D01*
X168211452Y-127645186D01*
X168171276Y-127623711D01*
X168080698Y-127596235D01*
X167986500Y-127586957D01*
X167786500Y-127586957D01*
X167692302Y-127596235D01*
X167601724Y-127623711D01*
X167561500Y-127645211D01*
X167521276Y-127623711D01*
X167430698Y-127596235D01*
X167336500Y-127586957D01*
X167136500Y-127586957D01*
X167042302Y-127596235D01*
X166951724Y-127623711D01*
X166868247Y-127668331D01*
X166795078Y-127728378D01*
X166735031Y-127801547D01*
X166690411Y-127885024D01*
X166662935Y-127975602D01*
X166653657Y-128069800D01*
X166653657Y-128302939D01*
X166585685Y-128220115D01*
X166488994Y-128140763D01*
X166378680Y-128081798D01*
X166258982Y-128045488D01*
X166134500Y-128033228D01*
X165970250Y-128036300D01*
X165811500Y-128195050D01*
X165811500Y-129019300D01*
X165831500Y-129019300D01*
X165831500Y-129273300D01*
X165811500Y-129273300D01*
X165811500Y-129293300D01*
X165557500Y-129293300D01*
X165557500Y-129273300D01*
X165537500Y-129273300D01*
X165537500Y-129019300D01*
X165557500Y-129019300D01*
X165557500Y-128195050D01*
X165398750Y-128036300D01*
X165234500Y-128033228D01*
X165110018Y-128045488D01*
X164990320Y-128081798D01*
X164880006Y-128140763D01*
X164783315Y-128220115D01*
X164703963Y-128316806D01*
X164671657Y-128377245D01*
X164592111Y-128334726D01*
X164478084Y-128300137D01*
X164359500Y-128288457D01*
X163909500Y-128288457D01*
X163790916Y-128300137D01*
X163676889Y-128334726D01*
X163571801Y-128390897D01*
X163479690Y-128466490D01*
X163404097Y-128558601D01*
X163347926Y-128663689D01*
X163313337Y-128777716D01*
X163301657Y-128896300D01*
X163301657Y-129396300D01*
X163313337Y-129514884D01*
X163347926Y-129628911D01*
X163404097Y-129733999D01*
X163479690Y-129826110D01*
X163494517Y-129838278D01*
X163461404Y-129855978D01*
X163403389Y-129903589D01*
X163355778Y-129961604D01*
X163320399Y-130027792D01*
X163298613Y-130099611D01*
X163291257Y-130174300D01*
X163291257Y-130774300D01*
X163298613Y-130848989D01*
X163320399Y-130920808D01*
X163322266Y-130924300D01*
X163320399Y-130927792D01*
X163298613Y-130999611D01*
X163291257Y-131074300D01*
X163291257Y-131674300D01*
X163298613Y-131748989D01*
X163320399Y-131820808D01*
X163355778Y-131886996D01*
X163403389Y-131945011D01*
X163461404Y-131992622D01*
X163477455Y-132001202D01*
X163466990Y-132009790D01*
X163391397Y-132101901D01*
X163335226Y-132206989D01*
X163300637Y-132321016D01*
X163288957Y-132439600D01*
X163288957Y-132939600D01*
X163300637Y-133058184D01*
X163335226Y-133172211D01*
X163391397Y-133277299D01*
X163466990Y-133369410D01*
X163559101Y-133445003D01*
X163664189Y-133501174D01*
X163778216Y-133535763D01*
X163896800Y-133547443D01*
X164346800Y-133547443D01*
X164465384Y-133535763D01*
X164579411Y-133501174D01*
X164658957Y-133458655D01*
X164691263Y-133519094D01*
X164770615Y-133615785D01*
X164867306Y-133695137D01*
X164977620Y-133754102D01*
X165097318Y-133790412D01*
X165221800Y-133802672D01*
X165386050Y-133799600D01*
X165544800Y-133640850D01*
X165544800Y-132816600D01*
X165798800Y-132816600D01*
X165798800Y-133640850D01*
X165957550Y-133799600D01*
X166121800Y-133802672D01*
X166246282Y-133790412D01*
X166365980Y-133754102D01*
X166476294Y-133695137D01*
X166572985Y-133615785D01*
X166652337Y-133519094D01*
X166711302Y-133408780D01*
X166747612Y-133289082D01*
X166759872Y-133164600D01*
X166756800Y-132975350D01*
X166598050Y-132816600D01*
X165798800Y-132816600D01*
X165544800Y-132816600D01*
X165524800Y-132816600D01*
X165524800Y-132562600D01*
X165544800Y-132562600D01*
X165544800Y-132542600D01*
X165798800Y-132542600D01*
X165798800Y-132562600D01*
X166598050Y-132562600D01*
X166756800Y-132403850D01*
X166759872Y-132214600D01*
X166747612Y-132090118D01*
X166711302Y-131970420D01*
X166652337Y-131860106D01*
X166572985Y-131763415D01*
X166476294Y-131684063D01*
X166455128Y-131672749D01*
X168193909Y-129933969D01*
X168211353Y-129919653D01*
X168211549Y-129919415D01*
X168251724Y-129940889D01*
X168342302Y-129968365D01*
X168436500Y-129977643D01*
X168479613Y-129977643D01*
X168529022Y-130039603D01*
X168624589Y-130120305D01*
X168734064Y-130180813D01*
X168853240Y-130218801D01*
X168954750Y-130229800D01*
X169113500Y-130071050D01*
X169113500Y-129554123D01*
X169119343Y-129494800D01*
X169119343Y-128635300D01*
X169259500Y-128635300D01*
X169259500Y-128655300D01*
X169862750Y-128655300D01*
X169906882Y-128611168D01*
X171087171Y-129791457D01*
X169990671Y-129791457D01*
X170013999Y-129710478D01*
X170024509Y-129585837D01*
X170021500Y-129068050D01*
X169862750Y-128909300D01*
X169259500Y-128909300D01*
X169259500Y-130071050D01*
X169418250Y-130229800D01*
X169519760Y-130218801D01*
X169591257Y-130196011D01*
X169591257Y-130774300D01*
X169598613Y-130848989D01*
X169620399Y-130920808D01*
X169622266Y-130924300D01*
X169620399Y-130927792D01*
X169598613Y-130999611D01*
X169591257Y-131074300D01*
X169591257Y-131674300D01*
X169598613Y-131748989D01*
X169620399Y-131820808D01*
X169655778Y-131886996D01*
X169703389Y-131945011D01*
X169761404Y-131992622D01*
X169827592Y-132028001D01*
X169899411Y-132049787D01*
X169974100Y-132057143D01*
X170737379Y-132057143D01*
X168916955Y-133877568D01*
X168761829Y-133877568D01*
X168752269Y-133869722D01*
X168672842Y-133827268D01*
X168586660Y-133801124D01*
X168519493Y-133794509D01*
X168519483Y-133794509D01*
X168497033Y-133792298D01*
X168474583Y-133794509D01*
X167465817Y-133794509D01*
X167443367Y-133792298D01*
X167420917Y-133794509D01*
X167420907Y-133794509D01*
X167353740Y-133801124D01*
X167267558Y-133827268D01*
X167233820Y-133845301D01*
X164899014Y-133845301D01*
X164876564Y-133843090D01*
X164854114Y-133845301D01*
X164854104Y-133845301D01*
X164786937Y-133851916D01*
X164700755Y-133878060D01*
X164658529Y-133900630D01*
X164621213Y-133896955D01*
X164621203Y-133896955D01*
X164598753Y-133894744D01*
X164576303Y-133896955D01*
X162790814Y-133896955D01*
X162836911Y-127293466D01*
X163065877Y-127064501D01*
X168034240Y-127078576D01*
%TA.AperFunction,Conductor*%
D28*
G36*
X168034240Y-127078576D02*
G01*
X168114646Y-127111881D01*
X168254502Y-127139700D01*
X168397098Y-127139700D01*
X168536954Y-127111881D01*
X168613399Y-127080216D01*
X169540064Y-127082842D01*
X169745066Y-127287843D01*
X169705942Y-127283990D01*
X169705932Y-127283990D01*
X169683482Y-127281779D01*
X169661032Y-127283990D01*
X168787559Y-127283990D01*
X168765109Y-127281779D01*
X168742659Y-127283990D01*
X168742650Y-127283990D01*
X168675483Y-127290605D01*
X168589301Y-127316749D01*
X168509874Y-127359203D01*
X168440257Y-127416337D01*
X168425936Y-127433787D01*
X168229093Y-127630630D01*
X168211648Y-127644947D01*
X168211452Y-127645186D01*
X168171276Y-127623711D01*
X168080698Y-127596235D01*
X167986500Y-127586957D01*
X167786500Y-127586957D01*
X167692302Y-127596235D01*
X167601724Y-127623711D01*
X167561500Y-127645211D01*
X167521276Y-127623711D01*
X167430698Y-127596235D01*
X167336500Y-127586957D01*
X167136500Y-127586957D01*
X167042302Y-127596235D01*
X166951724Y-127623711D01*
X166868247Y-127668331D01*
X166795078Y-127728378D01*
X166735031Y-127801547D01*
X166690411Y-127885024D01*
X166662935Y-127975602D01*
X166653657Y-128069800D01*
X166653657Y-128302939D01*
X166585685Y-128220115D01*
X166488994Y-128140763D01*
X166378680Y-128081798D01*
X166258982Y-128045488D01*
X166134500Y-128033228D01*
X165970250Y-128036300D01*
X165811500Y-128195050D01*
X165811500Y-129019300D01*
X165831500Y-129019300D01*
X165831500Y-129273300D01*
X165811500Y-129273300D01*
X165811500Y-129293300D01*
X165557500Y-129293300D01*
X165557500Y-129273300D01*
X165537500Y-129273300D01*
X165537500Y-129019300D01*
X165557500Y-129019300D01*
X165557500Y-128195050D01*
X165398750Y-128036300D01*
X165234500Y-128033228D01*
X165110018Y-128045488D01*
X164990320Y-128081798D01*
X164880006Y-128140763D01*
X164783315Y-128220115D01*
X164703963Y-128316806D01*
X164671657Y-128377245D01*
X164592111Y-128334726D01*
X164478084Y-128300137D01*
X164359500Y-128288457D01*
X163909500Y-128288457D01*
X163790916Y-128300137D01*
X163676889Y-128334726D01*
X163571801Y-128390897D01*
X163479690Y-128466490D01*
X163404097Y-128558601D01*
X163347926Y-128663689D01*
X163313337Y-128777716D01*
X163301657Y-128896300D01*
X163301657Y-129396300D01*
X163313337Y-129514884D01*
X163347926Y-129628911D01*
X163404097Y-129733999D01*
X163479690Y-129826110D01*
X163494517Y-129838278D01*
X163461404Y-129855978D01*
X163403389Y-129903589D01*
X163355778Y-129961604D01*
X163320399Y-130027792D01*
X163298613Y-130099611D01*
X163291257Y-130174300D01*
X163291257Y-130774300D01*
X163298613Y-130848989D01*
X163320399Y-130920808D01*
X163322266Y-130924300D01*
X163320399Y-130927792D01*
X163298613Y-130999611D01*
X163291257Y-131074300D01*
X163291257Y-131674300D01*
X163298613Y-131748989D01*
X163320399Y-131820808D01*
X163355778Y-131886996D01*
X163403389Y-131945011D01*
X163461404Y-131992622D01*
X163477455Y-132001202D01*
X163466990Y-132009790D01*
X163391397Y-132101901D01*
X163335226Y-132206989D01*
X163300637Y-132321016D01*
X163288957Y-132439600D01*
X163288957Y-132939600D01*
X163300637Y-133058184D01*
X163335226Y-133172211D01*
X163391397Y-133277299D01*
X163466990Y-133369410D01*
X163559101Y-133445003D01*
X163664189Y-133501174D01*
X163778216Y-133535763D01*
X163896800Y-133547443D01*
X164346800Y-133547443D01*
X164465384Y-133535763D01*
X164579411Y-133501174D01*
X164658957Y-133458655D01*
X164691263Y-133519094D01*
X164770615Y-133615785D01*
X164867306Y-133695137D01*
X164977620Y-133754102D01*
X165097318Y-133790412D01*
X165221800Y-133802672D01*
X165386050Y-133799600D01*
X165544800Y-133640850D01*
X165544800Y-132816600D01*
X165798800Y-132816600D01*
X165798800Y-133640850D01*
X165957550Y-133799600D01*
X166121800Y-133802672D01*
X166246282Y-133790412D01*
X166365980Y-133754102D01*
X166476294Y-133695137D01*
X166572985Y-133615785D01*
X166652337Y-133519094D01*
X166711302Y-133408780D01*
X166747612Y-133289082D01*
X166759872Y-133164600D01*
X166756800Y-132975350D01*
X166598050Y-132816600D01*
X165798800Y-132816600D01*
X165544800Y-132816600D01*
X165524800Y-132816600D01*
X165524800Y-132562600D01*
X165544800Y-132562600D01*
X165544800Y-132542600D01*
X165798800Y-132542600D01*
X165798800Y-132562600D01*
X166598050Y-132562600D01*
X166756800Y-132403850D01*
X166759872Y-132214600D01*
X166747612Y-132090118D01*
X166711302Y-131970420D01*
X166652337Y-131860106D01*
X166572985Y-131763415D01*
X166476294Y-131684063D01*
X166455128Y-131672749D01*
X168193909Y-129933969D01*
X168211353Y-129919653D01*
X168211549Y-129919415D01*
X168251724Y-129940889D01*
X168342302Y-129968365D01*
X168436500Y-129977643D01*
X168479613Y-129977643D01*
X168529022Y-130039603D01*
X168624589Y-130120305D01*
X168734064Y-130180813D01*
X168853240Y-130218801D01*
X168954750Y-130229800D01*
X169113500Y-130071050D01*
X169113500Y-129554123D01*
X169119343Y-129494800D01*
X169119343Y-128635300D01*
X169259500Y-128635300D01*
X169259500Y-128655300D01*
X169862750Y-128655300D01*
X169906882Y-128611168D01*
X171087171Y-129791457D01*
X169990671Y-129791457D01*
X170013999Y-129710478D01*
X170024509Y-129585837D01*
X170021500Y-129068050D01*
X169862750Y-128909300D01*
X169259500Y-128909300D01*
X169259500Y-130071050D01*
X169418250Y-130229800D01*
X169519760Y-130218801D01*
X169591257Y-130196011D01*
X169591257Y-130774300D01*
X169598613Y-130848989D01*
X169620399Y-130920808D01*
X169622266Y-130924300D01*
X169620399Y-130927792D01*
X169598613Y-130999611D01*
X169591257Y-131074300D01*
X169591257Y-131674300D01*
X169598613Y-131748989D01*
X169620399Y-131820808D01*
X169655778Y-131886996D01*
X169703389Y-131945011D01*
X169761404Y-131992622D01*
X169827592Y-132028001D01*
X169899411Y-132049787D01*
X169974100Y-132057143D01*
X170737379Y-132057143D01*
X168916955Y-133877568D01*
X168761829Y-133877568D01*
X168752269Y-133869722D01*
X168672842Y-133827268D01*
X168586660Y-133801124D01*
X168519493Y-133794509D01*
X168519483Y-133794509D01*
X168497033Y-133792298D01*
X168474583Y-133794509D01*
X167465817Y-133794509D01*
X167443367Y-133792298D01*
X167420917Y-133794509D01*
X167420907Y-133794509D01*
X167353740Y-133801124D01*
X167267558Y-133827268D01*
X167233820Y-133845301D01*
X164899014Y-133845301D01*
X164876564Y-133843090D01*
X164854114Y-133845301D01*
X164854104Y-133845301D01*
X164786937Y-133851916D01*
X164700755Y-133878060D01*
X164658529Y-133900630D01*
X164621213Y-133896955D01*
X164621203Y-133896955D01*
X164598753Y-133894744D01*
X164576303Y-133896955D01*
X162790814Y-133896955D01*
X162836911Y-127293466D01*
X163065877Y-127064501D01*
X168034240Y-127078576D01*
G37*
%TD.AperFunction*%
%TD*%
M02*
