%TF.GenerationSoftware,KiCad,Pcbnew,(5.1.10)-1*%
%TF.CreationDate,2021-07-02T15:13:39-07:00*%
%TF.ProjectId,BivalveBit,42697661-6c76-4654-9269-742e6b696361,A*%
%TF.SameCoordinates,Original*%
%TF.FileFunction,Soldermask,Bot*%
%TF.FilePolarity,Negative*%
%FSLAX46Y46*%
G04 Gerber Fmt 4.6, Leading zero omitted, Abs format (unit mm)*
G04 Created by KiCad (PCBNEW (5.1.10)-1) date 2021-07-02 15:13:39*
%MOMM*%
%LPD*%
G01*
G04 APERTURE LIST*
%ADD10O,1.301600X1.851600*%
%ADD11C,5.101600*%
%ADD12O,1.801600X1.801600*%
%ADD13C,1.092200*%
%ADD14O,1.851600X1.301600*%
%ADD15C,2.101600*%
G04 APERTURE END LIST*
D10*
%TO.C,HEART_SENSOR1*%
X193972700Y-125399800D03*
X191972700Y-125399800D03*
X189972700Y-125399800D03*
G36*
G01*
X187321900Y-126054435D02*
X187321900Y-124745165D01*
G75*
G02*
X187593065Y-124474000I271165J0D01*
G01*
X188352335Y-124474000D01*
G75*
G02*
X188623500Y-124745165I0J-271165D01*
G01*
X188623500Y-126054435D01*
G75*
G02*
X188352335Y-126325600I-271165J0D01*
G01*
X187593065Y-126325600D01*
G75*
G02*
X187321900Y-126054435I0J271165D01*
G01*
G37*
%TD*%
D11*
%TO.C,RTC_BATT1*%
X132080000Y-130810000D03*
G36*
G01*
X138179200Y-132460000D02*
X138179200Y-129160000D01*
G75*
G02*
X138230000Y-129109200I50800J0D01*
G01*
X141730000Y-129109200D01*
G75*
G02*
X141780800Y-129160000I0J-50800D01*
G01*
X141780800Y-132460000D01*
G75*
G02*
X141730000Y-132510800I-50800J0D01*
G01*
X138230000Y-132510800D01*
G75*
G02*
X138179200Y-132460000I0J50800D01*
G01*
G37*
G36*
G01*
X122379200Y-132460000D02*
X122379200Y-129160000D01*
G75*
G02*
X122430000Y-129109200I50800J0D01*
G01*
X125930000Y-129109200D01*
G75*
G02*
X125980800Y-129160000I0J-50800D01*
G01*
X125980800Y-132460000D01*
G75*
G02*
X125930000Y-132510800I-50800J0D01*
G01*
X122430000Y-132510800D01*
G75*
G02*
X122379200Y-132460000I0J50800D01*
G01*
G37*
%TD*%
D12*
%TO.C,J1*%
X106680000Y-126492000D03*
G36*
G01*
X108370000Y-125591200D02*
X110070000Y-125591200D01*
G75*
G02*
X110120800Y-125642000I0J-50800D01*
G01*
X110120800Y-127342000D01*
G75*
G02*
X110070000Y-127392800I-50800J0D01*
G01*
X108370000Y-127392800D01*
G75*
G02*
X108319200Y-127342000I0J50800D01*
G01*
X108319200Y-125642000D01*
G75*
G02*
X108370000Y-125591200I50800J0D01*
G01*
G37*
%TD*%
D13*
%TO.C,PROGRAM_HEADER1*%
X145923000Y-127508000D03*
X146939000Y-122428000D03*
X144907000Y-122428000D03*
%TD*%
D14*
%TO.C,PRIMARY_BATTERY1*%
X107950000Y-132810000D03*
G36*
G01*
X107295365Y-130159200D02*
X108604635Y-130159200D01*
G75*
G02*
X108875800Y-130430365I0J-271165D01*
G01*
X108875800Y-131189635D01*
G75*
G02*
X108604635Y-131460800I-271165J0D01*
G01*
X107295365Y-131460800D01*
G75*
G02*
X107024200Y-131189635I0J271165D01*
G01*
X107024200Y-130430365D01*
G75*
G02*
X107295365Y-130159200I271165J0D01*
G01*
G37*
%TD*%
D12*
%TO.C,OLED1*%
X173482000Y-132588000D03*
X173482000Y-130048000D03*
X173482000Y-127508000D03*
G36*
G01*
X172581200Y-125818000D02*
X172581200Y-124118000D01*
G75*
G02*
X172632000Y-124067200I50800J0D01*
G01*
X174332000Y-124067200D01*
G75*
G02*
X174382800Y-124118000I0J-50800D01*
G01*
X174382800Y-125818000D01*
G75*
G02*
X174332000Y-125868800I-50800J0D01*
G01*
X172632000Y-125868800D01*
G75*
G02*
X172581200Y-125818000I0J50800D01*
G01*
G37*
%TD*%
D15*
%TO.C,J7*%
X177292000Y-136652000D03*
%TD*%
D12*
%TO.C,J6*%
X166116000Y-136652000D03*
X163576000Y-136652000D03*
G36*
G01*
X161886000Y-137552800D02*
X160186000Y-137552800D01*
G75*
G02*
X160135200Y-137502000I0J50800D01*
G01*
X160135200Y-135802000D01*
G75*
G02*
X160186000Y-135751200I50800J0D01*
G01*
X161886000Y-135751200D01*
G75*
G02*
X161936800Y-135802000I0J-50800D01*
G01*
X161936800Y-137502000D01*
G75*
G02*
X161886000Y-137552800I-50800J0D01*
G01*
G37*
%TD*%
D15*
%TO.C,J5*%
X174752000Y-136652000D03*
%TD*%
%TO.C,J4*%
X172212000Y-136652000D03*
%TD*%
D10*
%TO.C,HALL_SENSOR1*%
X193972700Y-132511800D03*
X191972700Y-132511800D03*
X189972700Y-132511800D03*
G36*
G01*
X187321900Y-133166435D02*
X187321900Y-131857165D01*
G75*
G02*
X187593065Y-131586000I271165J0D01*
G01*
X188352335Y-131586000D01*
G75*
G02*
X188623500Y-131857165I0J-271165D01*
G01*
X188623500Y-133166435D01*
G75*
G02*
X188352335Y-133437600I-271165J0D01*
G01*
X187593065Y-133437600D01*
G75*
G02*
X187321900Y-133166435I0J271165D01*
G01*
G37*
%TD*%
D12*
%TO.C,FTDI1*%
X102870000Y-135890000D03*
X102870000Y-133350000D03*
X102870000Y-130810000D03*
X102870000Y-128270000D03*
X102870000Y-125730000D03*
G36*
G01*
X101969200Y-124040000D02*
X101969200Y-122340000D01*
G75*
G02*
X102020000Y-122289200I50800J0D01*
G01*
X103720000Y-122289200D01*
G75*
G02*
X103770800Y-122340000I0J-50800D01*
G01*
X103770800Y-124040000D01*
G75*
G02*
X103720000Y-124090800I-50800J0D01*
G01*
X102020000Y-124090800D01*
G75*
G02*
X101969200Y-124040000I0J50800D01*
G01*
G37*
%TD*%
D15*
%TO.C,J8*%
X179832000Y-136652000D03*
%TD*%
%TO.C,J2*%
X161366200Y-122135900D03*
%TD*%
M02*
